<svg width="480" height="560" viewBox="0 0 480 560" fill="none" xmlns="http://www.w3.org/2000/svg">
<g filter="url(#filter0_d)">
<rect x="10" y="67" width="460" height="475" rx="48" fill="white"/>
</g>
<rect x="226" y="242" width="95" height="132" rx="15" fill="#E7E7E7"/>
<g clip-path="url(#clip0)">
<g filter="url(#filter1_d)">
<path d="M304.971 352.714H299.029C296.567 352.714 294.571 354.709 294.571 357.171V363.114C294.571 365.575 296.567 367.571 299.029 367.571H304.971C307.433 367.571 309.429 365.575 309.429 363.114V357.171C309.429 354.709 307.433 352.714 304.971 352.714Z" fill="black"/>
</g>
<path d="M304.971 352.714H299.029C296.567 352.714 294.571 354.709 294.571 357.171V363.114C294.571 365.575 296.567 367.571 299.029 367.571H304.971C307.433 367.571 309.429 365.575 309.429 363.114V357.171C309.429 354.709 307.433 352.714 304.971 352.714Z" fill="#5375FF"/>
<path d="M305.19 356.953C305.061 356.824 304.879 356.772 304.702 356.814L304.699 356.814L298.865 358.242C298.305 358.379 297.914 358.877 297.914 359.454V360.224C297.914 360.505 298.136 360.734 298.414 360.746L300.609 361.119C300.655 361.127 300.702 361.112 300.736 361.079L303.322 358.493C303.412 358.402 303.559 358.402 303.65 358.493C303.74 358.584 303.74 358.731 303.65 358.821L301.064 361.407C301.031 361.441 301.016 361.488 301.023 361.534L301.397 363.729C301.409 364.006 301.638 364.228 301.919 364.228H302.689C303.265 364.228 303.764 363.837 303.901 363.278L305.328 357.444L305.329 357.441C305.37 357.264 305.318 357.082 305.19 356.953Z" fill="#FBFBFB"/>
</g>
<rect x="235" y="328" width="77" height="3" rx="1.5" fill="#B0AFAF"/>
<rect x="252" y="335" width="47" height="3" rx="1.5" fill="#B0AFAF"/>
<circle cx="249" cy="267" r="11" fill="#C4C4C4"/>
<rect x="265" y="260" width="41" height="3" rx="1.5" fill="#B0AFAF"/>
<rect x="265" y="266" width="33" height="1" rx="0.5" fill="#C4C4C4"/>
<rect x="233" y="292" width="82" height="14" rx="2" fill="#E5ECFE"/>
<rect x="233" y="292" width="53" height="14" rx="2" fill="url(#paint0_linear)"/>
<g filter="url(#filter2_d)">
<rect x="236" y="353" width="50" height="14" rx="2" fill="#5375FF"/>
</g>
<path d="M247.857 362.06C248.682 362.06 249.138 361.628 249.141 360.98C249.144 360.227 248.532 360.05 247.878 359.861C247.275 359.684 246.876 359.546 246.876 359.072C246.876 358.664 247.17 358.394 247.74 358.394C248.415 358.394 248.706 358.781 248.748 359.357L249.108 359.279C249.09 358.442 248.562 358.04 247.755 358.04C247.002 358.04 246.459 358.412 246.459 359.099C246.459 359.81 247.026 360.038 247.707 360.221C248.331 360.395 248.73 360.518 248.73 360.998C248.73 361.493 248.385 361.703 247.863 361.703C247.089 361.703 246.702 361.343 246.714 360.665L246.333 360.725C246.315 361.667 247.002 362.06 247.857 362.06ZM251.4 359.063C250.923 359.063 250.566 359.3 250.386 359.669V357.812H249.993V362H250.386V360.491C250.386 359.822 250.794 359.429 251.334 359.429C251.826 359.429 252.063 359.705 252.063 360.317V362H252.456V360.26C252.456 359.474 252.108 359.063 251.4 359.063ZM254.553 362.06C255.42 362.06 255.981 361.415 255.981 360.56C255.981 359.705 255.42 359.063 254.553 359.063C253.686 359.063 253.122 359.705 253.122 360.56C253.122 361.415 253.686 362.06 254.553 362.06ZM254.553 361.709C253.926 361.709 253.521 361.22 253.521 360.56C253.521 359.9 253.926 359.414 254.553 359.414C255.177 359.414 255.582 359.9 255.582 360.56C255.582 361.22 255.177 361.709 254.553 361.709ZM260.071 359.123L259.615 360.8C259.534 361.1 259.465 361.388 259.39 361.697C259.312 361.376 259.234 361.085 259.15 360.797L258.652 359.126H258.205L257.704 360.797C257.62 361.085 257.542 361.376 257.464 361.697C257.389 361.388 257.32 361.1 257.242 360.8L256.786 359.123H256.378L257.203 362H257.701L258.25 360.185C258.316 359.966 258.367 359.75 258.427 359.522C258.487 359.75 258.541 359.966 258.607 360.185L259.153 362H259.651L260.476 359.123H260.071ZM265.556 359.063C265.058 359.063 264.734 359.303 264.578 359.681C264.464 359.276 264.191 359.063 263.717 359.063C263.234 359.063 262.928 359.285 262.772 359.639L262.778 359.123H262.403V362H262.793V360.482C262.793 359.81 263.105 359.42 263.648 359.42C264.107 359.42 264.257 359.699 264.257 360.302V362H264.644V360.482C264.644 359.81 264.953 359.42 265.496 359.42C265.958 359.42 266.108 359.708 266.108 360.302V362H266.495V360.26C266.495 359.492 266.225 359.063 265.556 359.063ZM268.598 362.06C269.465 362.06 270.026 361.415 270.026 360.56C270.026 359.705 269.465 359.063 268.598 359.063C267.731 359.063 267.167 359.705 267.167 360.56C267.167 361.415 267.731 362.06 268.598 362.06ZM268.598 361.709C267.971 361.709 267.566 361.22 267.566 360.56C267.566 359.9 267.971 359.414 268.598 359.414C269.222 359.414 269.627 359.9 269.627 360.56C269.627 361.22 269.222 361.709 268.598 361.709ZM271.116 359.711L271.122 359.123H270.747V362H271.134V360.476C271.134 359.726 271.707 359.354 272.268 359.501L272.295 359.09C271.764 358.973 271.311 359.207 271.116 359.711ZM275.214 360.503C275.214 359.642 274.743 359.063 273.933 359.063C273.12 359.063 272.598 359.72 272.598 360.554C272.598 361.406 273.141 362.06 273.978 362.06C274.56 362.06 274.992 361.79 275.16 361.277L274.851 361.169C274.713 361.511 274.443 361.718 273.978 361.718C273.402 361.718 273.039 361.289 272.994 360.674H275.211C275.214 360.614 275.214 360.557 275.214 360.503ZM273.933 359.399C274.467 359.399 274.779 359.75 274.821 360.35H273.003C273.063 359.789 273.396 359.399 273.933 359.399Z" fill="white"/>
<path d="M242.804 297.1L241.745 299.791C241.643 300.055 241.574 300.253 241.496 300.481C241.418 300.25 241.331 300.007 241.247 299.791L240.188 297.1H239.567V301H239.96V298.294C239.96 298.03 239.957 297.793 239.954 297.535C240.041 297.796 240.131 298.042 240.239 298.312L241.316 301H241.676L242.753 298.312C242.858 298.045 242.948 297.802 243.038 297.529C243.035 297.802 243.032 298.036 243.032 298.294V301H243.425V297.1H242.804ZM246.911 300.697C246.698 300.697 246.668 300.541 246.668 300.388V299.236C246.668 298.684 246.482 298.063 245.534 298.063C244.925 298.063 244.532 298.333 244.37 298.876L244.724 298.993C244.85 298.6 245.072 298.402 245.537 298.402C246.113 298.402 246.281 298.762 246.281 299.233V299.443C246.062 299.416 245.843 299.401 245.642 299.401C244.88 299.401 244.295 299.599 244.295 300.223C244.295 300.751 244.7 301.06 245.282 301.06C245.756 301.06 246.122 300.847 246.311 300.541C246.335 300.856 246.47 301.03 246.83 301.03C246.914 301.03 246.992 301.021 247.079 301.003V300.682C247.019 300.694 246.968 300.697 246.911 300.697ZM245.33 300.718C244.985 300.718 244.718 300.565 244.718 300.214C244.718 299.836 245.081 299.713 245.654 299.713C245.852 299.713 246.062 299.725 246.281 299.749V300.226C246.089 300.532 245.741 300.718 245.33 300.718ZM249.262 300.571C249.142 300.652 249.019 300.691 248.857 300.691C248.5 300.691 248.338 300.496 248.338 300.064V298.456H249.328V298.123H248.338V297.187L247.948 297.241V298.123H247.327V298.456H247.948V300.109C247.948 300.763 248.284 301.045 248.812 301.045C249.043 301.045 249.226 300.988 249.394 300.88L249.262 300.571ZM251.164 301.06C251.794 301.06 252.268 300.757 252.412 300.112L252.064 300.04C251.941 300.463 251.662 300.712 251.167 300.712C250.525 300.712 250.171 300.214 250.171 299.56C250.171 298.909 250.525 298.411 251.167 298.411C251.662 298.411 251.941 298.66 252.064 299.083L252.412 299.011C252.268 298.366 251.794 298.063 251.164 298.063C250.303 298.063 249.772 298.714 249.772 299.56C249.772 300.406 250.303 301.06 251.164 301.06ZM254.583 298.063C254.106 298.063 253.749 298.3 253.569 298.669V296.812H253.176V301H253.569V299.491C253.569 298.822 253.977 298.429 254.517 298.429C255.009 298.429 255.246 298.705 255.246 299.317V301H255.639V299.26C255.639 298.474 255.291 298.063 254.583 298.063Z" fill="white"/>
<path d="M262.001 298.399C261.668 298.399 261.428 298.471 261.215 298.66L261.272 297.964H262.994V297.1H260.432L260.288 299.062L261.14 299.518C261.26 299.326 261.437 299.224 261.662 299.224C262.022 299.224 262.181 299.398 262.181 299.698C262.181 300.016 261.983 300.184 261.674 300.184C261.362 300.184 261.116 300.022 261.071 299.638L260.075 299.722C260.156 300.586 260.732 301.054 261.671 301.054C262.586 301.054 263.237 300.508 263.237 299.698C263.237 298.918 262.799 298.399 262.001 298.399ZM265.405 298.399C265.072 298.399 264.832 298.471 264.619 298.66L264.676 297.964H266.398V297.1H263.836L263.692 299.062L264.544 299.518C264.664 299.326 264.841 299.224 265.066 299.224C265.426 299.224 265.585 299.398 265.585 299.698C265.585 300.016 265.387 300.184 265.078 300.184C264.766 300.184 264.52 300.022 264.475 299.638L263.479 299.722C263.56 300.586 264.136 301.054 265.075 301.054C265.99 301.054 266.641 300.508 266.641 299.698C266.641 298.918 266.203 298.399 265.405 298.399ZM267.937 299.008C268.525 299.008 268.909 298.6 268.909 298.03C268.909 297.454 268.525 297.046 267.937 297.046C267.349 297.046 266.959 297.454 266.959 298.03C266.959 298.6 267.349 299.008 267.937 299.008ZM267.343 301H268.207L270.763 297.1H269.899L267.343 301ZM267.937 298.33C267.775 298.33 267.679 298.216 267.679 298.03C267.679 297.838 267.775 297.718 267.937 297.718C268.093 297.718 268.189 297.838 268.189 298.03C268.189 298.216 268.093 298.33 267.937 298.33ZM270.163 301.054C270.751 301.054 271.141 300.646 271.141 300.07C271.141 299.5 270.751 299.092 270.163 299.092C269.575 299.092 269.191 299.5 269.191 300.07C269.191 300.646 269.575 301.054 270.163 301.054ZM270.163 300.382C270.007 300.382 269.911 300.262 269.911 300.07C269.911 299.884 270.007 299.77 270.163 299.77C270.325 299.77 270.415 299.884 270.415 300.07C270.415 300.262 270.325 300.382 270.163 300.382Z" fill="white"/>
<rect x="233.2" y="314.2" width="22.6" height="5.6" rx="2.8" stroke="#5375FF" stroke-width="0.4"/>
<rect x="261.2" y="314.2" width="18.6" height="5.6" rx="2.8" stroke="#5375FF" stroke-width="0.4"/>
<rect x="289.2" y="314.2" width="9.6" height="5.6" rx="2.8" stroke="#5375FF" stroke-width="0.4"/>
<rect x="344" y="242" width="95" height="132" rx="15" fill="#E7E7E7"/>
<g clip-path="url(#clip1)">
<g filter="url(#filter3_d)">
<path d="M422.971 352.714H417.029C414.567 352.714 412.571 354.709 412.571 357.171V363.114C412.571 365.575 414.567 367.571 417.029 367.571H422.971C425.433 367.571 427.429 365.575 427.429 363.114V357.171C427.429 354.709 425.433 352.714 422.971 352.714Z" fill="black"/>
</g>
<path d="M422.971 352.714H417.029C414.567 352.714 412.571 354.709 412.571 357.171V363.114C412.571 365.575 414.567 367.571 417.029 367.571H422.971C425.433 367.571 427.429 365.575 427.429 363.114V357.171C427.429 354.709 425.433 352.714 422.971 352.714Z" fill="#5375FF"/>
<path d="M423.19 356.953C423.061 356.824 422.879 356.772 422.702 356.814L422.699 356.814L416.865 358.242C416.305 358.379 415.914 358.877 415.914 359.454V360.224C415.914 360.505 416.136 360.734 416.414 360.746L418.609 361.119C418.655 361.127 418.702 361.112 418.736 361.079L421.322 358.493C421.412 358.402 421.559 358.402 421.65 358.493C421.74 358.584 421.74 358.731 421.65 358.821L419.064 361.407C419.031 361.441 419.016 361.488 419.023 361.534L419.397 363.729C419.409 364.006 419.638 364.228 419.919 364.228H420.689C421.265 364.228 421.764 363.837 421.901 363.278L423.328 357.444L423.329 357.441C423.37 357.264 423.318 357.082 423.19 356.953Z" fill="#FBFBFB"/>
</g>
<rect x="353" y="328" width="77" height="3" rx="1.5" fill="#B0AFAF"/>
<rect x="370" y="335" width="47" height="3" rx="1.5" fill="#B0AFAF"/>
<circle cx="367" cy="267" r="11" fill="#C4C4C4"/>
<rect x="383" y="260" width="41" height="3" rx="1.5" fill="#B0AFAF"/>
<rect x="383" y="266" width="33" height="1" rx="0.5" fill="#C4C4C4"/>
<rect x="351" y="292" width="82" height="14" rx="2" fill="#E5ECFE"/>
<rect x="351" y="292" width="45" height="14" rx="2" fill="url(#paint1_linear)"/>
<g filter="url(#filter4_d)">
<rect x="354" y="353" width="50" height="14" rx="2" fill="#5375FF"/>
</g>
<path d="M365.857 362.06C366.682 362.06 367.138 361.628 367.141 360.98C367.144 360.227 366.532 360.05 365.878 359.861C365.275 359.684 364.876 359.546 364.876 359.072C364.876 358.664 365.17 358.394 365.74 358.394C366.415 358.394 366.706 358.781 366.748 359.357L367.108 359.279C367.09 358.442 366.562 358.04 365.755 358.04C365.002 358.04 364.459 358.412 364.459 359.099C364.459 359.81 365.026 360.038 365.707 360.221C366.331 360.395 366.73 360.518 366.73 360.998C366.73 361.493 366.385 361.703 365.863 361.703C365.089 361.703 364.702 361.343 364.714 360.665L364.333 360.725C364.315 361.667 365.002 362.06 365.857 362.06ZM369.4 359.063C368.923 359.063 368.566 359.3 368.386 359.669V357.812H367.993V362H368.386V360.491C368.386 359.822 368.794 359.429 369.334 359.429C369.826 359.429 370.063 359.705 370.063 360.317V362H370.456V360.26C370.456 359.474 370.108 359.063 369.4 359.063ZM372.553 362.06C373.42 362.06 373.981 361.415 373.981 360.56C373.981 359.705 373.42 359.063 372.553 359.063C371.686 359.063 371.122 359.705 371.122 360.56C371.122 361.415 371.686 362.06 372.553 362.06ZM372.553 361.709C371.926 361.709 371.521 361.22 371.521 360.56C371.521 359.9 371.926 359.414 372.553 359.414C373.177 359.414 373.582 359.9 373.582 360.56C373.582 361.22 373.177 361.709 372.553 361.709ZM378.071 359.123L377.615 360.8C377.534 361.1 377.465 361.388 377.39 361.697C377.312 361.376 377.234 361.085 377.15 360.797L376.652 359.126H376.205L375.704 360.797C375.62 361.085 375.542 361.376 375.464 361.697C375.389 361.388 375.32 361.1 375.242 360.8L374.786 359.123H374.378L375.203 362H375.701L376.25 360.185C376.316 359.966 376.367 359.75 376.427 359.522C376.487 359.75 376.541 359.966 376.607 360.185L377.153 362H377.651L378.476 359.123H378.071ZM383.556 359.063C383.058 359.063 382.734 359.303 382.578 359.681C382.464 359.276 382.191 359.063 381.717 359.063C381.234 359.063 380.928 359.285 380.772 359.639L380.778 359.123H380.403V362H380.793V360.482C380.793 359.81 381.105 359.42 381.648 359.42C382.107 359.42 382.257 359.699 382.257 360.302V362H382.644V360.482C382.644 359.81 382.953 359.42 383.496 359.42C383.958 359.42 384.108 359.708 384.108 360.302V362H384.495V360.26C384.495 359.492 384.225 359.063 383.556 359.063ZM386.598 362.06C387.465 362.06 388.026 361.415 388.026 360.56C388.026 359.705 387.465 359.063 386.598 359.063C385.731 359.063 385.167 359.705 385.167 360.56C385.167 361.415 385.731 362.06 386.598 362.06ZM386.598 361.709C385.971 361.709 385.566 361.22 385.566 360.56C385.566 359.9 385.971 359.414 386.598 359.414C387.222 359.414 387.627 359.9 387.627 360.56C387.627 361.22 387.222 361.709 386.598 361.709ZM389.116 359.711L389.122 359.123H388.747V362H389.134V360.476C389.134 359.726 389.707 359.354 390.268 359.501L390.295 359.09C389.764 358.973 389.311 359.207 389.116 359.711ZM393.214 360.503C393.214 359.642 392.743 359.063 391.933 359.063C391.12 359.063 390.598 359.72 390.598 360.554C390.598 361.406 391.141 362.06 391.978 362.06C392.56 362.06 392.992 361.79 393.16 361.277L392.851 361.169C392.713 361.511 392.443 361.718 391.978 361.718C391.402 361.718 391.039 361.289 390.994 360.674H393.211C393.214 360.614 393.214 360.557 393.214 360.503ZM391.933 359.399C392.467 359.399 392.779 359.75 392.821 360.35H391.003C391.063 359.789 391.396 359.399 391.933 359.399Z" fill="white"/>
<path d="M360.804 297.1L359.745 299.791C359.643 300.055 359.574 300.253 359.496 300.481C359.418 300.25 359.331 300.007 359.247 299.791L358.188 297.1H357.567V301H357.96V298.294C357.96 298.03 357.957 297.793 357.954 297.535C358.041 297.796 358.131 298.042 358.239 298.312L359.316 301H359.676L360.753 298.312C360.858 298.045 360.948 297.802 361.038 297.529C361.035 297.802 361.032 298.036 361.032 298.294V301H361.425V297.1H360.804ZM364.911 300.697C364.698 300.697 364.668 300.541 364.668 300.388V299.236C364.668 298.684 364.482 298.063 363.534 298.063C362.925 298.063 362.532 298.333 362.37 298.876L362.724 298.993C362.85 298.6 363.072 298.402 363.537 298.402C364.113 298.402 364.281 298.762 364.281 299.233V299.443C364.062 299.416 363.843 299.401 363.642 299.401C362.88 299.401 362.295 299.599 362.295 300.223C362.295 300.751 362.7 301.06 363.282 301.06C363.756 301.06 364.122 300.847 364.311 300.541C364.335 300.856 364.47 301.03 364.83 301.03C364.914 301.03 364.992 301.021 365.079 301.003V300.682C365.019 300.694 364.968 300.697 364.911 300.697ZM363.33 300.718C362.985 300.718 362.718 300.565 362.718 300.214C362.718 299.836 363.081 299.713 363.654 299.713C363.852 299.713 364.062 299.725 364.281 299.749V300.226C364.089 300.532 363.741 300.718 363.33 300.718ZM367.262 300.571C367.142 300.652 367.019 300.691 366.857 300.691C366.5 300.691 366.338 300.496 366.338 300.064V298.456H367.328V298.123H366.338V297.187L365.948 297.241V298.123H365.327V298.456H365.948V300.109C365.948 300.763 366.284 301.045 366.812 301.045C367.043 301.045 367.226 300.988 367.394 300.88L367.262 300.571ZM369.164 301.06C369.794 301.06 370.268 300.757 370.412 300.112L370.064 300.04C369.941 300.463 369.662 300.712 369.167 300.712C368.525 300.712 368.171 300.214 368.171 299.56C368.171 298.909 368.525 298.411 369.167 298.411C369.662 298.411 369.941 298.66 370.064 299.083L370.412 299.011C370.268 298.366 369.794 298.063 369.164 298.063C368.303 298.063 367.772 298.714 367.772 299.56C367.772 300.406 368.303 301.06 369.164 301.06ZM372.583 298.063C372.106 298.063 371.749 298.3 371.569 298.669V296.812H371.176V301H371.569V299.491C371.569 298.822 371.977 298.429 372.517 298.429C373.009 298.429 373.246 298.705 373.246 299.317V301H373.639V299.26C373.639 298.474 373.291 298.063 372.583 298.063Z" fill="white"/>
<path d="M381.567 299.485H381.036V297.07H379.389L378.078 299.557L378.204 300.31L380.013 300.301V301H381.036V300.298L381.567 300.295V299.485ZM379.215 299.485L379.473 298.972C379.674 298.576 379.869 298.18 380.04 297.742C380.019 298.111 380.013 298.471 380.013 298.843V299.485H379.215ZM383.513 301.054C384.635 301.054 385.175 300.349 385.175 299.05C385.175 297.748 384.605 297.046 383.513 297.046C382.421 297.046 381.851 297.748 381.851 299.05C381.851 300.349 382.391 301.054 383.513 301.054ZM383.513 300.208C383.075 300.208 382.874 299.767 382.874 299.05C382.874 298.333 383.075 297.892 383.513 297.892C383.951 297.892 384.152 298.333 384.152 299.05C384.152 299.767 383.951 300.208 383.513 300.208ZM386.47 299.008C387.058 299.008 387.442 298.6 387.442 298.03C387.442 297.454 387.058 297.046 386.47 297.046C385.882 297.046 385.492 297.454 385.492 298.03C385.492 298.6 385.882 299.008 386.47 299.008ZM385.876 301H386.74L389.296 297.1H388.432L385.876 301ZM386.47 298.33C386.308 298.33 386.212 298.216 386.212 298.03C386.212 297.838 386.308 297.718 386.47 297.718C386.626 297.718 386.722 297.838 386.722 298.03C386.722 298.216 386.626 298.33 386.47 298.33ZM388.696 301.054C389.284 301.054 389.674 300.646 389.674 300.07C389.674 299.5 389.284 299.092 388.696 299.092C388.108 299.092 387.724 299.5 387.724 300.07C387.724 300.646 388.108 301.054 388.696 301.054ZM388.696 300.382C388.54 300.382 388.444 300.262 388.444 300.07C388.444 299.884 388.54 299.77 388.696 299.77C388.858 299.77 388.948 299.884 388.948 300.07C388.948 300.262 388.858 300.382 388.696 300.382Z" fill="white"/>
<rect x="351.2" y="314.2" width="22.6" height="5.6" rx="2.8" stroke="#5375FF" stroke-width="0.4"/>
<rect x="379.2" y="314.2" width="18.6" height="5.6" rx="2.8" stroke="#5375FF" stroke-width="0.4"/>
<rect x="407.2" y="314.2" width="9.6" height="5.6" rx="2.8" stroke="#5375FF" stroke-width="0.4"/>
<rect x="108" y="242" width="95" height="132" rx="15" fill="#E7E7E7"/>
<g clip-path="url(#clip2)">
<g filter="url(#filter5_d)">
<path d="M186.971 352.714H181.029C178.567 352.714 176.571 354.709 176.571 357.171V363.114C176.571 365.575 178.567 367.571 181.029 367.571H186.971C189.433 367.571 191.429 365.575 191.429 363.114V357.171C191.429 354.709 189.433 352.714 186.971 352.714Z" fill="black"/>
</g>
<path d="M186.971 352.714H181.029C178.567 352.714 176.571 354.709 176.571 357.171V363.114C176.571 365.575 178.567 367.571 181.029 367.571H186.971C189.433 367.571 191.429 365.575 191.429 363.114V357.171C191.429 354.709 189.433 352.714 186.971 352.714Z" fill="#5375FF"/>
<path d="M187.19 356.953C187.061 356.824 186.879 356.772 186.702 356.814L186.699 356.814L180.865 358.242C180.305 358.379 179.914 358.877 179.914 359.454V360.224C179.914 360.505 180.136 360.734 180.414 360.746L182.609 361.119C182.655 361.127 182.702 361.112 182.736 361.079L185.322 358.493C185.412 358.402 185.559 358.402 185.65 358.493C185.74 358.584 185.74 358.731 185.65 358.821L183.064 361.407C183.031 361.441 183.016 361.488 183.023 361.534L183.397 363.729C183.409 364.006 183.638 364.228 183.919 364.228H184.689C185.265 364.228 185.764 363.837 185.901 363.278L187.328 357.444L187.329 357.441C187.37 357.264 187.318 357.082 187.19 356.953Z" fill="#FBFBFB"/>
</g>
<rect x="117" y="328" width="77" height="3" rx="1.5" fill="#B0AFAF"/>
<rect x="134" y="335" width="47" height="3" rx="1.5" fill="#B0AFAF"/>
<circle cx="131" cy="267" r="11" fill="#C4C4C4"/>
<rect x="147" y="260" width="41" height="3" rx="1.5" fill="#B0AFAF"/>
<rect x="147" y="266" width="33" height="1" rx="0.5" fill="#C4C4C4"/>
<rect x="115" y="292" width="82" height="14" rx="2" fill="#E5ECFE"/>
<rect x="115" y="292" width="71" height="14" rx="2" fill="url(#paint2_linear)"/>
<g filter="url(#filter6_d)">
<rect x="118" y="353" width="50" height="14" rx="2" fill="#5375FF"/>
</g>
<path d="M129.857 362.06C130.682 362.06 131.138 361.628 131.141 360.98C131.144 360.227 130.532 360.05 129.878 359.861C129.275 359.684 128.876 359.546 128.876 359.072C128.876 358.664 129.17 358.394 129.74 358.394C130.415 358.394 130.706 358.781 130.748 359.357L131.108 359.279C131.09 358.442 130.562 358.04 129.755 358.04C129.002 358.04 128.459 358.412 128.459 359.099C128.459 359.81 129.026 360.038 129.707 360.221C130.331 360.395 130.73 360.518 130.73 360.998C130.73 361.493 130.385 361.703 129.863 361.703C129.089 361.703 128.702 361.343 128.714 360.665L128.333 360.725C128.315 361.667 129.002 362.06 129.857 362.06ZM133.4 359.063C132.923 359.063 132.566 359.3 132.386 359.669V357.812H131.993V362H132.386V360.491C132.386 359.822 132.794 359.429 133.334 359.429C133.826 359.429 134.063 359.705 134.063 360.317V362H134.456V360.26C134.456 359.474 134.108 359.063 133.4 359.063ZM136.553 362.06C137.42 362.06 137.981 361.415 137.981 360.56C137.981 359.705 137.42 359.063 136.553 359.063C135.686 359.063 135.122 359.705 135.122 360.56C135.122 361.415 135.686 362.06 136.553 362.06ZM136.553 361.709C135.926 361.709 135.521 361.22 135.521 360.56C135.521 359.9 135.926 359.414 136.553 359.414C137.177 359.414 137.582 359.9 137.582 360.56C137.582 361.22 137.177 361.709 136.553 361.709ZM142.071 359.123L141.615 360.8C141.534 361.1 141.465 361.388 141.39 361.697C141.312 361.376 141.234 361.085 141.15 360.797L140.652 359.126H140.205L139.704 360.797C139.62 361.085 139.542 361.376 139.464 361.697C139.389 361.388 139.32 361.1 139.242 360.8L138.786 359.123H138.378L139.203 362H139.701L140.25 360.185C140.316 359.966 140.367 359.75 140.427 359.522C140.487 359.75 140.541 359.966 140.607 360.185L141.153 362H141.651L142.476 359.123H142.071ZM147.556 359.063C147.058 359.063 146.734 359.303 146.578 359.681C146.464 359.276 146.191 359.063 145.717 359.063C145.234 359.063 144.928 359.285 144.772 359.639L144.778 359.123H144.403V362H144.793V360.482C144.793 359.81 145.105 359.42 145.648 359.42C146.107 359.42 146.257 359.699 146.257 360.302V362H146.644V360.482C146.644 359.81 146.953 359.42 147.496 359.42C147.958 359.42 148.108 359.708 148.108 360.302V362H148.495V360.26C148.495 359.492 148.225 359.063 147.556 359.063ZM150.598 362.06C151.465 362.06 152.026 361.415 152.026 360.56C152.026 359.705 151.465 359.063 150.598 359.063C149.731 359.063 149.167 359.705 149.167 360.56C149.167 361.415 149.731 362.06 150.598 362.06ZM150.598 361.709C149.971 361.709 149.566 361.22 149.566 360.56C149.566 359.9 149.971 359.414 150.598 359.414C151.222 359.414 151.627 359.9 151.627 360.56C151.627 361.22 151.222 361.709 150.598 361.709ZM153.116 359.711L153.122 359.123H152.747V362H153.134V360.476C153.134 359.726 153.707 359.354 154.268 359.501L154.295 359.09C153.764 358.973 153.311 359.207 153.116 359.711ZM157.214 360.503C157.214 359.642 156.743 359.063 155.933 359.063C155.12 359.063 154.598 359.72 154.598 360.554C154.598 361.406 155.141 362.06 155.978 362.06C156.56 362.06 156.992 361.79 157.16 361.277L156.851 361.169C156.713 361.511 156.443 361.718 155.978 361.718C155.402 361.718 155.039 361.289 154.994 360.674H157.211C157.214 360.614 157.214 360.557 157.214 360.503ZM155.933 359.399C156.467 359.399 156.779 359.75 156.821 360.35H155.003C155.063 359.789 155.396 359.399 155.933 359.399Z" fill="white"/>
<path d="M124.804 297.1L123.745 299.791C123.643 300.055 123.574 300.253 123.496 300.481C123.418 300.25 123.331 300.007 123.247 299.791L122.188 297.1H121.567V301H121.96V298.294C121.96 298.03 121.957 297.793 121.954 297.535C122.041 297.796 122.131 298.042 122.239 298.312L123.316 301H123.676L124.753 298.312C124.858 298.045 124.948 297.802 125.038 297.529C125.035 297.802 125.032 298.036 125.032 298.294V301H125.425V297.1H124.804ZM128.911 300.697C128.698 300.697 128.668 300.541 128.668 300.388V299.236C128.668 298.684 128.482 298.063 127.534 298.063C126.925 298.063 126.532 298.333 126.37 298.876L126.724 298.993C126.85 298.6 127.072 298.402 127.537 298.402C128.113 298.402 128.281 298.762 128.281 299.233V299.443C128.062 299.416 127.843 299.401 127.642 299.401C126.88 299.401 126.295 299.599 126.295 300.223C126.295 300.751 126.7 301.06 127.282 301.06C127.756 301.06 128.122 300.847 128.311 300.541C128.335 300.856 128.47 301.03 128.83 301.03C128.914 301.03 128.992 301.021 129.079 301.003V300.682C129.019 300.694 128.968 300.697 128.911 300.697ZM127.33 300.718C126.985 300.718 126.718 300.565 126.718 300.214C126.718 299.836 127.081 299.713 127.654 299.713C127.852 299.713 128.062 299.725 128.281 299.749V300.226C128.089 300.532 127.741 300.718 127.33 300.718ZM131.262 300.571C131.142 300.652 131.019 300.691 130.857 300.691C130.5 300.691 130.338 300.496 130.338 300.064V298.456H131.328V298.123H130.338V297.187L129.948 297.241V298.123H129.327V298.456H129.948V300.109C129.948 300.763 130.284 301.045 130.812 301.045C131.043 301.045 131.226 300.988 131.394 300.88L131.262 300.571ZM133.164 301.06C133.794 301.06 134.268 300.757 134.412 300.112L134.064 300.04C133.941 300.463 133.662 300.712 133.167 300.712C132.525 300.712 132.171 300.214 132.171 299.56C132.171 298.909 132.525 298.411 133.167 298.411C133.662 298.411 133.941 298.66 134.064 299.083L134.412 299.011C134.268 298.366 133.794 298.063 133.164 298.063C132.303 298.063 131.772 298.714 131.772 299.56C131.772 300.406 132.303 301.06 133.164 301.06ZM136.583 298.063C136.106 298.063 135.749 298.3 135.569 298.669V296.812H135.176V301H135.569V299.491C135.569 298.822 135.977 298.429 136.517 298.429C137.009 298.429 137.246 298.705 137.246 299.317V301H137.639V299.26C137.639 298.474 137.291 298.063 136.583 298.063Z" fill="white"/>
<path d="M144.583 298.957C144.976 298.795 145.198 298.501 145.198 298.117C145.198 297.451 144.598 297.046 143.743 297.046C142.888 297.046 142.288 297.451 142.288 298.117C142.288 298.501 142.51 298.795 142.903 298.957C142.432 299.125 142.174 299.455 142.174 299.902C142.174 300.595 142.852 301.054 143.743 301.054C144.634 301.054 145.312 300.595 145.312 299.902C145.312 299.455 145.054 299.125 144.583 298.957ZM143.743 297.796C144.04 297.796 144.187 297.961 144.187 298.189C144.187 298.444 144.019 298.6 143.743 298.6C143.467 298.6 143.299 298.444 143.299 298.189C143.299 297.961 143.446 297.796 143.743 297.796ZM143.743 300.298C143.404 300.298 143.197 300.094 143.197 299.806C143.197 299.506 143.398 299.32 143.743 299.32C144.088 299.32 144.289 299.506 144.289 299.806C144.289 300.094 144.082 300.298 143.743 300.298ZM147.157 297.046C146.212 297.046 145.621 297.628 145.621 298.429C145.621 299.137 146.086 299.68 146.848 299.68C147.28 299.68 147.61 299.506 147.784 299.161C147.751 299.83 147.412 300.154 146.854 300.154C146.539 300.154 146.278 300.082 146.035 299.932L145.723 300.76C146.041 300.952 146.44 301.054 146.869 301.054C148.129 301.054 148.735 300.193 148.735 298.915C148.735 297.718 148.18 297.046 147.157 297.046ZM147.148 298.84C146.839 298.84 146.623 298.681 146.623 298.381C146.623 298.081 146.842 297.904 147.172 297.904C147.598 297.904 147.739 298.195 147.733 298.567C147.601 298.75 147.382 298.84 147.148 298.84ZM150.03 299.008C150.618 299.008 151.002 298.6 151.002 298.03C151.002 297.454 150.618 297.046 150.03 297.046C149.442 297.046 149.052 297.454 149.052 298.03C149.052 298.6 149.442 299.008 150.03 299.008ZM149.436 301H150.3L152.856 297.1H151.992L149.436 301ZM150.03 298.33C149.868 298.33 149.772 298.216 149.772 298.03C149.772 297.838 149.868 297.718 150.03 297.718C150.186 297.718 150.282 297.838 150.282 298.03C150.282 298.216 150.186 298.33 150.03 298.33ZM152.256 301.054C152.844 301.054 153.234 300.646 153.234 300.07C153.234 299.5 152.844 299.092 152.256 299.092C151.668 299.092 151.284 299.5 151.284 300.07C151.284 300.646 151.668 301.054 152.256 301.054ZM152.256 300.382C152.1 300.382 152.004 300.262 152.004 300.07C152.004 299.884 152.1 299.77 152.256 299.77C152.418 299.77 152.508 299.884 152.508 300.07C152.508 300.262 152.418 300.382 152.256 300.382Z" fill="white"/>
<rect x="115.2" y="314.2" width="22.6" height="5.6" rx="2.8" stroke="#5375FF" stroke-width="0.4"/>
<rect x="143.2" y="314.2" width="18.6" height="5.6" rx="2.8" stroke="#5375FF" stroke-width="0.4"/>
<rect x="171.2" y="314.2" width="9.6" height="5.6" rx="2.8" stroke="#5375FF" stroke-width="0.4"/>
<path d="M63 443.654V440.346L60.288 439.812C60.141 439.321 59.943 438.846 59.699 438.394L61.212 436.124L58.875 433.788L56.606 435.301C56.154 435.057 55.679 434.86 55.188 434.711L54.654 432H51.346L50.812 434.712C50.321 434.859 49.846 435.057 49.394 435.301L47.124 433.788L44.788 436.125L46.301 438.394C46.057 438.846 45.86 439.321 45.711 439.812L43 440.346V443.654L45.712 444.188C45.859 444.679 46.057 445.154 46.301 445.606L44.788 447.876L47.125 450.212L49.394 448.699C49.846 448.943 50.321 449.141 50.812 449.289L51.346 452H54.654L55.188 449.288C55.679 449.141 56.154 448.943 56.606 448.699L58.876 450.212L61.212 447.875L59.699 445.606C59.943 445.154 60.141 444.679 60.289 444.188L63 443.654ZM59.704 447.726L58.726 448.704L56.645 447.316C55.589 447.956 55.239 448.078 54.18 448.34L53.69 450.828H52.31L51.82 448.34C50.615 448.042 50.282 447.878 49.355 447.316L47.275 448.704L46.296 447.726L47.684 445.645C47.039 444.58 46.92 444.23 46.66 443.18L44.172 442.69V441.31L46.66 440.82C46.916 439.784 47.033 439.428 47.684 438.355L46.296 436.275L47.274 435.296L49.355 436.684C50.42 436.038 50.772 435.919 51.82 435.66L52.31 433.172H53.69L54.18 435.66C55.387 435.958 55.72 436.123 56.645 436.684L58.725 435.296L59.704 436.274L58.316 438.355C58.956 439.409 59.078 439.759 59.34 440.82L61.828 441.31V442.69L59.34 443.18C59.042 444.387 58.878 444.719 58.316 445.645L59.704 447.725V447.726Z" fill="#0C111C"/>
<path d="M52.9999 437.898C50.7379 437.898 48.8979 439.738 48.8979 442C48.8979 444.262 50.7379 446.102 52.9999 446.102C55.2619 446.102 57.1019 444.262 57.1019 442C57.1019 439.738 55.2619 437.898 52.9999 437.898ZM52.9999 444.93C51.3849 444.93 50.0699 443.615 50.0699 442C50.0699 440.385 51.3849 439.07 52.9999 439.07C54.6149 439.07 55.9299 440.385 55.9299 442C55.9299 443.615 54.6149 444.93 52.9999 444.93Z" fill="#0C111C"/>
<g clip-path="url(#clip3)">
<path d="M62.099 303.478C62.403 300.155 59.759 297.667 56.724 297.667C55.355 297.667 54.054 298.167 53.061 299.057C52.069 298.167 50.767 297.667 49.399 297.667C45.155 297.667 42.039 302.352 45.459 307.017C46.211 308.043 47.253 309.037 48.554 309.972C50.741 311.542 52.898 312.402 52.989 312.437C53.148 312.5 53.313 312.497 53.486 312.424C55.116 313.589 56.721 314.236 56.856 314.289C57.006 314.348 57.175 314.349 57.329 314.286C57.396 314.259 58.992 313.598 60.609 312.393C61.574 311.673 62.347 310.907 62.906 310.115C64.713 307.555 64.169 304.818 62.099 303.478ZM49.399 298.901C50.632 298.901 51.794 299.426 52.586 300.342C52.836 300.631 53.287 300.631 53.536 300.342C54.329 299.427 55.49 298.902 56.724 298.902C58.999 298.902 60.886 300.692 60.874 302.935C59.551 302.582 58.074 302.863 56.968 303.794C56.201 303.148 55.218 302.788 54.188 302.788C50.888 302.788 48.395 306.442 51.058 310.103C42.002 304.924 45.22 298.901 49.4 298.901H49.399ZM57.084 313.041C54.558 311.927 51.186 309.669 51.186 306.921C51.186 305.322 52.532 304.022 54.188 304.022C55.08 304.022 55.92 304.402 56.493 305.064C56.743 305.353 57.194 305.353 57.443 305.064C58.016 304.402 58.856 304.022 59.749 304.022C61.404 304.022 62.75 305.322 62.75 306.92C62.75 310.24 58.182 312.538 57.084 313.042V313.041Z" fill="#0C111C"/>
</g>
<path d="M59.806 353.253V346.41C59.806 345.357 58.938 344.5 57.871 344.5H45.935C44.868 344.5 44 345.357 44 346.41V353.253C44 354.306 44.868 355.163 45.935 355.163H47.673L47.71 356.887C47.72 357.405 48.324 357.694 48.743 357.382L51.726 355.163H57.871C58.938 355.163 59.806 354.306 59.806 353.253ZM51.51 353.89C51.37 353.89 51.234 353.935 51.122 354.018L48.973 355.617L48.949 354.513C48.942 354.167 48.655 353.89 48.304 353.89H45.935C45.58 353.89 45.29 353.604 45.29 353.253V346.41C45.29 346.059 45.58 345.773 45.935 345.773H57.871C58.227 345.773 58.516 346.059 58.516 346.41V353.253C58.516 353.604 58.226 353.89 57.871 353.89H51.511H51.51ZM64 350.389V355.64C64 356.694 63.132 357.55 62.065 357.55H60.325L60.29 358.88C60.281 359.225 59.994 359.5 59.645 359.5C59.388 359.5 59.531 359.544 56.305 357.55H53.355C52.999 357.55 52.71 357.265 52.71 356.914C52.71 356.562 52.999 356.277 53.355 356.277C56.777 356.277 56.617 356.241 56.832 356.374L59.029 357.731L59.051 356.897C59.06 356.552 59.346 356.277 59.696 356.277H62.065C62.42 356.277 62.71 355.991 62.71 355.64V350.388C62.71 350.038 62.42 349.752 62.065 349.752C61.708 349.752 61.419 349.467 61.419 349.115C61.419 348.764 61.709 348.479 62.065 348.479C63.132 348.479 64 349.335 64 350.389ZM55.935 348.678C55.935 349.029 55.647 349.314 55.29 349.314H48.516C48.16 349.314 47.871 349.029 47.871 348.678C47.871 348.326 48.16 348.041 48.516 348.041H55.29C55.647 348.041 55.935 348.326 55.935 348.678ZM54.766 351.463C54.766 351.814 54.477 352.099 54.121 352.099H49.685C49.329 352.099 49.04 351.814 49.04 351.463C49.04 351.111 49.33 350.826 49.685 350.826H54.121C54.477 350.826 54.766 351.111 54.766 351.463Z" fill="#0C111C"/>
<path d="M63.321 242.894C62.1871 241.619 60.6139 240.916 58.8912 240.916C56.467 240.916 54.9329 242.35 54.0727 243.553C53.8496 243.865 53.6587 244.177 53.5 244.473C53.3401 244.177 53.1504 243.865 52.9273 243.553C52.0671 242.35 50.533 240.917 48.1088 240.917C46.3861 240.917 44.8129 241.619 43.6779 242.894C42.598 244.11 42 245.739 42 247.48C42 249.375 42.7475 251.138 44.3518 253.028C45.7847 254.717 47.8478 256.458 50.2363 258.474C51.1264 259.225 52.0464 260.001 53.0262 260.851L53.0561 260.877C53.1826 260.987 53.3413 261.042 53.5 261.042C53.6587 261.042 53.8162 260.987 53.9439 260.877L53.9738 260.851C54.9536 260.001 55.8736 259.225 56.7637 258.474C59.1523 256.458 61.2142 254.717 62.6482 253.028C64.2525 251.138 65 249.375 65 247.48C65 245.739 64.4043 244.111 63.321 242.894ZM55.8909 257.458C55.1238 258.105 54.3337 258.772 53.5012 259.489C52.6686 258.772 51.8796 258.105 51.1114 257.458C46.4367 253.513 43.3489 250.906 43.3489 247.48C43.3489 246.063 43.825 244.749 44.6898 243.777C45.565 242.793 46.7794 242.251 48.11 242.251C49.958 242.251 51.1529 243.378 51.8291 244.325C52.4362 245.173 52.7525 246.028 52.8606 246.356C52.9503 246.632 53.2091 246.817 53.5012 246.817C53.7933 246.817 54.052 246.63 54.1417 246.357C54.2498 246.028 54.5672 245.172 55.1732 244.325C55.8494 243.379 57.0443 242.251 58.8912 242.251C60.2229 242.251 61.4373 242.793 62.3125 243.776C63.1772 244.749 63.6534 246.065 63.6534 247.479C63.6534 250.906 60.5656 253.513 55.8909 257.458Z" fill="#5375FF"/>
<path d="M109.692 181H113.196V165.4H109.692V181ZM122.931 168.952C120.951 168.952 119.691 169.912 119.103 171.52L119.079 169.18H116.223V181H119.439V175.312C119.439 173.056 120.483 171.964 122.019 171.964C123.363 171.964 123.951 172.72 123.951 174.34V181H127.167V173.44C127.167 170.764 125.919 168.952 122.931 168.952ZM137.078 178.084C136.586 178.252 136.142 178.336 135.59 178.336C134.378 178.336 133.982 177.676 133.982 176.488V171.892H137.33V169.18H133.982V165.496L130.766 165.952V169.18H128.762V171.892H130.766V176.92C130.766 179.608 132.074 181.156 134.978 181.156C135.95 181.156 136.778 181.024 137.582 180.76L137.078 178.084ZM149.966 174.916C149.966 171.28 147.854 168.952 144.386 168.952C140.834 168.952 138.578 171.58 138.578 175.096C138.578 178.684 140.75 181.228 144.482 181.228C147.218 181.228 149.21 179.932 149.75 177.388L147.038 176.968C146.738 178.048 145.91 178.588 144.47 178.588C142.958 178.588 142.022 177.688 141.77 175.972H149.906C149.954 175.564 149.966 175.24 149.966 174.916ZM144.386 171.556C145.73 171.556 146.666 172.348 146.798 173.944H141.794C142.07 172.384 143.006 171.556 144.386 171.556ZM154.821 171.64L154.785 169.18H151.965V180.988H155.157V175.672C155.157 172.972 157.077 172.048 159.165 172.48V169.012C156.981 168.628 155.481 169.756 154.821 171.64ZM171.388 174.916C171.388 171.28 169.276 168.952 165.808 168.952C162.256 168.952 160 171.58 160 175.096C160 178.684 162.172 181.228 165.904 181.228C168.64 181.228 170.632 179.932 171.172 177.388L168.46 176.968C168.16 178.048 167.332 178.588 165.892 178.588C164.38 178.588 163.444 177.688 163.192 175.972H171.328C171.376 175.564 171.388 175.24 171.388 174.916ZM165.808 171.556C167.152 171.556 168.088 172.348 168.22 173.944H163.216C163.492 172.384 164.428 171.556 165.808 171.556ZM178.319 181.228C181.283 181.228 183.143 179.8 183.143 177.568C183.155 175.372 181.667 174.58 178.499 173.884C176.687 173.488 176.231 173.14 176.231 172.456C176.231 171.832 176.699 171.388 177.875 171.388C179.147 171.388 179.939 171.976 180.083 173.392L182.999 173.128C182.843 170.596 181.355 168.952 177.863 168.952C175.187 168.952 173.171 170.248 173.159 172.636C173.147 174.82 174.551 175.744 177.851 176.428C179.411 176.74 180.023 176.968 180.023 177.724C180.023 178.42 179.507 178.792 178.295 178.792C176.915 178.792 175.967 178.276 175.787 176.8L172.751 177.076C172.967 179.98 175.343 181.228 178.319 181.228ZM192.554 178.084C192.062 178.252 191.618 178.336 191.066 178.336C189.854 178.336 189.458 177.676 189.458 176.488V171.892H192.806V169.18H189.458V165.496L186.242 165.952V169.18H184.238V171.892H186.242V176.92C186.242 179.608 187.55 181.156 190.454 181.156C191.426 181.156 192.254 181.024 193.058 180.76L192.554 178.084ZM199.67 181.228C202.634 181.228 204.494 179.8 204.494 177.568C204.506 175.372 203.018 174.58 199.85 173.884C198.038 173.488 197.582 173.14 197.582 172.456C197.582 171.832 198.05 171.388 199.226 171.388C200.498 171.388 201.29 171.976 201.434 173.392L204.35 173.128C204.194 170.596 202.706 168.952 199.214 168.952C196.538 168.952 194.522 170.248 194.51 172.636C194.498 174.82 195.902 175.744 199.202 176.428C200.762 176.74 201.374 176.968 201.374 177.724C201.374 178.42 200.858 178.792 199.646 178.792C198.266 178.792 197.318 178.276 197.138 176.8L194.102 177.076C194.318 179.98 196.694 181.228 199.67 181.228Z" fill="black"/>
<path d="M111.01 204H111.907V196.33H114.481V195.55H108.436V196.33H111.01V204ZM119.014 197.636C117.98 197.636 117.207 198.15 116.817 198.949V194.926H115.965V204H116.817V200.73C116.817 199.281 117.701 198.429 118.871 198.429C119.937 198.429 120.45 199.027 120.45 200.353V204H121.302V200.23C121.302 198.527 120.548 197.636 119.014 197.636ZM128.413 200.756C128.413 198.891 127.392 197.636 125.637 197.636C123.876 197.636 122.745 199.06 122.745 200.867C122.745 202.713 123.921 204.13 125.735 204.13C126.996 204.13 127.932 203.545 128.296 202.433L127.626 202.199C127.327 202.94 126.742 203.389 125.735 203.389C124.487 203.389 123.7 202.459 123.603 201.127H128.406C128.413 200.997 128.413 200.873 128.413 200.756ZM125.637 198.364C126.794 198.364 127.47 199.125 127.561 200.425H123.622C123.752 199.209 124.474 198.364 125.637 198.364ZM132.281 204.13C133.77 204.13 134.55 203.421 134.55 202.336C134.55 201.101 133.601 200.834 132.275 200.542C131.261 200.314 130.637 200.132 130.637 199.378C130.637 198.761 131.079 198.338 132.041 198.338C132.996 198.338 133.672 198.813 133.724 199.833L134.485 199.716C134.465 198.468 133.62 197.636 132.034 197.636C130.663 197.636 129.805 198.338 129.798 199.443C129.798 200.62 130.76 200.99 132.106 201.276C133.061 201.478 133.698 201.627 133.698 202.414C133.698 203.109 133.178 203.428 132.255 203.428C131.196 203.428 130.429 203.031 130.377 201.907L129.584 202.024C129.675 203.486 130.721 204.13 132.281 204.13ZM141.451 200.756C141.451 198.891 140.431 197.636 138.676 197.636C136.914 197.636 135.783 199.06 135.783 200.867C135.783 202.713 136.96 204.13 138.773 204.13C140.034 204.13 140.97 203.545 141.334 202.433L140.665 202.199C140.366 202.94 139.781 203.389 138.773 203.389C137.525 203.389 136.739 202.459 136.641 201.127H141.445C141.451 200.997 141.451 200.873 141.451 200.756ZM138.676 198.364C139.833 198.364 140.509 199.125 140.6 200.425H136.661C136.791 199.209 137.512 198.364 138.676 198.364ZM148.964 197.636C147.84 197.636 147.06 198.13 146.657 199.008L146.644 197.766H145.825V206.561H146.676V202.758C147.092 203.616 147.859 204.13 148.964 204.13C150.823 204.13 151.831 202.778 151.831 200.873C151.831 198.982 150.823 197.636 148.964 197.636ZM148.86 203.369C147.495 203.369 146.65 202.29 146.65 200.873C146.65 199.463 147.495 198.403 148.86 198.403C150.258 198.403 150.947 199.437 150.947 200.873C150.947 202.316 150.258 203.369 148.86 203.369ZM158.729 200.756C158.729 198.891 157.709 197.636 155.954 197.636C154.192 197.636 153.061 199.06 153.061 200.867C153.061 202.713 154.238 204.13 156.051 204.13C157.312 204.13 158.248 203.545 158.612 202.433L157.943 202.199C157.644 202.94 157.059 203.389 156.051 203.389C154.803 203.389 154.017 202.459 153.919 201.127H158.723C158.729 200.997 158.729 200.873 158.729 200.756ZM155.954 198.364C157.111 198.364 157.787 199.125 157.878 200.425H153.939C154.069 199.209 154.79 198.364 155.954 198.364ZM163.119 204.13C164.997 204.13 166.213 202.732 166.213 200.88C166.213 199.027 164.997 197.636 163.119 197.636C161.24 197.636 160.018 199.027 160.018 200.88C160.018 202.732 161.24 204.13 163.119 204.13ZM163.119 203.369C161.76 203.369 160.883 202.31 160.883 200.88C160.883 199.45 161.76 198.397 163.119 198.397C164.471 198.397 165.348 199.45 165.348 200.88C165.348 202.31 164.471 203.369 163.119 203.369ZM170.915 197.636C169.79 197.636 169.01 198.13 168.607 199.008L168.594 197.766H167.775V206.561H168.627V202.758C169.043 203.616 169.81 204.13 170.915 204.13C172.774 204.13 173.781 202.778 173.781 200.873C173.781 198.982 172.774 197.636 170.915 197.636ZM170.811 203.369C169.446 203.369 168.601 202.29 168.601 200.873C168.601 199.463 169.446 198.403 170.811 198.403C172.208 198.403 172.897 199.437 172.897 200.873C172.897 202.316 172.208 203.369 170.811 203.369ZM175.329 204H176.18V194.926H175.329V204ZM183.409 200.756C183.409 198.891 182.389 197.636 180.634 197.636C178.872 197.636 177.741 199.06 177.741 200.867C177.741 202.713 178.918 204.13 180.731 204.13C181.992 204.13 182.928 203.545 183.292 202.433L182.623 202.199C182.324 202.94 181.739 203.389 180.731 203.389C179.483 203.389 178.697 202.459 178.599 201.127H183.403C183.409 200.997 183.409 200.873 183.409 200.756ZM180.634 198.364C181.791 198.364 182.467 199.125 182.558 200.425H178.619C178.749 199.209 179.47 198.364 180.634 198.364ZM193.061 203.343C192.599 203.343 192.534 203.005 192.534 202.674V200.178C192.534 198.982 192.131 197.636 190.077 197.636C188.758 197.636 187.906 198.221 187.555 199.398L188.322 199.651C188.595 198.8 189.076 198.371 190.084 198.371C191.332 198.371 191.696 199.151 191.696 200.171V200.626C191.221 200.568 190.747 200.535 190.311 200.535C188.66 200.535 187.393 200.964 187.393 202.316C187.393 203.46 188.27 204.13 189.531 204.13C190.558 204.13 191.351 203.668 191.761 203.005C191.813 203.688 192.105 204.065 192.885 204.065C193.067 204.065 193.236 204.046 193.425 204.007V203.311C193.295 203.337 193.184 203.343 193.061 203.343ZM189.635 203.389C188.888 203.389 188.309 203.057 188.309 202.297C188.309 201.478 189.096 201.211 190.337 201.211C190.766 201.211 191.221 201.237 191.696 201.289V202.323C191.28 202.986 190.526 203.389 189.635 203.389ZM195.628 199.04L195.641 197.766H194.829V204H195.667V200.698C195.667 199.073 196.909 198.267 198.124 198.585L198.183 197.695C197.032 197.441 196.051 197.948 195.628 199.04ZM204.509 200.756C204.509 198.891 203.488 197.636 201.733 197.636C199.972 197.636 198.841 199.06 198.841 200.867C198.841 202.713 200.017 204.13 201.831 204.13C203.092 204.13 204.028 203.545 204.392 202.433L203.722 202.199C203.423 202.94 202.838 203.389 201.831 203.389C200.583 203.389 199.796 202.459 199.699 201.127H204.502C204.509 200.997 204.509 200.873 204.509 200.756ZM201.733 198.364C202.89 198.364 203.566 199.125 203.657 200.425H199.718C199.848 199.209 200.57 198.364 201.733 198.364ZM209.331 196.401C209.714 196.401 210.02 196.102 210.02 195.738C210.02 195.374 209.714 195.095 209.331 195.095C208.98 195.095 208.674 195.374 208.674 195.738C208.674 196.102 208.98 196.401 209.331 196.401ZM208.921 204H209.773V197.766H208.921V204ZM214.978 197.636C213.893 197.636 213.093 198.202 212.729 199.073L212.749 197.766H211.917V204H212.768V200.73C212.768 199.281 213.652 198.429 214.822 198.429C215.888 198.429 216.402 199.027 216.402 200.353V204H217.253V200.23C217.253 198.527 216.499 197.636 214.978 197.636ZM222.681 203.07C222.421 203.246 222.154 203.33 221.803 203.33C221.03 203.33 220.679 202.908 220.679 201.972V198.488H222.824V197.766H220.679V195.738L219.834 195.855V197.766H218.488V198.488H219.834V202.069C219.834 203.486 220.562 204.098 221.706 204.098C222.206 204.098 222.603 203.974 222.967 203.74L222.681 203.07ZM229.455 200.756C229.455 198.891 228.434 197.636 226.679 197.636C224.918 197.636 223.787 199.06 223.787 200.867C223.787 202.713 224.963 204.13 226.777 204.13C228.038 204.13 228.974 203.545 229.338 202.433L228.668 202.199C228.369 202.94 227.784 203.389 226.777 203.389C225.529 203.389 224.742 202.459 224.645 201.127H229.448C229.455 200.997 229.455 200.873 229.455 200.756ZM226.679 198.364C227.836 198.364 228.512 199.125 228.603 200.425H224.664C224.794 199.209 225.516 198.364 226.679 198.364ZM231.848 199.04L231.861 197.766H231.048V204H231.887V200.698C231.887 199.073 233.128 198.267 234.344 198.585L234.402 197.695C233.252 197.441 232.27 197.948 231.848 199.04ZM240.728 200.756C240.728 198.891 239.708 197.636 237.953 197.636C236.191 197.636 235.06 199.06 235.06 200.867C235.06 202.713 236.237 204.13 238.05 204.13C239.311 204.13 240.247 203.545 240.611 202.433L239.942 202.199C239.643 202.94 239.058 203.389 238.05 203.389C236.802 203.389 236.016 202.459 235.918 201.127H240.722C240.728 200.997 240.728 200.873 240.728 200.756ZM237.953 198.364C239.11 198.364 239.786 199.125 239.877 200.425H235.938C236.068 199.209 236.789 198.364 237.953 198.364ZM244.597 204.13C246.085 204.13 246.865 203.421 246.865 202.336C246.865 201.101 245.916 200.834 244.59 200.542C243.576 200.314 242.952 200.132 242.952 199.378C242.952 198.761 243.394 198.338 244.356 198.338C245.312 198.338 245.988 198.813 246.04 199.833L246.8 199.716C246.781 198.468 245.936 197.636 244.35 197.636C242.978 197.636 242.12 198.338 242.114 199.443C242.114 200.62 243.076 200.99 244.421 201.276C245.377 201.478 246.014 201.627 246.014 202.414C246.014 203.109 245.494 203.428 244.571 203.428C243.511 203.428 242.744 203.031 242.692 201.907L241.899 202.024C241.99 203.486 243.037 204.13 244.597 204.13ZM252.045 203.07C251.785 203.246 251.518 203.33 251.167 203.33C250.394 203.33 250.043 202.908 250.043 201.972V198.488H252.188V197.766H250.043V195.738L249.198 195.855V197.766H247.852V198.488H249.198V202.069C249.198 203.486 249.926 204.098 251.07 204.098C251.57 204.098 251.967 203.974 252.331 203.74L252.045 203.07ZM258.819 200.756C258.819 198.891 257.799 197.636 256.044 197.636C254.282 197.636 253.151 199.06 253.151 200.867C253.151 202.713 254.328 204.13 256.141 204.13C257.402 204.13 258.338 203.545 258.702 202.433L258.033 202.199C257.734 202.94 257.149 203.389 256.141 203.389C254.893 203.389 254.107 202.459 254.009 201.127H258.813C258.819 200.997 258.819 200.873 258.819 200.756ZM256.044 198.364C257.201 198.364 257.877 199.125 257.968 200.425H254.029C254.159 199.209 254.88 198.364 256.044 198.364ZM265.263 194.926V198.93C264.853 198.098 264.099 197.636 263.007 197.636C261.148 197.636 260.108 198.982 260.108 200.873C260.108 202.778 261.148 204.13 263.007 204.13C264.125 204.13 264.886 203.603 265.289 202.719L265.295 204H266.114V194.926H265.263ZM263.085 203.369C261.681 203.369 260.992 202.316 260.992 200.873C260.992 199.437 261.681 198.403 263.085 198.403C264.444 198.403 265.289 199.463 265.289 200.873C265.289 202.29 264.444 203.369 263.085 203.369ZM274.439 203.07C274.179 203.246 273.913 203.33 273.562 203.33C272.788 203.33 272.437 202.908 272.437 201.972V198.488H274.582V197.766H272.437V195.738L271.592 195.855V197.766H270.247V198.488H271.592V202.069C271.592 203.486 272.32 204.098 273.464 204.098C273.965 204.098 274.361 203.974 274.725 203.74L274.439 203.07ZM278.646 204.13C280.525 204.13 281.74 202.732 281.74 200.88C281.74 199.027 280.525 197.636 278.646 197.636C276.768 197.636 275.546 199.027 275.546 200.88C275.546 202.732 276.768 204.13 278.646 204.13ZM278.646 203.369C277.288 203.369 276.41 202.31 276.41 200.88C276.41 199.45 277.288 198.397 278.646 198.397C279.998 198.397 280.876 199.45 280.876 200.88C280.876 202.31 279.998 203.369 278.646 203.369ZM293.382 197.766L292.394 201.4C292.219 202.05 292.069 202.674 291.907 203.343C291.738 202.648 291.569 202.017 291.387 201.393L290.308 197.773H289.339L288.254 201.393C288.072 202.017 287.903 202.648 287.734 203.343C287.571 202.674 287.422 202.05 287.253 201.4L286.265 197.766H285.381L287.168 204H288.247L289.437 200.067C289.58 199.593 289.69 199.125 289.82 198.631C289.95 199.125 290.067 199.593 290.21 200.067L291.393 204H292.472L294.26 197.766H293.382ZM298.222 204.13C300.101 204.13 301.316 202.732 301.316 200.88C301.316 199.027 300.101 197.636 298.222 197.636C296.344 197.636 295.122 199.027 295.122 200.88C295.122 202.732 296.344 204.13 298.222 204.13ZM298.222 203.369C296.864 203.369 295.986 202.31 295.986 200.88C295.986 199.45 296.864 198.397 298.222 198.397C299.574 198.397 300.452 199.45 300.452 200.88C300.452 202.31 299.574 203.369 298.222 203.369ZM303.678 199.04L303.691 197.766H302.879V204H303.717V200.698C303.717 199.073 304.959 198.267 306.174 198.585L306.233 197.695C305.082 197.441 304.101 197.948 303.678 199.04ZM311.699 204H312.733L309.912 200.379L312.427 197.766H311.335L308.306 200.984V194.926H307.474V204H308.306V201.959L309.32 200.919L311.699 204ZM324.041 197.766L323.053 201.4C322.878 202.05 322.728 202.674 322.566 203.343C322.397 202.648 322.228 202.017 322.046 201.393L320.967 197.773H319.998L318.913 201.393C318.731 202.017 318.562 202.648 318.393 203.343C318.23 202.674 318.081 202.05 317.912 201.4L316.924 197.766H316.04L317.827 204H318.906L320.096 200.067C320.239 199.593 320.349 199.125 320.479 198.631C320.609 199.125 320.726 199.593 320.869 200.067L322.052 204H323.131L324.919 197.766H324.041ZM326.763 196.401C327.146 196.401 327.452 196.102 327.452 195.738C327.452 195.374 327.146 195.095 326.763 195.095C326.412 195.095 326.106 195.374 326.106 195.738C326.106 196.102 326.412 196.401 326.763 196.401ZM326.353 204H327.205V197.766H326.353V204ZM332.8 203.07C332.54 203.246 332.273 203.33 331.922 203.33C331.149 203.33 330.798 202.908 330.798 201.972V198.488H332.943V197.766H330.798V195.738L329.953 195.855V197.766H328.607V198.488H329.953V202.069C329.953 203.486 330.681 204.098 331.825 204.098C332.325 204.098 332.722 203.974 333.086 203.74L332.8 203.07ZM337.488 197.636C336.454 197.636 335.681 198.15 335.291 198.949V194.926H334.439V204H335.291V200.73C335.291 199.281 336.175 198.429 337.345 198.429C338.411 198.429 338.924 199.027 338.924 200.353V204H339.776V200.23C339.776 198.527 339.022 197.636 337.488 197.636ZM348.731 197.766L347.366 201.543C347.158 202.128 346.963 202.7 346.774 203.278C346.566 202.693 346.358 202.128 346.144 201.536L344.779 197.766H343.817L346.215 204.033H346.384L346.228 204.462C345.838 205.541 345.117 205.859 343.999 205.729L343.921 206.535C345.468 206.711 346.508 206.158 347.073 204.611L349.693 197.766H348.731ZM353.51 204.13C355.389 204.13 356.604 202.732 356.604 200.88C356.604 199.027 355.389 197.636 353.51 197.636C351.632 197.636 350.41 199.027 350.41 200.88C350.41 202.732 351.632 204.13 353.51 204.13ZM353.51 203.369C352.152 203.369 351.274 202.31 351.274 200.88C351.274 199.45 352.152 198.397 353.51 198.397C354.862 198.397 355.74 199.45 355.74 200.88C355.74 202.31 354.862 203.369 353.51 203.369ZM362.45 197.766V201.029C362.45 202.485 361.573 203.33 360.403 203.33C359.421 203.33 358.901 202.732 358.901 201.406V197.766H358.05V201.536C358.05 203.239 358.81 204.13 360.266 204.13C361.352 204.13 362.132 203.564 362.496 202.7V204H363.302V197.766H362.45ZM366.047 204.13C366.45 204.13 366.788 203.798 366.788 203.395C366.788 202.999 366.45 202.667 366.047 202.667C365.637 202.667 365.299 202.999 365.299 203.395C365.299 203.798 365.637 204.13 366.047 204.13Z" fill="#AAAAAA"/>
<circle cx="266" cy="72" r="62" fill="#5375FF"/>
<g filter="url(#filter7_d)">
<circle cx="253" cy="62" r="62" fill="white"/>
</g>
<g clip-path="url(#clip4)">
<path d="M283.747 94.9994H231.107C228.207 94.9994 225.855 92.6952 225.855 89.8541V45.5603C225.855 42.7192 228.207 40.415 231.107 40.415H283.747C286.648 40.415 289 42.7192 289 45.5603V89.8541C289 92.6952 286.648 94.9994 283.747 94.9994Z" fill="#5375FF"/>
<g clip-path="url(#clip5)">
<path d="M270.581 67.0642V62.027L266.419 61.2139C266.193 60.4662 265.889 59.7429 265.515 59.0547L267.837 55.5981L264.25 52.041L260.767 54.3449C260.074 53.9733 259.345 53.6734 258.591 53.4465L257.771 49.3184H252.694L251.874 53.448C251.121 53.6718 250.392 53.9733 249.698 54.3449L246.214 52.041L242.628 55.5996L244.95 59.0547C244.576 59.7429 244.274 60.4662 244.045 61.2139L239.884 62.027V67.0642L244.046 67.8774C244.272 68.625 244.576 69.3483 244.95 70.0366L242.628 73.4932L246.215 77.0503L249.698 74.7464C250.392 75.1179 251.121 75.4194 251.874 75.6448L252.694 79.7729H257.771L258.591 75.6433C259.345 75.4194 260.074 75.1179 260.767 74.7464L264.252 77.0503L267.837 73.4917L265.515 70.0366C265.889 69.3483 266.193 68.625 266.42 67.8774L270.581 67.0642ZM265.522 73.2648L264.021 74.754L260.827 72.6404C259.206 73.615 258.669 73.8008 257.044 74.1997L256.292 77.9883H254.174L253.421 74.1997C251.572 73.7459 251.061 73.4962 249.638 72.6404L246.445 74.754L244.943 73.2648L247.073 70.096C246.083 68.4743 245.901 67.9413 245.501 66.3424L241.683 65.5963V63.4949L245.501 62.7488C245.894 61.1713 246.074 60.6292 247.073 58.9953L244.943 55.828L246.444 54.3373L249.638 56.4508C251.273 55.4671 251.813 55.2859 253.421 54.8915L254.174 51.103H256.292L257.044 54.8915C258.896 55.3453 259.408 55.5966 260.827 56.4508L264.02 54.3373L265.522 55.8265L263.392 58.9953C264.374 60.6002 264.562 61.1332 264.964 62.7488L268.783 63.4949V65.5963L264.964 66.3424C264.506 68.1804 264.255 68.6859 263.392 70.096L265.522 73.2632V73.2648Z" fill="#0C111C"/>
<path d="M255.233 58.2998C251.761 58.2998 248.937 61.1016 248.937 64.546C248.937 67.9904 251.761 70.7923 255.233 70.7923C258.705 70.7923 261.529 67.9904 261.529 64.546C261.529 61.1016 258.705 58.2998 255.233 58.2998ZM255.233 69.0076C252.754 69.0076 250.735 67.0052 250.735 64.546C250.735 62.0868 252.754 60.0844 255.233 60.0844C257.711 60.0844 259.73 62.0868 259.73 64.546C259.73 67.0052 257.711 69.0076 255.233 69.0076Z" fill="#0C111C"/>
</g>
<path d="M247.071 29.3422C249.537 29.3422 251.547 31.3109 251.547 33.7269V37.2838V38.626H252.917H280.893C283.028 38.626 284.775 40.3262 284.775 42.429V86.7229C284.775 88.8145 283.039 90.5259 280.893 90.5259H228.253C226.117 90.5259 224.37 88.8257 224.37 86.7229V42.429C224.37 42.3284 224.37 42.2165 224.382 42.1047L224.507 40.6506H224.37V33.7269C224.37 31.3109 226.38 29.3422 228.846 29.3422H247.071ZM247.071 28H228.846C225.615 28 223 30.5614 223 33.7269V41.9816H223.023C223.011 42.127 223 42.2725 223 42.429V86.7229C223 89.5639 225.352 91.8681 228.253 91.8681H280.893C283.793 91.8681 286.145 89.5639 286.145 86.7229V42.429C286.145 39.588 283.793 37.2838 280.893 37.2838H252.917V33.7269C252.917 30.5614 250.302 28 247.071 28Z" fill="black"/>
<path d="M277.513 44.4418C279.123 44.4418 280.436 45.7282 280.436 47.3053V81.8455C280.436 83.4226 279.123 84.709 277.513 84.709H232.352C230.742 84.709 229.429 83.4226 229.429 81.8455V47.3053C229.429 45.7282 230.742 44.4418 232.352 44.4418H277.513ZM277.513 43.0996H232.352C229.977 43.0996 228.059 44.9787 228.059 47.3053V81.8455C228.059 84.1721 229.977 86.0512 232.352 86.0512H277.513C279.888 86.0512 281.806 84.1721 281.806 81.8455V47.3053C281.806 44.9787 279.888 43.0996 277.513 43.0996Z" fill="black"/>
</g>
<g clip-path="url(#clip6)">
<path d="M88.3 109C87.5 109 86.7 109.3 86.2 109.9C85.6 110.5 85.3 111.2 85.3 112C85.3 112.8 85 113.5 84.4 114.1C83.8 114.7 83 115 82.2 115C81.4 115 80.6 114.7 80.1 114.1C79.5 113.5 79.2 112.8 79.2 112C79.2 110.8 79 109.6 78.5 108.6C78 107.5 77.4 106.5 76.5 105.7C75.7 104.9 74.7 104.2 73.5 103.7C72.5 103.2 71.3 103 70.1 103C68.9 103 67.7 103.2 66.6 103.7C65.5 104.2 64.5 104.8 63.6 105.7C62.8 106.5 62.1 107.5 61.6 108.6C61.2 109.6 61 110.8 61 112C61 112.8 61.3 113.6 61.9 114.1C62.5 114.7 63.2 115 64 115C64.8 115 65.6 114.7 66.1 114.1C66.8 113.6 67.1 112.8 67.1 112C67.1 111.2 67.4 110.5 68 109.9C68.6 109.3 69.3 109 70.1 109C70.9 109 71.7 109.3 72.2 109.9C72.8 110.5 73.1 111.2 73.1 112C73.1 114.4 74.1 116.7 75.8 118.4C77.5 120.1 79.8 121 82.2 121C84.6 121 86.9 120.1 88.6 118.4C90.3 116.7 91.3 114.4 91.3 112C91.3 111.2 91 110.4 90.4 109.9C89.9 109.3 89.1 109 88.3 109Z" fill="#5977F7"/>
</g>
<circle cx="417.5" cy="102.5" r="13.5" fill="#EBEDF2"/>
<path d="M261.585 310.15L260.131 314.056C260.001 314.42 259.897 314.726 259.798 315.059C259.69 314.717 259.573 314.375 259.461 314.056L258.003 310.15H256.815V316H257.548V312.076C257.548 311.689 257.544 311.329 257.544 310.942C257.665 311.342 257.791 311.72 257.949 312.125L259.443 316H260.145L261.639 312.125C261.792 311.729 261.922 311.356 262.044 310.946C262.044 311.347 262.039 311.698 262.039 312.076V316H262.773V310.15H261.585ZM267.149 311.657L266.262 314.272C266.132 314.668 266.01 315.046 265.893 315.424C265.763 315.046 265.632 314.659 265.502 314.272L264.615 311.657H263.787L265.394 316.009H265.601L265.506 316.284C265.254 316.99 264.741 317.17 263.945 317.053L263.85 317.724C264.98 317.895 265.826 317.535 266.24 316.351L267.977 311.657H267.149ZM274.347 313.745C274.347 312.44 273.623 311.567 272.39 311.567C271.143 311.567 270.347 312.553 270.347 313.822C270.347 315.118 271.157 316.09 272.457 316.09C273.362 316.09 274.028 315.671 274.266 314.857L273.677 314.69C273.488 315.176 273.11 315.464 272.453 315.464C271.661 315.464 271.166 314.906 271.085 314.056H274.338C274.347 313.948 274.347 313.844 274.347 313.745ZM272.385 312.179C273.119 312.179 273.555 312.652 273.618 313.475H271.089C271.188 312.697 271.656 312.179 272.385 312.179ZM278.2 311.657L277.305 314.371C277.179 314.735 277.071 315.086 276.954 315.455C276.837 315.095 276.72 314.731 276.598 314.371L275.703 311.657H274.888L276.427 316H277.476L279.015 311.657H278.2ZM281.63 316.09C282.962 316.09 283.804 315.127 283.804 313.826C283.804 312.53 282.962 311.567 281.63 311.567C280.294 311.567 279.452 312.53 279.452 313.826C279.452 315.127 280.294 316.09 281.63 316.09ZM281.63 315.438C280.753 315.438 280.186 314.762 280.186 313.826C280.186 312.89 280.753 312.22 281.63 312.22C282.499 312.22 283.07 312.89 283.07 313.826C283.07 314.762 282.499 315.438 281.63 315.438ZM284.783 316H285.516V309.718H284.783V316ZM289.853 311.657V313.885C289.853 314.857 289.295 315.401 288.539 315.401C287.882 315.401 287.554 315.019 287.554 314.173V311.657H286.825V314.317C286.825 315.455 287.333 316.086 288.382 316.086C289.12 316.086 289.642 315.716 289.889 315.127L289.907 316H290.582V311.657H289.853ZM294.421 315.253C294.236 315.361 294.056 315.41 293.818 315.41C293.3 315.41 293.08 315.127 293.08 314.528V312.269H294.515V311.657H293.08V310.258L292.351 310.366V311.657H291.455V312.269H292.351V314.618C292.351 315.604 292.855 316.063 293.714 316.063C294.065 316.063 294.349 315.986 294.614 315.842L294.421 315.253ZM295.879 310.825C296.18 310.825 296.423 310.591 296.423 310.303C296.423 310.015 296.18 309.79 295.879 309.79C295.6 309.79 295.357 310.015 295.357 310.303C295.357 310.591 295.6 310.825 295.879 310.825ZM295.523 316H296.257V311.657H295.523V316ZM299.446 316.09C300.778 316.09 301.619 315.127 301.619 313.826C301.619 312.53 300.778 311.567 299.446 311.567C298.109 311.567 297.268 312.53 297.268 313.826C297.268 315.127 298.109 316.09 299.446 316.09ZM299.446 315.438C298.568 315.438 298.001 314.762 298.001 313.826C298.001 312.89 298.568 312.22 299.446 312.22C300.314 312.22 300.886 312.89 300.886 313.826C300.886 314.762 300.314 315.438 299.446 315.438ZM304.825 311.567C304.092 311.567 303.57 311.932 303.318 312.508L303.322 311.657H302.616V316H303.349V313.768C303.349 312.796 303.907 312.251 304.663 312.251C305.347 312.251 305.671 312.634 305.671 313.48V316H306.405V313.336C306.405 312.197 305.892 311.567 304.825 311.567Z" fill="white"/>
<defs>
<filter id="filter0_d" x="0" y="65" width="480" height="495" filterUnits="userSpaceOnUse" color-interpolation-filters="sRGB">
<feFlood flood-opacity="0" result="BackgroundImageFix"/>
<feColorMatrix in="SourceAlpha" type="matrix" values="0 0 0 0 0 0 0 0 0 0 0 0 0 0 0 0 0 0 127 0"/>
<feOffset dy="8"/>
<feGaussianBlur stdDeviation="5"/>
<feColorMatrix type="matrix" values="0 0 0 0 0 0 0 0 0 0 0 0 0 0 0 0 0 0 0.25 0"/>
<feBlend mode="normal" in2="BackgroundImageFix" result="effect1_dropShadow"/>
<feBlend mode="normal" in="SourceGraphic" in2="effect1_dropShadow" result="shape"/>
</filter>
<filter id="filter1_d" x="279.571" y="342.714" width="44.8571" height="44.8571" filterUnits="userSpaceOnUse" color-interpolation-filters="sRGB">
<feFlood flood-opacity="0" result="BackgroundImageFix"/>
<feColorMatrix in="SourceAlpha" type="matrix" values="0 0 0 0 0 0 0 0 0 0 0 0 0 0 0 0 0 0 127 0"/>
<feOffset dy="5"/>
<feGaussianBlur stdDeviation="7.5"/>
<feColorMatrix type="matrix" values="0 0 0 0 0.0470588 0 0 0 0 0.0666667 0 0 0 0 0.109804 0 0 0 0.151825 0"/>
<feBlend mode="normal" in2="BackgroundImageFix" result="effect1_dropShadow"/>
<feBlend mode="normal" in="SourceGraphic" in2="effect1_dropShadow" result="shape"/>
</filter>
<filter id="filter2_d" x="232" y="351" width="58" height="22" filterUnits="userSpaceOnUse" color-interpolation-filters="sRGB">
<feFlood flood-opacity="0" result="BackgroundImageFix"/>
<feColorMatrix in="SourceAlpha" type="matrix" values="0 0 0 0 0 0 0 0 0 0 0 0 0 0 0 0 0 0 127 0"/>
<feOffset dy="2"/>
<feGaussianBlur stdDeviation="2"/>
<feColorMatrix type="matrix" values="0 0 0 0 0 0 0 0 0 0 0 0 0 0 0 0 0 0 0.25 0"/>
<feBlend mode="normal" in2="BackgroundImageFix" result="effect1_dropShadow"/>
<feBlend mode="normal" in="SourceGraphic" in2="effect1_dropShadow" result="shape"/>
</filter>
<filter id="filter3_d" x="397.571" y="342.714" width="44.8571" height="44.8571" filterUnits="userSpaceOnUse" color-interpolation-filters="sRGB">
<feFlood flood-opacity="0" result="BackgroundImageFix"/>
<feColorMatrix in="SourceAlpha" type="matrix" values="0 0 0 0 0 0 0 0 0 0 0 0 0 0 0 0 0 0 127 0"/>
<feOffset dy="5"/>
<feGaussianBlur stdDeviation="7.5"/>
<feColorMatrix type="matrix" values="0 0 0 0 0.0470588 0 0 0 0 0.0666667 0 0 0 0 0.109804 0 0 0 0.151825 0"/>
<feBlend mode="normal" in2="BackgroundImageFix" result="effect1_dropShadow"/>
<feBlend mode="normal" in="SourceGraphic" in2="effect1_dropShadow" result="shape"/>
</filter>
<filter id="filter4_d" x="350" y="351" width="58" height="22" filterUnits="userSpaceOnUse" color-interpolation-filters="sRGB">
<feFlood flood-opacity="0" result="BackgroundImageFix"/>
<feColorMatrix in="SourceAlpha" type="matrix" values="0 0 0 0 0 0 0 0 0 0 0 0 0 0 0 0 0 0 127 0"/>
<feOffset dy="2"/>
<feGaussianBlur stdDeviation="2"/>
<feColorMatrix type="matrix" values="0 0 0 0 0 0 0 0 0 0 0 0 0 0 0 0 0 0 0.25 0"/>
<feBlend mode="normal" in2="BackgroundImageFix" result="effect1_dropShadow"/>
<feBlend mode="normal" in="SourceGraphic" in2="effect1_dropShadow" result="shape"/>
</filter>
<filter id="filter5_d" x="161.571" y="342.714" width="44.8571" height="44.8571" filterUnits="userSpaceOnUse" color-interpolation-filters="sRGB">
<feFlood flood-opacity="0" result="BackgroundImageFix"/>
<feColorMatrix in="SourceAlpha" type="matrix" values="0 0 0 0 0 0 0 0 0 0 0 0 0 0 0 0 0 0 127 0"/>
<feOffset dy="5"/>
<feGaussianBlur stdDeviation="7.5"/>
<feColorMatrix type="matrix" values="0 0 0 0 0.0470588 0 0 0 0 0.0666667 0 0 0 0 0.109804 0 0 0 0.151825 0"/>
<feBlend mode="normal" in2="BackgroundImageFix" result="effect1_dropShadow"/>
<feBlend mode="normal" in="SourceGraphic" in2="effect1_dropShadow" result="shape"/>
</filter>
<filter id="filter6_d" x="114" y="351" width="58" height="22" filterUnits="userSpaceOnUse" color-interpolation-filters="sRGB">
<feFlood flood-opacity="0" result="BackgroundImageFix"/>
<feColorMatrix in="SourceAlpha" type="matrix" values="0 0 0 0 0 0 0 0 0 0 0 0 0 0 0 0 0 0 127 0"/>
<feOffset dy="2"/>
<feGaussianBlur stdDeviation="2"/>
<feColorMatrix type="matrix" values="0 0 0 0 0 0 0 0 0 0 0 0 0 0 0 0 0 0 0.25 0"/>
<feBlend mode="normal" in2="BackgroundImageFix" result="effect1_dropShadow"/>
<feBlend mode="normal" in="SourceGraphic" in2="effect1_dropShadow" result="shape"/>
</filter>
<filter id="filter7_d" x="187" y="0" width="132" height="132" filterUnits="userSpaceOnUse" color-interpolation-filters="sRGB">
<feFlood flood-opacity="0" result="BackgroundImageFix"/>
<feColorMatrix in="SourceAlpha" type="matrix" values="0 0 0 0 0 0 0 0 0 0 0 0 0 0 0 0 0 0 127 0"/>
<feOffset dy="4"/>
<feGaussianBlur stdDeviation="2"/>
<feColorMatrix type="matrix" values="0 0 0 0 0 0 0 0 0 0 0 0 0 0 0 0 0 0 0.25 0"/>
<feBlend mode="normal" in2="BackgroundImageFix" result="effect1_dropShadow"/>
<feBlend mode="normal" in="SourceGraphic" in2="effect1_dropShadow" result="shape"/>
</filter>
<linearGradient id="paint0_linear" x1="286" y1="299" x2="235.239" y2="299" gradientUnits="userSpaceOnUse">
<stop stop-color="#7C9EF8"/>
<stop offset="1" stop-color="#6A78F7"/>
</linearGradient>
<linearGradient id="paint1_linear" x1="396" y1="299" x2="352.901" y2="299" gradientUnits="userSpaceOnUse">
<stop stop-color="#7C9EF8"/>
<stop offset="1" stop-color="#6A78F7"/>
</linearGradient>
<linearGradient id="paint2_linear" x1="186" y1="299" x2="118" y2="299" gradientUnits="userSpaceOnUse">
<stop stop-color="#7C9EF8"/>
<stop offset="1" stop-color="#6A78F7"/>
</linearGradient>
<clipPath id="clip0">
<rect width="26" height="26" fill="white" transform="translate(289 349)"/>
</clipPath>
<clipPath id="clip1">
<rect width="26" height="26" fill="white" transform="translate(407 349)"/>
</clipPath>
<clipPath id="clip2">
<rect width="26" height="26" fill="white" transform="translate(171 349)"/>
</clipPath>
<clipPath id="clip3">
<rect width="20" height="20" fill="white" transform="translate(44 296)"/>
</clipPath>
<clipPath id="clip4">
<rect width="66" height="67" fill="white" transform="translate(223 28)"/>
</clipPath>
<clipPath id="clip5">
<rect width="30.6977" height="30.4545" fill="white" transform="translate(239.884 49.3184)"/>
</clipPath>
<clipPath id="clip6">
<rect width="30.3" height="18" fill="white" transform="translate(61 103)"/>
</clipPath>
</defs>
</svg>
