<svg width="480" height="591" viewBox="0 0 480 591" fill="none" xmlns="http://www.w3.org/2000/svg">
<g filter="url(#filter0_d)">
<rect x="10" y="67" width="460" height="506" rx="48" fill="white"/>
</g>
<g filter="url(#filter1_d)">
<rect x="176" y="508" width="139" height="39" rx="8" fill="#5375FF"/>
</g>
<path d="M230.571 534.18C233.046 534.18 234.414 532.884 234.423 530.94C234.432 528.681 232.596 528.15 230.634 527.583C228.825 527.052 227.628 526.638 227.628 525.216C227.628 523.992 228.51 523.182 230.22 523.182C232.245 523.182 233.118 524.343 233.244 526.071L234.324 525.837C234.27 523.326 232.686 522.12 230.265 522.12C228.006 522.12 226.377 523.236 226.377 525.297C226.377 527.43 228.078 528.114 230.121 528.663C231.993 529.185 233.19 529.554 233.19 530.994C233.19 532.479 232.155 533.109 230.589 533.109C228.267 533.109 227.106 532.029 227.142 529.995L225.999 530.175C225.945 533.001 228.006 534.18 230.571 534.18ZM244.286 533.091C243.647 533.091 243.557 532.623 243.557 532.164V528.708C243.557 527.052 242.999 525.189 240.155 525.189C238.328 525.189 237.149 525.999 236.663 527.628L237.725 527.979C238.103 526.8 238.769 526.206 240.164 526.206C241.892 526.206 242.396 527.286 242.396 528.699V529.329C241.739 529.248 241.082 529.203 240.479 529.203C238.193 529.203 236.438 529.797 236.438 531.669C236.438 533.253 237.653 534.18 239.399 534.18C240.821 534.18 241.919 533.541 242.486 532.623C242.558 533.568 242.963 534.09 244.043 534.09C244.295 534.09 244.529 534.063 244.79 534.009V533.046C244.61 533.082 244.457 533.091 244.286 533.091ZM239.543 533.154C238.508 533.154 237.707 532.695 237.707 531.642C237.707 530.508 238.796 530.139 240.515 530.139C241.109 530.139 241.739 530.175 242.396 530.247V531.678C241.82 532.596 240.776 533.154 239.543 533.154ZM252.097 525.369L250.234 530.715C249.955 531.507 249.694 532.29 249.424 533.082C249.154 532.299 248.893 531.507 248.614 530.715L246.742 525.369H245.428L248.578 534H250.261L253.42 525.369H252.097ZM262.264 529.509C262.264 526.926 260.851 525.189 258.421 525.189C255.982 525.189 254.416 527.16 254.416 529.662C254.416 532.218 256.045 534.18 258.556 534.18C260.302 534.18 261.598 533.37 262.102 531.831L261.175 531.507C260.761 532.533 259.951 533.154 258.556 533.154C256.828 533.154 255.739 531.867 255.604 530.022H262.255C262.264 529.842 262.264 529.671 262.264 529.509ZM258.421 526.197C260.023 526.197 260.959 527.25 261.085 529.05H255.631C255.811 527.367 256.81 526.197 258.421 526.197Z" fill="white"/>
<path d="M197.269 197H199.897V192.149H204.217V197H206.845V185.3H204.217V189.899H199.897V185.3H197.269V197ZM213.142 197.171C216.004 197.171 217.678 195.263 217.678 192.563C217.678 189.872 216.004 187.964 213.142 187.964C210.271 187.964 208.597 189.872 208.597 192.563C208.597 195.263 210.271 197.171 213.142 197.171ZM213.142 195.029C211.828 195.029 210.982 194.084 210.982 192.563C210.982 191.051 211.828 190.115 213.142 190.115C214.447 190.115 215.284 191.051 215.284 192.563C215.284 194.084 214.447 195.029 213.142 195.029ZM229.517 188.135L228.617 192.626C228.437 193.562 228.302 194.345 228.14 195.326C227.969 194.237 227.798 193.445 227.618 192.572L226.673 188.135H223.739L222.794 192.545C222.605 193.418 222.443 194.21 222.272 195.29C222.11 194.309 221.975 193.535 221.786 192.599L220.895 188.135H218.375L220.598 197H223.802L224.909 192.023C225.026 191.537 225.107 191.096 225.206 190.547C225.305 191.096 225.395 191.537 225.503 192.023L226.61 197H229.814L232.037 188.135H229.517ZM247.095 188.135L246.195 192.626C246.015 193.562 245.88 194.345 245.718 195.326C245.547 194.237 245.376 193.445 245.196 192.572L244.251 188.135H241.317L240.372 192.545C240.183 193.418 240.021 194.21 239.85 195.29C239.688 194.309 239.553 193.535 239.364 192.599L238.473 188.135H235.953L238.176 197H241.38L242.487 192.023C242.604 191.537 242.685 191.096 242.784 190.547C242.883 191.096 242.973 191.537 243.081 192.023L244.188 197H247.392L249.615 188.135H247.095ZM254.855 197.171C257.717 197.171 259.391 195.263 259.391 192.563C259.391 189.872 257.717 187.964 254.855 187.964C251.984 187.964 250.31 189.872 250.31 192.563C250.31 195.263 251.984 197.171 254.855 197.171ZM254.855 195.029C253.541 195.029 252.695 194.084 252.695 192.563C252.695 191.051 253.541 190.115 254.855 190.115C256.16 190.115 256.997 191.051 256.997 192.563C256.997 194.084 256.16 195.029 254.855 195.029ZM266.611 188.135V192.482C266.611 194.183 265.828 194.993 264.676 194.993C263.677 194.993 263.227 194.426 263.227 193.211V188.135H260.815V193.805C260.815 195.803 261.751 197.162 263.992 197.162C265.468 197.162 266.413 196.46 266.854 195.272L266.989 197H269.023V188.135H266.611ZM271.038 197H273.45V184.436H271.038V197ZM281.525 184.436V189.314C281.003 188.432 280.148 187.964 278.879 187.964C276.503 187.964 274.937 189.782 274.937 192.554C274.937 195.344 276.503 197.171 278.879 197.171C280.346 197.171 281.273 196.496 281.759 195.308L281.867 197H283.937V184.436H281.525ZM279.41 195.038C278.105 195.038 277.358 194.066 277.358 192.554C277.358 191.06 278.105 190.124 279.41 190.124C280.715 190.124 281.597 191.087 281.597 192.554C281.597 194.039 280.724 195.038 279.41 195.038ZM294.883 188.135L293.497 193.445C293.326 194.102 293.173 194.723 293.029 195.308C292.876 194.696 292.714 194.039 292.552 193.427L291.157 188.135H288.43L291.328 197H292.363L292.291 197.225C291.904 198.386 290.896 198.674 288.925 198.17L288.511 200.24C291.175 200.897 293.65 200.339 294.64 197.225L297.61 188.135H294.883ZM302.615 197.171C305.477 197.171 307.151 195.263 307.151 192.563C307.151 189.872 305.477 187.964 302.615 187.964C299.744 187.964 298.07 189.872 298.07 192.563C298.07 195.263 299.744 197.171 302.615 197.171ZM302.615 195.029C301.301 195.029 300.455 194.084 300.455 192.563C300.455 191.051 301.301 190.115 302.615 190.115C303.92 190.115 304.757 191.051 304.757 192.563C304.757 194.084 303.92 195.029 302.615 195.029ZM314.371 188.135V192.482C314.371 194.183 313.588 194.993 312.436 194.993C311.437 194.993 310.987 194.426 310.987 193.211V188.135H308.575V193.805C308.575 195.803 309.511 197.162 311.752 197.162C313.228 197.162 314.173 196.46 314.614 195.272L314.749 197H316.783V188.135H314.371ZM322.12 197H324.532V184.436H322.12V197ZM327.738 187.226C328.548 187.226 329.232 186.587 329.232 185.786C329.232 184.994 328.548 184.355 327.738 184.355C326.946 184.355 326.262 184.994 326.262 185.786C326.262 186.587 326.946 187.226 327.738 187.226ZM326.541 197H328.953V188.135H326.541V197ZM336.704 197H339.476L335.93 191.933L339.188 188.135H336.317L333.311 191.861V184.436H330.962V197H333.311V194.462L334.301 193.346L336.704 197ZM348.025 192.437C348.025 189.71 346.441 187.964 343.84 187.964C341.176 187.964 339.484 189.935 339.484 192.572C339.484 195.263 341.113 197.171 343.912 197.171C345.964 197.171 347.458 196.199 347.863 194.291L345.829 193.976C345.604 194.786 344.983 195.191 343.903 195.191C342.769 195.191 342.067 194.516 341.878 193.229H347.98C348.016 192.923 348.025 192.68 348.025 192.437ZM343.84 189.917C344.848 189.917 345.55 190.511 345.649 191.708H341.896C342.103 190.538 342.805 189.917 343.84 189.917ZM358.328 194.813C357.959 194.939 357.626 195.002 357.212 195.002C356.303 195.002 356.006 194.507 356.006 193.616V190.169H358.517V188.135H356.006V185.372L353.594 185.714V188.135H352.091V190.169H353.594V193.94C353.594 195.956 354.575 197.117 356.753 197.117C357.482 197.117 358.103 197.018 358.706 196.82L358.328 194.813ZM363.998 197.171C366.86 197.171 368.534 195.263 368.534 192.563C368.534 189.872 366.86 187.964 363.998 187.964C361.127 187.964 359.453 189.872 359.453 192.563C359.453 195.263 361.127 197.171 363.998 197.171ZM363.998 195.029C362.684 195.029 361.838 194.084 361.838 192.563C361.838 191.051 362.684 190.115 363.998 190.115C365.303 190.115 366.14 191.051 366.14 192.563C366.14 194.084 365.303 195.029 363.998 195.029ZM378.419 187.964C377.168 187.964 376.295 188.432 375.755 189.305V184.436H373.343V197H375.53L375.566 195.416C376.07 196.532 377.006 197.171 378.419 197.171C380.804 197.171 382.334 195.344 382.334 192.554C382.334 189.782 380.804 187.964 378.419 187.964ZM377.852 195.038C376.547 195.038 375.674 194.039 375.674 192.554C375.674 191.096 376.547 190.124 377.852 190.124C379.166 190.124 379.904 191.06 379.904 192.554C379.904 194.066 379.166 195.038 377.852 195.038ZM392.058 192.437C392.058 189.71 390.474 187.964 387.873 187.964C385.209 187.964 383.517 189.935 383.517 192.572C383.517 195.263 385.146 197.171 387.945 197.171C389.997 197.171 391.491 196.199 391.896 194.291L389.862 193.976C389.637 194.786 389.016 195.191 387.936 195.191C386.802 195.191 386.1 194.516 385.911 193.229H392.013C392.049 192.923 392.058 192.68 392.058 192.437ZM387.873 189.917C388.881 189.917 389.583 190.511 389.682 191.708H385.929C386.136 190.538 386.838 189.917 387.873 189.917ZM200.968 219.171C203.173 219.171 204.802 218.181 205.216 215.715L202.921 215.481C202.714 216.543 202.048 217.101 200.995 217.101C199.645 217.101 198.907 216.084 198.907 214.563C198.907 213.051 199.645 212.034 200.995 212.034C202.048 212.034 202.714 212.592 202.921 213.645L205.216 213.42C204.802 210.954 203.173 209.964 200.968 209.964C198.16 209.964 196.486 211.89 196.486 214.563C196.486 217.245 198.16 219.171 200.968 219.171ZM210.927 219.171C213.789 219.171 215.463 217.263 215.463 214.563C215.463 211.872 213.789 209.964 210.927 209.964C208.056 209.964 206.382 211.872 206.382 214.563C206.382 217.263 208.056 219.171 210.927 219.171ZM210.927 217.029C209.613 217.029 208.767 216.084 208.767 214.563C208.767 213.051 209.613 212.115 210.927 212.115C212.232 212.115 213.069 213.051 213.069 214.563C213.069 216.084 212.232 217.029 210.927 217.029ZM227.093 209.964C225.743 209.964 224.888 210.594 224.447 211.656C224.069 210.603 223.223 209.964 221.756 209.964C220.361 209.964 219.506 210.63 219.092 211.755L219.074 210.135H216.95V219H219.353V214.707C219.353 213.015 220.001 212.196 221.063 212.196C221.945 212.196 222.305 212.763 222.305 213.96V219H224.699V214.689L224.708 214.707C224.708 213.015 225.356 212.196 226.418 212.196C227.3 212.196 227.66 212.772 227.66 213.96V219H230.054V213.321C230.054 211.341 229.217 209.964 227.093 209.964ZM237.073 209.973C235.66 209.973 234.724 210.558 234.22 211.665L234.184 210.135H231.997V222.393H234.409V217.776C234.94 218.676 235.822 219.171 237.073 219.171C239.458 219.171 240.988 217.344 240.988 214.563C240.988 211.791 239.458 209.973 237.073 209.973ZM236.506 217.038C235.201 217.038 234.328 216.039 234.328 214.563C234.328 213.096 235.201 212.133 236.506 212.133C237.82 212.133 238.558 213.069 238.558 214.563C238.558 216.066 237.82 217.038 236.506 217.038ZM250.713 214.437C250.713 211.71 249.129 209.964 246.528 209.964C243.864 209.964 242.172 211.935 242.172 214.572C242.172 217.263 243.801 219.171 246.6 219.171C248.652 219.171 250.146 218.199 250.551 216.291L248.517 215.976C248.292 216.786 247.671 217.191 246.591 217.191C245.457 217.191 244.755 216.516 244.566 215.229H250.668C250.704 214.923 250.713 214.68 250.713 214.437ZM246.528 211.917C247.536 211.917 248.238 212.511 248.337 213.708H244.584C244.791 212.538 245.493 211.917 246.528 211.917ZM257.243 209.964C255.758 209.964 254.813 210.684 254.372 211.89L254.354 210.135H252.212V219H254.624V214.734C254.624 213.042 255.407 212.223 256.559 212.223C257.567 212.223 258.008 212.79 258.008 214.005V219H260.42V213.33C260.42 211.323 259.484 209.964 257.243 209.964ZM266.071 219.171C268.294 219.171 269.689 218.1 269.689 216.426C269.698 214.779 268.582 214.185 266.206 213.663C264.847 213.366 264.505 213.105 264.505 212.592C264.505 212.124 264.856 211.791 265.738 211.791C266.692 211.791 267.286 212.232 267.394 213.294L269.581 213.096C269.464 211.197 268.348 209.964 265.729 209.964C263.722 209.964 262.21 210.936 262.201 212.727C262.192 214.365 263.245 215.058 265.72 215.571C266.89 215.805 267.349 215.976 267.349 216.543C267.349 217.065 266.962 217.344 266.053 217.344C265.018 217.344 264.307 216.957 264.172 215.85L261.895 216.057C262.057 218.235 263.839 219.171 266.071 219.171ZM279.511 217.02C279.043 217.02 278.926 216.795 278.926 216.354V213.663C278.926 211.971 278.44 209.964 274.984 209.964C272.761 209.964 271.222 211.026 271.078 213.033L273.391 213.303C273.499 212.367 274.012 211.926 274.993 211.926C276.208 211.926 276.568 212.646 276.568 213.636V213.987C276.055 213.906 275.515 213.861 274.93 213.861C272.491 213.861 270.781 214.554 270.781 216.426C270.781 218.01 271.87 219.162 273.805 219.162C275.272 219.162 276.343 218.622 276.829 217.659C276.964 218.694 277.468 219.072 278.791 219.072C279.241 219.072 279.601 219.045 279.997 218.946V216.984C279.826 217.011 279.664 217.02 279.511 217.02ZM274.624 217.326C273.823 217.326 273.382 216.993 273.382 216.336C273.382 215.67 273.976 215.355 275.263 215.355C275.722 215.355 276.136 215.391 276.568 215.472V216.435C276.181 216.993 275.461 217.326 274.624 217.326ZM286.468 216.813C286.099 216.939 285.766 217.002 285.352 217.002C284.443 217.002 284.146 216.507 284.146 215.616V212.169H286.657V210.135H284.146V207.372L281.734 207.714V210.135H280.231V212.169H281.734V215.94C281.734 217.956 282.715 219.117 284.893 219.117C285.622 219.117 286.243 219.018 286.846 218.82L286.468 216.813ZM296.134 214.437C296.134 211.71 294.55 209.964 291.949 209.964C289.285 209.964 287.593 211.935 287.593 214.572C287.593 217.263 289.222 219.171 292.021 219.171C294.073 219.171 295.567 218.199 295.972 216.291L293.938 215.976C293.713 216.786 293.092 217.191 292.012 217.191C290.878 217.191 290.176 216.516 289.987 215.229H296.089C296.125 214.923 296.134 214.68 296.134 214.437ZM291.949 211.917C292.957 211.917 293.659 212.511 293.758 213.708H290.005C290.212 212.538 290.914 211.917 291.949 211.917ZM303.849 206.436V211.314C303.327 210.432 302.472 209.964 301.203 209.964C298.827 209.964 297.261 211.782 297.261 214.554C297.261 217.344 298.827 219.171 301.203 219.171C302.67 219.171 303.597 218.496 304.083 217.308L304.191 219H306.261V206.436H303.849ZM301.734 217.038C300.429 217.038 299.682 216.066 299.682 214.554C299.682 213.06 300.429 212.124 301.734 212.124C303.039 212.124 303.921 213.087 303.921 214.554C303.921 216.039 303.048 217.038 301.734 217.038ZM310.267 215.337H312.625V215.13C312.625 214.356 312.796 214.005 313.777 213.276C314.839 212.493 315.676 211.8 315.676 210.198C315.676 208.263 314.209 207.129 311.887 207.129C309.655 207.129 307.945 208.353 307.873 211.107L310.267 211.458C310.312 210.054 310.816 209.37 311.869 209.37C312.643 209.37 313.111 209.757 313.111 210.513C313.111 211.152 312.805 211.485 312.202 211.953C310.618 213.186 310.267 213.744 310.267 215.13V215.337ZM311.527 219.171C312.355 219.171 313.075 218.478 313.075 217.614C313.075 216.759 312.355 216.066 311.527 216.066C310.681 216.066 309.961 216.759 309.961 217.614C309.961 218.478 310.681 219.171 311.527 219.171Z" fill="black"/>
<path d="M171 167V242" stroke="#A5A5A5"/>
<circle cx="259" cy="72" r="62" fill="#5375FF"/>
<g filter="url(#filter2_d)">
<circle cx="246" cy="62" r="62" fill="white"/>
</g>
<g clip-path="url(#clip0)">
<path d="M269.827 77.9999H224.766C223.027 77.9999 221.593 76.5537 221.593 74.7999V51.8152C221.593 50.0614 223.027 48.6152 224.766 48.6152H269.797C271.536 48.6152 272.97 50.0614 272.97 51.8152V74.7999C273 76.5537 271.566 77.9999 269.827 77.9999Z" fill="#5375FF"/>
<path d="M266.471 75.2305H223.698C221.593 75.2305 219.915 73.5382 219.915 71.4152V50.7382C219.915 48.6152 221.593 46.9229 223.698 46.9229H266.501C268.576 46.9229 270.285 48.6152 270.285 50.7382V71.4459C270.254 73.5382 268.576 75.2305 266.471 75.2305Z" stroke="black" stroke-width="2" stroke-miterlimit="10"/>
<path d="M266.746 53.9998C268.683 53.9998 270.254 52.4156 270.254 50.4613C270.254 48.5071 268.683 46.9229 266.746 46.9229C264.808 46.9229 263.237 48.5071 263.237 50.4613C263.237 52.4156 264.808 53.9998 266.746 53.9998Z" stroke="black" stroke-width="2" stroke-miterlimit="10"/>
<path d="M223.576 74.7693C225.514 74.7693 227.085 73.1851 227.085 71.2308C227.085 69.2766 225.514 67.6924 223.576 67.6924C221.639 67.6924 220.068 69.2766 220.068 71.2308C220.068 73.1851 221.639 74.7693 223.576 74.7693Z" stroke="black" stroke-width="2" stroke-miterlimit="10"/>
<path d="M245.549 56.9537C244.409 57.0017 243.839 57.3977 243.839 58.1417C243.839 58.8017 244.373 59.2697 245.441 59.5457C245.453 59.5457 245.471 59.5517 245.495 59.5637C245.531 59.5637 245.555 59.5697 245.567 59.5817C245.663 59.6057 245.711 59.5637 245.711 59.4557V57.1157C245.711 57.0077 245.657 56.9537 245.549 56.9537ZM245.621 64.9997C246.701 64.9037 247.241 64.4657 247.241 63.6857C247.241 63.3497 247.115 63.0677 246.863 62.8397C246.623 62.5997 246.209 62.3897 245.621 62.2097C245.513 62.1857 245.459 62.2217 245.459 62.3177V64.8557C245.459 64.9517 245.513 64.9997 245.621 64.9997ZM243.407 61.4357C241.775 60.6557 240.959 59.5577 240.959 58.1417C240.959 57.0977 241.349 56.2637 242.129 55.6397C242.921 55.0157 244.061 54.6977 245.549 54.6857C245.657 54.6857 245.711 54.6317 245.711 54.5237V53.9117C245.711 53.6357 245.807 53.3957 245.999 53.1917C246.203 52.9877 246.443 52.8857 246.719 52.8857H246.755C247.031 52.8857 247.271 52.9877 247.475 53.1917C247.679 53.3957 247.781 53.6357 247.781 53.9117V54.6677C247.781 54.7637 247.829 54.8237 247.925 54.8477C248.285 54.8957 248.549 54.9377 248.717 54.9737C249.005 55.0337 249.239 55.1897 249.419 55.4417C249.599 55.6817 249.689 55.9517 249.689 56.2517V56.6837C249.689 56.9237 249.587 57.1157 249.383 57.2597C249.191 57.4037 248.975 57.4457 248.735 57.3857C248.375 57.2897 248.105 57.2237 247.925 57.1877C247.829 57.1637 247.781 57.1997 247.781 57.2957V59.9597C247.781 60.0437 247.775 60.1037 247.763 60.1397C247.739 60.2477 247.763 60.3197 247.835 60.3557C248.663 60.7397 249.251 61.1957 249.599 61.7237C249.959 62.2397 250.139 62.8757 250.139 63.6317C250.139 64.7597 249.755 65.6357 248.987 66.2597C248.231 66.8837 247.103 67.2197 245.603 67.2677C245.507 67.2677 245.459 67.3217 245.459 67.4297V68.0597C245.459 68.3357 245.357 68.5757 245.153 68.7797C244.961 68.9837 244.727 69.0857 244.451 69.0857H244.415C244.139 69.0857 243.899 68.9837 243.695 68.7797C243.491 68.5757 243.389 68.3357 243.389 68.0597V67.3037C243.389 67.1957 243.347 67.1357 243.263 67.1237C242.951 67.0757 242.639 67.0037 242.327 66.9077C242.039 66.8237 241.805 66.6557 241.625 66.4037C241.445 66.1397 241.355 65.8517 241.355 65.5397V65.0177C241.355 64.7897 241.451 64.6157 241.643 64.4957C241.847 64.3637 242.057 64.3457 242.273 64.4417C242.597 64.5737 242.921 64.6817 243.245 64.7657C243.341 64.7897 243.389 64.7477 243.389 64.6397V62.0117C243.389 61.9037 243.413 61.7777 243.461 61.6337C243.509 61.5377 243.491 61.4717 243.407 61.4357Z" fill="black"/>
</g>
<g clip-path="url(#clip1)">
<path d="M81.3 109C80.5 109 79.7 109.3 79.2 109.9C78.6 110.5 78.3 111.2 78.3 112C78.3 112.8 78 113.5 77.4 114.1C76.8 114.7 76 115 75.2 115C74.4 115 73.6 114.7 73.1 114.1C72.5 113.5 72.2 112.8 72.2 112C72.2 110.8 72 109.6 71.5 108.6C71 107.5 70.4 106.5 69.5 105.7C68.7 104.9 67.7 104.2 66.5 103.7C65.5 103.2 64.3 103 63.1 103C61.9 103 60.7 103.2 59.6 103.7C58.5 104.2 57.5 104.8 56.6 105.7C55.8 106.5 55.1 107.5 54.6 108.6C54.2 109.6 54 110.8 54 112C54 112.8 54.3 113.6 54.9 114.1C55.5 114.7 56.2 115 57 115C57.8 115 58.6 114.7 59.1 114.1C59.8 113.6 60.1 112.8 60.1 112C60.1 111.2 60.4 110.5 61 109.9C61.6 109.3 62.3 109 63.1 109C63.9 109 64.7 109.3 65.2 109.9C65.8 110.5 66.1 111.2 66.1 112C66.1 114.4 67.1 116.7 68.8 118.4C70.5 120.1 72.8 121 75.2 121C77.6 121 79.9 120.1 81.6 118.4C83.3 116.7 84.3 114.4 84.3 112C84.3 111.2 84 110.4 83.4 109.9C82.9 109.3 82.1 109 81.3 109Z" fill="#5977F7"/>
</g>
<circle cx="410.5" cy="102.5" r="13.5" fill="#EBEDF2"/>
<path d="M121.918 211.263C122.379 210.8 122.379 210.049 121.918 209.586C121.457 209.123 120.709 209.123 120.247 209.586C119.786 210.049 119.786 210.8 120.247 211.263C120.709 211.726 121.457 211.726 121.918 211.263ZM116.325 183.124C116.325 190.314 122.152 196.166 129.316 196.166C136.479 196.166 142.309 190.314 142.309 183.124C142.309 175.933 136.479 170.084 129.316 170.084C122.152 170.084 116.325 175.933 116.325 183.124Z" fill="#5375FF"/>
<path d="M107.725 230.448C108.181 230.911 108.929 230.915 109.391 230.457L115.118 224.795C116.091 223.819 116.386 222.372 115.959 221.115L117.191 219.924C117.852 219.281 118.727 218.928 119.65 218.928H135.35C138.136 218.928 140.768 217.853 142.763 215.903C142.847 215.823 142.141 216.655 153.477 203.059C155.159 201.063 154.906 198.063 152.916 196.375C150.938 194.703 147.972 194.942 146.286 196.904L139.318 204.095C138.438 203.007 137.095 202.329 135.645 202.329H122.475C120.602 201.542 118.611 201.143 116.561 201.143C110.872 201.143 105.906 203.78 103.243 208.723C102.12 208.511 100.936 208.851 100.084 209.707L94.4656 215.364C94.0065 215.825 94.0042 216.573 94.4633 217.036L107.725 230.448ZM116.561 203.515C118.37 203.515 120.118 203.88 121.759 204.601C121.909 204.667 122.07 204.702 122.234 204.702H135.645C136.927 204.702 138.009 205.751 138.009 207.072C138.009 208.379 136.947 209.444 135.645 209.444H126.009C125.356 209.444 124.827 209.974 124.827 210.628C124.827 211.283 125.356 211.815 126.009 211.815H135.645C138.25 211.815 140.37 209.686 140.37 207.07C140.37 206.864 140.354 206.657 140.329 206.454C147.07 199.496 148.02 198.517 148.061 198.469C148.902 197.472 150.397 197.347 151.391 198.186C152.386 199.03 152.513 200.532 151.668 201.533L141.077 214.244C139.527 215.736 137.497 216.555 135.35 216.555H119.652C118.113 216.555 116.656 217.148 115.552 218.218L114.547 219.19L105.295 209.905C107.456 205.831 111.516 203.515 116.563 203.515H116.561Z" fill="#5375FF"/>
<path d="M127.899 176.01V177.402C126.524 177.89 125.536 179.209 125.536 180.755C125.536 182.715 127.127 184.31 129.081 184.31C129.731 184.31 130.261 184.841 130.261 185.496C130.261 186.148 129.731 186.682 129.079 186.682C128.574 186.682 128.031 186.363 127.547 185.783C127.127 185.281 126.381 185.218 125.881 185.64C125.381 186.062 125.317 186.808 125.738 187.309C126.37 188.062 127.113 188.587 127.897 188.854V190.236C127.897 190.893 128.427 191.423 129.079 191.423C129.731 191.423 130.261 190.893 130.261 190.236V188.849C131.636 188.359 132.624 187.04 132.624 185.496C132.624 183.534 131.033 181.937 129.079 181.937C128.429 181.937 127.897 181.408 127.897 180.753C127.897 180.101 128.429 179.567 129.079 179.567C129.499 179.567 129.94 179.781 130.356 180.187C130.827 180.644 131.574 180.63 132.027 180.16C132.481 179.69 132.467 178.94 131.999 178.483C131.399 177.902 130.802 177.571 130.261 177.393V176.01C130.261 175.356 129.731 174.824 129.079 174.824C128.427 174.824 127.897 175.356 127.897 176.01H127.899Z" fill="#FBFBFB"/>
<path d="M219.269 305H221.888V300.941H223.823C226.487 300.941 227.936 299.555 227.936 297.044C227.936 294.596 226.505 293.291 223.85 293.291H219.269V305ZM221.888 298.979V295.397H223.616C224.75 295.397 225.344 295.946 225.344 297.125C225.344 298.322 224.813 298.979 223.607 298.979H221.888ZM231.442 297.98L231.415 296.135H229.3V304.991H231.694V301.004C231.694 298.979 233.134 298.286 234.7 298.61V296.009C233.062 295.721 231.937 296.567 231.442 297.98ZM239.871 305.171C242.733 305.171 244.407 303.263 244.407 300.563C244.407 297.872 242.733 295.964 239.871 295.964C237 295.964 235.326 297.872 235.326 300.563C235.326 303.263 237 305.171 239.871 305.171ZM239.871 303.029C238.557 303.029 237.711 302.084 237.711 300.563C237.711 299.051 238.557 298.115 239.871 298.115C241.176 298.115 242.013 299.051 242.013 300.563C242.013 302.084 241.176 303.029 239.871 303.029ZM252.179 292.436V297.314C251.657 296.432 250.802 295.964 249.533 295.964C247.157 295.964 245.591 297.782 245.591 300.554C245.591 303.344 247.157 305.171 249.533 305.171C251 305.171 251.927 304.496 252.413 303.308L252.521 305H254.591V292.436H252.179ZM250.064 303.038C248.759 303.038 248.012 302.066 248.012 300.554C248.012 299.06 248.759 298.124 250.064 298.124C251.369 298.124 252.251 299.087 252.251 300.554C252.251 302.039 251.378 303.038 250.064 303.038ZM262.332 296.135V300.482C262.332 302.183 261.549 302.993 260.397 302.993C259.398 302.993 258.948 302.426 258.948 301.211V296.135H256.536V301.805C256.536 303.803 257.472 305.162 259.713 305.162C261.189 305.162 262.134 304.46 262.575 303.272L262.71 305H264.744V296.135H262.332ZM270.728 305.171C272.933 305.171 274.562 304.181 274.976 301.715L272.681 301.481C272.474 302.543 271.808 303.101 270.755 303.101C269.405 303.101 268.667 302.084 268.667 300.563C268.667 299.051 269.405 298.034 270.755 298.034C271.808 298.034 272.474 298.592 272.681 299.645L274.976 299.42C274.562 296.954 272.933 295.964 270.728 295.964C267.92 295.964 266.246 297.89 266.246 300.563C266.246 303.245 267.92 305.171 270.728 305.171ZM281.925 302.813C281.556 302.939 281.223 303.002 280.809 303.002C279.9 303.002 279.603 302.507 279.603 301.616V298.169H282.114V296.135H279.603V293.372L277.191 293.714V296.135H275.688V298.169H277.191V301.94C277.191 303.956 278.172 305.117 280.35 305.117C281.079 305.117 281.7 305.018 282.303 304.82L281.925 302.813Z" fill="black"/>
<path d="M207.269 338H215.189V335.75H209.897V333.032H214.307V330.971H209.897V328.55H215.009V326.3H207.269V338ZM225.425 338L222.671 333.527L225.254 329.135H222.329L220.772 332.249L219.206 329.135H216.29L218.864 333.527L216.11 338H219.035L220.772 334.733L222.5 338H225.425ZM231.604 328.973C230.191 328.973 229.255 329.558 228.751 330.665L228.715 329.135H226.528V341.393H228.94V336.776C229.471 337.676 230.353 338.171 231.604 338.171C233.989 338.171 235.519 336.344 235.519 333.563C235.519 330.791 233.989 328.973 231.604 328.973ZM231.037 336.038C229.732 336.038 228.859 335.039 228.859 333.563C228.859 332.096 229.732 331.133 231.037 331.133C232.351 331.133 233.089 332.069 233.089 333.563C233.089 335.066 232.351 336.038 231.037 336.038ZM245.244 333.437C245.244 330.71 243.66 328.964 241.059 328.964C238.395 328.964 236.703 330.935 236.703 333.572C236.703 336.263 238.332 338.171 241.131 338.171C243.183 338.171 244.677 337.199 245.082 335.291L243.048 334.976C242.823 335.786 242.202 336.191 241.122 336.191C239.988 336.191 239.286 335.516 239.097 334.229H245.199C245.235 333.923 245.244 333.68 245.244 333.437ZM241.059 330.917C242.067 330.917 242.769 331.511 242.868 332.708H239.115C239.322 331.538 240.024 330.917 241.059 330.917ZM248.885 330.98L248.858 329.135H246.743V337.991H249.137V334.004C249.137 331.979 250.577 331.286 252.143 331.61V329.009C250.505 328.721 249.38 329.567 248.885 330.98ZM254.594 328.226C255.404 328.226 256.088 327.587 256.088 326.786C256.088 325.994 255.404 325.355 254.594 325.355C253.802 325.355 253.118 325.994 253.118 326.786C253.118 327.587 253.802 328.226 254.594 328.226ZM253.397 338H255.809V329.135H253.397V338ZM265.845 333.437C265.845 330.71 264.261 328.964 261.66 328.964C258.996 328.964 257.304 330.935 257.304 333.572C257.304 336.263 258.933 338.171 261.732 338.171C263.784 338.171 265.278 337.199 265.683 335.291L263.649 334.976C263.424 335.786 262.803 336.191 261.723 336.191C260.589 336.191 259.887 335.516 259.698 334.229H265.8C265.836 333.923 265.845 333.68 265.845 333.437ZM261.66 330.917C262.668 330.917 263.37 331.511 263.469 332.708H259.716C259.923 331.538 260.625 330.917 261.66 330.917ZM272.376 328.964C270.891 328.964 269.946 329.684 269.505 330.89L269.487 329.135H267.345V338H269.757V333.734C269.757 332.042 270.54 331.223 271.692 331.223C272.7 331.223 273.141 331.79 273.141 333.005V338H275.553V332.33C275.553 330.323 274.617 328.964 272.376 328.964ZM281.474 338.171C283.679 338.171 285.308 337.181 285.722 334.715L283.427 334.481C283.22 335.543 282.554 336.101 281.501 336.101C280.151 336.101 279.413 335.084 279.413 333.563C279.413 332.051 280.151 331.034 281.501 331.034C282.554 331.034 283.22 331.592 283.427 332.645L285.722 332.42C285.308 329.954 283.679 328.964 281.474 328.964C278.666 328.964 276.992 330.89 276.992 333.563C276.992 336.245 278.666 338.171 281.474 338.171ZM295.429 333.437C295.429 330.71 293.845 328.964 291.244 328.964C288.58 328.964 286.888 330.935 286.888 333.572C286.888 336.263 288.517 338.171 291.316 338.171C293.368 338.171 294.862 337.199 295.267 335.291L293.233 334.976C293.008 335.786 292.387 336.191 291.307 336.191C290.173 336.191 289.471 335.516 289.282 334.229H295.384C295.42 333.923 295.429 333.68 295.429 333.437ZM291.244 330.917C292.252 330.917 292.954 331.511 293.053 332.708H289.3C289.507 331.538 290.209 330.917 291.244 330.917Z" fill="black"/>
<path d="M233.291 374.171C236.36 374.171 238.277 372.587 238.538 369.653L236 369.311C235.703 371.39 234.65 371.975 233.237 371.975C231.212 371.975 230.249 370.472 230.249 368.15C230.249 365.828 231.212 364.325 233.237 364.325C234.65 364.325 235.712 364.973 236 366.989L238.538 366.647C238.313 363.713 236.36 362.129 233.291 362.129C229.628 362.129 227.54 364.577 227.54 368.15C227.54 371.723 229.628 374.171 233.291 374.171ZM248.337 372.02C247.869 372.02 247.752 371.795 247.752 371.354V368.663C247.752 366.971 247.266 364.964 243.81 364.964C241.587 364.964 240.048 366.026 239.904 368.033L242.217 368.303C242.325 367.367 242.838 366.926 243.819 366.926C245.034 366.926 245.394 367.646 245.394 368.636V368.987C244.881 368.906 244.341 368.861 243.756 368.861C241.317 368.861 239.607 369.554 239.607 371.426C239.607 373.01 240.696 374.162 242.631 374.162C244.098 374.162 245.169 373.622 245.655 372.659C245.79 373.694 246.294 374.072 247.617 374.072C248.067 374.072 248.427 374.045 248.823 373.946V371.984C248.652 372.011 248.49 372.02 248.337 372.02ZM243.45 372.326C242.649 372.326 242.208 371.993 242.208 371.336C242.208 370.67 242.802 370.355 244.089 370.355C244.548 370.355 244.962 370.391 245.394 370.472V371.435C245.007 371.993 244.287 372.326 243.45 372.326ZM253.776 374.171C255.999 374.171 257.394 373.1 257.394 371.426C257.403 369.779 256.287 369.185 253.911 368.663C252.552 368.366 252.21 368.105 252.21 367.592C252.21 367.124 252.561 366.791 253.443 366.791C254.397 366.791 254.991 367.232 255.099 368.294L257.286 368.096C257.169 366.197 256.053 364.964 253.434 364.964C251.427 364.964 249.915 365.936 249.906 367.727C249.897 369.365 250.95 370.058 253.425 370.571C254.595 370.805 255.054 370.976 255.054 371.543C255.054 372.065 254.667 372.344 253.758 372.344C252.723 372.344 252.012 371.957 251.877 370.85L249.6 371.057C249.762 373.235 251.544 374.171 253.776 374.171ZM264.075 364.964C262.752 364.964 261.87 365.558 261.384 366.566V361.436H258.972V374H261.384V369.734C261.384 368.042 262.167 367.223 263.319 367.223C264.327 367.223 264.768 367.79 264.768 369.005V374H267.18V368.33C267.18 366.323 266.244 364.964 264.075 364.964Z" fill="black"/>
<rect x="163.5" y="293.5" width="13" height="13" stroke="#5375FF"/>
<rect x="163.5" y="326.5" width="13" height="13" stroke="#5375FF"/>
<rect x="163.5" y="364.5" width="13" height="13" stroke="#5375FF"/>
<rect x="82.5" y="408.5" width="332" height="34" rx="8.5" stroke="#A3A3A3"/>
<path d="M110.252 420.3L107.579 427.968C107.237 428.958 106.931 429.876 106.598 430.929C106.31 430.029 105.959 428.931 105.626 427.968L102.953 420.3H101.639L105.788 432H107.417L111.566 420.3H110.252ZM120.854 432H122.186L117.83 420.3H116.102L111.746 432H113.078L114.194 428.931H119.738L120.854 432ZM114.563 427.914L116.966 421.326L119.369 427.914H114.563ZM125.909 432H127.151V421.38H130.715V420.3H122.345V421.38H125.909V432ZM140.86 423.189C139.357 423.189 138.25 423.972 137.746 425.178L137.773 423.369H136.621V432H137.8V427.473C137.8 425.466 139.024 424.287 140.644 424.287C142.12 424.287 142.831 425.115 142.831 426.951V432H144.01V426.78C144.01 424.422 142.966 423.189 140.86 423.189ZM152.677 423.369V427.887C152.677 429.903 151.462 431.073 149.842 431.073C148.483 431.073 147.763 430.245 147.763 428.409V423.369H146.584V428.589C146.584 430.947 147.637 432.18 149.653 432.18C151.156 432.18 152.236 431.397 152.74 430.2V432H153.856V423.369H152.677ZM166.295 423.189C164.801 423.189 163.829 423.909 163.361 425.043C163.019 423.828 162.2 423.189 160.778 423.189C159.329 423.189 158.411 423.855 157.943 424.917L157.961 423.369H156.836V432H158.006V427.446C158.006 425.43 158.942 424.26 160.571 424.26C161.948 424.26 162.398 425.097 162.398 426.906V432H163.559V427.446C163.559 425.43 164.486 424.26 166.115 424.26C167.501 424.26 167.951 425.124 167.951 426.906V432H169.112V426.78C169.112 424.476 168.302 423.189 166.295 423.189ZM176.212 423.189C174.691 423.189 173.611 423.837 173.044 425.016V419.436H171.865V432H172.999L173.017 430.209C173.575 431.442 174.655 432.18 176.212 432.18C178.786 432.18 180.181 430.308 180.181 427.671C180.181 425.052 178.786 423.189 176.212 423.189ZM176.068 431.127C174.178 431.127 173.008 429.633 173.008 427.671C173.008 425.718 174.178 424.251 176.068 424.251C178.003 424.251 178.957 425.682 178.957 427.671C178.957 429.669 178.003 431.127 176.068 431.127ZM189.733 427.509C189.733 424.926 188.32 423.189 185.89 423.189C183.451 423.189 181.885 425.16 181.885 427.662C181.885 430.218 183.514 432.18 186.025 432.18C187.771 432.18 189.067 431.37 189.571 429.831L188.644 429.507C188.23 430.533 187.42 431.154 186.025 431.154C184.297 431.154 183.208 429.867 183.073 428.022H189.724C189.733 427.842 189.733 427.671 189.733 427.509ZM185.89 424.197C187.492 424.197 188.428 425.25 188.554 427.05H183.1C183.28 425.367 184.279 424.197 185.89 424.197ZM193.046 425.133L193.064 423.369H191.939V432H193.1V427.428C193.1 425.178 194.819 424.062 196.502 424.503L196.583 423.27C194.99 422.919 193.631 423.621 193.046 425.133Z" fill="#ABA2A2"/>
<defs>
<filter id="filter0_d" x="0" y="65" width="480" height="526" filterUnits="userSpaceOnUse" color-interpolation-filters="sRGB">
<feFlood flood-opacity="0" result="BackgroundImageFix"/>
<feColorMatrix in="SourceAlpha" type="matrix" values="0 0 0 0 0 0 0 0 0 0 0 0 0 0 0 0 0 0 127 0"/>
<feOffset dy="8"/>
<feGaussianBlur stdDeviation="5"/>
<feColorMatrix type="matrix" values="0 0 0 0 0 0 0 0 0 0 0 0 0 0 0 0 0 0 0.25 0"/>
<feBlend mode="normal" in2="BackgroundImageFix" result="effect1_dropShadow"/>
<feBlend mode="normal" in="SourceGraphic" in2="effect1_dropShadow" result="shape"/>
</filter>
<filter id="filter1_d" x="172" y="506" width="147" height="47" filterUnits="userSpaceOnUse" color-interpolation-filters="sRGB">
<feFlood flood-opacity="0" result="BackgroundImageFix"/>
<feColorMatrix in="SourceAlpha" type="matrix" values="0 0 0 0 0 0 0 0 0 0 0 0 0 0 0 0 0 0 127 0"/>
<feOffset dy="2"/>
<feGaussianBlur stdDeviation="2"/>
<feColorMatrix type="matrix" values="0 0 0 0 0 0 0 0 0 0 0 0 0 0 0 0 0 0 0.25 0"/>
<feBlend mode="normal" in2="BackgroundImageFix" result="effect1_dropShadow"/>
<feBlend mode="normal" in="SourceGraphic" in2="effect1_dropShadow" result="shape"/>
</filter>
<filter id="filter2_d" x="180" y="0" width="132" height="132" filterUnits="userSpaceOnUse" color-interpolation-filters="sRGB">
<feFlood flood-opacity="0" result="BackgroundImageFix"/>
<feColorMatrix in="SourceAlpha" type="matrix" values="0 0 0 0 0 0 0 0 0 0 0 0 0 0 0 0 0 0 127 0"/>
<feOffset dy="4"/>
<feGaussianBlur stdDeviation="2"/>
<feColorMatrix type="matrix" values="0 0 0 0 0 0 0 0 0 0 0 0 0 0 0 0 0 0 0.25 0"/>
<feBlend mode="normal" in2="BackgroundImageFix" result="effect1_dropShadow"/>
<feBlend mode="normal" in="SourceGraphic" in2="effect1_dropShadow" result="shape"/>
</filter>
<clipPath id="clip0">
<rect width="54" height="32" fill="white" transform="translate(219 46)"/>
</clipPath>
<clipPath id="clip1">
<rect width="30.3" height="18" fill="white" transform="translate(54 103)"/>
</clipPath>
</defs>
</svg>
