<svg width="480" height="591" viewBox="0 0 480 591" fill="none" xmlns="http://www.w3.org/2000/svg">
<g filter="url(#filter0_d)">
<rect x="10" y="67" width="460" height="506" rx="48" fill="white"/>
</g>
<path d="M43.2927 240.928C46.3617 240.928 48.2787 239.344 48.5397 236.41L46.0017 236.068C45.7047 238.147 44.6517 238.732 43.2387 238.732C41.2137 238.732 40.2507 237.229 40.2507 234.907C40.2507 232.585 41.2137 231.082 43.2387 231.082C44.6517 231.082 45.7137 231.73 46.0017 233.746L48.5397 233.404C48.3147 230.47 46.3617 228.886 43.2927 228.886C39.6297 228.886 37.5417 231.334 37.5417 234.907C37.5417 238.48 39.6297 240.928 43.2927 240.928ZM55.1975 231.721C53.8745 231.721 52.9925 232.315 52.5065 233.323V228.193H50.0945V240.757H52.5065V236.491C52.5065 234.799 53.2895 233.98 54.4415 233.98C55.4495 233.98 55.8905 234.547 55.8905 235.762V240.757H58.3025V235.087C58.3025 233.08 57.3665 231.721 55.1975 231.721ZM68.4986 238.777C68.0306 238.777 67.9136 238.552 67.9136 238.111V235.42C67.9136 233.728 67.4276 231.721 63.9716 231.721C61.7486 231.721 60.2096 232.783 60.0656 234.79L62.3786 235.06C62.4866 234.124 62.9996 233.683 63.9806 233.683C65.1956 233.683 65.5556 234.403 65.5556 235.393V235.744C65.0426 235.663 64.5026 235.618 63.9176 235.618C61.4786 235.618 59.7686 236.311 59.7686 238.183C59.7686 239.767 60.8576 240.919 62.7926 240.919C64.2596 240.919 65.3306 240.379 65.8166 239.416C65.9516 240.451 66.4556 240.829 67.7786 240.829C68.2286 240.829 68.5886 240.802 68.9846 240.703V238.741C68.8136 238.768 68.6516 238.777 68.4986 238.777ZM63.6116 239.083C62.8106 239.083 62.3696 238.75 62.3696 238.093C62.3696 237.427 62.9636 237.112 64.2506 237.112C64.7096 237.112 65.1236 237.148 65.5556 237.229V238.192C65.1686 238.75 64.4486 239.083 63.6116 239.083ZM75.4563 238.57C75.0873 238.696 74.7543 238.759 74.3403 238.759C73.4313 238.759 73.1343 238.264 73.1343 237.373V233.926H75.6453V231.892H73.1343V229.129L70.7223 229.471V231.892H69.2193V233.926H70.7223V237.697C70.7223 239.713 71.7033 240.874 73.8813 240.874C74.6103 240.874 75.2313 240.775 75.8343 240.577L75.4563 238.57ZM80.7935 240.928C83.0165 240.928 84.4115 239.857 84.4115 238.183C84.4205 236.536 83.3045 235.942 80.9285 235.42C79.5695 235.123 79.2275 234.862 79.2275 234.349C79.2275 233.881 79.5785 233.548 80.4605 233.548C81.4145 233.548 82.0085 233.989 82.1165 235.051L84.3035 234.853C84.1865 232.954 83.0705 231.721 80.4515 231.721C78.4445 231.721 76.9325 232.693 76.9235 234.484C76.9145 236.122 77.9675 236.815 80.4425 237.328C81.6125 237.562 82.0715 237.733 82.0715 238.3C82.0715 238.822 81.6845 239.101 80.7755 239.101C79.7405 239.101 79.0295 238.714 78.8945 237.607L76.6175 237.814C76.7795 239.992 78.5615 240.928 80.7935 240.928Z" fill="black"/>
<path d="M251.791 237.983C254.86 237.983 256.777 236.399 257.038 233.465L254.5 233.123C254.203 235.202 253.15 235.787 251.737 235.787C249.712 235.787 248.749 234.284 248.749 231.962C248.749 229.64 249.712 228.137 251.737 228.137C253.15 228.137 254.212 228.785 254.5 230.801L257.038 230.459C256.813 227.525 254.86 225.941 251.791 225.941C248.128 225.941 246.04 228.389 246.04 231.962C246.04 235.535 248.128 237.983 251.791 237.983ZM262.625 237.983C265.487 237.983 267.161 236.075 267.161 233.375C267.161 230.684 265.487 228.776 262.625 228.776C259.754 228.776 258.08 230.684 258.08 233.375C258.08 236.075 259.754 237.983 262.625 237.983ZM262.625 235.841C261.311 235.841 260.465 234.896 260.465 233.375C260.465 231.863 261.311 230.927 262.625 230.927C263.93 230.927 264.767 231.863 264.767 233.375C264.767 234.896 263.93 235.841 262.625 235.841ZM273.678 228.776C272.193 228.776 271.248 229.496 270.807 230.702L270.789 228.947H268.647V237.812H271.059V233.546C271.059 231.854 271.842 231.035 272.994 231.035C274.002 231.035 274.443 231.602 274.443 232.817V237.812H276.855V232.142C276.855 230.135 275.919 228.776 273.678 228.776ZM284.289 235.625C283.92 235.751 283.587 235.814 283.173 235.814C282.264 235.814 281.967 235.319 281.967 234.428V230.981H284.478V228.947H281.967V226.184L279.555 226.526V228.947H278.052V230.981H279.555V234.752C279.555 236.768 280.536 237.929 282.714 237.929C283.443 237.929 284.064 237.83 284.667 237.632L284.289 235.625ZM293.955 233.249C293.955 230.522 292.371 228.776 289.77 228.776C287.106 228.776 285.414 230.747 285.414 233.384C285.414 236.075 287.043 237.983 289.842 237.983C291.894 237.983 293.388 237.011 293.793 235.103L291.759 234.788C291.534 235.598 290.913 236.003 289.833 236.003C288.699 236.003 287.997 235.328 287.808 234.041H293.91C293.946 233.735 293.955 233.492 293.955 233.249ZM289.77 230.729C290.778 230.729 291.48 231.323 291.579 232.52H287.826C288.033 231.35 288.735 230.729 289.77 230.729ZM300.485 228.776C299 228.776 298.055 229.496 297.614 230.702L297.596 228.947H295.454V237.812H297.866V233.546C297.866 231.854 298.649 231.035 299.801 231.035C300.809 231.035 301.25 231.602 301.25 232.817V237.812H303.662V232.142C303.662 230.135 302.726 228.776 300.485 228.776ZM311.095 235.625C310.726 235.751 310.393 235.814 309.979 235.814C309.07 235.814 308.773 235.319 308.773 234.428V230.981H311.284V228.947H308.773V226.184L306.361 226.526V228.947H304.858V230.981H306.361V234.752C306.361 236.768 307.342 237.929 309.52 237.929C310.249 237.929 310.87 237.83 311.473 237.632L311.095 235.625ZM320.025 237.983C322.23 237.983 323.859 236.993 324.273 234.527L321.978 234.293C321.771 235.355 321.105 235.913 320.052 235.913C318.702 235.913 317.964 234.896 317.964 233.375C317.964 231.863 318.702 230.846 320.052 230.846C321.105 230.846 321.771 231.404 321.978 232.457L324.273 232.232C323.859 229.766 322.23 228.776 320.025 228.776C317.217 228.776 315.543 230.702 315.543 233.375C315.543 236.057 317.217 237.983 320.025 237.983ZM327.883 230.792L327.856 228.947H325.741V237.803H328.135V233.816C328.135 231.791 329.575 231.098 331.141 231.422V228.821C329.503 228.533 328.378 229.379 327.883 230.792ZM340.308 233.249C340.308 230.522 338.724 228.776 336.123 228.776C333.459 228.776 331.767 230.747 331.767 233.384C331.767 236.075 333.396 237.983 336.195 237.983C338.247 237.983 339.741 237.011 340.146 235.103L338.112 234.788C337.887 235.598 337.266 236.003 336.186 236.003C335.052 236.003 334.35 235.328 334.161 234.041H340.263C340.299 233.735 340.308 233.492 340.308 233.249ZM336.123 230.729C337.131 230.729 337.833 231.323 337.932 232.52H334.179C334.386 231.35 335.088 230.729 336.123 230.729ZM350.157 235.832C349.689 235.832 349.572 235.607 349.572 235.166V232.475C349.572 230.783 349.086 228.776 345.63 228.776C343.407 228.776 341.868 229.838 341.724 231.845L344.037 232.115C344.145 231.179 344.658 230.738 345.639 230.738C346.854 230.738 347.214 231.458 347.214 232.448V232.799C346.701 232.718 346.161 232.673 345.576 232.673C343.137 232.673 341.427 233.366 341.427 235.238C341.427 236.822 342.516 237.974 344.451 237.974C345.918 237.974 346.989 237.434 347.475 236.471C347.61 237.506 348.114 237.884 349.437 237.884C349.887 237.884 350.247 237.857 350.643 237.758V235.796C350.472 235.823 350.31 235.832 350.157 235.832ZM345.27 236.138C344.469 236.138 344.028 235.805 344.028 235.148C344.028 234.482 344.622 234.167 345.909 234.167C346.368 234.167 346.782 234.203 347.214 234.284V235.247C346.827 235.805 346.107 236.138 345.27 236.138ZM357.115 235.625C356.746 235.751 356.413 235.814 355.999 235.814C355.09 235.814 354.793 235.319 354.793 234.428V230.981H357.304V228.947H354.793V226.184L352.381 226.526V228.947H350.878V230.981H352.381V234.752C352.381 236.768 353.362 237.929 355.54 237.929C356.269 237.929 356.89 237.83 357.493 237.632L357.115 235.625ZM362.785 237.983C365.647 237.983 367.321 236.075 367.321 233.375C367.321 230.684 365.647 228.776 362.785 228.776C359.914 228.776 358.24 230.684 358.24 233.375C358.24 236.075 359.914 237.983 362.785 237.983ZM362.785 235.841C361.471 235.841 360.625 234.896 360.625 233.375C360.625 231.863 361.471 230.927 362.785 230.927C364.09 230.927 364.927 231.863 364.927 233.375C364.927 234.896 364.09 235.841 362.785 235.841ZM370.95 230.792L370.923 228.947H368.808V237.803H371.202V233.816C371.202 231.791 372.642 231.098 374.208 231.422V228.821C372.57 228.533 371.445 229.379 370.95 230.792Z" fill="black"/>
<path d="M249.114 257.942C250.993 257.942 252.208 256.544 252.208 254.692C252.208 252.839 250.993 251.448 249.114 251.448C247.236 251.448 246.014 252.839 246.014 254.692C246.014 256.544 247.236 257.942 249.114 257.942ZM249.114 257.181C247.756 257.181 246.878 256.122 246.878 254.692C246.878 253.262 247.756 252.209 249.114 252.209C250.466 252.209 251.344 253.262 251.344 254.692C251.344 256.122 250.466 257.181 249.114 257.181ZM256.832 251.448C255.746 251.448 254.947 252.014 254.583 252.885L254.602 251.578H253.77V257.812H254.622V254.542C254.622 253.093 255.506 252.241 256.676 252.241C257.742 252.241 258.255 252.839 258.255 254.165V257.812H259.107V254.042C259.107 252.339 258.353 251.448 256.832 251.448ZM261.083 257.812H261.934V248.738H261.083V257.812ZM264.476 250.213C264.86 250.213 265.165 249.914 265.165 249.55C265.165 249.186 264.86 248.907 264.476 248.907C264.125 248.907 263.82 249.186 263.82 249.55C263.82 249.914 264.125 250.213 264.476 250.213ZM264.067 257.812H264.918V251.578H264.067V257.812ZM270.124 251.448C269.038 251.448 268.239 252.014 267.875 252.885L267.894 251.578H267.062V257.812H267.914V254.542C267.914 253.093 268.798 252.241 269.968 252.241C271.034 252.241 271.547 252.839 271.547 254.165V257.812H272.399V254.042C272.399 252.339 271.645 251.448 270.124 251.448ZM279.51 254.568C279.51 252.703 278.489 251.448 276.734 251.448C274.973 251.448 273.842 252.872 273.842 254.679C273.842 256.525 275.018 257.942 276.832 257.942C278.093 257.942 279.029 257.357 279.393 256.245L278.723 256.011C278.424 256.752 277.839 257.201 276.832 257.201C275.584 257.201 274.797 256.271 274.7 254.939H279.503C279.51 254.809 279.51 254.685 279.51 254.568ZM276.734 252.176C277.891 252.176 278.567 252.937 278.658 254.237H274.719C274.849 253.021 275.571 252.176 276.734 252.176Z" fill="#919191"/>
<path d="M171.834 216.143L171.325 550.425" stroke="#9A9A9A"/>
<circle cx="50.7392" cy="281.269" r="16.7904" fill="#C4C4C4"/>
<circle cx="214.064" cy="247.179" r="18.3168" fill="#C4C4C4"/>
<rect x="80.7585" y="268.549" width="40.7041" height="4.07041" rx="2" fill="#C4C4C4"/>
<rect x="80.7585" y="280.76" width="74.2849" height="3.05281" rx="1.5264" fill="#C4C4C4"/>
<circle cx="50.7392" cy="338.254" r="16.7904" fill="#C4C4C4"/>
<rect x="80.7585" y="325.535" width="40.7041" height="4.07041" rx="2" fill="#C4C4C4"/>
<rect x="80.7585" y="337.746" width="74.2849" height="3.05281" rx="1.5264" fill="#C4C4C4"/>
<circle cx="50.7392" cy="391.17" r="16.7904" fill="#C4C4C4"/>
<rect x="80.7585" y="378.45" width="40.7041" height="4.07041" rx="2" fill="#C4C4C4"/>
<rect x="80.7585" y="390.661" width="74.2849" height="3.05281" rx="1.5264" fill="#C4C4C4"/>
<path d="M8 361.659H171.325" stroke="#9A9A9A"/>
<path d="M8 417.119H171.325" stroke="#9A9A9A"/>
<path d="M8 308.235H171.325" stroke="#9A9A9A"/>
<path d="M171.834 284.322H468.974" stroke="#9A9A9A"/>
<circle cx="221.696" cy="359.624" r="12.72" fill="#C4C4C4"/>
<path d="M433.556 502.597C442.136 502.597 449.13 497.078 449.13 490.281V447.646H298.836C290.256 447.646 283.261 453.177 283.261 459.963V490.281C283.261 497.066 290.24 502.597 298.836 502.597H433.556Z" fill="#D1D2D2"/>
<path d="M171.325 514.3H469.483" stroke="#9A9A9A"/>
<rect x="245.61" y="524.984" width="167.904" height="20.352" rx="4" fill="#E6E6E6"/>
<g clip-path="url(#clip0)">
<path fill-rule="evenodd" clip-rule="evenodd" d="M410.461 524.984H428.76C431.58 524.984 433.866 527.263 433.866 530.072V540.248C433.866 543.058 431.58 545.336 428.76 545.336H410.461V524.984Z" fill="#5375FF"/>
<path d="M426.847 530.282C426.67 530.106 426.419 530.035 426.176 530.091L426.172 530.092L418.152 532.048C417.382 532.236 416.844 532.918 416.844 533.708V534.763C416.844 535.147 417.15 535.461 417.532 535.477L420.549 535.989C420.613 536 420.677 535.979 420.723 535.934L424.279 532.392C424.403 532.267 424.605 532.267 424.73 532.392C424.854 532.516 424.854 532.717 424.73 532.841L421.174 536.384C421.129 536.429 421.108 536.494 421.119 536.557L421.633 539.564C421.649 539.944 421.965 540.248 422.35 540.248H423.408C424.201 540.248 424.886 539.712 425.075 538.945L427.038 530.954L427.038 530.951C427.095 530.708 427.023 530.458 426.847 530.282Z" fill="#FBFBFB"/>
</g>
<path d="M253.123 539.037H254.069V532.696H256.159V531.887H251.033V532.696H253.123V539.037ZM260.2 533.73L259.116 536.925C258.957 537.409 258.808 537.871 258.665 538.333C258.506 537.871 258.346 537.398 258.187 536.925L257.103 533.73H256.091L258.055 539.048H258.308L258.192 539.384C257.884 540.247 257.257 540.467 256.284 540.324L256.168 541.144C257.549 541.353 258.583 540.913 259.089 539.466L261.212 533.73H260.2ZM265.064 533.625C264.151 533.625 263.508 533.999 263.161 534.709L263.15 533.73H262.298V541.182H263.194V538.08C263.552 538.762 264.173 539.147 265.064 539.147C266.604 539.147 267.473 538.009 267.473 536.375C267.473 534.753 266.604 533.625 265.064 533.625ZM264.91 538.35C263.832 538.35 263.161 537.503 263.161 536.375C263.161 535.253 263.832 534.428 264.91 534.428C266.005 534.428 266.555 535.231 266.555 536.375C266.555 537.525 266.005 538.35 264.91 538.35ZM273.305 536.282C273.305 534.687 272.419 533.62 270.912 533.62C269.389 533.62 268.415 534.824 268.415 536.375C268.415 537.959 269.405 539.147 270.995 539.147C272.1 539.147 272.914 538.636 273.206 537.64L272.485 537.437C272.254 538.031 271.792 538.383 270.989 538.383C270.021 538.383 269.416 537.701 269.317 536.661H273.294C273.305 536.529 273.305 536.403 273.305 536.282ZM270.907 534.368C271.803 534.368 272.337 534.945 272.414 535.952H269.323C269.444 535 270.016 534.368 270.907 534.368ZM279.511 533.62C278.669 533.62 278.048 534.01 277.718 534.643V531.359H276.821V539.037H277.718V536.309C277.718 535.121 278.4 534.456 279.324 534.456C280.16 534.456 280.556 534.923 280.556 535.957V539.037H281.452V535.781C281.452 534.39 280.825 533.62 279.511 533.62ZM287.485 536.282C287.485 534.687 286.599 533.62 285.092 533.62C283.569 533.62 282.595 534.824 282.595 536.375C282.595 537.959 283.585 539.147 285.175 539.147C286.28 539.147 287.094 538.636 287.386 537.64L286.665 537.437C286.434 538.031 285.972 538.383 285.169 538.383C284.201 538.383 283.596 537.701 283.497 536.661H287.474C287.485 536.529 287.485 536.403 287.485 536.282ZM285.087 534.368C285.983 534.368 286.517 534.945 286.594 535.952H283.503C283.624 535 284.196 534.368 285.087 534.368ZM289.57 534.802L289.576 533.73H288.734V539.037H289.603V536.348C289.603 534.989 290.643 534.362 291.66 534.604L291.682 533.664C290.72 533.455 289.922 533.9 289.57 534.802ZM297.067 536.282C297.067 534.687 296.181 533.62 294.674 533.62C293.151 533.62 292.177 534.824 292.177 536.375C292.177 537.959 293.167 539.147 294.757 539.147C295.862 539.147 296.676 538.636 296.968 537.64L296.247 537.437C296.016 538.031 295.554 538.383 294.751 538.383C293.783 538.383 293.178 537.701 293.079 536.661H297.056C297.067 536.529 297.067 536.403 297.067 536.282ZM294.669 534.368C295.565 534.368 296.099 534.945 296.176 535.952H293.085C293.206 535 293.778 534.368 294.669 534.368ZM298.916 539.147C299.295 539.147 299.614 538.834 299.614 538.449C299.614 538.069 299.295 537.756 298.916 537.756C298.531 537.756 298.206 538.069 298.206 538.449C298.206 538.834 298.531 539.147 298.916 539.147ZM301.773 539.147C302.153 539.147 302.472 538.834 302.472 538.449C302.472 538.069 302.153 537.756 301.773 537.756C301.388 537.756 301.064 538.069 301.064 538.449C301.064 538.834 301.388 539.147 301.773 539.147ZM304.631 539.147C305.01 539.147 305.329 538.834 305.329 538.449C305.329 538.069 305.01 537.756 304.631 537.756C304.246 537.756 303.921 538.069 303.921 538.449C303.921 538.834 304.246 539.147 304.631 539.147Z" fill="#858383"/>
<rect x="291.402" y="479.192" width="136.359" height="3.05281" rx="1.5264" fill="#F8F8F8"/>
<rect x="291.402" y="471.052" width="136.359" height="3.05281" rx="1.5264" fill="#F8F8F8"/>
<path d="M261.185 426.278C252.604 426.278 245.61 420.759 245.61 413.962V371.327H395.904C404.485 371.327 411.479 376.858 411.479 383.643V413.962C411.479 420.747 404.5 426.278 395.904 426.278H261.185Z" fill="#5375FF"/>
<rect x="255.786" y="399.819" width="136.359" height="3.05281" rx="1.5264" fill="#DEEFFF"/>
<rect x="255.786" y="391.679" width="136.359" height="3.05281" rx="1.5264" fill="#DEEFFF"/>
<circle cx="259" cy="72" r="62" fill="#5375FF"/>
<g filter="url(#filter1_d)">
<circle cx="246" cy="62" r="62" fill="white"/>
</g>
<g clip-path="url(#clip1)">
<path d="M81.3 109C80.5 109 79.7 109.3 79.2 109.9C78.6 110.5 78.3 111.2 78.3 112C78.3 112.8 78 113.5 77.4 114.1C76.8 114.7 76 115 75.2 115C74.4 115 73.6 114.7 73.1 114.1C72.5 113.5 72.2 112.8 72.2 112C72.2 110.8 72 109.6 71.5 108.6C71 107.5 70.4 106.5 69.5 105.7C68.7 104.9 67.7 104.2 66.5 103.7C65.5 103.2 64.3 103 63.1 103C61.9 103 60.7 103.2 59.6 103.7C58.5 104.2 57.5 104.8 56.6 105.7C55.8 106.5 55.1 107.5 54.6 108.6C54.2 109.6 54 110.8 54 112C54 112.8 54.3 113.6 54.9 114.1C55.5 114.7 56.2 115 57 115C57.8 115 58.6 114.7 59.1 114.1C59.8 113.6 60.1 112.8 60.1 112C60.1 111.2 60.4 110.5 61 109.9C61.6 109.3 62.3 109 63.1 109C63.9 109 64.7 109.3 65.2 109.9C65.8 110.5 66.1 111.2 66.1 112C66.1 114.4 67.1 116.7 68.8 118.4C70.5 120.1 72.8 121 75.2 121C77.6 121 79.9 120.1 81.6 118.4C83.3 116.7 84.3 114.4 84.3 112C84.3 111.2 84 110.4 83.4 109.9C82.9 109.3 82.1 109 81.3 109Z" fill="#5977F7"/>
</g>
<circle cx="410.5" cy="102.5" r="13.5" fill="#EBEDF2"/>
<g clip-path="url(#clip2)">
<path d="M272.125 77.5875H249.116C248.07 77.5875 247.242 76.7344 247.242 75.7106V56.0644C247.242 55.0163 248.094 54.1875 249.116 54.1875H272.125C273.172 54.1875 274 55.0406 274 56.0644V75.6863C274 76.7344 273.148 77.5875 272.125 77.5875Z" fill="#5375FF"/>
<path d="M248.07 51.9941H270.177C271.444 51.9941 272.491 53.1398 272.491 54.5535V72.981C272.491 74.3948 271.444 75.5404 270.177 75.5404H248.07C246.804 75.5404 245.757 74.3948 245.757 72.981V54.5535C245.757 53.1398 246.804 51.9941 248.07 51.9941Z" stroke="black" stroke-width="2" stroke-miterlimit="10"/>
<path d="M266.623 75.5889L268.108 75.6132L269.593 75.6376C270.202 75.6376 270.591 76.3932 270.275 76.9782L269.52 78.392L268.765 79.8057C268.449 80.3907 267.67 80.3907 267.378 79.7814L266.647 78.3432L265.917 76.9051C265.625 76.3201 266.014 75.5889 266.623 75.5889Z" stroke="black" stroke-width="2" stroke-miterlimit="10"/>
<path d="M252.404 71.4938H222.553C221.384 71.4938 220.435 70.5431 220.435 69.3731V46.5581C220.435 45.3881 221.384 44.4375 222.553 44.4375H252.379C253.548 44.4375 254.497 45.3881 254.497 46.5581V69.3488C254.522 70.5431 253.572 71.4938 252.404 71.4938Z" fill="#5375FF"/>
<path d="M249.652 42.7314H221.652C220.045 42.7314 218.73 44.0477 218.73 45.6564V66.6189C218.73 68.2277 220.045 69.5439 221.652 69.5439H249.652C251.259 69.5439 252.574 68.2277 252.574 66.6189V45.6564C252.574 44.0477 251.259 42.7314 249.652 42.7314Z" stroke="black" stroke-width="2" stroke-miterlimit="10"/>
<path d="M226.132 69.5928L224.257 69.6171L222.383 69.6415C221.603 69.6415 221.116 70.4946 221.506 71.1771L222.456 72.7859L223.405 74.3946C223.795 75.0771 224.793 75.0528 225.158 74.3703L226.083 72.7371L227.009 71.104C227.423 70.4215 226.911 69.5928 226.132 69.5928Z" stroke="black" stroke-width="2" stroke-miterlimit="10"/>
<path d="M221.896 50.5312H248.191" stroke="black" stroke-width="2" stroke-miterlimit="10" stroke-linecap="round"/>
<path d="M221.409 55.4062H239.426" stroke="black" stroke-width="2" stroke-miterlimit="10" stroke-linecap="round"/>
<path d="M221.409 60.5254H233.096" stroke="black" stroke-width="2" stroke-miterlimit="10" stroke-linecap="round"/>
</g>
<defs>
<filter id="filter0_d" x="0" y="65" width="480" height="526" filterUnits="userSpaceOnUse" color-interpolation-filters="sRGB">
<feFlood flood-opacity="0" result="BackgroundImageFix"/>
<feColorMatrix in="SourceAlpha" type="matrix" values="0 0 0 0 0 0 0 0 0 0 0 0 0 0 0 0 0 0 127 0"/>
<feOffset dy="8"/>
<feGaussianBlur stdDeviation="5"/>
<feColorMatrix type="matrix" values="0 0 0 0 0 0 0 0 0 0 0 0 0 0 0 0 0 0 0.25 0"/>
<feBlend mode="normal" in2="BackgroundImageFix" result="effect1_dropShadow"/>
<feBlend mode="normal" in="SourceGraphic" in2="effect1_dropShadow" result="shape"/>
</filter>
<filter id="filter1_d" x="180" y="0" width="132" height="132" filterUnits="userSpaceOnUse" color-interpolation-filters="sRGB">
<feFlood flood-opacity="0" result="BackgroundImageFix"/>
<feColorMatrix in="SourceAlpha" type="matrix" values="0 0 0 0 0 0 0 0 0 0 0 0 0 0 0 0 0 0 127 0"/>
<feOffset dy="4"/>
<feGaussianBlur stdDeviation="2"/>
<feColorMatrix type="matrix" values="0 0 0 0 0 0 0 0 0 0 0 0 0 0 0 0 0 0 0.25 0"/>
<feBlend mode="normal" in2="BackgroundImageFix" result="effect1_dropShadow"/>
<feBlend mode="normal" in="SourceGraphic" in2="effect1_dropShadow" result="shape"/>
</filter>
<clipPath id="clip0">
<rect width="23.4048" height="20.352" fill="white" transform="translate(410.461 524.984)"/>
</clipPath>
<clipPath id="clip1">
<rect width="30.3" height="18" fill="white" transform="translate(54 103)"/>
</clipPath>
<clipPath id="clip2">
<rect width="56" height="39" fill="white" transform="translate(218 42)"/>
</clipPath>
</defs>
</svg>
