<svg width="480" height="560" viewBox="0 0 480 560" fill="none" xmlns="http://www.w3.org/2000/svg">
<g filter="url(#filter0_d)">
<rect x="10" y="67" width="460" height="475" rx="48" fill="white"/>
</g>
<path d="M47.5 169.333C46.121 169.333 45 170.455 45 171.833C45 173.212 46.121 174.333 47.5 174.333C48.879 174.333 50 173.211 50 171.833C50 170.454 48.878 169.333 47.5 169.333ZM47.5 173.146C46.776 173.146 46.187 172.557 46.187 171.833C46.187 171.109 46.776 170.52 47.5 170.52C48.224 170.52 48.813 171.109 48.813 171.833C48.813 172.557 48.224 173.146 47.5 173.146ZM52.494 179.489C52.324 178.299 51.729 177.206 50.819 176.411C49.901 175.608 48.722 175.166 47.5 175.166C46.278 175.166 45.1 175.608 44.18 176.411C43.271 177.206 42.676 178.299 42.506 179.489C42.482 179.659 42.532 179.832 42.646 179.962C42.758 180.092 42.922 180.166 43.094 180.166H51.906C52.078 180.166 52.242 180.092 52.355 179.962C52.468 179.832 52.518 179.659 52.494 179.489ZM43.844 178.979C44.361 177.443 45.828 176.353 47.5 176.353C49.17 176.353 50.638 177.443 51.157 178.98H43.843L43.844 178.979ZM47.24 166C46.923 166 46.667 166.256 46.667 166.572C46.667 166.889 46.923 167.145 47.239 167.145C49.968 167.145 52.188 169.365 52.188 172.094C52.188 172.41 52.444 172.666 52.761 172.666C53.077 172.666 53.333 172.41 53.333 172.094C53.333 168.734 50.6 166 47.239 166H47.24Z" fill="#0C111C"/>
<path d="M54.502 164.83C52.57 162.898 50 161.833 47.266 161.833C46.936 161.833 46.666 162.101 46.666 162.433C46.666 162.763 46.936 163.033 47.266 163.033C52.248 163.033 56.301 167.085 56.301 172.067C56.301 172.397 56.569 172.667 56.901 172.667C57.231 172.667 57.5 172.397 57.5 172.067C57.5 169.333 56.435 166.763 54.502 164.83Z" fill="#0C111C"/>
<g clip-path="url(#clip0)">
<path d="M57.099 227.478C57.403 224.155 54.759 221.667 51.724 221.667C50.355 221.667 49.054 222.167 48.061 223.057C47.069 222.167 45.767 221.667 44.399 221.667C40.155 221.667 37.039 226.352 40.459 231.017C41.211 232.043 42.253 233.037 43.554 233.972C45.741 235.542 47.898 236.402 47.989 236.437C48.148 236.5 48.313 236.497 48.486 236.424C50.116 237.589 51.721 238.236 51.856 238.289C52.006 238.348 52.175 238.349 52.329 238.286C52.396 238.259 53.992 237.598 55.609 236.393C56.574 235.673 57.347 234.907 57.906 234.115C59.713 231.555 59.169 228.818 57.099 227.478ZM44.399 222.901C45.632 222.901 46.794 223.426 47.586 224.342C47.836 224.631 48.287 224.631 48.536 224.342C49.329 223.427 50.49 222.902 51.724 222.902C53.999 222.902 55.886 224.692 55.874 226.935C54.551 226.582 53.074 226.863 51.968 227.794C51.201 227.148 50.218 226.788 49.188 226.788C45.888 226.788 43.395 230.442 46.058 234.103C37.002 228.924 40.22 222.901 44.4 222.901H44.399ZM52.084 237.041C49.558 235.927 46.186 233.669 46.186 230.921C46.186 229.322 47.532 228.022 49.188 228.022C50.08 228.022 50.92 228.402 51.493 229.064C51.743 229.353 52.194 229.353 52.443 229.064C53.016 228.402 53.856 228.022 54.749 228.022C56.404 228.022 57.75 229.322 57.75 230.92C57.75 234.24 53.182 236.538 52.084 237.042V237.041Z" fill="#0C111C"/>
</g>
<path d="M55.806 298.253V291.41C55.806 290.357 54.938 289.5 53.871 289.5H41.935C40.868 289.5 40 290.357 40 291.41V298.253C40 299.306 40.868 300.163 41.935 300.163H43.673L43.71 301.887C43.72 302.405 44.324 302.694 44.743 302.382L47.726 300.163H53.871C54.938 300.163 55.806 299.306 55.806 298.253ZM47.51 298.89C47.37 298.89 47.234 298.935 47.122 299.018L44.973 300.617L44.949 299.513C44.942 299.167 44.655 298.89 44.304 298.89H41.935C41.58 298.89 41.29 298.604 41.29 298.253V291.41C41.29 291.059 41.58 290.773 41.935 290.773H53.871C54.227 290.773 54.516 291.059 54.516 291.41V298.253C54.516 298.604 54.226 298.89 53.871 298.89H47.511H47.51ZM60 295.389V300.64C60 301.694 59.132 302.55 58.065 302.55H56.325L56.29 303.88C56.281 304.225 55.994 304.5 55.645 304.5C55.388 304.5 55.531 304.544 52.305 302.55H49.355C48.999 302.55 48.71 302.265 48.71 301.914C48.71 301.562 48.999 301.277 49.355 301.277C52.777 301.277 52.617 301.241 52.832 301.374L55.029 302.731L55.051 301.897C55.06 301.552 55.346 301.277 55.696 301.277H58.065C58.42 301.277 58.71 300.991 58.71 300.64V295.388C58.71 295.038 58.42 294.752 58.065 294.752C57.708 294.752 57.419 294.467 57.419 294.115C57.419 293.764 57.709 293.479 58.065 293.479C59.132 293.479 60 294.335 60 295.389ZM51.935 293.678C51.935 294.029 51.647 294.314 51.29 294.314H44.516C44.16 294.314 43.871 294.029 43.871 293.678C43.871 293.326 44.16 293.041 44.516 293.041H51.29C51.647 293.041 51.935 293.326 51.935 293.678ZM50.766 296.463C50.766 296.814 50.477 297.099 50.121 297.099H45.685C45.329 297.099 45.04 296.814 45.04 296.463C45.04 296.111 45.33 295.826 45.685 295.826H50.121C50.477 295.826 50.766 296.111 50.766 296.463Z" fill="#0C111C"/>
<g filter="url(#filter1_d)">
<rect x="216" y="498" width="76" height="25" rx="2" fill="#5375FF"/>
</g>
<path d="M245.319 515.133C247.251 515.133 248.385 514.139 248.392 512.557C248.392 510.821 247.006 510.373 245.466 509.925C244.038 509.519 243.212 509.211 243.212 508.21C243.212 507.335 243.849 506.761 245.06 506.761C246.53 506.761 247.181 507.594 247.286 508.91L248.315 508.7C248.252 506.719 247.034 505.767 245.088 505.767C243.31 505.767 242.015 506.649 242.015 508.294C242.015 509.953 243.303 510.499 244.934 510.94C246.369 511.339 247.209 511.605 247.209 512.627C247.209 513.684 246.481 514.132 245.34 514.132C243.639 514.132 242.813 513.32 242.827 511.822L241.735 511.976C241.714 514.216 243.31 515.133 245.319 515.133ZM256.16 514.111C255.705 514.111 255.6 513.831 255.6 513.439V510.87C255.6 509.911 255.411 508.105 252.849 508.105C251.358 508.105 250.385 508.791 250.063 510.114L251.106 510.373C251.344 509.498 251.841 509.064 252.856 509.064C254.109 509.064 254.494 509.827 254.494 510.863V511.276C254.004 511.213 253.5 511.178 253.045 511.178C251.239 511.178 249.874 511.675 249.874 513.138C249.874 514.377 250.805 515.133 252.198 515.133C253.29 515.133 254.144 514.664 254.585 513.95C254.662 514.685 254.998 515.063 255.894 515.063C256.111 515.063 256.307 515.042 256.531 514.993V514.083C256.398 514.104 256.279 514.111 256.16 514.111ZM252.394 514.181C251.645 514.181 251.106 513.873 251.106 513.11C251.106 512.34 251.813 512.046 253.108 512.046C253.549 512.046 254.004 512.074 254.494 512.13V513.11C254.067 513.782 253.276 514.181 252.394 514.181ZM262.149 508.245L260.756 512.466C260.56 513.033 260.392 513.579 260.21 514.153C260.028 513.593 259.846 513.026 259.657 512.466L258.264 508.245H256.997L259.391 515H261.022L263.416 508.245H262.149ZM270.319 511.493C270.319 509.463 269.192 508.105 267.274 508.105C265.335 508.105 264.096 509.638 264.096 511.612C264.096 513.628 265.356 515.14 267.379 515.14C268.786 515.14 269.822 514.489 270.193 513.222L269.276 512.963C268.982 513.719 268.394 514.167 267.372 514.167C266.14 514.167 265.37 513.299 265.244 511.976H270.305C270.319 511.808 270.319 511.647 270.319 511.493ZM267.267 509.057C268.408 509.057 269.087 509.792 269.185 511.073H265.251C265.405 509.862 266.133 509.057 267.267 509.057Z" fill="white"/>
<circle cx="266" cy="72" r="62" fill="#5375FF"/>
<g filter="url(#filter2_d)">
<circle cx="253" cy="62" r="62" fill="white"/>
</g>
<path d="M288.795 88.9999H227.381C223.957 88.9999 221.177 86.2005 221.177 82.7536V54.4011C221.177 50.9542 223.957 48.1548 227.381 48.1548H288.805C292.229 48.1548 295.009 50.9542 295.009 54.4011V82.7635C294.999 86.2104 292.219 88.9999 288.795 88.9999Z" fill="#5375FF"/>
<path d="M286.915 87.306H225.502C222.078 87.306 219.297 84.5166 219.297 81.0697V52.7072C219.297 49.2603 222.078 46.4609 225.502 46.4609H286.925C290.349 46.4609 293.13 49.2603 293.13 52.7072V81.0697C293.12 84.5166 290.339 87.306 286.915 87.306Z" stroke="black" stroke-width="2" stroke-miterlimit="10"/>
<path d="M263.433 46.4619C263.433 46.442 263.433 46.432 263.433 46.4121C263.433 42.3674 260.177 39.0898 256.159 39.0898C252.141 39.0898 248.886 42.3674 248.886 46.4121C248.886 46.432 248.886 46.442 248.886 46.4619H263.433Z" fill="white" stroke="black" stroke-width="2" stroke-miterlimit="10"/>
<path d="M260.869 40.8327L270.339 31.2988" stroke="black" stroke-width="2" stroke-miterlimit="10" stroke-linecap="round"/>
<path d="M251.448 40.8327L241.978 31.2988" stroke="black" stroke-width="2" stroke-miterlimit="10" stroke-linecap="round"/>
<path d="M273.14 80.8408H229.084C226.63 80.8408 224.641 78.8384 224.641 76.3678V56.1146C224.641 53.644 226.63 51.6416 229.084 51.6416H273.14C275.594 51.6416 277.583 53.644 277.583 56.1146V76.3678C277.583 78.8384 275.594 80.8408 273.14 80.8408Z" stroke="black" stroke-width="2" stroke-miterlimit="10"/>
<path d="M285.698 60.5579C287.31 60.5579 288.617 59.2421 288.617 57.619C288.617 55.9959 287.31 54.6802 285.698 54.6802C284.085 54.6802 282.778 55.9959 282.778 57.619C282.778 59.2421 284.085 60.5579 285.698 60.5579Z" stroke="black" stroke-miterlimit="10"/>
<g clip-path="url(#clip1)">
<path d="M88.3 109C87.5 109 86.7 109.3 86.2 109.9C85.6 110.5 85.3 111.2 85.3 112C85.3 112.8 85 113.5 84.4 114.1C83.8 114.7 83 115 82.2 115C81.4 115 80.6 114.7 80.1 114.1C79.5 113.5 79.2 112.8 79.2 112C79.2 110.8 79 109.6 78.5 108.6C78 107.5 77.4 106.5 76.5 105.7C75.7 104.9 74.7 104.2 73.5 103.7C72.5 103.2 71.3 103 70.1 103C68.9 103 67.7 103.2 66.6 103.7C65.5 104.2 64.5 104.8 63.6 105.7C62.8 106.5 62.1 107.5 61.6 108.6C61.2 109.6 61 110.8 61 112C61 112.8 61.3 113.6 61.9 114.1C62.5 114.7 63.2 115 64 115C64.8 115 65.6 114.7 66.1 114.1C66.8 113.6 67.1 112.8 67.1 112C67.1 111.2 67.4 110.5 68 109.9C68.6 109.3 69.3 109 70.1 109C70.9 109 71.7 109.3 72.2 109.9C72.8 110.5 73.1 111.2 73.1 112C73.1 114.4 74.1 116.7 75.8 118.4C77.5 120.1 79.8 121 82.2 121C84.6 121 86.9 120.1 88.6 118.4C90.3 116.7 91.3 114.4 91.3 112C91.3 111.2 91 110.4 90.4 109.9C89.9 109.3 89.1 109 88.3 109Z" fill="#5977F7"/>
</g>
<circle cx="417.5" cy="102.5" r="13.5" fill="#EBEDF2"/>
<path d="M261.585 310.15L260.131 314.056C260.001 314.42 259.897 314.726 259.798 315.059C259.69 314.717 259.573 314.375 259.461 314.056L258.003 310.15H256.815V316H257.548V312.076C257.548 311.689 257.544 311.329 257.544 310.942C257.665 311.342 257.791 311.72 257.949 312.125L259.443 316H260.145L261.639 312.125C261.792 311.729 261.922 311.356 262.044 310.946C262.044 311.347 262.039 311.698 262.039 312.076V316H262.773V310.15H261.585ZM267.149 311.657L266.262 314.272C266.132 314.668 266.01 315.046 265.893 315.424C265.763 315.046 265.632 314.659 265.502 314.272L264.615 311.657H263.787L265.394 316.009H265.601L265.506 316.284C265.254 316.99 264.741 317.17 263.945 317.053L263.85 317.724C264.98 317.895 265.826 317.535 266.24 316.351L267.977 311.657H267.149ZM274.347 313.745C274.347 312.44 273.623 311.567 272.39 311.567C271.143 311.567 270.347 312.553 270.347 313.822C270.347 315.118 271.157 316.09 272.457 316.09C273.362 316.09 274.028 315.671 274.266 314.857L273.677 314.69C273.488 315.176 273.11 315.464 272.453 315.464C271.661 315.464 271.166 314.906 271.085 314.056H274.338C274.347 313.948 274.347 313.844 274.347 313.745ZM272.385 312.179C273.119 312.179 273.555 312.652 273.618 313.475H271.089C271.188 312.697 271.656 312.179 272.385 312.179ZM278.2 311.657L277.305 314.371C277.179 314.735 277.071 315.086 276.954 315.455C276.837 315.095 276.72 314.731 276.598 314.371L275.703 311.657H274.888L276.427 316H277.476L279.015 311.657H278.2ZM281.63 316.09C282.962 316.09 283.804 315.127 283.804 313.826C283.804 312.53 282.962 311.567 281.63 311.567C280.294 311.567 279.452 312.53 279.452 313.826C279.452 315.127 280.294 316.09 281.63 316.09ZM281.63 315.438C280.753 315.438 280.186 314.762 280.186 313.826C280.186 312.89 280.753 312.22 281.63 312.22C282.499 312.22 283.07 312.89 283.07 313.826C283.07 314.762 282.499 315.438 281.63 315.438ZM284.783 316H285.516V309.718H284.783V316ZM289.853 311.657V313.885C289.853 314.857 289.295 315.401 288.539 315.401C287.882 315.401 287.554 315.019 287.554 314.173V311.657H286.825V314.317C286.825 315.455 287.333 316.086 288.382 316.086C289.12 316.086 289.642 315.716 289.889 315.127L289.907 316H290.582V311.657H289.853ZM294.421 315.253C294.236 315.361 294.056 315.41 293.818 315.41C293.3 315.41 293.08 315.127 293.08 314.528V312.269H294.515V311.657H293.08V310.258L292.351 310.366V311.657H291.455V312.269H292.351V314.618C292.351 315.604 292.855 316.063 293.714 316.063C294.065 316.063 294.349 315.986 294.614 315.842L294.421 315.253ZM295.879 310.825C296.18 310.825 296.423 310.591 296.423 310.303C296.423 310.015 296.18 309.79 295.879 309.79C295.6 309.79 295.357 310.015 295.357 310.303C295.357 310.591 295.6 310.825 295.879 310.825ZM295.523 316H296.257V311.657H295.523V316ZM299.446 316.09C300.778 316.09 301.619 315.127 301.619 313.826C301.619 312.53 300.778 311.567 299.446 311.567C298.109 311.567 297.268 312.53 297.268 313.826C297.268 315.127 298.109 316.09 299.446 316.09ZM299.446 315.438C298.568 315.438 298.001 314.762 298.001 313.826C298.001 312.89 298.568 312.22 299.446 312.22C300.314 312.22 300.886 312.89 300.886 313.826C300.886 314.762 300.314 315.438 299.446 315.438ZM304.825 311.567C304.092 311.567 303.57 311.932 303.318 312.508L303.322 311.657H302.616V316H303.349V313.768C303.349 312.796 303.907 312.251 304.663 312.251C305.347 312.251 305.671 312.634 305.671 313.48V316H306.405V313.336C306.405 312.197 305.892 311.567 304.825 311.567Z" fill="white"/>
<path d="M124.78 331.9L123.373 337.731C123.198 338.459 123.051 339.166 122.897 339.88C122.736 339.159 122.575 338.466 122.379 337.738L120.902 332.026H119.635L118.151 337.724C117.962 338.438 117.801 339.138 117.633 339.873C117.486 339.159 117.332 338.466 117.157 337.731L115.757 331.9H114.49L116.8 341H118.431L119.915 335.295C120.062 334.735 120.16 334.294 120.265 333.846C120.37 334.315 120.489 334.791 120.615 335.281L122.099 341H123.73L126.04 331.9H124.78ZM131.01 334.105C129.939 334.105 129.148 334.602 128.728 335.407V331.228H127.587V341H128.728V337.528C128.728 336.016 129.596 335.169 130.772 335.169C131.836 335.169 132.34 335.764 132.34 337.08V341H133.481V336.856C133.481 335.085 132.683 334.105 131.01 334.105ZM136.098 332.95C136.567 332.95 136.945 332.586 136.945 332.138C136.945 331.69 136.567 331.34 136.098 331.34C135.664 331.34 135.286 331.69 135.286 332.138C135.286 332.586 135.664 332.95 136.098 332.95ZM135.545 341H136.686V334.245H135.545V341ZM141.555 341.14C143.088 341.14 144.229 340.419 144.558 338.816L143.522 338.641C143.263 339.593 142.647 340.139 141.569 340.139C140.176 340.139 139.406 339.068 139.406 337.619C139.406 336.177 140.176 335.099 141.569 335.099C142.647 335.099 143.263 335.645 143.522 336.597L144.558 336.429C144.229 334.826 143.088 334.105 141.555 334.105C139.511 334.105 138.258 335.617 138.258 337.619C138.258 339.621 139.511 341.14 141.555 341.14ZM149.577 334.105C148.506 334.105 147.715 334.602 147.295 335.407V331.228H146.154V341H147.295V337.528C147.295 336.016 148.163 335.169 149.339 335.169C150.403 335.169 150.907 335.764 150.907 337.08V341H152.048V336.856C152.048 335.085 151.25 334.105 149.577 334.105ZM159.495 341.14C161.119 341.14 162.015 340.363 162.015 339.159C162.015 337.843 161.028 337.514 159.509 337.178C158.431 336.933 157.85 336.737 157.85 336.03C157.85 335.435 158.277 335.015 159.229 335.015C160.195 335.015 160.874 335.484 160.937 336.527L161.938 336.394C161.903 335.008 161 334.105 159.222 334.105C157.731 334.105 156.751 334.854 156.744 336.1C156.744 337.304 157.591 337.773 159.278 338.13C160.272 338.34 160.888 338.494 160.888 339.243C160.888 339.915 160.391 340.23 159.467 340.23C158.403 340.23 157.633 339.831 157.556 338.704L156.513 338.844C156.625 340.44 157.808 341.14 159.495 341.14ZM166.598 341.14C168.67 341.14 169.979 339.642 169.979 337.619C169.979 335.603 168.67 334.105 166.598 334.105C164.519 334.105 163.21 335.603 163.21 337.619C163.21 339.642 164.519 341.14 166.598 341.14ZM166.598 340.125C165.233 340.125 164.351 339.075 164.351 337.619C164.351 336.163 165.233 335.12 166.598 335.12C167.949 335.12 168.838 336.163 168.838 337.619C168.838 339.075 167.949 340.125 166.598 340.125ZM174.477 341.14C176.01 341.14 177.151 340.419 177.48 338.816L176.444 338.641C176.185 339.593 175.569 340.139 174.491 340.139C173.098 340.139 172.328 339.068 172.328 337.619C172.328 336.177 173.098 335.099 174.491 335.099C175.569 335.099 176.185 335.645 176.444 336.597L177.48 336.429C177.151 334.826 176.01 334.105 174.477 334.105C172.433 334.105 171.18 335.617 171.18 337.619C171.18 339.621 172.433 341.14 174.477 341.14ZM179.684 332.95C180.153 332.95 180.531 332.586 180.531 332.138C180.531 331.69 180.153 331.34 179.684 331.34C179.25 331.34 178.872 331.69 178.872 332.138C178.872 332.586 179.25 332.95 179.684 332.95ZM179.131 341H180.272V334.245H179.131V341ZM188.291 340.111C187.836 340.111 187.731 339.831 187.731 339.439V336.87C187.731 335.911 187.542 334.105 184.98 334.105C183.489 334.105 182.516 334.791 182.194 336.114L183.237 336.373C183.475 335.498 183.972 335.064 184.987 335.064C186.24 335.064 186.625 335.827 186.625 336.863V337.276C186.135 337.213 185.631 337.178 185.176 337.178C183.37 337.178 182.005 337.675 182.005 339.138C182.005 340.377 182.936 341.133 184.329 341.133C185.421 341.133 186.275 340.664 186.716 339.95C186.793 340.685 187.129 341.063 188.025 341.063C188.242 341.063 188.438 341.042 188.662 340.993V340.083C188.529 340.104 188.41 340.111 188.291 340.111ZM184.525 340.181C183.776 340.181 183.237 339.873 183.237 339.11C183.237 338.34 183.944 338.046 185.239 338.046C185.68 338.046 186.135 338.074 186.625 338.13V339.11C186.198 339.782 185.407 340.181 184.525 340.181ZM190.082 341H191.223V331.228H190.082V341ZM203.682 334.105C202.562 334.105 201.834 334.623 201.463 335.47C201.183 334.574 200.532 334.105 199.44 334.105C198.362 334.105 197.669 334.581 197.291 335.358L197.298 334.245H196.234V341H197.354V337.486C197.354 335.981 198.026 335.127 199.195 335.127C200.182 335.127 200.525 335.729 200.525 337.017V341H201.638V337.486C201.638 335.981 202.303 335.127 203.472 335.127C204.459 335.127 204.802 335.75 204.802 337.017V341H205.915V336.849C205.915 335.113 205.25 334.105 203.682 334.105ZM213.593 337.493C213.593 335.463 212.466 334.105 210.548 334.105C208.609 334.105 207.37 335.638 207.37 337.612C207.37 339.628 208.63 341.14 210.653 341.14C212.06 341.14 213.096 340.489 213.467 339.222L212.55 338.963C212.256 339.719 211.668 340.167 210.646 340.167C209.414 340.167 208.644 339.299 208.518 337.976H213.579C213.593 337.808 213.593 337.647 213.593 337.493ZM210.541 335.057C211.682 335.057 212.361 335.792 212.459 337.073H208.525C208.679 335.862 209.407 335.057 210.541 335.057ZM220.308 331.228V335.386C219.874 334.546 219.104 334.105 217.984 334.105C216.017 334.105 214.862 335.547 214.862 337.612C214.862 339.691 216.017 341.14 217.984 341.14C219.146 341.14 219.916 340.622 220.35 339.719L220.364 341H221.449V331.228H220.308ZM218.124 340.125C216.731 340.125 216.031 339.075 216.031 337.612C216.031 336.149 216.731 335.127 218.124 335.127C219.496 335.127 220.35 336.177 220.35 337.612C220.35 339.047 219.496 340.125 218.124 340.125ZM224.159 332.95C224.628 332.95 225.006 332.586 225.006 332.138C225.006 331.69 224.628 331.34 224.159 331.34C223.725 331.34 223.347 331.69 223.347 332.138C223.347 332.586 223.725 332.95 224.159 332.95ZM223.606 341H224.747V334.245H223.606V341ZM232.766 340.111C232.311 340.111 232.206 339.831 232.206 339.439V336.87C232.206 335.911 232.017 334.105 229.455 334.105C227.964 334.105 226.991 334.791 226.669 336.114L227.712 336.373C227.95 335.498 228.447 335.064 229.462 335.064C230.715 335.064 231.1 335.827 231.1 336.863V337.276C230.61 337.213 230.106 337.178 229.651 337.178C227.845 337.178 226.48 337.675 226.48 339.138C226.48 340.377 227.411 341.133 228.804 341.133C229.896 341.133 230.75 340.664 231.191 339.95C231.268 340.685 231.604 341.063 232.5 341.063C232.717 341.063 232.913 341.042 233.137 340.993V340.083C233.004 340.104 232.885 340.111 232.766 340.111ZM229 340.181C228.251 340.181 227.712 339.873 227.712 339.11C227.712 338.34 228.419 338.046 229.714 338.046C230.155 338.046 230.61 338.074 231.1 338.13V339.11C230.673 339.782 229.882 340.181 229 340.181ZM240.878 334.105C239.737 334.105 238.925 334.672 238.533 335.568L238.54 334.245H237.441V341H238.582V337.528C238.582 336.016 239.45 335.169 240.626 335.169C241.69 335.169 242.194 335.764 242.194 337.08V341H243.335V336.856C243.335 335.085 242.537 334.105 240.878 334.105ZM251.013 337.493C251.013 335.463 249.886 334.105 247.968 334.105C246.029 334.105 244.79 335.638 244.79 337.612C244.79 339.628 246.05 341.14 248.073 341.14C249.48 341.14 250.516 340.489 250.887 339.222L249.97 338.963C249.676 339.719 249.088 340.167 248.066 340.167C246.834 340.167 246.064 339.299 245.938 337.976H250.999C251.013 337.808 251.013 337.647 251.013 337.493ZM247.961 335.057C249.102 335.057 249.781 335.792 249.879 337.073H245.945C246.099 335.862 246.827 335.057 247.961 335.057ZM256.439 339.838C256.152 340.006 255.872 340.083 255.501 340.083C254.696 340.083 254.353 339.642 254.353 338.711V335.197H256.586V334.245H254.353V332.068L253.219 332.236V334.245H251.826V335.197H253.219V338.851C253.219 340.384 254.003 341.098 255.34 341.098C255.886 341.098 256.327 340.979 256.74 340.755L256.439 339.838ZM266.016 334.245L265.036 338.06C264.854 338.76 264.714 339.418 264.553 340.153C264.385 339.383 264.224 338.718 264.035 338.046L262.971 334.245H261.641L260.577 338.046C260.388 338.718 260.22 339.376 260.052 340.146C259.898 339.411 259.751 338.76 259.576 338.06L258.596 334.245H257.406L259.282 341H260.745L261.928 336.828C262.075 336.338 262.18 335.869 262.306 335.344C262.432 335.869 262.544 336.338 262.684 336.828L263.86 341H265.33L267.206 334.245H266.016ZM271.42 341.14C273.492 341.14 274.801 339.642 274.801 337.619C274.801 335.603 273.492 334.105 271.42 334.105C269.341 334.105 268.032 335.603 268.032 337.619C268.032 339.642 269.341 341.14 271.42 341.14ZM271.42 340.125C270.055 340.125 269.173 339.075 269.173 337.619C269.173 336.163 270.055 335.12 271.42 335.12C272.771 335.12 273.66 336.163 273.66 337.619C273.66 339.075 272.771 340.125 271.42 340.125ZM277.415 335.61L277.422 334.245H276.351V341H277.457V337.577C277.457 335.848 278.78 335.05 280.075 335.358L280.103 334.161C278.878 333.895 277.863 334.462 277.415 335.61ZM285.891 341H287.235L284.267 337.101L286.927 334.245H285.513L282.461 337.591V331.228H281.355V341H282.461V338.865L283.476 337.787L285.891 341ZM290.841 341.14C292.465 341.14 293.361 340.363 293.361 339.159C293.361 337.843 292.374 337.514 290.855 337.178C289.777 336.933 289.196 336.737 289.196 336.03C289.196 335.435 289.623 335.015 290.575 335.015C291.541 335.015 292.22 335.484 292.283 336.527L293.284 336.394C293.249 335.008 292.346 334.105 290.568 334.105C289.077 334.105 288.097 334.854 288.09 336.1C288.09 337.304 288.937 337.773 290.624 338.13C291.618 338.34 292.234 338.494 292.234 339.243C292.234 339.915 291.737 340.23 290.813 340.23C289.749 340.23 288.979 339.831 288.902 338.704L287.859 338.844C287.971 340.44 289.154 341.14 290.841 341.14ZM302.831 331.228V335.386C302.397 334.546 301.627 334.105 300.507 334.105C298.54 334.105 297.385 335.547 297.385 337.612C297.385 339.691 298.54 341.14 300.507 341.14C301.669 341.14 302.439 340.622 302.873 339.719L302.887 341H303.972V331.228H302.831ZM300.647 340.125C299.254 340.125 298.554 339.075 298.554 337.612C298.554 336.149 299.254 335.127 300.647 335.127C302.019 335.127 302.873 336.177 302.873 337.612C302.873 339.047 302.019 340.125 300.647 340.125ZM308.908 341.14C310.98 341.14 312.289 339.642 312.289 337.619C312.289 335.603 310.98 334.105 308.908 334.105C306.829 334.105 305.52 335.603 305.52 337.619C305.52 339.642 306.829 341.14 308.908 341.14ZM308.908 340.125C307.543 340.125 306.661 339.075 306.661 337.619C306.661 336.163 307.543 335.12 308.908 335.12C310.259 335.12 311.148 336.163 311.148 337.619C311.148 339.075 310.259 340.125 308.908 340.125ZM119.544 351.245L118.165 355.312C117.962 355.928 117.773 356.516 117.591 357.104C117.388 356.516 117.185 355.914 116.982 355.312L115.603 351.245H114.315L116.814 358.014H117.136L116.989 358.441C116.597 359.54 115.799 359.82 114.56 359.638L114.413 360.681C116.17 360.947 117.486 360.387 118.13 358.546L120.832 351.245H119.544ZM124.898 358.14C126.97 358.14 128.279 356.642 128.279 354.619C128.279 352.603 126.97 351.105 124.898 351.105C122.819 351.105 121.51 352.603 121.51 354.619C121.51 356.642 122.819 358.14 124.898 358.14ZM124.898 357.125C123.533 357.125 122.651 356.075 122.651 354.619C122.651 353.163 123.533 352.12 124.898 352.12C126.249 352.12 127.138 353.163 127.138 354.619C127.138 356.075 126.249 357.125 124.898 357.125ZM134.45 351.245V354.71C134.45 356.222 133.582 357.069 132.406 357.069C131.384 357.069 130.873 356.474 130.873 355.158V351.245H129.739V355.382C129.739 357.153 130.53 358.133 132.161 358.133C133.309 358.133 134.121 357.559 134.506 356.642L134.534 358H135.584V351.245H134.45ZM144.026 351.105C142.955 351.105 142.164 351.602 141.744 352.407V348.228H140.603V358H141.744V354.528C141.744 353.016 142.612 352.169 143.788 352.169C144.852 352.169 145.356 352.764 145.356 354.08V358H146.497V353.856C146.497 352.085 145.699 351.105 144.026 351.105ZM154.399 357.111C153.944 357.111 153.839 356.831 153.839 356.439V353.87C153.839 352.911 153.65 351.105 151.088 351.105C149.597 351.105 148.624 351.791 148.302 353.114L149.345 353.373C149.583 352.498 150.08 352.064 151.095 352.064C152.348 352.064 152.733 352.827 152.733 353.863V354.276C152.243 354.213 151.739 354.178 151.284 354.178C149.478 354.178 148.113 354.675 148.113 356.138C148.113 357.377 149.044 358.133 150.437 358.133C151.529 358.133 152.383 357.664 152.824 356.95C152.901 357.685 153.237 358.063 154.133 358.063C154.35 358.063 154.546 358.042 154.77 357.993V357.083C154.637 357.104 154.518 357.111 154.399 357.111ZM150.633 357.181C149.884 357.181 149.345 356.873 149.345 356.11C149.345 355.34 150.052 355.046 151.347 355.046C151.788 355.046 152.243 355.074 152.733 355.13V356.11C152.306 356.782 151.515 357.181 150.633 357.181ZM160.387 351.245L158.994 355.466C158.798 356.033 158.63 356.579 158.448 357.153C158.266 356.593 158.084 356.026 157.895 355.466L156.502 351.245H155.235L157.629 358H159.26L161.654 351.245H160.387ZM168.558 354.493C168.558 352.463 167.431 351.105 165.513 351.105C163.574 351.105 162.335 352.638 162.335 354.612C162.335 356.628 163.595 358.14 165.618 358.14C167.025 358.14 168.061 357.489 168.432 356.222L167.515 355.963C167.221 356.719 166.633 357.167 165.611 357.167C164.379 357.167 163.609 356.299 163.483 354.976H168.544C168.558 354.808 168.558 354.647 168.558 354.493ZM165.506 352.057C166.647 352.057 167.326 352.792 167.424 354.073H163.49C163.644 352.862 164.372 352.057 165.506 352.057ZM171.835 355.459H172.948V355.165C172.948 354.451 173.116 354.101 174.019 353.408C174.88 352.757 175.37 352.19 175.37 351.119C175.37 349.628 174.334 348.76 172.71 348.76C170.953 348.76 169.98 349.733 169.868 351.588L170.995 351.805C171.03 350.377 171.646 349.796 172.703 349.796C173.613 349.796 174.166 350.286 174.166 351.217C174.166 351.875 173.9 352.246 173.312 352.729C172.059 353.744 171.835 354.171 171.835 355.165V355.459ZM172.437 358.14C172.92 358.14 173.326 357.741 173.326 357.251C173.326 356.768 172.92 356.369 172.437 356.369C171.947 356.369 171.534 356.768 171.534 357.251C171.534 357.741 171.947 358.14 172.437 358.14Z" fill="#5C5C5C"/>
<path d="M154.267 406H155.471V401.954H159.412V400.967H155.471V397.936H159.846V396.9H154.267V406ZM167.026 405.111C166.571 405.111 166.466 404.831 166.466 404.439V401.87C166.466 400.911 166.277 399.105 163.715 399.105C162.224 399.105 161.251 399.791 160.929 401.114L161.972 401.373C162.21 400.498 162.707 400.064 163.722 400.064C164.975 400.064 165.36 400.827 165.36 401.863V402.276C164.87 402.213 164.366 402.178 163.911 402.178C162.105 402.178 160.74 402.675 160.74 404.138C160.74 405.377 161.671 406.133 163.064 406.133C164.156 406.133 165.01 405.664 165.451 404.95C165.528 405.685 165.864 406.063 166.76 406.063C166.977 406.063 167.173 406.042 167.397 405.993V405.083C167.264 405.104 167.145 405.111 167.026 405.111ZM163.26 405.181C162.511 405.181 161.972 404.873 161.972 404.11C161.972 403.34 162.679 403.046 163.974 403.046C164.415 403.046 164.87 403.074 165.36 403.13V404.11C164.933 404.782 164.142 405.181 163.26 405.181ZM171.532 406.14C173.065 406.14 174.206 405.419 174.535 403.816L173.499 403.641C173.24 404.593 172.624 405.139 171.546 405.139C170.153 405.139 169.383 404.068 169.383 402.619C169.383 401.177 170.153 400.099 171.546 400.099C172.624 400.099 173.24 400.645 173.499 401.597L174.535 401.429C174.206 399.826 173.065 399.105 171.532 399.105C169.488 399.105 168.235 400.617 168.235 402.619C168.235 404.621 169.488 406.14 171.532 406.14ZM182.032 402.493C182.032 400.463 180.905 399.105 178.987 399.105C177.048 399.105 175.809 400.638 175.809 402.612C175.809 404.628 177.069 406.14 179.092 406.14C180.499 406.14 181.535 405.489 181.906 404.222L180.989 403.963C180.695 404.719 180.107 405.167 179.085 405.167C177.853 405.167 177.083 404.299 176.957 402.976H182.018C182.032 402.808 182.032 402.647 182.032 402.493ZM178.98 400.057C180.121 400.057 180.8 400.792 180.898 402.073H176.964C177.118 400.862 177.846 400.057 178.98 400.057ZM187.144 399.105C186.017 399.105 185.212 399.553 184.764 400.4V396.228H183.623V406H184.708L184.722 404.705C185.17 405.615 185.975 406.14 187.144 406.14C189.104 406.14 190.21 404.691 190.21 402.612C190.21 400.547 189.104 399.105 187.144 399.105ZM186.948 405.125C185.576 405.125 184.722 404.047 184.722 402.612C184.722 401.177 185.576 400.127 186.948 400.127C188.341 400.127 189.041 401.149 189.041 402.612C189.041 404.075 188.341 405.125 186.948 405.125ZM194.797 406.14C196.869 406.14 198.178 404.642 198.178 402.619C198.178 400.603 196.869 399.105 194.797 399.105C192.718 399.105 191.409 400.603 191.409 402.619C191.409 404.642 192.718 406.14 194.797 406.14ZM194.797 405.125C193.432 405.125 192.55 404.075 192.55 402.619C192.55 401.163 193.432 400.12 194.797 400.12C196.148 400.12 197.037 401.163 197.037 402.619C197.037 404.075 196.148 405.125 194.797 405.125ZM202.767 406.14C204.839 406.14 206.148 404.642 206.148 402.619C206.148 400.603 204.839 399.105 202.767 399.105C200.688 399.105 199.379 400.603 199.379 402.619C199.379 404.642 200.688 406.14 202.767 406.14ZM202.767 405.125C201.402 405.125 200.52 404.075 200.52 402.619C200.52 401.163 201.402 400.12 202.767 400.12C204.118 400.12 205.007 401.163 205.007 402.619C205.007 404.075 204.118 405.125 202.767 405.125ZM212.207 406H213.551L210.583 402.101L213.243 399.245H211.829L208.777 402.591V396.228H207.671V406H208.777V403.865L209.792 402.787L212.207 406Z" fill="#5C5C5C"/>
<path d="M57 417.654V414.346L54.288 413.812C54.141 413.321 53.943 412.846 53.699 412.394L55.212 410.124L52.875 407.788L50.606 409.301C50.154 409.057 49.679 408.86 49.188 408.711L48.654 406H45.346L44.812 408.712C44.321 408.859 43.846 409.057 43.394 409.301L41.124 407.788L38.788 410.125L40.301 412.394C40.057 412.846 39.86 413.321 39.711 413.812L37 414.346V417.654L39.712 418.188C39.859 418.679 40.057 419.154 40.301 419.606L38.788 421.876L41.125 424.212L43.394 422.699C43.846 422.943 44.321 423.141 44.812 423.289L45.346 426H48.654L49.188 423.288C49.679 423.141 50.154 422.943 50.606 422.699L52.876 424.212L55.212 421.875L53.699 419.606C53.943 419.154 54.141 418.679 54.289 418.188L57 417.654ZM53.704 421.726L52.726 422.704L50.645 421.316C49.589 421.956 49.239 422.078 48.18 422.34L47.69 424.828H46.31L45.82 422.34C44.615 422.042 44.282 421.878 43.355 421.316L41.275 422.704L40.296 421.726L41.684 419.645C41.039 418.58 40.92 418.23 40.66 417.18L38.172 416.69V415.31L40.66 414.82C40.916 413.784 41.033 413.428 41.684 412.355L40.296 410.275L41.274 409.296L43.355 410.684C44.42 410.038 44.772 409.919 45.82 409.66L46.31 407.172H47.69L48.18 409.66C49.387 409.958 49.72 410.123 50.645 410.684L52.725 409.296L53.704 410.274L52.316 412.355C52.956 413.409 53.078 413.759 53.34 414.82L55.828 415.31V416.69L53.34 417.18C53.042 418.387 52.878 418.719 52.316 419.645L53.704 421.725V421.726Z" fill="#5375FF"/>
<path d="M46.9999 411.898C44.7379 411.898 42.8979 413.738 42.8979 416C42.8979 418.262 44.7379 420.102 46.9999 420.102C49.2619 420.102 51.1019 418.262 51.1019 416C51.1019 413.738 49.2619 411.898 46.9999 411.898ZM46.9999 418.93C45.3849 418.93 44.0699 417.615 44.0699 416C44.0699 414.385 45.3849 413.07 46.9999 413.07C48.6149 413.07 49.9299 414.385 49.9299 416C49.9299 417.615 48.6149 418.93 46.9999 418.93Z" fill="#5375FF"/>
<rect x="119.5" y="181.5" width="78" height="53" rx="6.5" stroke="#5375FF"/>
<path d="M176.65 196.979C175.853 196.143 174.75 195.649 173.496 195.649H167.188V195.572C167.188 194.622 166.808 193.71 166.162 193.102C165.515 192.456 164.642 192.076 163.692 192.076H152.29C151.302 192.076 150.428 192.456 149.781 193.102C149.135 193.748 148.755 194.622 148.755 195.572V195.648H142.485C141.23 195.648 140.128 196.143 139.33 196.978C138.532 197.778 138 198.918 138 200.134V219.06C138 220.315 138.494 221.417 139.33 222.215C140.128 223.013 141.268 223.545 142.485 223.545H173.496C174.751 223.545 175.853 223.051 176.651 222.215C177.449 221.417 177.981 220.277 177.981 219.06V200.133C177.981 198.879 177.487 197.777 176.651 196.979H176.65ZM176.005 219.059H175.967C175.967 219.743 175.701 220.352 175.245 220.808C174.789 221.264 174.181 221.53 173.496 221.53H142.485C141.8 221.53 141.192 221.264 140.736 220.808C140.28 220.352 140.014 219.743 140.014 219.059V200.133C140.014 199.449 140.28 198.841 140.736 198.385C141.192 197.929 141.8 197.663 142.485 197.663H149.819C150.389 197.663 150.846 197.207 150.846 196.637V195.534C150.846 195.116 150.998 194.736 151.264 194.47C151.53 194.204 151.91 194.052 152.328 194.052H163.69C164.108 194.052 164.488 194.204 164.754 194.47C165.02 194.736 165.172 195.116 165.172 195.534V196.637C165.172 197.207 165.628 197.663 166.199 197.663H173.533C174.218 197.663 174.826 197.929 175.282 198.385C175.738 198.841 176.004 199.449 176.004 200.133V219.059H176.005Z" fill="#5375FF"/>
<path d="M157.99 200.247C155.406 200.247 153.05 201.311 151.378 202.983C149.668 204.693 148.641 207.012 148.641 209.596C148.641 212.181 149.705 214.536 151.378 216.209C153.088 217.919 155.406 218.945 157.99 218.945C160.575 218.945 162.931 217.881 164.603 216.209C166.313 214.499 167.34 212.181 167.34 209.596C167.34 207.012 166.276 204.656 164.603 202.983C162.931 201.311 160.575 200.247 157.99 200.247ZM163.16 214.803C161.829 216.095 160.005 216.931 157.99 216.931C155.976 216.931 154.152 216.095 152.822 214.803C151.492 213.473 150.694 211.648 150.694 209.634C150.694 207.62 151.53 205.796 152.822 204.466C154.152 203.136 155.976 202.337 157.99 202.337C160.005 202.337 161.829 203.173 163.16 204.466C164.49 205.796 165.287 207.62 165.287 209.634C165.325 211.648 164.489 213.473 163.159 214.803H163.16Z" fill="#5375FF"/>
<path d="M171.52 203.933C172.548 203.933 173.382 203.099 173.382 202.071C173.382 201.043 172.548 200.209 171.52 200.209C170.492 200.209 169.658 201.043 169.658 202.071C169.658 203.099 170.492 203.933 171.52 203.933Z" fill="#5375FF"/>
<rect x="119.5" y="269.5" width="41" height="35" rx="4.5" stroke="#5375FF"/>
<path d="M149.325 281.49C148.927 281.072 148.375 280.825 147.748 280.825H144.594V280.786C144.594 280.311 144.404 279.855 144.081 279.551C143.758 279.228 143.321 279.038 142.846 279.038H137.145C136.651 279.038 136.214 279.228 135.891 279.551C135.568 279.874 135.378 280.311 135.378 280.786V280.824H132.243C131.615 280.824 131.064 281.072 130.665 281.489C130.266 281.889 130 282.459 130 283.067V292.53C130 293.158 130.247 293.709 130.665 294.108C131.064 294.507 131.634 294.773 132.243 294.773H147.748C148.375 294.773 148.927 294.526 149.326 294.108C149.725 293.709 149.99 293.139 149.99 292.53V283.067C149.99 282.44 149.743 281.889 149.326 281.49H149.325ZM149.003 292.53H148.983C148.983 292.872 148.851 293.176 148.622 293.404C148.394 293.632 148.09 293.765 147.748 293.765H132.243C131.9 293.765 131.596 293.632 131.368 293.404C131.14 293.176 131.007 292.872 131.007 292.53V283.067C131.007 282.725 131.14 282.421 131.368 282.193C131.596 281.965 131.9 281.832 132.243 281.832H135.91C136.194 281.832 136.423 281.604 136.423 281.319V280.767C136.423 280.558 136.499 280.368 136.632 280.235C136.765 280.102 136.955 280.026 137.164 280.026H142.845C143.054 280.026 143.244 280.102 143.377 280.235C143.51 280.368 143.586 280.558 143.586 280.767V281.319C143.586 281.604 143.814 281.832 144.099 281.832H147.767C148.109 281.832 148.413 281.965 148.641 282.193C148.869 282.421 149.002 282.725 149.002 283.067V292.53H149.003Z" fill="#5375FF"/>
<path d="M139.995 283.124C138.703 283.124 137.525 283.656 136.689 284.492C135.834 285.347 135.32 286.506 135.32 287.798C135.32 289.091 135.852 290.268 136.689 291.105C137.544 291.96 138.703 292.473 139.995 292.473C141.287 292.473 142.465 291.941 143.301 291.105C144.156 290.25 144.67 289.091 144.67 287.798C144.67 286.506 144.138 285.328 143.301 284.492C142.465 283.656 141.287 283.124 139.995 283.124ZM142.58 290.402C141.914 291.048 141.002 291.466 139.995 291.466C138.988 291.466 138.076 291.048 137.411 290.402C136.746 289.737 136.347 288.824 136.347 287.817C136.347 286.81 136.765 285.898 137.411 285.233C138.076 284.568 138.988 284.169 139.995 284.169C141.002 284.169 141.914 284.587 142.58 285.233C143.245 285.898 143.643 286.81 143.643 287.817C143.662 288.824 143.244 289.737 142.579 290.402H142.58Z" fill="#5375FF"/>
<path d="M146.76 284.966C147.274 284.966 147.691 284.55 147.691 284.035C147.691 283.521 147.274 283.104 146.76 283.104C146.246 283.104 145.829 283.521 145.829 284.035C145.829 284.55 146.246 284.966 146.76 284.966Z" fill="#5375FF"/>
<rect x="174.5" y="269.5" width="41" height="35" rx="4.5" stroke="#5375FF"/>
<path d="M204.325 281.49C203.927 281.072 203.375 280.825 202.748 280.825H199.594V280.786C199.594 280.311 199.404 279.855 199.081 279.551C198.758 279.228 198.321 279.038 197.846 279.038H192.145C191.651 279.038 191.214 279.228 190.891 279.551C190.568 279.874 190.378 280.311 190.378 280.786V280.824H187.243C186.615 280.824 186.064 281.072 185.665 281.489C185.266 281.889 185 282.459 185 283.067V292.53C185 293.158 185.247 293.709 185.665 294.108C186.064 294.507 186.634 294.773 187.243 294.773H202.748C203.375 294.773 203.927 294.526 204.326 294.108C204.725 293.709 204.99 293.139 204.99 292.53V283.067C204.99 282.44 204.743 281.889 204.326 281.49H204.325ZM204.003 292.53H203.983C203.983 292.872 203.851 293.176 203.622 293.404C203.394 293.632 203.09 293.765 202.748 293.765H187.243C186.9 293.765 186.596 293.632 186.368 293.404C186.14 293.176 186.007 292.872 186.007 292.53V283.067C186.007 282.725 186.14 282.421 186.368 282.193C186.596 281.965 186.9 281.832 187.243 281.832H190.91C191.194 281.832 191.423 281.604 191.423 281.319V280.767C191.423 280.558 191.499 280.368 191.632 280.235C191.765 280.102 191.955 280.026 192.164 280.026H197.845C198.054 280.026 198.244 280.102 198.377 280.235C198.51 280.368 198.586 280.558 198.586 280.767V281.319C198.586 281.604 198.814 281.832 199.099 281.832H202.767C203.109 281.832 203.413 281.965 203.641 282.193C203.869 282.421 204.002 282.725 204.002 283.067V292.53H204.003Z" fill="#5375FF"/>
<path d="M194.995 283.124C193.703 283.124 192.525 283.656 191.689 284.492C190.834 285.347 190.32 286.506 190.32 287.798C190.32 289.091 190.852 290.268 191.689 291.105C192.544 291.96 193.703 292.473 194.995 292.473C196.287 292.473 197.465 291.941 198.301 291.105C199.156 290.25 199.67 289.091 199.67 287.798C199.67 286.506 199.138 285.328 198.301 284.492C197.465 283.656 196.287 283.124 194.995 283.124ZM197.58 290.402C196.914 291.048 196.002 291.466 194.995 291.466C193.988 291.466 193.076 291.048 192.411 290.402C191.746 289.737 191.347 288.824 191.347 287.817C191.347 286.81 191.765 285.898 192.411 285.233C193.076 284.568 193.988 284.169 194.995 284.169C196.002 284.169 196.914 284.587 197.58 285.233C198.245 285.898 198.643 286.81 198.643 287.817C198.662 288.824 198.244 289.737 197.579 290.402H197.58Z" fill="#5375FF"/>
<path d="M201.76 284.966C202.274 284.966 202.691 284.55 202.691 284.035C202.691 283.521 202.274 283.104 201.76 283.104C201.246 283.104 200.829 283.521 200.829 284.035C200.829 284.55 201.246 284.966 201.76 284.966Z" fill="#5375FF"/>
<rect x="229.5" y="269.5" width="41" height="35" rx="4.5" stroke="#5375FF"/>
<path d="M259.325 281.49C258.927 281.072 258.375 280.825 257.748 280.825H254.594V280.786C254.594 280.311 254.404 279.855 254.081 279.551C253.758 279.228 253.321 279.038 252.846 279.038H247.145C246.651 279.038 246.214 279.228 245.891 279.551C245.568 279.874 245.378 280.311 245.378 280.786V280.824H242.243C241.615 280.824 241.064 281.072 240.665 281.489C240.266 281.889 240 282.459 240 283.067V292.53C240 293.158 240.247 293.709 240.665 294.108C241.064 294.507 241.634 294.773 242.243 294.773H257.748C258.375 294.773 258.927 294.526 259.326 294.108C259.725 293.709 259.99 293.139 259.99 292.53V283.067C259.99 282.44 259.743 281.889 259.326 281.49H259.325ZM259.003 292.53H258.983C258.983 292.872 258.851 293.176 258.622 293.404C258.394 293.632 258.09 293.765 257.748 293.765H242.243C241.9 293.765 241.596 293.632 241.368 293.404C241.14 293.176 241.007 292.872 241.007 292.53V283.067C241.007 282.725 241.14 282.421 241.368 282.193C241.596 281.965 241.9 281.832 242.243 281.832H245.91C246.194 281.832 246.423 281.604 246.423 281.319V280.767C246.423 280.558 246.499 280.368 246.632 280.235C246.765 280.102 246.955 280.026 247.164 280.026H252.845C253.054 280.026 253.244 280.102 253.377 280.235C253.51 280.368 253.586 280.558 253.586 280.767V281.319C253.586 281.604 253.814 281.832 254.099 281.832H257.767C258.109 281.832 258.413 281.965 258.641 282.193C258.869 282.421 259.002 282.725 259.002 283.067V292.53H259.003Z" fill="#5375FF"/>
<path d="M249.995 283.124C248.703 283.124 247.525 283.656 246.689 284.492C245.834 285.347 245.32 286.506 245.32 287.798C245.32 289.091 245.852 290.268 246.689 291.105C247.544 291.96 248.703 292.473 249.995 292.473C251.287 292.473 252.465 291.941 253.301 291.105C254.156 290.25 254.67 289.091 254.67 287.798C254.67 286.506 254.138 285.328 253.301 284.492C252.465 283.656 251.287 283.124 249.995 283.124ZM252.58 290.402C251.914 291.048 251.002 291.466 249.995 291.466C248.988 291.466 248.076 291.048 247.411 290.402C246.746 289.737 246.347 288.824 246.347 287.817C246.347 286.81 246.765 285.898 247.411 285.233C248.076 284.568 248.988 284.169 249.995 284.169C251.002 284.169 251.914 284.587 252.58 285.233C253.245 285.898 253.643 286.81 253.643 287.817C253.662 288.824 253.244 289.737 252.579 290.402H252.58Z" fill="#5375FF"/>
<path d="M256.76 284.966C257.274 284.966 257.691 284.55 257.691 284.035C257.691 283.521 257.274 283.104 256.76 283.104C256.246 283.104 255.829 283.521 255.829 284.035C255.829 284.55 256.246 284.966 256.76 284.966Z" fill="#5375FF"/>
<rect x="284.5" y="269.5" width="41" height="35" rx="4.5" stroke="#5375FF"/>
<path d="M314.325 281.49C313.927 281.072 313.375 280.825 312.748 280.825H309.594V280.786C309.594 280.311 309.404 279.855 309.081 279.551C308.758 279.228 308.321 279.038 307.846 279.038H302.145C301.651 279.038 301.214 279.228 300.891 279.551C300.568 279.874 300.378 280.311 300.378 280.786V280.824H297.243C296.615 280.824 296.064 281.072 295.665 281.489C295.266 281.889 295 282.459 295 283.067V292.53C295 293.158 295.247 293.709 295.665 294.108C296.064 294.507 296.634 294.773 297.243 294.773H312.748C313.375 294.773 313.927 294.526 314.326 294.108C314.725 293.709 314.99 293.139 314.99 292.53V283.067C314.99 282.44 314.743 281.889 314.326 281.49H314.325ZM314.003 292.53H313.983C313.983 292.872 313.851 293.176 313.622 293.404C313.394 293.632 313.09 293.765 312.748 293.765H297.243C296.9 293.765 296.596 293.632 296.368 293.404C296.14 293.176 296.007 292.872 296.007 292.53V283.067C296.007 282.725 296.14 282.421 296.368 282.193C296.596 281.965 296.9 281.832 297.243 281.832H300.91C301.194 281.832 301.423 281.604 301.423 281.319V280.767C301.423 280.558 301.499 280.368 301.632 280.235C301.765 280.102 301.955 280.026 302.164 280.026H307.845C308.054 280.026 308.244 280.102 308.377 280.235C308.51 280.368 308.586 280.558 308.586 280.767V281.319C308.586 281.604 308.814 281.832 309.099 281.832H312.767C313.109 281.832 313.413 281.965 313.641 282.193C313.869 282.421 314.002 282.725 314.002 283.067V292.53H314.003Z" fill="#5375FF"/>
<path d="M304.995 283.124C303.703 283.124 302.525 283.656 301.689 284.492C300.834 285.347 300.32 286.506 300.32 287.798C300.32 289.091 300.852 290.268 301.689 291.105C302.544 291.96 303.703 292.473 304.995 292.473C306.287 292.473 307.465 291.941 308.301 291.105C309.156 290.25 309.67 289.091 309.67 287.798C309.67 286.506 309.138 285.328 308.301 284.492C307.465 283.656 306.287 283.124 304.995 283.124ZM307.58 290.402C306.914 291.048 306.002 291.466 304.995 291.466C303.988 291.466 303.076 291.048 302.411 290.402C301.746 289.737 301.347 288.824 301.347 287.817C301.347 286.81 301.765 285.898 302.411 285.233C303.076 284.568 303.988 284.169 304.995 284.169C306.002 284.169 306.914 284.587 307.58 285.233C308.245 285.898 308.643 286.81 308.643 287.817C308.662 288.824 308.244 289.737 307.579 290.402H307.58Z" fill="#5375FF"/>
<path d="M311.76 284.966C312.274 284.966 312.691 284.55 312.691 284.035C312.691 283.521 312.274 283.104 311.76 283.104C311.246 283.104 310.829 283.521 310.829 284.035C310.829 284.55 311.246 284.966 311.76 284.966Z" fill="#5375FF"/>
<rect x="221" y="183" width="107" height="6" rx="3" fill="#C4C4C4"/>
<rect x="221" y="196" width="107" height="6" rx="3" fill="#C4C4C4"/>
<rect x="221" y="209" width="107" height="6" rx="3" fill="#C4C4C4"/>
<rect x="119" y="250" width="200" height="6" rx="3" fill="#C4C4C4"/>
<circle cx="128.5" cy="400.5" r="11.5" fill="#C4C4C4"/>
<path d="M154.267 438H155.471V428.9H154.267V438ZM161.233 431.105C160.092 431.105 159.28 431.672 158.888 432.568L158.895 431.245H157.796V438H158.937V434.528C158.937 433.016 159.805 432.169 160.981 432.169C162.045 432.169 162.549 432.764 162.549 434.08V438H163.69V433.856C163.69 432.085 162.892 431.105 161.233 431.105ZM168.253 438.14C169.877 438.14 170.773 437.363 170.773 436.159C170.773 434.843 169.786 434.514 168.267 434.178C167.189 433.933 166.608 433.737 166.608 433.03C166.608 432.435 167.035 432.015 167.987 432.015C168.953 432.015 169.632 432.484 169.695 433.527L170.696 433.394C170.661 432.008 169.758 431.105 167.98 431.105C166.489 431.105 165.509 431.854 165.502 433.1C165.502 434.304 166.349 434.773 168.036 435.13C169.03 435.34 169.646 435.494 169.646 436.243C169.646 436.915 169.149 437.23 168.225 437.23C167.161 437.23 166.391 436.831 166.314 435.704L165.271 435.844C165.383 437.44 166.566 438.14 168.253 438.14ZM176.33 436.838C176.043 437.006 175.763 437.083 175.392 437.083C174.587 437.083 174.244 436.642 174.244 435.711V432.197H176.477V431.245H174.244V429.068L173.11 429.236V431.245H171.717V432.197H173.11V435.851C173.11 437.384 173.894 438.098 175.231 438.098C175.777 438.098 176.218 437.979 176.631 437.755L176.33 436.838ZM183.883 437.111C183.428 437.111 183.323 436.831 183.323 436.439V433.87C183.323 432.911 183.134 431.105 180.572 431.105C179.081 431.105 178.108 431.791 177.786 433.114L178.829 433.373C179.067 432.498 179.564 432.064 180.579 432.064C181.832 432.064 182.217 432.827 182.217 433.863V434.276C181.727 434.213 181.223 434.178 180.768 434.178C178.962 434.178 177.597 434.675 177.597 436.138C177.597 437.377 178.528 438.133 179.921 438.133C181.013 438.133 181.867 437.664 182.308 436.95C182.385 437.685 182.721 438.063 183.617 438.063C183.834 438.063 184.03 438.042 184.254 437.993V437.083C184.121 437.104 184.002 437.111 183.883 437.111ZM180.117 437.181C179.368 437.181 178.829 436.873 178.829 436.11C178.829 435.34 179.536 435.046 180.831 435.046C181.272 435.046 181.727 435.074 182.217 435.13V436.11C181.79 436.782 180.999 437.181 180.117 437.181ZM190.706 431.252L190.699 432.638C190.286 431.651 189.481 431.105 188.249 431.105C186.275 431.105 185.127 432.526 185.127 434.549C185.127 436.586 186.275 438.007 188.249 438.007C189.488 438.007 190.272 437.426 190.692 436.425V437.587C190.692 439.148 189.74 439.904 188.438 439.904C187.507 439.904 186.667 439.568 185.967 438.812L185.337 439.631C186.177 440.485 187.15 440.87 188.396 440.87C190.356 440.87 191.742 439.771 191.742 437.608V431.252H190.706ZM188.389 437.006C186.996 437.006 186.296 435.977 186.296 434.549C186.296 433.121 186.996 432.113 188.389 432.113C189.761 432.113 190.615 433.149 190.615 434.549C190.615 435.949 189.761 437.006 188.389 437.006ZM195.036 432.61L195.043 431.245H193.972V438H195.078V434.577C195.078 432.848 196.401 432.05 197.696 432.358L197.724 431.161C196.499 430.895 195.484 431.462 195.036 432.61ZM204.61 437.111C204.155 437.111 204.05 436.831 204.05 436.439V433.87C204.05 432.911 203.861 431.105 201.299 431.105C199.808 431.105 198.835 431.791 198.513 433.114L199.556 433.373C199.794 432.498 200.291 432.064 201.306 432.064C202.559 432.064 202.944 432.827 202.944 433.863V434.276C202.454 434.213 201.95 434.178 201.495 434.178C199.689 434.178 198.324 434.675 198.324 436.138C198.324 437.377 199.255 438.133 200.648 438.133C201.74 438.133 202.594 437.664 203.035 436.95C203.112 437.685 203.448 438.063 204.344 438.063C204.561 438.063 204.757 438.042 204.981 437.993V437.083C204.848 437.104 204.729 437.111 204.61 437.111ZM200.844 437.181C200.095 437.181 199.556 436.873 199.556 436.11C199.556 435.34 200.263 435.046 201.558 435.046C201.999 435.046 202.454 435.074 202.944 435.13V436.11C202.517 436.782 201.726 437.181 200.844 437.181ZM213.848 431.105C212.728 431.105 212 431.623 211.629 432.47C211.349 431.574 210.698 431.105 209.606 431.105C208.528 431.105 207.835 431.581 207.457 432.358L207.464 431.245H206.4V438H207.52V434.486C207.52 432.981 208.192 432.127 209.361 432.127C210.348 432.127 210.691 432.729 210.691 434.017V438H211.804V434.486C211.804 432.981 212.469 432.127 213.638 432.127C214.625 432.127 214.968 432.75 214.968 434.017V438H216.081V433.849C216.081 432.113 215.416 431.105 213.848 431.105Z" fill="#5C5C5C"/>
<circle cx="128.5" cy="432.5" r="11.5" fill="#C4C4C4"/>
<path d="M159.363 463.9L157.06 468.709L154.757 463.9H153.399L156.458 469.885V473H157.662V469.885L160.721 463.9H159.363ZM163.939 473.14C166.011 473.14 167.32 471.642 167.32 469.619C167.32 467.603 166.011 466.105 163.939 466.105C161.86 466.105 160.551 467.603 160.551 469.619C160.551 471.642 161.86 473.14 163.939 473.14ZM163.939 472.125C162.574 472.125 161.692 471.075 161.692 469.619C161.692 468.163 162.574 467.12 163.939 467.12C165.29 467.12 166.179 468.163 166.179 469.619C166.179 471.075 165.29 472.125 163.939 472.125ZM173.491 466.245V469.71C173.491 471.222 172.623 472.069 171.447 472.069C170.425 472.069 169.914 471.474 169.914 470.158V466.245H168.78V470.382C168.78 472.153 169.571 473.133 171.202 473.133C172.35 473.133 173.162 472.559 173.547 471.642L173.575 473H174.625V466.245H173.491ZM180.595 471.838C180.308 472.006 180.028 472.083 179.657 472.083C178.852 472.083 178.509 471.642 178.509 470.711V467.197H180.742V466.245H178.509V464.068L177.375 464.236V466.245H175.982V467.197H177.375V470.851C177.375 472.384 178.159 473.098 179.496 473.098C180.042 473.098 180.483 472.979 180.896 472.755L180.595 471.838ZM186.903 466.245V469.71C186.903 471.222 186.035 472.069 184.859 472.069C183.837 472.069 183.326 471.474 183.326 470.158V466.245H182.192V470.382C182.192 472.153 182.983 473.133 184.614 473.133C185.762 473.133 186.574 472.559 186.959 471.642L186.987 473H188.037V466.245H186.903ZM193.692 466.105C192.565 466.105 191.76 466.553 191.312 467.4V463.228H190.171V473H191.256L191.27 471.705C191.718 472.615 192.523 473.14 193.692 473.14C195.652 473.14 196.758 471.691 196.758 469.612C196.758 467.547 195.652 466.105 193.692 466.105ZM193.496 472.125C192.124 472.125 191.27 471.047 191.27 469.612C191.27 468.177 192.124 467.127 193.496 467.127C194.889 467.127 195.589 468.149 195.589 469.612C195.589 471.075 194.889 472.125 193.496 472.125ZM204.181 469.493C204.181 467.463 203.054 466.105 201.136 466.105C199.197 466.105 197.958 467.638 197.958 469.612C197.958 471.628 199.218 473.14 201.241 473.14C202.648 473.14 203.684 472.489 204.055 471.222L203.138 470.963C202.844 471.719 202.256 472.167 201.234 472.167C200.002 472.167 199.232 471.299 199.106 469.976H204.167C204.181 469.808 204.181 469.647 204.181 469.493ZM201.129 467.057C202.27 467.057 202.949 467.792 203.047 469.073H199.113C199.267 467.862 199.995 467.057 201.129 467.057Z" fill="#5C5C5C"/>
<path d="M122.012 517.14C124.224 517.14 125.617 516.09 126.044 513.92L124.903 513.731C124.525 515.488 123.517 516.125 122.012 516.125C120.031 516.125 118.876 514.662 118.876 512.457C118.876 510.231 120.031 508.775 122.012 508.775C123.503 508.775 124.532 509.433 124.903 511.162L126.044 510.973C125.652 508.803 124.21 507.76 122.012 507.76C119.31 507.76 117.63 509.657 117.63 512.457C117.63 515.243 119.31 517.14 122.012 517.14ZM133.637 516.111C133.182 516.111 133.077 515.831 133.077 515.439V512.87C133.077 511.911 132.888 510.105 130.326 510.105C128.835 510.105 127.862 510.791 127.54 512.114L128.583 512.373C128.821 511.498 129.318 511.064 130.333 511.064C131.586 511.064 131.971 511.827 131.971 512.863V513.276C131.481 513.213 130.977 513.178 130.522 513.178C128.716 513.178 127.351 513.675 127.351 515.138C127.351 516.377 128.282 517.133 129.675 517.133C130.767 517.133 131.621 516.664 132.062 515.95C132.139 516.685 132.475 517.063 133.371 517.063C133.588 517.063 133.784 517.042 134.008 516.993V516.083C133.875 516.104 133.756 516.111 133.637 516.111ZM129.871 516.181C129.122 516.181 128.583 515.873 128.583 515.11C128.583 514.34 129.29 514.046 130.585 514.046C131.026 514.046 131.481 514.074 131.971 514.13V515.11C131.544 515.782 130.753 516.181 129.871 516.181ZM138.864 510.105C137.723 510.105 136.911 510.672 136.519 511.568L136.526 510.245H135.427V517H136.568V513.528C136.568 512.016 137.436 511.169 138.612 511.169C139.676 511.169 140.18 511.764 140.18 513.08V517H141.321V512.856C141.321 511.085 140.523 510.105 138.864 510.105ZM146.073 517.14C147.606 517.14 148.747 516.419 149.076 514.816L148.04 514.641C147.781 515.593 147.165 516.139 146.087 516.139C144.694 516.139 143.924 515.068 143.924 513.619C143.924 512.177 144.694 511.099 146.087 511.099C147.165 511.099 147.781 511.645 148.04 512.597L149.076 512.429C148.747 510.826 147.606 510.105 146.073 510.105C144.029 510.105 142.776 511.617 142.776 513.619C142.776 515.621 144.029 517.14 146.073 517.14ZM156.573 513.493C156.573 511.463 155.446 510.105 153.528 510.105C151.589 510.105 150.35 511.638 150.35 513.612C150.35 515.628 151.61 517.14 153.633 517.14C155.04 517.14 156.076 516.489 156.447 515.222L155.53 514.963C155.236 515.719 154.648 516.167 153.626 516.167C152.394 516.167 151.624 515.299 151.498 513.976H156.559C156.573 513.808 156.573 513.647 156.573 513.493ZM153.521 511.057C154.662 511.057 155.341 511.792 155.439 513.073H151.505C151.659 511.862 152.387 511.057 153.521 511.057ZM158.164 517H159.305V507.228H158.164V517Z" fill="#5C5C5C"/>
<circle cx="128.5" cy="467.5" r="11.5" fill="#C4C4C4"/>
<rect x="274.5" y="397.5" width="9" height="9" rx="0.5" stroke="#5375FF"/>
<rect x="274.5" y="428.5" width="9" height="9" rx="0.5" stroke="#5375FF"/>
<rect x="274.5" y="464.5" width="9" height="9" rx="0.5" stroke="#5375FF"/>
<defs>
<filter id="filter0_d" x="0" y="65" width="480" height="495" filterUnits="userSpaceOnUse" color-interpolation-filters="sRGB">
<feFlood flood-opacity="0" result="BackgroundImageFix"/>
<feColorMatrix in="SourceAlpha" type="matrix" values="0 0 0 0 0 0 0 0 0 0 0 0 0 0 0 0 0 0 127 0"/>
<feOffset dy="8"/>
<feGaussianBlur stdDeviation="5"/>
<feColorMatrix type="matrix" values="0 0 0 0 0 0 0 0 0 0 0 0 0 0 0 0 0 0 0.25 0"/>
<feBlend mode="normal" in2="BackgroundImageFix" result="effect1_dropShadow"/>
<feBlend mode="normal" in="SourceGraphic" in2="effect1_dropShadow" result="shape"/>
</filter>
<filter id="filter1_d" x="212" y="496" width="84" height="33" filterUnits="userSpaceOnUse" color-interpolation-filters="sRGB">
<feFlood flood-opacity="0" result="BackgroundImageFix"/>
<feColorMatrix in="SourceAlpha" type="matrix" values="0 0 0 0 0 0 0 0 0 0 0 0 0 0 0 0 0 0 127 0"/>
<feOffset dy="2"/>
<feGaussianBlur stdDeviation="2"/>
<feColorMatrix type="matrix" values="0 0 0 0 0 0 0 0 0 0 0 0 0 0 0 0 0 0 0.25 0"/>
<feBlend mode="normal" in2="BackgroundImageFix" result="effect1_dropShadow"/>
<feBlend mode="normal" in="SourceGraphic" in2="effect1_dropShadow" result="shape"/>
</filter>
<filter id="filter2_d" x="187" y="0" width="132" height="132" filterUnits="userSpaceOnUse" color-interpolation-filters="sRGB">
<feFlood flood-opacity="0" result="BackgroundImageFix"/>
<feColorMatrix in="SourceAlpha" type="matrix" values="0 0 0 0 0 0 0 0 0 0 0 0 0 0 0 0 0 0 127 0"/>
<feOffset dy="4"/>
<feGaussianBlur stdDeviation="2"/>
<feColorMatrix type="matrix" values="0 0 0 0 0 0 0 0 0 0 0 0 0 0 0 0 0 0 0.25 0"/>
<feBlend mode="normal" in2="BackgroundImageFix" result="effect1_dropShadow"/>
<feBlend mode="normal" in="SourceGraphic" in2="effect1_dropShadow" result="shape"/>
</filter>
<clipPath id="clip0">
<rect width="20" height="20" fill="white" transform="translate(39 220)"/>
</clipPath>
<clipPath id="clip1">
<rect width="30.3" height="18" fill="white" transform="translate(61 103)"/>
</clipPath>
</defs>
</svg>
