<svg width="481" height="550" viewBox="0 0 481 550" fill="none" xmlns="http://www.w3.org/2000/svg">
<g clip-path="url(#clip0)">
<path d="M87.3 92C86.5 92 85.7 92.3 85.2 92.9C84.6 93.5 84.3 94.2 84.3 95C84.3 95.8 84 96.5 83.4 97.1C82.8 97.7 82 98 81.2 98C80.4 98 79.6 97.7 79.1 97.1C78.5 96.5 78.2 95.8 78.2 95C78.2 93.8 78 92.6 77.5 91.6C77 90.5 76.4 89.5 75.5 88.7C74.7 87.9 73.7 87.2 72.5 86.7C71.5 86.2 70.3 86 69.1 86C67.9 86 66.7 86.2 65.6 86.7C64.5 87.2 63.5 87.8 62.6 88.7C61.8 89.5 61.1 90.5 60.6 91.6C60.2 92.6 60 93.8 60 95C60 95.8 60.3 96.6 60.9 97.1C61.5 97.7 62.2 98 63 98C63.8 98 64.6 97.7 65.1 97.1C65.8 96.6 66.1 95.8 66.1 95C66.1 94.2 66.4 93.5 67 92.9C67.6 92.3 68.3 92 69.1 92C69.9 92 70.7 92.3 71.2 92.9C71.8 93.5 72.1 94.2 72.1 95C72.1 97.4 73.1 99.7 74.8 101.4C76.5 103.1 78.8 104 81.2 104C83.6 104 85.9 103.1 87.6 101.4C89.3 99.7 90.3 97.4 90.3 95C90.3 94.2 90 93.4 89.4 92.9C88.9 92.3 88.1 92 87.3 92Z" fill="#5977F7"/>
</g>
<g filter="url(#filter0_d)">
<rect x="10" y="67" width="461" height="465" rx="48" fill="white"/>
</g>
<rect x="228" y="264" width="95" height="132" rx="15" fill="#E7E7E7"/>
<g clip-path="url(#clip1)">
<g filter="url(#filter1_d)">
<path d="M306.971 374.714H301.029C298.567 374.714 296.571 376.709 296.571 379.171V385.114C296.571 387.575 298.567 389.571 301.029 389.571H306.971C309.433 389.571 311.429 387.575 311.429 385.114V379.171C311.429 376.709 309.433 374.714 306.971 374.714Z" fill="black"/>
</g>
<path d="M306.971 374.714H301.029C298.567 374.714 296.571 376.709 296.571 379.171V385.114C296.571 387.575 298.567 389.571 301.029 389.571H306.971C309.433 389.571 311.429 387.575 311.429 385.114V379.171C311.429 376.709 309.433 374.714 306.971 374.714Z" fill="#5375FF"/>
<path d="M307.19 378.953C307.061 378.824 306.879 378.772 306.702 378.814L306.699 378.814L300.865 380.242C300.305 380.379 299.914 380.877 299.914 381.454V382.224C299.914 382.505 300.136 382.734 300.414 382.746L302.609 383.119C302.655 383.127 302.702 383.112 302.736 383.079L305.322 380.493C305.412 380.402 305.559 380.402 305.65 380.493C305.74 380.584 305.74 380.731 305.65 380.821L303.064 383.407C303.031 383.441 303.016 383.488 303.023 383.534L303.397 385.729C303.409 386.006 303.638 386.228 303.919 386.228H304.689C305.265 386.228 305.764 385.837 305.901 385.278L307.328 379.444L307.329 379.441C307.37 379.264 307.318 379.082 307.19 378.953Z" fill="#FBFBFB"/>
</g>
<rect x="237" y="350" width="77" height="3" rx="1.5" fill="#B0AFAF"/>
<rect x="254" y="357" width="47" height="3" rx="1.5" fill="#B0AFAF"/>
<circle cx="251" cy="289" r="11" fill="#C4C4C4"/>
<rect x="267" y="282" width="41" height="3" rx="1.5" fill="#B0AFAF"/>
<rect x="267" y="288" width="33" height="1" rx="0.5" fill="#C4C4C4"/>
<rect x="235" y="314" width="82" height="14" rx="2" fill="#E5ECFE"/>
<rect x="235" y="314" width="53" height="14" rx="2" fill="url(#paint0_linear)"/>
<g filter="url(#filter2_d)">
<rect x="238" y="375" width="50" height="14" rx="2" fill="#5375FF"/>
</g>
<path d="M249.857 384.06C250.682 384.06 251.138 383.628 251.141 382.98C251.144 382.227 250.532 382.05 249.878 381.861C249.275 381.684 248.876 381.546 248.876 381.072C248.876 380.664 249.17 380.394 249.74 380.394C250.415 380.394 250.706 380.781 250.748 381.357L251.108 381.279C251.09 380.442 250.562 380.04 249.755 380.04C249.002 380.04 248.459 380.412 248.459 381.099C248.459 381.81 249.026 382.038 249.707 382.221C250.331 382.395 250.73 382.518 250.73 382.998C250.73 383.493 250.385 383.703 249.863 383.703C249.089 383.703 248.702 383.343 248.714 382.665L248.333 382.725C248.315 383.667 249.002 384.06 249.857 384.06ZM253.4 381.063C252.923 381.063 252.566 381.3 252.386 381.669V379.812H251.993V384H252.386V382.491C252.386 381.822 252.794 381.429 253.334 381.429C253.826 381.429 254.063 381.705 254.063 382.317V384H254.456V382.26C254.456 381.474 254.108 381.063 253.4 381.063ZM256.553 384.06C257.42 384.06 257.981 383.415 257.981 382.56C257.981 381.705 257.42 381.063 256.553 381.063C255.686 381.063 255.122 381.705 255.122 382.56C255.122 383.415 255.686 384.06 256.553 384.06ZM256.553 383.709C255.926 383.709 255.521 383.22 255.521 382.56C255.521 381.9 255.926 381.414 256.553 381.414C257.177 381.414 257.582 381.9 257.582 382.56C257.582 383.22 257.177 383.709 256.553 383.709ZM262.071 381.123L261.615 382.8C261.534 383.1 261.465 383.388 261.39 383.697C261.312 383.376 261.234 383.085 261.15 382.797L260.652 381.126H260.205L259.704 382.797C259.62 383.085 259.542 383.376 259.464 383.697C259.389 383.388 259.32 383.1 259.242 382.8L258.786 381.123H258.378L259.203 384H259.701L260.25 382.185C260.316 381.966 260.367 381.75 260.427 381.522C260.487 381.75 260.541 381.966 260.607 382.185L261.153 384H261.651L262.476 381.123H262.071ZM267.556 381.063C267.058 381.063 266.734 381.303 266.578 381.681C266.464 381.276 266.191 381.063 265.717 381.063C265.234 381.063 264.928 381.285 264.772 381.639L264.778 381.123H264.403V384H264.793V382.482C264.793 381.81 265.105 381.42 265.648 381.42C266.107 381.42 266.257 381.699 266.257 382.302V384H266.644V382.482C266.644 381.81 266.953 381.42 267.496 381.42C267.958 381.42 268.108 381.708 268.108 382.302V384H268.495V382.26C268.495 381.492 268.225 381.063 267.556 381.063ZM270.598 384.06C271.465 384.06 272.026 383.415 272.026 382.56C272.026 381.705 271.465 381.063 270.598 381.063C269.731 381.063 269.167 381.705 269.167 382.56C269.167 383.415 269.731 384.06 270.598 384.06ZM270.598 383.709C269.971 383.709 269.566 383.22 269.566 382.56C269.566 381.9 269.971 381.414 270.598 381.414C271.222 381.414 271.627 381.9 271.627 382.56C271.627 383.22 271.222 383.709 270.598 383.709ZM273.116 381.711L273.122 381.123H272.747V384H273.134V382.476C273.134 381.726 273.707 381.354 274.268 381.501L274.295 381.09C273.764 380.973 273.311 381.207 273.116 381.711ZM277.214 382.503C277.214 381.642 276.743 381.063 275.933 381.063C275.12 381.063 274.598 381.72 274.598 382.554C274.598 383.406 275.141 384.06 275.978 384.06C276.56 384.06 276.992 383.79 277.16 383.277L276.851 383.169C276.713 383.511 276.443 383.718 275.978 383.718C275.402 383.718 275.039 383.289 274.994 382.674H277.211C277.214 382.614 277.214 382.557 277.214 382.503ZM275.933 381.399C276.467 381.399 276.779 381.75 276.821 382.35H275.003C275.063 381.789 275.396 381.399 275.933 381.399Z" fill="white"/>
<path d="M244.804 319.1L243.745 321.791C243.643 322.055 243.574 322.253 243.496 322.481C243.418 322.25 243.331 322.007 243.247 321.791L242.188 319.1H241.567V323H241.96V320.294C241.96 320.03 241.957 319.793 241.954 319.535C242.041 319.796 242.131 320.042 242.239 320.312L243.316 323H243.676L244.753 320.312C244.858 320.045 244.948 319.802 245.038 319.529C245.035 319.802 245.032 320.036 245.032 320.294V323H245.425V319.1H244.804ZM248.911 322.697C248.698 322.697 248.668 322.541 248.668 322.388V321.236C248.668 320.684 248.482 320.063 247.534 320.063C246.925 320.063 246.532 320.333 246.37 320.876L246.724 320.993C246.85 320.6 247.072 320.402 247.537 320.402C248.113 320.402 248.281 320.762 248.281 321.233V321.443C248.062 321.416 247.843 321.401 247.642 321.401C246.88 321.401 246.295 321.599 246.295 322.223C246.295 322.751 246.7 323.06 247.282 323.06C247.756 323.06 248.122 322.847 248.311 322.541C248.335 322.856 248.47 323.03 248.83 323.03C248.914 323.03 248.992 323.021 249.079 323.003V322.682C249.019 322.694 248.968 322.697 248.911 322.697ZM247.33 322.718C246.985 322.718 246.718 322.565 246.718 322.214C246.718 321.836 247.081 321.713 247.654 321.713C247.852 321.713 248.062 321.725 248.281 321.749V322.226C248.089 322.532 247.741 322.718 247.33 322.718ZM251.262 322.571C251.142 322.652 251.019 322.691 250.857 322.691C250.5 322.691 250.338 322.496 250.338 322.064V320.456H251.328V320.123H250.338V319.187L249.948 319.241V320.123H249.327V320.456H249.948V322.109C249.948 322.763 250.284 323.045 250.812 323.045C251.043 323.045 251.226 322.988 251.394 322.88L251.262 322.571ZM253.164 323.06C253.794 323.06 254.268 322.757 254.412 322.112L254.064 322.04C253.941 322.463 253.662 322.712 253.167 322.712C252.525 322.712 252.171 322.214 252.171 321.56C252.171 320.909 252.525 320.411 253.167 320.411C253.662 320.411 253.941 320.66 254.064 321.083L254.412 321.011C254.268 320.366 253.794 320.063 253.164 320.063C252.303 320.063 251.772 320.714 251.772 321.56C251.772 322.406 252.303 323.06 253.164 323.06ZM256.583 320.063C256.106 320.063 255.749 320.3 255.569 320.669V318.812H255.176V323H255.569V321.491C255.569 320.822 255.977 320.429 256.517 320.429C257.009 320.429 257.246 320.705 257.246 321.317V323H257.639V321.26C257.639 320.474 257.291 320.063 256.583 320.063Z" fill="white"/>
<path d="M264.001 320.399C263.668 320.399 263.428 320.471 263.215 320.66L263.272 319.964H264.994V319.1H262.432L262.288 321.062L263.14 321.518C263.26 321.326 263.437 321.224 263.662 321.224C264.022 321.224 264.181 321.398 264.181 321.698C264.181 322.016 263.983 322.184 263.674 322.184C263.362 322.184 263.116 322.022 263.071 321.638L262.075 321.722C262.156 322.586 262.732 323.054 263.671 323.054C264.586 323.054 265.237 322.508 265.237 321.698C265.237 320.918 264.799 320.399 264.001 320.399ZM267.405 320.399C267.072 320.399 266.832 320.471 266.619 320.66L266.676 319.964H268.398V319.1H265.836L265.692 321.062L266.544 321.518C266.664 321.326 266.841 321.224 267.066 321.224C267.426 321.224 267.585 321.398 267.585 321.698C267.585 322.016 267.387 322.184 267.078 322.184C266.766 322.184 266.52 322.022 266.475 321.638L265.479 321.722C265.56 322.586 266.136 323.054 267.075 323.054C267.99 323.054 268.641 322.508 268.641 321.698C268.641 320.918 268.203 320.399 267.405 320.399ZM269.937 321.008C270.525 321.008 270.909 320.6 270.909 320.03C270.909 319.454 270.525 319.046 269.937 319.046C269.349 319.046 268.959 319.454 268.959 320.03C268.959 320.6 269.349 321.008 269.937 321.008ZM269.343 323H270.207L272.763 319.1H271.899L269.343 323ZM269.937 320.33C269.775 320.33 269.679 320.216 269.679 320.03C269.679 319.838 269.775 319.718 269.937 319.718C270.093 319.718 270.189 319.838 270.189 320.03C270.189 320.216 270.093 320.33 269.937 320.33ZM272.163 323.054C272.751 323.054 273.141 322.646 273.141 322.07C273.141 321.5 272.751 321.092 272.163 321.092C271.575 321.092 271.191 321.5 271.191 322.07C271.191 322.646 271.575 323.054 272.163 323.054ZM272.163 322.382C272.007 322.382 271.911 322.262 271.911 322.07C271.911 321.884 272.007 321.77 272.163 321.77C272.325 321.77 272.415 321.884 272.415 322.07C272.415 322.262 272.325 322.382 272.163 322.382Z" fill="white"/>
<rect x="235.2" y="336.2" width="22.6" height="5.6" rx="2.8" stroke="#5375FF" stroke-width="0.4"/>
<rect x="263.2" y="336.2" width="18.6" height="5.6" rx="2.8" stroke="#5375FF" stroke-width="0.4"/>
<rect x="291.2" y="336.2" width="9.6" height="5.6" rx="2.8" stroke="#5375FF" stroke-width="0.4"/>
<rect x="346" y="264" width="95" height="132" rx="15" fill="#E7E7E7"/>
<g clip-path="url(#clip2)">
<g filter="url(#filter3_d)">
<path d="M424.971 374.714H419.029C416.567 374.714 414.571 376.709 414.571 379.171V385.114C414.571 387.575 416.567 389.571 419.029 389.571H424.971C427.433 389.571 429.429 387.575 429.429 385.114V379.171C429.429 376.709 427.433 374.714 424.971 374.714Z" fill="black"/>
</g>
<path d="M424.971 374.714H419.029C416.567 374.714 414.571 376.709 414.571 379.171V385.114C414.571 387.575 416.567 389.571 419.029 389.571H424.971C427.433 389.571 429.429 387.575 429.429 385.114V379.171C429.429 376.709 427.433 374.714 424.971 374.714Z" fill="#5375FF"/>
<path d="M425.19 378.953C425.061 378.824 424.879 378.772 424.702 378.814L424.699 378.814L418.866 380.242C418.305 380.379 417.914 380.877 417.914 381.454V382.224C417.914 382.505 418.136 382.734 418.414 382.746L420.609 383.119C420.655 383.127 420.702 383.112 420.736 383.079L423.322 380.493C423.412 380.402 423.559 380.402 423.65 380.493C423.741 380.584 423.741 380.731 423.65 380.821L421.064 383.407C421.031 383.441 421.016 383.488 421.023 383.534L421.397 385.729C421.409 386.006 421.638 386.228 421.919 386.228H422.689C423.265 386.228 423.764 385.837 423.901 385.278L425.328 379.444L425.329 379.441C425.37 379.264 425.318 379.082 425.19 378.953Z" fill="#FBFBFB"/>
</g>
<rect x="355" y="350" width="77" height="3" rx="1.5" fill="#B0AFAF"/>
<rect x="372" y="357" width="47" height="3" rx="1.5" fill="#B0AFAF"/>
<circle cx="369" cy="289" r="11" fill="#C4C4C4"/>
<rect x="385" y="282" width="41" height="3" rx="1.5" fill="#B0AFAF"/>
<rect x="385" y="288" width="33" height="1" rx="0.5" fill="#C4C4C4"/>
<rect x="353" y="314" width="82" height="14" rx="2" fill="#E5ECFE"/>
<rect x="353" y="314" width="45" height="14" rx="2" fill="url(#paint1_linear)"/>
<g filter="url(#filter4_d)">
<rect x="356" y="375" width="50" height="14" rx="2" fill="#5375FF"/>
</g>
<path d="M367.857 384.06C368.682 384.06 369.138 383.628 369.141 382.98C369.144 382.227 368.532 382.05 367.878 381.861C367.275 381.684 366.876 381.546 366.876 381.072C366.876 380.664 367.17 380.394 367.74 380.394C368.415 380.394 368.706 380.781 368.748 381.357L369.108 381.279C369.09 380.442 368.562 380.04 367.755 380.04C367.002 380.04 366.459 380.412 366.459 381.099C366.459 381.81 367.026 382.038 367.707 382.221C368.331 382.395 368.73 382.518 368.73 382.998C368.73 383.493 368.385 383.703 367.863 383.703C367.089 383.703 366.702 383.343 366.714 382.665L366.333 382.725C366.315 383.667 367.002 384.06 367.857 384.06ZM371.4 381.063C370.923 381.063 370.566 381.3 370.386 381.669V379.812H369.993V384H370.386V382.491C370.386 381.822 370.794 381.429 371.334 381.429C371.826 381.429 372.063 381.705 372.063 382.317V384H372.456V382.26C372.456 381.474 372.108 381.063 371.4 381.063ZM374.553 384.06C375.42 384.06 375.981 383.415 375.981 382.56C375.981 381.705 375.42 381.063 374.553 381.063C373.686 381.063 373.122 381.705 373.122 382.56C373.122 383.415 373.686 384.06 374.553 384.06ZM374.553 383.709C373.926 383.709 373.521 383.22 373.521 382.56C373.521 381.9 373.926 381.414 374.553 381.414C375.177 381.414 375.582 381.9 375.582 382.56C375.582 383.22 375.177 383.709 374.553 383.709ZM380.071 381.123L379.615 382.8C379.534 383.1 379.465 383.388 379.39 383.697C379.312 383.376 379.234 383.085 379.15 382.797L378.652 381.126H378.205L377.704 382.797C377.62 383.085 377.542 383.376 377.464 383.697C377.389 383.388 377.32 383.1 377.242 382.8L376.786 381.123H376.378L377.203 384H377.701L378.25 382.185C378.316 381.966 378.367 381.75 378.427 381.522C378.487 381.75 378.541 381.966 378.607 382.185L379.153 384H379.651L380.476 381.123H380.071ZM385.556 381.063C385.058 381.063 384.734 381.303 384.578 381.681C384.464 381.276 384.191 381.063 383.717 381.063C383.234 381.063 382.928 381.285 382.772 381.639L382.778 381.123H382.403V384H382.793V382.482C382.793 381.81 383.105 381.42 383.648 381.42C384.107 381.42 384.257 381.699 384.257 382.302V384H384.644V382.482C384.644 381.81 384.953 381.42 385.496 381.42C385.958 381.42 386.108 381.708 386.108 382.302V384H386.495V382.26C386.495 381.492 386.225 381.063 385.556 381.063ZM388.598 384.06C389.465 384.06 390.026 383.415 390.026 382.56C390.026 381.705 389.465 381.063 388.598 381.063C387.731 381.063 387.167 381.705 387.167 382.56C387.167 383.415 387.731 384.06 388.598 384.06ZM388.598 383.709C387.971 383.709 387.566 383.22 387.566 382.56C387.566 381.9 387.971 381.414 388.598 381.414C389.222 381.414 389.627 381.9 389.627 382.56C389.627 383.22 389.222 383.709 388.598 383.709ZM391.116 381.711L391.122 381.123H390.747V384H391.134V382.476C391.134 381.726 391.707 381.354 392.268 381.501L392.295 381.09C391.764 380.973 391.311 381.207 391.116 381.711ZM395.214 382.503C395.214 381.642 394.743 381.063 393.933 381.063C393.12 381.063 392.598 381.72 392.598 382.554C392.598 383.406 393.141 384.06 393.978 384.06C394.56 384.06 394.992 383.79 395.16 383.277L394.851 383.169C394.713 383.511 394.443 383.718 393.978 383.718C393.402 383.718 393.039 383.289 392.994 382.674H395.211C395.214 382.614 395.214 382.557 395.214 382.503ZM393.933 381.399C394.467 381.399 394.779 381.75 394.821 382.35H393.003C393.063 381.789 393.396 381.399 393.933 381.399Z" fill="white"/>
<path d="M362.804 319.1L361.745 321.791C361.643 322.055 361.574 322.253 361.496 322.481C361.418 322.25 361.331 322.007 361.247 321.791L360.188 319.1H359.567V323H359.96V320.294C359.96 320.03 359.957 319.793 359.954 319.535C360.041 319.796 360.131 320.042 360.239 320.312L361.316 323H361.676L362.753 320.312C362.858 320.045 362.948 319.802 363.038 319.529C363.035 319.802 363.032 320.036 363.032 320.294V323H363.425V319.1H362.804ZM366.911 322.697C366.698 322.697 366.668 322.541 366.668 322.388V321.236C366.668 320.684 366.482 320.063 365.534 320.063C364.925 320.063 364.532 320.333 364.37 320.876L364.724 320.993C364.85 320.6 365.072 320.402 365.537 320.402C366.113 320.402 366.281 320.762 366.281 321.233V321.443C366.062 321.416 365.843 321.401 365.642 321.401C364.88 321.401 364.295 321.599 364.295 322.223C364.295 322.751 364.7 323.06 365.282 323.06C365.756 323.06 366.122 322.847 366.311 322.541C366.335 322.856 366.47 323.03 366.83 323.03C366.914 323.03 366.992 323.021 367.079 323.003V322.682C367.019 322.694 366.968 322.697 366.911 322.697ZM365.33 322.718C364.985 322.718 364.718 322.565 364.718 322.214C364.718 321.836 365.081 321.713 365.654 321.713C365.852 321.713 366.062 321.725 366.281 321.749V322.226C366.089 322.532 365.741 322.718 365.33 322.718ZM369.262 322.571C369.142 322.652 369.019 322.691 368.857 322.691C368.5 322.691 368.338 322.496 368.338 322.064V320.456H369.328V320.123H368.338V319.187L367.948 319.241V320.123H367.327V320.456H367.948V322.109C367.948 322.763 368.284 323.045 368.812 323.045C369.043 323.045 369.226 322.988 369.394 322.88L369.262 322.571ZM371.164 323.06C371.794 323.06 372.268 322.757 372.412 322.112L372.064 322.04C371.941 322.463 371.662 322.712 371.167 322.712C370.525 322.712 370.171 322.214 370.171 321.56C370.171 320.909 370.525 320.411 371.167 320.411C371.662 320.411 371.941 320.66 372.064 321.083L372.412 321.011C372.268 320.366 371.794 320.063 371.164 320.063C370.303 320.063 369.772 320.714 369.772 321.56C369.772 322.406 370.303 323.06 371.164 323.06ZM374.583 320.063C374.106 320.063 373.749 320.3 373.569 320.669V318.812H373.176V323H373.569V321.491C373.569 320.822 373.977 320.429 374.517 320.429C375.009 320.429 375.246 320.705 375.246 321.317V323H375.639V321.26C375.639 320.474 375.291 320.063 374.583 320.063Z" fill="white"/>
<path d="M383.567 321.485H383.036V319.07H381.389L380.078 321.557L380.204 322.31L382.013 322.301V323H383.036V322.298L383.567 322.295V321.485ZM381.215 321.485L381.473 320.972C381.674 320.576 381.869 320.18 382.04 319.742C382.019 320.111 382.013 320.471 382.013 320.843V321.485H381.215ZM385.513 323.054C386.635 323.054 387.175 322.349 387.175 321.05C387.175 319.748 386.605 319.046 385.513 319.046C384.421 319.046 383.851 319.748 383.851 321.05C383.851 322.349 384.391 323.054 385.513 323.054ZM385.513 322.208C385.075 322.208 384.874 321.767 384.874 321.05C384.874 320.333 385.075 319.892 385.513 319.892C385.951 319.892 386.152 320.333 386.152 321.05C386.152 321.767 385.951 322.208 385.513 322.208ZM388.47 321.008C389.058 321.008 389.442 320.6 389.442 320.03C389.442 319.454 389.058 319.046 388.47 319.046C387.882 319.046 387.492 319.454 387.492 320.03C387.492 320.6 387.882 321.008 388.47 321.008ZM387.876 323H388.74L391.296 319.1H390.432L387.876 323ZM388.47 320.33C388.308 320.33 388.212 320.216 388.212 320.03C388.212 319.838 388.308 319.718 388.47 319.718C388.626 319.718 388.722 319.838 388.722 320.03C388.722 320.216 388.626 320.33 388.47 320.33ZM390.696 323.054C391.284 323.054 391.674 322.646 391.674 322.07C391.674 321.5 391.284 321.092 390.696 321.092C390.108 321.092 389.724 321.5 389.724 322.07C389.724 322.646 390.108 323.054 390.696 323.054ZM390.696 322.382C390.54 322.382 390.444 322.262 390.444 322.07C390.444 321.884 390.54 321.77 390.696 321.77C390.858 321.77 390.948 321.884 390.948 322.07C390.948 322.262 390.858 322.382 390.696 322.382Z" fill="white"/>
<rect x="353.2" y="336.2" width="22.6" height="5.6" rx="2.8" stroke="#5375FF" stroke-width="0.4"/>
<rect x="381.2" y="336.2" width="18.6" height="5.6" rx="2.8" stroke="#5375FF" stroke-width="0.4"/>
<rect x="409.2" y="336.2" width="9.6" height="5.6" rx="2.8" stroke="#5375FF" stroke-width="0.4"/>
<rect x="110" y="264" width="95" height="132" rx="15" fill="#E7E7E7"/>
<g clip-path="url(#clip3)">
<g filter="url(#filter5_d)">
<path d="M188.971 374.714H183.029C180.567 374.714 178.571 376.709 178.571 379.171V385.114C178.571 387.575 180.567 389.571 183.029 389.571H188.971C191.433 389.571 193.429 387.575 193.429 385.114V379.171C193.429 376.709 191.433 374.714 188.971 374.714Z" fill="black"/>
</g>
<path d="M188.971 374.714H183.029C180.567 374.714 178.571 376.709 178.571 379.171V385.114C178.571 387.575 180.567 389.571 183.029 389.571H188.971C191.433 389.571 193.429 387.575 193.429 385.114V379.171C193.429 376.709 191.433 374.714 188.971 374.714Z" fill="#5375FF"/>
<path d="M189.19 378.953C189.061 378.824 188.879 378.772 188.702 378.814L188.699 378.814L182.865 380.242C182.305 380.379 181.914 380.877 181.914 381.454V382.224C181.914 382.505 182.136 382.734 182.414 382.746L184.609 383.119C184.655 383.127 184.702 383.112 184.736 383.079L187.322 380.493C187.412 380.402 187.559 380.402 187.65 380.493C187.74 380.584 187.74 380.731 187.65 380.821L185.064 383.407C185.031 383.441 185.016 383.488 185.023 383.534L185.397 385.729C185.409 386.006 185.638 386.228 185.919 386.228H186.689C187.265 386.228 187.764 385.837 187.901 385.278L189.328 379.444L189.329 379.441C189.37 379.264 189.318 379.082 189.19 378.953Z" fill="#FBFBFB"/>
</g>
<rect x="119" y="350" width="77" height="3" rx="1.5" fill="#B0AFAF"/>
<rect x="136" y="357" width="47" height="3" rx="1.5" fill="#B0AFAF"/>
<circle cx="133" cy="289" r="11" fill="#C4C4C4"/>
<rect x="149" y="282" width="41" height="3" rx="1.5" fill="#B0AFAF"/>
<rect x="149" y="288" width="33" height="1" rx="0.5" fill="#C4C4C4"/>
<rect x="117" y="314" width="82" height="14" rx="2" fill="#E5ECFE"/>
<rect x="117" y="314" width="71" height="14" rx="2" fill="url(#paint2_linear)"/>
<g filter="url(#filter6_d)">
<rect x="120" y="375" width="50" height="14" rx="2" fill="#5375FF"/>
</g>
<path d="M131.857 384.06C132.682 384.06 133.138 383.628 133.141 382.98C133.144 382.227 132.532 382.05 131.878 381.861C131.275 381.684 130.876 381.546 130.876 381.072C130.876 380.664 131.17 380.394 131.74 380.394C132.415 380.394 132.706 380.781 132.748 381.357L133.108 381.279C133.09 380.442 132.562 380.04 131.755 380.04C131.002 380.04 130.459 380.412 130.459 381.099C130.459 381.81 131.026 382.038 131.707 382.221C132.331 382.395 132.73 382.518 132.73 382.998C132.73 383.493 132.385 383.703 131.863 383.703C131.089 383.703 130.702 383.343 130.714 382.665L130.333 382.725C130.315 383.667 131.002 384.06 131.857 384.06ZM135.4 381.063C134.923 381.063 134.566 381.3 134.386 381.669V379.812H133.993V384H134.386V382.491C134.386 381.822 134.794 381.429 135.334 381.429C135.826 381.429 136.063 381.705 136.063 382.317V384H136.456V382.26C136.456 381.474 136.108 381.063 135.4 381.063ZM138.553 384.06C139.42 384.06 139.981 383.415 139.981 382.56C139.981 381.705 139.42 381.063 138.553 381.063C137.686 381.063 137.122 381.705 137.122 382.56C137.122 383.415 137.686 384.06 138.553 384.06ZM138.553 383.709C137.926 383.709 137.521 383.22 137.521 382.56C137.521 381.9 137.926 381.414 138.553 381.414C139.177 381.414 139.582 381.9 139.582 382.56C139.582 383.22 139.177 383.709 138.553 383.709ZM144.071 381.123L143.615 382.8C143.534 383.1 143.465 383.388 143.39 383.697C143.312 383.376 143.234 383.085 143.15 382.797L142.652 381.126H142.205L141.704 382.797C141.62 383.085 141.542 383.376 141.464 383.697C141.389 383.388 141.32 383.1 141.242 382.8L140.786 381.123H140.378L141.203 384H141.701L142.25 382.185C142.316 381.966 142.367 381.75 142.427 381.522C142.487 381.75 142.541 381.966 142.607 382.185L143.153 384H143.651L144.476 381.123H144.071ZM149.556 381.063C149.058 381.063 148.734 381.303 148.578 381.681C148.464 381.276 148.191 381.063 147.717 381.063C147.234 381.063 146.928 381.285 146.772 381.639L146.778 381.123H146.403V384H146.793V382.482C146.793 381.81 147.105 381.42 147.648 381.42C148.107 381.42 148.257 381.699 148.257 382.302V384H148.644V382.482C148.644 381.81 148.953 381.42 149.496 381.42C149.958 381.42 150.108 381.708 150.108 382.302V384H150.495V382.26C150.495 381.492 150.225 381.063 149.556 381.063ZM152.598 384.06C153.465 384.06 154.026 383.415 154.026 382.56C154.026 381.705 153.465 381.063 152.598 381.063C151.731 381.063 151.167 381.705 151.167 382.56C151.167 383.415 151.731 384.06 152.598 384.06ZM152.598 383.709C151.971 383.709 151.566 383.22 151.566 382.56C151.566 381.9 151.971 381.414 152.598 381.414C153.222 381.414 153.627 381.9 153.627 382.56C153.627 383.22 153.222 383.709 152.598 383.709ZM155.116 381.711L155.122 381.123H154.747V384H155.134V382.476C155.134 381.726 155.707 381.354 156.268 381.501L156.295 381.09C155.764 380.973 155.311 381.207 155.116 381.711ZM159.214 382.503C159.214 381.642 158.743 381.063 157.933 381.063C157.12 381.063 156.598 381.72 156.598 382.554C156.598 383.406 157.141 384.06 157.978 384.06C158.56 384.06 158.992 383.79 159.16 383.277L158.851 383.169C158.713 383.511 158.443 383.718 157.978 383.718C157.402 383.718 157.039 383.289 156.994 382.674H159.211C159.214 382.614 159.214 382.557 159.214 382.503ZM157.933 381.399C158.467 381.399 158.779 381.75 158.821 382.35H157.003C157.063 381.789 157.396 381.399 157.933 381.399Z" fill="white"/>
<path d="M126.804 319.1L125.745 321.791C125.643 322.055 125.574 322.253 125.496 322.481C125.418 322.25 125.331 322.007 125.247 321.791L124.188 319.1H123.567V323H123.96V320.294C123.96 320.03 123.957 319.793 123.954 319.535C124.041 319.796 124.131 320.042 124.239 320.312L125.316 323H125.676L126.753 320.312C126.858 320.045 126.948 319.802 127.038 319.529C127.035 319.802 127.032 320.036 127.032 320.294V323H127.425V319.1H126.804ZM130.911 322.697C130.698 322.697 130.668 322.541 130.668 322.388V321.236C130.668 320.684 130.482 320.063 129.534 320.063C128.925 320.063 128.532 320.333 128.37 320.876L128.724 320.993C128.85 320.6 129.072 320.402 129.537 320.402C130.113 320.402 130.281 320.762 130.281 321.233V321.443C130.062 321.416 129.843 321.401 129.642 321.401C128.88 321.401 128.295 321.599 128.295 322.223C128.295 322.751 128.7 323.06 129.282 323.06C129.756 323.06 130.122 322.847 130.311 322.541C130.335 322.856 130.47 323.03 130.83 323.03C130.914 323.03 130.992 323.021 131.079 323.003V322.682C131.019 322.694 130.968 322.697 130.911 322.697ZM129.33 322.718C128.985 322.718 128.718 322.565 128.718 322.214C128.718 321.836 129.081 321.713 129.654 321.713C129.852 321.713 130.062 321.725 130.281 321.749V322.226C130.089 322.532 129.741 322.718 129.33 322.718ZM133.262 322.571C133.142 322.652 133.019 322.691 132.857 322.691C132.5 322.691 132.338 322.496 132.338 322.064V320.456H133.328V320.123H132.338V319.187L131.948 319.241V320.123H131.327V320.456H131.948V322.109C131.948 322.763 132.284 323.045 132.812 323.045C133.043 323.045 133.226 322.988 133.394 322.88L133.262 322.571ZM135.164 323.06C135.794 323.06 136.268 322.757 136.412 322.112L136.064 322.04C135.941 322.463 135.662 322.712 135.167 322.712C134.525 322.712 134.171 322.214 134.171 321.56C134.171 320.909 134.525 320.411 135.167 320.411C135.662 320.411 135.941 320.66 136.064 321.083L136.412 321.011C136.268 320.366 135.794 320.063 135.164 320.063C134.303 320.063 133.772 320.714 133.772 321.56C133.772 322.406 134.303 323.06 135.164 323.06ZM138.583 320.063C138.106 320.063 137.749 320.3 137.569 320.669V318.812H137.176V323H137.569V321.491C137.569 320.822 137.977 320.429 138.517 320.429C139.009 320.429 139.246 320.705 139.246 321.317V323H139.639V321.26C139.639 320.474 139.291 320.063 138.583 320.063Z" fill="white"/>
<path d="M146.583 320.957C146.976 320.795 147.198 320.501 147.198 320.117C147.198 319.451 146.598 319.046 145.743 319.046C144.888 319.046 144.288 319.451 144.288 320.117C144.288 320.501 144.51 320.795 144.903 320.957C144.432 321.125 144.174 321.455 144.174 321.902C144.174 322.595 144.852 323.054 145.743 323.054C146.634 323.054 147.312 322.595 147.312 321.902C147.312 321.455 147.054 321.125 146.583 320.957ZM145.743 319.796C146.04 319.796 146.187 319.961 146.187 320.189C146.187 320.444 146.019 320.6 145.743 320.6C145.467 320.6 145.299 320.444 145.299 320.189C145.299 319.961 145.446 319.796 145.743 319.796ZM145.743 322.298C145.404 322.298 145.197 322.094 145.197 321.806C145.197 321.506 145.398 321.32 145.743 321.32C146.088 321.32 146.289 321.506 146.289 321.806C146.289 322.094 146.082 322.298 145.743 322.298ZM149.157 319.046C148.212 319.046 147.621 319.628 147.621 320.429C147.621 321.137 148.086 321.68 148.848 321.68C149.28 321.68 149.61 321.506 149.784 321.161C149.751 321.83 149.412 322.154 148.854 322.154C148.539 322.154 148.278 322.082 148.035 321.932L147.723 322.76C148.041 322.952 148.44 323.054 148.869 323.054C150.129 323.054 150.735 322.193 150.735 320.915C150.735 319.718 150.18 319.046 149.157 319.046ZM149.148 320.84C148.839 320.84 148.623 320.681 148.623 320.381C148.623 320.081 148.842 319.904 149.172 319.904C149.598 319.904 149.739 320.195 149.733 320.567C149.601 320.75 149.382 320.84 149.148 320.84ZM152.03 321.008C152.618 321.008 153.002 320.6 153.002 320.03C153.002 319.454 152.618 319.046 152.03 319.046C151.442 319.046 151.052 319.454 151.052 320.03C151.052 320.6 151.442 321.008 152.03 321.008ZM151.436 323H152.3L154.856 319.1H153.992L151.436 323ZM152.03 320.33C151.868 320.33 151.772 320.216 151.772 320.03C151.772 319.838 151.868 319.718 152.03 319.718C152.186 319.718 152.282 319.838 152.282 320.03C152.282 320.216 152.186 320.33 152.03 320.33ZM154.256 323.054C154.844 323.054 155.234 322.646 155.234 322.07C155.234 321.5 154.844 321.092 154.256 321.092C153.668 321.092 153.284 321.5 153.284 322.07C153.284 322.646 153.668 323.054 154.256 323.054ZM154.256 322.382C154.1 322.382 154.004 322.262 154.004 322.07C154.004 321.884 154.1 321.77 154.256 321.77C154.418 321.77 154.508 321.884 154.508 322.07C154.508 322.262 154.418 322.382 154.256 322.382Z" fill="white"/>
<rect x="117.2" y="336.2" width="22.6" height="5.6" rx="2.8" stroke="#5375FF" stroke-width="0.4"/>
<rect x="145.2" y="336.2" width="18.6" height="5.6" rx="2.8" stroke="#5375FF" stroke-width="0.4"/>
<rect x="173.2" y="336.2" width="9.6" height="5.6" rx="2.8" stroke="#5375FF" stroke-width="0.4"/>
<path d="M65 465.654V462.346L62.288 461.812C62.141 461.321 61.943 460.846 61.699 460.394L63.212 458.124L60.875 455.788L58.606 457.301C58.154 457.057 57.679 456.86 57.188 456.711L56.654 454H53.346L52.812 456.712C52.321 456.859 51.846 457.057 51.394 457.301L49.124 455.788L46.788 458.125L48.301 460.394C48.057 460.846 47.86 461.321 47.711 461.812L45 462.346V465.654L47.712 466.188C47.859 466.679 48.057 467.154 48.301 467.606L46.788 469.876L49.125 472.212L51.394 470.699C51.846 470.943 52.321 471.141 52.812 471.289L53.346 474H56.654L57.188 471.288C57.679 471.141 58.154 470.943 58.606 470.699L60.876 472.212L63.212 469.875L61.699 467.606C61.943 467.154 62.141 466.679 62.289 466.188L65 465.654ZM61.704 469.726L60.726 470.704L58.645 469.316C57.589 469.956 57.239 470.078 56.18 470.34L55.69 472.828H54.31L53.82 470.34C52.615 470.042 52.282 469.878 51.355 469.316L49.275 470.704L48.296 469.726L49.684 467.645C49.039 466.58 48.92 466.23 48.66 465.18L46.172 464.69V463.31L48.66 462.82C48.916 461.784 49.033 461.428 49.684 460.355L48.296 458.275L49.274 457.296L51.355 458.684C52.42 458.038 52.772 457.919 53.82 457.66L54.31 455.172H55.69L56.18 457.66C57.387 457.958 57.72 458.123 58.645 458.684L60.725 457.296L61.704 458.274L60.316 460.355C60.956 461.409 61.078 461.759 61.34 462.82L63.828 463.31V464.69L61.34 465.18C61.042 466.387 60.878 466.719 60.316 467.645L61.704 469.725V469.726Z" fill="#0C111C"/>
<path d="M55 459.898C52.738 459.898 50.898 461.738 50.898 464C50.898 466.262 52.738 468.102 55 468.102C57.262 468.102 59.102 466.262 59.102 464C59.102 461.738 57.262 459.898 55 459.898ZM55 466.93C53.385 466.93 52.07 465.615 52.07 464C52.07 462.385 53.385 461.07 55 461.07C56.615 461.07 57.93 462.385 57.93 464C57.93 465.615 56.615 466.93 55 466.93Z" fill="#0C111C"/>
<g clip-path="url(#clip4)">
<path d="M64.099 325.478C64.403 322.155 61.759 319.667 58.724 319.667C57.355 319.667 56.054 320.167 55.061 321.057C54.069 320.167 52.767 319.667 51.399 319.667C47.155 319.667 44.039 324.352 47.459 329.017C48.211 330.043 49.253 331.037 50.554 331.972C52.741 333.542 54.898 334.402 54.989 334.437C55.148 334.5 55.313 334.497 55.486 334.424C57.116 335.589 58.721 336.236 58.856 336.289C59.006 336.348 59.175 336.349 59.329 336.286C59.396 336.259 60.992 335.598 62.609 334.393C63.574 333.673 64.347 332.907 64.906 332.115C66.713 329.555 66.169 326.818 64.099 325.478ZM51.399 320.901C52.632 320.901 53.794 321.426 54.586 322.342C54.836 322.631 55.287 322.631 55.536 322.342C56.329 321.427 57.49 320.902 58.724 320.902C60.999 320.902 62.886 322.692 62.874 324.935C61.551 324.582 60.074 324.863 58.968 325.794C58.201 325.148 57.218 324.788 56.188 324.788C52.888 324.788 50.395 328.442 53.058 332.103C44.002 326.924 47.22 320.901 51.4 320.901H51.399ZM59.084 335.041C56.558 333.927 53.186 331.669 53.186 328.921C53.186 327.322 54.532 326.022 56.188 326.022C57.08 326.022 57.92 326.402 58.493 327.064C58.743 327.353 59.194 327.353 59.443 327.064C60.016 326.402 60.856 326.022 61.749 326.022C63.404 326.022 64.75 327.322 64.75 328.92C64.75 332.24 60.182 334.538 59.084 335.042V335.041Z" fill="#0C111C"/>
</g>
<path d="M61.806 375.253V368.41C61.806 367.357 60.938 366.5 59.871 366.5H47.935C46.868 366.5 46 367.357 46 368.41V375.253C46 376.306 46.868 377.163 47.935 377.163H49.673L49.71 378.887C49.72 379.405 50.324 379.694 50.743 379.382L53.726 377.163H59.871C60.938 377.163 61.806 376.306 61.806 375.253ZM53.51 375.89C53.37 375.89 53.234 375.935 53.122 376.018L50.973 377.617L50.949 376.513C50.942 376.167 50.655 375.89 50.304 375.89H47.935C47.58 375.89 47.29 375.604 47.29 375.253V368.41C47.29 368.059 47.58 367.773 47.935 367.773H59.871C60.227 367.773 60.516 368.059 60.516 368.41V375.253C60.516 375.604 60.226 375.89 59.871 375.89H53.511H53.51ZM66 372.389V377.64C66 378.694 65.132 379.55 64.065 379.55H62.325L62.29 380.88C62.281 381.225 61.994 381.5 61.645 381.5C61.388 381.5 61.531 381.544 58.305 379.55H55.355C54.999 379.55 54.71 379.265 54.71 378.914C54.71 378.562 54.999 378.277 55.355 378.277C58.777 378.277 58.617 378.241 58.832 378.374L61.029 379.731L61.051 378.897C61.06 378.552 61.346 378.277 61.696 378.277H64.065C64.42 378.277 64.71 377.991 64.71 377.64V372.388C64.71 372.038 64.42 371.752 64.065 371.752C63.708 371.752 63.419 371.467 63.419 371.115C63.419 370.764 63.709 370.479 64.065 370.479C65.132 370.479 66 371.335 66 372.389ZM57.935 370.678C57.935 371.029 57.647 371.314 57.29 371.314H50.516C50.16 371.314 49.871 371.029 49.871 370.678C49.871 370.326 50.16 370.041 50.516 370.041H57.29C57.647 370.041 57.935 370.326 57.935 370.678ZM56.766 373.463C56.766 373.814 56.477 374.099 56.121 374.099H51.685C51.329 374.099 51.04 373.814 51.04 373.463C51.04 373.111 51.33 372.826 51.685 372.826H56.121C56.477 372.826 56.766 373.111 56.766 373.463Z" fill="#0C111C"/>
<path d="M65.321 264.894C64.1871 263.619 62.6139 262.916 60.8912 262.916C58.467 262.916 56.9329 264.35 56.0727 265.553C55.8496 265.865 55.6587 266.177 55.5 266.473C55.3401 266.177 55.1504 265.865 54.9273 265.553C54.0671 264.35 52.533 262.917 50.1088 262.917C48.3861 262.917 46.8129 263.619 45.6779 264.894C44.598 266.11 44 267.739 44 269.48C44 271.375 44.7475 273.138 46.3518 275.028C47.7847 276.717 49.8478 278.458 52.2363 280.474C53.1264 281.225 54.0464 282.001 55.0262 282.851L55.0561 282.877C55.1826 282.987 55.3413 283.042 55.5 283.042C55.6587 283.042 55.8162 282.987 55.9439 282.877L55.9738 282.851C56.9536 282.001 57.8736 281.225 58.7637 280.474C61.1523 278.458 63.2142 276.717 64.6482 275.028C66.2525 273.138 67 271.375 67 269.48C67 267.739 66.4043 266.111 65.321 264.894ZM57.8909 279.458C57.1238 280.105 56.3337 280.772 55.5012 281.489C54.6686 280.772 53.8796 280.105 53.1114 279.458C48.4367 275.513 45.3489 272.906 45.3489 269.48C45.3489 268.063 45.825 266.749 46.6898 265.777C47.565 264.793 48.7794 264.251 50.11 264.251C51.958 264.251 53.1529 265.378 53.8291 266.325C54.4362 267.173 54.7525 268.028 54.8606 268.356C54.9503 268.632 55.2091 268.817 55.5012 268.817C55.7933 268.817 56.052 268.63 56.1417 268.357C56.2498 268.028 56.5672 267.172 57.1732 266.325C57.8494 265.379 59.0443 264.251 60.8912 264.251C62.2229 264.251 63.4373 264.793 64.3125 265.776C65.1772 266.749 65.6534 268.065 65.6534 269.479C65.6534 272.906 62.5656 275.513 57.8909 279.458Z" fill="#5375FF"/>
<path d="M111.692 203H115.196V187.4H111.692V203ZM124.931 190.952C122.951 190.952 121.691 191.912 121.103 193.52L121.079 191.18H118.223V203H121.439V197.312C121.439 195.056 122.483 193.964 124.019 193.964C125.363 193.964 125.951 194.72 125.951 196.34V203H129.167V195.44C129.167 192.764 127.919 190.952 124.931 190.952ZM139.078 200.084C138.586 200.252 138.142 200.336 137.59 200.336C136.378 200.336 135.982 199.676 135.982 198.488V193.892H139.33V191.18H135.982V187.496L132.766 187.952V191.18H130.762V193.892H132.766V198.92C132.766 201.608 134.074 203.156 136.978 203.156C137.95 203.156 138.778 203.024 139.582 202.76L139.078 200.084ZM151.966 196.916C151.966 193.28 149.854 190.952 146.386 190.952C142.834 190.952 140.578 193.58 140.578 197.096C140.578 200.684 142.75 203.228 146.482 203.228C149.218 203.228 151.21 201.932 151.75 199.388L149.038 198.968C148.738 200.048 147.91 200.588 146.47 200.588C144.958 200.588 144.022 199.688 143.77 197.972H151.906C151.954 197.564 151.966 197.24 151.966 196.916ZM146.386 193.556C147.73 193.556 148.666 194.348 148.798 195.944H143.794C144.07 194.384 145.006 193.556 146.386 193.556ZM156.821 193.64L156.785 191.18H153.965V202.988H157.157V197.672C157.157 194.972 159.077 194.048 161.165 194.48V191.012C158.981 190.628 157.481 191.756 156.821 193.64ZM173.388 196.916C173.388 193.28 171.276 190.952 167.808 190.952C164.256 190.952 162 193.58 162 197.096C162 200.684 164.172 203.228 167.904 203.228C170.64 203.228 172.632 201.932 173.172 199.388L170.46 198.968C170.16 200.048 169.332 200.588 167.892 200.588C166.38 200.588 165.444 199.688 165.192 197.972H173.328C173.376 197.564 173.388 197.24 173.388 196.916ZM167.808 193.556C169.152 193.556 170.088 194.348 170.22 195.944H165.216C165.492 194.384 166.428 193.556 167.808 193.556ZM180.319 203.228C183.283 203.228 185.143 201.8 185.143 199.568C185.155 197.372 183.667 196.58 180.499 195.884C178.687 195.488 178.231 195.14 178.231 194.456C178.231 193.832 178.699 193.388 179.875 193.388C181.147 193.388 181.939 193.976 182.083 195.392L184.999 195.128C184.843 192.596 183.355 190.952 179.863 190.952C177.187 190.952 175.171 192.248 175.159 194.636C175.147 196.82 176.551 197.744 179.851 198.428C181.411 198.74 182.023 198.968 182.023 199.724C182.023 200.42 181.507 200.792 180.295 200.792C178.915 200.792 177.967 200.276 177.787 198.8L174.751 199.076C174.967 201.98 177.343 203.228 180.319 203.228ZM194.554 200.084C194.062 200.252 193.618 200.336 193.066 200.336C191.854 200.336 191.458 199.676 191.458 198.488V193.892H194.806V191.18H191.458V187.496L188.242 187.952V191.18H186.238V193.892H188.242V198.92C188.242 201.608 189.55 203.156 192.454 203.156C193.426 203.156 194.254 203.024 195.058 202.76L194.554 200.084ZM201.67 203.228C204.634 203.228 206.494 201.8 206.494 199.568C206.506 197.372 205.018 196.58 201.85 195.884C200.038 195.488 199.582 195.14 199.582 194.456C199.582 193.832 200.05 193.388 201.226 193.388C202.498 193.388 203.29 193.976 203.434 195.392L206.35 195.128C206.194 192.596 204.706 190.952 201.214 190.952C198.538 190.952 196.522 192.248 196.51 194.636C196.498 196.82 197.902 197.744 201.202 198.428C202.762 198.74 203.374 198.968 203.374 199.724C203.374 200.42 202.858 200.792 201.646 200.792C200.266 200.792 199.318 200.276 199.138 198.8L196.102 199.076C196.318 201.98 198.694 203.228 201.67 203.228Z" fill="black"/>
<path d="M113.01 226H113.907V218.33H116.481V217.55H110.436V218.33H113.01V226ZM121.014 219.636C119.98 219.636 119.207 220.15 118.817 220.949V216.926H117.965V226H118.817V222.73C118.817 221.281 119.701 220.429 120.871 220.429C121.937 220.429 122.45 221.027 122.45 222.353V226H123.302V222.23C123.302 220.527 122.548 219.636 121.014 219.636ZM130.413 222.756C130.413 220.891 129.392 219.636 127.637 219.636C125.876 219.636 124.745 221.06 124.745 222.867C124.745 224.713 125.921 226.13 127.735 226.13C128.996 226.13 129.932 225.545 130.296 224.433L129.626 224.199C129.327 224.94 128.742 225.389 127.735 225.389C126.487 225.389 125.7 224.459 125.603 223.127H130.406C130.413 222.997 130.413 222.873 130.413 222.756ZM127.637 220.364C128.794 220.364 129.47 221.125 129.561 222.425H125.622C125.752 221.209 126.474 220.364 127.637 220.364ZM134.281 226.13C135.77 226.13 136.55 225.421 136.55 224.336C136.55 223.101 135.601 222.834 134.275 222.542C133.261 222.314 132.637 222.132 132.637 221.378C132.637 220.761 133.079 220.338 134.041 220.338C134.996 220.338 135.672 220.813 135.724 221.833L136.485 221.716C136.465 220.468 135.62 219.636 134.034 219.636C132.663 219.636 131.805 220.338 131.798 221.443C131.798 222.62 132.76 222.99 134.106 223.276C135.061 223.478 135.698 223.627 135.698 224.414C135.698 225.109 135.178 225.428 134.255 225.428C133.196 225.428 132.429 225.031 132.377 223.907L131.584 224.024C131.675 225.486 132.721 226.13 134.281 226.13ZM143.451 222.756C143.451 220.891 142.431 219.636 140.676 219.636C138.914 219.636 137.783 221.06 137.783 222.867C137.783 224.713 138.96 226.13 140.773 226.13C142.034 226.13 142.97 225.545 143.334 224.433L142.665 224.199C142.366 224.94 141.781 225.389 140.773 225.389C139.525 225.389 138.739 224.459 138.641 223.127H143.445C143.451 222.997 143.451 222.873 143.451 222.756ZM140.676 220.364C141.833 220.364 142.509 221.125 142.6 222.425H138.661C138.791 221.209 139.512 220.364 140.676 220.364ZM150.964 219.636C149.84 219.636 149.06 220.13 148.657 221.008L148.644 219.766H147.825V228.561H148.676V224.758C149.092 225.616 149.859 226.13 150.964 226.13C152.823 226.13 153.831 224.778 153.831 222.873C153.831 220.982 152.823 219.636 150.964 219.636ZM150.86 225.369C149.495 225.369 148.65 224.29 148.65 222.873C148.65 221.463 149.495 220.403 150.86 220.403C152.258 220.403 152.947 221.437 152.947 222.873C152.947 224.316 152.258 225.369 150.86 225.369ZM160.729 222.756C160.729 220.891 159.709 219.636 157.954 219.636C156.192 219.636 155.061 221.06 155.061 222.867C155.061 224.713 156.238 226.13 158.051 226.13C159.312 226.13 160.248 225.545 160.612 224.433L159.943 224.199C159.644 224.94 159.059 225.389 158.051 225.389C156.803 225.389 156.017 224.459 155.919 223.127H160.723C160.729 222.997 160.729 222.873 160.729 222.756ZM157.954 220.364C159.111 220.364 159.787 221.125 159.878 222.425H155.939C156.069 221.209 156.79 220.364 157.954 220.364ZM165.119 226.13C166.997 226.13 168.213 224.732 168.213 222.88C168.213 221.027 166.997 219.636 165.119 219.636C163.24 219.636 162.018 221.027 162.018 222.88C162.018 224.732 163.24 226.13 165.119 226.13ZM165.119 225.369C163.76 225.369 162.883 224.31 162.883 222.88C162.883 221.45 163.76 220.397 165.119 220.397C166.471 220.397 167.348 221.45 167.348 222.88C167.348 224.31 166.471 225.369 165.119 225.369ZM172.915 219.636C171.79 219.636 171.01 220.13 170.607 221.008L170.594 219.766H169.775V228.561H170.627V224.758C171.043 225.616 171.81 226.13 172.915 226.13C174.774 226.13 175.781 224.778 175.781 222.873C175.781 220.982 174.774 219.636 172.915 219.636ZM172.811 225.369C171.446 225.369 170.601 224.29 170.601 222.873C170.601 221.463 171.446 220.403 172.811 220.403C174.208 220.403 174.897 221.437 174.897 222.873C174.897 224.316 174.208 225.369 172.811 225.369ZM177.329 226H178.18V216.926H177.329V226ZM185.409 222.756C185.409 220.891 184.389 219.636 182.634 219.636C180.872 219.636 179.741 221.06 179.741 222.867C179.741 224.713 180.918 226.13 182.731 226.13C183.992 226.13 184.928 225.545 185.292 224.433L184.623 224.199C184.324 224.94 183.739 225.389 182.731 225.389C181.483 225.389 180.697 224.459 180.599 223.127H185.403C185.409 222.997 185.409 222.873 185.409 222.756ZM182.634 220.364C183.791 220.364 184.467 221.125 184.558 222.425H180.619C180.749 221.209 181.47 220.364 182.634 220.364ZM195.061 225.343C194.599 225.343 194.534 225.005 194.534 224.674V222.178C194.534 220.982 194.131 219.636 192.077 219.636C190.758 219.636 189.906 220.221 189.555 221.398L190.322 221.651C190.595 220.8 191.076 220.371 192.084 220.371C193.332 220.371 193.696 221.151 193.696 222.171V222.626C193.221 222.568 192.747 222.535 192.311 222.535C190.66 222.535 189.393 222.964 189.393 224.316C189.393 225.46 190.27 226.13 191.531 226.13C192.558 226.13 193.351 225.668 193.761 225.005C193.813 225.688 194.105 226.065 194.885 226.065C195.067 226.065 195.236 226.046 195.425 226.007V225.311C195.295 225.337 195.184 225.343 195.061 225.343ZM191.635 225.389C190.888 225.389 190.309 225.057 190.309 224.297C190.309 223.478 191.096 223.211 192.337 223.211C192.766 223.211 193.221 223.237 193.696 223.289V224.323C193.28 224.986 192.526 225.389 191.635 225.389ZM197.628 221.04L197.641 219.766H196.829V226H197.667V222.698C197.667 221.073 198.909 220.267 200.124 220.585L200.183 219.695C199.032 219.441 198.051 219.948 197.628 221.04ZM206.509 222.756C206.509 220.891 205.488 219.636 203.733 219.636C201.972 219.636 200.841 221.06 200.841 222.867C200.841 224.713 202.017 226.13 203.831 226.13C205.092 226.13 206.028 225.545 206.392 224.433L205.722 224.199C205.423 224.94 204.838 225.389 203.831 225.389C202.583 225.389 201.796 224.459 201.699 223.127H206.502C206.509 222.997 206.509 222.873 206.509 222.756ZM203.733 220.364C204.89 220.364 205.566 221.125 205.657 222.425H201.718C201.848 221.209 202.57 220.364 203.733 220.364ZM211.331 218.401C211.714 218.401 212.02 218.102 212.02 217.738C212.02 217.374 211.714 217.095 211.331 217.095C210.98 217.095 210.674 217.374 210.674 217.738C210.674 218.102 210.98 218.401 211.331 218.401ZM210.921 226H211.773V219.766H210.921V226ZM216.978 219.636C215.893 219.636 215.093 220.202 214.729 221.073L214.749 219.766H213.917V226H214.768V222.73C214.768 221.281 215.652 220.429 216.822 220.429C217.888 220.429 218.402 221.027 218.402 222.353V226H219.253V222.23C219.253 220.527 218.499 219.636 216.978 219.636ZM224.681 225.07C224.421 225.246 224.154 225.33 223.803 225.33C223.03 225.33 222.679 224.908 222.679 223.972V220.488H224.824V219.766H222.679V217.738L221.834 217.855V219.766H220.488V220.488H221.834V224.069C221.834 225.486 222.562 226.098 223.706 226.098C224.206 226.098 224.603 225.974 224.967 225.74L224.681 225.07ZM231.455 222.756C231.455 220.891 230.434 219.636 228.679 219.636C226.918 219.636 225.787 221.06 225.787 222.867C225.787 224.713 226.963 226.13 228.777 226.13C230.038 226.13 230.974 225.545 231.338 224.433L230.668 224.199C230.369 224.94 229.784 225.389 228.777 225.389C227.529 225.389 226.742 224.459 226.645 223.127H231.448C231.455 222.997 231.455 222.873 231.455 222.756ZM228.679 220.364C229.836 220.364 230.512 221.125 230.603 222.425H226.664C226.794 221.209 227.516 220.364 228.679 220.364ZM233.848 221.04L233.861 219.766H233.048V226H233.887V222.698C233.887 221.073 235.128 220.267 236.344 220.585L236.402 219.695C235.252 219.441 234.27 219.948 233.848 221.04ZM242.728 222.756C242.728 220.891 241.708 219.636 239.953 219.636C238.191 219.636 237.06 221.06 237.06 222.867C237.06 224.713 238.237 226.13 240.05 226.13C241.311 226.13 242.247 225.545 242.611 224.433L241.942 224.199C241.643 224.94 241.058 225.389 240.05 225.389C238.802 225.389 238.016 224.459 237.918 223.127H242.722C242.728 222.997 242.728 222.873 242.728 222.756ZM239.953 220.364C241.11 220.364 241.786 221.125 241.877 222.425H237.938C238.068 221.209 238.789 220.364 239.953 220.364ZM246.597 226.13C248.085 226.13 248.865 225.421 248.865 224.336C248.865 223.101 247.916 222.834 246.59 222.542C245.576 222.314 244.952 222.132 244.952 221.378C244.952 220.761 245.394 220.338 246.356 220.338C247.312 220.338 247.988 220.813 248.04 221.833L248.8 221.716C248.781 220.468 247.936 219.636 246.35 219.636C244.978 219.636 244.12 220.338 244.114 221.443C244.114 222.62 245.076 222.99 246.421 223.276C247.377 223.478 248.014 223.627 248.014 224.414C248.014 225.109 247.494 225.428 246.571 225.428C245.511 225.428 244.744 225.031 244.692 223.907L243.899 224.024C243.99 225.486 245.037 226.13 246.597 226.13ZM254.045 225.07C253.785 225.246 253.518 225.33 253.167 225.33C252.394 225.33 252.043 224.908 252.043 223.972V220.488H254.188V219.766H252.043V217.738L251.198 217.855V219.766H249.852V220.488H251.198V224.069C251.198 225.486 251.926 226.098 253.07 226.098C253.57 226.098 253.967 225.974 254.331 225.74L254.045 225.07ZM260.819 222.756C260.819 220.891 259.799 219.636 258.044 219.636C256.282 219.636 255.151 221.06 255.151 222.867C255.151 224.713 256.328 226.13 258.141 226.13C259.402 226.13 260.338 225.545 260.702 224.433L260.033 224.199C259.734 224.94 259.149 225.389 258.141 225.389C256.893 225.389 256.107 224.459 256.009 223.127H260.813C260.819 222.997 260.819 222.873 260.819 222.756ZM258.044 220.364C259.201 220.364 259.877 221.125 259.968 222.425H256.029C256.159 221.209 256.88 220.364 258.044 220.364ZM267.263 216.926V220.93C266.853 220.098 266.099 219.636 265.007 219.636C263.148 219.636 262.108 220.982 262.108 222.873C262.108 224.778 263.148 226.13 265.007 226.13C266.125 226.13 266.886 225.603 267.289 224.719L267.295 226H268.114V216.926H267.263ZM265.085 225.369C263.681 225.369 262.992 224.316 262.992 222.873C262.992 221.437 263.681 220.403 265.085 220.403C266.444 220.403 267.289 221.463 267.289 222.873C267.289 224.29 266.444 225.369 265.085 225.369ZM276.439 225.07C276.179 225.246 275.913 225.33 275.562 225.33C274.788 225.33 274.437 224.908 274.437 223.972V220.488H276.582V219.766H274.437V217.738L273.592 217.855V219.766H272.247V220.488H273.592V224.069C273.592 225.486 274.32 226.098 275.464 226.098C275.965 226.098 276.361 225.974 276.725 225.74L276.439 225.07ZM280.646 226.13C282.525 226.13 283.74 224.732 283.74 222.88C283.74 221.027 282.525 219.636 280.646 219.636C278.768 219.636 277.546 221.027 277.546 222.88C277.546 224.732 278.768 226.13 280.646 226.13ZM280.646 225.369C279.288 225.369 278.41 224.31 278.41 222.88C278.41 221.45 279.288 220.397 280.646 220.397C281.998 220.397 282.876 221.45 282.876 222.88C282.876 224.31 281.998 225.369 280.646 225.369ZM295.382 219.766L294.394 223.4C294.219 224.05 294.069 224.674 293.907 225.343C293.738 224.648 293.569 224.017 293.387 223.393L292.308 219.773H291.339L290.254 223.393C290.072 224.017 289.903 224.648 289.734 225.343C289.571 224.674 289.422 224.05 289.253 223.4L288.265 219.766H287.381L289.168 226H290.247L291.437 222.067C291.58 221.593 291.69 221.125 291.82 220.631C291.95 221.125 292.067 221.593 292.21 222.067L293.393 226H294.472L296.26 219.766H295.382ZM300.222 226.13C302.101 226.13 303.316 224.732 303.316 222.88C303.316 221.027 302.101 219.636 300.222 219.636C298.344 219.636 297.122 221.027 297.122 222.88C297.122 224.732 298.344 226.13 300.222 226.13ZM300.222 225.369C298.864 225.369 297.986 224.31 297.986 222.88C297.986 221.45 298.864 220.397 300.222 220.397C301.574 220.397 302.452 221.45 302.452 222.88C302.452 224.31 301.574 225.369 300.222 225.369ZM305.678 221.04L305.691 219.766H304.879V226H305.717V222.698C305.717 221.073 306.959 220.267 308.174 220.585L308.233 219.695C307.082 219.441 306.101 219.948 305.678 221.04ZM313.699 226H314.733L311.912 222.379L314.427 219.766H313.335L310.306 222.984V216.926H309.474V226H310.306V223.959L311.32 222.919L313.699 226ZM326.041 219.766L325.053 223.4C324.878 224.05 324.728 224.674 324.566 225.343C324.397 224.648 324.228 224.017 324.046 223.393L322.967 219.773H321.998L320.913 223.393C320.731 224.017 320.562 224.648 320.393 225.343C320.23 224.674 320.081 224.05 319.912 223.4L318.924 219.766H318.04L319.827 226H320.906L322.096 222.067C322.239 221.593 322.349 221.125 322.479 220.631C322.609 221.125 322.726 221.593 322.869 222.067L324.052 226H325.131L326.919 219.766H326.041ZM328.763 218.401C329.146 218.401 329.452 218.102 329.452 217.738C329.452 217.374 329.146 217.095 328.763 217.095C328.412 217.095 328.106 217.374 328.106 217.738C328.106 218.102 328.412 218.401 328.763 218.401ZM328.353 226H329.205V219.766H328.353V226ZM334.8 225.07C334.54 225.246 334.273 225.33 333.922 225.33C333.149 225.33 332.798 224.908 332.798 223.972V220.488H334.943V219.766H332.798V217.738L331.953 217.855V219.766H330.607V220.488H331.953V224.069C331.953 225.486 332.681 226.098 333.825 226.098C334.325 226.098 334.722 225.974 335.086 225.74L334.8 225.07ZM339.488 219.636C338.454 219.636 337.681 220.15 337.291 220.949V216.926H336.439V226H337.291V222.73C337.291 221.281 338.175 220.429 339.345 220.429C340.411 220.429 340.924 221.027 340.924 222.353V226H341.776V222.23C341.776 220.527 341.022 219.636 339.488 219.636ZM350.731 219.766L349.366 223.543C349.158 224.128 348.963 224.7 348.774 225.278C348.566 224.693 348.358 224.128 348.144 223.536L346.779 219.766H345.817L348.215 226.033H348.384L348.228 226.462C347.838 227.541 347.117 227.859 345.999 227.729L345.921 228.535C347.468 228.711 348.508 228.158 349.073 226.611L351.693 219.766H350.731ZM355.51 226.13C357.389 226.13 358.604 224.732 358.604 222.88C358.604 221.027 357.389 219.636 355.51 219.636C353.632 219.636 352.41 221.027 352.41 222.88C352.41 224.732 353.632 226.13 355.51 226.13ZM355.51 225.369C354.152 225.369 353.274 224.31 353.274 222.88C353.274 221.45 354.152 220.397 355.51 220.397C356.862 220.397 357.74 221.45 357.74 222.88C357.74 224.31 356.862 225.369 355.51 225.369ZM364.45 219.766V223.029C364.45 224.485 363.573 225.33 362.403 225.33C361.421 225.33 360.901 224.732 360.901 223.406V219.766H360.05V223.536C360.05 225.239 360.81 226.13 362.266 226.13C363.352 226.13 364.132 225.564 364.496 224.7V226H365.302V219.766H364.45ZM368.047 226.13C368.45 226.13 368.788 225.798 368.788 225.395C368.788 224.999 368.45 224.667 368.047 224.667C367.637 224.667 367.299 224.999 367.299 225.395C367.299 225.798 367.637 226.13 368.047 226.13Z" fill="#AAAAAA"/>
<circle cx="257" cy="72" r="62" fill="#5375FF"/>
<g filter="url(#filter7_d)">
<circle cx="244" cy="62" r="62" fill="white"/>
</g>
<path d="M232.015 37.3652V84.6355" stroke="black" stroke-width="2" stroke-miterlimit="10" stroke-linecap="round"/>
<path d="M237.158 44.6898L282.271 57.2922C285.609 58.2476 287.955 61.2958 287.955 64.799V65.5724C287.955 69.2121 285.474 72.3513 282 73.1702L236.932 83.9983C235.805 84.2712 234.722 83.4068 234.722 82.2239V46.6006C234.722 45.2813 235.94 44.3713 237.158 44.6898Z" fill="#5375FF"/>
<path d="M235.94 41.505L279.248 53.607C282.812 54.6079 285.293 57.8836 285.293 61.6142C285.293 65.4814 282.677 68.8026 278.977 69.7125L235.804 79.9946C233.865 80.4495 232.015 78.9937 232.015 76.9464V44.5078C232.015 42.415 233.955 40.9591 235.94 41.505Z" stroke="black" stroke-width="2" stroke-miterlimit="10"/>
<path d="M222.09 55.882C220.511 54.972 221.414 53.3797 219.835 52.4698C218.256 51.5599 217.353 53.1522 215.774 52.2423C214.195 51.3324 215.098 49.74 213.519 48.8301C211.94 47.9202 211.038 49.5125 209.459 48.6026C207.88 47.6927 208.782 46.1003 207.203 45.1904" stroke="black" stroke-miterlimit="10" stroke-linecap="round"/>
<path d="M222.677 68.9395C220.917 69.44 220.466 67.6656 218.707 68.1661C216.947 68.6666 217.444 70.3954 215.684 70.8959C213.925 71.3963 213.474 69.622 211.714 70.1224C209.955 70.6229 210.451 72.3517 208.692 72.8522C206.932 73.3526 206.481 71.5783 204.722 72.0788" stroke="black" stroke-miterlimit="10" stroke-linecap="round"/>
<path d="M265.534 79.9036C262.015 80.768 258.496 78.6297 257.504 75.172L254.075 75.9909C255.519 81.3595 260.932 84.6352 266.346 83.3613C271.759 82.0419 275.143 76.6734 274.015 71.2139L270.586 72.0328C271.263 75.5815 269.053 79.0847 265.534 79.9036Z" fill="black"/>
<path d="M242.062 54.4209L253.875 66.263" stroke="black" stroke-width="2" stroke-miterlimit="10" stroke-linecap="round"/>
<path d="M253.875 54.4209L242.062 66.263" stroke="black" stroke-width="2" stroke-miterlimit="10" stroke-linecap="round"/>
<g clip-path="url(#clip5)">
<path d="M79.3 109C78.5 109 77.7 109.3 77.2 109.9C76.6 110.5 76.3 111.2 76.3 112C76.3 112.8 76 113.5 75.4 114.1C74.8 114.7 74 115 73.2 115C72.4 115 71.6 114.7 71.1 114.1C70.5 113.5 70.2 112.8 70.2 112C70.2 110.8 70 109.6 69.5 108.6C69 107.5 68.4 106.5 67.5 105.7C66.7 104.9 65.7 104.2 64.5 103.7C63.5 103.2 62.3 103 61.1 103C59.9 103 58.7 103.2 57.6 103.7C56.5 104.2 55.5 104.8 54.6 105.7C53.8 106.5 53.1 107.5 52.6 108.6C52.2 109.6 52 110.8 52 112C52 112.8 52.3 113.6 52.9 114.1C53.5 114.7 54.2 115 55 115C55.8 115 56.6 114.7 57.1 114.1C57.8 113.6 58.1 112.8 58.1 112C58.1 111.2 58.4 110.5 59 109.9C59.6 109.3 60.3 109 61.1 109C61.9 109 62.7 109.3 63.2 109.9C63.8 110.5 64.1 111.2 64.1 112C64.1 114.4 65.1 116.7 66.8 118.4C68.5 120.1 70.8 121 73.2 121C75.6 121 77.9 120.1 79.6 118.4C81.3 116.7 82.3 114.4 82.3 112C82.3 111.2 82 110.4 81.4 109.9C80.9 109.3 80.1 109 79.3 109Z" fill="#5977F7"/>
</g>
<circle cx="408.5" cy="102.5" r="13.5" fill="#EBEDF2"/>
<defs>
<filter id="filter0_d" x="0" y="65" width="481" height="485" filterUnits="userSpaceOnUse" color-interpolation-filters="sRGB">
<feFlood flood-opacity="0" result="BackgroundImageFix"/>
<feColorMatrix in="SourceAlpha" type="matrix" values="0 0 0 0 0 0 0 0 0 0 0 0 0 0 0 0 0 0 127 0"/>
<feOffset dy="8"/>
<feGaussianBlur stdDeviation="5"/>
<feColorMatrix type="matrix" values="0 0 0 0 0 0 0 0 0 0 0 0 0 0 0 0 0 0 0.25 0"/>
<feBlend mode="normal" in2="BackgroundImageFix" result="effect1_dropShadow"/>
<feBlend mode="normal" in="SourceGraphic" in2="effect1_dropShadow" result="shape"/>
</filter>
<filter id="filter1_d" x="281.571" y="364.714" width="44.8571" height="44.8571" filterUnits="userSpaceOnUse" color-interpolation-filters="sRGB">
<feFlood flood-opacity="0" result="BackgroundImageFix"/>
<feColorMatrix in="SourceAlpha" type="matrix" values="0 0 0 0 0 0 0 0 0 0 0 0 0 0 0 0 0 0 127 0"/>
<feOffset dy="5"/>
<feGaussianBlur stdDeviation="7.5"/>
<feColorMatrix type="matrix" values="0 0 0 0 0.0470588 0 0 0 0 0.0666667 0 0 0 0 0.109804 0 0 0 0.151825 0"/>
<feBlend mode="normal" in2="BackgroundImageFix" result="effect1_dropShadow"/>
<feBlend mode="normal" in="SourceGraphic" in2="effect1_dropShadow" result="shape"/>
</filter>
<filter id="filter2_d" x="234" y="373" width="58" height="22" filterUnits="userSpaceOnUse" color-interpolation-filters="sRGB">
<feFlood flood-opacity="0" result="BackgroundImageFix"/>
<feColorMatrix in="SourceAlpha" type="matrix" values="0 0 0 0 0 0 0 0 0 0 0 0 0 0 0 0 0 0 127 0"/>
<feOffset dy="2"/>
<feGaussianBlur stdDeviation="2"/>
<feColorMatrix type="matrix" values="0 0 0 0 0 0 0 0 0 0 0 0 0 0 0 0 0 0 0.25 0"/>
<feBlend mode="normal" in2="BackgroundImageFix" result="effect1_dropShadow"/>
<feBlend mode="normal" in="SourceGraphic" in2="effect1_dropShadow" result="shape"/>
</filter>
<filter id="filter3_d" x="399.571" y="364.714" width="44.8571" height="44.8571" filterUnits="userSpaceOnUse" color-interpolation-filters="sRGB">
<feFlood flood-opacity="0" result="BackgroundImageFix"/>
<feColorMatrix in="SourceAlpha" type="matrix" values="0 0 0 0 0 0 0 0 0 0 0 0 0 0 0 0 0 0 127 0"/>
<feOffset dy="5"/>
<feGaussianBlur stdDeviation="7.5"/>
<feColorMatrix type="matrix" values="0 0 0 0 0.0470588 0 0 0 0 0.0666667 0 0 0 0 0.109804 0 0 0 0.151825 0"/>
<feBlend mode="normal" in2="BackgroundImageFix" result="effect1_dropShadow"/>
<feBlend mode="normal" in="SourceGraphic" in2="effect1_dropShadow" result="shape"/>
</filter>
<filter id="filter4_d" x="352" y="373" width="58" height="22" filterUnits="userSpaceOnUse" color-interpolation-filters="sRGB">
<feFlood flood-opacity="0" result="BackgroundImageFix"/>
<feColorMatrix in="SourceAlpha" type="matrix" values="0 0 0 0 0 0 0 0 0 0 0 0 0 0 0 0 0 0 127 0"/>
<feOffset dy="2"/>
<feGaussianBlur stdDeviation="2"/>
<feColorMatrix type="matrix" values="0 0 0 0 0 0 0 0 0 0 0 0 0 0 0 0 0 0 0.25 0"/>
<feBlend mode="normal" in2="BackgroundImageFix" result="effect1_dropShadow"/>
<feBlend mode="normal" in="SourceGraphic" in2="effect1_dropShadow" result="shape"/>
</filter>
<filter id="filter5_d" x="163.571" y="364.714" width="44.8571" height="44.8571" filterUnits="userSpaceOnUse" color-interpolation-filters="sRGB">
<feFlood flood-opacity="0" result="BackgroundImageFix"/>
<feColorMatrix in="SourceAlpha" type="matrix" values="0 0 0 0 0 0 0 0 0 0 0 0 0 0 0 0 0 0 127 0"/>
<feOffset dy="5"/>
<feGaussianBlur stdDeviation="7.5"/>
<feColorMatrix type="matrix" values="0 0 0 0 0.0470588 0 0 0 0 0.0666667 0 0 0 0 0.109804 0 0 0 0.151825 0"/>
<feBlend mode="normal" in2="BackgroundImageFix" result="effect1_dropShadow"/>
<feBlend mode="normal" in="SourceGraphic" in2="effect1_dropShadow" result="shape"/>
</filter>
<filter id="filter6_d" x="116" y="373" width="58" height="22" filterUnits="userSpaceOnUse" color-interpolation-filters="sRGB">
<feFlood flood-opacity="0" result="BackgroundImageFix"/>
<feColorMatrix in="SourceAlpha" type="matrix" values="0 0 0 0 0 0 0 0 0 0 0 0 0 0 0 0 0 0 127 0"/>
<feOffset dy="2"/>
<feGaussianBlur stdDeviation="2"/>
<feColorMatrix type="matrix" values="0 0 0 0 0 0 0 0 0 0 0 0 0 0 0 0 0 0 0.25 0"/>
<feBlend mode="normal" in2="BackgroundImageFix" result="effect1_dropShadow"/>
<feBlend mode="normal" in="SourceGraphic" in2="effect1_dropShadow" result="shape"/>
</filter>
<filter id="filter7_d" x="178" y="0" width="132" height="132" filterUnits="userSpaceOnUse" color-interpolation-filters="sRGB">
<feFlood flood-opacity="0" result="BackgroundImageFix"/>
<feColorMatrix in="SourceAlpha" type="matrix" values="0 0 0 0 0 0 0 0 0 0 0 0 0 0 0 0 0 0 127 0"/>
<feOffset dy="4"/>
<feGaussianBlur stdDeviation="2"/>
<feColorMatrix type="matrix" values="0 0 0 0 0 0 0 0 0 0 0 0 0 0 0 0 0 0 0.25 0"/>
<feBlend mode="normal" in2="BackgroundImageFix" result="effect1_dropShadow"/>
<feBlend mode="normal" in="SourceGraphic" in2="effect1_dropShadow" result="shape"/>
</filter>
<linearGradient id="paint0_linear" x1="288" y1="321" x2="237.239" y2="321" gradientUnits="userSpaceOnUse">
<stop stop-color="#7C9EF8"/>
<stop offset="1" stop-color="#6A78F7"/>
</linearGradient>
<linearGradient id="paint1_linear" x1="398" y1="321" x2="354.901" y2="321" gradientUnits="userSpaceOnUse">
<stop stop-color="#7C9EF8"/>
<stop offset="1" stop-color="#6A78F7"/>
</linearGradient>
<linearGradient id="paint2_linear" x1="188" y1="321" x2="120" y2="321" gradientUnits="userSpaceOnUse">
<stop stop-color="#7C9EF8"/>
<stop offset="1" stop-color="#6A78F7"/>
</linearGradient>
<clipPath id="clip0">
<rect width="30.3" height="18" fill="white" transform="translate(60 86)"/>
</clipPath>
<clipPath id="clip1">
<rect width="26" height="26" fill="white" transform="translate(291 371)"/>
</clipPath>
<clipPath id="clip2">
<rect width="26" height="26" fill="white" transform="translate(409 371)"/>
</clipPath>
<clipPath id="clip3">
<rect width="26" height="26" fill="white" transform="translate(173 371)"/>
</clipPath>
<clipPath id="clip4">
<rect width="20" height="20" fill="white" transform="translate(46 318)"/>
</clipPath>
<clipPath id="clip5">
<rect width="30.3" height="18" fill="white" transform="translate(52 103)"/>
</clipPath>
</defs>
</svg>
