<svg width="480" height="560" viewBox="0 0 480 560" fill="none" xmlns="http://www.w3.org/2000/svg">
<g filter="url(#filter0_d)">
<rect x="10" y="67" width="460" height="475" rx="48" fill="white"/>
</g>
<path d="M43.2926 209.928C46.3616 209.928 48.2786 208.344 48.5396 205.41L46.0016 205.068C45.7046 207.147 44.6516 207.732 43.2386 207.732C41.2136 207.732 40.2506 206.229 40.2506 203.907C40.2506 201.585 41.2136 200.082 43.2386 200.082C44.6516 200.082 45.7136 200.73 46.0016 202.746L48.5396 202.404C48.3146 199.47 46.3616 197.886 43.2926 197.886C39.6296 197.886 37.5416 200.334 37.5416 203.907C37.5416 207.48 39.6296 209.928 43.2926 209.928ZM55.1974 200.721C53.8744 200.721 52.9924 201.315 52.5064 202.323V197.193H50.0944V209.757H52.5064V205.491C52.5064 203.799 53.2894 202.98 54.4414 202.98C55.4494 202.98 55.8904 203.547 55.8904 204.762V209.757H58.3024V204.087C58.3024 202.08 57.3664 200.721 55.1974 200.721ZM68.4986 207.777C68.0306 207.777 67.9136 207.552 67.9136 207.111V204.42C67.9136 202.728 67.4276 200.721 63.9716 200.721C61.7486 200.721 60.2096 201.783 60.0656 203.79L62.3786 204.06C62.4866 203.124 62.9996 202.683 63.9806 202.683C65.1956 202.683 65.5556 203.403 65.5556 204.393V204.744C65.0426 204.663 64.5026 204.618 63.9176 204.618C61.4786 204.618 59.7686 205.311 59.7686 207.183C59.7686 208.767 60.8576 209.919 62.7926 209.919C64.2596 209.919 65.3306 209.379 65.8166 208.416C65.9516 209.451 66.4556 209.829 67.7786 209.829C68.2286 209.829 68.5886 209.802 68.9846 209.703V207.741C68.8136 207.768 68.6516 207.777 68.4986 207.777ZM63.6116 208.083C62.8106 208.083 62.3696 207.75 62.3696 207.093C62.3696 206.427 62.9636 206.112 64.2506 206.112C64.7096 206.112 65.1236 206.148 65.5556 206.229V207.192C65.1686 207.75 64.4486 208.083 63.6116 208.083ZM75.4563 207.57C75.0873 207.696 74.7543 207.759 74.3403 207.759C73.4313 207.759 73.1343 207.264 73.1343 206.373V202.926H75.6453V200.892H73.1343V198.129L70.7223 198.471V200.892H69.2193V202.926H70.7223V206.697C70.7223 208.713 71.7033 209.874 73.8813 209.874C74.6103 209.874 75.2313 209.775 75.8343 209.577L75.4563 207.57ZM80.7934 209.928C83.0164 209.928 84.4114 208.857 84.4114 207.183C84.4204 205.536 83.3044 204.942 80.9284 204.42C79.5694 204.123 79.2274 203.862 79.2274 203.349C79.2274 202.881 79.5784 202.548 80.4604 202.548C81.4144 202.548 82.0084 202.989 82.1164 204.051L84.3034 203.853C84.1864 201.954 83.0704 200.721 80.4514 200.721C78.4444 200.721 76.9324 201.693 76.9234 203.484C76.9144 205.122 77.9674 205.815 80.4424 206.328C81.6124 206.562 82.0714 206.733 82.0714 207.3C82.0714 207.822 81.6844 208.101 80.7754 208.101C79.7404 208.101 79.0294 207.714 78.8944 206.607L76.6174 206.814C76.7794 208.992 78.5614 209.928 80.7934 209.928Z" fill="black"/>
<path d="M171.834 185.143L171.325 519.425" stroke="#9A9A9A"/>
<circle cx="50.7393" cy="250.269" r="16.7904" fill="#C4C4C4"/>
<circle cx="214.064" cy="216.179" r="18.3168" fill="#C4C4C4"/>
<rect x="80.7585" y="237.549" width="40.7041" height="4.07041" rx="2" fill="#C4C4C4"/>
<rect x="245.61" y="200.915" width="75.3025" height="6.10561" rx="2" fill="#C4C4C4"/>
<rect x="245.61" y="215.162" width="38.6689" height="4.07041" rx="2" fill="#C4C4C4"/>
<rect x="80.7585" y="249.76" width="74.2849" height="3.05281" rx="1.5264" fill="#C4C4C4"/>
<circle cx="50.7393" cy="307.254" r="16.7904" fill="#C4C4C4"/>
<rect x="80.7585" y="294.534" width="40.7041" height="4.07041" rx="2" fill="#C4C4C4"/>
<rect x="80.7585" y="306.746" width="74.2849" height="3.05281" rx="1.5264" fill="#C4C4C4"/>
<circle cx="50.7393" cy="360.17" r="16.7904" fill="#C4C4C4"/>
<rect x="80.7585" y="347.45" width="40.7041" height="4.07041" rx="2" fill="#C4C4C4"/>
<rect x="80.7585" y="359.661" width="74.2849" height="3.05281" rx="1.5264" fill="#C4C4C4"/>
<path d="M8 330.659H171.325" stroke="#9A9A9A"/>
<path d="M8 386.119H171.325" stroke="#9A9A9A"/>
<path d="M8 277.235H171.325" stroke="#9A9A9A"/>
<path d="M171.834 253.322H468.974" stroke="#9A9A9A"/>
<path d="M171.325 483.3H469.482" stroke="#9A9A9A"/>
<rect x="245.61" y="493.984" width="167.904" height="20.352" rx="4" fill="#E6E6E6"/>
<g clip-path="url(#clip0)">
<path fill-rule="evenodd" clip-rule="evenodd" d="M410.461 493.984H428.76C431.58 493.984 433.866 496.263 433.866 499.072V509.248C433.866 512.058 431.58 514.336 428.76 514.336H410.461V493.984Z" fill="#5375FF"/>
<path d="M426.847 499.282C426.67 499.106 426.419 499.035 426.176 499.091L426.172 499.092L418.152 501.048C417.382 501.236 416.845 501.918 416.845 502.708V503.763C416.845 504.147 417.15 504.461 417.532 504.477L420.549 504.989C420.613 505 420.677 504.979 420.723 504.934L424.279 501.392C424.404 501.267 424.605 501.267 424.73 501.392C424.855 501.516 424.855 501.717 424.73 501.841L421.174 505.384C421.129 505.429 421.108 505.494 421.119 505.557L421.633 508.564C421.649 508.944 421.965 509.248 422.35 509.248H423.409C424.201 509.248 424.887 508.712 425.075 507.945L427.038 499.954L427.038 499.951C427.095 499.708 427.024 499.458 426.847 499.282Z" fill="#FBFBFB"/>
</g>
<path d="M253.123 508.037H254.069V501.696H256.159V500.887H251.033V501.696H253.123V508.037ZM260.2 502.73L259.116 505.925C258.957 506.409 258.808 506.871 258.665 507.333C258.506 506.871 258.346 506.398 258.187 505.925L257.103 502.73H256.091L258.055 508.048H258.308L258.192 508.384C257.884 509.247 257.257 509.467 256.284 509.324L256.168 510.144C257.549 510.353 258.583 509.913 259.089 508.466L261.212 502.73H260.2ZM265.064 502.625C264.151 502.625 263.508 502.999 263.161 503.709L263.15 502.73H262.298V510.182H263.194V507.08C263.552 507.762 264.173 508.147 265.064 508.147C266.604 508.147 267.473 507.009 267.473 505.375C267.473 503.753 266.604 502.625 265.064 502.625ZM264.91 507.35C263.832 507.35 263.161 506.503 263.161 505.375C263.161 504.253 263.832 503.428 264.91 503.428C266.005 503.428 266.555 504.231 266.555 505.375C266.555 506.525 266.005 507.35 264.91 507.35ZM273.305 505.282C273.305 503.687 272.419 502.62 270.912 502.62C269.389 502.62 268.415 503.824 268.415 505.375C268.415 506.959 269.405 508.147 270.995 508.147C272.1 508.147 272.914 507.636 273.206 506.64L272.485 506.437C272.254 507.031 271.792 507.383 270.989 507.383C270.021 507.383 269.416 506.701 269.317 505.661H273.294C273.305 505.529 273.305 505.403 273.305 505.282ZM270.907 503.368C271.803 503.368 272.337 503.945 272.414 504.952H269.323C269.444 504 270.016 503.368 270.907 503.368ZM279.511 502.62C278.669 502.62 278.048 503.01 277.718 503.643V500.359H276.821V508.037H277.718V505.309C277.718 504.121 278.4 503.456 279.324 503.456C280.16 503.456 280.556 503.923 280.556 504.957V508.037H281.452V504.781C281.452 503.39 280.825 502.62 279.511 502.62ZM287.485 505.282C287.485 503.687 286.599 502.62 285.092 502.62C283.569 502.62 282.595 503.824 282.595 505.375C282.595 506.959 283.585 508.147 285.175 508.147C286.28 508.147 287.094 507.636 287.386 506.64L286.665 506.437C286.434 507.031 285.972 507.383 285.169 507.383C284.201 507.383 283.596 506.701 283.497 505.661H287.474C287.485 505.529 287.485 505.403 287.485 505.282ZM285.087 503.368C285.983 503.368 286.517 503.945 286.594 504.952H283.503C283.624 504 284.196 503.368 285.087 503.368ZM289.57 503.802L289.576 502.73H288.734V508.037H289.603V505.348C289.603 503.989 290.643 503.362 291.66 503.604L291.682 502.664C290.72 502.455 289.922 502.9 289.57 503.802ZM297.067 505.282C297.067 503.687 296.181 502.62 294.674 502.62C293.151 502.62 292.177 503.824 292.177 505.375C292.177 506.959 293.167 508.147 294.757 508.147C295.862 508.147 296.676 507.636 296.968 506.64L296.247 506.437C296.016 507.031 295.554 507.383 294.751 507.383C293.783 507.383 293.178 506.701 293.079 505.661H297.056C297.067 505.529 297.067 505.403 297.067 505.282ZM294.669 503.368C295.565 503.368 296.099 503.945 296.176 504.952H293.085C293.206 504 293.778 503.368 294.669 503.368ZM298.916 508.147C299.295 508.147 299.614 507.834 299.614 507.449C299.614 507.069 299.295 506.756 298.916 506.756C298.531 506.756 298.206 507.069 298.206 507.449C298.206 507.834 298.531 508.147 298.916 508.147ZM301.773 508.147C302.153 508.147 302.472 507.834 302.472 507.449C302.472 507.069 302.153 506.756 301.773 506.756C301.388 506.756 301.064 507.069 301.064 507.449C301.064 507.834 301.388 508.147 301.773 508.147ZM304.631 508.147C305.01 508.147 305.329 507.834 305.329 507.449C305.329 507.069 305.01 506.756 304.631 506.756C304.246 506.756 303.921 507.069 303.921 507.449C303.921 507.834 304.246 508.147 304.631 508.147Z" fill="#858383"/>
<path d="M199.497 428H210.471" stroke="black"/>
<path d="M312.379 315.808H310.762V309.823H309.026L305.022 315.885L305.218 316.781L309.6 316.774V319H310.762V316.767H312.379V315.808ZM306.345 315.808L308.284 312.91C308.725 312.238 309.166 311.58 309.642 310.733C309.6 311.503 309.6 312.301 309.6 313.183V315.808H306.345ZM314.637 313.974C315.12 313.974 315.526 313.575 315.526 313.085C315.526 312.595 315.12 312.196 314.637 312.196C314.147 312.196 313.734 312.595 313.734 313.085C313.734 313.575 314.147 313.974 314.637 313.974ZM314.637 319.14C315.12 319.14 315.526 318.741 315.526 318.251C315.526 317.768 315.12 317.369 314.637 317.369C314.147 317.369 313.734 317.768 313.734 318.251C313.734 318.741 314.147 319.14 314.637 319.14ZM320.968 313.176C320.163 313.176 319.519 313.372 318.896 313.876L319.106 310.929H323.418V309.9H318.091L317.783 314.478L318.735 315.052C319.414 314.408 319.967 314.184 320.73 314.184C321.997 314.184 322.634 314.968 322.634 316.144C322.627 317.439 321.815 318.104 320.555 318.104C319.512 318.104 318.588 317.558 318.336 316.424L317.216 316.641C317.566 318.272 318.819 319.14 320.534 319.14C322.48 319.14 323.88 318.006 323.88 316.137C323.88 314.331 322.83 313.176 320.968 313.176ZM329.24 313.176C328.435 313.176 327.791 313.372 327.168 313.876L327.378 310.929H331.69V309.9H326.363L326.055 314.478L327.007 315.052C327.686 314.408 328.239 314.184 329.002 314.184C330.269 314.184 330.906 314.968 330.906 316.144C330.899 317.439 330.087 318.104 328.827 318.104C327.784 318.104 326.86 317.558 326.608 316.424L325.488 316.641C325.838 318.272 327.091 319.14 328.806 319.14C330.752 319.14 332.152 318.006 332.152 316.137C332.152 314.331 331.102 313.176 329.24 313.176ZM337.574 312.112C336.412 312.112 335.593 312.588 335.152 313.491L335.138 312.245H334.053V321.73H335.194V317.782C335.649 318.65 336.44 319.14 337.574 319.14C339.534 319.14 340.64 317.691 340.64 315.612C340.64 313.547 339.534 312.112 337.574 312.112ZM337.378 318.125C336.006 318.125 335.152 317.047 335.152 315.612C335.152 314.184 336.006 313.134 337.378 313.134C338.771 313.134 339.471 314.156 339.471 315.612C339.471 317.075 338.771 318.125 337.378 318.125ZM349.636 312.105C348.516 312.105 347.788 312.623 347.417 313.47C347.137 312.574 346.486 312.105 345.394 312.105C344.316 312.105 343.623 312.581 343.245 313.358L343.252 312.245H342.188V319H343.308V315.486C343.308 313.981 343.98 313.127 345.149 313.127C346.136 313.127 346.479 313.729 346.479 315.017V319H347.592V315.486C347.592 313.981 348.257 313.127 349.426 313.127C350.413 313.127 350.756 313.75 350.756 315.017V319H351.869V314.849C351.869 313.113 351.204 312.105 349.636 312.105Z" fill="#5A5A5A"/>
<rect x="217.696" y="374.714" width="23.5731" height="65.0292" rx="5" fill="#5375FF"/>
<rect x="248.585" y="360.082" width="23.5731" height="79.6608" rx="5" fill="#5375FF"/>
<rect x="279.474" y="407.229" width="23.5731" height="32.5146" rx="5" fill="#5375FF"/>
<rect x="310.363" y="382.842" width="23.5731" height="56.9006" rx="5" fill="#5375FF"/>
<rect x="341.251" y="367.397" width="23.5731" height="72.345" rx="5" fill="#5375FF"/>
<rect x="372.14" y="427.55" width="23.5731" height="12.193" rx="5" fill="#5375FF"/>
<rect x="403.029" y="348.702" width="23.5731" height="91.0409" rx="5" fill="#5375FF"/>
<path d="M199 436.491H209.974" stroke="black"/>
<path d="M199 420.234H209.974" stroke="black"/>
<path d="M199 412.105H209.974" stroke="black"/>
<path d="M199 403.977H209.974" stroke="black"/>
<path d="M199 393.409H209.974" stroke="black"/>
<path d="M199 385.28H209.974" stroke="black"/>
<path d="M199 377.152H209.974" stroke="black"/>
<path d="M199 369.836H209.974" stroke="black"/>
<path d="M199 362.521H209.974" stroke="black"/>
<circle cx="266" cy="72" r="62" fill="#5375FF"/>
<g filter="url(#filter1_d)">
<circle cx="253" cy="62" r="62" fill="white"/>
</g>
<path d="M281.284 87.9131H235.597C234.12 87.9131 232.906 86.7324 232.906 85.2951V44.946C232.906 44.022 233.698 43.252 234.647 43.252H281.284C282.761 43.252 283.974 44.4327 283.974 45.87V85.2951C283.974 86.7838 282.761 87.9131 281.284 87.9131Z" fill="#5375FF"/>
<path d="M286.137 53.4764C284.976 53.3224 283.868 53.3224 282.813 53.5791C281.705 53.8357 280.65 53.0144 280.65 51.885V43.1581C280.65 41.7207 279.437 40.54 277.96 40.54H232.273C230.796 40.54 229.583 41.7207 229.583 43.1581V82.5832C229.583 84.0205 230.796 85.2012 232.273 85.2012H243.827C244.776 85.2012 245.515 84.4312 245.462 83.5072C245.462 83.3018 245.462 83.0965 245.462 82.8912C245.409 77.0903 250.263 72.3676 256.224 72.3676C262.186 72.3676 267.039 77.0903 267.039 82.8912C267.039 83.0965 267.039 83.3018 267.039 83.5072C266.987 84.4312 267.672 85.2012 268.622 85.2012H277.907C279.384 85.2012 280.598 84.0205 280.598 82.5832V71.8029C280.598 70.6735 281.653 69.8522 282.761 70.1088C283.394 70.2628 284.027 70.3142 284.713 70.3142C289.83 70.3142 293.945 66.0021 293.365 60.9199C292.942 57.1725 289.935 54.0411 286.137 53.4764Z" stroke="black" stroke-width="2" stroke-miterlimit="10"/>
<g clip-path="url(#clip1)">
<path d="M88.3 109C87.5 109 86.7 109.3 86.2 109.9C85.6 110.5 85.3 111.2 85.3 112C85.3 112.8 85 113.5 84.4 114.1C83.8 114.7 83 115 82.2 115C81.4 115 80.6 114.7 80.1 114.1C79.5 113.5 79.2 112.8 79.2 112C79.2 110.8 79 109.6 78.5 108.6C78 107.5 77.4 106.5 76.5 105.7C75.7 104.9 74.7 104.2 73.5 103.7C72.5 103.2 71.3 103 70.1 103C68.9 103 67.7 103.2 66.6 103.7C65.5 104.2 64.5 104.8 63.6 105.7C62.8 106.5 62.1 107.5 61.6 108.6C61.2 109.6 61 110.8 61 112C61 112.8 61.3 113.6 61.9 114.1C62.5 114.7 63.2 115 64 115C64.8 115 65.6 114.7 66.1 114.1C66.8 113.6 67.1 112.8 67.1 112C67.1 111.2 67.4 110.5 68 109.9C68.6 109.3 69.3 109 70.1 109C70.9 109 71.7 109.3 72.2 109.9C72.8 110.5 73.1 111.2 73.1 112C73.1 114.4 74.1 116.7 75.8 118.4C77.5 120.1 79.8 121 82.2 121C84.6 121 86.9 120.1 88.6 118.4C90.3 116.7 91.3 114.4 91.3 112C91.3 111.2 91 110.4 90.4 109.9C89.9 109.3 89.1 109 88.3 109Z" fill="#5977F7"/>
</g>
<circle cx="417.5" cy="102.5" r="13.5" fill="#EBEDF2"/>
<path d="M261.585 310.15L260.131 314.056C260.001 314.42 259.897 314.726 259.798 315.059C259.69 314.717 259.573 314.375 259.461 314.056L258.003 310.15H256.815V316H257.548V312.076C257.548 311.689 257.544 311.329 257.544 310.942C257.665 311.342 257.791 311.72 257.949 312.125L259.443 316H260.145L261.639 312.125C261.792 311.729 261.922 311.356 262.044 310.946C262.044 311.347 262.039 311.698 262.039 312.076V316H262.773V310.15H261.585ZM267.149 311.657L266.262 314.272C266.132 314.668 266.01 315.046 265.893 315.424C265.763 315.046 265.632 314.659 265.502 314.272L264.615 311.657H263.787L265.394 316.009H265.601L265.506 316.284C265.254 316.99 264.741 317.17 263.945 317.053L263.85 317.724C264.98 317.895 265.826 317.535 266.24 316.351L267.977 311.657H267.149ZM274.347 313.745C274.347 312.44 273.623 311.567 272.39 311.567C271.143 311.567 270.347 312.553 270.347 313.822C270.347 315.118 271.157 316.09 272.457 316.09C273.362 316.09 274.028 315.671 274.266 314.857L273.677 314.69C273.488 315.176 273.11 315.464 272.453 315.464C271.661 315.464 271.166 314.906 271.085 314.056H274.338C274.347 313.948 274.347 313.844 274.347 313.745ZM272.385 312.179C273.119 312.179 273.555 312.652 273.618 313.475H271.089C271.188 312.697 271.656 312.179 272.385 312.179ZM278.2 311.657L277.305 314.371C277.179 314.735 277.071 315.086 276.954 315.455C276.837 315.095 276.72 314.731 276.598 314.371L275.703 311.657H274.888L276.427 316H277.476L279.015 311.657H278.2ZM281.63 316.09C282.962 316.09 283.804 315.127 283.804 313.826C283.804 312.53 282.962 311.567 281.63 311.567C280.294 311.567 279.452 312.53 279.452 313.826C279.452 315.127 280.294 316.09 281.63 316.09ZM281.63 315.438C280.753 315.438 280.186 314.762 280.186 313.826C280.186 312.89 280.753 312.22 281.63 312.22C282.499 312.22 283.07 312.89 283.07 313.826C283.07 314.762 282.499 315.438 281.63 315.438ZM284.783 316H285.516V309.718H284.783V316ZM289.853 311.657V313.885C289.853 314.857 289.295 315.401 288.539 315.401C287.882 315.401 287.554 315.019 287.554 314.173V311.657H286.825V314.317C286.825 315.455 287.333 316.086 288.382 316.086C289.12 316.086 289.642 315.716 289.889 315.127L289.907 316H290.582V311.657H289.853ZM294.421 315.253C294.236 315.361 294.056 315.41 293.818 315.41C293.3 315.41 293.08 315.127 293.08 314.528V312.269H294.515V311.657H293.08V310.258L292.351 310.366V311.657H291.455V312.269H292.351V314.618C292.351 315.604 292.855 316.063 293.714 316.063C294.065 316.063 294.349 315.986 294.614 315.842L294.421 315.253ZM295.879 310.825C296.18 310.825 296.423 310.591 296.423 310.303C296.423 310.015 296.18 309.79 295.879 309.79C295.6 309.79 295.357 310.015 295.357 310.303C295.357 310.591 295.6 310.825 295.879 310.825ZM295.523 316H296.257V311.657H295.523V316ZM299.446 316.09C300.778 316.09 301.619 315.127 301.619 313.826C301.619 312.53 300.778 311.567 299.446 311.567C298.109 311.567 297.268 312.53 297.268 313.826C297.268 315.127 298.109 316.09 299.446 316.09ZM299.446 315.438C298.568 315.438 298.001 314.762 298.001 313.826C298.001 312.89 298.568 312.22 299.446 312.22C300.314 312.22 300.886 312.89 300.886 313.826C300.886 314.762 300.314 315.438 299.446 315.438ZM304.825 311.567C304.092 311.567 303.57 311.932 303.318 312.508L303.322 311.657H302.616V316H303.349V313.768C303.349 312.796 303.907 312.251 304.663 312.251C305.347 312.251 305.671 312.634 305.671 313.48V316H306.405V313.336C306.405 312.197 305.892 311.567 304.825 311.567Z" fill="white"/>
<defs>
<filter id="filter0_d" x="0" y="65" width="480" height="495" filterUnits="userSpaceOnUse" color-interpolation-filters="sRGB">
<feFlood flood-opacity="0" result="BackgroundImageFix"/>
<feColorMatrix in="SourceAlpha" type="matrix" values="0 0 0 0 0 0 0 0 0 0 0 0 0 0 0 0 0 0 127 0"/>
<feOffset dy="8"/>
<feGaussianBlur stdDeviation="5"/>
<feColorMatrix type="matrix" values="0 0 0 0 0 0 0 0 0 0 0 0 0 0 0 0 0 0 0.25 0"/>
<feBlend mode="normal" in2="BackgroundImageFix" result="effect1_dropShadow"/>
<feBlend mode="normal" in="SourceGraphic" in2="effect1_dropShadow" result="shape"/>
</filter>
<filter id="filter1_d" x="187" y="0" width="132" height="132" filterUnits="userSpaceOnUse" color-interpolation-filters="sRGB">
<feFlood flood-opacity="0" result="BackgroundImageFix"/>
<feColorMatrix in="SourceAlpha" type="matrix" values="0 0 0 0 0 0 0 0 0 0 0 0 0 0 0 0 0 0 127 0"/>
<feOffset dy="4"/>
<feGaussianBlur stdDeviation="2"/>
<feColorMatrix type="matrix" values="0 0 0 0 0 0 0 0 0 0 0 0 0 0 0 0 0 0 0.25 0"/>
<feBlend mode="normal" in2="BackgroundImageFix" result="effect1_dropShadow"/>
<feBlend mode="normal" in="SourceGraphic" in2="effect1_dropShadow" result="shape"/>
</filter>
<clipPath id="clip0">
<rect width="23.4048" height="20.352" fill="white" transform="translate(410.461 493.984)"/>
</clipPath>
<clipPath id="clip1">
<rect width="30.3" height="18" fill="white" transform="translate(61 103)"/>
</clipPath>
</defs>
</svg>
