<svg width="333" height="271" viewBox="0 0 333 271" fill="none" xmlns="http://www.w3.org/2000/svg">
<path d="M173.918 47.2628C174.379 46.7997 174.379 46.0492 173.918 45.5861C173.457 45.123 172.709 45.123 172.248 45.5861C171.786 46.0492 171.786 46.7997 172.248 47.2628C172.709 47.7259 173.457 47.7259 173.918 47.2628ZM168.325 19.1236C168.325 26.3141 174.152 32.1655 181.316 32.1655C188.479 32.1655 194.309 26.3141 194.309 19.1236C194.309 11.9331 188.479 6.08398 181.316 6.08398C174.152 6.08398 168.325 11.9331 168.325 19.1236Z" fill="#5375FF"/>
<path d="M159.725 66.4478C160.182 66.9109 160.929 66.9155 161.391 66.457L167.118 60.7949C168.091 59.8185 168.386 58.3722 167.959 57.1152L169.191 55.9244C169.852 55.2811 170.727 54.9275 171.65 54.9275H187.35C190.136 54.9275 192.768 53.853 194.763 51.9026C194.848 51.8227 194.141 52.6554 205.477 39.0591C207.159 37.063 206.907 34.0632 204.916 32.3751C202.938 30.7029 199.973 30.9425 198.286 32.9043L191.318 40.0948C190.438 39.0067 189.095 38.3291 187.645 38.3291H174.475C172.602 37.5421 170.611 37.1429 168.561 37.1429C162.873 37.1429 157.907 39.78 155.243 44.7235C154.12 44.5113 152.936 44.8512 152.084 45.7067L146.466 51.3642C146.007 51.825 146.004 52.5733 146.463 53.0364L159.725 66.4478ZM168.561 39.5154C170.37 39.5154 172.118 39.8804 173.759 40.6013C173.909 40.6674 174.07 40.7016 174.234 40.7016H187.645C188.927 40.7016 190.009 41.751 190.009 43.0719C190.009 44.379 188.948 45.4444 187.645 45.4444H178.009C177.357 45.4444 176.827 45.9736 176.827 46.6283C176.827 47.283 177.357 47.8146 178.009 47.8146H187.645C190.25 47.8146 192.37 45.6862 192.37 43.0696C192.37 42.8643 192.354 42.6567 192.329 42.4536C199.07 35.4958 200.02 34.5172 200.061 34.4693C200.902 33.4724 202.398 33.3469 203.391 34.1864C204.386 35.0305 204.513 36.5315 203.668 37.533L193.077 50.2441C191.527 51.736 189.498 52.555 187.35 52.555H171.652C170.113 52.555 168.657 53.1481 167.552 54.218L166.548 55.1899L157.295 45.9052C159.457 41.8309 163.516 39.5154 168.563 39.5154H168.561Z" fill="#5375FF"/>
<path d="M179.9 12.0105V13.402C178.525 13.8902 177.536 15.2088 177.536 16.7555C177.536 18.7151 179.127 20.3097 181.081 20.3097C181.731 20.3097 182.261 20.8412 182.261 21.4959C182.261 22.1483 181.731 22.6822 181.079 22.6822C180.575 22.6822 180.031 22.3628 179.547 21.7833C179.127 21.2815 178.381 21.2176 177.881 21.6396C177.381 22.0617 177.318 22.8076 177.738 23.3095C178.37 24.0623 179.113 24.587 179.897 24.8539V26.2363C179.897 26.8933 180.427 27.4226 181.079 27.4226C181.731 27.4226 182.261 26.8933 182.261 26.2363V24.8493C183.636 24.3589 184.625 23.0403 184.625 21.4959C184.625 19.534 183.034 17.9372 181.079 17.9372C180.429 17.9372 179.897 17.4079 179.897 16.7532C179.897 16.1007 180.429 15.5669 181.079 15.5669C181.5 15.5669 181.941 15.7814 182.356 16.1874C182.827 16.6437 183.575 16.63 184.027 16.1601C184.481 15.6901 184.468 14.9396 184 14.4833C183.4 13.9016 182.802 13.5708 182.261 13.3929V12.0105C182.261 11.3557 181.731 10.8242 181.079 10.8242C180.427 10.8242 179.897 11.3557 179.897 12.0105H179.9Z" fill="#FBFBFB"/>
<path d="M137.269 133H139.888V128.941H141.823C144.487 128.941 145.936 127.555 145.936 125.044C145.936 122.596 144.505 121.291 141.85 121.291H137.269V133ZM139.888 126.979V123.397H141.616C142.75 123.397 143.344 123.946 143.344 125.125C143.344 126.322 142.813 126.979 141.607 126.979H139.888ZM149.442 125.98L149.415 124.135H147.3V132.991H149.694V129.004C149.694 126.979 151.134 126.286 152.7 126.61V124.009C151.062 123.721 149.937 124.567 149.442 125.98ZM157.871 133.171C160.733 133.171 162.407 131.263 162.407 128.563C162.407 125.872 160.733 123.964 157.871 123.964C155 123.964 153.326 125.872 153.326 128.563C153.326 131.263 155 133.171 157.871 133.171ZM157.871 131.029C156.557 131.029 155.711 130.084 155.711 128.563C155.711 127.051 156.557 126.115 157.871 126.115C159.176 126.115 160.013 127.051 160.013 128.563C160.013 130.084 159.176 131.029 157.871 131.029ZM170.179 120.436V125.314C169.657 124.432 168.802 123.964 167.533 123.964C165.157 123.964 163.591 125.782 163.591 128.554C163.591 131.344 165.157 133.171 167.533 133.171C169 133.171 169.927 132.496 170.413 131.308L170.521 133H172.591V120.436H170.179ZM168.064 131.038C166.759 131.038 166.012 130.066 166.012 128.554C166.012 127.06 166.759 126.124 168.064 126.124C169.369 126.124 170.251 127.087 170.251 128.554C170.251 130.039 169.378 131.038 168.064 131.038ZM180.332 124.135V128.482C180.332 130.183 179.549 130.993 178.397 130.993C177.398 130.993 176.948 130.426 176.948 129.211V124.135H174.536V129.805C174.536 131.803 175.472 133.162 177.713 133.162C179.189 133.162 180.134 132.46 180.575 131.272L180.71 133H182.744V124.135H180.332ZM188.728 133.171C190.933 133.171 192.562 132.181 192.976 129.715L190.681 129.481C190.474 130.543 189.808 131.101 188.755 131.101C187.405 131.101 186.667 130.084 186.667 128.563C186.667 127.051 187.405 126.034 188.755 126.034C189.808 126.034 190.474 126.592 190.681 127.645L192.976 127.42C192.562 124.954 190.933 123.964 188.728 123.964C185.92 123.964 184.246 125.89 184.246 128.563C184.246 131.245 185.92 133.171 188.728 133.171ZM199.925 130.813C199.556 130.939 199.223 131.002 198.809 131.002C197.9 131.002 197.603 130.507 197.603 129.616V126.169H200.114V124.135H197.603V121.372L195.191 121.714V124.135H193.688V126.169H195.191V129.94C195.191 131.956 196.172 133.117 198.35 133.117C199.079 133.117 199.7 133.018 200.303 132.82L199.925 130.813Z" fill="black"/>
<path d="M125.269 166H133.189V163.75H127.897V161.032H132.307V158.971H127.897V156.55H133.009V154.3H125.269V166ZM143.425 166L140.671 161.527L143.254 157.135H140.329L138.772 160.249L137.206 157.135H134.29L136.864 161.527L134.11 166H137.035L138.772 162.733L140.5 166H143.425ZM149.604 156.973C148.191 156.973 147.255 157.558 146.751 158.665L146.715 157.135H144.528V169.393H146.94V164.776C147.471 165.676 148.353 166.171 149.604 166.171C151.989 166.171 153.519 164.344 153.519 161.563C153.519 158.791 151.989 156.973 149.604 156.973ZM149.037 164.038C147.732 164.038 146.859 163.039 146.859 161.563C146.859 160.096 147.732 159.133 149.037 159.133C150.351 159.133 151.089 160.069 151.089 161.563C151.089 163.066 150.351 164.038 149.037 164.038ZM163.244 161.437C163.244 158.71 161.66 156.964 159.059 156.964C156.395 156.964 154.703 158.935 154.703 161.572C154.703 164.263 156.332 166.171 159.131 166.171C161.183 166.171 162.677 165.199 163.082 163.291L161.048 162.976C160.823 163.786 160.202 164.191 159.122 164.191C157.988 164.191 157.286 163.516 157.097 162.229H163.199C163.235 161.923 163.244 161.68 163.244 161.437ZM159.059 158.917C160.067 158.917 160.769 159.511 160.868 160.708H157.115C157.322 159.538 158.024 158.917 159.059 158.917ZM166.885 158.98L166.858 157.135H164.743V165.991H167.137V162.004C167.137 159.979 168.577 159.286 170.143 159.61V157.009C168.505 156.721 167.38 157.567 166.885 158.98ZM172.594 156.226C173.404 156.226 174.088 155.587 174.088 154.786C174.088 153.994 173.404 153.355 172.594 153.355C171.802 153.355 171.118 153.994 171.118 154.786C171.118 155.587 171.802 156.226 172.594 156.226ZM171.397 166H173.809V157.135H171.397V166ZM183.845 161.437C183.845 158.71 182.261 156.964 179.66 156.964C176.996 156.964 175.304 158.935 175.304 161.572C175.304 164.263 176.933 166.171 179.732 166.171C181.784 166.171 183.278 165.199 183.683 163.291L181.649 162.976C181.424 163.786 180.803 164.191 179.723 164.191C178.589 164.191 177.887 163.516 177.698 162.229H183.8C183.836 161.923 183.845 161.68 183.845 161.437ZM179.66 158.917C180.668 158.917 181.37 159.511 181.469 160.708H177.716C177.923 159.538 178.625 158.917 179.66 158.917ZM190.376 156.964C188.891 156.964 187.946 157.684 187.505 158.89L187.487 157.135H185.345V166H187.757V161.734C187.757 160.042 188.54 159.223 189.692 159.223C190.7 159.223 191.141 159.79 191.141 161.005V166H193.553V160.33C193.553 158.323 192.617 156.964 190.376 156.964ZM199.474 166.171C201.679 166.171 203.308 165.181 203.722 162.715L201.427 162.481C201.22 163.543 200.554 164.101 199.501 164.101C198.151 164.101 197.413 163.084 197.413 161.563C197.413 160.051 198.151 159.034 199.501 159.034C200.554 159.034 201.22 159.592 201.427 160.645L203.722 160.42C203.308 157.954 201.679 156.964 199.474 156.964C196.666 156.964 194.992 158.89 194.992 161.563C194.992 164.245 196.666 166.171 199.474 166.171ZM213.429 161.437C213.429 158.71 211.845 156.964 209.244 156.964C206.58 156.964 204.888 158.935 204.888 161.572C204.888 164.263 206.517 166.171 209.316 166.171C211.368 166.171 212.862 165.199 213.267 163.291L211.233 162.976C211.008 163.786 210.387 164.191 209.307 164.191C208.173 164.191 207.471 163.516 207.282 162.229H213.384C213.42 161.923 213.429 161.68 213.429 161.437ZM209.244 158.917C210.252 158.917 210.954 159.511 211.053 160.708H207.3C207.507 159.538 208.209 158.917 209.244 158.917Z" fill="black"/>
<path d="M151.291 202.171C154.36 202.171 156.277 200.587 156.538 197.653L154 197.311C153.703 199.39 152.65 199.975 151.237 199.975C149.212 199.975 148.249 198.472 148.249 196.15C148.249 193.828 149.212 192.325 151.237 192.325C152.65 192.325 153.712 192.973 154 194.989L156.538 194.647C156.313 191.713 154.36 190.129 151.291 190.129C147.628 190.129 145.54 192.577 145.54 196.15C145.54 199.723 147.628 202.171 151.291 202.171ZM166.337 200.02C165.869 200.02 165.752 199.795 165.752 199.354V196.663C165.752 194.971 165.266 192.964 161.81 192.964C159.587 192.964 158.048 194.026 157.904 196.033L160.217 196.303C160.325 195.367 160.838 194.926 161.819 194.926C163.034 194.926 163.394 195.646 163.394 196.636V196.987C162.881 196.906 162.341 196.861 161.756 196.861C159.317 196.861 157.607 197.554 157.607 199.426C157.607 201.01 158.696 202.162 160.631 202.162C162.098 202.162 163.169 201.622 163.655 200.659C163.79 201.694 164.294 202.072 165.617 202.072C166.067 202.072 166.427 202.045 166.823 201.946V199.984C166.652 200.011 166.49 200.02 166.337 200.02ZM161.45 200.326C160.649 200.326 160.208 199.993 160.208 199.336C160.208 198.67 160.802 198.355 162.089 198.355C162.548 198.355 162.962 198.391 163.394 198.472V199.435C163.007 199.993 162.287 200.326 161.45 200.326ZM171.776 202.171C173.999 202.171 175.394 201.1 175.394 199.426C175.403 197.779 174.287 197.185 171.911 196.663C170.552 196.366 170.21 196.105 170.21 195.592C170.21 195.124 170.561 194.791 171.443 194.791C172.397 194.791 172.991 195.232 173.099 196.294L175.286 196.096C175.169 194.197 174.053 192.964 171.434 192.964C169.427 192.964 167.915 193.936 167.906 195.727C167.897 197.365 168.95 198.058 171.425 198.571C172.595 198.805 173.054 198.976 173.054 199.543C173.054 200.065 172.667 200.344 171.758 200.344C170.723 200.344 170.012 199.957 169.877 198.85L167.6 199.057C167.762 201.235 169.544 202.171 171.776 202.171ZM182.075 192.964C180.752 192.964 179.87 193.558 179.384 194.566V189.436H176.972V202H179.384V197.734C179.384 196.042 180.167 195.223 181.319 195.223C182.327 195.223 182.768 195.79 182.768 197.005V202H185.18V196.33C185.18 194.323 184.244 192.964 182.075 192.964Z" fill="black"/>
<rect x="81.5" y="121.5" width="13" height="13" stroke="#5375FF"/>
<rect x="81.5" y="154.5" width="13" height="13" stroke="#5375FF"/>
<rect x="81.5" y="192.5" width="13" height="13" stroke="#5375FF"/>
<rect x="0.5" y="236.5" width="332" height="34" rx="8.5" stroke="#A3A3A3"/>
<path d="M28.252 248.3L25.579 255.968C25.237 256.958 24.931 257.876 24.598 258.929C24.31 258.029 23.959 256.931 23.626 255.968L20.953 248.3H19.639L23.788 260H25.417L29.566 248.3H28.252ZM38.8544 260H40.1864L35.8304 248.3H34.1024L29.7464 260H31.0784L32.1944 256.931H37.7384L38.8544 260ZM32.5634 255.914L34.9664 249.326L37.3694 255.914H32.5634ZM43.9092 260H45.1512V249.38H48.7152V248.3H40.3452V249.38H43.9092V260ZM58.8599 251.189C57.3569 251.189 56.2499 251.972 55.7459 253.178L55.7729 251.369H54.6209V260H55.7999V255.473C55.7999 253.466 57.0239 252.287 58.6439 252.287C60.1199 252.287 60.8309 253.115 60.8309 254.951V260H62.0099V254.78C62.0099 252.422 60.9659 251.189 58.8599 251.189ZM70.6769 251.369V255.887C70.6769 257.903 69.4619 259.073 67.8419 259.073C66.4829 259.073 65.7629 258.245 65.7629 256.409V251.369H64.5839V256.589C64.5839 258.947 65.6369 260.18 67.6529 260.18C69.1559 260.18 70.2359 259.397 70.7399 258.2V260H71.8559V251.369H70.6769ZM84.2947 251.189C82.8007 251.189 81.8287 251.909 81.3607 253.043C81.0187 251.828 80.1997 251.189 78.7777 251.189C77.3287 251.189 76.4107 251.855 75.9427 252.917L75.9607 251.369H74.8357V260H76.0057V255.446C76.0057 253.43 76.9417 252.26 78.5707 252.26C79.9477 252.26 80.3977 253.097 80.3977 254.906V260H81.5587V255.446C81.5587 253.43 82.4857 252.26 84.1147 252.26C85.5007 252.26 85.9507 253.124 85.9507 254.906V260H87.1117V254.78C87.1117 252.476 86.3017 251.189 84.2947 251.189ZM94.212 251.189C92.691 251.189 91.611 251.837 91.044 253.016V247.436H89.865V260H90.999L91.017 258.209C91.575 259.442 92.655 260.18 94.212 260.18C96.786 260.18 98.181 258.308 98.181 255.671C98.181 253.052 96.786 251.189 94.212 251.189ZM94.068 259.127C92.178 259.127 91.008 257.633 91.008 255.671C91.008 253.718 92.178 252.251 94.068 252.251C96.003 252.251 96.957 253.682 96.957 255.671C96.957 257.669 96.003 259.127 94.068 259.127ZM107.733 255.509C107.733 252.926 106.32 251.189 103.89 251.189C101.451 251.189 99.8848 253.16 99.8848 255.662C99.8848 258.218 101.514 260.18 104.025 260.18C105.771 260.18 107.067 259.37 107.571 257.831L106.644 257.507C106.23 258.533 105.42 259.154 104.025 259.154C102.297 259.154 101.208 257.867 101.073 256.022H107.724C107.733 255.842 107.733 255.671 107.733 255.509ZM103.89 252.197C105.492 252.197 106.428 253.25 106.554 255.05H101.1C101.28 253.367 102.279 252.197 103.89 252.197ZM111.046 253.133L111.064 251.369H109.939V260H111.1V255.428C111.1 253.178 112.819 252.062 114.502 252.503L114.583 251.27C112.99 250.919 111.631 251.621 111.046 253.133Z" fill="#ABA2A2"/>
</svg>
