<svg width="459" height="362" viewBox="0 0 459 362" fill="none" xmlns="http://www.w3.org/2000/svg">
<g filter="url(#filter0_d)">
<rect x="4" width="451" height="354" rx="26" fill="#FAFAFA"/>
</g>
<path d="M210.584 150.626L224.084 145.298V141.014L210.584 135.974V140.114L219.638 143.264L210.584 146.486V150.626ZM236.208 150.734V131.06C232.86 132.284 229.746 132.914 225.966 133.058V137.504C227.82 137.45 229.368 137.216 230.952 136.802V150.734H225.966V155H241.194V150.734H236.208ZM251.759 155.342C258.239 155.342 261.389 150.878 261.389 143.3C261.389 135.722 258.095 131.276 251.759 131.276C245.405 131.276 242.111 135.722 242.111 143.3C242.111 150.878 245.261 155.342 251.759 155.342ZM251.759 151.04C248.699 151.04 247.295 148.016 247.295 143.3C247.295 138.602 248.699 135.578 251.759 135.578C254.801 135.578 256.205 138.602 256.205 143.3C256.205 148.016 254.801 151.04 251.759 151.04ZM273.485 155.342C279.965 155.342 283.115 150.878 283.115 143.3C283.115 135.722 279.821 131.276 273.485 131.276C267.131 131.276 263.837 135.722 263.837 143.3C263.837 150.878 266.987 155.342 273.485 155.342ZM273.485 151.04C270.425 151.04 269.021 148.016 269.021 143.3C269.021 138.602 270.425 135.578 273.485 135.578C276.527 135.578 277.931 138.602 277.931 143.3C277.931 148.016 276.527 151.04 273.485 151.04ZM295.212 155.342C301.692 155.342 304.842 150.878 304.842 143.3C304.842 135.722 301.548 131.276 295.212 131.276C288.858 131.276 285.564 135.722 285.564 143.3C285.564 150.878 288.714 155.342 295.212 155.342ZM295.212 151.04C292.152 151.04 290.748 148.016 290.748 143.3C290.748 138.602 292.152 135.578 295.212 135.578C298.254 135.578 299.658 138.602 299.658 143.3C299.658 148.016 298.254 151.04 295.212 151.04Z" fill="#464646"/>
<path d="M210.584 225.626L224.084 220.298V216.014L210.584 210.974V215.114L219.638 218.264L210.584 221.486V225.626ZM236.982 214.592C234.966 214.592 233.436 215.06 232.068 216.23L232.464 210.956H243.012V206.6H228.234L227.388 218.39L231.636 220.712C232.698 219.38 233.868 218.786 235.398 218.786C237.918 218.786 239.106 220.136 239.088 222.35C239.088 224.726 237.594 225.95 235.308 225.95C233.184 225.95 231.402 224.852 231.024 222.332L226.056 222.854C226.668 227.714 230.052 230.342 235.272 230.342C240.582 230.342 244.416 227.174 244.416 222.332C244.416 217.688 241.752 214.592 236.982 214.592ZM256.645 230.342C263.125 230.342 266.275 225.878 266.275 218.3C266.275 210.722 262.981 206.276 256.645 206.276C250.291 206.276 246.997 210.722 246.997 218.3C246.997 225.878 250.147 230.342 256.645 230.342ZM256.645 226.04C253.585 226.04 252.181 223.016 252.181 218.3C252.181 213.602 253.585 210.578 256.645 210.578C259.687 210.578 261.091 213.602 261.091 218.3C261.091 223.016 259.687 226.04 256.645 226.04ZM278.372 230.342C284.852 230.342 288.002 225.878 288.002 218.3C288.002 210.722 284.708 206.276 278.372 206.276C272.018 206.276 268.724 210.722 268.724 218.3C268.724 225.878 271.874 230.342 278.372 230.342ZM278.372 226.04C275.312 226.04 273.908 223.016 273.908 218.3C273.908 213.602 275.312 210.578 278.372 210.578C281.414 210.578 282.818 213.602 282.818 218.3C282.818 223.016 281.414 226.04 278.372 226.04ZM300.099 230.342C306.579 230.342 309.729 225.878 309.729 218.3C309.729 210.722 306.435 206.276 300.099 206.276C293.745 206.276 290.451 210.722 290.451 218.3C290.451 225.878 293.601 230.342 300.099 230.342ZM300.099 226.04C297.039 226.04 295.635 223.016 295.635 218.3C295.635 213.602 297.039 210.578 300.099 210.578C303.141 210.578 304.545 213.602 304.545 218.3C304.545 223.016 303.141 226.04 300.099 226.04Z" fill="#464646"/>
<rect x="111.5" y="128.5" width="31" height="30" stroke="#5375FF"/>
<path d="M210.584 302.626L224.084 297.298V293.014L210.584 287.974V292.114L219.638 295.264L210.584 298.486V302.626ZM236.208 302.734V283.06C232.86 284.284 229.746 284.914 225.966 285.058V289.504C227.82 289.45 229.368 289.216 230.952 288.802V302.734H225.966V307H241.194V302.734H236.208ZM251.759 307.342C258.239 307.342 261.389 302.878 261.389 295.3C261.389 287.722 258.095 283.276 251.759 283.276C245.405 283.276 242.111 287.722 242.111 295.3C242.111 302.878 245.261 307.342 251.759 307.342ZM251.759 303.04C248.699 303.04 247.295 300.016 247.295 295.3C247.295 290.602 248.699 287.578 251.759 287.578C254.801 287.578 256.205 290.602 256.205 295.3C256.205 300.016 254.801 303.04 251.759 303.04ZM273.485 307.342C279.965 307.342 283.115 302.878 283.115 295.3C283.115 287.722 279.821 283.276 273.485 283.276C267.131 283.276 263.837 287.722 263.837 295.3C263.837 302.878 266.987 307.342 273.485 307.342ZM273.485 303.04C270.425 303.04 269.021 300.016 269.021 295.3C269.021 290.602 270.425 287.578 273.485 287.578C276.527 287.578 277.931 290.602 277.931 295.3C277.931 300.016 276.527 303.04 273.485 303.04ZM295.212 307.342C301.692 307.342 304.842 302.878 304.842 295.3C304.842 287.722 301.548 283.276 295.212 283.276C288.858 283.276 285.564 287.722 285.564 295.3C285.564 302.878 288.714 307.342 295.212 307.342ZM295.212 303.04C292.152 303.04 290.748 300.016 290.748 295.3C290.748 290.602 292.152 287.578 295.212 287.578C298.254 287.578 299.658 290.602 299.658 295.3C299.658 300.016 298.254 303.04 295.212 303.04ZM316.938 307.342C323.418 307.342 326.568 302.878 326.568 295.3C326.568 287.722 323.274 283.276 316.938 283.276C310.584 283.276 307.29 287.722 307.29 295.3C307.29 302.878 310.44 307.342 316.938 307.342ZM316.938 303.04C313.878 303.04 312.474 300.016 312.474 295.3C312.474 290.602 313.878 287.578 316.938 287.578C319.98 287.578 321.384 290.602 321.384 295.3C321.384 300.016 319.98 303.04 316.938 303.04Z" fill="#464646"/>
<rect x="111.5" y="280.5" width="31" height="30" stroke="#5375FF"/>
<rect x="111.5" y="203.5" width="31" height="30" stroke="#5375FF"/>
<g clip-path="url(#clip0)">
<path d="M109.996 201.217C110.033 201.217 110.106 201.217 110.143 201.217C110.624 201.237 110.957 201.032 111.105 200.806C111.586 200.087 110.291 199.553 109.108 199.759C108.627 199.841 108.109 200.067 108.035 200.354C107.739 201.443 108.553 202.572 109.071 203.599C109.7 204.872 110.439 206.145 111.068 207.439C112.363 210.006 113.657 212.573 114.841 215.161C117.245 220.315 119.094 225.573 120.907 230.809C121.388 232.185 125.308 232.473 126.418 231.2C131.855 224.957 137.07 218.652 142.988 212.553C145.466 210.006 148.055 207.501 151.125 205.18C152.605 204.071 154.232 203.044 155.971 202.079C157.857 201.052 160.15 200.272 162.037 199.245C160.15 198.65 158.301 198.034 156.414 197.438C156.23 197.787 155.971 198.116 155.712 198.465C154.602 200.005 158.708 201.155 160.594 200.046C161.075 199.779 161.519 199.492 162 199.245C164.367 198.054 161.889 195.405 158.745 196.124C153.714 197.274 149.646 199.964 146.391 202.326C143.062 204.749 140.325 207.378 137.736 210.068C131.707 216.413 126.307 222.944 121.129 229.516C122.978 229.639 124.79 229.783 126.64 229.906C124.495 224.772 121.942 219.72 119.353 214.647C118.059 212.142 116.727 209.657 115.322 207.172C114.582 205.899 113.842 204.626 113.065 203.373C112.696 202.798 112.326 202.243 111.919 201.689C111.697 201.299 111.105 200.724 111.105 200.436C110.883 200.642 110.661 200.868 110.439 201.073C110.513 201.052 110.55 201.032 110.624 201.011C110.291 201.032 109.996 201.052 109.663 201.073C109.552 201.011 109.441 200.97 109.33 200.909C109.33 200.724 109.33 200.539 109.33 200.354C109.293 200.375 109.256 200.395 109.256 200.416C108.738 200.785 109.404 201.176 109.996 201.217Z" fill="black"/>
</g>
<g filter="url(#filter1_d)">
<rect x="89" y="23" width="282" height="59" rx="13" fill="white"/>
</g>
<rect x="134" y="60" width="12" height="3" fill="#242424"/>
<rect x="125" y="51" width="27" height="3" fill="#242424"/>
<rect x="116" y="42" width="45" height="3" fill="#242424"/>
<path d="M208.258 65H211.354V54.596H221.488V52.058H211.354V44.264H222.604V41.6H208.258V65ZM228.109 44.3C229.315 44.3 230.287 43.364 230.287 42.212C230.287 41.06 229.315 40.16 228.109 40.16C226.993 40.16 226.021 41.06 226.021 42.212C226.021 43.364 226.993 44.3 228.109 44.3ZM226.687 65H229.621V47.63H226.687V65ZM235.158 65H238.092V39.872H235.158V65ZM253.424 62.012C252.686 62.444 251.966 62.642 251.012 62.642C248.942 62.642 248.06 61.508 248.06 59.114V50.078H253.802V47.63H248.06V42.032L245.144 42.464V47.63H241.562V50.078H245.144V59.474C245.144 63.416 247.16 65.252 250.598 65.252C252.002 65.252 253.136 64.946 254.198 64.37L253.424 62.012ZM272.271 55.982C272.271 50.762 269.373 47.27 264.441 47.27C259.455 47.27 256.269 51.212 256.269 56.288C256.269 61.472 259.509 65.36 264.711 65.36C268.329 65.36 270.993 63.686 271.947 60.428L269.589 59.762C268.833 61.706 267.321 62.858 264.693 62.858C261.525 62.858 259.545 60.626 259.221 57.224H272.235C272.271 56.792 272.271 56.378 272.271 55.982ZM264.423 49.718C267.357 49.718 269.103 51.608 269.355 54.902H259.239C259.635 51.788 261.507 49.718 264.423 49.718ZM279.097 51.14L279.115 47.63H276.361V65H279.205V56.198C279.205 51.752 282.607 49.7 285.937 50.492L286.009 47.414C282.859 46.73 280.249 48.188 279.097 51.14ZM295.726 65.36C299.902 65.36 302.206 63.362 302.206 60.266C302.206 56.882 299.668 56.036 295.762 55.172C292.99 54.542 291.496 54.038 291.496 52.22C291.496 50.69 292.594 49.61 295.042 49.61C297.526 49.61 299.272 50.816 299.434 53.498L302.008 53.156C301.918 49.592 299.596 47.27 295.024 47.27C291.19 47.27 288.67 49.196 288.652 52.4C288.652 55.496 290.83 56.702 295.168 57.62C297.724 58.16 299.308 58.556 299.308 60.482C299.308 62.21 298.03 63.02 295.654 63.02C292.918 63.02 290.938 61.994 290.74 59.096L288.058 59.456C288.346 63.56 291.388 65.36 295.726 65.36Z" fill="#252525"/>
<path d="M20 28.88L20 37.28L32.408 37.28L32.408 48.224L38.936 48.224L38.936 37.28L44 37.28L44 50.288L51.2 50.288L51.2 28.88L20 28.88ZM19.568 63.3485C19.568 71.2205 24.608 75.6845 31.952 75.6845C39.248 75.6845 44.288 71.2205 44.288 63.3485C44.288 55.4765 39.248 51.0125 31.952 51.0125C24.608 51.0125 19.568 55.4765 19.568 63.3485ZM26.336 63.3485C26.336 60.4205 28.328 58.5485 31.952 58.5485C35.528 58.5485 37.52 60.4205 37.52 63.3485C37.52 66.2765 35.528 68.1485 31.952 68.1485C28.328 68.1485 26.336 66.2765 26.336 63.3485ZM20 79.0662L20 86.6982L53.504 86.6982L53.504 79.0662L20 79.0662ZM20 91.0194L20 98.6514L53.504 98.6514L53.504 91.0194L20 91.0194ZM19.568 114.348C19.568 122.22 24.608 126.684 31.952 126.685C39.248 126.685 44.288 122.22 44.288 114.348C44.288 106.476 39.248 102.012 31.952 102.012C24.608 102.012 19.568 106.476 19.568 114.348ZM26.336 114.348C26.336 111.42 28.328 109.548 31.952 109.548C35.528 109.548 37.52 111.42 37.52 114.348C37.52 117.276 35.528 119.148 31.952 119.148C28.328 119.148 26.336 117.276 26.336 114.348ZM43.856 157.987L32.408 156.043C29.888 155.635 27.848 155.275 25.232 154.915C28.184 154.507 30.248 154.123 32.6 153.715L43.856 151.723L43.856 142.339L32.72 140.347C30.368 139.915 28.328 139.555 25.352 139.147C27.992 138.787 30.008 138.451 32.528 138.019L43.856 136.075L43.856 128.155L20 133.819L20 144.043L32.744 146.491C33.776 146.683 34.712 146.851 35.864 147.043C34.712 147.211 33.776 147.379 32.744 147.571L20 150.019L20 160.243L43.856 165.907L43.856 157.987ZM32.24 190.804C39.632 190.804 44.288 186.412 44.288 179.308C44.288 171.988 39.056 167.356 31.88 167.356C24.584 167.356 19.568 171.724 19.568 179.38C19.568 185.188 22.328 189.388 27.752 190.372L28.568 183.892C26.6 183.46 25.736 181.972 25.736 179.38C25.736 176.884 27.08 175.372 30.008 174.892L30.008 190.66C30.872 190.78 31.568 190.804 32.24 190.804ZM38.192 179.308C38.192 181.468 37.016 183.124 34.352 183.292L34.352 174.94C36.992 175.492 38.192 177.052 38.192 179.308ZM38.768 200.768L43.856 200.672L43.856 194.144L20.048 194.144L20.048 201.776L30.224 201.776C35.312 201.776 36.704 205.232 35.936 209.24L44.216 209.24C44.912 204.752 42.488 201.968 38.768 200.768ZM19.568 222.585C19.568 228.681 22.496 232.713 27.128 232.737C31.448 232.761 33.248 229.977 34.76 223.113C35.552 219.513 36.248 219.081 37.136 219.081C37.976 219.081 38.6 219.777 38.6 221.697C38.6 223.881 37.64 225.081 35.168 225.417L35.744 232.425C40.928 232.017 44.288 229.089 44.288 221.697C44.288 216.225 41.696 211.857 36.68 211.833C32.048 211.809 30.2 214.881 28.832 221.553C28.232 224.577 27.824 225.345 26.792 225.345C25.832 225.345 25.256 224.625 25.256 222.561C25.256 220.209 26.144 218.697 28.688 218.289L28.088 211.017C22.088 211.425 19.568 216.561 19.568 222.585Z" fill="#5375FF"/>
<defs>
<filter id="filter0_d" x="0" y="0" width="459" height="362" filterUnits="userSpaceOnUse" color-interpolation-filters="sRGB">
<feFlood flood-opacity="0" result="BackgroundImageFix"/>
<feColorMatrix in="SourceAlpha" type="matrix" values="0 0 0 0 0 0 0 0 0 0 0 0 0 0 0 0 0 0 127 0"/>
<feOffset dy="4"/>
<feGaussianBlur stdDeviation="2"/>
<feColorMatrix type="matrix" values="0 0 0 0 0 0 0 0 0 0 0 0 0 0 0 0 0 0 0.25 0"/>
<feBlend mode="normal" in2="BackgroundImageFix" result="effect1_dropShadow"/>
<feBlend mode="normal" in="SourceGraphic" in2="effect1_dropShadow" result="shape"/>
</filter>
<filter id="filter1_d" x="85" y="23" width="290" height="67" filterUnits="userSpaceOnUse" color-interpolation-filters="sRGB">
<feFlood flood-opacity="0" result="BackgroundImageFix"/>
<feColorMatrix in="SourceAlpha" type="matrix" values="0 0 0 0 0 0 0 0 0 0 0 0 0 0 0 0 0 0 127 0"/>
<feOffset dy="4"/>
<feGaussianBlur stdDeviation="2"/>
<feColorMatrix type="matrix" values="0 0 0 0 0 0 0 0 0 0 0 0 0 0 0 0 0 0 0.25 0"/>
<feBlend mode="normal" in2="BackgroundImageFix" result="effect1_dropShadow"/>
<feBlend mode="normal" in="SourceGraphic" in2="effect1_dropShadow" result="shape"/>
</filter>
<clipPath id="clip0">
<rect width="55" height="36" fill="white" transform="translate(108 196)"/>
</clipPath>
</defs>
</svg>
