<svg width="453" height="150" viewBox="0 0 453 150" fill="none" xmlns="http://www.w3.org/2000/svg">
<path d="M0 13H361" stroke="black"/>
<path d="M401.857 11.844C403.045 11.439 403.585 10.548 403.585 9.144C403.585 7.281 402.433 6.3 400.057 6.3H395.629V18H400.579C402.766 18 404.224 16.776 404.224 14.868C404.224 13.284 403.468 12.168 401.857 11.844ZM397.177 7.524H399.868C401.218 7.524 402.037 7.992 402.037 9.351C402.037 10.755 401.236 11.34 399.796 11.34H397.177V7.524ZM400.435 16.776H397.177V12.555H400.084C401.866 12.555 402.667 13.194 402.667 14.76C402.667 16.065 401.839 16.776 400.435 16.776ZM412.488 9.315V13.77C412.488 15.714 411.372 16.803 409.86 16.803C408.546 16.803 407.889 16.038 407.889 14.346V9.315H406.431V14.634C406.431 16.911 407.448 18.171 409.545 18.171C411.021 18.171 412.065 17.433 412.56 16.254L412.596 18H413.946V9.315H412.488ZM422.945 5.436V10.782C422.387 9.702 421.397 9.135 419.957 9.135C417.428 9.135 415.943 10.989 415.943 13.644C415.943 16.317 417.428 18.18 419.957 18.18C421.451 18.18 422.441 17.514 422.999 16.353L423.017 18H424.412V5.436H422.945ZM420.137 16.875C418.346 16.875 417.446 15.525 417.446 13.644C417.446 11.763 418.346 10.449 420.137 10.449C421.901 10.449 422.999 11.799 422.999 13.644C422.999 15.489 421.901 16.875 420.137 16.875ZM433.62 9.324L433.611 11.106C433.08 9.837 432.045 9.135 430.461 9.135C427.923 9.135 426.447 10.962 426.447 13.563C426.447 16.182 427.923 18.009 430.461 18.009C432.054 18.009 433.062 17.262 433.602 15.975V17.469C433.602 19.476 432.378 20.448 430.704 20.448C429.507 20.448 428.427 20.016 427.527 19.044L426.717 20.097C427.797 21.195 429.048 21.69 430.65 21.69C433.17 21.69 434.952 20.277 434.952 17.496V9.324H433.62ZM430.641 16.722C428.85 16.722 427.95 15.399 427.95 13.563C427.95 11.727 428.85 10.431 430.641 10.431C432.405 10.431 433.503 11.763 433.503 13.563C433.503 15.363 432.405 16.722 430.641 16.722ZM444.985 13.491C444.985 10.881 443.536 9.135 441.07 9.135C438.577 9.135 436.984 11.106 436.984 13.644C436.984 16.236 438.604 18.18 441.205 18.18C443.014 18.18 444.346 17.343 444.823 15.714L443.644 15.381C443.266 16.353 442.51 16.929 441.196 16.929C439.612 16.929 438.622 15.813 438.46 14.112H444.967C444.985 13.896 444.985 13.689 444.985 13.491ZM441.061 10.359C442.528 10.359 443.401 11.304 443.527 12.951H438.469C438.667 11.394 439.603 10.359 441.061 10.359ZM451.962 16.506C451.593 16.722 451.233 16.821 450.756 16.821C449.721 16.821 449.28 16.254 449.28 15.057V10.539H452.151V9.315H449.28V6.516L447.822 6.732V9.315H446.031V10.539H447.822V15.237C447.822 17.208 448.83 18.126 450.549 18.126C451.251 18.126 451.818 17.973 452.349 17.685L451.962 16.506Z" fill="black"/>
<path d="M31 96.8406C31 107.23 39.2977 115.684 49.4984 115.684C59.699 115.684 68 107.23 68 96.8406C68 86.4512 59.699 78 49.4984 78C39.2977 78 31 86.4512 31 96.8406Z" fill="#5375FF"/>
<path d="M47.7453 86.7152V88.7273C45.6341 89.4332 44.1162 91.3397 44.1162 93.5761C44.1162 96.4096 46.5588 98.7152 49.5598 98.7152C50.5578 98.7152 51.3709 99.4838 51.3709 100.43C51.3709 101.374 50.5578 102.146 49.5563 102.146C48.7817 102.146 47.9477 101.684 47.2044 100.846C46.5588 100.12 45.4143 100.028 44.6466 100.638C43.8789 101.248 43.7812 102.327 44.4267 103.053C45.3968 104.141 46.5379 104.9 47.7418 105.286V107.285C47.7418 108.235 48.5548 109 49.5563 109C50.5578 109 51.3709 108.235 51.3709 107.285V105.279C53.4821 104.57 55 102.664 55 100.43C55 97.5937 52.5573 95.2848 49.5563 95.2848C48.5583 95.2848 47.7418 94.5195 47.7418 93.5728C47.7418 92.6295 48.5583 91.8576 49.5563 91.8576C50.2019 91.8576 50.8789 92.1677 51.5175 92.7548C52.2398 93.4145 53.3878 93.3947 54.0823 92.7152C54.7802 92.0357 54.7592 90.9505 54.0404 90.2908C53.1191 89.4497 52.2014 88.9714 51.3709 88.7141V86.7152C51.3709 85.7686 50.5578 85 49.5563 85C48.5548 85 47.7418 85.7686 47.7418 86.7152H47.7453Z" fill="#FBFBFB"/>
<path d="M25.092 97.796H21.84V94.436H18.984V97.796H15.732V100.628H18.984V103.988H21.84V100.628H25.092V97.796Z" fill="#5375FF"/>
<path d="M71 65.8406C71 76.2299 79.2977 84.6845 89.4984 84.6845C99.699 84.6845 108 76.2299 108 65.8406C108 55.4512 99.699 47 89.4984 47C79.2977 47 71 55.4512 71 65.8406Z" fill="#5375FF"/>
<path d="M87.7453 55.7152V57.7273C85.6341 58.4332 84.1162 60.3397 84.1162 62.5761C84.1162 65.4096 86.5588 67.7152 89.5598 67.7152C90.5578 67.7152 91.3709 68.4838 91.3709 69.4305C91.3709 70.3738 90.5578 71.1457 89.5563 71.1457C88.7817 71.1457 87.9477 70.6839 87.2044 69.8461C86.5588 69.1204 85.4143 69.028 84.6466 69.6383C83.8789 70.2485 83.7812 71.3271 84.4267 72.0528C85.3968 73.1413 86.5379 73.8999 87.7418 74.2859V76.2848C87.7418 77.2347 88.5548 78 89.5563 78C90.5578 78 91.3709 77.2347 91.3709 76.2848V74.2793C93.4821 73.5701 95 71.6636 95 69.4305C95 66.5937 92.5573 64.2848 89.5563 64.2848C88.5583 64.2848 87.7418 63.5195 87.7418 62.5728C87.7418 61.6295 88.5583 60.8576 89.5563 60.8576C90.2019 60.8576 90.8789 61.1677 91.5175 61.7548C92.2398 62.4145 93.3878 62.3947 94.0823 61.7152C94.7802 61.0357 94.7592 59.9505 94.0404 59.2908C93.1191 58.4497 92.2014 57.9714 91.3709 57.7141V55.7152C91.3709 54.7686 90.5578 54 89.5563 54C88.5548 54 87.7418 54.7686 87.7418 55.7152H87.7453Z" fill="#FBFBFB"/>
<path d="M65.092 66.796H61.84V63.436H58.984V66.796H55.732V69.628H58.984V72.988H61.84V69.628H65.092V66.796Z" fill="#5375FF"/>
<path d="M142 101.841C142 112.23 150.298 120.684 160.498 120.684C170.699 120.684 179 112.23 179 101.841C179 91.4512 170.699 83 160.498 83C150.298 83 142 91.4512 142 101.841Z" fill="#5375FF"/>
<path d="M158.745 91.7152V93.7273C156.634 94.4332 155.116 96.3397 155.116 98.5761C155.116 101.41 157.559 103.715 160.56 103.715C161.558 103.715 162.371 104.484 162.371 105.43C162.371 106.374 161.558 107.146 160.556 107.146C159.782 107.146 158.948 106.684 158.204 105.846C157.559 105.12 156.414 105.028 155.647 105.638C154.879 106.248 154.781 107.327 155.427 108.053C156.397 109.141 157.538 109.9 158.742 110.286V112.285C158.742 113.235 159.555 114 160.556 114C161.558 114 162.371 113.235 162.371 112.285V110.279C164.482 109.57 166 107.664 166 105.43C166 102.594 163.557 100.285 160.556 100.285C159.558 100.285 158.742 99.5195 158.742 98.5728C158.742 97.6295 159.558 96.8576 160.556 96.8576C161.202 96.8576 161.879 97.1677 162.517 97.7548C163.24 98.4145 164.388 98.3947 165.082 97.7152C165.78 97.0357 165.759 95.9505 165.04 95.2908C164.119 94.4497 163.201 93.9714 162.371 93.7141V91.7152C162.371 90.7686 161.558 90 160.556 90C159.555 90 158.742 90.7686 158.742 91.7152H158.745Z" fill="#FBFBFB"/>
<path d="M136.092 102.796H132.84V99.436H129.984V102.796H126.732V105.628H129.984V108.988H132.84V105.628H136.092V102.796Z" fill="#5375FF"/>
<path d="M127 56.8406C127 67.2299 135.298 75.6845 145.498 75.6845C155.699 75.6845 164 67.2299 164 56.8406C164 46.4512 155.699 38 145.498 38C135.298 38 127 46.4512 127 56.8406Z" fill="#5375FF"/>
<path d="M143.745 46.7152V48.7273C141.634 49.4332 140.116 51.3397 140.116 53.5761C140.116 56.4096 142.559 58.7152 145.56 58.7152C146.558 58.7152 147.371 59.4838 147.371 60.4305C147.371 61.3738 146.558 62.1457 145.556 62.1457C144.782 62.1457 143.948 61.6839 143.204 60.8461C142.559 60.1204 141.414 60.028 140.647 60.6383C139.879 61.2485 139.781 62.3271 140.427 63.0528C141.397 64.1413 142.538 64.8999 143.742 65.2859V67.2848C143.742 68.2347 144.555 69 145.556 69C146.558 69 147.371 68.2347 147.371 67.2848V65.2793C149.482 64.5701 151 62.6636 151 60.4305C151 57.5937 148.557 55.2848 145.556 55.2848C144.558 55.2848 143.742 54.5195 143.742 53.5728C143.742 52.6295 144.558 51.8576 145.556 51.8576C146.202 51.8576 146.879 52.1677 147.517 52.7548C148.24 53.4145 149.388 53.3947 150.082 52.7152C150.78 52.0357 150.759 50.9505 150.04 50.2908C149.119 49.4497 148.201 48.9714 147.371 48.7141V46.7152C147.371 45.7686 146.558 45 145.556 45C144.555 45 143.742 45.7686 143.742 46.7152H143.745Z" fill="#FBFBFB"/>
<path d="M121.092 57.796H117.84V54.436H114.984V57.796H111.732V60.628H114.984V63.988H117.84V60.628H121.092V57.796Z" fill="#5375FF"/>
<path d="M212 61.8406C212 72.2299 220.298 80.6845 230.498 80.6845C240.699 80.6845 249 72.2299 249 61.8406C249 51.4512 240.699 43 230.498 43C220.298 43 212 51.4512 212 61.8406Z" fill="#5375FF"/>
<path d="M228.745 51.7152V53.7273C226.634 54.4332 225.116 56.3397 225.116 58.5761C225.116 61.4096 227.559 63.7152 230.56 63.7152C231.558 63.7152 232.371 64.4838 232.371 65.4305C232.371 66.3738 231.558 67.1457 230.556 67.1457C229.782 67.1457 228.948 66.6839 228.204 65.8461C227.559 65.1204 226.414 65.028 225.647 65.6383C224.879 66.2485 224.781 67.3271 225.427 68.0528C226.397 69.1413 227.538 69.8999 228.742 70.2859V72.2848C228.742 73.2347 229.555 74 230.556 74C231.558 74 232.371 73.2347 232.371 72.2848V70.2793C234.482 69.5701 236 67.6636 236 65.4305C236 62.5937 233.557 60.2848 230.556 60.2848C229.558 60.2848 228.742 59.5195 228.742 58.5728C228.742 57.6295 229.558 56.8576 230.556 56.8576C231.202 56.8576 231.879 57.1677 232.517 57.7548C233.24 58.4145 234.388 58.3947 235.082 57.7152C235.78 57.0357 235.759 55.9505 235.04 55.2908C234.119 54.4497 233.201 53.9714 232.371 53.7141V51.7152C232.371 50.7686 231.558 50 230.556 50C229.555 50 228.742 50.7686 228.742 51.7152H228.745Z" fill="#FBFBFB"/>
<path d="M206.092 62.796H202.84V59.436H199.984V62.796H196.732V65.628H199.984V68.988H202.84V65.628H206.092V62.796Z" fill="#5375FF"/>
<path d="M239 103.841C239 114.23 247.298 122.684 257.498 122.684C267.699 122.684 276 114.23 276 103.841C276 93.4512 267.699 85 257.498 85C247.298 85 239 93.4512 239 103.841Z" fill="#5375FF"/>
<path d="M255.745 93.7152V95.7273C253.634 96.4332 252.116 98.3397 252.116 100.576C252.116 103.41 254.559 105.715 257.56 105.715C258.558 105.715 259.371 106.484 259.371 107.43C259.371 108.374 258.558 109.146 257.556 109.146C256.782 109.146 255.948 108.684 255.204 107.846C254.559 107.12 253.414 107.028 252.647 107.638C251.879 108.248 251.781 109.327 252.427 110.053C253.397 111.141 254.538 111.9 255.742 112.286V114.285C255.742 115.235 256.555 116 257.556 116C258.558 116 259.371 115.235 259.371 114.285V112.279C261.482 111.57 263 109.664 263 107.43C263 104.594 260.557 102.285 257.556 102.285C256.558 102.285 255.742 101.52 255.742 100.573C255.742 99.6295 256.558 98.8576 257.556 98.8576C258.202 98.8576 258.879 99.1677 259.517 99.7548C260.24 100.415 261.388 100.395 262.082 99.7152C262.78 99.0357 262.759 97.9505 262.04 97.2908C261.119 96.4497 260.201 95.9714 259.371 95.7141V93.7152C259.371 92.7686 258.558 92 257.556 92C256.555 92 255.742 92.7686 255.742 93.7152H255.745Z" fill="#FBFBFB"/>
<path d="M233.092 104.796H229.84V101.436H226.984V104.796H223.732V107.628H226.984V110.988H229.84V107.628H233.092V104.796Z" fill="#5375FF"/>
<path d="M263 49.8406C263 60.2299 271.298 68.6845 281.498 68.6845C291.699 68.6845 300 60.2299 300 49.8406C300 39.4512 291.699 31 281.498 31C271.298 31 263 39.4512 263 49.8406Z" fill="#5375FF"/>
<path d="M279.745 39.7152V41.7273C277.634 42.4332 276.116 44.3397 276.116 46.5761C276.116 49.4096 278.559 51.7152 281.56 51.7152C282.558 51.7152 283.371 52.4838 283.371 53.4305C283.371 54.3738 282.558 55.1457 281.556 55.1457C280.782 55.1457 279.948 54.6839 279.204 53.8461C278.559 53.1204 277.414 53.028 276.647 53.6383C275.879 54.2485 275.781 55.3271 276.427 56.0528C277.397 57.1413 278.538 57.8999 279.742 58.2859V60.2848C279.742 61.2347 280.555 62 281.556 62C282.558 62 283.371 61.2347 283.371 60.2848V58.2793C285.482 57.5701 287 55.6636 287 53.4305C287 50.5937 284.557 48.2848 281.556 48.2848C280.558 48.2848 279.742 47.5195 279.742 46.5728C279.742 45.6295 280.558 44.8576 281.556 44.8576C282.202 44.8576 282.879 45.1677 283.517 45.7548C284.24 46.4145 285.388 46.3947 286.082 45.7152C286.78 45.0357 286.759 43.9505 286.04 43.2908C285.119 42.4497 284.201 41.9714 283.371 41.7141V39.7152C283.371 38.7686 282.558 38 281.556 38C280.555 38 279.742 38.7686 279.742 39.7152H279.745Z" fill="#FBFBFB"/>
<path d="M257.092 50.796H253.84V47.436H250.984V50.796H247.732V53.628H250.984V56.988H253.84V53.628H257.092V50.796Z" fill="#5375FF"/>
<path d="M26 47.8406C26 58.2299 34.2977 66.6845 44.4984 66.6845C54.699 66.6845 63 58.2299 63 47.8406C63 37.4512 54.699 29 44.4984 29C34.2977 29 26 37.4512 26 47.8406Z" fill="#5375FF"/>
<path d="M42.7453 37.7152V39.7273C40.6341 40.4332 39.1162 42.3397 39.1162 44.5761C39.1162 47.4096 41.5588 49.7152 44.5598 49.7152C45.5578 49.7152 46.3709 50.4838 46.3709 51.4305C46.3709 52.3738 45.5578 53.1457 44.5563 53.1457C43.7817 53.1457 42.9477 52.6839 42.2044 51.8461C41.5588 51.1204 40.4143 51.028 39.6466 51.6383C38.8789 52.2485 38.7812 53.3271 39.4267 54.0528C40.3968 55.1413 41.5379 55.8999 42.7418 56.2859V58.2848C42.7418 59.2347 43.5548 60 44.5563 60C45.5578 60 46.3709 59.2347 46.3709 58.2848V56.2793C48.4821 55.5701 50 53.6636 50 51.4305C50 48.5937 47.5573 46.2848 44.5563 46.2848C43.5583 46.2848 42.7418 45.5195 42.7418 44.5728C42.7418 43.6295 43.5583 42.8576 44.5563 42.8576C45.2019 42.8576 45.8789 43.1677 46.5175 43.7548C47.2398 44.4145 48.3878 44.3947 49.0823 43.7152C49.7802 43.0357 49.7592 41.9505 49.0404 41.2908C48.1191 40.4497 47.2014 39.9714 46.3709 39.7141V37.7152C46.3709 36.7686 45.5578 36 44.5563 36C43.5548 36 42.7418 36.7686 42.7418 37.7152H42.7453Z" fill="#FBFBFB"/>
<path d="M20.092 48.796H16.84V45.436H13.984V48.796H10.732V51.628H13.984V54.988H16.84V51.628H20.092V48.796Z" fill="#5375FF"/>
<path d="M175 48.8406C175 59.2299 183.298 67.6845 193.498 67.6845C203.699 67.6845 212 59.2299 212 48.8406C212 38.4512 203.699 30 193.498 30C183.298 30 175 38.4512 175 48.8406Z" fill="#5375FF"/>
<path d="M191.745 38.7152V40.7273C189.634 41.4332 188.116 43.3397 188.116 45.5761C188.116 48.4096 190.559 50.7152 193.56 50.7152C194.558 50.7152 195.371 51.4838 195.371 52.4305C195.371 53.3738 194.558 54.1457 193.556 54.1457C192.782 54.1457 191.948 53.6839 191.204 52.8461C190.559 52.1204 189.414 52.028 188.647 52.6383C187.879 53.2485 187.781 54.3271 188.427 55.0528C189.397 56.1413 190.538 56.8999 191.742 57.2859V59.2848C191.742 60.2347 192.555 61 193.556 61C194.558 61 195.371 60.2347 195.371 59.2848V57.2793C197.482 56.5701 199 54.6636 199 52.4305C199 49.5937 196.557 47.2848 193.556 47.2848C192.558 47.2848 191.742 46.5195 191.742 45.5728C191.742 44.6295 192.558 43.8576 193.556 43.8576C194.202 43.8576 194.879 44.1677 195.517 44.7548C196.24 45.4145 197.388 45.3947 198.082 44.7152C198.78 44.0357 198.759 42.9505 198.04 42.2908C197.119 41.4497 196.201 40.9714 195.371 40.7141V38.7152C195.371 37.7686 194.558 37 193.556 37C192.555 37 191.742 37.7686 191.742 38.7152H191.745Z" fill="#FBFBFB"/>
<path d="M169.092 49.796H165.84V46.436H162.984V49.796H159.732V52.628H162.984V55.988H165.84V52.628H169.092V49.796Z" fill="#5375FF"/>
<path d="M304 78.8406C304 89.2299 312.298 97.6845 322.498 97.6845C332.699 97.6845 341 89.2299 341 78.8406C341 68.4512 332.699 60 322.498 60C312.298 60 304 68.4512 304 78.8406Z" fill="#5375FF"/>
<path d="M320.745 68.7152V70.7273C318.634 71.4332 317.116 73.3397 317.116 75.5761C317.116 78.4096 319.559 80.7152 322.56 80.7152C323.558 80.7152 324.371 81.4838 324.371 82.4305C324.371 83.3738 323.558 84.1457 322.556 84.1457C321.782 84.1457 320.948 83.6839 320.204 82.8461C319.559 82.1204 318.414 82.028 317.647 82.6383C316.879 83.2485 316.781 84.3271 317.427 85.0528C318.397 86.1413 319.538 86.8999 320.742 87.2859V89.2848C320.742 90.2347 321.555 91 322.556 91C323.558 91 324.371 90.2347 324.371 89.2848V87.2793C326.482 86.5701 328 84.6636 328 82.4305C328 79.5937 325.557 77.2848 322.556 77.2848C321.558 77.2848 320.742 76.5195 320.742 75.5728C320.742 74.6295 321.558 73.8576 322.556 73.8576C323.202 73.8576 323.879 74.1677 324.517 74.7548C325.24 75.4145 326.388 75.3947 327.082 74.7152C327.78 74.0357 327.759 72.9505 327.04 72.2908C326.119 71.4497 325.201 70.9714 324.371 70.7141V68.7152C324.371 67.7686 323.558 67 322.556 67C321.555 67 320.742 67.7686 320.742 68.7152H320.745Z" fill="#FBFBFB"/>
<path d="M298.092 79.796H294.84V76.436H291.984V79.796H288.732V82.628H291.984V85.988H294.84V82.628H298.092V79.796Z" fill="#5375FF"/>
<path d="M82 130.841C82 141.23 90.2977 149.684 100.498 149.684C110.699 149.684 119 141.23 119 130.841C119 120.451 110.699 112 100.498 112C90.2977 112 82 120.451 82 130.841Z" fill="#5375FF"/>
<path d="M98.7453 120.715V122.727C96.6341 123.433 95.1162 125.34 95.1162 127.576C95.1162 130.41 97.5588 132.715 100.56 132.715C101.558 132.715 102.371 133.484 102.371 134.43C102.371 135.374 101.558 136.146 100.556 136.146C99.7817 136.146 98.9477 135.684 98.2044 134.846C97.5588 134.12 96.4143 134.028 95.6466 134.638C94.8789 135.248 94.7812 136.327 95.4267 137.053C96.3968 138.141 97.5379 138.9 98.7418 139.286V141.285C98.7418 142.235 99.5548 143 100.556 143C101.558 143 102.371 142.235 102.371 141.285V139.279C104.482 138.57 106 136.664 106 134.43C106 131.594 103.557 129.285 100.556 129.285C99.5583 129.285 98.7418 128.52 98.7418 127.573C98.7418 126.629 99.5583 125.858 100.556 125.858C101.202 125.858 101.879 126.168 102.517 126.755C103.24 127.415 104.388 127.395 105.082 126.715C105.78 126.036 105.759 124.951 105.04 124.291C104.119 123.45 103.201 122.971 102.371 122.714V120.715C102.371 119.769 101.558 119 100.556 119C99.5548 119 98.7418 119.769 98.7418 120.715H98.7453Z" fill="#FBFBFB"/>
<path d="M76.092 131.796H72.84V128.436H69.984V131.796H66.732V134.628H69.984V137.988H72.84V134.628H76.092V131.796Z" fill="#5375FF"/>
</svg>
