<svg width="358" height="269" viewBox="0 0 358 269" fill="none" xmlns="http://www.w3.org/2000/svg">
<path d="M14.44 58H18.628V52.96H20.728C24.448 52.96 26.368 51.1 26.368 47.524C26.368 44.224 24.448 42.388 20.728 42.388H14.44V58ZM18.628 49.912V45.736H20.344C21.604 45.736 22.288 46.36 22.288 47.74C22.288 49.132 21.76 49.912 20.344 49.912H18.628ZM31.1264 48.616L31.0784 46.072H27.8144V57.976H31.6304V52.888C31.6304 50.344 33.3584 49.648 35.3624 50.032V45.892C33.1184 45.544 31.7264 46.756 31.1264 48.616ZM42.2914 58.216C46.2274 58.216 48.4594 55.696 48.4594 52.024C48.4594 48.376 46.2274 45.856 42.2914 45.856C38.3554 45.856 36.1234 48.376 36.1234 52.024C36.1234 55.696 38.3554 58.216 42.2914 58.216ZM42.2914 54.832C40.8274 54.832 39.8914 53.836 39.8914 52.024C39.8914 50.236 40.8274 49.24 42.2914 49.24C43.7554 49.24 44.6914 50.236 44.6914 52.024C44.6914 53.836 43.7554 54.832 42.2914 54.832ZM56.3303 44.14C56.7983 44.14 57.3503 44.26 57.9023 44.476L58.7663 41.632C57.7583 41.176 56.8463 41.008 55.7183 41.008C52.5863 41.008 51.1103 42.472 51.1103 45.724V46.072H49.3103V49.312H51.1103V58H54.9263V49.312H57.9023V46.072H54.9263V45.592C54.9263 44.488 55.3223 44.14 56.3303 44.14ZM70.1365 51.88C70.1365 48.184 67.9405 45.856 64.3885 45.856C60.7285 45.856 58.4125 48.472 58.4125 52.06C58.4125 55.708 60.5965 58.216 64.4245 58.216C67.3285 58.216 69.4285 56.836 69.9205 54.124L66.6805 53.716C66.4645 54.7 65.7205 55.132 64.4245 55.132C63.1765 55.132 62.4205 54.46 62.1805 52.996H70.0645C70.1245 52.564 70.1365 52.216 70.1365 51.88ZM64.3885 48.904C65.4685 48.904 66.2965 49.492 66.3805 50.824H62.2045C62.4805 49.504 63.2605 48.904 64.3885 48.904ZM77.0506 58.216C80.0986 58.216 82.1146 56.752 82.1266 54.436C82.1386 52.276 80.7466 51.376 77.3146 50.62C75.5146 50.224 75.2986 49.876 75.2986 49.432C75.2986 49.012 75.6466 48.7 76.6066 48.7C77.6986 48.7 78.2986 49.18 78.4666 50.416L81.9706 50.128C81.7666 47.536 80.3026 45.856 76.6066 45.856C73.8706 45.856 71.6866 47.152 71.6746 49.66C71.6626 51.976 73.1986 52.9 76.5346 53.584C78.0466 53.884 78.4306 54.088 78.4306 54.604C78.4306 55.084 78.0706 55.372 77.0386 55.372C75.8626 55.372 75.1066 54.928 74.9026 53.656L71.2666 53.956C71.4706 56.956 74.0386 58.216 77.0506 58.216ZM89.0506 58.216C92.0986 58.216 94.1146 56.752 94.1266 54.436C94.1386 52.276 92.7466 51.376 89.3146 50.62C87.5146 50.224 87.2986 49.876 87.2986 49.432C87.2986 49.012 87.6466 48.7 88.6066 48.7C89.6986 48.7 90.2986 49.18 90.4666 50.416L93.9706 50.128C93.7666 47.536 92.3026 45.856 88.6066 45.856C85.8706 45.856 83.6866 47.152 83.6746 49.66C83.6626 51.976 85.1986 52.9 88.5346 53.584C90.0466 53.884 90.4306 54.088 90.4306 54.604C90.4306 55.084 90.0706 55.372 89.0386 55.372C87.8626 55.372 87.1066 54.928 86.9026 53.656L83.2666 53.956C83.4706 56.956 86.0386 58.216 89.0506 58.216ZM97.7146 45.328C98.9146 45.328 99.9466 44.368 99.9466 43.168C99.9466 41.968 98.9146 41.008 97.7146 41.008C96.5146 41.008 95.4826 41.968 95.4826 43.168C95.4826 44.368 96.5146 45.328 97.7146 45.328ZM95.8066 58H99.6226V46.072H95.8066V58ZM107.471 58.216C111.407 58.216 113.639 55.696 113.639 52.024C113.639 48.376 111.407 45.856 107.471 45.856C103.535 45.856 101.303 48.376 101.303 52.024C101.303 55.696 103.535 58.216 107.471 58.216ZM107.471 54.832C106.007 54.832 105.071 53.836 105.071 52.024C105.071 50.236 106.007 49.24 107.471 49.24C108.935 49.24 109.871 50.236 109.871 52.024C109.871 53.836 108.935 54.832 107.471 54.832ZM122.434 45.856C120.37 45.856 119.17 46.864 118.666 48.568L118.618 46.072H115.33V58H119.146V52.444C119.146 50.332 119.986 49.42 121.294 49.42C122.398 49.42 122.866 50.044 122.866 51.364V58H126.682V50.224C126.682 47.728 125.482 45.856 122.434 45.856ZM140.207 54.82C139.643 54.82 139.523 54.556 139.523 54.064V50.872C139.523 47.944 138.479 45.856 134.027 45.856C130.871 45.856 128.639 47.368 128.603 50.248L132.311 50.56C132.347 49.432 132.935 48.928 134.027 48.928C135.407 48.928 135.779 49.732 135.779 50.824V51.208C135.167 51.1 134.543 51.04 133.739 51.04C130.427 51.04 128.183 51.988 128.183 54.46C128.183 56.56 129.563 58.216 132.215 58.216C134.255 58.216 135.635 57.532 136.223 56.2C136.415 57.64 137.135 58.096 138.995 58.096C139.715 58.096 140.267 58.048 140.867 57.904V54.772C140.639 54.808 140.423 54.82 140.207 54.82ZM133.715 55.384C132.719 55.384 132.299 54.952 132.299 54.304C132.299 53.584 132.935 53.224 134.363 53.224C134.903 53.224 135.347 53.284 135.779 53.38V54.532C135.383 55.072 134.663 55.384 133.715 55.384ZM142.119 58H145.935V41.248H142.119V58ZM150.004 45.328C151.204 45.328 152.236 44.368 152.236 43.168C152.236 41.968 151.204 41.008 150.004 41.008C148.804 41.008 147.772 41.968 147.772 43.168C147.772 44.368 148.804 45.328 150.004 45.328ZM148.096 58H151.912V46.072H148.096V58ZM161.74 54.652C161.248 54.76 160.816 54.82 160.3 54.82C159.196 54.82 158.872 54.208 158.872 53.212V49.312H161.992V46.072H158.872V42.4L155.056 42.94V46.072H153.232V49.312H155.056V53.74C155.056 56.452 156.352 58.156 159.544 58.156C160.528 58.156 161.392 58.048 162.232 57.844L161.74 54.652ZM170.945 46.072L169.337 53.2C169.181 53.92 169.037 54.604 168.893 55.252C168.749 54.568 168.593 53.848 168.437 53.176L166.829 46.072H162.521L166.181 58H167.981L167.957 58.06C167.513 59.452 166.181 59.836 163.289 58.984L162.593 62.188C166.397 63.256 170.201 62.632 171.617 58L175.253 46.072H170.945Z" fill="#555555"/>
<path d="M276.985 9.31203C274.274 6.26228 270.511 4.58203 266.392 4.58203C260.595 4.58203 256.927 8.01128 254.87 10.8878C254.336 11.633 253.879 12.381 253.5 13.0878C253.118 12.381 252.664 11.633 252.13 10.8878C250.073 8.01128 246.405 4.58478 240.608 4.58478C236.488 4.58478 232.727 6.26228 230.012 9.31203C227.43 12.2188 226 16.1155 226 20.279C226 24.811 227.788 29.0268 231.624 33.545C235.05 37.5848 239.984 41.7483 245.696 46.569C247.824 48.3648 250.024 50.221 252.367 52.2533L252.439 52.3138C252.741 52.5778 253.121 52.7098 253.5 52.7098C253.879 52.7098 254.256 52.5778 254.561 52.3138L254.633 52.2533C256.976 50.221 259.176 48.3648 261.305 46.569C267.016 41.7483 271.947 37.5848 275.376 33.545C279.213 29.0268 281 24.811 281 20.279C281 16.1155 279.576 12.2215 276.985 9.31203ZM259.217 44.138C257.383 45.6863 255.494 47.2813 253.503 48.9945C251.512 47.2813 249.625 45.6863 247.788 44.138C236.609 34.7055 229.226 28.4713 229.226 20.279C229.226 16.891 230.364 13.7478 232.432 11.424C234.525 9.07003 237.429 7.77478 240.611 7.77478C245.03 7.77478 247.887 10.4698 249.504 12.733C250.956 14.7625 251.713 16.8058 251.971 17.5895C252.186 18.2495 252.804 18.6923 253.503 18.6923C254.201 18.6923 254.82 18.2468 255.034 17.5923C255.293 16.8058 256.052 14.7598 257.501 12.733C259.118 10.4725 261.975 7.77478 266.392 7.77478C269.576 7.77478 272.48 9.07003 274.573 11.4213C276.641 13.7478 277.78 16.8938 277.78 20.2763C277.78 28.4713 270.396 34.7055 259.217 44.138Z" fill="#5375FF"/>
<path d="M211.248 30.984H204.168V23.64H201.24V30.984H194.16V33.84H201.24V41.184H204.168V33.84H211.248V30.984Z" fill="#5375FF"/>
<path d="M119.944 140.492V143.432H123.376C122.992 145.22 121.804 145.76 120.436 145.76C117.964 145.76 116.824 143.996 116.824 141.104C116.824 138.104 118.072 136.688 120.16 136.688C121.768 136.688 122.776 137.576 123.112 139.472L127.288 138.752C126.736 134.936 124.132 133.184 120.316 133.184C115.384 133.184 112.54 136.34 112.54 141.2C112.54 145.976 115.276 149.216 119.524 149.216C121.912 149.216 123.544 148.256 124.264 146.36L124.348 149H127.372V140.492H119.944ZM135.409 149.216C139.345 149.216 141.577 146.696 141.577 143.024C141.577 139.376 139.345 136.856 135.409 136.856C131.473 136.856 129.241 139.376 129.241 143.024C129.241 146.696 131.473 149.216 135.409 149.216ZM135.409 145.832C133.945 145.832 133.009 144.836 133.009 143.024C133.009 141.236 133.945 140.24 135.409 140.24C136.873 140.24 137.809 141.236 137.809 143.024C137.809 144.836 136.873 145.832 135.409 145.832ZM149.143 149.216C153.079 149.216 155.311 146.696 155.311 143.024C155.311 139.376 153.079 136.856 149.143 136.856C145.207 136.856 142.975 139.376 142.975 143.024C142.975 146.696 145.207 149.216 149.143 149.216ZM149.143 145.832C147.679 145.832 146.743 144.836 146.743 143.024C146.743 141.236 147.679 140.24 149.143 140.24C150.607 140.24 151.543 141.236 151.543 143.024C151.543 144.836 150.607 145.832 149.143 145.832ZM165.241 132.248V138.512C164.569 137.432 163.489 136.856 161.905 136.856C158.821 136.856 156.709 139.256 156.709 143.024C156.709 146.816 158.821 149.216 161.905 149.216C163.861 149.216 165.061 148.28 165.649 146.648L165.889 149H169.057V132.248H165.241ZM162.853 145.856C161.413 145.856 160.525 144.8 160.525 143.024C160.525 141.272 161.413 140.264 162.853 140.264C164.305 140.264 165.337 141.296 165.337 143.024C165.337 144.764 164.317 145.856 162.853 145.856ZM180.668 149.216C183.716 149.216 185.732 147.752 185.744 145.436C185.756 143.276 184.364 142.376 180.932 141.62C179.132 141.224 178.916 140.876 178.916 140.432C178.916 140.012 179.264 139.7 180.224 139.7C181.316 139.7 181.916 140.18 182.084 141.416L185.588 141.128C185.384 138.536 183.92 136.856 180.224 136.856C177.488 136.856 175.304 138.152 175.292 140.66C175.28 142.976 176.816 143.9 180.152 144.584C181.664 144.884 182.048 145.088 182.048 145.604C182.048 146.084 181.688 146.372 180.656 146.372C179.48 146.372 178.724 145.928 178.52 144.656L174.884 144.956C175.088 147.956 177.656 149.216 180.668 149.216ZM198.668 142.88C198.668 139.184 196.472 136.856 192.92 136.856C189.26 136.856 186.944 139.472 186.944 143.06C186.944 146.708 189.128 149.216 192.956 149.216C195.86 149.216 197.96 147.836 198.452 145.124L195.212 144.716C194.996 145.7 194.252 146.132 192.956 146.132C191.708 146.132 190.952 145.46 190.712 143.996H198.596C198.656 143.564 198.668 143.216 198.668 142.88ZM192.92 139.904C194 139.904 194.828 140.492 194.912 141.824H190.736C191.012 140.504 191.792 139.904 192.92 139.904ZM203.65 139.616L203.602 137.072H200.338V148.976H204.154V143.888C204.154 141.344 205.882 140.648 207.886 141.032V136.892C205.642 136.544 204.25 137.756 203.65 139.616ZM216.99 137.072L215.154 144.812C215.034 145.316 214.938 145.784 214.854 146.252C214.758 145.784 214.662 145.316 214.542 144.812L212.706 137.072H208.482L212.13 149H217.566L221.214 137.072H216.99ZM224.254 136.328C225.454 136.328 226.486 135.368 226.486 134.168C226.486 132.968 225.454 132.008 224.254 132.008C223.054 132.008 222.022 132.968 222.022 134.168C222.022 135.368 223.054 136.328 224.254 136.328ZM222.346 149H226.162V137.072H222.346V149ZM233.962 149.216C237.058 149.216 239.338 147.86 239.878 144.32L236.206 144.008C236.014 145.316 235.21 145.964 234.01 145.964C232.486 145.964 231.658 144.848 231.658 143.036C231.658 141.224 232.486 140.108 234.01 140.108C235.21 140.108 236.014 140.756 236.206 142.064L239.878 141.752C239.338 138.212 237.058 136.856 233.962 136.856C230.122 136.856 227.842 139.4 227.842 143.036C227.842 146.672 230.122 149.216 233.962 149.216ZM252.926 142.88C252.926 139.184 250.73 136.856 247.178 136.856C243.518 136.856 241.202 139.472 241.202 143.06C241.202 146.708 243.386 149.216 247.214 149.216C250.118 149.216 252.218 147.836 252.71 145.124L249.47 144.716C249.254 145.7 248.51 146.132 247.214 146.132C245.966 146.132 245.21 145.46 244.97 143.996H252.854C252.914 143.564 252.926 143.216 252.926 142.88ZM247.178 139.904C248.258 139.904 249.086 140.492 249.17 141.824H244.994C245.27 140.504 246.05 139.904 247.178 139.904Z" fill="#555555"/>
<path d="M353.985 105.312C351.274 102.262 347.511 100.582 343.392 100.582C337.595 100.582 333.927 104.011 331.87 106.888C331.336 107.633 330.879 108.381 330.5 109.088C330.118 108.381 329.664 107.633 329.13 106.888C327.073 104.011 323.405 100.585 317.608 100.585C313.488 100.585 309.727 102.262 307.012 105.312C304.43 108.219 303 112.116 303 116.279C303 120.811 304.788 125.027 308.624 129.545C312.05 133.585 316.984 137.748 322.696 142.569C324.824 144.365 327.024 146.221 329.367 148.253L329.439 148.314C329.741 148.578 330.121 148.71 330.5 148.71C330.879 148.71 331.256 148.578 331.561 148.314L331.633 148.253C333.976 146.221 336.176 144.365 338.305 142.569C344.016 137.748 348.947 133.585 352.376 129.545C356.213 125.027 358 120.811 358 116.279C358 112.116 356.576 108.222 353.985 105.312ZM336.217 140.138C334.383 141.686 332.494 143.281 330.503 144.995C328.512 143.281 326.625 141.686 324.788 140.138C313.609 130.706 306.226 124.471 306.226 116.279C306.226 112.891 307.364 109.748 309.432 107.424C311.525 105.07 314.429 103.775 317.611 103.775C322.03 103.775 324.887 106.47 326.504 108.733C327.956 110.763 328.713 112.806 328.971 113.59C329.186 114.25 329.804 114.692 330.503 114.692C331.201 114.692 331.82 114.247 332.034 113.592C332.293 112.806 333.052 110.76 334.501 108.733C336.118 106.473 338.975 103.775 343.392 103.775C346.576 103.775 349.48 105.07 351.573 107.421C353.641 109.748 354.78 112.894 354.78 116.276C354.78 124.471 347.396 130.706 336.217 140.138Z" fill="#5375FF"/>
<path d="M288.248 126.984H281.168V119.64H278.24V126.984H271.16V129.84H278.24V137.184H281.168V129.84H288.248V126.984Z" fill="#5375FF"/>
<path d="M16.284 226.864C16.284 222.472 13.596 219.184 8.412 219.184C3.228 219.184 0.54 222.472 0.54 227.2C0.54 231.928 3.228 235.216 8.22 235.216C9.6 235.216 10.848 234.916 11.916 234.388L14.016 236.656L16.26 234.496L14.388 232.444C15.6 230.956 16.284 229 16.284 226.864ZM8.532 231.712C6.012 231.712 4.86 229.96 4.86 227.2C4.86 224.44 6.012 222.688 8.412 222.688C10.812 222.688 11.964 224.44 11.964 227.32C11.964 228.196 11.892 228.928 11.724 229.528L9.528 227.116L7.14 229.252L9.372 231.652C9.108 231.688 8.832 231.712 8.532 231.712ZM25.6185 223.072V228.808C25.6185 230.92 24.7785 231.832 23.4705 231.832C22.3665 231.832 21.8985 231.208 21.8985 229.888V223.072H18.0825V230.848C18.0825 233.344 19.2825 235.216 22.3305 235.216C24.2865 235.216 25.4625 234.316 26.0145 232.756L26.3025 235H29.4345V223.072H25.6185ZM43.0196 231.82C42.4556 231.82 42.3356 231.556 42.3356 231.064V227.872C42.3356 224.944 41.2916 222.856 36.8396 222.856C33.6836 222.856 31.4516 224.368 31.4156 227.248L35.1236 227.56C35.1596 226.432 35.7476 225.928 36.8396 225.928C38.2196 225.928 38.5916 226.732 38.5916 227.824V228.208C37.9796 228.1 37.3556 228.04 36.5516 228.04C33.2396 228.04 30.9956 228.988 30.9956 231.46C30.9956 233.56 32.3756 235.216 35.0276 235.216C37.0676 235.216 38.4476 234.532 39.0356 233.2C39.2276 234.64 39.9476 235.096 41.8076 235.096C42.5276 235.096 43.0796 235.048 43.6796 234.904V231.772C43.4516 231.808 43.2356 231.82 43.0196 231.82ZM36.5276 232.384C35.5316 232.384 35.1116 231.952 35.1116 231.304C35.1116 230.584 35.7476 230.224 37.1756 230.224C37.7156 230.224 38.1596 230.284 38.5916 230.38V231.532C38.1956 232.072 37.4756 232.384 36.5276 232.384ZM44.9316 235H48.7476V218.248H44.9316V235ZM52.8161 222.328C54.0161 222.328 55.0481 221.368 55.0481 220.168C55.0481 218.968 54.0161 218.008 52.8161 218.008C51.6161 218.008 50.5841 218.968 50.5841 220.168C50.5841 221.368 51.6161 222.328 52.8161 222.328ZM50.9081 235H54.7241V223.072H50.9081V235ZM64.5527 231.652C64.0607 231.76 63.6287 231.82 63.1127 231.82C62.0087 231.82 61.6847 231.208 61.6847 230.212V226.312H64.8047V223.072H61.6847V219.4L57.8687 219.94V223.072H56.0447V226.312H57.8687V230.74C57.8687 233.452 59.1647 235.156 62.3567 235.156C63.3407 235.156 64.2047 235.048 65.0447 234.844L64.5527 231.652ZM73.7574 223.072L72.1494 230.2C71.9934 230.92 71.8494 231.604 71.7054 232.252C71.5614 231.568 71.4054 230.848 71.2494 230.176L69.6414 223.072H65.3334L68.9934 235H70.7934L70.7694 235.06C70.3254 236.452 68.9934 236.836 66.1014 235.984L65.4054 239.188C69.2094 240.256 73.0134 239.632 74.4294 235L78.0654 223.072H73.7574ZM94.8165 231.82C94.2525 231.82 94.1325 231.556 94.1325 231.064V227.872C94.1325 224.944 93.0885 222.856 88.6365 222.856C85.4805 222.856 83.2485 224.368 83.2125 227.248L86.9205 227.56C86.9565 226.432 87.5445 225.928 88.6365 225.928C90.0165 225.928 90.3885 226.732 90.3885 227.824V228.208C89.7765 228.1 89.1525 228.04 88.3485 228.04C85.0365 228.04 82.7925 228.988 82.7925 231.46C82.7925 233.56 84.1725 235.216 86.8245 235.216C88.8645 235.216 90.2445 234.532 90.8325 233.2C91.0245 234.64 91.7445 235.096 93.6045 235.096C94.3245 235.096 94.8765 235.048 95.4765 234.904V231.772C95.2485 231.808 95.0325 231.82 94.8165 231.82ZM88.3245 232.384C87.3285 232.384 86.9085 231.952 86.9085 231.304C86.9085 230.584 87.5445 230.224 88.9725 230.224C89.5125 230.224 89.9565 230.284 90.3885 230.38V231.532C89.9925 232.072 89.2725 232.384 88.3245 232.384ZM103.844 222.856C102.284 222.856 101.216 223.42 100.544 224.464V218.248H96.7284V235H100.136L100.196 232.9C100.808 234.376 101.984 235.216 103.844 235.216C106.928 235.216 109.04 232.816 109.04 229.024C109.04 225.256 106.928 222.856 103.844 222.856ZM102.896 231.856C101.432 231.856 100.412 230.764 100.412 229.024C100.412 227.308 101.432 226.264 102.896 226.264C104.336 226.264 105.224 227.272 105.224 229.024C105.224 230.8 104.336 231.856 102.896 231.856ZM116.596 235.216C120.532 235.216 122.764 232.696 122.764 229.024C122.764 225.376 120.532 222.856 116.596 222.856C112.66 222.856 110.428 225.376 110.428 229.024C110.428 232.696 112.66 235.216 116.596 235.216ZM116.596 231.832C115.132 231.832 114.196 230.836 114.196 229.024C114.196 227.236 115.132 226.24 116.596 226.24C118.06 226.24 118.996 227.236 118.996 229.024C118.996 230.836 118.06 231.832 116.596 231.832ZM131.638 223.072L129.802 230.812C129.682 231.316 129.586 231.784 129.502 232.252C129.406 231.784 129.31 231.316 129.19 230.812L127.354 223.072H123.13L126.778 235H132.214L135.862 223.072H131.638ZM147.933 228.88C147.933 225.184 145.737 222.856 142.185 222.856C138.525 222.856 136.209 225.472 136.209 229.06C136.209 232.708 138.393 235.216 142.221 235.216C145.125 235.216 147.225 233.836 147.717 231.124L144.477 230.716C144.261 231.7 143.517 232.132 142.221 232.132C140.973 232.132 140.217 231.46 139.977 229.996H147.861C147.921 229.564 147.933 229.216 147.933 228.88ZM142.185 225.904C143.265 225.904 144.093 226.492 144.177 227.824H140.001C140.277 226.504 141.057 225.904 142.185 225.904ZM12.324 257.88C12.324 254.184 10.128 251.856 6.576 251.856C2.916 251.856 0.6 254.472 0.6 258.06C0.6 261.708 2.784 264.216 6.612 264.216C9.516 264.216 11.616 262.836 12.108 260.124L8.868 259.716C8.652 260.7 7.908 261.132 6.612 261.132C5.364 261.132 4.608 260.46 4.368 258.996H12.252C12.312 258.564 12.324 258.216 12.324 257.88ZM6.576 254.904C7.656 254.904 8.484 255.492 8.568 256.824H4.392C4.668 255.504 5.448 254.904 6.576 254.904ZM21.4821 252.072L19.6461 259.812C19.5261 260.316 19.4301 260.784 19.3461 261.252C19.2501 260.784 19.1541 260.316 19.0341 259.812L17.1981 252.072H12.9741L16.6221 264H22.0581L25.7061 252.072H21.4821ZM37.7771 257.88C37.7771 254.184 35.5811 251.856 32.0291 251.856C28.3691 251.856 26.0531 254.472 26.0531 258.06C26.0531 261.708 28.2371 264.216 32.0651 264.216C34.9691 264.216 37.0691 262.836 37.5611 260.124L34.3211 259.716C34.1051 260.7 33.3611 261.132 32.0651 261.132C30.8171 261.132 30.0611 260.46 29.8211 258.996H37.7051C37.7651 258.564 37.7771 258.216 37.7771 257.88ZM32.0291 254.904C33.1091 254.904 33.9371 255.492 34.0211 256.824H29.8451C30.1211 255.504 30.9011 254.904 32.0291 254.904ZM42.7592 254.616L42.7112 252.072H39.4472V263.976H43.2632V258.888C43.2632 256.344 44.9912 255.648 46.9952 256.032V251.892C44.7512 251.544 43.3592 252.756 42.7592 254.616ZM56.0153 252.072L54.4073 259.2C54.2513 259.92 54.1073 260.604 53.9633 261.252C53.8193 260.568 53.6633 259.848 53.5073 259.176L51.8993 252.072H47.5913L51.2513 264H53.0513L53.0273 264.06C52.5833 265.452 51.2513 265.836 48.3593 264.984L47.6633 268.188C51.4673 269.256 55.2713 268.632 56.6873 264L60.3233 252.072H56.0153ZM69.123 260.652C68.631 260.76 68.199 260.82 67.683 260.82C66.579 260.82 66.255 260.208 66.255 259.212V255.312H69.375V252.072H66.255V248.4L62.439 248.94V252.072H60.615V255.312H62.439V259.74C62.439 262.452 63.735 264.156 66.927 264.156C67.911 264.156 68.775 264.048 69.615 263.844L69.123 260.652ZM78.1958 251.856C76.4438 251.856 75.3398 252.636 74.7398 254.004V247.248H70.9238V264H74.7398V258.444C74.7398 256.332 75.5798 255.42 76.8878 255.42C77.9918 255.42 78.4598 256.044 78.4598 257.364V264H82.2758V256.224C82.2758 253.728 81.0878 251.856 78.1958 251.856ZM86.2849 251.328C87.4849 251.328 88.5169 250.368 88.5169 249.168C88.5169 247.968 87.4849 247.008 86.2849 247.008C85.0849 247.008 84.0529 247.968 84.0529 249.168C84.0529 250.368 85.0849 251.328 86.2849 251.328ZM84.3769 264H88.1929V252.072H84.3769V264ZM97.4574 251.856C95.3934 251.856 94.1934 252.864 93.6894 254.568L93.6414 252.072H90.3534V264H94.1694V258.444C94.1694 256.332 95.0094 255.42 96.3174 255.42C97.4214 255.42 97.8894 256.044 97.8894 257.364V264H101.705V256.224C101.705 253.728 100.505 251.856 97.4574 251.856ZM112.387 252.072L112.351 254.028C111.715 252.624 110.479 251.856 108.619 251.856C105.499 251.856 103.387 254.184 103.387 257.856C103.387 261.552 105.499 263.904 108.619 263.904C110.443 263.904 111.679 263.112 112.327 261.732V262.884C112.327 264.912 111.079 265.668 109.291 265.668C107.791 265.668 106.315 265.056 105.295 264.048L103.579 266.64C105.043 268.032 106.855 268.68 109.183 268.68C113.179 268.68 115.675 266.724 115.675 263.016V252.072H112.387ZM109.555 260.664C108.091 260.664 107.203 259.608 107.203 257.856C107.203 256.152 108.091 255.144 109.555 255.144C111.043 255.144 112.075 256.176 112.075 257.856C112.075 259.584 111.043 260.664 109.555 260.664ZM118.23 258.864H121.398L121.878 248.4H117.75L118.23 258.864ZM119.814 264.216C121.062 264.216 122.142 263.184 122.142 261.888C122.142 260.592 121.062 259.56 119.814 259.56C118.566 259.56 117.486 260.592 117.486 261.888C117.486 263.184 118.566 264.216 119.814 264.216Z" fill="#555555"/>
<path d="M254.985 201.312C252.274 198.262 248.511 196.582 244.392 196.582C238.595 196.582 234.927 200.011 232.87 202.888C232.336 203.633 231.879 204.381 231.5 205.088C231.118 204.381 230.664 203.633 230.13 202.888C228.073 200.011 224.405 196.585 218.608 196.585C214.488 196.585 210.727 198.262 208.012 201.312C205.43 204.219 204 208.116 204 212.279C204 216.811 205.788 221.027 209.624 225.545C213.05 229.585 217.984 233.748 223.696 238.569C225.824 240.365 228.024 242.221 230.367 244.253L230.439 244.314C230.741 244.578 231.121 244.71 231.5 244.71C231.879 244.71 232.256 244.578 232.561 244.314L232.633 244.253C234.976 242.221 237.176 240.365 239.305 238.569C245.016 233.748 249.947 229.585 253.376 225.545C257.213 221.027 259 216.811 259 212.279C259 208.116 257.576 204.222 254.985 201.312ZM237.217 236.138C235.383 237.686 233.494 239.281 231.503 240.995C229.512 239.281 227.625 237.686 225.788 236.138C214.609 226.706 207.226 220.471 207.226 212.279C207.226 208.891 208.364 205.748 210.432 203.424C212.525 201.07 215.429 199.775 218.611 199.775C223.03 199.775 225.887 202.47 227.504 204.733C228.956 206.763 229.713 208.806 229.971 209.59C230.186 210.25 230.804 210.692 231.503 210.692C232.201 210.692 232.82 210.247 233.034 209.592C233.293 208.806 234.052 206.76 235.501 204.733C237.118 202.473 239.975 199.775 244.392 199.775C247.576 199.775 250.48 201.07 252.573 203.421C254.641 205.748 255.78 208.894 255.78 212.276C255.78 220.471 248.396 226.706 237.217 236.138Z" fill="#5375FF"/>
<path d="M189.248 222.984H182.168V215.64H179.24V222.984H172.16V225.84H179.24V233.184H182.168V225.84H189.248V222.984Z" fill="#5375FF"/>
</svg>
