<svg width="487" height="426" viewBox="0 0 487 426" fill="none" xmlns="http://www.w3.org/2000/svg">
<g filter="url(#filter0_d)">
<rect x="4" y="195" width="280" height="223" rx="40" fill="white"/>
<rect x="4.5" y="195.5" width="279" height="222" rx="39.5" stroke="#D0D0D0"/>
</g>
<circle cx="36.72" cy="229.72" r="12.72" fill="#C4C4C4"/>
<path d="M248.579 372.693C257.16 372.693 264.154 367.174 264.154 360.377V317.742H113.859C105.279 317.742 98.2847 323.273 98.2847 330.058V360.377C98.2847 367.162 105.264 372.693 113.859 372.693H248.579Z" fill="#EAEAEA"/>
<path d="M76.2081 296.372C67.6276 296.372 60.6333 290.853 60.6333 284.056V241.422H210.928C219.508 241.422 226.502 246.953 226.502 253.738V284.056C226.502 290.841 219.523 296.372 210.928 296.372H76.2081Z" fill="#5375FF"/>
<g filter="url(#filter1_d)">
<rect x="242" width="241" height="252" rx="38" fill="white"/>
<rect x="242.5" y="0.5" width="240" height="251" rx="37.5" stroke="#D1D1D1"/>
</g>
<path d="M352.544 50.1235C354.76 50.1235 356.145 48.9795 356.333 46.8605L354.5 46.6135C354.286 48.115 353.525 48.5375 352.505 48.5375C351.042 48.5375 350.347 47.452 350.347 45.775C350.347 44.098 351.042 43.0125 352.505 43.0125C353.525 43.0125 354.292 43.4805 354.5 44.9365L356.333 44.6895C356.171 42.5705 354.76 41.4265 352.544 41.4265C349.898 41.4265 348.39 43.1945 348.39 45.775C348.39 48.3555 349.898 50.1235 352.544 50.1235ZM360.368 50.1235C362.435 50.1235 363.644 48.7455 363.644 46.7955C363.644 44.852 362.435 43.474 360.368 43.474C358.294 43.474 357.085 44.852 357.085 46.7955C357.085 48.7455 358.294 50.1235 360.368 50.1235ZM360.368 48.5765C359.419 48.5765 358.808 47.894 358.808 46.7955C358.808 45.7035 359.419 45.0275 360.368 45.0275C361.31 45.0275 361.915 45.7035 361.915 46.7955C361.915 47.894 361.31 48.5765 360.368 48.5765ZM368.351 43.474C367.279 43.474 366.596 43.994 366.278 44.865L366.265 43.5975H364.718V50H366.46V46.919C366.46 45.697 367.025 45.1055 367.857 45.1055C368.585 45.1055 368.904 45.515 368.904 46.3925V50H370.646V45.905C370.646 44.4555 369.97 43.474 368.351 43.474ZM376.014 48.4205C375.747 48.5115 375.507 48.557 375.208 48.557C374.551 48.557 374.337 48.1995 374.337 47.556V45.0665H376.15V43.5975H374.337V41.602L372.595 41.849V43.5975H371.509V45.0665H372.595V47.79C372.595 49.246 373.303 50.0845 374.876 50.0845C375.403 50.0845 375.851 50.013 376.287 49.87L376.014 48.4205ZM382.995 46.7045C382.995 44.735 381.851 43.474 379.973 43.474C378.049 43.474 376.827 44.8975 376.827 46.802C376.827 48.7455 378.003 50.1235 380.025 50.1235C381.507 50.1235 382.586 49.4215 382.878 48.0435L381.409 47.816C381.247 48.401 380.798 48.6935 380.018 48.6935C379.199 48.6935 378.692 48.206 378.556 47.2765H382.963C382.989 47.0555 382.995 46.88 382.995 46.7045ZM379.973 44.8845C380.701 44.8845 381.208 45.3135 381.279 46.178H378.569C378.718 45.333 379.225 44.8845 379.973 44.8845ZM387.711 43.474C386.639 43.474 385.956 43.994 385.638 44.865L385.625 43.5975H384.078V50H385.82V46.919C385.82 45.697 386.385 45.1055 387.217 45.1055C387.945 45.1055 388.264 45.515 388.264 46.3925V50H390.006V45.905C390.006 44.4555 389.33 43.474 387.711 43.474ZM395.374 48.4205C395.108 48.5115 394.867 48.557 394.568 48.557C393.912 48.557 393.697 48.1995 393.697 47.556V45.0665H395.511V43.5975H393.697V41.602L391.955 41.849V43.5975H390.87V45.0665H391.955V47.79C391.955 49.246 392.664 50.0845 394.237 50.0845C394.763 50.0845 395.212 50.013 395.647 49.87L395.374 48.4205ZM401.823 50.1235C403.416 50.1235 404.592 49.4085 404.891 47.6275L403.234 47.4585C403.084 48.2255 402.603 48.6285 401.843 48.6285C400.868 48.6285 400.335 47.894 400.335 46.7955C400.335 45.7035 400.868 44.969 401.843 44.969C402.603 44.969 403.084 45.372 403.234 46.1325L404.891 45.97C404.592 44.189 403.416 43.474 401.823 43.474C399.795 43.474 398.586 44.865 398.586 46.7955C398.586 48.7325 399.795 50.1235 401.823 50.1235ZM407.499 44.93L407.479 43.5975H405.952V49.9935H407.681V47.114C407.681 45.6515 408.721 45.151 409.852 45.385V43.5065C408.669 43.2985 407.856 43.9095 407.499 44.93ZM416.473 46.7045C416.473 44.735 415.329 43.474 413.45 43.474C411.526 43.474 410.304 44.8975 410.304 46.802C410.304 48.7455 411.481 50.1235 413.502 50.1235C414.984 50.1235 416.063 49.4215 416.356 48.0435L414.887 47.816C414.724 48.401 414.276 48.6935 413.496 48.6935C412.677 48.6935 412.17 48.206 412.033 47.2765H416.44C416.466 47.0555 416.473 46.88 416.473 46.7045ZM413.45 44.8845C414.178 44.8845 414.685 45.3135 414.757 46.178H412.046C412.196 45.333 412.703 44.8845 413.45 44.8845ZM423.586 48.57C423.248 48.57 423.163 48.4075 423.163 48.089V46.1455C423.163 44.9235 422.812 43.474 420.316 43.474C418.711 43.474 417.599 44.241 417.495 45.6905L419.166 45.8855C419.244 45.2095 419.614 44.891 420.323 44.891C421.2 44.891 421.46 45.411 421.46 46.126V46.3795C421.09 46.321 420.7 46.2885 420.277 46.2885C418.516 46.2885 417.281 46.789 417.281 48.141C417.281 49.285 418.067 50.117 419.465 50.117C420.524 50.117 421.298 49.727 421.649 49.0315C421.746 49.779 422.11 50.052 423.066 50.052C423.391 50.052 423.651 50.0325 423.937 49.961V48.544C423.813 48.5635 423.696 48.57 423.586 48.57ZM420.056 48.791C419.478 48.791 419.159 48.5505 419.159 48.076C419.159 47.595 419.588 47.3675 420.518 47.3675C420.849 47.3675 421.148 47.3935 421.46 47.452V48.1475C421.181 48.5505 420.661 48.791 420.056 48.791ZM428.611 48.4205C428.344 48.5115 428.104 48.557 427.805 48.557C427.148 48.557 426.934 48.1995 426.934 47.556V45.0665H428.747V43.5975H426.934V41.602L425.192 41.849V43.5975H424.106V45.0665H425.192V47.79C425.192 49.246 425.9 50.0845 427.473 50.0845C428 50.0845 428.448 50.013 428.884 49.87L428.611 48.4205ZM432.706 50.1235C434.773 50.1235 435.982 48.7455 435.982 46.7955C435.982 44.852 434.773 43.474 432.706 43.474C430.632 43.474 429.423 44.852 429.423 46.7955C429.423 48.7455 430.632 50.1235 432.706 50.1235ZM432.706 48.5765C431.757 48.5765 431.146 47.894 431.146 46.7955C431.146 45.7035 431.757 45.0275 432.706 45.0275C433.648 45.0275 434.253 45.7035 434.253 46.7955C434.253 47.894 433.648 48.5765 432.706 48.5765ZM438.602 44.93L438.583 43.5975H437.055V49.9935H438.784V47.114C438.784 45.6515 439.824 45.151 440.955 45.385V43.5065C439.772 43.2985 438.96 43.9095 438.602 44.93Z" fill="black"/>
<g clip-path="url(#clip0)">
<g filter="url(#filter2_d)">
<path d="M442.628 194.286H429.371C423.88 194.286 419.428 198.738 419.428 204.229V217.486C419.428 222.977 423.88 227.429 429.371 227.429H442.628C448.12 227.429 452.571 222.977 452.571 217.486V204.229C452.571 198.738 448.12 194.286 442.628 194.286Z" fill="black"/>
</g>
<path d="M442.628 194.286H429.371C423.88 194.286 419.428 198.738 419.428 204.229V217.486C419.428 222.977 423.88 227.429 429.371 227.429H442.628C448.12 227.429 452.571 222.977 452.571 217.486V204.229C452.571 198.738 448.12 194.286 442.628 194.286Z" fill="#5375FF"/>
<path d="M443.116 203.741C442.828 203.454 442.421 203.338 442.027 203.43L442.021 203.432L429.007 206.617C427.758 206.923 426.885 208.034 426.885 209.321V211.038C426.885 211.664 427.381 212.176 428.001 212.202L432.896 213.035C433 213.053 433.105 213.019 433.179 212.945L438.948 207.176C439.15 206.974 439.478 206.974 439.68 207.176C439.882 207.378 439.882 207.707 439.68 207.909L433.912 213.677C433.837 213.752 433.804 213.857 433.821 213.961L434.654 218.856C434.681 219.476 435.193 219.971 435.818 219.971H437.536C438.822 219.971 439.934 219.099 440.24 217.85L443.425 204.836L443.426 204.83C443.517 204.435 443.401 204.029 443.116 203.741Z" fill="#FBFBFB"/>
</g>
<rect x="287" y="139" width="172" height="7" rx="2" fill="#B0AFAF"/>
<rect x="325" y="154" width="105" height="8" rx="2" fill="#B0AFAF"/>
<ellipse cx="312" cy="58" rx="25" ry="24" fill="#C4C4C4"/>
<rect x="348" y="58" width="73" height="3" rx="1.5" fill="#C4C4C4"/>
<g filter="url(#filter3_d)">
<rect x="288" y="195" width="113" height="31" rx="4" fill="#5375FF"/>
</g>
<path d="M316.024 214.13C317.811 214.13 318.799 213.194 318.806 211.79C318.812 210.158 317.486 209.775 316.069 209.365C314.763 208.982 313.898 208.683 313.898 207.656C313.898 206.772 314.535 206.187 315.77 206.187C317.233 206.187 317.863 207.025 317.954 208.273L318.734 208.104C318.695 206.291 317.551 205.42 315.803 205.42C314.171 205.42 312.995 206.226 312.995 207.714C312.995 209.255 314.223 209.749 315.699 210.145C317.051 210.522 317.915 210.789 317.915 211.829C317.915 212.901 317.168 213.356 316.037 213.356C314.36 213.356 313.521 212.576 313.547 211.107L312.722 211.237C312.683 213.278 314.171 214.13 316.024 214.13ZM323.699 207.636C322.666 207.636 321.892 208.15 321.502 208.949V204.926H320.651V214H321.502V210.73C321.502 209.281 322.386 208.429 323.556 208.429C324.622 208.429 325.136 209.027 325.136 210.353V214H325.987V210.23C325.987 208.527 325.233 207.636 323.699 207.636ZM330.531 214.13C332.409 214.13 333.625 212.732 333.625 210.88C333.625 209.027 332.409 207.636 330.531 207.636C328.652 207.636 327.43 209.027 327.43 210.88C327.43 212.732 328.652 214.13 330.531 214.13ZM330.531 213.369C329.172 213.369 328.295 212.31 328.295 210.88C328.295 209.45 329.172 208.397 330.531 208.397C331.883 208.397 332.76 209.45 332.76 210.88C332.76 212.31 331.883 213.369 330.531 213.369ZM342.487 207.766L341.499 211.4C341.323 212.05 341.174 212.674 341.011 213.343C340.842 212.648 340.673 212.017 340.491 211.393L339.412 207.773H338.444L337.358 211.393C337.176 212.017 337.007 212.648 336.838 213.343C336.676 212.674 336.526 212.05 336.357 211.4L335.369 207.766H334.485L336.273 214H337.352L338.541 210.067C338.684 209.593 338.795 209.125 338.925 208.631C339.055 209.125 339.172 209.593 339.315 210.067L340.498 214H341.577L343.364 207.766H342.487ZM354.371 207.636C353.292 207.636 352.59 208.156 352.252 208.975C352.005 208.098 351.414 207.636 350.387 207.636C349.34 207.636 348.677 208.117 348.339 208.884L348.352 207.766H347.54V214H348.385V210.711C348.385 209.255 349.061 208.41 350.237 208.41C351.232 208.41 351.557 209.014 351.557 210.321V214H352.395V210.711C352.395 209.255 353.065 208.41 354.241 208.41C355.242 208.41 355.567 209.034 355.567 210.321V214H356.406V210.23C356.406 208.566 355.821 207.636 354.371 207.636ZM360.962 214.13C362.84 214.13 364.056 212.732 364.056 210.88C364.056 209.027 362.84 207.636 360.962 207.636C359.083 207.636 357.861 209.027 357.861 210.88C357.861 212.732 359.083 214.13 360.962 214.13ZM360.962 213.369C359.603 213.369 358.726 212.31 358.726 210.88C358.726 209.45 359.603 208.397 360.962 208.397C362.314 208.397 363.191 209.45 363.191 210.88C363.191 212.31 362.314 213.369 360.962 213.369ZM366.417 209.04L366.43 207.766H365.618V214H366.456V210.698C366.456 209.073 367.698 208.267 368.913 208.585L368.972 207.695C367.821 207.441 366.84 207.948 366.417 209.04ZM375.298 210.756C375.298 208.891 374.277 207.636 372.522 207.636C370.761 207.636 369.63 209.06 369.63 210.867C369.63 212.713 370.806 214.13 372.62 214.13C373.881 214.13 374.817 213.545 375.181 212.433L374.511 212.199C374.212 212.94 373.627 213.389 372.62 213.389C371.372 213.389 370.585 212.459 370.488 211.127H375.291C375.298 210.997 375.298 210.873 375.298 210.756ZM372.522 208.364C373.679 208.364 374.355 209.125 374.446 210.425H370.507C370.637 209.209 371.359 208.364 372.522 208.364Z" fill="white"/>
<rect x="282.2" y="108.2" width="51.6" height="13.6" rx="6.8" stroke="#5375FF" stroke-width="0.4"/>
<rect x="345.2" y="108.2" width="41.6" height="13.6" rx="6.8" stroke="#5375FF" stroke-width="0.4"/>
<rect x="407.2" y="108.2" width="22.6" height="13.6" rx="6.8" stroke="#5375FF" stroke-width="0.4"/>
<path d="M73.8145 260H74.5885V257.309H77.392V260H78.166V254.15H77.392V256.647H74.5885V254.15H73.8145V260ZM83.2876 257.745C83.2876 256.44 82.5631 255.567 81.3301 255.567C80.0836 255.567 79.2871 256.553 79.2871 257.822C79.2871 259.118 80.0971 260.09 81.3976 260.09C82.3021 260.09 82.9681 259.671 83.2066 258.857L82.6171 258.69C82.4281 259.176 82.0501 259.464 81.3931 259.464C80.6011 259.464 80.1061 258.906 80.0251 258.056H83.2786C83.2876 257.948 83.2876 257.844 83.2876 257.745ZM81.3256 256.179C82.0591 256.179 82.4956 256.652 82.5586 257.475H80.0296C80.1286 256.697 80.5966 256.179 81.3256 256.179ZM87.19 255.657L86.3035 258.272C86.173 258.668 86.0515 259.046 85.9345 259.424C85.804 259.046 85.6735 258.659 85.543 258.272L84.6565 255.657H83.8285L85.435 260.009H85.642L85.5475 260.284C85.2955 260.99 84.7825 261.17 83.986 261.053L83.8915 261.724C85.021 261.895 85.867 261.535 86.281 260.351L88.018 255.657H87.19ZM89.1689 258.951C88.8179 258.951 88.5839 259.208 88.5839 259.509C88.5839 259.842 88.8044 260.05 89.1014 260.05H89.1464C89.0699 260.423 88.8044 260.711 88.3499 260.999L88.6784 261.382C89.3939 260.968 89.7809 260.419 89.7809 259.689C89.7809 259.217 89.5514 258.951 89.1689 258.951ZM97.986 255.657L97.356 258.11C97.239 258.56 97.149 258.983 97.0455 259.455C96.9375 258.96 96.834 258.533 96.7125 258.101L96.0285 255.657H95.1735L94.4895 258.101C94.368 258.533 94.26 258.956 94.152 259.451C94.053 258.978 93.9585 258.56 93.846 258.11L93.216 255.657H92.451L93.657 260H94.5975L95.358 257.318C95.4525 257.003 95.52 256.701 95.601 256.364C95.682 256.701 95.754 257.003 95.844 257.318L96.6 260H97.545L98.751 255.657H97.986ZM101.856 255.567C101.168 255.567 100.659 255.887 100.389 256.404V253.718H99.6557V260H100.389V257.768C100.389 256.796 100.947 256.251 101.703 256.251C102.387 256.251 102.711 256.634 102.711 257.48V260H103.445V257.336C103.445 256.197 102.932 255.567 101.856 255.567ZM108.524 259.428C108.232 259.428 108.164 259.248 108.164 258.996V257.345C108.164 256.728 108.043 255.567 106.396 255.567C105.437 255.567 104.812 256.008 104.605 256.859L105.275 257.025C105.428 256.463 105.748 256.184 106.4 256.184C107.206 256.184 107.453 256.674 107.453 257.34V257.606C107.138 257.565 106.814 257.543 106.522 257.543C105.361 257.543 104.483 257.862 104.483 258.803C104.483 259.599 105.082 260.086 105.977 260.086C106.679 260.086 107.228 259.784 107.512 259.325C107.561 259.797 107.777 260.041 108.353 260.041C108.493 260.041 108.619 260.027 108.763 259.995V259.41C108.677 259.424 108.601 259.428 108.524 259.428ZM106.103 259.473C105.622 259.473 105.275 259.275 105.275 258.785C105.275 258.29 105.73 258.101 106.562 258.101C106.846 258.101 107.138 258.119 107.453 258.155V258.785C107.179 259.217 106.67 259.473 106.103 259.473ZM112.053 259.253C111.869 259.361 111.689 259.41 111.45 259.41C110.933 259.41 110.712 259.127 110.712 258.528V256.269H112.148V255.657H110.712V254.258L109.983 254.366V255.657H109.088V256.269H109.983V258.618C109.983 259.604 110.487 260.063 111.347 260.063C111.698 260.063 111.981 259.986 112.247 259.842L112.053 259.253ZM118.764 259.428C118.471 259.428 118.404 259.248 118.404 258.996V257.345C118.404 256.728 118.282 255.567 116.635 255.567C115.677 255.567 115.051 256.008 114.844 256.859L115.515 257.025C115.668 256.463 115.987 256.184 116.64 256.184C117.445 256.184 117.693 256.674 117.693 257.34V257.606C117.378 257.565 117.054 257.543 116.761 257.543C115.6 257.543 114.723 257.862 114.723 258.803C114.723 259.599 115.321 260.086 116.217 260.086C116.919 260.086 117.468 259.784 117.751 259.325C117.801 259.797 118.017 260.041 118.593 260.041C118.732 260.041 118.858 260.027 119.002 259.995V259.41C118.917 259.424 118.84 259.428 118.764 259.428ZM116.343 259.473C115.861 259.473 115.515 259.275 115.515 258.785C115.515 258.29 115.969 258.101 116.802 258.101C117.085 258.101 117.378 258.119 117.693 258.155V258.785C117.418 259.217 116.91 259.473 116.343 259.473ZM120.598 256.535L120.603 255.657H119.914V260H120.625V257.799C120.625 256.688 121.476 256.175 122.308 256.373L122.326 255.603C121.539 255.432 120.886 255.797 120.598 256.535ZM126.732 257.745C126.732 256.44 126.007 255.567 124.774 255.567C123.528 255.567 122.731 256.553 122.731 257.822C122.731 259.118 123.541 260.09 124.842 260.09C125.746 260.09 126.412 259.671 126.651 258.857L126.061 258.69C125.872 259.176 125.494 259.464 124.837 259.464C124.045 259.464 123.55 258.906 123.469 258.056H126.723C126.732 257.948 126.732 257.844 126.732 257.745ZM124.77 256.179C125.503 256.179 125.94 256.652 126.003 257.475H123.474C123.573 256.697 124.041 256.179 124.77 256.179ZM132.489 255.657L131.602 258.272C131.472 258.668 131.35 259.046 131.233 259.424C131.103 259.046 130.972 258.659 130.842 258.272L129.955 255.657H129.127L130.734 260.009H130.941L130.846 260.284C130.594 260.99 130.081 261.17 129.285 261.053L129.19 261.724C130.32 261.895 131.166 261.535 131.58 260.351L133.317 255.657H132.489ZM135.931 260.09C137.263 260.09 138.104 259.127 138.104 257.826C138.104 256.53 137.263 255.567 135.931 255.567C134.594 255.567 133.753 256.53 133.753 257.826C133.753 259.127 134.594 260.09 135.931 260.09ZM135.931 259.438C135.053 259.438 134.486 258.762 134.486 257.826C134.486 256.89 135.053 256.22 135.931 256.22C136.799 256.22 137.371 256.89 137.371 257.826C137.371 258.762 136.799 259.438 135.931 259.438ZM142.071 255.657V257.885C142.071 258.857 141.513 259.401 140.757 259.401C140.1 259.401 139.771 259.019 139.771 258.173V255.657H139.042V258.317C139.042 259.455 139.551 260.086 140.599 260.086C141.337 260.086 141.859 259.716 142.107 259.127L142.125 260H142.8V255.657H142.071ZM148.997 255.657V257.885C148.997 258.857 148.439 259.401 147.683 259.401C147.026 259.401 146.697 259.019 146.697 258.173V255.657H145.968V258.317C145.968 259.455 146.477 260.086 147.525 260.086C148.263 260.086 148.785 259.716 149.033 259.127L149.051 260H149.726V255.657H148.997ZM153.362 255.572C152.615 255.572 152.088 255.878 151.805 256.458L151.796 255.657H151.098V261.755H151.832V259.217C152.124 259.775 152.633 260.09 153.362 260.09C154.622 260.09 155.333 259.158 155.333 257.822C155.333 256.494 154.622 255.572 153.362 255.572ZM153.236 259.438C152.354 259.438 151.805 258.744 151.805 257.822C151.805 256.904 152.354 256.229 153.236 256.229C154.131 256.229 154.581 256.886 154.581 257.822C154.581 258.762 154.131 259.438 153.236 259.438ZM160.648 259.253C160.464 259.361 160.284 259.41 160.045 259.41C159.528 259.41 159.307 259.127 159.307 258.528V256.269H160.743V255.657H159.307V254.258L158.578 254.366V255.657H157.683V256.269H158.578V258.618C158.578 259.604 159.082 260.063 159.942 260.063C160.293 260.063 160.576 259.986 160.842 259.842L160.648 259.253ZM163.537 260.09C164.869 260.09 165.711 259.127 165.711 257.826C165.711 256.53 164.869 255.567 163.537 255.567C162.201 255.567 161.359 256.53 161.359 257.826C161.359 259.127 162.201 260.09 163.537 260.09ZM163.537 259.438C162.66 259.438 162.093 258.762 162.093 257.826C162.093 256.89 162.66 256.22 163.537 256.22C164.406 256.22 164.977 256.89 164.977 257.826C164.977 258.762 164.406 259.438 163.537 259.438ZM167.792 258.366H168.507V258.177C168.507 257.718 168.615 257.493 169.196 257.048C169.749 256.629 170.064 256.265 170.064 255.576C170.064 254.618 169.398 254.06 168.354 254.06C167.225 254.06 166.599 254.685 166.527 255.878L167.252 256.017C167.274 255.099 167.67 254.726 168.35 254.726C168.935 254.726 169.29 255.041 169.29 255.639C169.29 256.062 169.119 256.301 168.741 256.611C167.936 257.264 167.792 257.538 167.792 258.177V258.366ZM168.179 260.09C168.489 260.09 168.75 259.833 168.75 259.518C168.75 259.208 168.489 258.951 168.179 258.951C167.864 258.951 167.598 259.208 167.598 259.518C167.598 259.833 167.864 260.09 168.179 260.09Z" fill="white"/>
<path d="M124.091 228.15L122.61 231.241L121.13 228.15H120.257L122.223 231.997V234H122.997V231.997L124.964 228.15H124.091ZM128.855 231.745C128.855 230.44 128.13 229.567 126.897 229.567C125.651 229.567 124.854 230.553 124.854 231.822C124.854 233.118 125.664 234.09 126.965 234.09C127.869 234.09 128.535 233.671 128.774 232.857L128.184 232.69C127.995 233.176 127.617 233.464 126.96 233.464C126.168 233.464 125.673 232.906 125.592 232.056H128.846C128.855 231.948 128.855 231.844 128.855 231.745ZM126.893 230.179C127.626 230.179 128.063 230.652 128.126 231.475H125.597C125.696 230.697 126.164 230.179 126.893 230.179ZM131.502 234.09C132.546 234.09 133.122 233.59 133.122 232.816C133.122 231.97 132.487 231.759 131.511 231.543C130.818 231.385 130.444 231.259 130.444 230.805C130.444 230.422 130.719 230.152 131.331 230.152C131.952 230.152 132.388 230.454 132.429 231.124L133.072 231.039C133.05 230.148 132.469 229.567 131.326 229.567C130.368 229.567 129.738 230.049 129.733 230.85C129.733 231.624 130.278 231.925 131.362 232.155C132.001 232.29 132.397 232.389 132.397 232.87C132.397 233.302 132.078 233.505 131.484 233.505C130.8 233.505 130.305 233.248 130.255 232.524L129.585 232.614C129.657 233.64 130.417 234.09 131.502 234.09ZM136.694 233.253C136.509 233.361 136.329 233.41 136.091 233.41C135.573 233.41 135.353 233.127 135.353 232.528V230.269H136.788V229.657H135.353V228.258L134.624 228.366V229.657H133.728V230.269H134.624V232.618C134.624 233.604 135.128 234.063 135.987 234.063C136.338 234.063 136.622 233.986 136.887 233.842L136.694 233.253ZM141.406 231.745C141.406 230.44 140.681 229.567 139.448 229.567C138.202 229.567 137.405 230.553 137.405 231.822C137.405 233.118 138.215 234.09 139.516 234.09C140.42 234.09 141.086 233.671 141.325 232.857L140.735 232.69C140.546 233.176 140.168 233.464 139.511 233.464C138.719 233.464 138.224 232.906 138.143 232.056H141.397C141.406 231.948 141.406 231.844 141.406 231.745ZM139.444 230.179C140.177 230.179 140.614 230.652 140.677 231.475H138.148C138.247 230.697 138.715 230.179 139.444 230.179ZM143.112 230.535L143.117 229.657H142.428V234H143.139V231.799C143.139 230.688 143.99 230.175 144.822 230.373L144.84 229.603C144.053 229.432 143.4 229.797 143.112 230.535ZM148.746 227.718V230.391C148.467 229.851 147.972 229.567 147.252 229.567C145.988 229.567 145.245 230.494 145.245 231.822C145.245 233.158 145.988 234.09 147.252 234.09C147.999 234.09 148.494 233.757 148.773 233.176L148.782 234H149.48V227.718H148.746ZM147.342 233.438C146.447 233.438 145.997 232.762 145.997 231.822C145.997 230.881 146.447 230.224 147.342 230.224C148.224 230.224 148.773 230.899 148.773 231.822C148.773 232.744 148.224 233.438 147.342 233.438ZM154.619 233.428C154.327 233.428 154.259 233.248 154.259 232.996V231.345C154.259 230.728 154.138 229.567 152.491 229.567C151.532 229.567 150.907 230.008 150.7 230.859L151.37 231.025C151.523 230.463 151.843 230.184 152.495 230.184C153.301 230.184 153.548 230.674 153.548 231.34V231.606C153.233 231.565 152.909 231.543 152.617 231.543C151.456 231.543 150.578 231.862 150.578 232.803C150.578 233.599 151.177 234.086 152.072 234.086C152.774 234.086 153.323 233.784 153.607 233.325C153.656 233.797 153.872 234.041 154.448 234.041C154.588 234.041 154.714 234.027 154.858 233.995V233.41C154.772 233.424 154.696 233.428 154.619 233.428ZM152.198 233.473C151.717 233.473 151.37 233.275 151.37 232.785C151.37 232.29 151.825 232.101 152.657 232.101C152.941 232.101 153.233 232.119 153.548 232.155V232.785C153.274 233.217 152.765 233.473 152.198 233.473ZM158.518 229.657L157.632 232.272C157.501 232.668 157.38 233.046 157.263 233.424C157.132 233.046 157.002 232.659 156.871 232.272L155.985 229.657H155.157L156.763 234.009H156.97L156.876 234.284C156.624 234.99 156.111 235.17 155.314 235.053L155.22 235.724C156.349 235.895 157.195 235.535 157.609 234.351L159.346 229.657H158.518Z" fill="#5A5A5A"/>
<path d="M167.067 310.948H166.028V307.1H164.912L162.338 310.997L162.464 311.573L165.281 311.569V313H166.028V311.564H167.067V310.948ZM163.188 310.948L164.435 309.085C164.718 308.653 165.002 308.23 165.308 307.685C165.281 308.18 165.281 308.693 165.281 309.26V310.948H163.188ZM168.518 309.769C168.829 309.769 169.09 309.512 169.09 309.197C169.09 308.882 168.829 308.626 168.518 308.626C168.203 308.626 167.938 308.882 167.938 309.197C167.938 309.512 168.203 309.769 168.518 309.769ZM168.518 313.09C168.829 313.09 169.09 312.833 169.09 312.518C169.09 312.208 168.829 311.951 168.518 311.951C168.203 311.951 167.938 312.208 167.938 312.518C167.938 312.833 168.203 313.09 168.518 313.09ZM172.589 309.256C172.071 309.256 171.657 309.382 171.257 309.706L171.392 307.812H174.164V307.15H170.739L170.541 310.093L171.153 310.462C171.59 310.048 171.945 309.904 172.436 309.904C173.25 309.904 173.66 310.408 173.66 311.164C173.655 311.996 173.133 312.424 172.323 312.424C171.653 312.424 171.059 312.073 170.897 311.344L170.177 311.483C170.402 312.532 171.207 313.09 172.31 313.09C173.561 313.09 174.461 312.361 174.461 311.159C174.461 309.998 173.786 309.256 172.589 309.256ZM177.906 309.256C177.389 309.256 176.975 309.382 176.574 309.706L176.709 307.812H179.481V307.15H176.057L175.859 310.093L176.471 310.462C176.907 310.048 177.263 309.904 177.753 309.904C178.568 309.904 178.977 310.408 178.977 311.164C178.973 311.996 178.451 312.424 177.641 312.424C176.97 312.424 176.376 312.073 176.214 311.344L175.494 311.483C175.719 312.532 176.525 313.09 177.627 313.09C178.878 313.09 179.778 312.361 179.778 311.159C179.778 309.998 179.103 309.256 177.906 309.256ZM183.264 308.572C182.517 308.572 181.99 308.878 181.707 309.458L181.698 308.657H181V314.755H181.734V312.217C182.026 312.775 182.535 313.09 183.264 313.09C184.524 313.09 185.235 312.158 185.235 310.822C185.235 309.494 184.524 308.572 183.264 308.572ZM183.138 312.438C182.256 312.438 181.707 311.744 181.707 310.822C181.707 309.904 182.256 309.229 183.138 309.229C184.033 309.229 184.483 309.886 184.483 310.822C184.483 311.762 184.033 312.438 183.138 312.438ZM191.018 308.567C190.298 308.567 189.83 308.9 189.591 309.445C189.411 308.869 188.993 308.567 188.291 308.567C187.598 308.567 187.152 308.873 186.909 309.373L186.914 308.657H186.23V313H186.95V310.741C186.95 309.773 187.382 309.224 188.133 309.224C188.768 309.224 188.988 309.611 188.988 310.439V313H189.704V310.741C189.704 309.773 190.131 309.224 190.883 309.224C191.517 309.224 191.738 309.625 191.738 310.439V313H192.453V310.331C192.453 309.215 192.026 308.567 191.018 308.567Z" fill="#5A5A5A"/>
<path d="M114.397 333.15V336.723C114.397 337.069 114.406 337.434 114.428 337.803C114.212 337.402 114.019 337.065 113.825 336.745L111.625 333.15H110.815V339H111.571V335.355C111.571 335.031 111.566 334.689 111.548 334.342C111.746 334.716 111.926 335.031 112.106 335.328L114.361 339H115.153V333.15H114.397ZM118.456 339.09C119.788 339.09 120.63 338.127 120.63 336.826C120.63 335.53 119.788 334.567 118.456 334.567C117.12 334.567 116.278 335.53 116.278 336.826C116.278 338.127 117.12 339.09 118.456 339.09ZM118.456 338.438C117.579 338.438 117.012 337.762 117.012 336.826C117.012 335.89 117.579 335.22 118.456 335.22C119.325 335.22 119.896 335.89 119.896 336.826C119.896 337.762 119.325 338.438 118.456 338.438ZM124.092 338.253C123.908 338.361 123.728 338.41 123.489 338.41C122.972 338.41 122.751 338.127 122.751 337.528V335.269H124.187V334.657H122.751V333.258L122.022 333.366V334.657H121.127V335.269H122.022V337.618C122.022 338.604 122.526 339.063 123.386 339.063C123.737 339.063 124.02 338.986 124.286 338.842L124.092 338.253ZM131.82 334.567C131.1 334.567 130.632 334.9 130.393 335.445C130.213 334.869 129.795 334.567 129.093 334.567C128.4 334.567 127.954 334.873 127.711 335.373L127.716 334.657H127.032V339H127.752V336.741C127.752 335.773 128.184 335.224 128.935 335.224C129.57 335.224 129.79 335.611 129.79 336.439V339H130.506V336.741C130.506 335.773 130.933 335.224 131.685 335.224C132.319 335.224 132.54 335.625 132.54 336.439V339H133.255V336.331C133.255 335.215 132.828 334.567 131.82 334.567ZM137.534 334.657V336.885C137.534 337.857 136.976 338.401 136.22 338.401C135.563 338.401 135.234 338.019 135.234 337.173V334.657H134.505V337.317C134.505 338.455 135.014 339.086 136.062 339.086C136.8 339.086 137.322 338.716 137.57 338.127L137.588 339H138.263V334.657H137.534ZM141.381 339.09C142.367 339.09 143.1 338.626 143.312 337.596L142.646 337.483C142.479 338.095 142.083 338.446 141.39 338.446C140.495 338.446 140 337.758 140 336.826C140 335.899 140.495 335.206 141.39 335.206C142.083 335.206 142.479 335.557 142.646 336.169L143.312 336.061C143.1 335.031 142.367 334.567 141.381 334.567C140.067 334.567 139.262 335.539 139.262 336.826C139.262 338.113 140.067 339.09 141.381 339.09ZM146.538 334.567C145.849 334.567 145.341 334.887 145.071 335.404V332.718H144.337V339H145.071V336.768C145.071 335.796 145.629 335.251 146.385 335.251C147.069 335.251 147.393 335.634 147.393 336.48V339H148.126V336.336C148.126 335.197 147.613 334.567 146.538 334.567ZM149.934 337.951C149.583 337.951 149.349 338.208 149.349 338.509C149.349 338.842 149.57 339.05 149.867 339.05H149.912C149.835 339.423 149.57 339.711 149.115 339.999L149.444 340.382C150.159 339.968 150.546 339.419 150.546 338.689C150.546 338.217 150.317 337.951 149.934 337.951ZM155.881 334.567C155.192 334.567 154.684 334.887 154.414 335.404V332.718H153.68V339H154.414V336.768C154.414 335.796 154.972 335.251 155.728 335.251C156.412 335.251 156.736 335.634 156.736 336.48V339H157.469V336.336C157.469 335.197 156.956 334.567 155.881 334.567ZM160.582 339.09C161.914 339.09 162.756 338.127 162.756 336.826C162.756 335.53 161.914 334.567 160.582 334.567C159.246 334.567 158.404 335.53 158.404 336.826C158.404 338.127 159.246 339.09 160.582 339.09ZM160.582 338.438C159.705 338.438 159.138 337.762 159.138 336.826C159.138 335.89 159.705 335.22 160.582 335.22C161.451 335.22 162.022 335.89 162.022 336.826C162.022 337.762 161.451 338.438 160.582 338.438ZM168.824 334.657L168.194 337.11C168.077 337.56 167.987 337.983 167.883 338.455C167.775 337.96 167.672 337.533 167.55 337.101L166.866 334.657H166.011L165.327 337.101C165.206 337.533 165.098 337.956 164.99 338.451C164.891 337.978 164.796 337.56 164.684 337.11L164.054 334.657H163.289L164.495 339H165.435L166.196 336.318C166.29 336.003 166.358 335.701 166.439 335.364C166.52 335.701 166.592 336.003 166.682 336.318L167.438 339H168.383L169.589 334.657H168.824ZM176.119 338.428C175.827 338.428 175.759 338.248 175.759 337.996V336.345C175.759 335.728 175.638 334.567 173.991 334.567C173.032 334.567 172.407 335.008 172.2 335.859L172.87 336.025C173.023 335.463 173.343 335.184 173.995 335.184C174.801 335.184 175.048 335.674 175.048 336.34V336.606C174.733 336.565 174.409 336.543 174.117 336.543C172.956 336.543 172.078 336.862 172.078 337.803C172.078 338.599 172.677 339.086 173.572 339.086C174.274 339.086 174.823 338.784 175.107 338.325C175.156 338.797 175.372 339.041 175.948 339.041C176.088 339.041 176.214 339.027 176.358 338.995V338.41C176.272 338.424 176.196 338.428 176.119 338.428ZM173.698 338.473C173.217 338.473 172.87 338.275 172.87 337.785C172.87 337.29 173.325 337.101 174.157 337.101C174.441 337.101 174.733 337.119 175.048 337.155V337.785C174.774 338.217 174.265 338.473 173.698 338.473ZM179.533 334.567C178.809 334.567 178.291 334.855 178.003 335.4V332.718H177.27V339H177.967L177.976 338.167C178.264 338.752 178.782 339.09 179.533 339.09C180.793 339.09 181.504 338.158 181.504 336.822C181.504 335.494 180.793 334.567 179.533 334.567ZM179.407 338.438C178.525 338.438 177.976 337.744 177.976 336.822C177.976 335.899 178.525 335.224 179.407 335.224C180.303 335.224 180.753 335.881 180.753 336.822C180.753 337.762 180.303 338.438 179.407 338.438ZM184.453 339.09C185.785 339.09 186.627 338.127 186.627 336.826C186.627 335.53 185.785 334.567 184.453 334.567C183.117 334.567 182.275 335.53 182.275 336.826C182.275 338.127 183.117 339.09 184.453 339.09ZM184.453 338.438C183.576 338.438 183.009 337.762 183.009 336.826C183.009 335.89 183.576 335.22 184.453 335.22C185.322 335.22 185.893 335.89 185.893 336.826C185.893 337.762 185.322 338.438 184.453 338.438ZM190.593 334.657V336.885C190.593 337.857 190.035 338.401 189.279 338.401C188.622 338.401 188.294 338.019 188.294 337.173V334.657H187.565V337.317C187.565 338.455 188.073 339.086 189.122 339.086C189.86 339.086 190.382 338.716 190.629 338.127L190.647 339H191.322V334.657H190.593ZM195.161 338.253C194.976 338.361 194.796 338.41 194.558 338.41C194.04 338.41 193.82 338.127 193.82 337.528V335.269H195.255V334.657H193.82V333.258L193.091 333.366V334.657H192.195V335.269H193.091V337.618C193.091 338.604 193.595 339.063 194.454 339.063C194.805 339.063 195.089 338.986 195.354 338.842L195.161 338.253ZM200.98 334.657L200.094 337.272C199.963 337.668 199.842 338.046 199.725 338.424C199.594 338.046 199.464 337.659 199.333 337.272L198.447 334.657H197.619L199.225 339.009H199.432L199.338 339.284C199.086 339.99 198.573 340.17 197.776 340.053L197.682 340.724C198.811 340.895 199.657 340.535 200.071 339.351L201.808 334.657H200.98ZM204.422 339.09C205.754 339.09 206.596 338.127 206.596 336.826C206.596 335.53 205.754 334.567 204.422 334.567C203.086 334.567 202.244 335.53 202.244 336.826C202.244 338.127 203.086 339.09 204.422 339.09ZM204.422 338.438C203.545 338.438 202.978 337.762 202.978 336.826C202.978 335.89 203.545 335.22 204.422 335.22C205.291 335.22 205.862 335.89 205.862 336.826C205.862 337.762 205.291 338.438 204.422 338.438ZM210.562 334.657V336.885C210.562 337.857 210.004 338.401 209.248 338.401C208.591 338.401 208.263 338.019 208.263 337.173V334.657H207.534V337.317C207.534 338.455 208.042 339.086 209.091 339.086C209.829 339.086 210.351 338.716 210.598 338.127L210.616 339H211.291V334.657H210.562ZM215.008 335.769C215.319 335.769 215.58 335.512 215.58 335.197C215.58 334.882 215.319 334.626 215.008 334.626C214.693 334.626 214.428 334.882 214.428 335.197C214.428 335.512 214.693 335.769 215.008 335.769ZM215.008 339.09C215.319 339.09 215.58 338.833 215.58 338.518C215.58 338.208 215.319 337.951 215.008 337.951C214.693 337.951 214.428 338.208 214.428 338.518C214.428 338.833 214.693 339.09 215.008 339.09ZM217.202 340.341C218.044 339.189 218.48 337.65 218.48 336.075C218.48 334.5 218.044 332.961 217.202 331.809L216.617 332.115C217.396 333.168 217.805 334.581 217.805 336.075C217.805 337.569 217.396 338.982 216.617 340.035L217.202 340.341Z" fill="black"/>
<defs>
<filter id="filter0_d" x="0" y="195" width="288" height="231" filterUnits="userSpaceOnUse" color-interpolation-filters="sRGB">
<feFlood flood-opacity="0" result="BackgroundImageFix"/>
<feColorMatrix in="SourceAlpha" type="matrix" values="0 0 0 0 0 0 0 0 0 0 0 0 0 0 0 0 0 0 127 0"/>
<feOffset dy="4"/>
<feGaussianBlur stdDeviation="2"/>
<feColorMatrix type="matrix" values="0 0 0 0 0 0 0 0 0 0 0 0 0 0 0 0 0 0 0.25 0"/>
<feBlend mode="normal" in2="BackgroundImageFix" result="effect1_dropShadow"/>
<feBlend mode="normal" in="SourceGraphic" in2="effect1_dropShadow" result="shape"/>
</filter>
<filter id="filter1_d" x="238" y="0" width="249" height="260" filterUnits="userSpaceOnUse" color-interpolation-filters="sRGB">
<feFlood flood-opacity="0" result="BackgroundImageFix"/>
<feColorMatrix in="SourceAlpha" type="matrix" values="0 0 0 0 0 0 0 0 0 0 0 0 0 0 0 0 0 0 127 0"/>
<feOffset dy="4"/>
<feGaussianBlur stdDeviation="2"/>
<feColorMatrix type="matrix" values="0 0 0 0 0 0 0 0 0 0 0 0 0 0 0 0 0 0 0.25 0"/>
<feBlend mode="normal" in2="BackgroundImageFix" result="effect1_dropShadow"/>
<feBlend mode="normal" in="SourceGraphic" in2="effect1_dropShadow" result="shape"/>
</filter>
<filter id="filter2_d" x="404.428" y="184.286" width="63.1429" height="63.1429" filterUnits="userSpaceOnUse" color-interpolation-filters="sRGB">
<feFlood flood-opacity="0" result="BackgroundImageFix"/>
<feColorMatrix in="SourceAlpha" type="matrix" values="0 0 0 0 0 0 0 0 0 0 0 0 0 0 0 0 0 0 127 0"/>
<feOffset dy="5"/>
<feGaussianBlur stdDeviation="7.5"/>
<feColorMatrix type="matrix" values="0 0 0 0 0.0470588 0 0 0 0 0.0666667 0 0 0 0 0.109804 0 0 0 0.151825 0"/>
<feBlend mode="normal" in2="BackgroundImageFix" result="effect1_dropShadow"/>
<feBlend mode="normal" in="SourceGraphic" in2="effect1_dropShadow" result="shape"/>
</filter>
<filter id="filter3_d" x="284" y="193" width="121" height="39" filterUnits="userSpaceOnUse" color-interpolation-filters="sRGB">
<feFlood flood-opacity="0" result="BackgroundImageFix"/>
<feColorMatrix in="SourceAlpha" type="matrix" values="0 0 0 0 0 0 0 0 0 0 0 0 0 0 0 0 0 0 127 0"/>
<feOffset dy="2"/>
<feGaussianBlur stdDeviation="2"/>
<feColorMatrix type="matrix" values="0 0 0 0 0 0 0 0 0 0 0 0 0 0 0 0 0 0 0.25 0"/>
<feBlend mode="normal" in2="BackgroundImageFix" result="effect1_dropShadow"/>
<feBlend mode="normal" in="SourceGraphic" in2="effect1_dropShadow" result="shape"/>
</filter>
<clipPath id="clip0">
<rect width="58" height="58" fill="white" transform="translate(407 186)"/>
</clipPath>
</defs>
</svg>
