<svg width="374" height="399" viewBox="0 0 374 399" fill="none" xmlns="http://www.w3.org/2000/svg">
<g filter="url(#filter0_d)">
<rect x="4" width="366" height="391" rx="37" fill="white"/>
<rect x="4.5" y="0.5" width="365" height="390" rx="36.5" stroke="#C6C6C6"/>
</g>
<path d="M51.321 28.394C50.1871 27.1187 48.6139 26.416 46.8912 26.416C44.467 26.416 42.9329 27.8501 42.0727 29.053C41.8496 29.3646 41.6587 29.6774 41.5 29.973C41.3401 29.6774 41.1504 29.3646 40.9273 29.053C40.0671 27.8501 38.533 26.4172 36.1088 26.4172C34.3861 26.4172 32.8129 27.1187 31.6779 28.394C30.598 29.6096 30 31.2391 30 32.9802C30 34.8754 30.7475 36.6384 32.3518 38.5278C33.7847 40.2172 35.8478 41.9583 38.2363 43.9742C39.1264 44.7252 40.0464 45.5014 41.0262 46.3513L41.0561 46.3766C41.1826 46.487 41.3413 46.5422 41.5 46.5422C41.6587 46.5422 41.8162 46.487 41.9439 46.3766L41.9738 46.3513C42.9536 45.5014 43.8736 44.7252 44.7637 43.9742C47.1523 41.9583 49.2142 40.2172 50.6482 38.5278C52.2525 36.6384 53 34.8754 53 32.9802C53 31.2391 52.4043 29.6107 51.321 28.394ZM43.8909 42.9576C43.1238 43.6051 42.3337 44.2721 41.5012 44.9885C40.6686 44.2721 39.8796 43.6051 39.1114 42.9576C34.4367 39.0131 31.3489 36.4061 31.3489 32.9802C31.3489 31.5634 31.825 30.249 32.6898 29.2772C33.565 28.2928 34.7794 27.7512 36.11 27.7512C37.958 27.7512 39.1529 28.8782 39.8291 29.8246C40.4362 30.6733 40.7525 31.5278 40.8606 31.8555C40.9503 32.1315 41.2091 32.3167 41.5012 32.3167C41.7933 32.3167 42.052 32.1304 42.1417 31.8567C42.2498 31.5278 42.5672 30.6722 43.1732 29.8246C43.8494 28.8793 45.0443 27.7512 46.8912 27.7512C48.2229 27.7512 49.4373 28.2928 50.3125 29.2761C51.1772 30.249 51.6534 31.5646 51.6534 32.9791C51.6534 36.4061 48.5656 39.0131 43.8909 42.9576Z" fill="#5375FF"/>
<g filter="url(#filter1_d)">
<rect x="51" y="97" width="152" height="38" rx="10" fill="#5375FF"/>
</g>
<path d="M93.012 121.14C95.224 121.14 96.617 120.09 97.044 117.92L95.903 117.731C95.525 119.488 94.517 120.125 93.012 120.125C91.031 120.125 89.876 118.662 89.876 116.457C89.876 114.231 91.031 112.775 93.012 112.775C94.503 112.775 95.532 113.433 95.903 115.162L97.044 114.973C96.652 112.803 95.21 111.76 93.012 111.76C90.31 111.76 88.63 113.657 88.63 116.457C88.63 119.243 90.31 121.14 93.012 121.14ZM101.578 121.14C103.65 121.14 104.959 119.642 104.959 117.619C104.959 115.603 103.65 114.105 101.578 114.105C99.499 114.105 98.19 115.603 98.19 117.619C98.19 119.642 99.499 121.14 101.578 121.14ZM101.578 120.125C100.213 120.125 99.331 119.075 99.331 117.619C99.331 116.163 100.213 115.12 101.578 115.12C102.929 115.12 103.818 116.163 103.818 117.619C103.818 119.075 102.929 120.125 101.578 120.125ZM106.482 121H107.623V111.228H106.482V121ZM109.75 121H110.891V111.228H109.75V121ZM118.883 120.111C118.428 120.111 118.323 119.831 118.323 119.439V116.87C118.323 115.911 118.134 114.105 115.572 114.105C114.081 114.105 113.108 114.791 112.786 116.114L113.829 116.373C114.067 115.498 114.564 115.064 115.579 115.064C116.832 115.064 117.217 115.827 117.217 116.863V117.276C116.727 117.213 116.223 117.178 115.768 117.178C113.962 117.178 112.597 117.675 112.597 119.138C112.597 120.377 113.528 121.133 114.921 121.133C116.013 121.133 116.867 120.664 117.308 119.95C117.385 120.685 117.721 121.063 118.617 121.063C118.834 121.063 119.03 121.042 119.254 120.993V120.083C119.121 120.104 119.002 120.111 118.883 120.111ZM115.117 120.181C114.368 120.181 113.829 119.873 113.829 119.11C113.829 118.34 114.536 118.046 115.831 118.046C116.272 118.046 116.727 118.074 117.217 118.13V119.11C116.79 119.782 115.999 120.181 115.117 120.181ZM124.194 114.105C123.067 114.105 122.262 114.553 121.814 115.4V111.228H120.673V121H121.758L121.772 119.705C122.22 120.615 123.025 121.14 124.194 121.14C126.154 121.14 127.26 119.691 127.26 117.612C127.26 115.547 126.154 114.105 124.194 114.105ZM123.998 120.125C122.626 120.125 121.772 119.047 121.772 117.612C121.772 116.177 122.626 115.127 123.998 115.127C125.391 115.127 126.091 116.149 126.091 117.612C126.091 119.075 125.391 120.125 123.998 120.125ZM131.848 121.14C133.92 121.14 135.229 119.642 135.229 117.619C135.229 115.603 133.92 114.105 131.848 114.105C129.769 114.105 128.46 115.603 128.46 117.619C128.46 119.642 129.769 121.14 131.848 121.14ZM131.848 120.125C130.483 120.125 129.601 119.075 129.601 117.619C129.601 116.163 130.483 115.12 131.848 115.12C133.199 115.12 134.088 116.163 134.088 117.619C134.088 119.075 133.199 120.125 131.848 120.125ZM137.843 115.61L137.85 114.245H136.779V121H137.885V117.577C137.885 115.848 139.208 115.05 140.503 115.358L140.531 114.161C139.306 113.895 138.291 114.462 137.843 115.61ZM147.416 120.111C146.961 120.111 146.856 119.831 146.856 119.439V116.87C146.856 115.911 146.667 114.105 144.105 114.105C142.614 114.105 141.641 114.791 141.319 116.114L142.362 116.373C142.6 115.498 143.097 115.064 144.112 115.064C145.365 115.064 145.75 115.827 145.75 116.863V117.276C145.26 117.213 144.756 117.178 144.301 117.178C142.495 117.178 141.13 117.675 141.13 119.138C141.13 120.377 142.061 121.133 143.454 121.133C144.546 121.133 145.4 120.664 145.841 119.95C145.918 120.685 146.254 121.063 147.15 121.063C147.367 121.063 147.563 121.042 147.787 120.993V120.083C147.654 120.104 147.535 120.111 147.416 120.111ZM143.65 120.181C142.901 120.181 142.362 119.873 142.362 119.11C142.362 118.34 143.069 118.046 144.364 118.046C144.805 118.046 145.26 118.074 145.75 118.13V119.11C145.323 119.782 144.532 120.181 143.65 120.181ZM152.906 119.838C152.619 120.006 152.339 120.083 151.968 120.083C151.163 120.083 150.82 119.642 150.82 118.711V115.197H153.053V114.245H150.82V112.068L149.686 112.236V114.245H148.293V115.197H149.686V118.851C149.686 120.384 150.47 121.098 151.807 121.098C152.353 121.098 152.794 120.979 153.207 120.755L152.906 119.838ZM160.235 117.493C160.235 115.463 159.108 114.105 157.19 114.105C155.251 114.105 154.012 115.638 154.012 117.612C154.012 119.628 155.272 121.14 157.295 121.14C158.702 121.14 159.738 120.489 160.109 119.222L159.192 118.963C158.898 119.719 158.31 120.167 157.288 120.167C156.056 120.167 155.286 119.299 155.16 117.976H160.221C160.235 117.808 160.235 117.647 160.235 117.493ZM157.183 115.057C158.324 115.057 159.003 115.792 159.101 117.073H155.167C155.321 115.862 156.049 115.057 157.183 115.057Z" fill="white"/>
<g filter="url(#filter2_d)">
<circle cx="197" cy="97" r="28" fill="#ECECEC"/>
</g>
<path d="M243.544 82.1235C245.76 82.1235 247.145 80.9795 247.333 78.8605L245.5 78.6135C245.286 80.115 244.525 80.5375 243.505 80.5375C242.042 80.5375 241.347 79.452 241.347 77.775C241.347 76.098 242.042 75.0125 243.505 75.0125C244.525 75.0125 245.292 75.4805 245.5 76.9365L247.333 76.6895C247.171 74.5705 245.76 73.4265 243.544 73.4265C240.898 73.4265 239.39 75.1945 239.39 77.775C239.39 80.3555 240.898 82.1235 243.544 82.1235ZM251.368 82.1235C253.435 82.1235 254.644 80.7455 254.644 78.7955C254.644 76.852 253.435 75.474 251.368 75.474C249.294 75.474 248.085 76.852 248.085 78.7955C248.085 80.7455 249.294 82.1235 251.368 82.1235ZM251.368 80.5765C250.419 80.5765 249.808 79.894 249.808 78.7955C249.808 77.7035 250.419 77.0275 251.368 77.0275C252.31 77.0275 252.915 77.7035 252.915 78.7955C252.915 79.894 252.31 80.5765 251.368 80.5765ZM263.043 75.474C262.068 75.474 261.451 75.929 261.132 76.696C260.859 75.9355 260.248 75.474 259.189 75.474C258.181 75.474 257.564 75.955 257.265 76.7675L257.252 75.5975H255.718V82H257.453V78.8995C257.453 77.6775 257.921 77.086 258.688 77.086C259.325 77.086 259.585 77.4955 259.585 78.36V82H261.314V78.8865L261.321 78.8995C261.321 77.6775 261.789 77.086 262.556 77.086C263.193 77.086 263.453 77.502 263.453 78.36V82H265.182V77.8985C265.182 76.4685 264.577 75.474 263.043 75.474ZM270.251 75.4805C269.23 75.4805 268.554 75.903 268.19 76.7025L268.164 75.5975H266.585V84.4505H268.327V81.116C268.71 81.766 269.347 82.1235 270.251 82.1235C271.973 82.1235 273.078 80.804 273.078 78.7955C273.078 76.7935 271.973 75.4805 270.251 75.4805ZM269.841 80.583C268.899 80.583 268.268 79.8615 268.268 78.7955C268.268 77.736 268.899 77.0405 269.841 77.0405C270.79 77.0405 271.323 77.7165 271.323 78.7955C271.323 79.881 270.79 80.583 269.841 80.583ZM280.143 80.57C279.805 80.57 279.721 80.4075 279.721 80.089V78.1455C279.721 76.9235 279.37 75.474 276.874 75.474C275.268 75.474 274.157 76.241 274.053 77.6905L275.723 77.8855C275.801 77.2095 276.172 76.891 276.88 76.891C277.758 76.891 278.018 77.411 278.018 78.126V78.3795C277.647 78.321 277.257 78.2885 276.835 78.2885C275.073 78.2885 273.838 78.789 273.838 80.141C273.838 81.285 274.625 82.117 276.022 82.117C277.082 82.117 277.855 81.727 278.206 81.0315C278.304 81.779 278.668 82.052 279.623 82.052C279.948 82.052 280.208 82.0325 280.494 81.961V80.544C280.371 80.5635 280.254 80.57 280.143 80.57ZM276.614 80.791C276.035 80.791 275.717 80.5505 275.717 80.076C275.717 79.595 276.146 79.3675 277.075 79.3675C277.407 79.3675 277.706 79.3935 278.018 79.452V80.1475C277.738 80.5505 277.218 80.791 276.614 80.791ZM285.034 75.474C283.961 75.474 283.279 75.994 282.96 76.865L282.947 75.5975H281.4V82H283.142V78.919C283.142 77.697 283.708 77.1055 284.54 77.1055C285.268 77.1055 285.586 77.515 285.586 78.3925V82H287.328V77.905C287.328 76.4555 286.652 75.474 285.034 75.474ZM292.794 75.5975L291.793 79.4325C291.67 79.907 291.559 80.3555 291.455 80.778C291.345 80.336 291.228 79.8615 291.111 79.4195L290.103 75.5975H288.134L290.227 82H290.974L290.922 82.1625C290.643 83.001 289.915 83.209 288.491 82.845L288.192 84.34C290.116 84.8145 291.904 84.4115 292.619 82.1625L294.764 75.5975H292.794ZM301.295 80.4595V73.355C300.086 73.797 298.961 74.0245 297.596 74.0765V75.682C298.266 75.6625 298.825 75.578 299.397 75.4285V80.4595H297.596V82H303.095V80.4595H301.295Z" fill="black"/>
<path d="M143.269 39H145.897V27.3H143.269V39ZM153.198 29.964C151.713 29.964 150.768 30.684 150.327 31.89L150.309 30.135H148.167V39H150.579V34.734C150.579 33.042 151.362 32.223 152.514 32.223C153.522 32.223 153.963 32.79 153.963 34.005V39H156.375V33.33C156.375 31.323 155.439 29.964 153.198 29.964ZM163.808 36.813C163.439 36.939 163.106 37.002 162.692 37.002C161.783 37.002 161.486 36.507 161.486 35.616V32.169H163.997V30.135H161.486V27.372L159.074 27.714V30.135H157.571V32.169H159.074V35.94C159.074 37.956 160.055 39.117 162.233 39.117C162.962 39.117 163.583 39.018 164.186 38.82L163.808 36.813ZM173.474 34.437C173.474 31.71 171.89 29.964 169.289 29.964C166.625 29.964 164.933 31.935 164.933 34.572C164.933 37.263 166.562 39.171 169.361 39.171C171.413 39.171 172.907 38.199 173.312 36.291L171.278 35.976C171.053 36.786 170.432 37.191 169.352 37.191C168.218 37.191 167.516 36.516 167.327 35.229H173.429C173.465 34.923 173.474 34.68 173.474 34.437ZM169.289 31.917C170.297 31.917 170.999 32.511 171.098 33.708H167.345C167.552 32.538 168.254 31.917 169.289 31.917ZM177.116 31.98L177.089 30.135H174.974V38.991H177.368V35.004C177.368 32.979 178.808 32.286 180.374 32.61V30.009C178.736 29.721 177.611 30.567 177.116 31.98ZM189.541 34.437C189.541 31.71 187.957 29.964 185.356 29.964C182.692 29.964 181 31.935 181 34.572C181 37.263 182.629 39.171 185.428 39.171C187.48 39.171 188.974 38.199 189.379 36.291L187.345 35.976C187.12 36.786 186.499 37.191 185.419 37.191C184.285 37.191 183.583 36.516 183.394 35.229H189.496C189.532 34.923 189.541 34.68 189.541 34.437ZM185.356 31.917C186.364 31.917 187.066 32.511 187.165 33.708H183.412C183.619 32.538 184.321 31.917 185.356 31.917ZM194.739 39.171C196.962 39.171 198.357 38.1 198.357 36.426C198.366 34.779 197.25 34.185 194.874 33.663C193.515 33.366 193.173 33.105 193.173 32.592C193.173 32.124 193.524 31.791 194.406 31.791C195.36 31.791 195.954 32.232 196.062 33.294L198.249 33.096C198.132 31.197 197.016 29.964 194.397 29.964C192.39 29.964 190.878 30.936 190.869 32.727C190.86 34.365 191.913 35.058 194.388 35.571C195.558 35.805 196.017 35.976 196.017 36.543C196.017 37.065 195.63 37.344 194.721 37.344C193.686 37.344 192.975 36.957 192.84 35.85L190.563 36.057C190.725 38.235 192.507 39.171 194.739 39.171ZM205.416 36.813C205.047 36.939 204.714 37.002 204.3 37.002C203.391 37.002 203.094 36.507 203.094 35.616V32.169H205.605V30.135H203.094V27.372L200.682 27.714V30.135H199.179V32.169H200.682V35.94C200.682 37.956 201.663 39.117 203.841 39.117C204.57 39.117 205.191 39.018 205.794 38.82L205.416 36.813ZM210.753 39.171C212.976 39.171 214.371 38.1 214.371 36.426C214.38 34.779 213.264 34.185 210.888 33.663C209.529 33.366 209.187 33.105 209.187 32.592C209.187 32.124 209.538 31.791 210.42 31.791C211.374 31.791 211.968 32.232 212.076 33.294L214.263 33.096C214.146 31.197 213.03 29.964 210.411 29.964C208.404 29.964 206.892 30.936 206.883 32.727C206.874 34.365 207.927 35.058 210.402 35.571C211.572 35.805 212.031 35.976 212.031 36.543C212.031 37.065 211.644 37.344 210.735 37.344C209.7 37.344 208.989 36.957 208.854 35.85L206.577 36.057C206.739 38.235 208.521 39.171 210.753 39.171Z" fill="black"/>
<path d="M242.276 98.09C244.009 98.09 245.116 96.8345 245.116 95.075C245.116 93.3155 244.009 92.06 242.276 92.06C240.544 92.06 239.432 93.3155 239.432 95.075C239.432 96.8345 240.544 98.09 242.276 98.09ZM242.276 97.5365C240.908 97.5365 240.08 96.533 240.08 95.075C240.08 93.617 240.908 92.6135 242.276 92.6135C243.64 92.6135 244.468 93.617 244.468 95.075C244.468 96.533 243.64 97.5365 242.276 97.5365ZM248.392 93.5945C247.64 93.5945 247.087 93.986 246.835 94.589L246.848 93.6845H246.272V98H246.862V95.7365C246.862 94.733 247.474 94.1435 248.284 94.1435C249.022 94.1435 249.377 94.5575 249.377 95.4755V98H249.967V95.39C249.967 94.211 249.445 93.5945 248.392 93.5945ZM251.335 98H251.924V91.718H251.335V98ZM253.684 92.7395C253.95 92.7395 254.161 92.5325 254.161 92.2805C254.161 92.0285 253.95 91.835 253.684 91.835C253.441 91.835 253.23 92.0285 253.23 92.2805C253.23 92.5325 253.441 92.7395 253.684 92.7395ZM253.401 98H253.99V93.6845H253.401V98ZM257.594 93.5945C256.843 93.5945 256.289 93.986 256.037 94.589L256.051 93.6845H255.475V98H256.064V95.7365C256.064 94.733 256.676 94.1435 257.486 94.1435C258.224 94.1435 258.58 94.5575 258.58 95.4755V98H259.169V95.39C259.169 94.211 258.647 93.5945 257.594 93.5945ZM264.092 95.7545C264.092 94.463 263.386 93.5945 262.171 93.5945C260.951 93.5945 260.168 94.58 260.168 95.831C260.168 97.109 260.983 98.09 262.238 98.09C263.111 98.09 263.759 97.685 264.011 96.9155L263.548 96.7535C263.341 97.2665 262.936 97.577 262.238 97.577C261.374 97.577 260.83 96.9335 260.762 96.011H264.088C264.092 95.921 264.092 95.8355 264.092 95.7545ZM262.171 94.0985C262.972 94.0985 263.44 94.625 263.503 95.525H260.776C260.866 94.6835 261.365 94.0985 262.171 94.0985Z" fill="#7C7C7C"/>
<g filter="url(#filter3_d)">
<rect x="51" y="194" width="152" height="38" rx="10" fill="#5375FF"/>
</g>
<path d="M93.012 218.14C95.224 218.14 96.617 217.09 97.044 214.92L95.903 214.731C95.525 216.488 94.517 217.125 93.012 217.125C91.031 217.125 89.876 215.662 89.876 213.457C89.876 211.231 91.031 209.775 93.012 209.775C94.503 209.775 95.532 210.433 95.903 212.162L97.044 211.973C96.652 209.803 95.21 208.76 93.012 208.76C90.31 208.76 88.63 210.657 88.63 213.457C88.63 216.243 90.31 218.14 93.012 218.14ZM101.578 218.14C103.65 218.14 104.959 216.642 104.959 214.619C104.959 212.603 103.65 211.105 101.578 211.105C99.499 211.105 98.19 212.603 98.19 214.619C98.19 216.642 99.499 218.14 101.578 218.14ZM101.578 217.125C100.213 217.125 99.331 216.075 99.331 214.619C99.331 213.163 100.213 212.12 101.578 212.12C102.929 212.12 103.818 213.163 103.818 214.619C103.818 216.075 102.929 217.125 101.578 217.125ZM106.482 218H107.623V208.228H106.482V218ZM109.75 218H110.891V208.228H109.75V218ZM118.883 217.111C118.428 217.111 118.323 216.831 118.323 216.439V213.87C118.323 212.911 118.134 211.105 115.572 211.105C114.081 211.105 113.108 211.791 112.786 213.114L113.829 213.373C114.067 212.498 114.564 212.064 115.579 212.064C116.832 212.064 117.217 212.827 117.217 213.863V214.276C116.727 214.213 116.223 214.178 115.768 214.178C113.962 214.178 112.597 214.675 112.597 216.138C112.597 217.377 113.528 218.133 114.921 218.133C116.013 218.133 116.867 217.664 117.308 216.95C117.385 217.685 117.721 218.063 118.617 218.063C118.834 218.063 119.03 218.042 119.254 217.993V217.083C119.121 217.104 119.002 217.111 118.883 217.111ZM115.117 217.181C114.368 217.181 113.829 216.873 113.829 216.11C113.829 215.34 114.536 215.046 115.831 215.046C116.272 215.046 116.727 215.074 117.217 215.13V216.11C116.79 216.782 115.999 217.181 115.117 217.181ZM124.194 211.105C123.067 211.105 122.262 211.553 121.814 212.4V208.228H120.673V218H121.758L121.772 216.705C122.22 217.615 123.025 218.14 124.194 218.14C126.154 218.14 127.26 216.691 127.26 214.612C127.26 212.547 126.154 211.105 124.194 211.105ZM123.998 217.125C122.626 217.125 121.772 216.047 121.772 214.612C121.772 213.177 122.626 212.127 123.998 212.127C125.391 212.127 126.091 213.149 126.091 214.612C126.091 216.075 125.391 217.125 123.998 217.125ZM131.848 218.14C133.92 218.14 135.229 216.642 135.229 214.619C135.229 212.603 133.92 211.105 131.848 211.105C129.769 211.105 128.46 212.603 128.46 214.619C128.46 216.642 129.769 218.14 131.848 218.14ZM131.848 217.125C130.483 217.125 129.601 216.075 129.601 214.619C129.601 213.163 130.483 212.12 131.848 212.12C133.199 212.12 134.088 213.163 134.088 214.619C134.088 216.075 133.199 217.125 131.848 217.125ZM137.843 212.61L137.85 211.245H136.779V218H137.885V214.577C137.885 212.848 139.208 212.05 140.503 212.358L140.531 211.161C139.306 210.895 138.291 211.462 137.843 212.61ZM147.416 217.111C146.961 217.111 146.856 216.831 146.856 216.439V213.87C146.856 212.911 146.667 211.105 144.105 211.105C142.614 211.105 141.641 211.791 141.319 213.114L142.362 213.373C142.6 212.498 143.097 212.064 144.112 212.064C145.365 212.064 145.75 212.827 145.75 213.863V214.276C145.26 214.213 144.756 214.178 144.301 214.178C142.495 214.178 141.13 214.675 141.13 216.138C141.13 217.377 142.061 218.133 143.454 218.133C144.546 218.133 145.4 217.664 145.841 216.95C145.918 217.685 146.254 218.063 147.15 218.063C147.367 218.063 147.563 218.042 147.787 217.993V217.083C147.654 217.104 147.535 217.111 147.416 217.111ZM143.65 217.181C142.901 217.181 142.362 216.873 142.362 216.11C142.362 215.34 143.069 215.046 144.364 215.046C144.805 215.046 145.26 215.074 145.75 215.13V216.11C145.323 216.782 144.532 217.181 143.65 217.181ZM152.906 216.838C152.619 217.006 152.339 217.083 151.968 217.083C151.163 217.083 150.82 216.642 150.82 215.711V212.197H153.053V211.245H150.82V209.068L149.686 209.236V211.245H148.293V212.197H149.686V215.851C149.686 217.384 150.47 218.098 151.807 218.098C152.353 218.098 152.794 217.979 153.207 217.755L152.906 216.838ZM160.235 214.493C160.235 212.463 159.108 211.105 157.19 211.105C155.251 211.105 154.012 212.638 154.012 214.612C154.012 216.628 155.272 218.14 157.295 218.14C158.702 218.14 159.738 217.489 160.109 216.222L159.192 215.963C158.898 216.719 158.31 217.167 157.288 217.167C156.056 217.167 155.286 216.299 155.16 214.976H160.221C160.235 214.808 160.235 214.647 160.235 214.493ZM157.183 212.057C158.324 212.057 159.003 212.792 159.101 214.073H155.167C155.321 212.862 156.049 212.057 157.183 212.057Z" fill="white"/>
<g filter="url(#filter4_d)">
<circle cx="197" cy="194" r="28" fill="#ECECEC"/>
</g>
<path d="M243.544 179.124C245.76 179.124 247.145 177.979 247.333 175.86L245.5 175.613C245.286 177.115 244.525 177.537 243.505 177.537C242.042 177.537 241.347 176.452 241.347 174.775C241.347 173.098 242.042 172.012 243.505 172.012C244.525 172.012 245.292 172.48 245.5 173.936L247.333 173.689C247.171 171.57 245.76 170.426 243.544 170.426C240.898 170.426 239.39 172.194 239.39 174.775C239.39 177.355 240.898 179.124 243.544 179.124ZM251.368 179.124C253.435 179.124 254.644 177.745 254.644 175.795C254.644 173.852 253.435 172.474 251.368 172.474C249.294 172.474 248.085 173.852 248.085 175.795C248.085 177.745 249.294 179.124 251.368 179.124ZM251.368 177.576C250.419 177.576 249.808 176.894 249.808 175.795C249.808 174.703 250.419 174.027 251.368 174.027C252.31 174.027 252.915 174.703 252.915 175.795C252.915 176.894 252.31 177.576 251.368 177.576ZM263.043 172.474C262.068 172.474 261.451 172.929 261.132 173.696C260.859 172.935 260.248 172.474 259.189 172.474C258.181 172.474 257.564 172.955 257.265 173.767L257.252 172.597H255.718V179H257.453V175.899C257.453 174.677 257.921 174.086 258.688 174.086C259.325 174.086 259.585 174.495 259.585 175.36V179H261.314V175.886L261.321 175.899C261.321 174.677 261.789 174.086 262.556 174.086C263.193 174.086 263.453 174.502 263.453 175.36V179H265.182V174.898C265.182 173.468 264.577 172.474 263.043 172.474ZM270.251 172.48C269.23 172.48 268.554 172.903 268.19 173.702L268.164 172.597H266.585V181.451H268.327V178.116C268.71 178.766 269.347 179.124 270.251 179.124C271.973 179.124 273.078 177.804 273.078 175.795C273.078 173.793 271.973 172.48 270.251 172.48ZM269.841 177.583C268.899 177.583 268.268 176.861 268.268 175.795C268.268 174.736 268.899 174.04 269.841 174.04C270.79 174.04 271.323 174.716 271.323 175.795C271.323 176.881 270.79 177.583 269.841 177.583ZM280.143 177.57C279.805 177.57 279.721 177.407 279.721 177.089V175.145C279.721 173.923 279.37 172.474 276.874 172.474C275.268 172.474 274.157 173.241 274.053 174.69L275.723 174.885C275.801 174.209 276.172 173.891 276.88 173.891C277.758 173.891 278.018 174.411 278.018 175.126V175.379C277.647 175.321 277.257 175.288 276.835 175.288C275.073 175.288 273.838 175.789 273.838 177.141C273.838 178.285 274.625 179.117 276.022 179.117C277.082 179.117 277.855 178.727 278.206 178.031C278.304 178.779 278.668 179.052 279.623 179.052C279.948 179.052 280.208 179.033 280.494 178.961V177.544C280.371 177.563 280.254 177.57 280.143 177.57ZM276.614 177.791C276.035 177.791 275.717 177.55 275.717 177.076C275.717 176.595 276.146 176.367 277.075 176.367C277.407 176.367 277.706 176.393 278.018 176.452V177.147C277.738 177.55 277.218 177.791 276.614 177.791ZM285.034 172.474C283.961 172.474 283.279 172.994 282.96 173.865L282.947 172.597H281.4V179H283.142V175.919C283.142 174.697 283.708 174.105 284.54 174.105C285.268 174.105 285.586 174.515 285.586 175.392V179H287.328V174.905C287.328 173.455 286.652 172.474 285.034 172.474ZM292.794 172.597L291.793 176.432C291.67 176.907 291.559 177.355 291.455 177.778C291.345 177.336 291.228 176.861 291.111 176.419L290.103 172.597H288.134L290.227 179H290.974L290.922 179.163C290.643 180.001 289.915 180.209 288.491 179.845L288.192 181.34C290.116 181.815 291.904 181.412 292.619 179.163L294.764 172.597H292.794ZM300.034 177.459L301.626 176.445C303.069 175.561 303.953 174.515 303.953 172.961C303.953 171.538 303.069 170.426 301.002 170.426C298.838 170.426 297.629 171.629 297.889 173.696L299.663 174.021C299.566 172.812 299.832 172.077 300.885 172.077C301.639 172.077 301.971 172.435 301.971 173.059C301.971 174.053 301.126 174.827 300.3 175.47L297.798 177.427L297.895 179H304.174V177.459H300.034Z" fill="black"/>
<path d="M242.276 195.09C244.009 195.09 245.116 193.834 245.116 192.075C245.116 190.315 244.009 189.06 242.276 189.06C240.544 189.06 239.432 190.315 239.432 192.075C239.432 193.834 240.544 195.09 242.276 195.09ZM242.276 194.536C240.908 194.536 240.08 193.533 240.08 192.075C240.08 190.617 240.908 189.613 242.276 189.613C243.64 189.613 244.468 190.617 244.468 192.075C244.468 193.533 243.64 194.536 242.276 194.536ZM248.392 190.594C247.64 190.594 247.087 190.986 246.835 191.589L246.848 190.684H246.272V195H246.862V192.736C246.862 191.733 247.474 191.143 248.284 191.143C249.022 191.143 249.377 191.557 249.377 192.475V195H249.967V192.39C249.967 191.211 249.445 190.594 248.392 190.594ZM251.335 195H251.924V188.718H251.335V195ZM253.684 189.739C253.95 189.739 254.161 189.532 254.161 189.28C254.161 189.028 253.95 188.835 253.684 188.835C253.441 188.835 253.23 189.028 253.23 189.28C253.23 189.532 253.441 189.739 253.684 189.739ZM253.401 195H253.99V190.684H253.401V195ZM257.594 190.594C256.843 190.594 256.289 190.986 256.037 191.589L256.051 190.684H255.475V195H256.064V192.736C256.064 191.733 256.676 191.143 257.486 191.143C258.224 191.143 258.58 191.557 258.58 192.475V195H259.169V192.39C259.169 191.211 258.647 190.594 257.594 190.594ZM264.092 192.754C264.092 191.463 263.386 190.594 262.171 190.594C260.951 190.594 260.168 191.58 260.168 192.831C260.168 194.109 260.983 195.09 262.238 195.09C263.111 195.09 263.759 194.685 264.011 193.915L263.548 193.753C263.341 194.266 262.936 194.577 262.238 194.577C261.374 194.577 260.83 193.933 260.762 193.011H264.088C264.092 192.921 264.092 192.835 264.092 192.754ZM262.171 191.098C262.972 191.098 263.44 191.625 263.503 192.525H260.776C260.866 191.683 261.365 191.098 262.171 191.098Z" fill="#7C7C7C"/>
<g filter="url(#filter5_d)">
<rect x="51" y="299" width="152" height="38" rx="10" fill="#5375FF"/>
</g>
<path d="M93.012 323.14C95.224 323.14 96.617 322.09 97.044 319.92L95.903 319.731C95.525 321.488 94.517 322.125 93.012 322.125C91.031 322.125 89.876 320.662 89.876 318.457C89.876 316.231 91.031 314.775 93.012 314.775C94.503 314.775 95.532 315.433 95.903 317.162L97.044 316.973C96.652 314.803 95.21 313.76 93.012 313.76C90.31 313.76 88.63 315.657 88.63 318.457C88.63 321.243 90.31 323.14 93.012 323.14ZM101.578 323.14C103.65 323.14 104.959 321.642 104.959 319.619C104.959 317.603 103.65 316.105 101.578 316.105C99.499 316.105 98.19 317.603 98.19 319.619C98.19 321.642 99.499 323.14 101.578 323.14ZM101.578 322.125C100.213 322.125 99.331 321.075 99.331 319.619C99.331 318.163 100.213 317.12 101.578 317.12C102.929 317.12 103.818 318.163 103.818 319.619C103.818 321.075 102.929 322.125 101.578 322.125ZM106.482 323H107.623V313.228H106.482V323ZM109.75 323H110.891V313.228H109.75V323ZM118.883 322.111C118.428 322.111 118.323 321.831 118.323 321.439V318.87C118.323 317.911 118.134 316.105 115.572 316.105C114.081 316.105 113.108 316.791 112.786 318.114L113.829 318.373C114.067 317.498 114.564 317.064 115.579 317.064C116.832 317.064 117.217 317.827 117.217 318.863V319.276C116.727 319.213 116.223 319.178 115.768 319.178C113.962 319.178 112.597 319.675 112.597 321.138C112.597 322.377 113.528 323.133 114.921 323.133C116.013 323.133 116.867 322.664 117.308 321.95C117.385 322.685 117.721 323.063 118.617 323.063C118.834 323.063 119.03 323.042 119.254 322.993V322.083C119.121 322.104 119.002 322.111 118.883 322.111ZM115.117 322.181C114.368 322.181 113.829 321.873 113.829 321.11C113.829 320.34 114.536 320.046 115.831 320.046C116.272 320.046 116.727 320.074 117.217 320.13V321.11C116.79 321.782 115.999 322.181 115.117 322.181ZM124.194 316.105C123.067 316.105 122.262 316.553 121.814 317.4V313.228H120.673V323H121.758L121.772 321.705C122.22 322.615 123.025 323.14 124.194 323.14C126.154 323.14 127.26 321.691 127.26 319.612C127.26 317.547 126.154 316.105 124.194 316.105ZM123.998 322.125C122.626 322.125 121.772 321.047 121.772 319.612C121.772 318.177 122.626 317.127 123.998 317.127C125.391 317.127 126.091 318.149 126.091 319.612C126.091 321.075 125.391 322.125 123.998 322.125ZM131.848 323.14C133.92 323.14 135.229 321.642 135.229 319.619C135.229 317.603 133.92 316.105 131.848 316.105C129.769 316.105 128.46 317.603 128.46 319.619C128.46 321.642 129.769 323.14 131.848 323.14ZM131.848 322.125C130.483 322.125 129.601 321.075 129.601 319.619C129.601 318.163 130.483 317.12 131.848 317.12C133.199 317.12 134.088 318.163 134.088 319.619C134.088 321.075 133.199 322.125 131.848 322.125ZM137.843 317.61L137.85 316.245H136.779V323H137.885V319.577C137.885 317.848 139.208 317.05 140.503 317.358L140.531 316.161C139.306 315.895 138.291 316.462 137.843 317.61ZM147.416 322.111C146.961 322.111 146.856 321.831 146.856 321.439V318.87C146.856 317.911 146.667 316.105 144.105 316.105C142.614 316.105 141.641 316.791 141.319 318.114L142.362 318.373C142.6 317.498 143.097 317.064 144.112 317.064C145.365 317.064 145.75 317.827 145.75 318.863V319.276C145.26 319.213 144.756 319.178 144.301 319.178C142.495 319.178 141.13 319.675 141.13 321.138C141.13 322.377 142.061 323.133 143.454 323.133C144.546 323.133 145.4 322.664 145.841 321.95C145.918 322.685 146.254 323.063 147.15 323.063C147.367 323.063 147.563 323.042 147.787 322.993V322.083C147.654 322.104 147.535 322.111 147.416 322.111ZM143.65 322.181C142.901 322.181 142.362 321.873 142.362 321.11C142.362 320.34 143.069 320.046 144.364 320.046C144.805 320.046 145.26 320.074 145.75 320.13V321.11C145.323 321.782 144.532 322.181 143.65 322.181ZM152.906 321.838C152.619 322.006 152.339 322.083 151.968 322.083C151.163 322.083 150.82 321.642 150.82 320.711V317.197H153.053V316.245H150.82V314.068L149.686 314.236V316.245H148.293V317.197H149.686V320.851C149.686 322.384 150.47 323.098 151.807 323.098C152.353 323.098 152.794 322.979 153.207 322.755L152.906 321.838ZM160.235 319.493C160.235 317.463 159.108 316.105 157.19 316.105C155.251 316.105 154.012 317.638 154.012 319.612C154.012 321.628 155.272 323.14 157.295 323.14C158.702 323.14 159.738 322.489 160.109 321.222L159.192 320.963C158.898 321.719 158.31 322.167 157.288 322.167C156.056 322.167 155.286 321.299 155.16 319.976H160.221C160.235 319.808 160.235 319.647 160.235 319.493ZM157.183 317.057C158.324 317.057 159.003 317.792 159.101 319.073H155.167C155.321 317.862 156.049 317.057 157.183 317.057Z" fill="white"/>
<g filter="url(#filter6_d)">
<circle cx="197" cy="299" r="28" fill="#ECECEC"/>
</g>
<path d="M243.544 284.124C245.76 284.124 247.145 282.979 247.333 280.86L245.5 280.613C245.286 282.115 244.525 282.537 243.505 282.537C242.042 282.537 241.347 281.452 241.347 279.775C241.347 278.098 242.042 277.012 243.505 277.012C244.525 277.012 245.292 277.48 245.5 278.936L247.333 278.689C247.171 276.57 245.76 275.426 243.544 275.426C240.898 275.426 239.39 277.194 239.39 279.775C239.39 282.355 240.898 284.124 243.544 284.124ZM251.368 284.124C253.435 284.124 254.644 282.745 254.644 280.795C254.644 278.852 253.435 277.474 251.368 277.474C249.294 277.474 248.085 278.852 248.085 280.795C248.085 282.745 249.294 284.124 251.368 284.124ZM251.368 282.576C250.419 282.576 249.808 281.894 249.808 280.795C249.808 279.703 250.419 279.027 251.368 279.027C252.31 279.027 252.915 279.703 252.915 280.795C252.915 281.894 252.31 282.576 251.368 282.576ZM263.043 277.474C262.068 277.474 261.451 277.929 261.132 278.696C260.859 277.935 260.248 277.474 259.189 277.474C258.181 277.474 257.564 277.955 257.265 278.767L257.252 277.597H255.718V284H257.453V280.899C257.453 279.677 257.921 279.086 258.688 279.086C259.325 279.086 259.585 279.495 259.585 280.36V284H261.314V280.886L261.321 280.899C261.321 279.677 261.789 279.086 262.556 279.086C263.193 279.086 263.453 279.502 263.453 280.36V284H265.182V279.898C265.182 278.468 264.577 277.474 263.043 277.474ZM270.251 277.48C269.23 277.48 268.554 277.903 268.19 278.702L268.164 277.597H266.585V286.451H268.327V283.116C268.71 283.766 269.347 284.124 270.251 284.124C271.973 284.124 273.078 282.804 273.078 280.795C273.078 278.793 271.973 277.48 270.251 277.48ZM269.841 282.583C268.899 282.583 268.268 281.861 268.268 280.795C268.268 279.736 268.899 279.04 269.841 279.04C270.79 279.04 271.323 279.716 271.323 280.795C271.323 281.881 270.79 282.583 269.841 282.583ZM280.143 282.57C279.805 282.57 279.721 282.407 279.721 282.089V280.145C279.721 278.923 279.37 277.474 276.874 277.474C275.268 277.474 274.157 278.241 274.053 279.69L275.723 279.885C275.801 279.209 276.172 278.891 276.88 278.891C277.758 278.891 278.018 279.411 278.018 280.126V280.379C277.647 280.321 277.257 280.288 276.835 280.288C275.073 280.288 273.838 280.789 273.838 282.141C273.838 283.285 274.625 284.117 276.022 284.117C277.082 284.117 277.855 283.727 278.206 283.031C278.304 283.779 278.668 284.052 279.623 284.052C279.948 284.052 280.208 284.033 280.494 283.961V282.544C280.371 282.563 280.254 282.57 280.143 282.57ZM276.614 282.791C276.035 282.791 275.717 282.55 275.717 282.076C275.717 281.595 276.146 281.367 277.075 281.367C277.407 281.367 277.706 281.393 278.018 281.452V282.147C277.738 282.55 277.218 282.791 276.614 282.791ZM285.034 277.474C283.961 277.474 283.279 277.994 282.96 278.865L282.947 277.597H281.4V284H283.142V280.919C283.142 279.697 283.708 279.105 284.54 279.105C285.268 279.105 285.586 279.515 285.586 280.392V284H287.328V279.905C287.328 278.455 286.652 277.474 285.034 277.474ZM292.794 277.597L291.793 281.432C291.67 281.907 291.559 282.355 291.455 282.778C291.345 282.336 291.228 281.861 291.111 281.419L290.103 277.597H288.134L290.227 284H290.974L290.922 284.163C290.643 285.001 289.915 285.209 288.491 284.845L288.192 286.34C290.116 286.815 291.904 286.412 292.619 284.163L294.764 277.597H292.794ZM301.893 278.91L303.765 277.123V275.55H297.928V277.123H301.756L299.592 279.183L300.047 280.262C300.32 280.158 300.593 280.119 300.859 280.119C301.639 280.119 302.153 280.542 302.153 281.27C302.153 282.115 301.574 282.537 300.814 282.537C300.073 282.537 299.442 282.063 299.325 280.958L297.525 281.257C297.713 283.181 298.896 284.124 300.762 284.124C302.803 284.124 304.07 282.973 304.07 281.276C304.07 280.054 303.297 279.099 301.893 278.91Z" fill="black"/>
<path d="M242.276 300.09C244.009 300.09 245.116 298.834 245.116 297.075C245.116 295.315 244.009 294.06 242.276 294.06C240.544 294.06 239.432 295.315 239.432 297.075C239.432 298.834 240.544 300.09 242.276 300.09ZM242.276 299.536C240.908 299.536 240.08 298.533 240.08 297.075C240.08 295.617 240.908 294.613 242.276 294.613C243.64 294.613 244.468 295.617 244.468 297.075C244.468 298.533 243.64 299.536 242.276 299.536ZM248.392 295.594C247.64 295.594 247.087 295.986 246.835 296.589L246.848 295.684H246.272V300H246.862V297.736C246.862 296.733 247.474 296.143 248.284 296.143C249.022 296.143 249.377 296.557 249.377 297.475V300H249.967V297.39C249.967 296.211 249.445 295.594 248.392 295.594ZM251.335 300H251.924V293.718H251.335V300ZM253.684 294.739C253.95 294.739 254.161 294.532 254.161 294.28C254.161 294.028 253.95 293.835 253.684 293.835C253.441 293.835 253.23 294.028 253.23 294.28C253.23 294.532 253.441 294.739 253.684 294.739ZM253.401 300H253.99V295.684H253.401V300ZM257.594 295.594C256.843 295.594 256.289 295.986 256.037 296.589L256.051 295.684H255.475V300H256.064V297.736C256.064 296.733 256.676 296.143 257.486 296.143C258.224 296.143 258.58 296.557 258.58 297.475V300H259.169V297.39C259.169 296.211 258.647 295.594 257.594 295.594ZM264.092 297.754C264.092 296.463 263.386 295.594 262.171 295.594C260.951 295.594 260.168 296.58 260.168 297.831C260.168 299.109 260.983 300.09 262.238 300.09C263.111 300.09 263.759 299.685 264.011 298.915L263.548 298.753C263.341 299.266 262.936 299.577 262.238 299.577C261.374 299.577 260.83 298.933 260.762 298.011H264.088C264.092 297.921 264.092 297.835 264.092 297.754ZM262.171 296.098C262.972 296.098 263.44 296.625 263.503 297.525H260.776C260.866 296.683 261.365 296.098 262.171 296.098Z" fill="#7C7C7C"/>
<defs>
<filter id="filter0_d" x="0" y="0" width="374" height="399" filterUnits="userSpaceOnUse" color-interpolation-filters="sRGB">
<feFlood flood-opacity="0" result="BackgroundImageFix"/>
<feColorMatrix in="SourceAlpha" type="matrix" values="0 0 0 0 0 0 0 0 0 0 0 0 0 0 0 0 0 0 127 0"/>
<feOffset dy="4"/>
<feGaussianBlur stdDeviation="2"/>
<feColorMatrix type="matrix" values="0 0 0 0 0 0 0 0 0 0 0 0 0 0 0 0 0 0 0.25 0"/>
<feBlend mode="normal" in2="BackgroundImageFix" result="effect1_dropShadow"/>
<feBlend mode="normal" in="SourceGraphic" in2="effect1_dropShadow" result="shape"/>
</filter>
<filter id="filter1_d" x="47" y="97" width="160" height="46" filterUnits="userSpaceOnUse" color-interpolation-filters="sRGB">
<feFlood flood-opacity="0" result="BackgroundImageFix"/>
<feColorMatrix in="SourceAlpha" type="matrix" values="0 0 0 0 0 0 0 0 0 0 0 0 0 0 0 0 0 0 127 0"/>
<feOffset dy="4"/>
<feGaussianBlur stdDeviation="2"/>
<feColorMatrix type="matrix" values="0 0 0 0 0 0 0 0 0 0 0 0 0 0 0 0 0 0 0.25 0"/>
<feBlend mode="normal" in2="BackgroundImageFix" result="effect1_dropShadow"/>
<feBlend mode="normal" in="SourceGraphic" in2="effect1_dropShadow" result="shape"/>
</filter>
<filter id="filter2_d" x="165" y="69" width="64" height="64" filterUnits="userSpaceOnUse" color-interpolation-filters="sRGB">
<feFlood flood-opacity="0" result="BackgroundImageFix"/>
<feColorMatrix in="SourceAlpha" type="matrix" values="0 0 0 0 0 0 0 0 0 0 0 0 0 0 0 0 0 0 127 0"/>
<feOffset dy="4"/>
<feGaussianBlur stdDeviation="2"/>
<feColorMatrix type="matrix" values="0 0 0 0 0 0 0 0 0 0 0 0 0 0 0 0 0 0 0.25 0"/>
<feBlend mode="normal" in2="BackgroundImageFix" result="effect1_dropShadow"/>
<feBlend mode="normal" in="SourceGraphic" in2="effect1_dropShadow" result="shape"/>
</filter>
<filter id="filter3_d" x="47" y="194" width="160" height="46" filterUnits="userSpaceOnUse" color-interpolation-filters="sRGB">
<feFlood flood-opacity="0" result="BackgroundImageFix"/>
<feColorMatrix in="SourceAlpha" type="matrix" values="0 0 0 0 0 0 0 0 0 0 0 0 0 0 0 0 0 0 127 0"/>
<feOffset dy="4"/>
<feGaussianBlur stdDeviation="2"/>
<feColorMatrix type="matrix" values="0 0 0 0 0 0 0 0 0 0 0 0 0 0 0 0 0 0 0.25 0"/>
<feBlend mode="normal" in2="BackgroundImageFix" result="effect1_dropShadow"/>
<feBlend mode="normal" in="SourceGraphic" in2="effect1_dropShadow" result="shape"/>
</filter>
<filter id="filter4_d" x="165" y="166" width="64" height="64" filterUnits="userSpaceOnUse" color-interpolation-filters="sRGB">
<feFlood flood-opacity="0" result="BackgroundImageFix"/>
<feColorMatrix in="SourceAlpha" type="matrix" values="0 0 0 0 0 0 0 0 0 0 0 0 0 0 0 0 0 0 127 0"/>
<feOffset dy="4"/>
<feGaussianBlur stdDeviation="2"/>
<feColorMatrix type="matrix" values="0 0 0 0 0 0 0 0 0 0 0 0 0 0 0 0 0 0 0.25 0"/>
<feBlend mode="normal" in2="BackgroundImageFix" result="effect1_dropShadow"/>
<feBlend mode="normal" in="SourceGraphic" in2="effect1_dropShadow" result="shape"/>
</filter>
<filter id="filter5_d" x="47" y="299" width="160" height="46" filterUnits="userSpaceOnUse" color-interpolation-filters="sRGB">
<feFlood flood-opacity="0" result="BackgroundImageFix"/>
<feColorMatrix in="SourceAlpha" type="matrix" values="0 0 0 0 0 0 0 0 0 0 0 0 0 0 0 0 0 0 127 0"/>
<feOffset dy="4"/>
<feGaussianBlur stdDeviation="2"/>
<feColorMatrix type="matrix" values="0 0 0 0 0 0 0 0 0 0 0 0 0 0 0 0 0 0 0.25 0"/>
<feBlend mode="normal" in2="BackgroundImageFix" result="effect1_dropShadow"/>
<feBlend mode="normal" in="SourceGraphic" in2="effect1_dropShadow" result="shape"/>
</filter>
<filter id="filter6_d" x="165" y="271" width="64" height="64" filterUnits="userSpaceOnUse" color-interpolation-filters="sRGB">
<feFlood flood-opacity="0" result="BackgroundImageFix"/>
<feColorMatrix in="SourceAlpha" type="matrix" values="0 0 0 0 0 0 0 0 0 0 0 0 0 0 0 0 0 0 127 0"/>
<feOffset dy="4"/>
<feGaussianBlur stdDeviation="2"/>
<feColorMatrix type="matrix" values="0 0 0 0 0 0 0 0 0 0 0 0 0 0 0 0 0 0 0.25 0"/>
<feBlend mode="normal" in2="BackgroundImageFix" result="effect1_dropShadow"/>
<feBlend mode="normal" in="SourceGraphic" in2="effect1_dropShadow" result="shape"/>
</filter>
</defs>
</svg>
