<svg width="529" height="344" viewBox="0 0 529 344" fill="none" xmlns="http://www.w3.org/2000/svg">
<g filter="url(#filter0_d)">
<rect x="4" width="521" height="336" rx="42" fill="white"/>
</g>
<rect x="41" y="240" width="449" height="47" rx="8" fill="#EAEDF2"/>
<path d="M105.095 262.636C104.062 262.636 103.288 263.15 102.898 263.949V259.926H102.047V269H102.898V265.73C102.898 264.281 103.782 263.429 104.952 263.429C106.018 263.429 106.532 264.027 106.532 265.353V269H107.383V265.23C107.383 263.527 106.629 262.636 105.095 262.636ZM112.811 268.07C112.551 268.246 112.284 268.33 111.933 268.33C111.16 268.33 110.809 267.908 110.809 266.972V263.488H112.954V262.766H110.809V260.738L109.964 260.855V262.766H108.618V263.488H109.964V267.069C109.964 268.486 110.692 269.098 111.836 269.098C112.336 269.098 112.733 268.974 113.097 268.74L112.811 268.07ZM117.901 268.07C117.641 268.246 117.375 268.33 117.024 268.33C116.25 268.33 115.899 267.908 115.899 266.972V263.488H118.044V262.766H115.899V260.738L115.054 260.855V262.766H113.709V263.488H115.054V267.069C115.054 268.486 115.782 269.098 116.926 269.098C117.427 269.098 117.823 268.974 118.187 268.74L117.901 268.07ZM122.68 262.636C121.556 262.636 120.776 263.13 120.373 264.008L120.36 262.766H119.541V271.561H120.392V267.758C120.808 268.616 121.575 269.13 122.68 269.13C124.539 269.13 125.547 267.778 125.547 265.873C125.547 263.982 124.539 262.636 122.68 262.636ZM122.576 268.369C121.211 268.369 120.366 267.29 120.366 265.873C120.366 264.463 121.211 263.403 122.576 263.403C123.974 263.403 124.663 264.437 124.663 265.873C124.663 267.316 123.974 268.369 122.576 268.369ZM129.382 269.13C130.871 269.13 131.651 268.421 131.651 267.336C131.651 266.101 130.702 265.834 129.376 265.542C128.362 265.314 127.738 265.132 127.738 264.378C127.738 263.761 128.18 263.338 129.142 263.338C130.097 263.338 130.773 263.813 130.825 264.833L131.586 264.716C131.566 263.468 130.721 262.636 129.135 262.636C127.764 262.636 126.906 263.338 126.899 264.443C126.899 265.62 127.861 265.99 129.207 266.276C130.162 266.478 130.799 266.627 130.799 267.414C130.799 268.109 130.279 268.428 129.356 268.428C128.297 268.428 127.53 268.031 127.478 266.907L126.685 267.024C126.776 268.486 127.822 269.13 129.382 269.13ZM134.035 264.203C134.438 264.203 134.776 263.871 134.776 263.468C134.776 263.065 134.438 262.734 134.035 262.734C133.626 262.734 133.288 263.065 133.288 263.468C133.288 263.871 133.626 264.203 134.035 264.203ZM134.035 269.13C134.438 269.13 134.776 268.798 134.776 268.395C134.776 267.999 134.438 267.667 134.035 267.667C133.626 267.667 133.288 267.999 133.288 268.395C133.288 268.798 133.626 269.13 134.035 269.13ZM136.384 270.053H137.151L139.569 259.796H138.802L136.384 270.053ZM140.866 270.053H141.633L144.051 259.796H143.284L140.866 270.053ZM152.575 262.636C151.496 262.636 150.794 263.156 150.456 263.975C150.209 263.098 149.618 262.636 148.591 262.636C147.544 262.636 146.881 263.117 146.543 263.884L146.556 262.766H145.744V269H146.589V265.711C146.589 264.255 147.265 263.41 148.441 263.41C149.436 263.41 149.761 264.014 149.761 265.321V269H150.599V265.711C150.599 264.255 151.269 263.41 152.445 263.41C153.446 263.41 153.771 264.034 153.771 265.321V269H154.61V265.23C154.61 263.566 154.025 262.636 152.575 262.636ZM160.797 262.766L159.432 266.543C159.224 267.128 159.029 267.7 158.841 268.278C158.633 267.693 158.425 267.128 158.21 266.536L156.845 262.766H155.883L158.282 269.033H158.451L158.295 269.462C157.905 270.541 157.183 270.859 156.065 270.729L155.987 271.535C157.534 271.711 158.574 271.158 159.14 269.611L161.759 262.766H160.797ZM170.436 262.766L169.448 266.4C169.272 267.05 169.123 267.674 168.96 268.343C168.791 267.648 168.622 267.017 168.44 266.393L167.361 262.773H166.393L165.307 266.393C165.125 267.017 164.956 267.648 164.787 268.343C164.625 267.674 164.475 267.05 164.306 266.4L163.318 262.766H162.434L164.222 269H165.301L166.49 265.067C166.633 264.593 166.744 264.125 166.874 263.631C167.004 264.125 167.121 264.593 167.264 265.067L168.447 269H169.526L171.313 262.766H170.436ZM177.844 265.756C177.844 263.891 176.823 262.636 175.068 262.636C173.307 262.636 172.176 264.06 172.176 265.867C172.176 267.713 173.352 269.13 175.166 269.13C176.427 269.13 177.363 268.545 177.727 267.433L177.057 267.199C176.758 267.94 176.173 268.389 175.166 268.389C173.918 268.389 173.131 267.459 173.034 266.127H177.837C177.844 265.997 177.844 265.873 177.844 265.756ZM175.068 263.364C176.225 263.364 176.901 264.125 176.992 265.425H173.053C173.183 264.209 173.905 263.364 175.068 263.364ZM182.577 262.636C181.478 262.636 180.698 263.104 180.289 263.956V259.926H179.437V269H180.256L180.269 267.706C180.672 268.597 181.452 269.13 182.577 269.13C184.436 269.13 185.443 267.778 185.443 265.873C185.443 263.982 184.436 262.636 182.577 262.636ZM182.473 268.369C181.108 268.369 180.263 267.29 180.263 265.873C180.263 264.463 181.108 263.403 182.473 263.403C183.87 263.403 184.559 264.437 184.559 265.873C184.559 267.316 183.87 268.369 182.473 268.369ZM189.279 269.13C190.767 269.13 191.547 268.421 191.547 267.336C191.547 266.101 190.598 265.834 189.272 265.542C188.258 265.314 187.634 265.132 187.634 264.378C187.634 263.761 188.076 263.338 189.038 263.338C189.994 263.338 190.67 263.813 190.722 264.833L191.482 264.716C191.463 263.468 190.618 262.636 189.032 262.636C187.66 262.636 186.802 263.338 186.796 264.443C186.796 265.62 187.758 265.99 189.103 266.276C190.059 266.478 190.696 266.627 190.696 267.414C190.696 268.109 190.176 268.428 189.253 268.428C188.193 268.428 187.426 268.031 187.374 266.907L186.581 267.024C186.672 268.486 187.719 269.13 189.279 269.13ZM196.324 262.636C195.29 262.636 194.517 263.15 194.127 263.949V259.926H193.275V269H194.127V265.73C194.127 264.281 195.011 263.429 196.181 263.429C197.247 263.429 197.76 264.027 197.76 265.353V269H198.612V265.23C198.612 263.527 197.858 262.636 196.324 262.636ZM203.155 269.13C205.034 269.13 206.249 267.732 206.249 265.88C206.249 264.027 205.034 262.636 203.155 262.636C201.277 262.636 200.055 264.027 200.055 265.88C200.055 267.732 201.277 269.13 203.155 269.13ZM203.155 268.369C201.797 268.369 200.919 267.31 200.919 265.88C200.919 264.45 201.797 263.397 203.155 263.397C204.507 263.397 205.385 264.45 205.385 265.88C205.385 267.31 204.507 268.369 203.155 268.369ZM210.951 262.636C209.826 262.636 209.046 263.13 208.643 264.008L208.63 262.766H207.811V271.561H208.663V267.758C209.079 268.616 209.846 269.13 210.951 269.13C212.81 269.13 213.817 267.778 213.817 265.873C213.817 263.982 212.81 262.636 210.951 262.636ZM210.847 268.369C209.482 268.369 208.637 267.29 208.637 265.873C208.637 264.463 209.482 263.403 210.847 263.403C212.244 263.403 212.933 264.437 212.933 265.873C212.933 267.316 212.244 268.369 210.847 268.369ZM216.034 269.13C216.437 269.13 216.775 268.798 216.775 268.395C216.775 267.999 216.437 267.667 216.034 267.667C215.625 267.667 215.287 267.999 215.287 268.395C215.287 268.798 215.625 269.13 216.034 269.13ZM221.263 269.13C222.628 269.13 223.655 268.473 223.967 267.076L223.213 266.92C222.946 267.836 222.342 268.376 221.269 268.376C219.878 268.376 219.111 267.297 219.111 265.88C219.111 264.469 219.878 263.39 221.269 263.39C222.342 263.39 222.946 263.93 223.213 264.846L223.967 264.69C223.655 263.293 222.628 262.636 221.263 262.636C219.397 262.636 218.247 264.047 218.247 265.88C218.247 267.713 219.397 269.13 221.263 269.13ZM228.406 269.13C230.284 269.13 231.5 267.732 231.5 265.88C231.5 264.027 230.284 262.636 228.406 262.636C226.527 262.636 225.305 264.027 225.305 265.88C225.305 267.732 226.527 269.13 228.406 269.13ZM228.406 268.369C227.047 268.369 226.17 267.31 226.17 265.88C226.17 264.45 227.047 263.397 228.406 263.397C229.758 263.397 230.635 264.45 230.635 265.88C230.635 267.31 229.758 268.369 228.406 268.369ZM239.894 262.636C238.815 262.636 238.113 263.156 237.775 263.975C237.528 263.098 236.936 262.636 235.909 262.636C234.863 262.636 234.2 263.117 233.862 263.884L233.875 262.766H233.062V269H233.907V265.711C233.907 264.255 234.583 263.41 235.76 263.41C236.754 263.41 237.079 264.014 237.079 265.321V269H237.918V265.711C237.918 264.255 238.587 263.41 239.764 263.41C240.765 263.41 241.09 264.034 241.09 265.321V269H241.928V265.23C241.928 263.566 241.343 262.636 239.894 262.636Z" fill="#4F4F4F"/>
<path d="M57.9 265C57.9 263.29 59.29 261.9 61 261.9H65V260H61C58.24 260 56 262.24 56 265C56 267.76 58.24 270 61 270H65V268.1H61C59.29 268.1 57.9 266.71 57.9 265ZM62 266H70V264H62V266ZM71 260H67V261.9H71C72.71 261.9 74.1 263.29 74.1 265C74.1 266.71 72.71 268.1 71 268.1H67V270H71C73.76 270 76 267.76 76 265C76 262.24 73.76 260 71 260Z" fill="#707070"/>
<path d="M88 62.3869V54.6131L81.6268 53.3582C81.2813 52.2043 80.816 51.0881 80.2426 50.0259L83.7982 44.6914L78.3062 39.2018L72.9741 42.7573C71.9119 42.1839 70.7956 41.721 69.6418 41.3708L68.3869 35H60.6131L59.3582 41.3732C58.2043 41.7186 57.0881 42.1839 56.0259 42.7573L50.6914 39.2018L45.2018 44.6937L48.7573 50.0259C48.1839 51.0881 47.721 52.2043 47.3708 53.3582L41 54.6131V62.3869L47.3732 63.6418C47.7186 64.7956 48.1839 65.9119 48.7573 66.9741L45.2018 72.3086L50.6937 77.7982L56.0259 74.2426C57.0881 74.816 58.2043 75.2813 59.3582 75.6291L60.6131 82H68.3869L69.6418 75.6268C70.7956 75.2813 71.9119 74.816 72.9741 74.2426L78.3086 77.7982L83.7982 72.3062L80.2426 66.9741C80.816 65.9119 81.2813 64.7956 81.6291 63.6418L88 62.3869ZM80.2544 71.9561L77.9561 74.2544L73.0658 70.9926C70.5842 72.4966 69.7617 72.7833 67.273 73.399L66.1215 79.2458H62.8785L61.727 73.399C58.8952 72.6987 58.1127 72.3133 55.9342 70.9926L51.0462 74.2544L48.7456 71.9561L52.0074 67.0658C50.4916 64.563 50.212 63.7405 49.601 61.273L43.7542 60.1215V56.8785L49.601 55.727C50.2026 53.2924 50.4775 52.4558 52.0074 49.9342L48.7456 45.0462L51.0439 42.7456L55.9342 46.0074C58.437 44.4893 59.2642 44.2097 61.727 43.601L62.8785 37.7542H66.1215L67.273 43.601C70.1094 44.3013 70.892 44.689 73.0658 46.0074L77.9538 42.7456L80.2544 45.0439L76.9926 49.9342C78.4966 52.4111 78.7833 53.2336 79.399 55.727L85.2458 56.8785V60.1215L79.399 61.273C78.6987 64.1094 78.3133 64.8897 76.9926 67.0658L80.2544 71.9538V71.9561Z" fill="#5375FF"/>
<path d="M64.5001 48.8613C59.1844 48.8613 54.8604 53.1853 54.8604 58.501C54.8604 63.8167 59.1844 68.1407 64.5001 68.1407C69.8158 68.1407 74.1398 63.8167 74.1398 58.501C74.1398 53.1853 69.8158 48.8613 64.5001 48.8613ZM64.5001 65.3865C60.7048 65.3865 57.6146 62.2963 57.6146 58.501C57.6146 54.7058 60.7048 51.6155 64.5001 51.6155C68.2953 51.6155 71.3856 54.7058 71.3856 58.501C71.3856 62.2963 68.2953 65.3865 64.5001 65.3865Z" fill="#5375FF"/>
<path d="M351.169 66.3L348.262 74.112C348.001 74.841 347.794 75.453 347.596 76.119C347.38 75.435 347.146 74.751 346.921 74.112L344.005 66.3H341.629V78H343.096V70.152C343.096 69.378 343.087 68.658 343.087 67.884C343.33 68.685 343.582 69.441 343.897 70.251L346.885 78H348.289L351.277 70.251C351.583 69.459 351.844 68.712 352.087 67.893C352.087 68.694 352.078 69.396 352.078 70.152V78H353.545V66.3H351.169ZM362.298 69.315L360.525 74.544C360.264 75.336 360.021 76.092 359.787 76.848C359.526 76.092 359.265 75.318 359.004 74.544L357.231 69.315H355.575L358.788 78.018H359.202L359.013 78.567C358.509 79.98 357.483 80.34 355.89 80.106L355.701 81.447C357.96 81.789 359.652 81.069 360.48 78.702L363.954 69.315H362.298ZM373.967 69.144C372.473 69.144 371.42 69.756 370.853 70.917L370.835 69.315H369.44V81.51H370.907V76.434C371.492 77.55 372.509 78.18 373.967 78.18C376.487 78.18 377.909 76.317 377.909 73.644C377.909 70.989 376.487 69.144 373.967 69.144ZM373.715 76.875C371.951 76.875 370.853 75.489 370.853 73.644C370.853 71.808 371.951 70.458 373.715 70.458C375.506 70.458 376.406 71.772 376.406 73.644C376.406 75.525 375.506 76.875 373.715 76.875ZM381.267 71.07L381.276 69.315H379.899V78H381.321V73.599C381.321 71.376 383.022 70.35 384.687 70.746L384.723 69.207C383.148 68.865 381.843 69.594 381.267 71.07ZM389.889 78.18C392.553 78.18 394.236 76.254 394.236 73.653C394.236 71.061 392.553 69.135 389.889 69.135C387.216 69.135 385.533 71.061 385.533 73.653C385.533 76.254 387.216 78.18 389.889 78.18ZM389.889 76.875C388.134 76.875 387 75.525 387 73.653C387 71.781 388.134 70.44 389.889 70.44C391.626 70.44 392.769 71.781 392.769 73.653C392.769 75.525 391.626 76.875 389.889 76.875ZM396.796 68.334V69.315H395.23V70.539H396.796V78H398.263V70.539H400.954V69.315H398.263V68.334C398.263 67.083 398.776 66.534 399.811 66.534C400.243 66.534 400.621 66.606 400.954 66.759V65.445C400.585 65.328 400.198 65.274 399.793 65.274C397.939 65.274 396.796 66.372 396.796 68.334ZM403.474 65.58C402.916 65.58 402.43 66.03 402.43 66.606C402.43 67.182 402.916 67.65 403.474 67.65C404.077 67.65 404.563 67.182 404.563 66.606C404.563 66.03 404.077 65.58 403.474 65.58ZM402.763 78H404.23V69.315H402.763V78ZM407.005 78H408.472V65.436H407.005V78ZM418.46 73.491C418.46 70.881 417.011 69.135 414.545 69.135C412.052 69.135 410.459 71.106 410.459 73.644C410.459 76.236 412.079 78.18 414.68 78.18C416.489 78.18 417.821 77.343 418.298 75.714L417.119 75.381C416.741 76.353 415.985 76.929 414.671 76.929C413.087 76.929 412.097 75.813 411.935 74.112H418.442C418.46 73.896 418.46 73.689 418.46 73.491ZM414.536 70.359C416.003 70.359 416.876 71.304 417.002 72.951H411.944C412.142 71.394 413.078 70.359 414.536 70.359Z" fill="#555555"/>
<rect x="41" y="144" width="449" height="8" rx="4" fill="#C4C4C4"/>
<rect x="41" y="171" width="449" height="8" rx="4" fill="#C4C4C4"/>
<rect x="41" y="198" width="449" height="8" rx="4" fill="#C4C4C4"/>
<g filter="url(#filter1_d)">
<circle cx="461.5" cy="70.5" r="28.5" fill="#E4E4E4"/>
</g>
<defs>
<filter id="filter0_d" x="0" y="0" width="529" height="344" filterUnits="userSpaceOnUse" color-interpolation-filters="sRGB">
<feFlood flood-opacity="0" result="BackgroundImageFix"/>
<feColorMatrix in="SourceAlpha" type="matrix" values="0 0 0 0 0 0 0 0 0 0 0 0 0 0 0 0 0 0 127 0"/>
<feOffset dy="4"/>
<feGaussianBlur stdDeviation="2"/>
<feColorMatrix type="matrix" values="0 0 0 0 0 0 0 0 0 0 0 0 0 0 0 0 0 0 0.25 0"/>
<feBlend mode="normal" in2="BackgroundImageFix" result="effect1_dropShadow"/>
<feBlend mode="normal" in="SourceGraphic" in2="effect1_dropShadow" result="shape"/>
</filter>
<filter id="filter1_d" x="429" y="42" width="65" height="65" filterUnits="userSpaceOnUse" color-interpolation-filters="sRGB">
<feFlood flood-opacity="0" result="BackgroundImageFix"/>
<feColorMatrix in="SourceAlpha" type="matrix" values="0 0 0 0 0 0 0 0 0 0 0 0 0 0 0 0 0 0 127 0"/>
<feOffset dy="4"/>
<feGaussianBlur stdDeviation="2"/>
<feColorMatrix type="matrix" values="0 0 0 0 0 0 0 0 0 0 0 0 0 0 0 0 0 0 0.25 0"/>
<feBlend mode="normal" in2="BackgroundImageFix" result="effect1_dropShadow"/>
<feBlend mode="normal" in="SourceGraphic" in2="effect1_dropShadow" result="shape"/>
</filter>
</defs>
</svg>
