<svg width="462" height="167" viewBox="0 0 462 167" fill="none" xmlns="http://www.w3.org/2000/svg">
<g clip-path="url(#clip0)">
<path d="M166.427 65.0082C170.028 65.6249 173.515 66.8745 176.854 68.3215C180.201 69.7684 183.434 71.5031 186.461 73.542C192.548 77.6198 197.889 82.75 202.221 88.6776C203.435 90.3301 204.559 92.0484 205.593 93.8242C206.11 94.7121 206.602 95.6082 207.069 96.5208C207.553 97.4662 208.062 98.4117 208.382 99.4311C208.686 100.401 207.283 100.96 206.774 100.114C206.315 99.3407 205.962 98.5021 205.56 97.6964C205.158 96.8907 204.731 96.0933 204.288 95.304C203.41 93.7337 202.459 92.1963 201.441 90.7C199.448 87.7815 197.192 85.0437 194.722 82.5198C189.734 77.3979 183.868 73.1145 177.461 69.9575C173.851 68.1735 170.069 66.8909 166.246 65.666C165.82 65.5344 166 64.9343 166.427 65.0082Z" fill="#A59F9F"/>
<path d="M198.053 95.6327C200.383 96.9728 202.614 98.502 204.854 99.9818C207.094 101.47 209.342 102.958 211.59 104.438C211.171 104.676 210.753 104.915 210.343 105.153C210.343 102.382 209.777 99.6694 209.416 96.9317C209.055 94.2433 208.833 91.3494 209.686 88.7268C210.015 87.7156 211.549 88.1266 211.286 89.1707C210.966 90.4368 210.794 91.6865 210.794 92.9937C210.794 94.3255 210.933 95.6492 211.106 96.9646C211.475 99.6941 212.008 102.407 212 105.161C212 105.761 211.286 106.238 210.753 105.877C208.513 104.38 206.273 102.884 204.034 101.396C201.794 99.8996 199.513 98.4362 197.372 96.8084C197.085 96.5864 196.929 96.2247 197.126 95.8794C197.315 95.5588 197.733 95.4519 198.053 95.6327Z" fill="#A59F9F"/>
</g>
<path d="M15.5748 54.9505C6.9943 54.9505 0 49.4316 0 42.6344V0H150.294C158.875 0 165.869 5.53089 165.869 12.3161V42.6344C165.869 49.4196 158.89 54.9505 150.294 54.9505H15.5748Z" fill="#5375FF"/>
<path d="M12.1812 13.5781H12.9552V10.8871H15.7587V13.5781H16.5327V7.72812H15.7587V10.2256H12.9552V7.72812H12.1812V13.5781ZM21.6543 11.3236C21.6543 10.0186 20.9298 9.14562 19.6968 9.14562C18.4503 9.14562 17.6538 10.1311 17.6538 11.4001C17.6538 12.6961 18.4638 13.6681 19.7643 13.6681C20.6688 13.6681 21.3348 13.2496 21.5733 12.4351L20.9838 12.2686C20.7948 12.7546 20.4168 13.0426 19.7598 13.0426C18.9678 13.0426 18.4728 12.4846 18.3918 11.6341H21.6453C21.6543 11.5261 21.6543 11.4226 21.6543 11.3236ZM19.6923 9.75762C20.4258 9.75762 20.8623 10.2301 20.9253 11.0536H18.3963C18.4953 10.2751 18.9633 9.75762 19.6923 9.75762ZM22.6767 13.5781H23.4102V7.29612H22.6767V13.5781ZM24.7773 13.5781H25.5108V7.29612H24.7773V13.5781ZM28.6823 13.6681C30.0143 13.6681 30.8558 12.7051 30.8558 11.4046C30.8558 10.1086 30.0143 9.14562 28.6823 9.14562C27.3458 9.14562 26.5043 10.1086 26.5043 11.4046C26.5043 12.7051 27.3458 13.6681 28.6823 13.6681ZM28.6823 13.0156C27.8048 13.0156 27.2378 12.3406 27.2378 11.4046C27.2378 10.4686 27.8048 9.79812 28.6823 9.79812C29.5508 9.79812 30.1223 10.4686 30.1223 11.4046C30.1223 12.3406 29.5508 13.0156 28.6823 13.0156ZM33.1219 14.9731C34.2334 14.7616 34.6654 14.1451 34.6654 12.9706V7.72812H33.8914V12.9301C33.8914 13.7896 33.6844 14.1316 32.9779 14.3026L33.1219 14.9731ZM37.9724 13.6681C39.3044 13.6681 40.1459 12.7051 40.1459 11.4046C40.1459 10.1086 39.3044 9.14562 37.9724 9.14562C36.6359 9.14562 35.7944 10.1086 35.7944 11.4046C35.7944 12.7051 36.6359 13.6681 37.9724 13.6681ZM37.9724 13.0156C37.0949 13.0156 36.5279 12.3406 36.5279 11.4046C36.5279 10.4686 37.0949 9.79812 37.9724 9.79812C38.8409 9.79812 39.4124 10.4686 39.4124 11.4046C39.4124 12.3406 38.8409 13.0156 37.9724 13.0156ZM43.3254 9.14562C42.6369 9.14562 42.1284 9.46512 41.8584 9.98262V7.29612H41.1249V13.5781H41.8584V11.3461C41.8584 10.3741 42.4164 9.82962 43.1724 9.82962C43.8564 9.82962 44.1804 10.2121 44.1804 11.0581V13.5781H44.9139V10.9141C44.9139 9.77562 44.4009 9.14562 43.3254 9.14562ZM48.4321 9.14562C47.6986 9.14562 47.1766 9.51012 46.9246 10.0861L46.9291 9.23562H46.2226V13.5781H46.9561V11.3461C46.9561 10.3741 47.5141 9.82962 48.2701 9.82962C48.9541 9.82962 49.2781 10.2121 49.2781 11.0581V13.5781H50.0116V10.9141C50.0116 9.77562 49.4986 9.14562 48.4321 9.14562ZM51.8197 12.5296C51.4687 12.5296 51.2347 12.7861 51.2347 13.0876C51.2347 13.4206 51.4552 13.6276 51.7522 13.6276H51.7972C51.7207 14.0011 51.4552 14.2891 51.0007 14.5771L51.3292 14.9596C52.0447 14.5456 52.4317 13.9966 52.4317 13.2676C52.4317 12.7951 52.2022 12.5296 51.8197 12.5296ZM12.1812 24.5781H12.9552V18.7281H12.1812V24.5781ZM20.0756 24.0066C19.7831 24.0066 19.7156 23.8266 19.7156 23.5746V21.9231C19.7156 21.3066 19.5941 20.1456 17.9471 20.1456C16.9886 20.1456 16.3631 20.5866 16.1561 21.4371L16.8266 21.6036C16.9796 21.0411 17.2991 20.7621 17.9516 20.7621C18.7571 20.7621 19.0046 21.2526 19.0046 21.9186V22.1841C18.6896 22.1436 18.3656 22.1211 18.0731 22.1211C16.9121 22.1211 16.0346 22.4406 16.0346 23.3811C16.0346 24.1776 16.6331 24.6636 17.5286 24.6636C18.2306 24.6636 18.7796 24.3621 19.0631 23.9031C19.1126 24.3756 19.3286 24.6186 19.9046 24.6186C20.0441 24.6186 20.1701 24.6051 20.3141 24.5736V23.9886C20.2286 24.0021 20.1521 24.0066 20.0756 24.0066ZM17.6546 24.0516C17.1731 24.0516 16.8266 23.8536 16.8266 23.3631C16.8266 22.8681 17.2811 22.6791 18.1136 22.6791C18.3971 22.6791 18.6896 22.6971 19.0046 22.7331V23.3631C18.7301 23.7951 18.2216 24.0516 17.6546 24.0516ZM26.0145 20.1456C25.2945 20.1456 24.8265 20.4786 24.588 21.0231C24.408 20.4471 23.9895 20.1456 23.2875 20.1456C22.5945 20.1456 22.149 20.4516 21.906 20.9511L21.9105 20.2356H21.2265V24.5781H21.9465V22.3191C21.9465 21.3516 22.3785 20.8026 23.13 20.8026C23.7645 20.8026 23.985 21.1896 23.985 22.0176V24.5781H24.7005V22.3191C24.7005 21.3516 25.128 20.8026 25.8795 20.8026C26.514 20.8026 26.7345 21.2031 26.7345 22.0176V24.5781H27.45V21.9096C27.45 20.7936 27.0225 20.1456 26.0145 20.1456ZM30.9867 19.4031C31.2882 19.4031 31.5312 19.1691 31.5312 18.8811C31.5312 18.5931 31.2882 18.3681 30.9867 18.3681C30.7077 18.3681 30.4647 18.5931 30.4647 18.8811C30.4647 19.1691 30.7077 19.4031 30.9867 19.4031ZM30.6312 24.5781H31.3647V20.2356H30.6312V24.5781ZM34.9584 20.1456C34.2249 20.1456 33.7029 20.5101 33.4509 21.0861L33.4554 20.2356H32.7489V24.5781H33.4824V22.3461C33.4824 21.3741 34.0404 20.8296 34.7964 20.8296C35.4804 20.8296 35.8044 21.2121 35.8044 22.0581V24.5781H36.5379V21.9141C36.5379 20.7756 36.0249 20.1456 34.9584 20.1456ZM40.3126 23.8311C40.1281 23.9391 39.9481 23.9886 39.7096 23.9886C39.1921 23.9886 38.9716 23.7051 38.9716 23.1066V20.8476H40.4071V20.2356H38.9716V18.8361L38.2426 18.9441V20.2356H37.3471V20.8476H38.2426V23.1966C38.2426 24.1821 38.7466 24.6411 39.6061 24.6411C39.9571 24.6411 40.2406 24.5646 40.5061 24.4206L40.3126 23.8311ZM45.0244 22.3236C45.0244 21.0186 44.2999 20.1456 43.0669 20.1456C41.8204 20.1456 41.0239 21.1311 41.0239 22.4001C41.0239 23.6961 41.8339 24.6681 43.1344 24.6681C44.0389 24.6681 44.7049 24.2496 44.9434 23.4351L44.3539 23.2686C44.1649 23.7546 43.7869 24.0426 43.1299 24.0426C42.3379 24.0426 41.8429 23.4846 41.7619 22.6341H45.0154C45.0244 22.5261 45.0244 22.4226 45.0244 22.3236ZM43.0624 20.7576C43.7959 20.7576 44.2324 21.2301 44.2954 22.0536H41.7664C41.8654 21.2751 42.3334 20.7576 43.0624 20.7576ZM46.7308 21.1131L46.7353 20.2356H46.0468V24.5781H46.7578V22.3776C46.7578 21.2661 47.6083 20.7531 48.4408 20.9511L48.4588 20.1816C47.6713 20.0106 47.0188 20.3751 46.7308 21.1131ZM52.8642 22.3236C52.8642 21.0186 52.1397 20.1456 50.9067 20.1456C49.6602 20.1456 48.8637 21.1311 48.8637 22.4001C48.8637 23.6961 49.6737 24.6681 50.9742 24.6681C51.8787 24.6681 52.5447 24.2496 52.7832 23.4351L52.1937 23.2686C52.0047 23.7546 51.6267 24.0426 50.9697 24.0426C50.1777 24.0426 49.6827 23.4846 49.6017 22.6341H52.8552C52.8642 22.5261 52.8642 22.4226 52.8642 22.3236ZM50.9022 20.7576C51.6357 20.7576 52.0722 21.2301 52.1352 22.0536H49.6062C49.7052 21.2751 50.1732 20.7576 50.9022 20.7576ZM55.5111 24.6681C56.5551 24.6681 57.1311 24.1686 57.1311 23.3946C57.1311 22.5486 56.4966 22.3371 55.5201 22.1211C54.8271 21.9636 54.4536 21.8376 54.4536 21.3831C54.4536 21.0006 54.7281 20.7306 55.3401 20.7306C55.9611 20.7306 56.3976 21.0321 56.4381 21.7026L57.0816 21.6171C57.0591 20.7261 56.4786 20.1456 55.3356 20.1456C54.3771 20.1456 53.7471 20.6271 53.7426 21.4281C53.7426 22.2021 54.2871 22.5036 55.3716 22.7331C56.0106 22.8681 56.4066 22.9671 56.4066 23.4486C56.4066 23.8806 56.0871 24.0831 55.4931 24.0831C54.8091 24.0831 54.3141 23.8266 54.2646 23.1021L53.5941 23.1921C53.6661 24.2181 54.4266 24.6681 55.5111 24.6681ZM60.7032 23.8311C60.5187 23.9391 60.3387 23.9886 60.1002 23.9886C59.5827 23.9886 59.3622 23.7051 59.3622 23.1066V20.8476H60.7977V20.2356H59.3622V18.8361L58.6332 18.9441V20.2356H57.7377V20.8476H58.6332V23.1966C58.6332 24.1821 59.1372 24.6411 59.9967 24.6411C60.3477 24.6411 60.6312 24.5646 60.8967 24.4206L60.7032 23.8311ZM65.415 22.3236C65.415 21.0186 64.6905 20.1456 63.4575 20.1456C62.211 20.1456 61.4145 21.1311 61.4145 22.4001C61.4145 23.6961 62.2245 24.6681 63.525 24.6681C64.4295 24.6681 65.0955 24.2496 65.334 23.4351L64.7445 23.2686C64.5555 23.7546 64.1775 24.0426 63.5205 24.0426C62.7285 24.0426 62.2335 23.4846 62.1525 22.6341H65.406C65.415 22.5261 65.415 22.4226 65.415 22.3236ZM63.453 20.7576C64.1865 20.7576 64.623 21.2301 64.686 22.0536H62.157C62.256 21.2751 62.724 20.7576 63.453 20.7576ZM69.7319 18.2961V20.9691C69.4529 20.4291 68.9579 20.1456 68.2379 20.1456C66.9734 20.1456 66.2309 21.0726 66.2309 22.4001C66.2309 23.7366 66.9734 24.6681 68.2379 24.6681C68.9849 24.6681 69.4799 24.3351 69.7589 23.7546L69.7679 24.5781H70.4654V18.2961H69.7319ZM68.3279 24.0156C67.4324 24.0156 66.9824 23.3406 66.9824 22.4001C66.9824 21.4596 67.4324 20.8026 68.3279 20.8026C69.2099 20.8026 69.7589 21.4776 69.7589 22.4001C69.7589 23.3226 69.2099 24.0156 68.3279 24.0156ZM74.0619 19.4031C74.3634 19.4031 74.6064 19.1691 74.6064 18.8811C74.6064 18.5931 74.3634 18.3681 74.0619 18.3681C73.7829 18.3681 73.5399 18.5931 73.5399 18.8811C73.5399 19.1691 73.7829 19.4031 74.0619 19.4031ZM73.7064 24.5781H74.4399V20.2356H73.7064V24.5781ZM78.0336 20.1456C77.3001 20.1456 76.7781 20.5101 76.5261 21.0861L76.5306 20.2356H75.8241V24.5781H76.5576V22.3461C76.5576 21.3741 77.1156 20.8296 77.8716 20.8296C78.5556 20.8296 78.8796 21.2121 78.8796 22.0581V24.5781H79.6131V21.9141C79.6131 20.7756 79.1001 20.1456 78.0336 20.1456ZM86.5473 24.0066C86.2548 24.0066 86.1873 23.8266 86.1873 23.5746V21.9231C86.1873 21.3066 86.0658 20.1456 84.4188 20.1456C83.4603 20.1456 82.8348 20.5866 82.6278 21.4371L83.2983 21.6036C83.4513 21.0411 83.7708 20.7621 84.4233 20.7621C85.2288 20.7621 85.4763 21.2526 85.4763 21.9186V22.1841C85.1613 22.1436 84.8373 22.1211 84.5448 22.1211C83.3838 22.1211 82.5063 22.4406 82.5063 23.3811C82.5063 24.1776 83.1048 24.6636 84.0003 24.6636C84.7023 24.6636 85.2513 24.3621 85.5348 23.9031C85.5843 24.3756 85.8003 24.6186 86.3763 24.6186C86.5158 24.6186 86.6418 24.6051 86.7858 24.5736V23.9886C86.7003 24.0021 86.6238 24.0066 86.5473 24.0066ZM84.1263 24.0516C83.6448 24.0516 83.2983 23.8536 83.2983 23.3631C83.2983 22.8681 83.7528 22.6791 84.5853 22.6791C84.8688 22.6791 85.1613 22.6971 85.4763 22.7331V23.3631C85.2018 23.7951 84.6933 24.0516 84.1263 24.0516ZM94.3407 20.1456C93.6207 20.1456 93.1527 20.4786 92.9142 21.0231C92.7342 20.4471 92.3157 20.1456 91.6137 20.1456C90.9207 20.1456 90.4752 20.4516 90.2322 20.9511L90.2367 20.2356H89.5527V24.5781H90.2727V22.3191C90.2727 21.3516 90.7047 20.8026 91.4562 20.8026C92.0907 20.8026 92.3112 21.1896 92.3112 22.0176V24.5781H93.0267V22.3191C93.0267 21.3516 93.4542 20.8026 94.2057 20.8026C94.8402 20.8026 95.0607 21.2031 95.0607 22.0176V24.5781H95.7762V21.9096C95.7762 20.7936 95.3487 20.1456 94.3407 20.1456ZM100.055 20.2356V22.4631C100.055 23.4351 99.4969 23.9796 98.7409 23.9796C98.0839 23.9796 97.7554 23.5971 97.7554 22.7511V20.2356H97.0264V22.8951C97.0264 24.0336 97.5349 24.6636 98.5834 24.6636C99.3214 24.6636 99.8434 24.2946 100.091 23.7051L100.109 24.5781H100.784V20.2356H100.055ZM104.622 23.8311C104.438 23.9391 104.258 23.9886 104.019 23.9886C103.502 23.9886 103.281 23.7051 103.281 23.1066V20.8476H104.717V20.2356H103.281V18.8361L102.552 18.9441V20.2356H101.657V20.8476H102.552V23.1966C102.552 24.1821 103.056 24.6411 103.916 24.6411C104.267 24.6411 104.55 24.5646 104.816 24.4206L104.622 23.8311ZM108.677 20.2356V22.4631C108.677 23.4351 108.119 23.9796 107.363 23.9796C106.706 23.9796 106.377 23.5971 106.377 22.7511V20.2356H105.648V22.8951C105.648 24.0336 106.157 24.6636 107.205 24.6636C107.943 24.6636 108.465 24.2946 108.713 23.7051L108.731 24.5781H109.406V20.2356H108.677ZM114.549 24.0066C114.257 24.0066 114.189 23.8266 114.189 23.5746V21.9231C114.189 21.3066 114.068 20.1456 112.421 20.1456C111.462 20.1456 110.837 20.5866 110.63 21.4371L111.3 21.6036C111.453 21.0411 111.773 20.7621 112.425 20.7621C113.231 20.7621 113.478 21.2526 113.478 21.9186V22.1841C113.163 22.1436 112.839 22.1211 112.547 22.1211C111.386 22.1211 110.508 22.4406 110.508 23.3811C110.508 24.1776 111.107 24.6636 112.002 24.6636C112.704 24.6636 113.253 24.3621 113.537 23.9031C113.586 24.3756 113.802 24.6186 114.378 24.6186C114.518 24.6186 114.644 24.6051 114.788 24.5736V23.9886C114.702 24.0021 114.626 24.0066 114.549 24.0066ZM112.128 24.0516C111.647 24.0516 111.3 23.8536 111.3 23.3631C111.3 22.8681 111.755 22.6791 112.587 22.6791C112.871 22.6791 113.163 22.6971 113.478 22.7331V23.3631C113.204 23.7951 112.695 24.0516 112.128 24.0516ZM115.7 24.5781H116.434V18.2961H115.7V24.5781ZM13.7967 35.6681C14.7822 35.6681 15.5157 35.2046 15.7272 34.1741L15.0612 34.0616C14.8947 34.6736 14.4987 35.0246 13.8057 35.0246C12.9102 35.0246 12.4152 34.3361 12.4152 33.4046C12.4152 32.4776 12.9102 31.7846 13.8057 31.7846C14.4987 31.7846 14.8947 32.1356 15.0612 32.7476L15.7272 32.6396C15.5157 31.6091 14.7822 31.1456 13.7967 31.1456C12.4827 31.1456 11.6772 32.1176 11.6772 33.4046C11.6772 34.6916 12.4827 35.6681 13.7967 35.6681ZM18.7243 35.6681C20.0563 35.6681 20.8978 34.7051 20.8978 33.4046C20.8978 32.1086 20.0563 31.1456 18.7243 31.1456C17.3878 31.1456 16.5463 32.1086 16.5463 33.4046C16.5463 34.7051 17.3878 35.6681 18.7243 35.6681ZM18.7243 35.0156C17.8468 35.0156 17.2798 34.3406 17.2798 33.4046C17.2798 32.4686 17.8468 31.7981 18.7243 31.7981C19.5928 31.7981 20.1643 32.4686 20.1643 33.4046C20.1643 34.3406 19.5928 35.0156 18.7243 35.0156ZM21.8769 35.5781H22.6104V29.2961H21.8769V35.5781ZM23.9775 35.5781H24.711V29.2961H23.9775V35.5781ZM29.849 35.0066C29.5565 35.0066 29.489 34.8266 29.489 34.5746V32.9231C29.489 32.3066 29.3675 31.1456 27.7205 31.1456C26.762 31.1456 26.1365 31.5866 25.9295 32.4371L26.6 32.6036C26.753 32.0411 27.0725 31.7621 27.725 31.7621C28.5305 31.7621 28.778 32.2526 28.778 32.9186V33.1841C28.463 33.1436 28.139 33.1211 27.8465 33.1211C26.6855 33.1211 25.808 33.4406 25.808 34.3811C25.808 35.1776 26.4065 35.6636 27.302 35.6636C28.004 35.6636 28.553 35.3621 28.8365 34.9031C28.886 35.3756 29.102 35.6186 29.678 35.6186C29.8175 35.6186 29.9435 35.6051 30.0875 35.5736V34.9886C30.002 35.0021 29.9255 35.0066 29.849 35.0066ZM27.428 35.0516C26.9465 35.0516 26.6 34.8536 26.6 34.3631C26.6 33.8681 27.0545 33.6791 27.887 33.6791C28.1705 33.6791 28.463 33.6971 28.778 33.7331V34.3631C28.5035 34.7951 27.995 35.0516 27.428 35.0516ZM33.2634 31.1456C32.5389 31.1456 32.0214 31.4336 31.7334 31.9781V29.2961H30.9999V35.5781H31.6974L31.7064 34.7456C31.9944 35.3306 32.5119 35.6681 33.2634 35.6681C34.5234 35.6681 35.2344 34.7366 35.2344 33.4001C35.2344 32.0726 34.5234 31.1456 33.2634 31.1456ZM33.1374 35.0156C32.2554 35.0156 31.7064 34.3226 31.7064 33.4001C31.7064 32.4776 32.2554 31.8026 33.1374 31.8026C34.0329 31.8026 34.4829 32.4596 34.4829 33.4001C34.4829 34.3406 34.0329 35.0156 33.1374 35.0156ZM38.1833 35.6681C39.5153 35.6681 40.3568 34.7051 40.3568 33.4046C40.3568 32.1086 39.5153 31.1456 38.1833 31.1456C36.8468 31.1456 36.0053 32.1086 36.0053 33.4046C36.0053 34.7051 36.8468 35.6681 38.1833 35.6681ZM38.1833 35.0156C37.3058 35.0156 36.7388 34.3406 36.7388 33.4046C36.7388 32.4686 37.3058 31.7981 38.1833 31.7981C39.0518 31.7981 39.6233 32.4686 39.6233 33.4046C39.6233 34.3406 39.0518 35.0156 38.1833 35.0156ZM42.0374 32.1131L42.0419 31.2356H41.3534V35.5781H42.0644V33.3776C42.0644 32.2661 42.9149 31.7531 43.7474 31.9511L43.7654 31.1816C42.9779 31.0106 42.3254 31.3751 42.0374 32.1131ZM48.1918 35.0066C47.8993 35.0066 47.8318 34.8266 47.8318 34.5746V32.9231C47.8318 32.3066 47.7103 31.1456 46.0633 31.1456C45.1048 31.1456 44.4793 31.5866 44.2723 32.4371L44.9428 32.6036C45.0958 32.0411 45.4153 31.7621 46.0678 31.7621C46.8733 31.7621 47.1208 32.2526 47.1208 32.9186V33.1841C46.8058 33.1436 46.4818 33.1211 46.1893 33.1211C45.0283 33.1211 44.1508 33.4406 44.1508 34.3811C44.1508 35.1776 44.7493 35.6636 45.6448 35.6636C46.3468 35.6636 46.8958 35.3621 47.1793 34.9031C47.2288 35.3756 47.4448 35.6186 48.0208 35.6186C48.1603 35.6186 48.2863 35.6051 48.4303 35.5736V34.9886C48.3448 35.0021 48.2683 35.0066 48.1918 35.0066ZM45.7708 35.0516C45.2893 35.0516 44.9428 34.8536 44.9428 34.3631C44.9428 33.8681 45.3973 33.6791 46.2298 33.6791C46.5133 33.6791 46.8058 33.6971 47.1208 33.7331V34.3631C46.8463 34.7951 46.3378 35.0516 45.7708 35.0516ZM51.7208 34.8311C51.5363 34.9391 51.3563 34.9886 51.1178 34.9886C50.6003 34.9886 50.3798 34.7051 50.3798 34.1066V31.8476H51.8153V31.2356H50.3798V29.8361L49.6508 29.9441V31.2356H48.7553V31.8476H49.6508V34.1966C49.6508 35.1821 50.1548 35.6411 51.0143 35.6411C51.3653 35.6411 51.6488 35.5646 51.9143 35.4206L51.7208 34.8311ZM53.1791 30.4031C53.4806 30.4031 53.7236 30.1691 53.7236 29.8811C53.7236 29.5931 53.4806 29.3681 53.1791 29.3681C52.9001 29.3681 52.6571 29.5931 52.6571 29.8811C52.6571 30.1691 52.9001 30.4031 53.1791 30.4031ZM52.8236 35.5781H53.5571V31.2356H52.8236V35.5781ZM56.7458 35.6681C58.0778 35.6681 58.9193 34.7051 58.9193 33.4046C58.9193 32.1086 58.0778 31.1456 56.7458 31.1456C55.4093 31.1456 54.5678 32.1086 54.5678 33.4046C54.5678 34.7051 55.4093 35.6681 56.7458 35.6681ZM56.7458 35.0156C55.8683 35.0156 55.3013 34.3406 55.3013 33.4046C55.3013 32.4686 55.8683 31.7981 56.7458 31.7981C57.6143 31.7981 58.1858 32.4686 58.1858 33.4046C58.1858 34.3406 57.6143 35.0156 56.7458 35.0156ZM62.1254 31.1456C61.3919 31.1456 60.8699 31.5101 60.6179 32.0861L60.6224 31.2356H59.9159V35.5781H60.6494V33.3461C60.6494 32.3741 61.2074 31.8296 61.9634 31.8296C62.6474 31.8296 62.9714 32.2121 62.9714 33.0581V35.5781H63.7049V32.9141C63.7049 31.7756 63.1919 31.1456 62.1254 31.1456ZM65.5041 35.6681C65.8146 35.6681 66.0756 35.4116 66.0756 35.0966C66.0756 34.7861 65.8146 34.5296 65.5041 34.5296C65.1891 34.5296 64.9236 34.7861 64.9236 35.0966C64.9236 35.4116 65.1891 35.6681 65.5041 35.6681ZM15.6417 46.5826H16.5687L14.3007 43.1986L16.4607 40.7281H15.4752L12.9552 43.6891V40.7281H12.1812V46.5826H12.9552V44.6161L13.7517 43.7071L15.6417 46.5826ZM17.9086 41.4031C18.2101 41.4031 18.4531 41.1691 18.4531 40.8811C18.4531 40.5931 18.2101 40.3681 17.9086 40.3681C17.6296 40.3681 17.3866 40.5931 17.3866 40.8811C17.3866 41.1691 17.6296 41.4031 17.9086 41.4031ZM17.5531 46.5781H18.2866V42.2356H17.5531V46.5781ZM21.8803 42.1456C21.1468 42.1456 20.6248 42.5101 20.3728 43.0861L20.3773 42.2356H19.6708V46.5781H20.4043V44.3461C20.4043 43.3741 20.9623 42.8296 21.7183 42.8296C22.4023 42.8296 22.7263 43.2121 22.7263 44.0581V46.5781H23.4598V43.9141C23.4598 42.7756 22.9468 42.1456 21.8803 42.1456ZM27.896 40.2961V42.9691C27.617 42.4291 27.122 42.1456 26.402 42.1456C25.1375 42.1456 24.395 43.0726 24.395 44.4001C24.395 45.7366 25.1375 46.6681 26.402 46.6681C27.149 46.6681 27.644 46.3351 27.923 45.7546L27.932 46.5781H28.6295V40.2961H27.896ZM26.492 46.0156C25.5965 46.0156 25.1465 45.3406 25.1465 44.4001C25.1465 43.4596 25.5965 42.8026 26.492 42.8026C27.374 42.8026 27.923 43.4776 27.923 44.4001C27.923 45.3226 27.374 46.0156 26.492 46.0156ZM32.5365 43.1131L32.541 42.2356H31.8525V46.5781H32.5635V44.3776C32.5635 43.2661 33.414 42.7531 34.2465 42.9511L34.2645 42.1816C33.477 42.0106 32.8245 42.3751 32.5365 43.1131ZM38.6699 44.3236C38.6699 43.0186 37.9454 42.1456 36.7124 42.1456C35.4659 42.1456 34.6694 43.1311 34.6694 44.4001C34.6694 45.6961 35.4794 46.6681 36.7799 46.6681C37.6844 46.6681 38.3504 46.2496 38.5889 45.4351L37.9994 45.2686C37.8104 45.7546 37.4324 46.0426 36.7754 46.0426C35.9834 46.0426 35.4884 45.4846 35.4074 44.6341H38.6609C38.6699 44.5261 38.6699 44.4226 38.6699 44.3236ZM36.7079 42.7576C37.4414 42.7576 37.8779 43.2301 37.9409 44.0536H35.4119C35.5109 43.2751 35.9789 42.7576 36.7079 42.7576ZM43.0948 42.2401L43.0903 43.1311C42.8248 42.4966 42.3073 42.1456 41.5153 42.1456C40.2463 42.1456 39.5083 43.0591 39.5083 44.3596C39.5083 45.6691 40.2463 46.5826 41.5153 46.5826C42.3118 46.5826 42.8158 46.2091 43.0858 45.5656V46.3126C43.0858 47.3161 42.4738 47.8021 41.6368 47.8021C41.0383 47.8021 40.4983 47.5861 40.0483 47.1001L39.6433 47.6266C40.1833 48.1756 40.8088 48.4231 41.6098 48.4231C42.8698 48.4231 43.7608 47.7166 43.7608 46.3261V42.2401H43.0948ZM41.6053 45.9391C40.7098 45.9391 40.2598 45.2776 40.2598 44.3596C40.2598 43.4416 40.7098 42.7936 41.6053 42.7936C42.4873 42.7936 43.0363 43.4596 43.0363 44.3596C43.0363 45.2596 42.4873 45.9391 41.6053 45.9391ZM48.9213 46.0066C48.6288 46.0066 48.5613 45.8266 48.5613 45.5746V43.9231C48.5613 43.3066 48.4398 42.1456 46.7928 42.1456C45.8343 42.1456 45.2088 42.5866 45.0018 43.4371L45.6723 43.6036C45.8253 43.0411 46.1448 42.7621 46.7973 42.7621C47.6028 42.7621 47.8503 43.2526 47.8503 43.9186V44.1841C47.5353 44.1436 47.2113 44.1211 46.9188 44.1211C45.7578 44.1211 44.8803 44.4406 44.8803 45.3811C44.8803 46.1776 45.4788 46.6636 46.3743 46.6636C47.0763 46.6636 47.6253 46.3621 47.9088 45.9031C47.9583 46.3756 48.1743 46.6186 48.7503 46.6186C48.8898 46.6186 49.0158 46.6051 49.1598 46.5736V45.9886C49.0743 46.0021 48.9978 46.0066 48.9213 46.0066ZM46.5003 46.0516C46.0188 46.0516 45.6723 45.8536 45.6723 45.3631C45.6723 44.8681 46.1268 44.6791 46.9593 44.6791C47.2428 44.6791 47.5353 44.6971 47.8503 44.7331V45.3631C47.5758 45.7951 47.0673 46.0516 46.5003 46.0516ZM50.7562 43.1131L50.7607 42.2356H50.0722V46.5781H50.7832V44.3776C50.7832 43.2661 51.6337 42.7531 52.4662 42.9511L52.4842 42.1816C51.6967 42.0106 51.0442 42.3751 50.7562 43.1131ZM56.3901 40.2961V42.9691C56.1111 42.4291 55.6161 42.1456 54.8961 42.1456C53.6316 42.1456 52.8891 43.0726 52.8891 44.4001C52.8891 45.7366 53.6316 46.6681 54.8961 46.6681C55.6431 46.6681 56.1381 46.3351 56.4171 45.7546L56.4261 46.5781H57.1236V40.2961H56.3901ZM54.9861 46.0156C54.0906 46.0156 53.6406 45.3406 53.6406 44.4001C53.6406 43.4596 54.0906 42.8026 54.9861 42.8026C55.8681 42.8026 56.4171 43.4776 56.4171 44.4001C56.4171 45.3226 55.8681 46.0156 54.9861 46.0156ZM60.1166 46.6681C61.1606 46.6681 61.7366 46.1686 61.7366 45.3946C61.7366 44.5486 61.1021 44.3371 60.1256 44.1211C59.4326 43.9636 59.0591 43.8376 59.0591 43.3831C59.0591 43.0006 59.3336 42.7306 59.9456 42.7306C60.5666 42.7306 61.0031 43.0321 61.0436 43.7026L61.6871 43.6171C61.6646 42.7261 61.0841 42.1456 59.9411 42.1456C58.9826 42.1456 58.3526 42.6271 58.3481 43.4281C58.3481 44.2021 58.8926 44.5036 59.9771 44.7331C60.6161 44.8681 61.0121 44.9671 61.0121 45.4486C61.0121 45.8806 60.6926 46.0831 60.0986 46.0831C59.4146 46.0831 58.9196 45.8266 58.8701 45.1021L58.1996 45.1921C58.2716 46.2181 59.0321 46.6681 60.1166 46.6681Z" fill="white"/>
<g filter="url(#filter0_d)">
<rect x="209" y="121" width="152" height="38" rx="10" fill="#5375FF"/>
</g>
<path d="M251.012 145.14C253.224 145.14 254.617 144.09 255.044 141.92L253.903 141.731C253.525 143.488 252.517 144.125 251.012 144.125C249.031 144.125 247.876 142.662 247.876 140.457C247.876 138.231 249.031 136.775 251.012 136.775C252.503 136.775 253.532 137.433 253.903 139.162L255.044 138.973C254.652 136.803 253.21 135.76 251.012 135.76C248.31 135.76 246.63 137.657 246.63 140.457C246.63 143.243 248.31 145.14 251.012 145.14ZM259.578 145.14C261.65 145.14 262.959 143.642 262.959 141.619C262.959 139.603 261.65 138.105 259.578 138.105C257.499 138.105 256.19 139.603 256.19 141.619C256.19 143.642 257.499 145.14 259.578 145.14ZM259.578 144.125C258.213 144.125 257.331 143.075 257.331 141.619C257.331 140.163 258.213 139.12 259.578 139.12C260.929 139.12 261.818 140.163 261.818 141.619C261.818 143.075 260.929 144.125 259.578 144.125ZM264.482 145H265.623V135.228H264.482V145ZM267.75 145H268.891V135.228H267.75V145ZM276.883 144.111C276.428 144.111 276.323 143.831 276.323 143.439V140.87C276.323 139.911 276.134 138.105 273.572 138.105C272.081 138.105 271.108 138.791 270.786 140.114L271.829 140.373C272.067 139.498 272.564 139.064 273.579 139.064C274.832 139.064 275.217 139.827 275.217 140.863V141.276C274.727 141.213 274.223 141.178 273.768 141.178C271.962 141.178 270.597 141.675 270.597 143.138C270.597 144.377 271.528 145.133 272.921 145.133C274.013 145.133 274.867 144.664 275.308 143.95C275.385 144.685 275.721 145.063 276.617 145.063C276.834 145.063 277.03 145.042 277.254 144.993V144.083C277.121 144.104 277.002 144.111 276.883 144.111ZM273.117 144.181C272.368 144.181 271.829 143.873 271.829 143.11C271.829 142.34 272.536 142.046 273.831 142.046C274.272 142.046 274.727 142.074 275.217 142.13V143.11C274.79 143.782 273.999 144.181 273.117 144.181ZM282.194 138.105C281.067 138.105 280.262 138.553 279.814 139.4V135.228H278.673V145H279.758L279.772 143.705C280.22 144.615 281.025 145.14 282.194 145.14C284.154 145.14 285.26 143.691 285.26 141.612C285.26 139.547 284.154 138.105 282.194 138.105ZM281.998 144.125C280.626 144.125 279.772 143.047 279.772 141.612C279.772 140.177 280.626 139.127 281.998 139.127C283.391 139.127 284.091 140.149 284.091 141.612C284.091 143.075 283.391 144.125 281.998 144.125ZM289.848 145.14C291.92 145.14 293.229 143.642 293.229 141.619C293.229 139.603 291.92 138.105 289.848 138.105C287.769 138.105 286.46 139.603 286.46 141.619C286.46 143.642 287.769 145.14 289.848 145.14ZM289.848 144.125C288.483 144.125 287.601 143.075 287.601 141.619C287.601 140.163 288.483 139.12 289.848 139.12C291.199 139.12 292.088 140.163 292.088 141.619C292.088 143.075 291.199 144.125 289.848 144.125ZM295.843 139.61L295.85 138.245H294.779V145H295.885V141.577C295.885 139.848 297.208 139.05 298.503 139.358L298.531 138.161C297.306 137.895 296.291 138.462 295.843 139.61ZM305.416 144.111C304.961 144.111 304.856 143.831 304.856 143.439V140.87C304.856 139.911 304.667 138.105 302.105 138.105C300.614 138.105 299.641 138.791 299.319 140.114L300.362 140.373C300.6 139.498 301.097 139.064 302.112 139.064C303.365 139.064 303.75 139.827 303.75 140.863V141.276C303.26 141.213 302.756 141.178 302.301 141.178C300.495 141.178 299.13 141.675 299.13 143.138C299.13 144.377 300.061 145.133 301.454 145.133C302.546 145.133 303.4 144.664 303.841 143.95C303.918 144.685 304.254 145.063 305.15 145.063C305.367 145.063 305.563 145.042 305.787 144.993V144.083C305.654 144.104 305.535 144.111 305.416 144.111ZM301.65 144.181C300.901 144.181 300.362 143.873 300.362 143.11C300.362 142.34 301.069 142.046 302.364 142.046C302.805 142.046 303.26 142.074 303.75 142.13V143.11C303.323 143.782 302.532 144.181 301.65 144.181ZM310.906 143.838C310.619 144.006 310.339 144.083 309.968 144.083C309.163 144.083 308.82 143.642 308.82 142.711V139.197H311.053V138.245H308.82V136.068L307.686 136.236V138.245H306.293V139.197H307.686V142.851C307.686 144.384 308.47 145.098 309.807 145.098C310.353 145.098 310.794 144.979 311.207 144.755L310.906 143.838ZM318.235 141.493C318.235 139.463 317.108 138.105 315.19 138.105C313.251 138.105 312.012 139.638 312.012 141.612C312.012 143.628 313.272 145.14 315.295 145.14C316.702 145.14 317.738 144.489 318.109 143.222L317.192 142.963C316.898 143.719 316.31 144.167 315.288 144.167C314.056 144.167 313.286 143.299 313.16 141.976H318.221C318.235 141.808 318.235 141.647 318.235 141.493ZM315.183 139.057C316.324 139.057 317.003 139.792 317.101 141.073H313.167C313.321 139.862 314.049 139.057 315.183 139.057Z" fill="white"/>
<g filter="url(#filter1_d)">
<circle cx="355" cy="121" r="28" fill="#ECECEC"/>
</g>
<path d="M401.544 106.124C403.76 106.124 405.145 104.979 405.333 102.86L403.5 102.613C403.286 104.115 402.525 104.537 401.505 104.537C400.042 104.537 399.347 103.452 399.347 101.775C399.347 100.098 400.042 99.0125 401.505 99.0125C402.525 99.0125 403.292 99.4805 403.5 100.936L405.333 100.689C405.171 98.5705 403.76 97.4265 401.544 97.4265C398.898 97.4265 397.39 99.1945 397.39 101.775C397.39 104.355 398.898 106.124 401.544 106.124ZM409.368 106.124C411.435 106.124 412.644 104.745 412.644 102.795C412.644 100.852 411.435 99.474 409.368 99.474C407.294 99.474 406.085 100.852 406.085 102.795C406.085 104.745 407.294 106.124 409.368 106.124ZM409.368 104.576C408.419 104.576 407.808 103.894 407.808 102.795C407.808 101.703 408.419 101.027 409.368 101.027C410.31 101.027 410.915 101.703 410.915 102.795C410.915 103.894 410.31 104.576 409.368 104.576ZM421.043 99.474C420.068 99.474 419.451 99.929 419.132 100.696C418.859 99.9355 418.248 99.474 417.189 99.474C416.181 99.474 415.564 99.955 415.265 100.767L415.252 99.5975H413.718V106H415.453V102.899C415.453 101.677 415.921 101.086 416.688 101.086C417.325 101.086 417.585 101.495 417.585 102.36V106H419.314V102.886L419.321 102.899C419.321 101.677 419.789 101.086 420.556 101.086C421.193 101.086 421.453 101.502 421.453 102.36V106H423.182V101.898C423.182 100.468 422.577 99.474 421.043 99.474ZM428.251 99.4805C427.23 99.4805 426.554 99.903 426.19 100.702L426.164 99.5975H424.585V108.451H426.327V105.116C426.71 105.766 427.347 106.124 428.251 106.124C429.973 106.124 431.078 104.804 431.078 102.795C431.078 100.793 429.973 99.4805 428.251 99.4805ZM427.841 104.583C426.899 104.583 426.268 103.861 426.268 102.795C426.268 101.736 426.899 101.04 427.841 101.04C428.79 101.04 429.323 101.716 429.323 102.795C429.323 103.881 428.79 104.583 427.841 104.583ZM438.143 104.57C437.805 104.57 437.721 104.407 437.721 104.089V102.145C437.721 100.923 437.37 99.474 434.874 99.474C433.268 99.474 432.157 100.241 432.053 101.69L433.723 101.885C433.801 101.209 434.172 100.891 434.88 100.891C435.758 100.891 436.018 101.411 436.018 102.126V102.379C435.647 102.321 435.257 102.288 434.835 102.288C433.073 102.288 431.838 102.789 431.838 104.141C431.838 105.285 432.625 106.117 434.022 106.117C435.082 106.117 435.855 105.727 436.206 105.031C436.304 105.779 436.668 106.052 437.623 106.052C437.948 106.052 438.208 106.033 438.494 105.961V104.544C438.371 104.563 438.254 104.57 438.143 104.57ZM434.614 104.791C434.035 104.791 433.717 104.55 433.717 104.076C433.717 103.595 434.146 103.367 435.075 103.367C435.407 103.367 435.706 103.393 436.018 103.452V104.147C435.738 104.55 435.218 104.791 434.614 104.791ZM443.034 99.474C441.961 99.474 441.279 99.994 440.96 100.865L440.947 99.5975H439.4V106H441.142V102.919C441.142 101.697 441.708 101.105 442.54 101.105C443.268 101.105 443.586 101.515 443.586 102.392V106H445.328V101.905C445.328 100.455 444.652 99.474 443.034 99.474ZM450.794 99.5975L449.793 103.432C449.67 103.907 449.559 104.355 449.455 104.778C449.345 104.336 449.228 103.861 449.111 103.419L448.103 99.5975H446.134L448.227 106H448.974L448.922 106.163C448.643 107.001 447.915 107.209 446.491 106.845L446.192 108.34C448.116 108.815 449.904 108.412 450.619 106.163L452.764 99.5975H450.794ZM459.295 104.459V97.355C458.086 97.797 456.961 98.0245 455.596 98.0765V99.682C456.266 99.6625 456.825 99.578 457.397 99.4285V104.459H455.596V106H461.095V104.459H459.295Z" fill="black"/>
<path d="M400.276 122.09C402.009 122.09 403.116 120.834 403.116 119.075C403.116 117.315 402.009 116.06 400.276 116.06C398.544 116.06 397.432 117.315 397.432 119.075C397.432 120.834 398.544 122.09 400.276 122.09ZM400.276 121.536C398.908 121.536 398.08 120.533 398.08 119.075C398.08 117.617 398.908 116.613 400.276 116.613C401.64 116.613 402.468 117.617 402.468 119.075C402.468 120.533 401.64 121.536 400.276 121.536ZM406.392 117.594C405.64 117.594 405.087 117.986 404.835 118.589L404.848 117.684H404.272V122H404.862V119.736C404.862 118.733 405.474 118.143 406.284 118.143C407.022 118.143 407.377 118.557 407.377 119.475V122H407.967V119.39C407.967 118.211 407.445 117.594 406.392 117.594ZM409.335 122H409.924V115.718H409.335V122ZM411.684 116.739C411.95 116.739 412.161 116.532 412.161 116.28C412.161 116.028 411.95 115.835 411.684 115.835C411.441 115.835 411.23 116.028 411.23 116.28C411.23 116.532 411.441 116.739 411.684 116.739ZM411.401 122H411.99V117.684H411.401V122ZM415.594 117.594C414.843 117.594 414.289 117.986 414.037 118.589L414.051 117.684H413.475V122H414.064V119.736C414.064 118.733 414.676 118.143 415.486 118.143C416.224 118.143 416.58 118.557 416.58 119.475V122H417.169V119.39C417.169 118.211 416.647 117.594 415.594 117.594ZM422.092 119.754C422.092 118.463 421.386 117.594 420.171 117.594C418.951 117.594 418.168 118.58 418.168 119.831C418.168 121.109 418.983 122.09 420.238 122.09C421.111 122.09 421.759 121.685 422.011 120.915L421.548 120.753C421.341 121.266 420.936 121.577 420.238 121.577C419.374 121.577 418.83 120.933 418.762 120.011H422.088C422.092 119.921 422.092 119.835 422.092 119.754ZM420.171 118.098C420.972 118.098 421.44 118.625 421.503 119.525H418.776C418.866 118.683 419.365 118.098 420.171 118.098Z" fill="#7C7C7C"/>
<defs>
<filter id="filter0_d" x="205" y="121" width="160" height="46" filterUnits="userSpaceOnUse" color-interpolation-filters="sRGB">
<feFlood flood-opacity="0" result="BackgroundImageFix"/>
<feColorMatrix in="SourceAlpha" type="matrix" values="0 0 0 0 0 0 0 0 0 0 0 0 0 0 0 0 0 0 127 0"/>
<feOffset dy="4"/>
<feGaussianBlur stdDeviation="2"/>
<feColorMatrix type="matrix" values="0 0 0 0 0 0 0 0 0 0 0 0 0 0 0 0 0 0 0.25 0"/>
<feBlend mode="normal" in2="BackgroundImageFix" result="effect1_dropShadow"/>
<feBlend mode="normal" in="SourceGraphic" in2="effect1_dropShadow" result="shape"/>
</filter>
<filter id="filter1_d" x="323" y="93" width="64" height="64" filterUnits="userSpaceOnUse" color-interpolation-filters="sRGB">
<feFlood flood-opacity="0" result="BackgroundImageFix"/>
<feColorMatrix in="SourceAlpha" type="matrix" values="0 0 0 0 0 0 0 0 0 0 0 0 0 0 0 0 0 0 127 0"/>
<feOffset dy="4"/>
<feGaussianBlur stdDeviation="2"/>
<feColorMatrix type="matrix" values="0 0 0 0 0 0 0 0 0 0 0 0 0 0 0 0 0 0 0.25 0"/>
<feBlend mode="normal" in2="BackgroundImageFix" result="effect1_dropShadow"/>
<feBlend mode="normal" in="SourceGraphic" in2="effect1_dropShadow" result="shape"/>
</filter>
<clipPath id="clip0">
<rect width="46" height="41" fill="white" transform="matrix(-1 0 0 1 212 65)"/>
</clipPath>
</defs>
</svg>
