<svg width="481" height="316" viewBox="0 0 481 316" fill="none" xmlns="http://www.w3.org/2000/svg">
<path d="M1.01117 291.213H23.3344" stroke="black"/>
<path d="M222.489 51.808H220.872V45.823H219.136L215.132 51.885L215.328 52.781L219.71 52.774V55H220.872V52.767H222.489V51.808ZM216.455 51.808L218.394 48.91C218.835 48.238 219.276 47.58 219.752 46.733C219.71 47.503 219.71 48.301 219.71 49.183V51.808H216.455ZM224.747 49.974C225.23 49.974 225.636 49.575 225.636 49.085C225.636 48.595 225.23 48.196 224.747 48.196C224.257 48.196 223.844 48.595 223.844 49.085C223.844 49.575 224.257 49.974 224.747 49.974ZM224.747 55.14C225.23 55.14 225.636 54.741 225.636 54.251C225.636 53.768 225.23 53.369 224.747 53.369C224.257 53.369 223.844 53.768 223.844 54.251C223.844 54.741 224.257 55.14 224.747 55.14ZM231.079 49.176C230.274 49.176 229.63 49.372 229.007 49.876L229.217 46.929H233.529V45.9H228.202L227.894 50.478L228.846 51.052C229.525 50.408 230.078 50.184 230.841 50.184C232.108 50.184 232.745 50.968 232.745 52.144C232.738 53.439 231.926 54.104 230.666 54.104C229.623 54.104 228.699 53.558 228.447 52.424L227.327 52.641C227.677 54.272 228.93 55.14 230.645 55.14C232.591 55.14 233.991 54.006 233.991 52.137C233.991 50.331 232.941 49.176 231.079 49.176ZM239.35 49.176C238.545 49.176 237.901 49.372 237.278 49.876L237.488 46.929H241.8V45.9H236.473L236.165 50.478L237.117 51.052C237.796 50.408 238.349 50.184 239.112 50.184C240.379 50.184 241.016 50.968 241.016 52.144C241.009 53.439 240.197 54.104 238.937 54.104C237.894 54.104 236.97 53.558 236.718 52.424L235.598 52.641C235.948 54.272 237.201 55.14 238.916 55.14C240.862 55.14 242.262 54.006 242.262 52.137C242.262 50.331 241.212 49.176 239.35 49.176ZM247.685 48.112C246.523 48.112 245.704 48.588 245.263 49.491L245.249 48.245H244.164V57.73H245.305V53.782C245.76 54.65 246.551 55.14 247.685 55.14C249.645 55.14 250.751 53.691 250.751 51.612C250.751 49.547 249.645 48.112 247.685 48.112ZM247.489 54.125C246.117 54.125 245.263 53.047 245.263 51.612C245.263 50.184 246.117 49.134 247.489 49.134C248.882 49.134 249.582 50.156 249.582 51.612C249.582 53.075 248.882 54.125 247.489 54.125ZM259.746 48.105C258.626 48.105 257.898 48.623 257.527 49.47C257.247 48.574 256.596 48.105 255.504 48.105C254.426 48.105 253.733 48.581 253.355 49.358L253.362 48.245H252.298V55H253.418V51.486C253.418 49.981 254.09 49.127 255.259 49.127C256.246 49.127 256.589 49.729 256.589 51.017V55H257.702V51.486C257.702 49.981 258.367 49.127 259.536 49.127C260.523 49.127 260.866 49.75 260.866 51.017V55H261.979V50.849C261.979 49.113 261.314 48.105 259.746 48.105Z" fill="#5A5A5A"/>
<rect x="38.0322" y="182.812" width="47.9536" height="132.286" rx="5" fill="#5375FF"/>
<rect x="100.868" y="153.051" width="47.9536" height="162.05" rx="5" fill="#5375FF"/>
<rect x="163.704" y="248.959" width="47.9536" height="66.1429" rx="5" fill="#5375FF"/>
<rect x="226.539" y="199.35" width="47.9536" height="115.75" rx="5" fill="#5375FF"/>
<rect x="289.375" y="167.934" width="47.9536" height="147.168" rx="5" fill="#5375FF"/>
<rect x="352.211" y="290.295" width="47.9536" height="24.8036" rx="5" fill="#5375FF"/>
<rect x="415.046" y="129.898" width="47.9536" height="185.2" rx="5" fill="#5375FF"/>
<path d="M0 308.488H22.3232" stroke="black"/>
<path d="M0 275.416H22.3232" stroke="black"/>
<path d="M0 258.879H22.3232" stroke="black"/>
<path d="M0 242.344H22.3232" stroke="black"/>
<path d="M0 220.848H22.3232" stroke="black"/>
<path d="M0 204.312H22.3232" stroke="black"/>
<path d="M0 187.775H22.3232" stroke="black"/>
<path d="M0 172.893H22.3232" stroke="black"/>
<path d="M0 158.01H22.3232" stroke="black"/>
<g filter="url(#filter0_d)">
<rect x="334" width="143" height="37" rx="6" fill="#F4F4F4"/>
</g>
<path d="M360.033 20.395H362.854C362.777 22.082 361.671 23.097 360.033 23.097C358.073 23.097 356.876 21.613 356.876 19.443C356.876 17.238 358.08 15.81 360.047 15.81C361.552 15.81 362.518 16.391 362.826 18.162L363.988 17.98C363.589 15.782 362.245 14.76 360.054 14.76C357.408 14.76 355.63 16.615 355.63 19.45C355.63 22.243 357.324 24.14 359.893 24.14C361.405 24.14 362.553 23.461 363.015 22.306L363.05 24H363.988V19.387H360.033V20.395ZM371.714 20.493C371.714 18.463 370.587 17.105 368.669 17.105C366.73 17.105 365.491 18.638 365.491 20.612C365.491 22.628 366.751 24.14 368.774 24.14C370.181 24.14 371.217 23.489 371.588 22.222L370.671 21.963C370.377 22.719 369.789 23.167 368.767 23.167C367.535 23.167 366.765 22.299 366.639 20.976H371.7C371.714 20.808 371.714 20.647 371.714 20.493ZM368.662 18.057C369.803 18.057 370.482 18.792 370.58 20.073H366.646C366.8 18.862 367.528 18.057 368.662 18.057ZM376.741 17.105C375.6 17.105 374.788 17.672 374.396 18.568L374.403 17.245H373.304V24H374.445V20.528C374.445 19.016 375.313 18.169 376.489 18.169C377.553 18.169 378.057 18.764 378.057 20.08V24H379.198V19.856C379.198 18.085 378.4 17.105 376.741 17.105ZM386.876 20.493C386.876 18.463 385.749 17.105 383.831 17.105C381.892 17.105 380.653 18.638 380.653 20.612C380.653 22.628 381.913 24.14 383.936 24.14C385.343 24.14 386.379 23.489 386.75 22.222L385.833 21.963C385.539 22.719 384.951 23.167 383.929 23.167C382.697 23.167 381.927 22.299 381.801 20.976H386.862C386.876 20.808 386.876 20.647 386.876 20.493ZM383.824 18.057C384.965 18.057 385.644 18.792 385.742 20.073H381.808C381.962 18.862 382.69 18.057 383.824 18.057ZM389.53 18.61L389.537 17.245H388.466V24H389.572V20.577C389.572 18.848 390.895 18.05 392.19 18.358L392.218 17.161C390.993 16.895 389.978 17.462 389.53 18.61ZM399.104 23.111C398.649 23.111 398.544 22.831 398.544 22.439V19.87C398.544 18.911 398.355 17.105 395.793 17.105C394.302 17.105 393.329 17.791 393.007 19.114L394.05 19.373C394.288 18.498 394.785 18.064 395.8 18.064C397.053 18.064 397.438 18.827 397.438 19.863V20.276C396.948 20.213 396.444 20.178 395.989 20.178C394.183 20.178 392.818 20.675 392.818 22.138C392.818 23.377 393.749 24.133 395.142 24.133C396.234 24.133 397.088 23.664 397.529 22.95C397.606 23.685 397.942 24.063 398.838 24.063C399.055 24.063 399.251 24.042 399.475 23.993V23.083C399.342 23.104 399.223 23.111 399.104 23.111ZM395.338 23.181C394.589 23.181 394.05 22.873 394.05 22.11C394.05 21.34 394.757 21.046 396.052 21.046C396.493 21.046 396.948 21.074 397.438 21.13V22.11C397.011 22.782 396.22 23.181 395.338 23.181ZM404.593 22.838C404.306 23.006 404.026 23.083 403.655 23.083C402.85 23.083 402.507 22.642 402.507 21.711V18.197H404.74V17.245H402.507V15.068L401.373 15.236V17.245H399.98V18.197H401.373V21.851C401.373 23.384 402.157 24.098 403.494 24.098C404.04 24.098 404.481 23.979 404.894 23.755L404.593 22.838ZM411.923 20.493C411.923 18.463 410.796 17.105 408.878 17.105C406.939 17.105 405.7 18.638 405.7 20.612C405.7 22.628 406.96 24.14 408.983 24.14C410.39 24.14 411.426 23.489 411.797 22.222L410.88 21.963C410.586 22.719 409.998 23.167 408.976 23.167C407.744 23.167 406.974 22.299 406.848 20.976H411.909C411.923 20.808 411.923 20.647 411.923 20.493ZM408.871 18.057C410.012 18.057 410.691 18.792 410.789 20.073H406.855C407.009 18.862 407.737 18.057 408.871 18.057ZM417.462 18.61L417.469 17.245H416.398V24H417.504V20.577C417.504 18.848 418.827 18.05 420.122 18.358L420.15 17.161C418.925 16.895 417.91 17.462 417.462 18.61ZM427.003 20.493C427.003 18.463 425.876 17.105 423.958 17.105C422.019 17.105 420.78 18.638 420.78 20.612C420.78 22.628 422.04 24.14 424.063 24.14C425.47 24.14 426.506 23.489 426.877 22.222L425.96 21.963C425.666 22.719 425.078 23.167 424.056 23.167C422.824 23.167 422.054 22.299 421.928 20.976H426.989C427.003 20.808 427.003 20.647 427.003 20.493ZM423.951 18.057C425.092 18.057 425.771 18.792 425.869 20.073H421.935C422.089 18.862 422.817 18.057 423.951 18.057ZM432.114 17.112C430.952 17.112 430.133 17.588 429.692 18.491L429.678 17.245H428.593V26.73H429.734V22.782C430.189 23.65 430.98 24.14 432.114 24.14C434.074 24.14 435.18 22.691 435.18 20.612C435.18 18.547 434.074 17.112 432.114 17.112ZM431.918 23.125C430.546 23.125 429.692 22.047 429.692 20.612C429.692 19.184 430.546 18.134 431.918 18.134C433.311 18.134 434.011 19.156 434.011 20.612C434.011 22.075 433.311 23.125 431.918 23.125ZM439.767 24.14C441.839 24.14 443.148 22.642 443.148 20.619C443.148 18.603 441.839 17.105 439.767 17.105C437.688 17.105 436.379 18.603 436.379 20.619C436.379 22.642 437.688 24.14 439.767 24.14ZM439.767 23.125C438.402 23.125 437.52 22.075 437.52 20.619C437.52 19.163 438.402 18.12 439.767 18.12C441.118 18.12 442.007 19.163 442.007 20.619C442.007 22.075 441.118 23.125 439.767 23.125ZM445.763 18.61L445.77 17.245H444.699V24H445.805V20.577C445.805 18.848 447.128 18.05 448.423 18.358L448.451 17.161C447.226 16.895 446.211 17.462 445.763 18.61ZM453.716 22.838C453.429 23.006 453.149 23.083 452.778 23.083C451.973 23.083 451.63 22.642 451.63 21.711V18.197H453.863V17.245H451.63V15.068L450.496 15.236V17.245H449.103V18.197H450.496V21.851C450.496 23.384 451.28 24.098 452.617 24.098C453.163 24.098 453.604 23.979 454.017 23.755L453.716 22.838Z" fill="black"/>
<rect x="463" y="23.0273" width="5.52285" height="1.37688" rx="0.68844" transform="rotate(-45 463 23.0273)" fill="black"/>
<rect x="463.974" y="16" width="5.66254" height="1.32296" rx="0.661482" transform="rotate(45 463.974 16)" fill="black"/>
<defs>
<filter id="filter0_d" x="330" y="0" width="151" height="45" filterUnits="userSpaceOnUse" color-interpolation-filters="sRGB">
<feFlood flood-opacity="0" result="BackgroundImageFix"/>
<feColorMatrix in="SourceAlpha" type="matrix" values="0 0 0 0 0 0 0 0 0 0 0 0 0 0 0 0 0 0 127 0"/>
<feOffset dy="4"/>
<feGaussianBlur stdDeviation="2"/>
<feColorMatrix type="matrix" values="0 0 0 0 0 0 0 0 0 0 0 0 0 0 0 0 0 0 0.25 0"/>
<feBlend mode="normal" in2="BackgroundImageFix" result="effect1_dropShadow"/>
<feBlend mode="normal" in="SourceGraphic" in2="effect1_dropShadow" result="shape"/>
</filter>
</defs>
</svg>
