<svg width="444" height="380" viewBox="0 0 444 380" fill="none" xmlns="http://www.w3.org/2000/svg">
<path d="M292.5 178.5L313.5 277.5" stroke="black"/>
<path d="M298.5 296.5L194.5 348" stroke="black"/>
<path d="M181 349L283 176" stroke="black"/>
<path d="M76.5 269.5L172 346.5" stroke="black"/>
<path d="M28.5 154L55.5 238.5" stroke="black"/>
<path d="M33 146L279 164.5" stroke="black"/>
<path d="M124.5 61.5L25 127.5" stroke="black"/>
<path d="M140.5 63.5L293.5 160" stroke="black"/>
<path d="M295 275.5L28.5 139" stroke="black"/>
<path d="M327 83.5L295.5 162" stroke="black"/>
<path d="M170.544 42.1235C172.76 42.1235 174.145 40.9795 174.333 38.8605L172.5 38.6135C172.286 40.115 171.525 40.5375 170.505 40.5375C169.042 40.5375 168.347 39.452 168.347 37.775C168.347 36.098 169.042 35.0125 170.505 35.0125C171.525 35.0125 172.292 35.4805 172.5 36.9365L174.333 36.6895C174.171 34.5705 172.76 33.4265 170.544 33.4265C167.898 33.4265 166.39 35.1945 166.39 37.775C166.39 40.3555 167.898 42.1235 170.544 42.1235ZM179.596 35.5975V38.737C179.596 39.9655 179.031 40.5505 178.199 40.5505C177.477 40.5505 177.152 40.141 177.152 39.2635V35.5975H175.41V39.6925C175.41 41.1355 176.086 42.117 177.705 42.117C178.771 42.117 179.453 41.61 179.772 40.752L179.869 42H181.338V35.5975H179.596ZM185.465 42.1235C187.071 42.1235 188.078 41.35 188.078 40.141C188.085 38.9515 187.279 38.5225 185.563 38.1455C184.581 37.931 184.334 37.7425 184.334 37.372C184.334 37.034 184.588 36.7935 185.225 36.7935C185.914 36.7935 186.343 37.112 186.421 37.879L188 37.736C187.916 36.3645 187.11 35.474 185.218 35.474C183.769 35.474 182.677 36.176 182.67 37.4695C182.664 38.6525 183.424 39.153 185.212 39.5235C186.057 39.6925 186.388 39.816 186.388 40.2255C186.388 40.6025 186.109 40.804 185.452 40.804C184.705 40.804 184.191 40.5245 184.094 39.725L182.449 39.8745C182.566 41.4475 183.853 42.1235 185.465 42.1235ZM193.176 40.4205C192.91 40.5115 192.669 40.557 192.37 40.557C191.714 40.557 191.499 40.1995 191.499 39.556V37.0665H193.313V35.5975H191.499V33.602L189.757 33.849V35.5975H188.672V37.0665H189.757V39.79C189.757 41.246 190.466 42.0845 192.039 42.0845C192.565 42.0845 193.014 42.013 193.449 41.87L193.176 40.4205ZM197.271 42.1235C199.338 42.1235 200.547 40.7455 200.547 38.7955C200.547 36.852 199.338 35.474 197.271 35.474C195.198 35.474 193.989 36.852 193.989 38.7955C193.989 40.7455 195.198 42.1235 197.271 42.1235ZM197.271 40.5765C196.322 40.5765 195.711 39.894 195.711 38.7955C195.711 37.7035 196.322 37.0275 197.271 37.0275C198.214 37.0275 198.818 37.7035 198.818 38.7955C198.818 39.894 198.214 40.5765 197.271 40.5765ZM208.946 35.474C207.971 35.474 207.354 35.929 207.035 36.696C206.762 35.9355 206.151 35.474 205.092 35.474C204.084 35.474 203.467 35.955 203.168 36.7675L203.155 35.5975H201.621V42H203.356V38.8995C203.356 37.6775 203.824 37.086 204.591 37.086C205.228 37.086 205.488 37.4955 205.488 38.36V42H207.217V38.8865L207.224 38.8995C207.224 37.6775 207.692 37.086 208.459 37.086C209.096 37.086 209.356 37.502 209.356 38.36V42H211.085V37.8985C211.085 36.4685 210.48 35.474 208.946 35.474ZM218.286 38.7045C218.286 36.735 217.142 35.474 215.264 35.474C213.34 35.474 212.118 36.8975 212.118 38.802C212.118 40.7455 213.294 42.1235 215.316 42.1235C216.798 42.1235 217.877 41.4215 218.169 40.0435L216.7 39.816C216.538 40.401 216.089 40.6935 215.309 40.6935C214.49 40.6935 213.983 40.206 213.847 39.2765H218.254C218.28 39.0555 218.286 38.88 218.286 38.7045ZM215.264 36.8845C215.992 36.8845 216.499 37.3135 216.57 38.178H213.86C214.009 37.333 214.516 36.8845 215.264 36.8845ZM220.916 36.93L220.896 35.5975H219.369V41.9935H221.098V39.114C221.098 37.6515 222.138 37.151 223.269 37.385V35.5065C222.086 35.2985 221.273 35.9095 220.916 36.93Z" fill="black"/>
<ellipse cx="130" cy="50" rx="25" ry="24" fill="#C4C4C4"/>
<rect x="166" y="50" width="73" height="3" rx="1.5" fill="#C4C4C4"/>
<path d="M334.544 158.124C336.76 158.124 338.145 156.979 338.333 154.86L336.5 154.613C336.286 156.115 335.525 156.537 334.505 156.537C333.042 156.537 332.347 155.452 332.347 153.775C332.347 152.098 333.042 151.012 334.505 151.012C335.525 151.012 336.292 151.48 336.5 152.936L338.333 152.689C338.171 150.57 336.76 149.426 334.544 149.426C331.898 149.426 330.39 151.194 330.39 153.775C330.39 156.355 331.898 158.124 334.544 158.124ZM343.596 151.597V154.737C343.596 155.965 343.031 156.55 342.199 156.55C341.477 156.55 341.152 156.141 341.152 155.263V151.597H339.41V155.692C339.41 157.135 340.086 158.117 341.705 158.117C342.771 158.117 343.453 157.61 343.772 156.752L343.869 158H345.338V151.597H343.596ZM349.465 158.124C351.071 158.124 352.078 157.35 352.078 156.141C352.085 154.951 351.279 154.522 349.563 154.145C348.581 153.931 348.334 153.742 348.334 153.372C348.334 153.034 348.588 152.793 349.225 152.793C349.914 152.793 350.343 153.112 350.421 153.879L352 153.736C351.916 152.364 351.11 151.474 349.218 151.474C347.769 151.474 346.677 152.176 346.67 153.469C346.664 154.652 347.424 155.153 349.212 155.523C350.057 155.692 350.388 155.816 350.388 156.225C350.388 156.602 350.109 156.804 349.452 156.804C348.705 156.804 348.191 156.524 348.094 155.725L346.449 155.874C346.566 157.447 347.853 158.124 349.465 158.124ZM357.176 156.42C356.91 156.511 356.669 156.557 356.37 156.557C355.714 156.557 355.499 156.199 355.499 155.556V153.066H357.313V151.597H355.499V149.602L353.757 149.849V151.597H352.672V153.066H353.757V155.79C353.757 157.246 354.466 158.085 356.039 158.085C356.565 158.085 357.014 158.013 357.449 157.87L357.176 156.42ZM361.271 158.124C363.338 158.124 364.547 156.745 364.547 154.795C364.547 152.852 363.338 151.474 361.271 151.474C359.198 151.474 357.989 152.852 357.989 154.795C357.989 156.745 359.198 158.124 361.271 158.124ZM361.271 156.576C360.322 156.576 359.711 155.894 359.711 154.795C359.711 153.703 360.322 153.027 361.271 153.027C362.214 153.027 362.818 153.703 362.818 154.795C362.818 155.894 362.214 156.576 361.271 156.576ZM372.946 151.474C371.971 151.474 371.354 151.929 371.035 152.696C370.762 151.935 370.151 151.474 369.092 151.474C368.084 151.474 367.467 151.955 367.168 152.767L367.155 151.597H365.621V158H367.356V154.899C367.356 153.677 367.824 153.086 368.591 153.086C369.228 153.086 369.488 153.495 369.488 154.36V158H371.217V154.886L371.224 154.899C371.224 153.677 371.692 153.086 372.459 153.086C373.096 153.086 373.356 153.502 373.356 154.36V158H375.085V153.898C375.085 152.468 374.48 151.474 372.946 151.474ZM382.286 154.704C382.286 152.735 381.142 151.474 379.264 151.474C377.34 151.474 376.118 152.897 376.118 154.802C376.118 156.745 377.294 158.124 379.316 158.124C380.798 158.124 381.877 157.421 382.169 156.043L380.7 155.816C380.538 156.401 380.089 156.693 379.309 156.693C378.49 156.693 377.983 156.206 377.847 155.276H382.254C382.28 155.055 382.286 154.88 382.286 154.704ZM379.264 152.884C379.992 152.884 380.499 153.313 380.57 154.178H377.86C378.009 153.333 378.516 152.884 379.264 152.884ZM384.916 152.93L384.896 151.597H383.369V157.993H385.098V155.114C385.098 153.651 386.138 153.151 387.269 153.385V151.506C386.086 151.298 385.273 151.909 384.916 152.93Z" fill="black"/>
<ellipse cx="294" cy="166" rx="25" ry="24" fill="#C4C4C4"/>
<rect x="330" y="166" width="73" height="3" rx="1.5" fill="#C4C4C4"/>
<path d="M103.544 243.124C105.76 243.124 107.145 241.979 107.333 239.86L105.5 239.613C105.286 241.115 104.525 241.537 103.505 241.537C102.042 241.537 101.347 240.452 101.347 238.775C101.347 237.098 102.042 236.012 103.505 236.012C104.525 236.012 105.292 236.48 105.5 237.936L107.333 237.689C107.171 235.57 105.76 234.426 103.544 234.426C100.898 234.426 99.39 236.194 99.39 238.775C99.39 241.355 100.898 243.124 103.544 243.124ZM112.596 236.597V239.737C112.596 240.965 112.031 241.55 111.199 241.55C110.477 241.55 110.152 241.141 110.152 240.263V236.597H108.41V240.692C108.41 242.135 109.086 243.117 110.705 243.117C111.771 243.117 112.453 242.61 112.772 241.752L112.869 243H114.338V236.597H112.596ZM118.465 243.124C120.071 243.124 121.078 242.35 121.078 241.141C121.085 239.951 120.279 239.522 118.563 239.145C117.581 238.931 117.334 238.742 117.334 238.372C117.334 238.034 117.588 237.793 118.225 237.793C118.914 237.793 119.343 238.112 119.421 238.879L121 238.736C120.916 237.364 120.11 236.474 118.218 236.474C116.769 236.474 115.677 237.176 115.67 238.469C115.664 239.652 116.424 240.153 118.212 240.523C119.057 240.692 119.388 240.816 119.388 241.225C119.388 241.602 119.109 241.804 118.452 241.804C117.705 241.804 117.191 241.524 117.094 240.725L115.449 240.874C115.566 242.447 116.853 243.124 118.465 243.124ZM126.176 241.42C125.91 241.511 125.669 241.557 125.37 241.557C124.714 241.557 124.499 241.199 124.499 240.556V238.066H126.313V236.597H124.499V234.602L122.757 234.849V236.597H121.672V238.066H122.757V240.79C122.757 242.246 123.466 243.085 125.039 243.085C125.565 243.085 126.014 243.013 126.449 242.87L126.176 241.42ZM130.271 243.124C132.338 243.124 133.547 241.745 133.547 239.795C133.547 237.852 132.338 236.474 130.271 236.474C128.198 236.474 126.989 237.852 126.989 239.795C126.989 241.745 128.198 243.124 130.271 243.124ZM130.271 241.576C129.322 241.576 128.711 240.894 128.711 239.795C128.711 238.703 129.322 238.027 130.271 238.027C131.214 238.027 131.818 238.703 131.818 239.795C131.818 240.894 131.214 241.576 130.271 241.576ZM141.946 236.474C140.971 236.474 140.354 236.929 140.035 237.696C139.762 236.935 139.151 236.474 138.092 236.474C137.084 236.474 136.467 236.955 136.168 237.767L136.155 236.597H134.621V243H136.356V239.899C136.356 238.677 136.824 238.086 137.591 238.086C138.228 238.086 138.488 238.495 138.488 239.36V243H140.217V239.886L140.224 239.899C140.224 238.677 140.692 238.086 141.459 238.086C142.096 238.086 142.356 238.502 142.356 239.36V243H144.085V238.898C144.085 237.468 143.48 236.474 141.946 236.474ZM151.286 239.704C151.286 237.735 150.142 236.474 148.264 236.474C146.34 236.474 145.118 237.897 145.118 239.802C145.118 241.745 146.294 243.124 148.316 243.124C149.798 243.124 150.877 242.421 151.169 241.043L149.7 240.816C149.538 241.401 149.089 241.693 148.309 241.693C147.49 241.693 146.983 241.206 146.847 240.276H151.254C151.28 240.055 151.286 239.88 151.286 239.704ZM148.264 237.884C148.992 237.884 149.499 238.313 149.57 239.178H146.86C147.009 238.333 147.516 237.884 148.264 237.884ZM153.916 237.93L153.896 236.597H152.369V242.993H154.098V240.114C154.098 238.651 155.138 238.151 156.269 238.385V236.506C155.086 236.298 154.273 236.909 153.916 237.93Z" fill="black"/>
<ellipse cx="63" cy="251" rx="25" ry="24" fill="#C4C4C4"/>
<rect x="99" y="251" width="73" height="3" rx="1.5" fill="#C4C4C4"/>
<path d="M65.5435 129.124C67.76 129.124 69.1445 127.979 69.333 125.86L67.5 125.613C67.2855 127.115 66.525 127.537 65.5045 127.537C64.042 127.537 63.3465 126.452 63.3465 124.775C63.3465 123.098 64.042 122.012 65.5045 122.012C66.525 122.012 67.292 122.48 67.5 123.936L69.333 123.689C69.1705 121.57 67.76 120.426 65.5435 120.426C62.898 120.426 61.39 122.194 61.39 124.775C61.39 127.355 62.898 129.124 65.5435 129.124ZM74.5964 122.597V125.737C74.5964 126.965 74.0309 127.55 73.1989 127.55C72.4774 127.55 72.1524 127.141 72.1524 126.263V122.597H70.4104V126.692C70.4104 128.135 71.0864 129.117 72.7049 129.117C73.7709 129.117 74.4534 128.61 74.7719 127.752L74.8694 129H76.3384V122.597H74.5964ZM80.4653 129.124C82.0708 129.124 83.0783 128.35 83.0783 127.141C83.0848 125.951 82.2788 125.522 80.5628 125.145C79.5813 124.931 79.3343 124.742 79.3343 124.372C79.3343 124.034 79.5878 123.793 80.2248 123.793C80.9138 123.793 81.3428 124.112 81.4208 124.879L83.0003 124.736C82.9158 123.364 82.1098 122.474 80.2183 122.474C78.7688 122.474 77.6768 123.176 77.6703 124.469C77.6638 125.652 78.4243 126.153 80.2118 126.523C81.0568 126.692 81.3883 126.816 81.3883 127.225C81.3883 127.602 81.1088 127.804 80.4523 127.804C79.7048 127.804 79.1913 127.524 79.0938 126.725L77.4493 126.874C77.5663 128.447 78.8533 129.124 80.4653 129.124ZM88.1761 127.42C87.9096 127.511 87.6691 127.557 87.3701 127.557C86.7136 127.557 86.4991 127.199 86.4991 126.556V124.066H88.3126V122.597H86.4991V120.602L84.7571 120.849V122.597H83.6716V124.066H84.7571V126.79C84.7571 128.246 85.4656 129.085 87.0386 129.085C87.5651 129.085 88.0136 129.013 88.4491 128.87L88.1761 127.42ZM92.2712 129.124C94.3382 129.124 95.5472 127.745 95.5472 125.795C95.5472 123.852 94.3382 122.474 92.2712 122.474C90.1977 122.474 88.9887 123.852 88.9887 125.795C88.9887 127.745 90.1977 129.124 92.2712 129.124ZM92.2712 127.576C91.3222 127.576 90.7112 126.894 90.7112 125.795C90.7112 124.703 91.3222 124.027 92.2712 124.027C93.2137 124.027 93.8182 124.703 93.8182 125.795C93.8182 126.894 93.2137 127.576 92.2712 127.576ZM103.946 122.474C102.971 122.474 102.354 122.929 102.035 123.696C101.762 122.935 101.151 122.474 100.092 122.474C99.0844 122.474 98.4669 122.955 98.1679 123.767L98.1549 122.597H96.6209V129H98.3564V125.899C98.3564 124.677 98.8244 124.086 99.5914 124.086C100.228 124.086 100.488 124.495 100.488 125.36V129H102.217V125.886L102.224 125.899C102.224 124.677 102.692 124.086 103.459 124.086C104.096 124.086 104.356 124.502 104.356 125.36V129H106.085V124.898C106.085 123.468 105.48 122.474 103.946 122.474ZM113.286 125.704C113.286 123.735 112.142 122.474 110.264 122.474C108.34 122.474 107.118 123.897 107.118 125.802C107.118 127.745 108.294 129.124 110.316 129.124C111.798 129.124 112.877 128.421 113.169 127.043L111.7 126.816C111.538 127.401 111.089 127.693 110.309 127.693C109.49 127.693 108.983 127.206 108.847 126.276H113.254C113.28 126.055 113.286 125.88 113.286 125.704ZM110.264 123.884C110.992 123.884 111.499 124.313 111.57 125.178H108.86C109.009 124.333 109.516 123.884 110.264 123.884ZM115.916 123.93L115.896 122.597H114.369V128.993H116.098V126.114C116.098 124.651 117.138 124.151 118.269 124.385V122.506C117.086 122.298 116.273 122.909 115.916 123.93Z" fill="black"/>
<ellipse cx="25" cy="137" rx="25" ry="24" fill="#C4C4C4"/>
<rect x="61" y="137" width="73" height="3" rx="1.5" fill="#C4C4C4"/>
<path d="M375.544 66.1235C377.76 66.1235 379.145 64.9795 379.333 62.8605L377.5 62.6135C377.286 64.115 376.525 64.5375 375.505 64.5375C374.042 64.5375 373.347 63.452 373.347 61.775C373.347 60.098 374.042 59.0125 375.505 59.0125C376.525 59.0125 377.292 59.4805 377.5 60.9365L379.333 60.6895C379.171 58.5705 377.76 57.4265 375.544 57.4265C372.898 57.4265 371.39 59.1945 371.39 61.775C371.39 64.3555 372.898 66.1235 375.544 66.1235ZM384.596 59.5975V62.737C384.596 63.9655 384.031 64.5505 383.199 64.5505C382.477 64.5505 382.152 64.141 382.152 63.2635V59.5975H380.41V63.6925C380.41 65.1355 381.086 66.117 382.705 66.117C383.771 66.117 384.453 65.61 384.772 64.752L384.869 66H386.338V59.5975H384.596ZM390.465 66.1235C392.071 66.1235 393.078 65.35 393.078 64.141C393.085 62.9515 392.279 62.5225 390.563 62.1455C389.581 61.931 389.334 61.7425 389.334 61.372C389.334 61.034 389.588 60.7935 390.225 60.7935C390.914 60.7935 391.343 61.112 391.421 61.879L393 61.736C392.916 60.3645 392.11 59.474 390.218 59.474C388.769 59.474 387.677 60.176 387.67 61.4695C387.664 62.6525 388.424 63.153 390.212 63.5235C391.057 63.6925 391.388 63.816 391.388 64.2255C391.388 64.6025 391.109 64.804 390.452 64.804C389.705 64.804 389.191 64.5245 389.094 63.725L387.449 63.8745C387.566 65.4475 388.853 66.1235 390.465 66.1235ZM398.176 64.4205C397.91 64.5115 397.669 64.557 397.37 64.557C396.714 64.557 396.499 64.1995 396.499 63.556V61.0665H398.313V59.5975H396.499V57.602L394.757 57.849V59.5975H393.672V61.0665H394.757V63.79C394.757 65.246 395.466 66.0845 397.039 66.0845C397.565 66.0845 398.014 66.013 398.449 65.87L398.176 64.4205ZM402.271 66.1235C404.338 66.1235 405.547 64.7455 405.547 62.7955C405.547 60.852 404.338 59.474 402.271 59.474C400.198 59.474 398.989 60.852 398.989 62.7955C398.989 64.7455 400.198 66.1235 402.271 66.1235ZM402.271 64.5765C401.322 64.5765 400.711 63.894 400.711 62.7955C400.711 61.7035 401.322 61.0275 402.271 61.0275C403.214 61.0275 403.818 61.7035 403.818 62.7955C403.818 63.894 403.214 64.5765 402.271 64.5765ZM413.946 59.474C412.971 59.474 412.354 59.929 412.035 60.696C411.762 59.9355 411.151 59.474 410.092 59.474C409.084 59.474 408.467 59.955 408.168 60.7675L408.155 59.5975H406.621V66H408.356V62.8995C408.356 61.6775 408.824 61.086 409.591 61.086C410.228 61.086 410.488 61.4955 410.488 62.36V66H412.217V62.8865L412.224 62.8995C412.224 61.6775 412.692 61.086 413.459 61.086C414.096 61.086 414.356 61.502 414.356 62.36V66H416.085V61.8985C416.085 60.4685 415.48 59.474 413.946 59.474ZM423.286 62.7045C423.286 60.735 422.142 59.474 420.264 59.474C418.34 59.474 417.118 60.8975 417.118 62.802C417.118 64.7455 418.294 66.1235 420.316 66.1235C421.798 66.1235 422.877 65.4215 423.169 64.0435L421.7 63.816C421.538 64.401 421.089 64.6935 420.309 64.6935C419.49 64.6935 418.983 64.206 418.847 63.2765H423.254C423.28 63.0555 423.286 62.88 423.286 62.7045ZM420.264 60.8845C420.992 60.8845 421.499 61.3135 421.57 62.178H418.86C419.009 61.333 419.516 60.8845 420.264 60.8845ZM425.916 60.93L425.896 59.5975H424.369V65.9935H426.098V63.114C426.098 61.6515 427.138 61.151 428.269 61.385V59.5065C427.086 59.2985 426.273 59.9095 425.916 60.93Z" fill="black"/>
<ellipse cx="335" cy="74" rx="25" ry="24" fill="#C4C4C4"/>
<rect x="371" y="74" width="73" height="3" rx="1.5" fill="#C4C4C4"/>
<path d="M347.544 270.124C349.76 270.124 351.145 268.979 351.333 266.86L349.5 266.613C349.286 268.115 348.525 268.537 347.505 268.537C346.042 268.537 345.347 267.452 345.347 265.775C345.347 264.098 346.042 263.012 347.505 263.012C348.525 263.012 349.292 263.48 349.5 264.936L351.333 264.689C351.171 262.57 349.76 261.426 347.544 261.426C344.898 261.426 343.39 263.194 343.39 265.775C343.39 268.355 344.898 270.124 347.544 270.124ZM356.596 263.597V266.737C356.596 267.965 356.031 268.55 355.199 268.55C354.477 268.55 354.152 268.141 354.152 267.263V263.597H352.41V267.692C352.41 269.135 353.086 270.117 354.705 270.117C355.771 270.117 356.453 269.61 356.772 268.752L356.869 270H358.338V263.597H356.596ZM362.465 270.124C364.071 270.124 365.078 269.35 365.078 268.141C365.085 266.951 364.279 266.522 362.563 266.145C361.581 265.931 361.334 265.742 361.334 265.372C361.334 265.034 361.588 264.793 362.225 264.793C362.914 264.793 363.343 265.112 363.421 265.879L365 265.736C364.916 264.364 364.11 263.474 362.218 263.474C360.769 263.474 359.677 264.176 359.67 265.469C359.664 266.652 360.424 267.153 362.212 267.523C363.057 267.692 363.388 267.816 363.388 268.225C363.388 268.602 363.109 268.804 362.452 268.804C361.705 268.804 361.191 268.524 361.094 267.725L359.449 267.874C359.566 269.447 360.853 270.124 362.465 270.124ZM370.176 268.42C369.91 268.511 369.669 268.557 369.37 268.557C368.714 268.557 368.499 268.199 368.499 267.556V265.066H370.313V263.597H368.499V261.602L366.757 261.849V263.597H365.672V265.066H366.757V267.79C366.757 269.246 367.466 270.085 369.039 270.085C369.565 270.085 370.014 270.013 370.449 269.87L370.176 268.42ZM374.271 270.124C376.338 270.124 377.547 268.745 377.547 266.795C377.547 264.852 376.338 263.474 374.271 263.474C372.198 263.474 370.989 264.852 370.989 266.795C370.989 268.745 372.198 270.124 374.271 270.124ZM374.271 268.576C373.322 268.576 372.711 267.894 372.711 266.795C372.711 265.703 373.322 265.027 374.271 265.027C375.214 265.027 375.818 265.703 375.818 266.795C375.818 267.894 375.214 268.576 374.271 268.576ZM385.946 263.474C384.971 263.474 384.354 263.929 384.035 264.696C383.762 263.935 383.151 263.474 382.092 263.474C381.084 263.474 380.467 263.955 380.168 264.767L380.155 263.597H378.621V270H380.356V266.899C380.356 265.677 380.824 265.086 381.591 265.086C382.228 265.086 382.488 265.495 382.488 266.36V270H384.217V266.886L384.224 266.899C384.224 265.677 384.692 265.086 385.459 265.086C386.096 265.086 386.356 265.502 386.356 266.36V270H388.085V265.898C388.085 264.468 387.48 263.474 385.946 263.474ZM395.286 266.704C395.286 264.735 394.142 263.474 392.264 263.474C390.34 263.474 389.118 264.897 389.118 266.802C389.118 268.745 390.294 270.124 392.316 270.124C393.798 270.124 394.877 269.421 395.169 268.043L393.7 267.816C393.538 268.401 393.089 268.693 392.309 268.693C391.49 268.693 390.983 268.206 390.847 267.276H395.254C395.28 267.055 395.286 266.88 395.286 266.704ZM392.264 264.884C392.992 264.884 393.499 265.313 393.57 266.178H390.86C391.009 265.333 391.516 264.884 392.264 264.884ZM397.916 264.93L397.896 263.597H396.369V269.993H398.098V267.114C398.098 265.651 399.138 265.151 400.269 265.385V263.506C399.086 263.298 398.273 263.909 397.916 264.93Z" fill="black"/>
<ellipse cx="307" cy="278" rx="25" ry="24" fill="#C4C4C4"/>
<rect x="343" y="278" width="73" height="3" rx="1.5" fill="#C4C4C4"/>
<path d="M231.544 348.124C233.76 348.124 235.145 346.979 235.333 344.86L233.5 344.613C233.286 346.115 232.525 346.537 231.505 346.537C230.042 346.537 229.347 345.452 229.347 343.775C229.347 342.098 230.042 341.012 231.505 341.012C232.525 341.012 233.292 341.48 233.5 342.936L235.333 342.689C235.171 340.57 233.76 339.426 231.544 339.426C228.898 339.426 227.39 341.194 227.39 343.775C227.39 346.355 228.898 348.124 231.544 348.124ZM240.596 341.597V344.737C240.596 345.965 240.031 346.55 239.199 346.55C238.477 346.55 238.152 346.141 238.152 345.263V341.597H236.41V345.692C236.41 347.135 237.086 348.117 238.705 348.117C239.771 348.117 240.453 347.61 240.772 346.752L240.869 348H242.338V341.597H240.596ZM246.465 348.124C248.071 348.124 249.078 347.35 249.078 346.141C249.085 344.951 248.279 344.522 246.563 344.145C245.581 343.931 245.334 343.742 245.334 343.372C245.334 343.034 245.588 342.793 246.225 342.793C246.914 342.793 247.343 343.112 247.421 343.879L249 343.736C248.916 342.364 248.11 341.474 246.218 341.474C244.769 341.474 243.677 342.176 243.67 343.469C243.664 344.652 244.424 345.153 246.212 345.523C247.057 345.692 247.388 345.816 247.388 346.225C247.388 346.602 247.109 346.804 246.452 346.804C245.705 346.804 245.191 346.524 245.094 345.725L243.449 345.874C243.566 347.447 244.853 348.124 246.465 348.124ZM254.176 346.42C253.91 346.511 253.669 346.557 253.37 346.557C252.714 346.557 252.499 346.199 252.499 345.556V343.066H254.313V341.597H252.499V339.602L250.757 339.849V341.597H249.672V343.066H250.757V345.79C250.757 347.246 251.466 348.085 253.039 348.085C253.565 348.085 254.014 348.013 254.449 347.87L254.176 346.42ZM258.271 348.124C260.338 348.124 261.547 346.745 261.547 344.795C261.547 342.852 260.338 341.474 258.271 341.474C256.198 341.474 254.989 342.852 254.989 344.795C254.989 346.745 256.198 348.124 258.271 348.124ZM258.271 346.576C257.322 346.576 256.711 345.894 256.711 344.795C256.711 343.703 257.322 343.027 258.271 343.027C259.214 343.027 259.818 343.703 259.818 344.795C259.818 345.894 259.214 346.576 258.271 346.576ZM269.946 341.474C268.971 341.474 268.354 341.929 268.035 342.696C267.762 341.935 267.151 341.474 266.092 341.474C265.084 341.474 264.467 341.955 264.168 342.767L264.155 341.597H262.621V348H264.356V344.899C264.356 343.677 264.824 343.086 265.591 343.086C266.228 343.086 266.488 343.495 266.488 344.36V348H268.217V344.886L268.224 344.899C268.224 343.677 268.692 343.086 269.459 343.086C270.096 343.086 270.356 343.502 270.356 344.36V348H272.085V343.898C272.085 342.468 271.48 341.474 269.946 341.474ZM279.286 344.704C279.286 342.735 278.142 341.474 276.264 341.474C274.34 341.474 273.118 342.897 273.118 344.802C273.118 346.745 274.294 348.124 276.316 348.124C277.798 348.124 278.877 347.421 279.169 346.043L277.7 345.816C277.538 346.401 277.089 346.693 276.309 346.693C275.49 346.693 274.983 346.206 274.847 345.276H279.254C279.28 345.055 279.286 344.88 279.286 344.704ZM276.264 342.884C276.992 342.884 277.499 343.313 277.57 344.178H274.86C275.009 343.333 275.516 342.884 276.264 342.884ZM281.916 342.93L281.896 341.597H280.369V347.993H282.098V345.114C282.098 343.651 283.138 343.151 284.269 343.385V341.506C283.086 341.298 282.273 341.909 281.916 342.93Z" fill="black"/>
<ellipse cx="191" cy="356" rx="25" ry="24" fill="#C4C4C4"/>
<rect x="227" y="356" width="73" height="3" rx="1.5" fill="#C4C4C4"/>
<path d="M284.964 60.4982C285.621 59.8291 285.621 58.7446 284.964 58.0755C284.307 57.4064 283.243 57.4064 282.586 58.0755C281.929 58.7446 281.929 59.8291 282.586 60.4982C283.243 61.1673 284.307 61.1673 284.964 60.4982ZM277 19.8406C277 30.2299 285.298 38.6845 295.498 38.6845C305.699 38.6845 314 30.2299 314 19.8406C314 9.45124 305.699 1 295.498 1C285.298 1 277 9.45124 277 19.8406Z" fill="#5375FF"/>
<path d="M284.964 60.4982C285.621 59.8291 285.621 58.7446 284.964 58.0755C284.307 57.4064 283.243 57.4064 282.586 58.0755C281.929 58.7446 281.929 59.8291 282.586 60.4982C283.243 61.1673 284.307 61.1673 284.964 60.4982ZM277 19.8406C277 30.2299 285.298 38.6845 295.498 38.6845C305.699 38.6845 314 30.2299 314 19.8406C314 9.45124 305.699 1 295.498 1C285.298 1 277 9.45124 277 19.8406Z" fill="#5375FF"/>
<path d="M293.745 9.71523V11.7273C291.634 12.4332 290.116 14.3397 290.116 16.5761C290.116 19.4096 292.559 21.7152 295.56 21.7152C296.558 21.7152 297.371 22.4838 297.371 23.4305C297.371 24.3738 296.558 25.1457 295.556 25.1457C294.782 25.1457 293.948 24.6839 293.204 23.8461C292.559 23.1204 291.414 23.028 290.647 23.6383C289.879 24.2485 289.781 25.3271 290.427 26.0528C291.397 27.1413 292.538 27.8999 293.742 28.2859V30.2848C293.742 31.2347 294.555 32 295.556 32C296.558 32 297.371 31.2347 297.371 30.2848V28.2793C299.482 27.5701 301 25.6636 301 23.4305C301 20.5937 298.557 18.2848 295.556 18.2848C294.558 18.2848 293.742 17.5195 293.742 16.5728C293.742 15.6295 294.558 14.8576 295.556 14.8576C296.202 14.8576 296.879 15.1677 297.517 15.7548C298.24 16.4145 299.388 16.3947 300.082 15.7152C300.78 15.0357 300.759 13.9505 300.04 13.2908C299.119 12.4497 298.201 11.9714 297.371 11.7141V9.71523C297.371 8.76855 296.558 8 295.556 8C294.555 8 293.742 8.76855 293.742 9.71523H293.745Z" fill="#FBFBFB"/>
<path d="M49.9644 101.498C50.6214 100.829 50.6214 99.7446 49.9644 99.0755C49.3074 98.4064 48.2427 98.4064 47.5858 99.0755C46.9288 99.7446 46.9288 100.829 47.5858 101.498C48.2427 102.167 49.3074 102.167 49.9644 101.498ZM42 60.8406C42 71.2299 50.2977 79.6845 60.4984 79.6845C70.699 79.6845 79 71.2299 79 60.8406C79 50.4512 70.699 42 60.4984 42C50.2977 42 42 50.4512 42 60.8406Z" fill="#5375FF"/>
<path d="M58.7453 50.7152V52.7273C56.6341 53.4332 55.1162 55.3397 55.1162 57.5761C55.1162 60.4096 57.5588 62.7152 60.5598 62.7152C61.5578 62.7152 62.3709 63.4838 62.3709 64.4305C62.3709 65.3738 61.5578 66.1457 60.5563 66.1457C59.7817 66.1457 58.9477 65.6839 58.2044 64.8461C57.5588 64.1204 56.4143 64.028 55.6466 64.6383C54.8789 65.2485 54.7812 66.3271 55.4267 67.0528C56.3968 68.1413 57.5379 68.8999 58.7418 69.2859V71.2848C58.7418 72.2347 59.5548 73 60.5563 73C61.5578 73 62.3709 72.2347 62.3709 71.2848V69.2793C64.4821 68.5701 66 66.6636 66 64.4305C66 61.5937 63.5573 59.2848 60.5563 59.2848C59.5583 59.2848 58.7418 58.5195 58.7418 57.5728C58.7418 56.6295 59.5583 55.8576 60.5563 55.8576C61.2019 55.8576 61.8789 56.1677 62.5175 56.7548C63.2398 57.4145 64.3878 57.3947 65.0823 56.7152C65.7802 56.0357 65.7592 54.9505 65.0404 54.2908C64.1191 53.4497 63.2014 52.9714 62.3709 52.7141V50.7152C62.3709 49.7686 61.5578 49 60.5563 49C59.5548 49 58.7418 49.7686 58.7418 50.7152H58.7453Z" fill="#FBFBFB"/>
<path d="M210.964 242.498C211.621 241.829 211.621 240.745 210.964 240.076C210.307 239.406 209.243 239.406 208.586 240.076C207.929 240.745 207.929 241.829 208.586 242.498C209.243 243.167 210.307 243.167 210.964 242.498ZM203 201.841C203 212.23 211.298 220.684 221.498 220.684C231.699 220.684 240 212.23 240 201.841C240 191.451 231.699 183 221.498 183C211.298 183 203 191.451 203 201.841Z" fill="#5375FF"/>
<path d="M219.745 191.715V193.727C217.634 194.433 216.116 196.34 216.116 198.576C216.116 201.41 218.559 203.715 221.56 203.715C222.558 203.715 223.371 204.484 223.371 205.43C223.371 206.374 222.558 207.146 221.556 207.146C220.782 207.146 219.948 206.684 219.204 205.846C218.559 205.12 217.414 205.028 216.647 205.638C215.879 206.248 215.781 207.327 216.427 208.053C217.397 209.141 218.538 209.9 219.742 210.286V212.285C219.742 213.235 220.555 214 221.556 214C222.558 214 223.371 213.235 223.371 212.285V210.279C225.482 209.57 227 207.664 227 205.43C227 202.594 224.557 200.285 221.556 200.285C220.558 200.285 219.742 199.52 219.742 198.573C219.742 197.629 220.558 196.858 221.556 196.858C222.202 196.858 222.879 197.168 223.517 197.755C224.24 198.415 225.388 198.395 226.082 197.715C226.78 197.036 226.759 195.951 226.04 195.291C225.119 194.45 224.201 193.971 223.371 193.714V191.715C223.371 190.769 222.558 190 221.556 190C220.555 190 219.742 190.769 219.742 191.715H219.745Z" fill="#FBFBFB"/>
<path d="M126.964 342.498C127.621 341.829 127.621 340.745 126.964 340.076C126.307 339.406 125.243 339.406 124.586 340.076C123.929 340.745 123.929 341.829 124.586 342.498C125.243 343.167 126.307 343.167 126.964 342.498ZM119 301.841C119 312.23 127.298 320.684 137.498 320.684C147.699 320.684 156 312.23 156 301.841C156 291.451 147.699 283 137.498 283C127.298 283 119 291.451 119 301.841Z" fill="#5375FF"/>
<path d="M135.745 291.715V293.727C133.634 294.433 132.116 296.34 132.116 298.576C132.116 301.41 134.559 303.715 137.56 303.715C138.558 303.715 139.371 304.484 139.371 305.43C139.371 306.374 138.558 307.146 137.556 307.146C136.782 307.146 135.948 306.684 135.204 305.846C134.559 305.12 133.414 305.028 132.647 305.638C131.879 306.248 131.781 307.327 132.427 308.053C133.397 309.141 134.538 309.9 135.742 310.286V312.285C135.742 313.235 136.555 314 137.556 314C138.558 314 139.371 313.235 139.371 312.285V310.279C141.482 309.57 143 307.664 143 305.43C143 302.594 140.557 300.285 137.556 300.285C136.558 300.285 135.742 299.52 135.742 298.573C135.742 297.629 136.558 296.858 137.556 296.858C138.202 296.858 138.879 297.168 139.517 297.755C140.24 298.415 141.388 298.395 142.082 297.715C142.78 297.036 142.759 295.951 142.04 295.291C141.119 294.45 140.201 293.971 139.371 293.714V291.715C139.371 290.769 138.558 290 137.556 290C136.555 290 135.742 290.769 135.742 291.715H135.745Z" fill="#FBFBFB"/>
<path d="M239.964 337.498C240.621 336.829 240.621 335.745 239.964 335.076C239.307 334.406 238.243 334.406 237.586 335.076C236.929 335.745 236.929 336.829 237.586 337.498C238.243 338.167 239.307 338.167 239.964 337.498ZM232 296.841C232 307.23 240.298 315.684 250.498 315.684C260.699 315.684 269 307.23 269 296.841C269 286.451 260.699 278 250.498 278C240.298 278 232 286.451 232 296.841Z" fill="#5375FF"/>
<path d="M248.745 286.715V288.727C246.634 289.433 245.116 291.34 245.116 293.576C245.116 296.41 247.559 298.715 250.56 298.715C251.558 298.715 252.371 299.484 252.371 300.43C252.371 301.374 251.558 302.146 250.556 302.146C249.782 302.146 248.948 301.684 248.204 300.846C247.559 300.12 246.414 300.028 245.647 300.638C244.879 301.248 244.781 302.327 245.427 303.053C246.397 304.141 247.538 304.9 248.742 305.286V307.285C248.742 308.235 249.555 309 250.556 309C251.558 309 252.371 308.235 252.371 307.285V305.279C254.482 304.57 256 302.664 256 300.43C256 297.594 253.557 295.285 250.556 295.285C249.558 295.285 248.742 294.52 248.742 293.573C248.742 292.629 249.558 291.858 250.556 291.858C251.202 291.858 251.879 292.168 252.517 292.755C253.24 293.415 254.388 293.395 255.082 292.715C255.78 292.036 255.759 290.951 255.04 290.291C254.119 289.45 253.201 288.971 252.371 288.714V286.715C252.371 285.769 251.558 285 250.556 285C249.555 285 248.742 285.769 248.742 286.715H248.745Z" fill="#FBFBFB"/>
<path d="M224.964 140.498C225.621 139.829 225.621 138.745 224.964 138.076C224.307 137.406 223.243 137.406 222.586 138.076C221.929 138.745 221.929 139.829 222.586 140.498C223.243 141.167 224.307 141.167 224.964 140.498ZM217 99.8406C217 110.23 225.298 118.684 235.498 118.684C245.699 118.684 254 110.23 254 99.8406C254 89.4512 245.699 81 235.498 81C225.298 81 217 89.4512 217 99.8406Z" fill="#5375FF"/>
<path d="M233.745 89.7152V91.7273C231.634 92.4332 230.116 94.3397 230.116 96.5761C230.116 99.4096 232.559 101.715 235.56 101.715C236.558 101.715 237.371 102.484 237.371 103.43C237.371 104.374 236.558 105.146 235.556 105.146C234.782 105.146 233.948 104.684 233.204 103.846C232.559 103.12 231.414 103.028 230.647 103.638C229.879 104.248 229.781 105.327 230.427 106.053C231.397 107.141 232.538 107.9 233.742 108.286V110.285C233.742 111.235 234.555 112 235.556 112C236.558 112 237.371 111.235 237.371 110.285V108.279C239.482 107.57 241 105.664 241 103.43C241 100.594 238.557 98.2848 235.556 98.2848C234.558 98.2848 233.742 97.5195 233.742 96.5728C233.742 95.6295 234.558 94.8576 235.556 94.8576C236.202 94.8576 236.879 95.1677 237.517 95.7548C238.24 96.4145 239.388 96.3947 240.082 95.7152C240.78 95.0357 240.759 93.9505 240.04 93.2908C239.119 92.4497 238.201 91.9714 237.371 91.7141V89.7152C237.371 88.7686 236.558 88 235.556 88C234.555 88 233.742 88.7686 233.742 89.7152H233.745Z" fill="#FBFBFB"/>
<path d="M35.092 61.796H31.84V58.436H28.984V61.796H25.732V64.628H28.984V67.988H31.84V64.628H35.092V61.796Z" fill="#5375FF"/>
<path d="M207.092 98.796H203.84V95.436H200.984V98.796H197.732V101.628H200.984V104.988H203.84V101.628H207.092V98.796Z" fill="#5375FF"/>
<path d="M268.092 14.796H264.84V11.436H261.984V14.796H258.732V17.628H261.984V20.988H264.84V17.628H268.092V14.796Z" fill="#5375FF"/>
<path d="M194.092 201.796H190.84V198.436H187.984V201.796H184.732V204.628H187.984V207.988H190.84V204.628H194.092V201.796Z" fill="#5375FF"/>
<path d="M112.092 301.796H108.84V298.436H105.984V301.796H102.732V304.628H105.984V307.988H108.84V304.628H112.092V301.796Z" fill="#5375FF"/>
<path d="M226.092 297.796H222.84V294.436H219.984V297.796H216.732V300.628H219.984V303.988H222.84V300.628H226.092V297.796Z" fill="#5375FF"/>
</svg>
