<svg width="465" height="380" viewBox="0 0 465 380" fill="none" xmlns="http://www.w3.org/2000/svg">
<path d="M292.5 178.5L313.5 277.5" stroke="black"/>
<path d="M298.5 296.5L194.5 348" stroke="black"/>
<path d="M181 349L283 176" stroke="black"/>
<path d="M76.5 269.5L172 346.5" stroke="black"/>
<path d="M28.5 154L55.5 238.5" stroke="black"/>
<path d="M33 146L279 164.5" stroke="black"/>
<path d="M124.5 61.5L25 127.5" stroke="black"/>
<path d="M140.5 63.5L293.5 160" stroke="black"/>
<path d="M295 275.5L28.5 139" stroke="black"/>
<path d="M327 83.5L295.5 162" stroke="black"/>
<path d="M170.544 42.1235C172.76 42.1235 174.145 40.9795 174.333 38.8605L172.5 38.6135C172.286 40.115 171.525 40.5375 170.505 40.5375C169.042 40.5375 168.347 39.452 168.347 37.775C168.347 36.098 169.042 35.0125 170.505 35.0125C171.525 35.0125 172.292 35.4805 172.5 36.9365L174.333 36.6895C174.171 34.5705 172.76 33.4265 170.544 33.4265C167.898 33.4265 166.39 35.1945 166.39 37.775C166.39 40.3555 167.898 42.1235 170.544 42.1235ZM178.368 42.1235C180.435 42.1235 181.644 40.7455 181.644 38.7955C181.644 36.852 180.435 35.474 178.368 35.474C176.294 35.474 175.085 36.852 175.085 38.7955C175.085 40.7455 176.294 42.1235 178.368 42.1235ZM178.368 40.5765C177.419 40.5765 176.808 39.894 176.808 38.7955C176.808 37.7035 177.419 37.0275 178.368 37.0275C179.31 37.0275 179.915 37.7035 179.915 38.7955C179.915 39.894 179.31 40.5765 178.368 40.5765ZM186.351 35.474C185.279 35.474 184.596 35.994 184.278 36.865L184.265 35.5975H182.718V42H184.46V38.919C184.46 37.697 185.025 37.1055 185.857 37.1055C186.585 37.1055 186.904 37.515 186.904 38.3925V42H188.646V37.905C188.646 36.4555 187.97 35.474 186.351 35.474ZM194.014 40.4205C193.747 40.5115 193.507 40.557 193.208 40.557C192.551 40.557 192.337 40.1995 192.337 39.556V37.0665H194.15V35.5975H192.337V33.602L190.595 33.849V35.5975H189.509V37.0665H190.595V39.79C190.595 41.246 191.303 42.0845 192.876 42.0845C193.403 42.0845 193.851 42.013 194.287 41.87L194.014 40.4205ZM200.995 38.7045C200.995 36.735 199.851 35.474 197.973 35.474C196.049 35.474 194.827 36.8975 194.827 38.802C194.827 40.7455 196.003 42.1235 198.025 42.1235C199.507 42.1235 200.586 41.4215 200.878 40.0435L199.409 39.816C199.247 40.401 198.798 40.6935 198.018 40.6935C197.199 40.6935 196.692 40.206 196.556 39.2765H200.963C200.989 39.0555 200.995 38.88 200.995 38.7045ZM197.973 36.8845C198.701 36.8845 199.208 37.3135 199.279 38.178H196.569C196.718 37.333 197.225 36.8845 197.973 36.8845ZM205.711 35.474C204.639 35.474 203.956 35.994 203.638 36.865L203.625 35.5975H202.078V42H203.82V38.919C203.82 37.697 204.385 37.1055 205.217 37.1055C205.945 37.1055 206.264 37.515 206.264 38.3925V42H208.006V37.905C208.006 36.4555 207.33 35.474 205.711 35.474ZM213.374 40.4205C213.108 40.5115 212.867 40.557 212.568 40.557C211.912 40.557 211.697 40.1995 211.697 39.556V37.0665H213.511V35.5975H211.697V33.602L209.955 33.849V35.5975H208.87V37.0665H209.955V39.79C209.955 41.246 210.664 42.0845 212.237 42.0845C212.763 42.0845 213.212 42.013 213.647 41.87L213.374 40.4205ZM219.823 42.1235C221.416 42.1235 222.592 41.4085 222.891 39.6275L221.234 39.4585C221.084 40.2255 220.603 40.6285 219.843 40.6285C218.868 40.6285 218.335 39.894 218.335 38.7955C218.335 37.7035 218.868 36.969 219.843 36.969C220.603 36.969 221.084 37.372 221.234 38.1325L222.891 37.97C222.592 36.189 221.416 35.474 219.823 35.474C217.795 35.474 216.586 36.865 216.586 38.7955C216.586 40.7325 217.795 42.1235 219.823 42.1235ZM225.499 36.93L225.479 35.5975H223.952V41.9935H225.681V39.114C225.681 37.6515 226.721 37.151 227.852 37.385V35.5065C226.669 35.2985 225.856 35.9095 225.499 36.93ZM234.473 38.7045C234.473 36.735 233.329 35.474 231.45 35.474C229.526 35.474 228.304 36.8975 228.304 38.802C228.304 40.7455 229.481 42.1235 231.502 42.1235C232.984 42.1235 234.063 41.4215 234.356 40.0435L232.887 39.816C232.724 40.401 232.276 40.6935 231.496 40.6935C230.677 40.6935 230.17 40.206 230.033 39.2765H234.44C234.466 39.0555 234.473 38.88 234.473 38.7045ZM231.45 36.8845C232.178 36.8845 232.685 37.3135 232.757 38.178H230.046C230.196 37.333 230.703 36.8845 231.45 36.8845ZM241.586 40.57C241.248 40.57 241.163 40.4075 241.163 40.089V38.1455C241.163 36.9235 240.812 35.474 238.316 35.474C236.711 35.474 235.599 36.241 235.495 37.6905L237.166 37.8855C237.244 37.2095 237.614 36.891 238.323 36.891C239.2 36.891 239.46 37.411 239.46 38.126V38.3795C239.09 38.321 238.7 38.2885 238.277 38.2885C236.516 38.2885 235.281 38.789 235.281 40.141C235.281 41.285 236.067 42.117 237.465 42.117C238.524 42.117 239.298 41.727 239.649 41.0315C239.746 41.779 240.11 42.052 241.066 42.052C241.391 42.052 241.651 42.0325 241.937 41.961V40.544C241.813 40.5635 241.696 40.57 241.586 40.57ZM238.056 40.791C237.478 40.791 237.159 40.5505 237.159 40.076C237.159 39.595 237.588 39.3675 238.518 39.3675C238.849 39.3675 239.148 39.3935 239.46 39.452V40.1475C239.181 40.5505 238.661 40.791 238.056 40.791ZM246.611 40.4205C246.344 40.5115 246.104 40.557 245.805 40.557C245.148 40.557 244.934 40.1995 244.934 39.556V37.0665H246.747V35.5975H244.934V33.602L243.192 33.849V35.5975H242.106V37.0665H243.192V39.79C243.192 41.246 243.9 42.0845 245.473 42.0845C246 42.0845 246.448 42.013 246.884 41.87L246.611 40.4205ZM250.706 42.1235C252.773 42.1235 253.982 40.7455 253.982 38.7955C253.982 36.852 252.773 35.474 250.706 35.474C248.632 35.474 247.423 36.852 247.423 38.7955C247.423 40.7455 248.632 42.1235 250.706 42.1235ZM250.706 40.5765C249.757 40.5765 249.146 39.894 249.146 38.7955C249.146 37.7035 249.757 37.0275 250.706 37.0275C251.648 37.0275 252.253 37.7035 252.253 38.7955C252.253 39.894 251.648 40.5765 250.706 40.5765ZM256.602 36.93L256.583 35.5975H255.055V41.9935H256.784V39.114C256.784 37.6515 257.824 37.151 258.955 37.385V35.5065C257.772 35.2985 256.96 35.9095 256.602 36.93Z" fill="black"/>
<ellipse cx="130" cy="50" rx="25" ry="24" fill="#C4C4C4"/>
<rect x="166" y="50" width="73" height="3" rx="1.5" fill="#C4C4C4"/>
<path d="M334.544 158.124C336.76 158.124 338.145 156.979 338.333 154.86L336.5 154.613C336.286 156.115 335.525 156.537 334.505 156.537C333.042 156.537 332.347 155.452 332.347 153.775C332.347 152.098 333.042 151.012 334.505 151.012C335.525 151.012 336.292 151.48 336.5 152.936L338.333 152.689C338.171 150.57 336.76 149.426 334.544 149.426C331.898 149.426 330.39 151.194 330.39 153.775C330.39 156.355 331.898 158.124 334.544 158.124ZM342.368 158.124C344.435 158.124 345.644 156.745 345.644 154.795C345.644 152.852 344.435 151.474 342.368 151.474C340.294 151.474 339.085 152.852 339.085 154.795C339.085 156.745 340.294 158.124 342.368 158.124ZM342.368 156.576C341.419 156.576 340.808 155.894 340.808 154.795C340.808 153.703 341.419 153.027 342.368 153.027C343.31 153.027 343.915 153.703 343.915 154.795C343.915 155.894 343.31 156.576 342.368 156.576ZM354.043 151.474C353.068 151.474 352.451 151.929 352.132 152.696C351.859 151.935 351.248 151.474 350.189 151.474C349.181 151.474 348.564 151.955 348.265 152.767L348.252 151.597H346.718V158H348.453V154.899C348.453 153.677 348.921 153.086 349.688 153.086C350.325 153.086 350.585 153.495 350.585 154.36V158H352.314V154.886L352.321 154.899C352.321 153.677 352.789 153.086 353.556 153.086C354.193 153.086 354.453 153.502 354.453 154.36V158H356.182V153.898C356.182 152.468 355.577 151.474 354.043 151.474ZM361.251 151.48C360.23 151.48 359.554 151.903 359.19 152.702L359.164 151.597H357.585V160.451H359.327V157.116C359.71 157.766 360.347 158.124 361.251 158.124C362.973 158.124 364.078 156.804 364.078 154.795C364.078 152.793 362.973 151.48 361.251 151.48ZM360.841 156.583C359.899 156.583 359.268 155.861 359.268 154.795C359.268 153.736 359.899 153.04 360.841 153.04C361.79 153.04 362.323 153.716 362.323 154.795C362.323 155.881 361.79 156.583 360.841 156.583ZM371.143 156.57C370.805 156.57 370.721 156.407 370.721 156.089V154.145C370.721 152.923 370.37 151.474 367.874 151.474C366.268 151.474 365.157 152.241 365.053 153.69L366.723 153.885C366.801 153.209 367.172 152.891 367.88 152.891C368.758 152.891 369.018 153.411 369.018 154.126V154.379C368.647 154.321 368.257 154.288 367.835 154.288C366.073 154.288 364.838 154.789 364.838 156.141C364.838 157.285 365.625 158.117 367.022 158.117C368.082 158.117 368.855 157.727 369.206 157.031C369.304 157.779 369.668 158.052 370.623 158.052C370.948 158.052 371.208 158.033 371.494 157.961V156.544C371.371 156.563 371.254 156.57 371.143 156.57ZM367.614 156.791C367.035 156.791 366.717 156.55 366.717 156.076C366.717 155.595 367.146 155.367 368.075 155.367C368.407 155.367 368.706 155.393 369.018 155.452V156.147C368.738 156.55 368.218 156.791 367.614 156.791ZM376.034 151.474C374.961 151.474 374.279 151.994 373.96 152.865L373.947 151.597H372.4V158H374.142V154.919C374.142 153.697 374.708 153.105 375.54 153.105C376.268 153.105 376.586 153.515 376.586 154.392V158H378.328V153.905C378.328 152.455 377.652 151.474 376.034 151.474ZM383.794 151.597L382.793 155.432C382.67 155.907 382.559 156.355 382.455 156.778C382.345 156.336 382.228 155.861 382.111 155.419L381.103 151.597H379.134L381.227 158H381.974L381.922 158.163C381.643 159.001 380.915 159.209 379.491 158.845L379.192 160.34C381.116 160.815 382.904 160.412 383.619 158.163L385.764 151.597H383.794Z" fill="black"/>
<ellipse cx="294" cy="166" rx="25" ry="24" fill="#C4C4C4"/>
<rect x="330" y="166" width="73" height="3" rx="1.5" fill="#C4C4C4"/>
<path d="M103.544 243.124C105.76 243.124 107.145 241.979 107.333 239.86L105.5 239.613C105.286 241.115 104.525 241.537 103.505 241.537C102.042 241.537 101.347 240.452 101.347 238.775C101.347 237.098 102.042 236.012 103.505 236.012C104.525 236.012 105.292 236.48 105.5 237.936L107.333 237.689C107.171 235.57 105.76 234.426 103.544 234.426C100.898 234.426 99.39 236.194 99.39 238.775C99.39 241.355 100.898 243.124 103.544 243.124ZM111.368 243.124C113.435 243.124 114.644 241.745 114.644 239.795C114.644 237.852 113.435 236.474 111.368 236.474C109.294 236.474 108.085 237.852 108.085 239.795C108.085 241.745 109.294 243.124 111.368 243.124ZM111.368 241.576C110.419 241.576 109.808 240.894 109.808 239.795C109.808 238.703 110.419 238.027 111.368 238.027C112.31 238.027 112.915 238.703 112.915 239.795C112.915 240.894 112.31 241.576 111.368 241.576ZM123.043 236.474C122.068 236.474 121.451 236.929 121.132 237.696C120.859 236.935 120.248 236.474 119.189 236.474C118.181 236.474 117.564 236.955 117.265 237.767L117.252 236.597H115.718V243H117.453V239.899C117.453 238.677 117.921 238.086 118.688 238.086C119.325 238.086 119.585 238.495 119.585 239.36V243H121.314V239.886L121.321 239.899C121.321 238.677 121.789 238.086 122.556 238.086C123.193 238.086 123.453 238.502 123.453 239.36V243H125.182V238.898C125.182 237.468 124.577 236.474 123.043 236.474ZM130.251 236.48C129.23 236.48 128.554 236.903 128.19 237.702L128.164 236.597H126.585V245.451H128.327V242.116C128.71 242.766 129.347 243.124 130.251 243.124C131.973 243.124 133.078 241.804 133.078 239.795C133.078 237.793 131.973 236.48 130.251 236.48ZM129.841 241.583C128.899 241.583 128.268 240.861 128.268 239.795C128.268 238.736 128.899 238.04 129.841 238.04C130.79 238.04 131.323 238.716 131.323 239.795C131.323 240.881 130.79 241.583 129.841 241.583ZM140.143 241.57C139.805 241.57 139.721 241.407 139.721 241.089V239.145C139.721 237.923 139.37 236.474 136.874 236.474C135.268 236.474 134.157 237.241 134.053 238.69L135.723 238.885C135.801 238.209 136.172 237.891 136.88 237.891C137.758 237.891 138.018 238.411 138.018 239.126V239.379C137.647 239.321 137.257 239.288 136.835 239.288C135.073 239.288 133.838 239.789 133.838 241.141C133.838 242.285 134.625 243.117 136.022 243.117C137.082 243.117 137.855 242.727 138.206 242.031C138.304 242.779 138.668 243.052 139.623 243.052C139.948 243.052 140.208 243.033 140.494 242.961V241.544C140.371 241.563 140.254 241.57 140.143 241.57ZM136.614 241.791C136.035 241.791 135.717 241.55 135.717 241.076C135.717 240.595 136.146 240.367 137.075 240.367C137.407 240.367 137.706 240.393 138.018 240.452V241.147C137.738 241.55 137.218 241.791 136.614 241.791ZM145.034 236.474C143.961 236.474 143.279 236.994 142.96 237.865L142.947 236.597H141.4V243H143.142V239.919C143.142 238.697 143.708 238.105 144.54 238.105C145.268 238.105 145.586 238.515 145.586 239.392V243H147.328V238.905C147.328 237.455 146.652 236.474 145.034 236.474ZM152.794 236.597L151.793 240.432C151.67 240.907 151.559 241.355 151.455 241.778C151.345 241.336 151.228 240.861 151.111 240.419L150.103 236.597H148.134L150.227 243H150.974L150.922 243.163C150.643 244.001 149.915 244.209 148.491 243.845L148.192 245.34C150.116 245.815 151.904 245.412 152.619 243.163L154.764 236.597H152.794Z" fill="black"/>
<ellipse cx="63" cy="251" rx="25" ry="24" fill="#C4C4C4"/>
<rect x="99" y="251" width="73" height="3" rx="1.5" fill="#C4C4C4"/>
<path d="M65.5435 129.124C67.76 129.124 69.1445 127.979 69.333 125.86L67.5 125.613C67.2855 127.115 66.525 127.537 65.5045 127.537C64.042 127.537 63.3465 126.452 63.3465 124.775C63.3465 123.098 64.042 122.012 65.5045 122.012C66.525 122.012 67.292 122.48 67.5 123.936L69.333 123.689C69.1705 121.57 67.76 120.426 65.5435 120.426C62.898 120.426 61.39 122.194 61.39 124.775C61.39 127.355 62.898 129.124 65.5435 129.124ZM73.3679 129.124C75.4349 129.124 76.6439 127.745 76.6439 125.795C76.6439 123.852 75.4349 122.474 73.3679 122.474C71.2944 122.474 70.0854 123.852 70.0854 125.795C70.0854 127.745 71.2944 129.124 73.3679 129.124ZM73.3679 127.576C72.4189 127.576 71.8079 126.894 71.8079 125.795C71.8079 124.703 72.4189 124.027 73.3679 124.027C74.3104 124.027 74.9149 124.703 74.9149 125.795C74.9149 126.894 74.3104 127.576 73.3679 127.576ZM85.0431 122.474C84.0681 122.474 83.4506 122.929 83.1321 123.696C82.8591 122.935 82.2481 122.474 81.1886 122.474C80.1811 122.474 79.5636 122.955 79.2646 123.767L79.2516 122.597H77.7176V129H79.4531V125.899C79.4531 124.677 79.9211 124.086 80.6881 124.086C81.3251 124.086 81.5851 124.495 81.5851 125.36V129H83.3141V125.886L83.3206 125.899C83.3206 124.677 83.7886 124.086 84.5556 124.086C85.1926 124.086 85.4526 124.502 85.4526 125.36V129H87.1816V124.898C87.1816 123.468 86.5771 122.474 85.0431 122.474ZM92.2508 122.48C91.2303 122.48 90.5543 122.903 90.1903 123.702L90.1643 122.597H88.5848V131.451H90.3268V128.116C90.7103 128.766 91.3473 129.124 92.2508 129.124C93.9733 129.124 95.0783 127.804 95.0783 125.795C95.0783 123.793 93.9733 122.48 92.2508 122.48ZM91.8413 127.583C90.8988 127.583 90.2683 126.861 90.2683 125.795C90.2683 124.736 90.8988 124.04 91.8413 124.04C92.7903 124.04 93.3233 124.716 93.3233 125.795C93.3233 126.881 92.7903 127.583 91.8413 127.583ZM102.143 127.57C101.805 127.57 101.721 127.407 101.721 127.089V125.145C101.721 123.923 101.37 122.474 98.8738 122.474C97.2683 122.474 96.1568 123.241 96.0528 124.69L97.7233 124.885C97.8013 124.209 98.1718 123.891 98.8803 123.891C99.7578 123.891 100.018 124.411 100.018 125.126V125.379C99.6473 125.321 99.2573 125.288 98.8348 125.288C97.0733 125.288 95.8383 125.789 95.8383 127.141C95.8383 128.285 96.6248 129.117 98.0223 129.117C99.0818 129.117 99.8553 128.727 100.206 128.031C100.304 128.779 100.668 129.052 101.623 129.052C101.948 129.052 102.208 129.033 102.494 128.961V127.544C102.371 127.563 102.254 127.57 102.143 127.57ZM98.6138 127.791C98.0353 127.791 97.7168 127.55 97.7168 127.076C97.7168 126.595 98.1458 126.367 99.0753 126.367C99.4068 126.367 99.7058 126.393 100.018 126.452V127.147C99.7383 127.55 99.2183 127.791 98.6138 127.791ZM107.034 122.474C105.961 122.474 105.279 122.994 104.96 123.865L104.947 122.597H103.4V129H105.142V125.919C105.142 124.697 105.708 124.105 106.54 124.105C107.268 124.105 107.586 124.515 107.586 125.392V129H109.328V124.905C109.328 123.455 108.652 122.474 107.034 122.474ZM114.794 122.597L113.793 126.432C113.67 126.907 113.559 127.355 113.455 127.778C113.345 127.336 113.228 126.861 113.111 126.419L112.103 122.597H110.134L112.227 129H112.974L112.922 129.163C112.643 130.001 111.915 130.209 110.491 129.845L110.192 131.34C112.116 131.815 113.904 131.412 114.619 129.163L116.764 122.597H114.794Z" fill="black"/>
<ellipse cx="25" cy="137" rx="25" ry="24" fill="#C4C4C4"/>
<rect x="61" y="137" width="73" height="3" rx="1.5" fill="#C4C4C4"/>
<path d="M375.544 66.1235C377.76 66.1235 379.145 64.9795 379.333 62.8605L377.5 62.6135C377.286 64.115 376.525 64.5375 375.505 64.5375C374.042 64.5375 373.347 63.452 373.347 61.775C373.347 60.098 374.042 59.0125 375.505 59.0125C376.525 59.0125 377.292 59.4805 377.5 60.9365L379.333 60.6895C379.171 58.5705 377.76 57.4265 375.544 57.4265C372.898 57.4265 371.39 59.1945 371.39 61.775C371.39 64.3555 372.898 66.1235 375.544 66.1235ZM383.368 66.1235C385.435 66.1235 386.644 64.7455 386.644 62.7955C386.644 60.852 385.435 59.474 383.368 59.474C381.294 59.474 380.085 60.852 380.085 62.7955C380.085 64.7455 381.294 66.1235 383.368 66.1235ZM383.368 64.5765C382.419 64.5765 381.808 63.894 381.808 62.7955C381.808 61.7035 382.419 61.0275 383.368 61.0275C384.31 61.0275 384.915 61.7035 384.915 62.7955C384.915 63.894 384.31 64.5765 383.368 64.5765ZM391.351 59.474C390.279 59.474 389.596 59.994 389.278 60.865L389.265 59.5975H387.718V66H389.46V62.919C389.46 61.697 390.025 61.1055 390.857 61.1055C391.585 61.1055 391.904 61.515 391.904 62.3925V66H393.646V61.905C393.646 60.4555 392.97 59.474 391.351 59.474ZM399.014 64.4205C398.747 64.5115 398.507 64.557 398.208 64.557C397.551 64.557 397.337 64.1995 397.337 63.556V61.0665H399.15V59.5975H397.337V57.602L395.595 57.849V59.5975H394.509V61.0665H395.595V63.79C395.595 65.246 396.303 66.0845 397.876 66.0845C398.403 66.0845 398.851 66.013 399.287 65.87L399.014 64.4205ZM405.995 62.7045C405.995 60.735 404.851 59.474 402.973 59.474C401.049 59.474 399.827 60.8975 399.827 62.802C399.827 64.7455 401.003 66.1235 403.025 66.1235C404.507 66.1235 405.586 65.4215 405.878 64.0435L404.409 63.816C404.247 64.401 403.798 64.6935 403.018 64.6935C402.199 64.6935 401.692 64.206 401.556 63.2765H405.963C405.989 63.0555 405.995 62.88 405.995 62.7045ZM402.973 60.8845C403.701 60.8845 404.208 61.3135 404.279 62.178H401.569C401.718 61.333 402.225 60.8845 402.973 60.8845ZM410.711 59.474C409.639 59.474 408.956 59.994 408.638 60.865L408.625 59.5975H407.078V66H408.82V62.919C408.82 61.697 409.385 61.1055 410.217 61.1055C410.945 61.1055 411.264 61.515 411.264 62.3925V66H413.006V61.905C413.006 60.4555 412.33 59.474 410.711 59.474ZM418.374 64.4205C418.108 64.5115 417.867 64.557 417.568 64.557C416.912 64.557 416.697 64.1995 416.697 63.556V61.0665H418.511V59.5975H416.697V57.602L414.955 57.849V59.5975H413.87V61.0665H414.955V63.79C414.955 65.246 415.664 66.0845 417.237 66.0845C417.763 66.0845 418.212 66.013 418.647 65.87L418.374 64.4205ZM424.823 66.1235C426.416 66.1235 427.592 65.4085 427.891 63.6275L426.234 63.4585C426.084 64.2255 425.603 64.6285 424.843 64.6285C423.868 64.6285 423.335 63.894 423.335 62.7955C423.335 61.7035 423.868 60.969 424.843 60.969C425.603 60.969 426.084 61.372 426.234 62.1325L427.891 61.97C427.592 60.189 426.416 59.474 424.823 59.474C422.795 59.474 421.586 60.865 421.586 62.7955C421.586 64.7325 422.795 66.1235 424.823 66.1235ZM430.499 60.93L430.479 59.5975H428.952V65.9935H430.681V63.114C430.681 61.6515 431.721 61.151 432.852 61.385V59.5065C431.669 59.2985 430.856 59.9095 430.499 60.93ZM439.473 62.7045C439.473 60.735 438.329 59.474 436.45 59.474C434.526 59.474 433.304 60.8975 433.304 62.802C433.304 64.7455 434.481 66.1235 436.502 66.1235C437.984 66.1235 439.063 65.4215 439.356 64.0435L437.887 63.816C437.724 64.401 437.276 64.6935 436.496 64.6935C435.677 64.6935 435.17 64.206 435.033 63.2765H439.44C439.466 63.0555 439.473 62.88 439.473 62.7045ZM436.45 60.8845C437.178 60.8845 437.685 61.3135 437.757 62.178H435.046C435.196 61.333 435.703 60.8845 436.45 60.8845ZM446.586 64.57C446.248 64.57 446.163 64.4075 446.163 64.089V62.1455C446.163 60.9235 445.812 59.474 443.316 59.474C441.711 59.474 440.599 60.241 440.495 61.6905L442.166 61.8855C442.244 61.2095 442.614 60.891 443.323 60.891C444.2 60.891 444.46 61.411 444.46 62.126V62.3795C444.09 62.321 443.7 62.2885 443.277 62.2885C441.516 62.2885 440.281 62.789 440.281 64.141C440.281 65.285 441.067 66.117 442.465 66.117C443.524 66.117 444.298 65.727 444.649 65.0315C444.746 65.779 445.11 66.052 446.066 66.052C446.391 66.052 446.651 66.0325 446.937 65.961V64.544C446.813 64.5635 446.696 64.57 446.586 64.57ZM443.056 64.791C442.478 64.791 442.159 64.5505 442.159 64.076C442.159 63.595 442.588 63.3675 443.518 63.3675C443.849 63.3675 444.148 63.3935 444.46 63.452V64.1475C444.181 64.5505 443.661 64.791 443.056 64.791ZM451.611 64.4205C451.344 64.5115 451.104 64.557 450.805 64.557C450.148 64.557 449.934 64.1995 449.934 63.556V61.0665H451.747V59.5975H449.934V57.602L448.192 57.849V59.5975H447.106V61.0665H448.192V63.79C448.192 65.246 448.9 66.0845 450.473 66.0845C451 66.0845 451.448 66.013 451.884 65.87L451.611 64.4205ZM455.706 66.1235C457.773 66.1235 458.982 64.7455 458.982 62.7955C458.982 60.852 457.773 59.474 455.706 59.474C453.632 59.474 452.423 60.852 452.423 62.7955C452.423 64.7455 453.632 66.1235 455.706 66.1235ZM455.706 64.5765C454.757 64.5765 454.146 63.894 454.146 62.7955C454.146 61.7035 454.757 61.0275 455.706 61.0275C456.648 61.0275 457.253 61.7035 457.253 62.7955C457.253 63.894 456.648 64.5765 455.706 64.5765ZM461.602 60.93L461.583 59.5975H460.055V65.9935H461.784V63.114C461.784 61.6515 462.824 61.151 463.955 61.385V59.5065C462.772 59.2985 461.96 59.9095 461.602 60.93Z" fill="black"/>
<ellipse cx="335" cy="74" rx="25" ry="24" fill="#C4C4C4"/>
<rect x="371" y="74" width="73" height="3" rx="1.5" fill="#C4C4C4"/>
<path d="M347.544 270.124C349.76 270.124 351.145 268.979 351.333 266.86L349.5 266.613C349.286 268.115 348.525 268.537 347.505 268.537C346.042 268.537 345.347 267.452 345.347 265.775C345.347 264.098 346.042 263.012 347.505 263.012C348.525 263.012 349.292 263.48 349.5 264.936L351.333 264.689C351.171 262.57 349.76 261.426 347.544 261.426C344.898 261.426 343.39 263.194 343.39 265.775C343.39 268.355 344.898 270.124 347.544 270.124ZM355.368 270.124C357.435 270.124 358.644 268.745 358.644 266.795C358.644 264.852 357.435 263.474 355.368 263.474C353.294 263.474 352.085 264.852 352.085 266.795C352.085 268.745 353.294 270.124 355.368 270.124ZM355.368 268.576C354.419 268.576 353.808 267.894 353.808 266.795C353.808 265.703 354.419 265.027 355.368 265.027C356.31 265.027 356.915 265.703 356.915 266.795C356.915 267.894 356.31 268.576 355.368 268.576ZM367.043 263.474C366.068 263.474 365.451 263.929 365.132 264.696C364.859 263.935 364.248 263.474 363.189 263.474C362.181 263.474 361.564 263.955 361.265 264.767L361.252 263.597H359.718V270H361.453V266.899C361.453 265.677 361.921 265.086 362.688 265.086C363.325 265.086 363.585 265.495 363.585 266.36V270H365.314V266.886L365.321 266.899C365.321 265.677 365.789 265.086 366.556 265.086C367.193 265.086 367.453 265.502 367.453 266.36V270H369.182V265.898C369.182 264.468 368.577 263.474 367.043 263.474ZM374.251 263.48C373.23 263.48 372.554 263.903 372.19 264.702L372.164 263.597H370.585V272.451H372.327V269.116C372.71 269.766 373.347 270.124 374.251 270.124C375.973 270.124 377.078 268.804 377.078 266.795C377.078 264.793 375.973 263.48 374.251 263.48ZM373.841 268.583C372.899 268.583 372.268 267.861 372.268 266.795C372.268 265.736 372.899 265.04 373.841 265.04C374.79 265.04 375.323 265.716 375.323 266.795C375.323 267.881 374.79 268.583 373.841 268.583ZM384.143 268.57C383.805 268.57 383.721 268.407 383.721 268.089V266.145C383.721 264.923 383.37 263.474 380.874 263.474C379.268 263.474 378.157 264.241 378.053 265.69L379.723 265.885C379.801 265.209 380.172 264.891 380.88 264.891C381.758 264.891 382.018 265.411 382.018 266.126V266.379C381.647 266.321 381.257 266.288 380.835 266.288C379.073 266.288 377.838 266.789 377.838 268.141C377.838 269.285 378.625 270.117 380.022 270.117C381.082 270.117 381.855 269.727 382.206 269.031C382.304 269.779 382.668 270.052 383.623 270.052C383.948 270.052 384.208 270.033 384.494 269.961V268.544C384.371 268.563 384.254 268.57 384.143 268.57ZM380.614 268.791C380.035 268.791 379.717 268.55 379.717 268.076C379.717 267.595 380.146 267.367 381.075 267.367C381.407 267.367 381.706 267.393 382.018 267.452V268.147C381.738 268.55 381.218 268.791 380.614 268.791ZM389.034 263.474C387.961 263.474 387.279 263.994 386.96 264.865L386.947 263.597H385.4V270H387.142V266.919C387.142 265.697 387.708 265.105 388.54 265.105C389.268 265.105 389.586 265.515 389.586 266.392V270H391.328V265.905C391.328 264.455 390.652 263.474 389.034 263.474ZM396.794 263.597L395.793 267.432C395.67 267.907 395.559 268.355 395.455 268.778C395.345 268.336 395.228 267.861 395.111 267.419L394.103 263.597H392.134L394.227 270H394.974L394.922 270.163C394.643 271.001 393.915 271.209 392.491 270.845L392.192 272.34C394.116 272.815 395.904 272.412 396.619 270.163L398.764 263.597H396.794Z" fill="black"/>
<ellipse cx="307" cy="278" rx="25" ry="24" fill="#C4C4C4"/>
<rect x="343" y="278" width="73" height="3" rx="1.5" fill="#C4C4C4"/>
<path d="M231.544 348.124C233.76 348.124 235.145 346.979 235.333 344.86L233.5 344.613C233.286 346.115 232.525 346.537 231.505 346.537C230.042 346.537 229.347 345.452 229.347 343.775C229.347 342.098 230.042 341.012 231.505 341.012C232.525 341.012 233.292 341.48 233.5 342.936L235.333 342.689C235.171 340.57 233.76 339.426 231.544 339.426C228.898 339.426 227.39 341.194 227.39 343.775C227.39 346.355 228.898 348.124 231.544 348.124ZM239.368 348.124C241.435 348.124 242.644 346.745 242.644 344.795C242.644 342.852 241.435 341.474 239.368 341.474C237.294 341.474 236.085 342.852 236.085 344.795C236.085 346.745 237.294 348.124 239.368 348.124ZM239.368 346.576C238.419 346.576 237.808 345.894 237.808 344.795C237.808 343.703 238.419 343.027 239.368 343.027C240.31 343.027 240.915 343.703 240.915 344.795C240.915 345.894 240.31 346.576 239.368 346.576ZM247.351 341.474C246.279 341.474 245.596 341.994 245.278 342.865L245.265 341.597H243.718V348H245.46V344.919C245.46 343.697 246.025 343.105 246.857 343.105C247.585 343.105 247.904 343.515 247.904 344.392V348H249.646V343.905C249.646 342.455 248.97 341.474 247.351 341.474ZM255.014 346.42C254.747 346.511 254.507 346.557 254.208 346.557C253.551 346.557 253.337 346.199 253.337 345.556V343.066H255.15V341.597H253.337V339.602L251.595 339.849V341.597H250.509V343.066H251.595V345.79C251.595 347.246 252.303 348.085 253.876 348.085C254.403 348.085 254.851 348.013 255.287 347.87L255.014 346.42ZM261.995 344.704C261.995 342.735 260.851 341.474 258.973 341.474C257.049 341.474 255.827 342.897 255.827 344.802C255.827 346.745 257.003 348.124 259.025 348.124C260.507 348.124 261.586 347.421 261.878 346.043L260.409 345.816C260.247 346.401 259.798 346.693 259.018 346.693C258.199 346.693 257.692 346.206 257.556 345.276H261.963C261.989 345.055 261.995 344.88 261.995 344.704ZM258.973 342.884C259.701 342.884 260.208 343.313 260.279 344.178H257.569C257.718 343.333 258.225 342.884 258.973 342.884ZM266.711 341.474C265.639 341.474 264.956 341.994 264.638 342.865L264.625 341.597H263.078V348H264.82V344.919C264.82 343.697 265.385 343.105 266.217 343.105C266.945 343.105 267.264 343.515 267.264 344.392V348H269.006V343.905C269.006 342.455 268.33 341.474 266.711 341.474ZM274.374 346.42C274.108 346.511 273.867 346.557 273.568 346.557C272.912 346.557 272.697 346.199 272.697 345.556V343.066H274.511V341.597H272.697V339.602L270.955 339.849V341.597H269.87V343.066H270.955V345.79C270.955 347.246 271.664 348.085 273.237 348.085C273.763 348.085 274.212 348.013 274.647 347.87L274.374 346.42ZM280.823 348.124C282.416 348.124 283.592 347.408 283.891 345.627L282.234 345.458C282.084 346.225 281.603 346.628 280.843 346.628C279.868 346.628 279.335 345.894 279.335 344.795C279.335 343.703 279.868 342.969 280.843 342.969C281.603 342.969 282.084 343.372 282.234 344.132L283.891 343.97C283.592 342.189 282.416 341.474 280.823 341.474C278.795 341.474 277.586 342.865 277.586 344.795C277.586 346.732 278.795 348.124 280.823 348.124ZM286.499 342.93L286.479 341.597H284.952V347.993H286.681V345.114C286.681 343.651 287.721 343.151 288.852 343.385V341.506C287.669 341.298 286.856 341.909 286.499 342.93ZM295.473 344.704C295.473 342.735 294.329 341.474 292.45 341.474C290.526 341.474 289.304 342.897 289.304 344.802C289.304 346.745 290.481 348.124 292.502 348.124C293.984 348.124 295.063 347.421 295.356 346.043L293.887 345.816C293.724 346.401 293.276 346.693 292.496 346.693C291.677 346.693 291.17 346.206 291.033 345.276H295.44C295.466 345.055 295.473 344.88 295.473 344.704ZM292.45 342.884C293.178 342.884 293.685 343.313 293.757 344.178H291.046C291.196 343.333 291.703 342.884 292.45 342.884ZM302.586 346.57C302.248 346.57 302.163 346.407 302.163 346.089V344.145C302.163 342.923 301.812 341.474 299.316 341.474C297.711 341.474 296.599 342.241 296.495 343.69L298.166 343.885C298.244 343.209 298.614 342.891 299.323 342.891C300.2 342.891 300.46 343.411 300.46 344.126V344.379C300.09 344.321 299.7 344.288 299.277 344.288C297.516 344.288 296.281 344.789 296.281 346.141C296.281 347.285 297.067 348.117 298.465 348.117C299.524 348.117 300.298 347.727 300.649 347.031C300.746 347.779 301.11 348.052 302.066 348.052C302.391 348.052 302.651 348.033 302.937 347.961V346.544C302.813 346.563 302.696 346.57 302.586 346.57ZM299.056 346.791C298.478 346.791 298.159 346.55 298.159 346.076C298.159 345.595 298.588 345.367 299.518 345.367C299.849 345.367 300.148 345.393 300.46 345.452V346.147C300.181 346.55 299.661 346.791 299.056 346.791ZM307.611 346.42C307.344 346.511 307.104 346.557 306.805 346.557C306.148 346.557 305.934 346.199 305.934 345.556V343.066H307.747V341.597H305.934V339.602L304.192 339.849V341.597H303.106V343.066H304.192V345.79C304.192 347.246 304.9 348.085 306.473 348.085C307 348.085 307.448 348.013 307.884 347.87L307.611 346.42ZM311.706 348.124C313.773 348.124 314.982 346.745 314.982 344.795C314.982 342.852 313.773 341.474 311.706 341.474C309.632 341.474 308.423 342.852 308.423 344.795C308.423 346.745 309.632 348.124 311.706 348.124ZM311.706 346.576C310.757 346.576 310.146 345.894 310.146 344.795C310.146 343.703 310.757 343.027 311.706 343.027C312.648 343.027 313.253 343.703 313.253 344.795C313.253 345.894 312.648 346.576 311.706 346.576ZM317.602 342.93L317.583 341.597H316.055V347.993H317.784V345.114C317.784 343.651 318.824 343.151 319.955 343.385V341.506C318.772 341.298 317.96 341.909 317.602 342.93Z" fill="black"/>
<ellipse cx="191" cy="356" rx="25" ry="24" fill="#C4C4C4"/>
<rect x="227" y="356" width="73" height="3" rx="1.5" fill="#C4C4C4"/>
<path d="M284.964 60.4982C285.621 59.8291 285.621 58.7446 284.964 58.0755C284.307 57.4064 283.243 57.4064 282.586 58.0755C281.929 58.7446 281.929 59.8291 282.586 60.4982C283.243 61.1673 284.307 61.1673 284.964 60.4982ZM277 19.8406C277 30.2299 285.298 38.6845 295.498 38.6845C305.699 38.6845 314 30.2299 314 19.8406C314 9.45124 305.699 1 295.498 1C285.298 1 277 9.45124 277 19.8406Z" fill="#5375FF"/>
<path d="M284.964 60.4982C285.621 59.8291 285.621 58.7446 284.964 58.0755C284.307 57.4064 283.243 57.4064 282.586 58.0755C281.929 58.7446 281.929 59.8291 282.586 60.4982C283.243 61.1673 284.307 61.1673 284.964 60.4982ZM277 19.8406C277 30.2299 285.298 38.6845 295.498 38.6845C305.699 38.6845 314 30.2299 314 19.8406C314 9.45124 305.699 1 295.498 1C285.298 1 277 9.45124 277 19.8406Z" fill="#5375FF"/>
<path d="M293.745 9.71523V11.7273C291.634 12.4332 290.116 14.3397 290.116 16.5761C290.116 19.4096 292.559 21.7152 295.56 21.7152C296.558 21.7152 297.371 22.4838 297.371 23.4305C297.371 24.3738 296.558 25.1457 295.556 25.1457C294.782 25.1457 293.948 24.6839 293.204 23.8461C292.559 23.1204 291.414 23.028 290.647 23.6383C289.879 24.2485 289.781 25.3271 290.427 26.0528C291.397 27.1413 292.538 27.8999 293.742 28.2859V30.2848C293.742 31.2347 294.555 32 295.556 32C296.558 32 297.371 31.2347 297.371 30.2848V28.2793C299.482 27.5701 301 25.6636 301 23.4305C301 20.5937 298.557 18.2848 295.556 18.2848C294.558 18.2848 293.742 17.5195 293.742 16.5728C293.742 15.6295 294.558 14.8576 295.556 14.8576C296.202 14.8576 296.879 15.1677 297.517 15.7548C298.24 16.4145 299.388 16.3947 300.082 15.7152C300.78 15.0357 300.759 13.9505 300.04 13.2908C299.119 12.4497 298.201 11.9714 297.371 11.7141V9.71523C297.371 8.76855 296.558 8 295.556 8C294.555 8 293.742 8.76855 293.742 9.71523H293.745Z" fill="#FBFBFB"/>
<path d="M49.9644 101.498C50.6214 100.829 50.6214 99.7446 49.9644 99.0755C49.3074 98.4064 48.2427 98.4064 47.5858 99.0755C46.9288 99.7446 46.9288 100.829 47.5858 101.498C48.2427 102.167 49.3074 102.167 49.9644 101.498ZM42 60.8406C42 71.2299 50.2977 79.6845 60.4984 79.6845C70.699 79.6845 79 71.2299 79 60.8406C79 50.4512 70.699 42 60.4984 42C50.2977 42 42 50.4512 42 60.8406Z" fill="#5375FF"/>
<path d="M58.7453 50.7152V52.7273C56.6341 53.4332 55.1162 55.3397 55.1162 57.5761C55.1162 60.4096 57.5588 62.7152 60.5598 62.7152C61.5578 62.7152 62.3709 63.4838 62.3709 64.4305C62.3709 65.3738 61.5578 66.1457 60.5563 66.1457C59.7817 66.1457 58.9477 65.6839 58.2044 64.8461C57.5588 64.1204 56.4143 64.028 55.6466 64.6383C54.8789 65.2485 54.7812 66.3271 55.4267 67.0528C56.3968 68.1413 57.5379 68.8999 58.7418 69.2859V71.2848C58.7418 72.2347 59.5548 73 60.5563 73C61.5578 73 62.3709 72.2347 62.3709 71.2848V69.2793C64.4821 68.5701 66 66.6636 66 64.4305C66 61.5937 63.5573 59.2848 60.5563 59.2848C59.5583 59.2848 58.7418 58.5195 58.7418 57.5728C58.7418 56.6295 59.5583 55.8576 60.5563 55.8576C61.2019 55.8576 61.8789 56.1677 62.5175 56.7548C63.2398 57.4145 64.3878 57.3947 65.0823 56.7152C65.7802 56.0357 65.7592 54.9505 65.0404 54.2908C64.1191 53.4497 63.2014 52.9714 62.3709 52.7141V50.7152C62.3709 49.7686 61.5578 49 60.5563 49C59.5548 49 58.7418 49.7686 58.7418 50.7152H58.7453Z" fill="#FBFBFB"/>
<path d="M210.964 242.498C211.621 241.829 211.621 240.745 210.964 240.076C210.307 239.406 209.243 239.406 208.586 240.076C207.929 240.745 207.929 241.829 208.586 242.498C209.243 243.167 210.307 243.167 210.964 242.498ZM203 201.841C203 212.23 211.298 220.684 221.498 220.684C231.699 220.684 240 212.23 240 201.841C240 191.451 231.699 183 221.498 183C211.298 183 203 191.451 203 201.841Z" fill="#5375FF"/>
<path d="M219.745 191.715V193.727C217.634 194.433 216.116 196.34 216.116 198.576C216.116 201.41 218.559 203.715 221.56 203.715C222.558 203.715 223.371 204.484 223.371 205.43C223.371 206.374 222.558 207.146 221.556 207.146C220.782 207.146 219.948 206.684 219.204 205.846C218.559 205.12 217.414 205.028 216.647 205.638C215.879 206.248 215.781 207.327 216.427 208.053C217.397 209.141 218.538 209.9 219.742 210.286V212.285C219.742 213.235 220.555 214 221.556 214C222.558 214 223.371 213.235 223.371 212.285V210.279C225.482 209.57 227 207.664 227 205.43C227 202.594 224.557 200.285 221.556 200.285C220.558 200.285 219.742 199.52 219.742 198.573C219.742 197.629 220.558 196.858 221.556 196.858C222.202 196.858 222.879 197.168 223.517 197.755C224.24 198.415 225.388 198.395 226.082 197.715C226.78 197.036 226.759 195.951 226.04 195.291C225.119 194.45 224.201 193.971 223.371 193.714V191.715C223.371 190.769 222.558 190 221.556 190C220.555 190 219.742 190.769 219.742 191.715H219.745Z" fill="#FBFBFB"/>
<path d="M126.964 342.498C127.621 341.829 127.621 340.745 126.964 340.076C126.307 339.406 125.243 339.406 124.586 340.076C123.929 340.745 123.929 341.829 124.586 342.498C125.243 343.167 126.307 343.167 126.964 342.498ZM119 301.841C119 312.23 127.298 320.684 137.498 320.684C147.699 320.684 156 312.23 156 301.841C156 291.451 147.699 283 137.498 283C127.298 283 119 291.451 119 301.841Z" fill="#5375FF"/>
<path d="M135.745 291.715V293.727C133.634 294.433 132.116 296.34 132.116 298.576C132.116 301.41 134.559 303.715 137.56 303.715C138.558 303.715 139.371 304.484 139.371 305.43C139.371 306.374 138.558 307.146 137.556 307.146C136.782 307.146 135.948 306.684 135.204 305.846C134.559 305.12 133.414 305.028 132.647 305.638C131.879 306.248 131.781 307.327 132.427 308.053C133.397 309.141 134.538 309.9 135.742 310.286V312.285C135.742 313.235 136.555 314 137.556 314C138.558 314 139.371 313.235 139.371 312.285V310.279C141.482 309.57 143 307.664 143 305.43C143 302.594 140.557 300.285 137.556 300.285C136.558 300.285 135.742 299.52 135.742 298.573C135.742 297.629 136.558 296.858 137.556 296.858C138.202 296.858 138.879 297.168 139.517 297.755C140.24 298.415 141.388 298.395 142.082 297.715C142.78 297.036 142.759 295.951 142.04 295.291C141.119 294.45 140.201 293.971 139.371 293.714V291.715C139.371 290.769 138.558 290 137.556 290C136.555 290 135.742 290.769 135.742 291.715H135.745Z" fill="#FBFBFB"/>
<path d="M239.964 337.498C240.621 336.829 240.621 335.745 239.964 335.076C239.307 334.406 238.243 334.406 237.586 335.076C236.929 335.745 236.929 336.829 237.586 337.498C238.243 338.167 239.307 338.167 239.964 337.498ZM232 296.841C232 307.23 240.298 315.684 250.498 315.684C260.699 315.684 269 307.23 269 296.841C269 286.451 260.699 278 250.498 278C240.298 278 232 286.451 232 296.841Z" fill="#5375FF"/>
<path d="M248.745 286.715V288.727C246.634 289.433 245.116 291.34 245.116 293.576C245.116 296.41 247.559 298.715 250.56 298.715C251.558 298.715 252.371 299.484 252.371 300.43C252.371 301.374 251.558 302.146 250.556 302.146C249.782 302.146 248.948 301.684 248.204 300.846C247.559 300.12 246.414 300.028 245.647 300.638C244.879 301.248 244.781 302.327 245.427 303.053C246.397 304.141 247.538 304.9 248.742 305.286V307.285C248.742 308.235 249.555 309 250.556 309C251.558 309 252.371 308.235 252.371 307.285V305.279C254.482 304.57 256 302.664 256 300.43C256 297.594 253.557 295.285 250.556 295.285C249.558 295.285 248.742 294.52 248.742 293.573C248.742 292.629 249.558 291.858 250.556 291.858C251.202 291.858 251.879 292.168 252.517 292.755C253.24 293.415 254.388 293.395 255.082 292.715C255.78 292.036 255.759 290.951 255.04 290.291C254.119 289.45 253.201 288.971 252.371 288.714V286.715C252.371 285.769 251.558 285 250.556 285C249.555 285 248.742 285.769 248.742 286.715H248.745Z" fill="#FBFBFB"/>
<path d="M224.964 140.498C225.621 139.829 225.621 138.745 224.964 138.076C224.307 137.406 223.243 137.406 222.586 138.076C221.929 138.745 221.929 139.829 222.586 140.498C223.243 141.167 224.307 141.167 224.964 140.498ZM217 99.8406C217 110.23 225.298 118.684 235.498 118.684C245.699 118.684 254 110.23 254 99.8406C254 89.4512 245.699 81 235.498 81C225.298 81 217 89.4512 217 99.8406Z" fill="#5375FF"/>
<path d="M233.745 89.7152V91.7273C231.634 92.4332 230.116 94.3397 230.116 96.5761C230.116 99.4096 232.559 101.715 235.56 101.715C236.558 101.715 237.371 102.484 237.371 103.43C237.371 104.374 236.558 105.146 235.556 105.146C234.782 105.146 233.948 104.684 233.204 103.846C232.559 103.12 231.414 103.028 230.647 103.638C229.879 104.248 229.781 105.327 230.427 106.053C231.397 107.141 232.538 107.9 233.742 108.286V110.285C233.742 111.235 234.555 112 235.556 112C236.558 112 237.371 111.235 237.371 110.285V108.279C239.482 107.57 241 105.664 241 103.43C241 100.594 238.557 98.2848 235.556 98.2848C234.558 98.2848 233.742 97.5195 233.742 96.5728C233.742 95.6295 234.558 94.8576 235.556 94.8576C236.202 94.8576 236.879 95.1677 237.517 95.7548C238.24 96.4145 239.388 96.3947 240.082 95.7152C240.78 95.0357 240.759 93.9505 240.04 93.2908C239.119 92.4497 238.201 91.9714 237.371 91.7141V89.7152C237.371 88.7686 236.558 88 235.556 88C234.555 88 233.742 88.7686 233.742 89.7152H233.745Z" fill="#FBFBFB"/>
<path d="M35.092 61.796H31.84V58.436H28.984V61.796H25.732V64.628H28.984V67.988H31.84V64.628H35.092V61.796Z" fill="#5375FF"/>
<path d="M207.092 98.796H203.84V95.436H200.984V98.796H197.732V101.628H200.984V104.988H203.84V101.628H207.092V98.796Z" fill="#5375FF"/>
<path d="M268.092 14.796H264.84V11.436H261.984V14.796H258.732V17.628H261.984V20.988H264.84V17.628H268.092V14.796Z" fill="#5375FF"/>
<path d="M194.092 201.796H190.84V198.436H187.984V201.796H184.732V204.628H187.984V207.988H190.84V204.628H194.092V201.796Z" fill="#5375FF"/>
<path d="M112.092 301.796H108.84V298.436H105.984V301.796H102.732V304.628H105.984V307.988H108.84V304.628H112.092V301.796Z" fill="#5375FF"/>
<path d="M226.092 297.796H222.84V294.436H219.984V297.796H216.732V300.628H219.984V303.988H222.84V300.628H226.092V297.796Z" fill="#5375FF"/>
</svg>
