<svg width="405" height="357" viewBox="0 0 405 357" fill="none" xmlns="http://www.w3.org/2000/svg">
<g filter="url(#filter0_d)">
<rect x="4" width="397" height="349" rx="37" fill="white"/>
<rect x="4.5" y="0.5" width="396" height="348" rx="36.5" stroke="#C6C6C6"/>
</g>
<path d="M166.269 45H168.888V40.941H170.823C173.487 40.941 174.936 39.555 174.936 37.044C174.936 34.596 173.505 33.291 170.85 33.291H166.269V45ZM168.888 38.979V35.397H170.616C171.75 35.397 172.344 35.946 172.344 37.125C172.344 38.322 171.813 38.979 170.607 38.979H168.888ZM180.332 45.171C183.194 45.171 184.868 43.263 184.868 40.563C184.868 37.872 183.194 35.964 180.332 35.964C177.461 35.964 175.787 37.872 175.787 40.563C175.787 43.263 177.461 45.171 180.332 45.171ZM180.332 43.029C179.018 43.029 178.172 42.084 178.172 40.563C178.172 39.051 179.018 38.115 180.332 38.115C181.637 38.115 182.474 39.051 182.474 40.563C182.474 42.084 181.637 43.029 180.332 43.029ZM188.496 37.98L188.469 36.135H186.354V44.991H188.748V41.004C188.748 38.979 190.188 38.286 191.754 38.61V36.009C190.116 35.721 188.991 36.567 188.496 37.98ZM198.709 42.813C198.34 42.939 198.007 43.002 197.593 43.002C196.684 43.002 196.387 42.507 196.387 41.616V38.169H198.898V36.135H196.387V33.372L193.975 33.714V36.135H192.472V38.169H193.975V41.94C193.975 43.956 194.956 45.117 197.134 45.117C197.863 45.117 198.484 45.018 199.087 44.82L198.709 42.813ZM204.64 34.254C205.072 34.254 205.513 34.371 205.945 34.614L206.575 32.787C205.864 32.4 205.171 32.256 204.352 32.256C202.147 32.256 201.013 33.372 201.013 35.631V36.135H199.591V38.169H201.013V45H203.425V38.169H205.81V36.135H203.425V35.568C203.425 34.605 203.794 34.254 204.64 34.254ZM210.865 45.171C213.727 45.171 215.401 43.263 215.401 40.563C215.401 37.872 213.727 35.964 210.865 35.964C207.994 35.964 206.32 37.872 206.32 40.563C206.32 43.263 207.994 45.171 210.865 45.171ZM210.865 43.029C209.551 43.029 208.705 42.084 208.705 40.563C208.705 39.051 209.551 38.115 210.865 38.115C212.17 38.115 213.007 39.051 213.007 40.563C213.007 42.084 212.17 43.029 210.865 43.029ZM216.87 45H219.282V32.436H216.87V45ZM222.488 35.226C223.298 35.226 223.982 34.587 223.982 33.786C223.982 32.994 223.298 32.355 222.488 32.355C221.696 32.355 221.012 32.994 221.012 33.786C221.012 34.587 221.696 35.226 222.488 35.226ZM221.291 45H223.703V36.135H221.291V45ZM229.744 45.171C232.606 45.171 234.28 43.263 234.28 40.563C234.28 37.872 232.606 35.964 229.744 35.964C226.873 35.964 225.199 37.872 225.199 40.563C225.199 43.263 226.873 45.171 229.744 45.171ZM229.744 43.029C228.43 43.029 227.584 42.084 227.584 40.563C227.584 39.051 228.43 38.115 229.744 38.115C231.049 38.115 231.886 39.051 231.886 40.563C231.886 42.084 231.049 43.029 229.744 43.029Z" fill="black"/>
<rect x="32" y="88" width="104" height="104" rx="9" fill="#F0F0F0"/>
<rect x="148" y="88" width="104" height="104" rx="9" fill="#F0F0F0"/>
<rect x="264" y="88" width="104" height="104" rx="9" fill="#F0F0F0"/>
<rect x="32" y="217" width="104" height="104" rx="11" fill="#F0F0F0"/>
<rect x="148" y="217" width="104" height="104" rx="8" fill="#F0F0F0"/>
<rect x="264" y="217" width="104" height="104" rx="11" fill="#F0F0F0"/>
<path d="M72.167 122.5H96C99.038 122.5 101.5 124.962 101.5 128V151.833C101.5 154.871 99.038 157.333 96 157.333H72.167C69.129 157.333 66.667 154.871 66.667 151.833V128C66.667 124.962 69.129 122.5 72.167 122.5ZM72.167 124.333C70.142 124.333 68.5 125.975 68.5 128V149.241L76.37 141.371L80.954 145.954L90.121 136.787L99.667 146.333V128C99.667 125.975 98.025 124.333 96 124.333H72.167ZM80.954 148.546L76.371 143.963L68.5 151.833C68.5 153.858 70.142 155.5 72.167 155.5H96C98.025 155.5 99.667 153.858 99.667 151.833V148.926L90.12 139.38L80.953 148.546H80.954ZM76.75 128C79.281 128 81.333 130.052 81.333 132.583C81.333 135.115 79.281 137.167 76.75 137.167C74.219 137.167 72.167 135.115 72.167 132.583C72.167 130.052 74.219 128 76.75 128ZM76.75 129.833C75.231 129.833 74 131.065 74 132.583C74 134.103 75.231 135.333 76.75 135.333C78.269 135.333 79.5 134.103 79.5 132.583C79.5 131.065 78.269 129.833 76.75 129.833Z" fill="#5375FF"/>
<path d="M188.167 122.5H212C215.038 122.5 217.5 124.962 217.5 128V151.833C217.5 154.871 215.038 157.333 212 157.333H188.167C185.129 157.333 182.667 154.871 182.667 151.833V128C182.667 124.962 185.129 122.5 188.167 122.5ZM188.167 124.333C186.142 124.333 184.5 125.975 184.5 128V149.241L192.37 141.371L196.954 145.954L206.121 136.787L215.667 146.333V128C215.667 125.975 214.025 124.333 212 124.333H188.167ZM196.954 148.546L192.371 143.963L184.5 151.833C184.5 153.858 186.142 155.5 188.167 155.5H212C214.025 155.5 215.667 153.858 215.667 151.833V148.926L206.12 139.38L196.953 148.546H196.954ZM192.75 128C195.281 128 197.333 130.052 197.333 132.583C197.333 135.115 195.281 137.167 192.75 137.167C190.219 137.167 188.167 135.115 188.167 132.583C188.167 130.052 190.219 128 192.75 128ZM192.75 129.833C191.231 129.833 190 131.065 190 132.583C190 134.103 191.231 135.333 192.75 135.333C194.269 135.333 195.5 134.103 195.5 132.583C195.5 131.065 194.269 129.833 192.75 129.833Z" fill="#5375FF"/>
<path d="M304.167 122.5H328C331.038 122.5 333.5 124.962 333.5 128V151.833C333.5 154.871 331.038 157.333 328 157.333H304.167C301.129 157.333 298.667 154.871 298.667 151.833V128C298.667 124.962 301.129 122.5 304.167 122.5ZM304.167 124.333C302.142 124.333 300.5 125.975 300.5 128V149.241L308.37 141.371L312.954 145.954L322.121 136.787L331.667 146.333V128C331.667 125.975 330.025 124.333 328 124.333H304.167ZM312.954 148.546L308.371 143.963L300.5 151.833C300.5 153.858 302.142 155.5 304.167 155.5H328C330.025 155.5 331.667 153.858 331.667 151.833V148.926L322.12 139.38L312.953 148.546H312.954ZM308.75 128C311.281 128 313.333 130.052 313.333 132.583C313.333 135.115 311.281 137.167 308.75 137.167C306.219 137.167 304.167 135.115 304.167 132.583C304.167 130.052 306.219 128 308.75 128ZM308.75 129.833C307.231 129.833 306 131.065 306 132.583C306 134.103 307.231 135.333 308.75 135.333C310.269 135.333 311.5 134.103 311.5 132.583C311.5 131.065 310.269 129.833 308.75 129.833Z" fill="#5375FF"/>
<path d="M305.167 251.5H329C332.038 251.5 334.5 253.962 334.5 257V280.833C334.5 283.871 332.038 286.333 329 286.333H305.167C302.129 286.333 299.667 283.871 299.667 280.833V257C299.667 253.962 302.129 251.5 305.167 251.5ZM305.167 253.333C303.142 253.333 301.5 254.975 301.5 257V278.241L309.37 270.371L313.954 274.954L323.121 265.787L332.667 275.333V257C332.667 254.975 331.025 253.333 329 253.333H305.167ZM313.954 277.546L309.371 272.963L301.5 280.833C301.5 282.858 303.142 284.5 305.167 284.5H329C331.025 284.5 332.667 282.858 332.667 280.833V277.926L323.12 268.38L313.953 277.546H313.954ZM309.75 257C312.281 257 314.333 259.052 314.333 261.583C314.333 264.115 312.281 266.167 309.75 266.167C307.219 266.167 305.167 264.115 305.167 261.583C305.167 259.052 307.219 257 309.75 257ZM309.75 258.833C308.231 258.833 307 260.065 307 261.583C307 263.103 308.231 264.333 309.75 264.333C311.269 264.333 312.5 263.103 312.5 261.583C312.5 260.065 311.269 258.833 309.75 258.833Z" fill="#5375FF"/>
<path d="M188.167 250.5H212C215.038 250.5 217.5 252.962 217.5 256V279.833C217.5 282.871 215.038 285.333 212 285.333H188.167C185.129 285.333 182.667 282.871 182.667 279.833V256C182.667 252.962 185.129 250.5 188.167 250.5ZM188.167 252.333C186.142 252.333 184.5 253.975 184.5 256V277.241L192.37 269.371L196.954 273.954L206.121 264.787L215.667 274.333V256C215.667 253.975 214.025 252.333 212 252.333H188.167ZM196.954 276.546L192.371 271.963L184.5 279.833C184.5 281.858 186.142 283.5 188.167 283.5H212C214.025 283.5 215.667 281.858 215.667 279.833V276.926L206.12 267.38L196.953 276.546H196.954ZM192.75 256C195.281 256 197.333 258.052 197.333 260.583C197.333 263.115 195.281 265.167 192.75 265.167C190.219 265.167 188.167 263.115 188.167 260.583C188.167 258.052 190.219 256 192.75 256ZM192.75 257.833C191.231 257.833 190 259.065 190 260.583C190 262.103 191.231 263.333 192.75 263.333C194.269 263.333 195.5 262.103 195.5 260.583C195.5 259.065 194.269 257.833 192.75 257.833Z" fill="#5375FF"/>
<path d="M71.167 252.5H95C98.038 252.5 100.5 254.962 100.5 258V281.833C100.5 284.871 98.038 287.333 95 287.333H71.167C68.129 287.333 65.667 284.871 65.667 281.833V258C65.667 254.962 68.129 252.5 71.167 252.5ZM71.167 254.333C69.142 254.333 67.5 255.975 67.5 258V279.241L75.37 271.371L79.954 275.954L89.121 266.787L98.667 276.333V258C98.667 255.975 97.025 254.333 95 254.333H71.167ZM79.954 278.546L75.371 273.963L67.5 281.833C67.5 283.858 69.142 285.5 71.167 285.5H95C97.025 285.5 98.667 283.858 98.667 281.833V278.926L89.12 269.38L79.953 278.546H79.954ZM75.75 258C78.281 258 80.333 260.052 80.333 262.583C80.333 265.115 78.281 267.167 75.75 267.167C73.219 267.167 71.167 265.115 71.167 262.583C71.167 260.052 73.219 258 75.75 258ZM75.75 259.833C74.231 259.833 73 261.065 73 262.583C73 264.103 74.231 265.333 75.75 265.333C77.269 265.333 78.5 264.103 78.5 262.583C78.5 261.065 77.269 259.833 75.75 259.833Z" fill="#5375FF"/>
<path d="M47.625 33.9162C45.4875 33.9162 43.75 35.6553 43.75 37.7912C43.75 39.9286 45.4875 41.6662 47.625 41.6662C49.7624 41.6662 51.5 39.927 51.5 37.7912C51.5 35.6537 49.7609 33.9162 47.625 33.9162ZM47.625 39.8263C46.5028 39.8263 45.5898 38.9134 45.5898 37.7912C45.5898 36.669 46.5028 35.756 47.625 35.756C48.7472 35.756 49.6601 36.669 49.6601 37.7912C49.6601 38.9134 48.7472 39.8263 47.625 39.8263ZM55.3657 49.6579C55.1022 47.8134 54.1799 46.1193 52.7694 44.8871C51.3465 43.6424 49.5191 42.9573 47.625 42.9573C45.7309 42.9573 43.905 43.6424 42.479 44.8871C41.07 46.1193 40.1478 47.8134 39.8843 49.6579C39.8471 49.9214 39.9246 50.1896 40.1013 50.3911C40.2749 50.5926 40.5291 50.7073 40.7957 50.7073H54.4543C54.7209 50.7073 54.9751 50.5926 55.1502 50.3911C55.3254 50.1896 55.4029 49.9214 55.3657 49.6579ZM41.9582 48.8674C42.7595 46.4867 45.0334 44.7971 47.625 44.7971C50.2135 44.7971 52.4889 46.4866 53.2933 48.869H41.9566L41.9582 48.8674ZM47.222 28.75C46.7306 28.75 46.3338 29.1468 46.3338 29.6366C46.3338 30.1279 46.7306 30.5247 47.2204 30.5247C51.4504 30.5247 54.8914 33.9657 54.8914 38.1957C54.8914 38.6855 55.2882 39.0823 55.7795 39.0823C56.2693 39.0823 56.6661 38.6855 56.6661 38.1957C56.6661 32.9877 52.43 28.75 47.2204 28.75H47.222Z" fill="#5375FF"/>
<path d="M58.4781 26.9364C55.4835 23.9418 51.5 22.291 47.2623 22.291C46.7508 22.291 46.3323 22.7064 46.3323 23.221C46.3323 23.7325 46.7508 24.151 47.2623 24.151C54.9844 24.151 61.2666 30.4316 61.2666 38.1537C61.2666 38.6652 61.682 39.0837 62.1966 39.0837C62.7081 39.0837 63.125 38.6652 63.125 38.1537C63.125 33.916 61.4743 29.9325 58.4781 26.9364Z" fill="#5375FF"/>
<defs>
<filter id="filter0_d" x="0" y="0" width="405" height="357" filterUnits="userSpaceOnUse" color-interpolation-filters="sRGB">
<feFlood flood-opacity="0" result="BackgroundImageFix"/>
<feColorMatrix in="SourceAlpha" type="matrix" values="0 0 0 0 0 0 0 0 0 0 0 0 0 0 0 0 0 0 127 0"/>
<feOffset dy="4"/>
<feGaussianBlur stdDeviation="2"/>
<feColorMatrix type="matrix" values="0 0 0 0 0 0 0 0 0 0 0 0 0 0 0 0 0 0 0.25 0"/>
<feBlend mode="normal" in2="BackgroundImageFix" result="effect1_dropShadow"/>
<feBlend mode="normal" in="SourceGraphic" in2="effect1_dropShadow" result="shape"/>
</filter>
</defs>
</svg>
