<svg width="451" height="260" viewBox="0 0 451 260" fill="none" xmlns="http://www.w3.org/2000/svg">
<g filter="url(#filter0_d)">
<rect x="4" width="241" height="252" rx="38" fill="white"/>
<rect x="4.5" y="0.5" width="240" height="251" rx="37.5" stroke="#D1D1D1"/>
</g>
<path d="M114.544 50.1235C116.76 50.1235 118.145 48.9795 118.333 46.8605L116.5 46.6135C116.286 48.115 115.525 48.5375 114.505 48.5375C113.042 48.5375 112.347 47.452 112.347 45.775C112.347 44.098 113.042 43.0125 114.505 43.0125C115.525 43.0125 116.292 43.4805 116.5 44.9365L118.333 44.6895C118.171 42.5705 116.76 41.4265 114.544 41.4265C111.898 41.4265 110.39 43.1945 110.39 45.775C110.39 48.3555 111.898 50.1235 114.544 50.1235ZM122.368 50.1235C124.435 50.1235 125.644 48.7455 125.644 46.7955C125.644 44.852 124.435 43.474 122.368 43.474C120.294 43.474 119.085 44.852 119.085 46.7955C119.085 48.7455 120.294 50.1235 122.368 50.1235ZM122.368 48.5765C121.419 48.5765 120.808 47.894 120.808 46.7955C120.808 45.7035 121.419 45.0275 122.368 45.0275C123.31 45.0275 123.915 45.7035 123.915 46.7955C123.915 47.894 123.31 48.5765 122.368 48.5765ZM134.043 43.474C133.068 43.474 132.451 43.929 132.132 44.696C131.859 43.9355 131.248 43.474 130.189 43.474C129.181 43.474 128.564 43.955 128.265 44.7675L128.252 43.5975H126.718V50H128.453V46.8995C128.453 45.6775 128.921 45.086 129.688 45.086C130.325 45.086 130.585 45.4955 130.585 46.36V50H132.314V46.8865L132.321 46.8995C132.321 45.6775 132.789 45.086 133.556 45.086C134.193 45.086 134.453 45.502 134.453 46.36V50H136.182V45.8985C136.182 44.4685 135.577 43.474 134.043 43.474ZM141.251 43.4805C140.23 43.4805 139.554 43.903 139.19 44.7025L139.164 43.5975H137.585V52.4505H139.327V49.116C139.71 49.766 140.347 50.1235 141.251 50.1235C142.973 50.1235 144.078 48.804 144.078 46.7955C144.078 44.7935 142.973 43.4805 141.251 43.4805ZM140.841 48.583C139.899 48.583 139.268 47.8615 139.268 46.7955C139.268 45.736 139.899 45.0405 140.841 45.0405C141.79 45.0405 142.323 45.7165 142.323 46.7955C142.323 47.881 141.79 48.583 140.841 48.583ZM151.143 48.57C150.805 48.57 150.721 48.4075 150.721 48.089V46.1455C150.721 44.9235 150.37 43.474 147.874 43.474C146.268 43.474 145.157 44.241 145.053 45.6905L146.723 45.8855C146.801 45.2095 147.172 44.891 147.88 44.891C148.758 44.891 149.018 45.411 149.018 46.126V46.3795C148.647 46.321 148.257 46.2885 147.835 46.2885C146.073 46.2885 144.838 46.789 144.838 48.141C144.838 49.285 145.625 50.117 147.022 50.117C148.082 50.117 148.855 49.727 149.206 49.0315C149.304 49.779 149.668 50.052 150.623 50.052C150.948 50.052 151.208 50.0325 151.494 49.961V48.544C151.371 48.5635 151.254 48.57 151.143 48.57ZM147.614 48.791C147.035 48.791 146.717 48.5505 146.717 48.076C146.717 47.595 147.146 47.3675 148.075 47.3675C148.407 47.3675 148.706 47.3935 149.018 47.452V48.1475C148.738 48.5505 148.218 48.791 147.614 48.791ZM156.034 43.474C154.961 43.474 154.279 43.994 153.96 44.865L153.947 43.5975H152.4V50H154.142V46.919C154.142 45.697 154.708 45.1055 155.54 45.1055C156.268 45.1055 156.586 45.515 156.586 46.3925V50H158.328V45.905C158.328 44.4555 157.652 43.474 156.034 43.474ZM163.794 43.5975L162.793 47.4325C162.67 47.907 162.559 48.3555 162.455 48.778C162.345 48.336 162.228 47.8615 162.111 47.4195L161.103 43.5975H159.134L161.227 50H161.974L161.922 50.1625C161.643 51.001 160.915 51.209 159.491 50.845L159.192 52.34C161.116 52.8145 162.904 52.4115 163.619 50.1625L165.764 43.5975H163.794Z" fill="black"/>
<g clip-path="url(#clip0)">
<g filter="url(#filter1_d)">
<path d="M204.628 194.285H191.371C185.88 194.285 181.428 198.737 181.428 204.228V217.485C181.428 222.976 185.88 227.428 191.371 227.428H204.628C210.12 227.428 214.571 222.976 214.571 217.485V204.228C214.571 198.737 210.12 194.285 204.628 194.285Z" fill="black"/>
</g>
<path d="M204.628 194.285H191.371C185.88 194.285 181.428 198.737 181.428 204.228V217.485C181.428 222.976 185.88 227.428 191.371 227.428H204.628C210.12 227.428 214.571 222.976 214.571 217.485V204.228C214.571 198.737 210.12 194.285 204.628 194.285Z" fill="#5375FF"/>
<path d="M205.116 203.74C204.828 203.453 204.421 203.337 204.027 203.429L204.021 203.431L191.007 206.616C189.758 206.922 188.885 208.033 188.885 209.32V211.037C188.885 211.663 189.381 212.175 190.001 212.201L194.896 213.034C195 213.052 195.105 213.018 195.179 212.944L200.948 207.175C201.15 206.973 201.478 206.973 201.68 207.175C201.882 207.378 201.882 207.706 201.68 207.908L195.912 213.676C195.837 213.751 195.804 213.856 195.821 213.96L196.654 218.855C196.681 219.475 197.193 219.97 197.818 219.97H199.536C200.822 219.97 201.934 219.098 202.24 217.849L205.425 204.835L205.426 204.829C205.517 204.434 205.401 204.028 205.116 203.74Z" fill="#FBFBFB"/>
</g>
<rect x="49" y="139" width="172" height="7" rx="2" fill="#B0AFAF"/>
<rect x="87" y="154" width="105" height="8" rx="2" fill="#B0AFAF"/>
<ellipse cx="74" cy="58" rx="25" ry="24" fill="#C4C4C4"/>
<rect x="110" y="58" width="73" height="3" rx="1.5" fill="#C4C4C4"/>
<g filter="url(#filter2_d)">
<rect x="50" y="195" width="113" height="31" rx="4" fill="#5375FF"/>
</g>
<path d="M78.0235 214.13C79.811 214.13 80.799 213.194 80.8055 211.79C80.812 210.158 79.486 209.775 78.069 209.365C76.7625 208.982 75.898 208.683 75.898 207.656C75.898 206.772 76.535 206.187 77.77 206.187C79.2325 206.187 79.863 207.025 79.954 208.273L80.734 208.104C80.695 206.291 79.551 205.42 77.8025 205.42C76.171 205.42 74.9945 206.226 74.9945 207.714C74.9945 209.255 76.223 209.749 77.6985 210.145C79.0505 210.522 79.915 210.789 79.915 211.829C79.915 212.901 79.1675 213.356 78.0365 213.356C76.3595 213.356 75.521 212.576 75.547 211.107L74.7215 211.237C74.6825 213.278 76.171 214.13 78.0235 214.13ZM85.6995 207.636C84.666 207.636 83.8925 208.15 83.5025 208.949V204.926H82.651V214H83.5025V210.73C83.5025 209.281 84.3865 208.429 85.5565 208.429C86.6225 208.429 87.136 209.027 87.136 210.353V214H87.9875V210.23C87.9875 208.527 87.2335 207.636 85.6995 207.636ZM92.531 214.13C94.4095 214.13 95.625 212.732 95.625 210.88C95.625 209.027 94.4095 207.636 92.531 207.636C90.6525 207.636 89.4305 209.027 89.4305 210.88C89.4305 212.732 90.6525 214.13 92.531 214.13ZM92.531 213.369C91.1725 213.369 90.295 212.31 90.295 210.88C90.295 209.45 91.1725 208.397 92.531 208.397C93.883 208.397 94.7605 209.45 94.7605 210.88C94.7605 212.31 93.883 213.369 92.531 213.369ZM104.487 207.766L103.499 211.4C103.323 212.05 103.174 212.674 103.011 213.343C102.842 212.648 102.673 212.017 102.491 211.393L101.412 207.773H100.444L99.3581 211.393C99.1761 212.017 99.0071 212.648 98.8381 213.343C98.6756 212.674 98.5261 212.05 98.3571 211.4L97.3691 207.766H96.4851L98.2726 214H99.3516L100.541 210.067C100.684 209.593 100.795 209.125 100.925 208.631C101.055 209.125 101.172 209.593 101.315 210.067L102.498 214H103.577L105.364 207.766H104.487ZM116.371 207.636C115.292 207.636 114.59 208.156 114.252 208.975C114.005 208.098 113.414 207.636 112.387 207.636C111.34 207.636 110.677 208.117 110.339 208.884L110.352 207.766H109.54V214H110.385V210.711C110.385 209.255 111.061 208.41 112.237 208.41C113.232 208.41 113.557 209.014 113.557 210.321V214H114.395V210.711C114.395 209.255 115.065 208.41 116.241 208.41C117.242 208.41 117.567 209.034 117.567 210.321V214H118.406V210.23C118.406 208.566 117.821 207.636 116.371 207.636ZM122.962 214.13C124.84 214.13 126.056 212.732 126.056 210.88C126.056 209.027 124.84 207.636 122.962 207.636C121.083 207.636 119.861 209.027 119.861 210.88C119.861 212.732 121.083 214.13 122.962 214.13ZM122.962 213.369C121.603 213.369 120.726 212.31 120.726 210.88C120.726 209.45 121.603 208.397 122.962 208.397C124.314 208.397 125.191 209.45 125.191 210.88C125.191 212.31 124.314 213.369 122.962 213.369ZM128.417 209.04L128.43 207.766H127.618V214H128.456V210.698C128.456 209.073 129.698 208.267 130.913 208.585L130.972 207.695C129.821 207.441 128.84 207.948 128.417 209.04ZM137.298 210.756C137.298 208.891 136.277 207.636 134.522 207.636C132.761 207.636 131.63 209.06 131.63 210.867C131.63 212.713 132.806 214.13 134.62 214.13C135.881 214.13 136.817 213.545 137.181 212.433L136.511 212.199C136.212 212.94 135.627 213.389 134.62 213.389C133.372 213.389 132.585 212.459 132.488 211.127H137.291C137.298 210.997 137.298 210.873 137.298 210.756ZM134.522 208.364C135.679 208.364 136.355 209.125 136.446 210.425H132.507C132.637 209.209 133.359 208.364 134.522 208.364Z" fill="white"/>
<rect x="44.2" y="108.2" width="51.6" height="13.6" rx="6.8" stroke="#5375FF" stroke-width="0.4"/>
<rect x="107.2" y="108.2" width="41.6" height="13.6" rx="6.8" stroke="#5375FF" stroke-width="0.4"/>
<rect x="169.2" y="108.2" width="22.6" height="13.6" rx="6.8" stroke="#5375FF" stroke-width="0.4"/>
<rect x="336" y="49" width="29" height="197" rx="5" fill="#5375FF"/>
<rect x="405" y="5" width="29" height="241" rx="5" fill="#5375FF"/>
<path d="M313 236H326" stroke="black"/>
<path d="M313 212H326" stroke="black"/>
<path d="M313 187H326" stroke="black"/>
<path d="M313 162H326" stroke="black"/>
<path d="M313 138H326" stroke="black"/>
<path d="M313 106H326" stroke="black"/>
<path d="M313 81H326" stroke="black"/>
<path d="M313 57H326" stroke="black"/>
<path d="M313 35H326" stroke="black"/>
<path d="M313 12H326" stroke="black"/>
<path d="M446.45 10.4275L442.524 8.8415L446.45 7.2555L446.45 5.143L440.834 7.8925L438 7.8925L438 9.7905L440.834 9.7905L446.45 12.54L446.45 10.4275ZM437.876 15.3366C437.876 17.4036 439.254 18.6126 441.204 18.6126C443.148 18.6126 444.526 17.4036 444.526 15.3366C444.526 13.2631 443.148 12.0541 441.204 12.0541C439.254 12.0541 437.876 13.2631 437.876 15.3366ZM439.423 15.3366C439.423 14.3876 440.106 13.7766 441.204 13.7766C442.296 13.7766 442.972 14.3876 442.972 15.3366C442.972 16.2791 442.296 16.8836 441.204 16.8836C440.106 16.8836 439.423 16.2791 439.423 15.3366ZM444.402 23.8268L441.263 23.8268C440.034 23.8268 439.449 23.2613 439.449 22.4293C439.449 21.7078 439.859 21.3828 440.736 21.3828L444.402 21.3828L444.402 19.6408L440.307 19.6408C438.864 19.6408 437.883 20.3168 437.883 21.9353C437.883 23.0013 438.39 23.6838 439.248 24.0023L438 24.0998L438 25.5688L444.402 25.5688L444.402 23.8268Z" fill="#5375FF"/>
<path d="M369.876 54.5435C369.876 56.76 371.02 58.1445 373.139 58.333L373.386 56.5C371.885 56.2855 371.462 55.525 371.462 54.5045C371.462 53.042 372.548 52.3465 374.225 52.3465C375.902 52.3465 376.988 53.042 376.988 54.5045C376.988 55.525 376.519 56.292 375.064 56.5L375.31 58.333C377.429 58.1705 378.573 56.76 378.573 54.5435C378.573 51.898 376.806 50.39 374.225 50.39C371.645 50.39 369.876 51.898 369.876 54.5435ZM369.876 62.3679C369.876 64.4349 371.254 65.6439 373.204 65.6439C375.148 65.6439 376.526 64.4349 376.526 62.3679C376.526 60.2944 375.148 59.0854 373.204 59.0854C371.254 59.0854 369.876 60.2944 369.876 62.3679ZM371.423 62.3679C371.423 61.4189 372.106 60.8079 373.204 60.8079C374.296 60.8079 374.972 61.4189 374.972 62.3679C374.972 63.3104 374.296 63.9149 373.204 63.9149C372.106 63.9149 371.423 63.3104 371.423 62.3679ZM376.526 74.0431C376.526 73.0681 376.071 72.4506 375.304 72.1321C376.064 71.8591 376.526 71.2481 376.526 70.1886C376.526 69.1811 376.045 68.5636 375.232 68.2646L376.402 68.2516L376.402 66.7176L370 66.7176L370 68.4531L373.1 68.4531C374.322 68.4531 374.914 68.9211 374.914 69.6881C374.914 70.3251 374.504 70.5851 373.64 70.5851L370 70.5851L370 72.3141L373.113 72.3141L373.1 72.3206C374.322 72.3206 374.914 72.7886 374.914 73.5556C374.914 74.1926 374.498 74.4526 373.64 74.4526L370 74.4526L370 76.1816L374.101 76.1816C375.531 76.1816 376.526 75.5771 376.526 74.0431ZM376.519 81.2508C376.519 80.2303 376.097 79.5543 375.297 79.1903L376.402 79.1643L376.402 77.5848L367.549 77.5848L367.549 79.3268L370.884 79.3268C370.234 79.7103 369.876 80.3473 369.876 81.2508C369.876 82.9733 371.196 84.0783 373.204 84.0783C375.206 84.0783 376.519 82.9733 376.519 81.2508ZM371.417 80.8413C371.417 79.8988 372.138 79.2683 373.204 79.2683C374.264 79.2683 374.959 79.8988 374.959 80.8413C374.959 81.7903 374.283 82.3233 373.204 82.3233C372.119 82.3233 371.417 81.7903 371.417 80.8413ZM371.43 91.1433C371.43 90.8053 371.592 90.7208 371.911 90.7208L373.854 90.7208C375.076 90.7208 376.526 90.3698 376.526 87.8738C376.526 86.2683 375.759 85.1568 374.309 85.0528L374.114 86.7233C374.79 86.8013 375.109 87.1718 375.109 87.8803C375.109 88.7578 374.589 89.0178 373.874 89.0178L373.62 89.0178C373.679 88.6473 373.711 88.2573 373.711 87.8348C373.711 86.0733 373.211 84.8383 371.859 84.8383C370.715 84.8383 369.883 85.6248 369.883 87.0223C369.883 88.0818 370.273 88.8553 370.968 89.2063C370.221 89.3038 369.948 89.6678 369.948 90.6233C369.948 90.9483 369.967 91.2083 370.039 91.4943L371.456 91.4943C371.436 91.3708 371.43 91.2538 371.43 91.1433ZM371.209 87.6138C371.209 87.0353 371.449 86.7168 371.924 86.7168C372.405 86.7168 372.632 87.1458 372.632 88.0753C372.632 88.4068 372.606 88.7058 372.548 89.0178L371.852 89.0178C371.449 88.7383 371.209 88.2183 371.209 87.6138ZM376.526 96.0337C376.526 94.9612 376.006 94.2787 375.135 93.9602L376.402 93.9472L376.402 92.4002L370 92.4002L370 94.1422L373.081 94.1422C374.303 94.1422 374.894 94.7077 374.894 95.5397C374.894 96.2677 374.485 96.5862 373.607 96.5862L370 96.5862L370 98.3282L374.095 98.3282C375.544 98.3282 376.526 97.6522 376.526 96.0337ZM376.402 103.794L372.567 102.793C372.093 102.67 371.644 102.559 371.222 102.455C371.664 102.345 372.138 102.228 372.58 102.111L376.402 101.103L376.402 99.1336L370 101.227L370 101.974L369.837 101.922C368.999 101.643 368.791 100.915 369.155 99.4911L367.66 99.1921C367.185 101.116 367.588 102.904 369.837 103.619L376.402 105.764L376.402 103.794Z" fill="#5375FF"/>
<defs>
<filter id="filter0_d" x="0" y="0" width="249" height="260" filterUnits="userSpaceOnUse" color-interpolation-filters="sRGB">
<feFlood flood-opacity="0" result="BackgroundImageFix"/>
<feColorMatrix in="SourceAlpha" type="matrix" values="0 0 0 0 0 0 0 0 0 0 0 0 0 0 0 0 0 0 127 0"/>
<feOffset dy="4"/>
<feGaussianBlur stdDeviation="2"/>
<feColorMatrix type="matrix" values="0 0 0 0 0 0 0 0 0 0 0 0 0 0 0 0 0 0 0.25 0"/>
<feBlend mode="normal" in2="BackgroundImageFix" result="effect1_dropShadow"/>
<feBlend mode="normal" in="SourceGraphic" in2="effect1_dropShadow" result="shape"/>
</filter>
<filter id="filter1_d" x="166.428" y="184.285" width="63.1429" height="63.1429" filterUnits="userSpaceOnUse" color-interpolation-filters="sRGB">
<feFlood flood-opacity="0" result="BackgroundImageFix"/>
<feColorMatrix in="SourceAlpha" type="matrix" values="0 0 0 0 0 0 0 0 0 0 0 0 0 0 0 0 0 0 127 0"/>
<feOffset dy="5"/>
<feGaussianBlur stdDeviation="7.5"/>
<feColorMatrix type="matrix" values="0 0 0 0 0.0470588 0 0 0 0 0.0666667 0 0 0 0 0.109804 0 0 0 0.151825 0"/>
<feBlend mode="normal" in2="BackgroundImageFix" result="effect1_dropShadow"/>
<feBlend mode="normal" in="SourceGraphic" in2="effect1_dropShadow" result="shape"/>
</filter>
<filter id="filter2_d" x="46" y="193" width="121" height="39" filterUnits="userSpaceOnUse" color-interpolation-filters="sRGB">
<feFlood flood-opacity="0" result="BackgroundImageFix"/>
<feColorMatrix in="SourceAlpha" type="matrix" values="0 0 0 0 0 0 0 0 0 0 0 0 0 0 0 0 0 0 127 0"/>
<feOffset dy="2"/>
<feGaussianBlur stdDeviation="2"/>
<feColorMatrix type="matrix" values="0 0 0 0 0 0 0 0 0 0 0 0 0 0 0 0 0 0 0.25 0"/>
<feBlend mode="normal" in2="BackgroundImageFix" result="effect1_dropShadow"/>
<feBlend mode="normal" in="SourceGraphic" in2="effect1_dropShadow" result="shape"/>
</filter>
<clipPath id="clip0">
<rect width="58" height="58" fill="white" transform="translate(169 186)"/>
</clipPath>
</defs>
</svg>
