<svg width="394" height="374" viewBox="0 0 394 374" fill="none" xmlns="http://www.w3.org/2000/svg">
<g filter="url(#filter0_d)">
<rect x="114" width="276" height="206" rx="29" fill="#F3F3F3"/>
</g>
<rect x="131" y="46" width="19" height="16" rx="3" fill="#C4C4C4"/>
<rect x="159" y="46" width="19" height="16" rx="3" fill="#C4C4C4"/>
<rect x="187" y="46" width="19" height="16" rx="3" fill="#C4C4C4"/>
<rect x="215" y="46" width="19" height="16" rx="3" fill="#C4C4C4"/>
<rect x="243" y="46" width="19" height="16" rx="3" fill="#C4C4C4"/>
<rect x="271" y="46" width="19" height="16" rx="3" fill="#C4C4C4"/>
<rect x="299" y="46" width="19" height="16" rx="3" fill="#C4C4C4"/>
<rect x="327" y="46" width="19" height="16" rx="3" fill="#C4C4C4"/>
<rect x="355" y="46" width="19" height="16" rx="3" fill="#C4C4C4"/>
<rect x="131" y="73" width="19" height="16" rx="3" fill="#C4C4C4"/>
<rect x="159" y="73" width="19" height="16" rx="3" fill="#C4C4C4"/>
<rect x="187" y="73" width="19" height="16" rx="3" fill="#C4C4C4"/>
<rect x="215" y="73" width="19" height="16" rx="3" fill="#C4C4C4"/>
<rect x="243" y="73" width="19" height="16" rx="3" fill="#C4C4C4"/>
<rect x="271" y="73" width="19" height="16" rx="3" fill="#C4C4C4"/>
<rect x="299" y="73" width="19" height="16" rx="3" fill="#C4C4C4"/>
<rect x="327" y="73" width="19" height="16" rx="3" fill="#C4C4C4"/>
<rect x="355" y="73" width="19" height="16" rx="3" fill="#C4C4C4"/>
<rect x="131" y="100" width="19" height="16" rx="3" fill="#C4C4C4"/>
<rect x="159" y="100" width="19" height="16" rx="3" fill="#C4C4C4"/>
<rect x="187" y="100" width="19" height="16" rx="3" fill="#C4C4C4"/>
<rect x="215" y="100" width="19" height="16" rx="3" fill="#C4C4C4"/>
<rect x="243" y="100" width="19" height="16" rx="3" fill="#C4C4C4"/>
<rect x="271" y="100" width="19" height="16" rx="3" fill="#C4C4C4"/>
<rect x="299" y="100" width="19" height="16" rx="3" fill="#C4C4C4"/>
<rect x="327" y="100" width="19" height="16" rx="3" fill="#C4C4C4"/>
<rect x="355" y="100" width="19" height="16" rx="3" fill="#C4C4C4"/>
<rect x="131" y="127" width="19" height="16" rx="3" fill="#C4C4C4"/>
<rect x="159" y="127" width="19" height="16" rx="3" fill="#C4C4C4"/>
<rect x="187" y="127" width="19" height="16" rx="3" fill="#C4C4C4"/>
<rect x="215" y="127" width="19" height="16" rx="3" fill="#C4C4C4"/>
<rect x="243" y="127" width="19" height="16" rx="3" fill="#C4C4C4"/>
<rect x="271" y="127" width="19" height="16" rx="3" fill="#C4C4C4"/>
<rect x="299" y="127" width="19" height="16" rx="3" fill="#5375FF"/>
<rect x="327" y="127" width="19" height="16" rx="3" fill="#C4C4C4"/>
<rect x="355" y="127" width="19" height="16" rx="3" fill="#C4C4C4"/>
<path d="M275.267 162H278.375C281.42 162 282.918 160.201 282.918 157.436C282.918 154.685 281.42 152.9 278.375 152.9H275.267V162ZM276.485 160.964V153.936H278.403C280.671 153.936 281.672 155.259 281.672 157.436C281.672 159.613 280.671 160.964 278.403 160.964H276.485ZM284.81 162H290.543V160.964H286.014V157.786H289.976V156.799H286.014V153.936H290.403V152.9H284.81V162ZM298.976 162H300.285L296.981 152.9H295.245L291.941 162H293.25L294.048 159.732H298.178L298.976 162ZM294.384 158.78L296.113 153.873L297.842 158.78H294.384ZM301.982 162H305.09C308.135 162 309.633 160.201 309.633 157.436C309.633 154.685 308.135 152.9 305.09 152.9H301.982V162ZM303.2 160.964V153.936H305.118C307.386 153.936 308.387 155.259 308.387 157.436C308.387 159.613 307.386 160.964 305.118 160.964H303.2ZM311.525 162H316.929V160.978H312.729V152.9H311.525V162ZM318.648 162H319.852V152.9H318.648V162ZM327.952 152.9V158.458C327.952 158.997 327.966 159.564 328.001 160.138C327.665 159.515 327.364 158.99 327.063 158.493L323.64 152.9H322.38V162H323.556V156.33C323.556 155.826 323.549 155.294 323.521 154.755C323.829 155.336 324.109 155.826 324.389 156.288L327.896 162H329.128V152.9H327.952ZM331.663 162H337.396V160.964H332.867V157.786H336.829V156.799H332.867V153.936H337.256V152.9H331.663V162ZM339.69 159.459H340.691L340.782 152.9H339.599L339.69 159.459ZM340.194 162.14C340.677 162.14 341.083 161.741 341.083 161.251C341.083 160.768 340.677 160.369 340.194 160.369C339.704 160.369 339.291 160.768 339.291 161.251C339.291 161.741 339.704 162.14 340.194 162.14Z" fill="#5375FF"/>
<path d="M211.388 30.228C215.48 30.228 218.036 28.116 218.384 24.204L215 23.748C214.604 26.52 213.2 27.3 211.316 27.3C208.616 27.3 207.332 25.296 207.332 22.2C207.332 19.104 208.616 17.1 211.316 17.1C213.2 17.1 214.616 17.964 215 20.652L218.384 20.196C218.084 16.284 215.48 14.172 211.388 14.172C206.504 14.172 203.72 17.436 203.72 22.2C203.72 26.964 206.504 30.228 211.388 30.228ZM231.449 27.36C230.825 27.36 230.669 27.06 230.669 26.472V22.884C230.669 20.628 230.021 17.952 225.413 17.952C222.449 17.952 220.397 19.368 220.205 22.044L223.289 22.404C223.433 21.156 224.117 20.568 225.425 20.568C227.045 20.568 227.525 21.528 227.525 22.848V23.316C226.841 23.208 226.121 23.148 225.341 23.148C222.089 23.148 219.809 24.072 219.809 26.568C219.809 28.68 221.261 30.216 223.841 30.216C225.797 30.216 227.225 29.496 227.873 28.212C228.053 29.592 228.725 30.096 230.489 30.096C231.089 30.096 231.569 30.06 232.097 29.928V27.312C231.869 27.348 231.653 27.36 231.449 27.36ZM224.933 27.768C223.865 27.768 223.277 27.324 223.277 26.448C223.277 25.56 224.069 25.14 225.785 25.14C226.397 25.14 226.949 25.188 227.525 25.296V26.58C227.009 27.324 226.049 27.768 224.933 27.768ZM233.77 30H236.986V13.248H233.77V30ZM250.356 23.916C250.356 20.28 248.244 17.952 244.776 17.952C241.224 17.952 238.968 20.58 238.968 24.096C238.968 27.684 241.14 30.228 244.872 30.228C247.608 30.228 249.6 28.932 250.14 26.388L247.428 25.968C247.128 27.048 246.3 27.588 244.86 27.588C243.348 27.588 242.412 26.688 242.16 24.972H250.296C250.344 24.564 250.356 24.24 250.356 23.916ZM244.776 20.556C246.12 20.556 247.056 21.348 247.188 22.944H242.184C242.46 21.384 243.396 20.556 244.776 20.556ZM259.063 17.952C257.083 17.952 255.823 18.912 255.235 20.52L255.211 18.18H252.355V30H255.571V24.312C255.571 22.056 256.615 20.964 258.151 20.964C259.495 20.964 260.083 21.72 260.083 23.34V30H263.299V22.44C263.299 19.764 262.051 17.952 259.063 17.952ZM274.002 13.248V19.752C273.306 18.576 272.166 17.952 270.474 17.952C267.306 17.952 265.218 20.376 265.218 24.072C265.218 27.792 267.306 30.228 270.474 30.228C272.43 30.228 273.666 29.328 274.314 27.744L274.458 30H277.218V13.248H274.002ZM271.182 27.384C269.442 27.384 268.446 26.088 268.446 24.072C268.446 22.08 269.442 20.832 271.182 20.832C272.922 20.832 274.098 22.116 274.098 24.072C274.098 26.052 272.934 27.384 271.182 27.384ZM290.887 27.36C290.263 27.36 290.107 27.06 290.107 26.472V22.884C290.107 20.628 289.459 17.952 284.851 17.952C281.887 17.952 279.835 19.368 279.643 22.044L282.727 22.404C282.871 21.156 283.555 20.568 284.863 20.568C286.483 20.568 286.963 21.528 286.963 22.848V23.316C286.279 23.208 285.559 23.148 284.779 23.148C281.527 23.148 279.247 24.072 279.247 26.568C279.247 28.68 280.699 30.216 283.279 30.216C285.235 30.216 286.663 29.496 287.311 28.212C287.491 29.592 288.163 30.096 289.927 30.096C290.527 30.096 291.007 30.06 291.535 29.928V27.312C291.307 27.348 291.091 27.36 290.887 27.36ZM284.371 27.768C283.303 27.768 282.715 27.324 282.715 26.448C282.715 25.56 283.507 25.14 285.223 25.14C285.835 25.14 286.387 25.188 286.963 25.296V26.58C286.447 27.324 285.487 27.768 284.371 27.768ZM296.063 20.64L296.027 18.18H293.207V29.988H296.399V24.672C296.399 21.972 298.319 21.048 300.407 21.48V18.012C298.223 17.628 296.723 18.756 296.063 20.64Z" fill="#5375FF"/>
<g filter="url(#filter1_d)">
<rect x="4" y="135" width="254" height="231" rx="31" fill="#F3F3F3"/>
</g>
<path d="M96.62 156.4L93.932 165.64C93.74 166.372 93.548 167.092 93.368 167.824C93.176 167.08 92.984 166.348 92.792 165.64L90.104 156.4H84.692V172H87.908V162.748C87.908 161.788 87.896 160.852 87.896 159.844C88.16 160.96 88.46 162.004 88.796 163.036L91.7 172H95.024L97.94 163.036C98.264 162.028 98.564 160.984 98.828 159.868C98.828 160.876 98.816 161.8 98.816 162.748V172H102.032V156.4H96.62ZM112.539 160.18L110.691 167.26C110.463 168.136 110.259 168.964 110.067 169.744C109.863 168.928 109.647 168.052 109.431 167.236L107.571 160.18H103.935L107.799 172H109.179L109.083 172.3C108.567 173.848 107.223 174.232 104.595 173.56L104.043 176.32C107.595 177.196 110.895 176.452 112.215 172.3L116.175 160.18H112.539ZM130.728 160.192L130.704 162.28C130.032 160.768 128.772 159.952 126.816 159.952C123.624 159.952 121.536 162.316 121.536 165.928C121.536 169.564 123.624 171.94 126.816 171.94C128.748 171.94 130.008 171.088 130.68 169.564V171.016C130.68 173.248 129.3 174.172 127.368 174.172C125.832 174.172 124.368 173.572 123.288 172.468L121.776 174.688C123.228 176.104 124.992 176.764 127.272 176.764C131.064 176.764 133.536 174.82 133.536 171.112V160.192H130.728ZM127.512 169.18C125.76 169.18 124.764 167.908 124.764 165.928C124.764 163.984 125.76 162.748 127.512 162.748C129.288 162.748 130.452 164.02 130.452 165.928C130.452 167.872 129.288 169.18 127.512 169.18ZM139.196 162.64L139.16 160.18H136.34V171.988H139.532V166.672C139.532 163.972 141.452 163.048 143.54 163.48V160.012C141.356 159.628 139.856 160.756 139.196 162.64ZM150.435 172.228C154.251 172.228 156.483 169.684 156.483 166.084C156.483 162.496 154.251 159.952 150.435 159.952C146.607 159.952 144.375 162.496 144.375 166.084C144.375 169.684 146.607 172.228 150.435 172.228ZM150.435 169.372C148.683 169.372 147.555 168.112 147.555 166.084C147.555 164.068 148.683 162.82 150.435 162.82C152.175 162.82 153.291 164.068 153.291 166.084C153.291 168.112 152.175 169.372 150.435 169.372ZM166.109 160.18V165.976C166.109 168.244 165.065 169.324 163.529 169.324C162.197 169.324 161.597 168.568 161.597 166.948V160.18H158.381V167.74C158.381 170.404 159.629 172.216 162.617 172.216C164.585 172.216 165.845 171.28 166.433 169.696L166.613 172H169.325V160.18H166.109ZM178.78 159.964C176.896 159.964 175.648 160.744 174.976 162.22L174.928 160.18H172.012V176.524H175.228V170.368C175.936 171.568 177.112 172.228 178.78 172.228C181.96 172.228 184 169.792 184 166.084C184 162.388 181.96 159.964 178.78 159.964ZM178.024 169.384C176.284 169.384 175.12 168.052 175.12 166.084C175.12 164.128 176.284 162.844 178.024 162.844C179.776 162.844 180.76 164.092 180.76 166.084C180.76 168.088 179.776 169.384 178.024 169.384Z" fill="#5375FF"/>
<circle cx="51.5" cy="222.5" r="9.5" fill="#C4C4C4"/>
<path d="M213.169 332C219.687 332 225 327.782 225 322.587V290H110.831C104.313 290 99 294.227 99 299.413V322.587C99 327.773 104.302 332 110.831 332H213.169Z" fill="#D1D2D2"/>
<rect x="105" y="314" width="104" height="2" rx="1" fill="#F8F8F8"/>
<rect x="105" y="308" width="104" height="2" rx="1" fill="#F8F8F8"/>
<path d="M81.8311 274C75.3131 274 70 269.782 70 264.587V232H184.169C190.687 232 196 236.227 196 241.413V264.587C196 269.773 190.698 274 184.169 274H81.8311Z" fill="#5375FF"/>
<rect x="78" y="253" width="104" height="3" rx="1.5" fill="#DEEFFF"/>
<rect x="78" y="246" width="104" height="3" rx="1.5" fill="#DEEFFF"/>
<defs>
<filter id="filter0_d" x="110" y="0" width="284" height="214" filterUnits="userSpaceOnUse" color-interpolation-filters="sRGB">
<feFlood flood-opacity="0" result="BackgroundImageFix"/>
<feColorMatrix in="SourceAlpha" type="matrix" values="0 0 0 0 0 0 0 0 0 0 0 0 0 0 0 0 0 0 127 0"/>
<feOffset dy="4"/>
<feGaussianBlur stdDeviation="2"/>
<feColorMatrix type="matrix" values="0 0 0 0 0 0 0 0 0 0 0 0 0 0 0 0 0 0 0.25 0"/>
<feBlend mode="normal" in2="BackgroundImageFix" result="effect1_dropShadow"/>
<feBlend mode="normal" in="SourceGraphic" in2="effect1_dropShadow" result="shape"/>
</filter>
<filter id="filter1_d" x="0" y="135" width="262" height="239" filterUnits="userSpaceOnUse" color-interpolation-filters="sRGB">
<feFlood flood-opacity="0" result="BackgroundImageFix"/>
<feColorMatrix in="SourceAlpha" type="matrix" values="0 0 0 0 0 0 0 0 0 0 0 0 0 0 0 0 0 0 127 0"/>
<feOffset dy="4"/>
<feGaussianBlur stdDeviation="2"/>
<feColorMatrix type="matrix" values="0 0 0 0 0 0 0 0 0 0 0 0 0 0 0 0 0 0 0.25 0"/>
<feBlend mode="normal" in2="BackgroundImageFix" result="effect1_dropShadow"/>
<feBlend mode="normal" in="SourceGraphic" in2="effect1_dropShadow" result="shape"/>
</filter>
</defs>
</svg>
