<svg width="480" height="495" viewBox="0 0 480 495" fill="none" xmlns="http://www.w3.org/2000/svg">
<g filter="url(#filter0_d)">
<rect x="10" y="2" width="460" height="475" rx="48" fill="white"/>
</g>
<path d="M43.2925 144.929C46.3615 144.929 48.2785 143.345 48.5395 140.411L46.0015 140.069C45.7045 142.148 44.6515 142.733 43.2385 142.733C41.2135 142.733 40.2505 141.23 40.2505 138.908C40.2505 136.586 41.2135 135.083 43.2385 135.083C44.6515 135.083 45.7135 135.731 46.0015 137.747L48.5395 137.405C48.3145 134.471 46.3615 132.887 43.2925 132.887C39.6295 132.887 37.5415 135.335 37.5415 138.908C37.5415 142.481 39.6295 144.929 43.2925 144.929ZM55.1972 135.722C53.8742 135.722 52.9922 136.316 52.5062 137.324V132.194H50.0942V144.758H52.5062V140.492C52.5062 138.8 53.2892 137.981 54.4412 137.981C55.4492 137.981 55.8902 138.548 55.8902 139.763V144.758H58.3022V139.088C58.3022 137.081 57.3662 135.722 55.1972 135.722ZM68.4984 142.778C68.0304 142.778 67.9134 142.553 67.9134 142.112V139.421C67.9134 137.729 67.4274 135.722 63.9714 135.722C61.7484 135.722 60.2094 136.784 60.0654 138.791L62.3784 139.061C62.4864 138.125 62.9994 137.684 63.9804 137.684C65.1954 137.684 65.5554 138.404 65.5554 139.394V139.745C65.0424 139.664 64.5024 139.619 63.9174 139.619C61.4784 139.619 59.7684 140.312 59.7684 142.184C59.7684 143.768 60.8574 144.92 62.7924 144.92C64.2594 144.92 65.3304 144.38 65.8164 143.417C65.9514 144.452 66.4554 144.83 67.7784 144.83C68.2284 144.83 68.5884 144.803 68.9844 144.704V142.742C68.8134 142.769 68.6514 142.778 68.4984 142.778ZM63.6114 143.084C62.8104 143.084 62.3694 142.751 62.3694 142.094C62.3694 141.428 62.9634 141.113 64.2504 141.113C64.7094 141.113 65.1234 141.149 65.5554 141.23V142.193C65.1684 142.751 64.4484 143.084 63.6114 143.084ZM75.4561 142.571C75.0871 142.697 74.7541 142.76 74.3401 142.76C73.4311 142.76 73.1341 142.265 73.1341 141.374V137.927H75.6451V135.893H73.1341V133.13L70.7221 133.472V135.893H69.2191V137.927H70.7221V141.698C70.7221 143.714 71.7031 144.875 73.8811 144.875C74.6101 144.875 75.2311 144.776 75.8341 144.578L75.4561 142.571ZM80.7932 144.929C83.0162 144.929 84.4112 143.858 84.4112 142.184C84.4202 140.537 83.3042 139.943 80.9282 139.421C79.5692 139.124 79.2272 138.863 79.2272 138.35C79.2272 137.882 79.5782 137.549 80.4602 137.549C81.4142 137.549 82.0082 137.99 82.1162 139.052L84.3032 138.854C84.1862 136.955 83.0702 135.722 80.4512 135.722C78.4442 135.722 76.9322 136.694 76.9232 138.485C76.9142 140.123 77.9672 140.816 80.4422 141.329C81.6122 141.563 82.0712 141.734 82.0712 142.301C82.0712 142.823 81.6842 143.102 80.7752 143.102C79.7402 143.102 79.0292 142.715 78.8942 141.608L76.6172 141.815C76.7792 143.993 78.5612 144.929 80.7932 144.929Z" fill="black"/>
<path d="M171.834 120.143L171.325 454.425" stroke="#9A9A9A"/>
<circle cx="50.7392" cy="185.269" r="16.7904" fill="#C4C4C4"/>
<circle cx="214.064" cy="151.18" r="18.3168" fill="#C4C4C4"/>
<rect x="80.7588" y="172.549" width="40.7041" height="4.07041" rx="2" fill="#C4C4C4"/>
<rect x="245.61" y="135.916" width="75.3025" height="6.10561" rx="2" fill="#C4C4C4"/>
<rect x="245.61" y="150.162" width="38.6689" height="4.07041" rx="2" fill="#C4C4C4"/>
<rect x="80.7588" y="184.76" width="74.2849" height="3.05281" rx="1.5264" fill="#C4C4C4"/>
<circle cx="50.7392" cy="242.255" r="16.7904" fill="#C4C4C4"/>
<rect x="80.7588" y="229.535" width="40.7041" height="4.07041" rx="2" fill="#C4C4C4"/>
<rect x="80.7588" y="241.746" width="74.2849" height="3.05281" rx="1.5264" fill="#C4C4C4"/>
<circle cx="50.7392" cy="295.169" r="16.7904" fill="#C4C4C4"/>
<rect x="80.7588" y="282.449" width="40.7041" height="4.07041" rx="2" fill="#C4C4C4"/>
<rect x="80.7588" y="294.662" width="74.2849" height="3.05281" rx="1.5264" fill="#C4C4C4"/>
<path d="M8 265.66H171.325" stroke="#9A9A9A"/>
<path d="M8 321.119H171.325" stroke="#9A9A9A"/>
<path d="M8 212.236H171.325" stroke="#9A9A9A"/>
<path d="M171.834 188.322H468.974" stroke="#9A9A9A"/>
<path d="M171.325 418.299H469.483" stroke="#9A9A9A"/>
<rect x="245.61" y="428.984" width="167.904" height="20.352" rx="4" fill="#E6E6E6"/>
<g clip-path="url(#clip0)">
<path fill-rule="evenodd" clip-rule="evenodd" d="M410.461 428.984H428.76C431.58 428.984 433.866 431.263 433.866 434.072V444.248C433.866 447.058 431.58 449.336 428.76 449.336H410.461V428.984Z" fill="#5375FF"/>
<path d="M426.847 434.282C426.671 434.106 426.419 434.035 426.176 434.091L426.173 434.092L418.152 436.048C417.382 436.236 416.845 436.918 416.845 437.708V438.763C416.845 439.147 417.15 439.461 417.532 439.477L420.549 439.989C420.613 440 420.678 439.979 420.724 439.934L424.279 436.392C424.404 436.267 424.605 436.267 424.73 436.392C424.855 436.516 424.855 436.717 424.73 436.841L421.175 440.384C421.129 440.429 421.108 440.494 421.119 440.557L421.633 443.564C421.649 443.944 421.965 444.248 422.35 444.248H423.409C424.202 444.248 424.887 443.712 425.075 442.945L427.038 434.954L427.039 434.951C427.096 434.708 427.024 434.458 426.847 434.282Z" fill="#FBFBFB"/>
</g>
<path d="M253.124 443.037H254.07V436.696H256.16V435.887H251.034V436.696H253.124V443.037ZM260.2 437.73L259.116 440.925C258.957 441.409 258.808 441.871 258.665 442.333C258.506 441.871 258.346 441.398 258.187 440.925L257.103 437.73H256.091L258.055 443.048H258.308L258.192 443.384C257.884 444.247 257.257 444.467 256.284 444.324L256.168 445.144C257.549 445.353 258.583 444.913 259.089 443.466L261.212 437.73H260.2ZM265.064 437.625C264.151 437.625 263.508 437.999 263.161 438.709L263.15 437.73H262.298V445.182H263.194V442.08C263.552 442.762 264.173 443.147 265.064 443.147C266.604 443.147 267.473 442.009 267.473 440.375C267.473 438.753 266.604 437.625 265.064 437.625ZM264.91 442.35C263.832 442.35 263.161 441.503 263.161 440.375C263.161 439.253 263.832 438.428 264.91 438.428C266.005 438.428 266.555 439.231 266.555 440.375C266.555 441.525 266.005 442.35 264.91 442.35ZM273.305 440.282C273.305 438.687 272.42 437.62 270.913 437.62C269.389 437.62 268.416 438.824 268.416 440.375C268.416 441.959 269.406 443.147 270.995 443.147C272.101 443.147 272.915 442.636 273.206 441.64L272.486 441.437C272.255 442.031 271.793 442.383 270.99 442.383C270.022 442.383 269.417 441.701 269.318 440.661H273.294C273.305 440.529 273.305 440.403 273.305 440.282ZM270.907 438.368C271.804 438.368 272.337 438.945 272.414 439.952H269.323C269.444 439 270.016 438.368 270.907 438.368ZM279.511 437.62C278.669 437.62 278.048 438.01 277.718 438.643V435.359H276.821V443.037H277.718V440.309C277.718 439.121 278.4 438.456 279.324 438.456C280.16 438.456 280.556 438.923 280.556 439.957V443.037H281.452V439.781C281.452 438.39 280.825 437.62 279.511 437.62ZM287.485 440.282C287.485 438.687 286.599 437.62 285.092 437.62C283.569 437.62 282.595 438.824 282.595 440.375C282.595 441.959 283.585 443.147 285.175 443.147C286.28 443.147 287.094 442.636 287.386 441.64L286.665 441.437C286.434 442.031 285.972 442.383 285.169 442.383C284.201 442.383 283.596 441.701 283.497 440.661H287.474C287.485 440.529 287.485 440.403 287.485 440.282ZM285.087 438.368C285.983 438.368 286.517 438.945 286.594 439.952H283.503C283.624 439 284.196 438.368 285.087 438.368ZM289.57 438.802L289.576 437.73H288.734V443.037H289.603V440.348C289.603 438.989 290.643 438.362 291.66 438.604L291.682 437.664C290.72 437.455 289.922 437.9 289.57 438.802ZM297.067 440.282C297.067 438.687 296.181 437.62 294.674 437.62C293.151 437.62 292.177 438.824 292.177 440.375C292.177 441.959 293.167 443.147 294.757 443.147C295.862 443.147 296.676 442.636 296.968 441.64L296.247 441.437C296.016 442.031 295.554 442.383 294.751 442.383C293.783 442.383 293.178 441.701 293.079 440.661H297.056C297.067 440.529 297.067 440.403 297.067 440.282ZM294.669 438.368C295.565 438.368 296.099 438.945 296.176 439.952H293.085C293.206 439 293.778 438.368 294.669 438.368ZM298.916 443.147C299.295 443.147 299.614 442.834 299.614 442.449C299.614 442.069 299.295 441.756 298.916 441.756C298.531 441.756 298.206 442.069 298.206 442.449C298.206 442.834 298.531 443.147 298.916 443.147ZM301.773 443.147C302.153 443.147 302.472 442.834 302.472 442.449C302.472 442.069 302.153 441.756 301.773 441.756C301.388 441.756 301.064 442.069 301.064 442.449C301.064 442.834 301.388 443.147 301.773 443.147ZM304.631 443.147C305.01 443.147 305.329 442.834 305.329 442.449C305.329 442.069 305.01 441.756 304.631 441.756C304.246 441.756 303.921 442.069 303.921 442.449C303.921 442.834 304.246 443.147 304.631 443.147Z" fill="#858383"/>
<circle cx="216.72" cy="234.72" r="12.72" fill="#C4C4C4"/>
<path d="M428.58 377.693C437.16 377.693 444.154 372.174 444.154 365.377V322.742H293.86C285.28 322.742 278.285 328.273 278.285 335.058V365.377C278.285 372.162 285.264 377.693 293.86 377.693H428.58Z" fill="#D1D2D2"/>
<rect x="286.426" y="354.289" width="136.359" height="3.05281" rx="1.5264" fill="#F8F8F8"/>
<rect x="286.426" y="346.148" width="136.359" height="3.05281" rx="1.5264" fill="#F8F8F8"/>
<path d="M256.209 301.372C247.628 301.372 240.634 295.853 240.634 289.056V246.422H390.928C399.509 246.422 406.503 251.953 406.503 258.738V289.056C406.503 295.841 399.524 301.372 390.928 301.372H256.209Z" fill="#5375FF"/>
<rect x="250.81" y="274.914" width="136.359" height="3.05281" rx="1.5264" fill="#DEEFFF"/>
<rect x="250.81" y="266.773" width="136.359" height="3.05281" rx="1.5264" fill="#DEEFFF"/>
<g clip-path="url(#clip1)">
<path d="M88.3 44C87.5 44 86.7 44.3 86.2 44.9C85.6 45.5 85.3 46.2 85.3 47C85.3 47.8 85 48.5 84.4 49.1C83.8 49.7 83 50 82.2 50C81.4 50 80.6 49.7 80.1 49.1C79.5 48.5 79.2 47.8 79.2 47C79.2 45.8 79 44.6 78.5 43.6C78 42.5 77.4 41.5 76.5 40.7C75.7 39.9 74.7 39.2 73.5 38.7C72.5 38.2 71.3 38 70.1 38C68.9 38 67.7 38.2 66.6 38.7C65.5 39.2 64.5 39.8 63.6 40.7C62.8 41.5 62.1 42.5 61.6 43.6C61.2 44.6 61 45.8 61 47C61 47.8 61.3 48.6 61.9 49.1C62.5 49.7 63.2 50 64 50C64.8 50 65.6 49.7 66.1 49.1C66.8 48.6 67.1 47.8 67.1 47C67.1 46.2 67.4 45.5 68 44.9C68.6 44.3 69.3 44 70.1 44C70.9 44 71.7 44.3 72.2 44.9C72.8 45.5 73.1 46.2 73.1 47C73.1 49.4 74.1 51.7 75.8 53.4C77.5 55.1 79.8 56 82.2 56C84.6 56 86.9 55.1 88.6 53.4C90.3 51.7 91.3 49.4 91.3 47C91.3 46.2 91 45.4 90.4 44.9C89.9 44.3 89.1 44 88.3 44Z" fill="#5977F7"/>
</g>
<circle cx="417.5" cy="37.5" r="13.5" fill="#EBEDF2"/>
<defs>
<filter id="filter0_d" x="0" y="0" width="480" height="495" filterUnits="userSpaceOnUse" color-interpolation-filters="sRGB">
<feFlood flood-opacity="0" result="BackgroundImageFix"/>
<feColorMatrix in="SourceAlpha" type="matrix" values="0 0 0 0 0 0 0 0 0 0 0 0 0 0 0 0 0 0 127 0"/>
<feOffset dy="8"/>
<feGaussianBlur stdDeviation="5"/>
<feColorMatrix type="matrix" values="0 0 0 0 0 0 0 0 0 0 0 0 0 0 0 0 0 0 0.25 0"/>
<feBlend mode="normal" in2="BackgroundImageFix" result="effect1_dropShadow"/>
<feBlend mode="normal" in="SourceGraphic" in2="effect1_dropShadow" result="shape"/>
</filter>
<clipPath id="clip0">
<rect width="23.4048" height="20.352" fill="white" transform="translate(410.461 428.984)"/>
</clipPath>
<clipPath id="clip1">
<rect width="30.3" height="18" fill="white" transform="translate(61 38)"/>
</clipPath>
</defs>
</svg>
