<svg width="355" height="378" viewBox="0 0 355 378" fill="none" xmlns="http://www.w3.org/2000/svg">
<g filter="url(#filter0_d)">
<rect x="4" width="346.343" height="370" rx="37" fill="white"/>
<rect x="4.5" y="0.5" width="345.343" height="369" rx="36.5" stroke="#C6C6C6"/>
</g>
<path d="M152.215 29.3L150.199 36.23C150.055 36.779 149.911 37.319 149.776 37.868C149.632 37.31 149.488 36.761 149.344 36.23L147.328 29.3H143.269V41H145.681V34.061C145.681 33.341 145.672 32.639 145.672 31.883C145.87 32.72 146.095 33.503 146.347 34.277L148.525 41H151.018L153.205 34.277C153.448 33.521 153.673 32.738 153.871 31.901C153.871 32.657 153.862 33.35 153.862 34.061V41H156.274V29.3H152.215ZM166.782 39.02C166.314 39.02 166.197 38.795 166.197 38.354V35.663C166.197 33.971 165.711 31.964 162.255 31.964C160.032 31.964 158.493 33.026 158.349 35.033L160.662 35.303C160.77 34.367 161.283 33.926 162.264 33.926C163.479 33.926 163.839 34.646 163.839 35.636V35.987C163.326 35.906 162.786 35.861 162.201 35.861C159.762 35.861 158.052 36.554 158.052 38.426C158.052 40.01 159.141 41.162 161.076 41.162C162.543 41.162 163.614 40.622 164.1 39.659C164.235 40.694 164.739 41.072 166.062 41.072C166.512 41.072 166.872 41.045 167.268 40.946V38.984C167.097 39.011 166.935 39.02 166.782 39.02ZM161.895 39.326C161.094 39.326 160.653 38.993 160.653 38.336C160.653 37.67 161.247 37.355 162.534 37.355C162.993 37.355 163.407 37.391 163.839 37.472V38.435C163.452 38.993 162.732 39.326 161.895 39.326ZM173.74 38.813C173.371 38.939 173.038 39.002 172.624 39.002C171.715 39.002 171.418 38.507 171.418 37.616V34.169H173.929V32.135H171.418V29.372L169.006 29.714V32.135H167.503V34.169H169.006V37.94C169.006 39.956 169.987 41.117 172.165 41.117C172.894 41.117 173.515 41.018 174.118 40.82L173.74 38.813ZM179.347 41.171C181.552 41.171 183.181 40.181 183.595 37.715L181.3 37.481C181.093 38.543 180.427 39.101 179.374 39.101C178.024 39.101 177.286 38.084 177.286 36.563C177.286 35.051 178.024 34.034 179.374 34.034C180.427 34.034 181.093 34.592 181.3 35.645L183.595 35.42C183.181 32.954 181.552 31.964 179.347 31.964C176.539 31.964 174.865 33.89 174.865 36.563C174.865 39.245 176.539 41.171 179.347 41.171ZM190.149 31.964C188.826 31.964 187.944 32.558 187.458 33.566V28.436H185.046V41H187.458V36.734C187.458 35.042 188.241 34.223 189.393 34.223C190.401 34.223 190.842 34.79 190.842 36.005V41H193.254V35.33C193.254 33.323 192.318 31.964 190.149 31.964ZM203.234 36.437C203.234 33.71 201.65 31.964 199.049 31.964C196.385 31.964 194.693 33.935 194.693 36.572C194.693 39.263 196.322 41.171 199.121 41.171C201.173 41.171 202.667 40.199 203.072 38.291L201.038 37.976C200.813 38.786 200.192 39.191 199.112 39.191C197.978 39.191 197.276 38.516 197.087 37.229H203.189C203.225 36.923 203.234 36.68 203.234 36.437ZM199.049 33.917C200.057 33.917 200.759 34.511 200.858 35.708H197.105C197.312 34.538 198.014 33.917 199.049 33.917ZM208.432 41.171C210.655 41.171 212.05 40.1 212.05 38.426C212.059 36.779 210.943 36.185 208.567 35.663C207.208 35.366 206.866 35.105 206.866 34.592C206.866 34.124 207.217 33.791 208.099 33.791C209.053 33.791 209.647 34.232 209.755 35.294L211.942 35.096C211.825 33.197 210.709 31.964 208.09 31.964C206.083 31.964 204.571 32.936 204.562 34.727C204.553 36.365 205.606 37.058 208.081 37.571C209.251 37.805 209.71 37.976 209.71 38.543C209.71 39.065 209.323 39.344 208.414 39.344C207.379 39.344 206.668 38.957 206.533 37.85L204.256 38.057C204.418 40.235 206.2 41.171 208.432 41.171Z" fill="black"/>
<rect x="22" y="69" width="89.8977" height="124.91" rx="15" fill="#E7E7E7"/>
<g clip-path="url(#clip0)">
<g filter="url(#filter1_d)">
<path d="M96.73 173.77H91.1063C88.7769 173.77 86.8885 175.658 86.8885 177.987V183.611C86.8885 185.94 88.7769 187.829 91.1063 187.829H96.73C99.0594 187.829 100.948 185.94 100.948 183.611V177.987C100.948 175.658 99.0594 173.77 96.73 173.77Z" fill="black"/>
</g>
<path d="M96.73 173.77H91.1063C88.7769 173.77 86.8885 175.658 86.8885 177.987V183.611C86.8885 185.94 88.7769 187.829 91.1063 187.829H96.73C99.0594 187.829 100.948 185.94 100.948 183.611V177.987C100.948 175.658 99.0594 173.77 96.73 173.77Z" fill="#5375FF"/>
<path d="M96.9367 177.78C96.8147 177.658 96.6421 177.609 96.4748 177.648L96.4724 177.649L90.952 179C90.422 179.129 90.0519 179.601 90.0519 180.147V180.875C90.0519 181.141 90.2621 181.358 90.525 181.369L92.6015 181.722C92.6454 181.73 92.6901 181.716 92.7217 181.684L95.1687 179.237C95.2545 179.151 95.3937 179.151 95.4794 179.237C95.5652 179.323 95.5652 179.462 95.4794 179.548L93.0324 181.995C93.0008 182.026 92.9867 182.071 92.9938 182.115L93.3474 184.191C93.3586 184.454 93.5758 184.664 93.8412 184.664H94.5698C95.1153 184.664 95.587 184.294 95.7167 183.765L97.0678 178.244L97.0685 178.242C97.1071 178.074 97.0579 177.902 96.9367 177.78Z" fill="#FBFBFB"/>
</g>
<rect x="30.5166" y="150.381" width="72.8644" height="2.83887" rx="1.41944" fill="#B0AFAF"/>
<rect x="46.6036" y="157.006" width="44.4757" height="2.83887" rx="1.41944" fill="#B0AFAF"/>
<circle cx="43.7647" cy="92.6573" r="10.4092" fill="#C4C4C4"/>
<rect x="58.9053" y="86.0332" width="38.798" height="2.83887" rx="1.41944" fill="#B0AFAF"/>
<rect x="58.9053" y="91.7109" width="31.2276" height="0.946292" rx="0.473146" fill="#C4C4C4"/>
<rect x="28.624" y="116.314" width="77.5959" height="13.2481" rx="2" fill="#E5ECFE"/>
<rect x="28.624" y="116.314" width="67.1867" height="13.2481" rx="2" fill="url(#paint0_linear)"/>
<g filter="url(#filter2_d)">
<rect x="31.4629" y="174.039" width="47.3146" height="13.2481" rx="2" fill="#5375FF"/>
</g>
<path d="M42.7828 182.937C43.6078 182.937 44.0638 182.505 44.0668 181.857C44.0698 181.104 43.4578 180.927 42.8038 180.738C42.2008 180.561 41.8018 180.423 41.8018 179.949C41.8018 179.541 42.0958 179.271 42.6658 179.271C43.3408 179.271 43.6318 179.658 43.6738 180.234L44.0338 180.156C44.0158 179.319 43.4878 178.917 42.6808 178.917C41.9278 178.917 41.3848 179.289 41.3848 179.976C41.3848 180.687 41.9518 180.915 42.6328 181.098C43.2568 181.272 43.6558 181.395 43.6558 181.875C43.6558 182.37 43.3108 182.58 42.7888 182.58C42.0148 182.58 41.6278 182.22 41.6398 181.542L41.2588 181.602C41.2408 182.544 41.9278 182.937 42.7828 182.937ZM46.3256 179.94C45.8486 179.94 45.4916 180.177 45.3116 180.546V178.689H44.9186V182.877H45.3116V181.368C45.3116 180.699 45.7196 180.306 46.2596 180.306C46.7516 180.306 46.9886 180.582 46.9886 181.194V182.877H47.3816V181.137C47.3816 180.351 47.0336 179.94 46.3256 179.94ZM49.4786 182.937C50.3456 182.937 50.9066 182.292 50.9066 181.437C50.9066 180.582 50.3456 179.94 49.4786 179.94C48.6116 179.94 48.0476 180.582 48.0476 181.437C48.0476 182.292 48.6116 182.937 49.4786 182.937ZM49.4786 182.586C48.8516 182.586 48.4466 182.097 48.4466 181.437C48.4466 180.777 48.8516 180.291 49.4786 180.291C50.1026 180.291 50.5076 180.777 50.5076 181.437C50.5076 182.097 50.1026 182.586 49.4786 182.586ZM54.9966 180L54.5406 181.677C54.4596 181.977 54.3906 182.265 54.3156 182.574C54.2376 182.253 54.1596 181.962 54.0756 181.674L53.5776 180.003H53.1306L52.6296 181.674C52.5456 181.962 52.4676 182.253 52.3896 182.574C52.3146 182.265 52.2456 181.977 52.1676 181.677L51.7116 180H51.3036L52.1286 182.877H52.6266L53.1756 181.062C53.2416 180.843 53.2926 180.627 53.3526 180.399C53.4126 180.627 53.4666 180.843 53.5326 181.062L54.0786 182.877H54.5766L55.4016 180H54.9966ZM60.4818 179.94C59.9838 179.94 59.6598 180.18 59.5038 180.558C59.3898 180.153 59.1168 179.94 58.6428 179.94C58.1598 179.94 57.8538 180.162 57.6978 180.516L57.7038 180H57.3288V182.877H57.7188V181.359C57.7188 180.687 58.0308 180.297 58.5738 180.297C59.0328 180.297 59.1828 180.576 59.1828 181.179V182.877H59.5698V181.359C59.5698 180.687 59.8788 180.297 60.4218 180.297C60.8838 180.297 61.0338 180.585 61.0338 181.179V182.877H61.4208V181.137C61.4208 180.369 61.1508 179.94 60.4818 179.94ZM63.5235 182.937C64.3905 182.937 64.9515 182.292 64.9515 181.437C64.9515 180.582 64.3905 179.94 63.5235 179.94C62.6565 179.94 62.0925 180.582 62.0925 181.437C62.0925 182.292 62.6565 182.937 63.5235 182.937ZM63.5235 182.586C62.8965 182.586 62.4915 182.097 62.4915 181.437C62.4915 180.777 62.8965 180.291 63.5235 180.291C64.1475 180.291 64.5525 180.777 64.5525 181.437C64.5525 182.097 64.1475 182.586 63.5235 182.586ZM66.0415 180.588L66.0475 180H65.6725V182.877H66.0595V181.353C66.0595 180.603 66.6325 180.231 67.1935 180.378L67.2205 179.967C66.6895 179.85 66.2365 180.084 66.0415 180.588ZM70.1402 181.38C70.1402 180.519 69.6692 179.94 68.8592 179.94C68.0462 179.94 67.5242 180.597 67.5242 181.431C67.5242 182.283 68.0672 182.937 68.9042 182.937C69.4862 182.937 69.9182 182.667 70.0862 182.154L69.7772 182.046C69.6392 182.388 69.3692 182.595 68.9042 182.595C68.3282 182.595 67.9652 182.166 67.9202 181.551H70.1372C70.1402 181.491 70.1402 181.434 70.1402 181.38ZM68.8592 180.276C69.3932 180.276 69.7052 180.627 69.7472 181.227H67.9292C67.9892 180.666 68.3222 180.276 68.8592 180.276Z" fill="white"/>
<path d="M38.1058 121.254L37.0468 123.945C36.9448 124.209 36.8758 124.407 36.7978 124.635C36.7198 124.404 36.6328 124.161 36.5488 123.945L35.4898 121.254H34.8688V125.154H35.2618V122.448C35.2618 122.184 35.2588 121.947 35.2558 121.689C35.3428 121.95 35.4328 122.196 35.5408 122.466L36.6178 125.154H36.9778L38.0548 122.466C38.1598 122.199 38.2498 121.956 38.3398 121.683C38.3368 121.956 38.3338 122.19 38.3338 122.448V125.154H38.7268V121.254H38.1058ZM42.2129 124.851C41.9999 124.851 41.9699 124.695 41.9699 124.542V123.39C41.9699 122.838 41.7839 122.217 40.8359 122.217C40.2269 122.217 39.8339 122.487 39.6719 123.03L40.0259 123.147C40.1519 122.754 40.3739 122.556 40.8389 122.556C41.4149 122.556 41.5829 122.916 41.5829 123.387V123.597C41.3639 123.57 41.1449 123.555 40.9439 123.555C40.1819 123.555 39.5969 123.753 39.5969 124.377C39.5969 124.905 40.0019 125.214 40.5839 125.214C41.0579 125.214 41.4239 125.001 41.6129 124.695C41.6369 125.01 41.7719 125.184 42.1319 125.184C42.2159 125.184 42.2939 125.175 42.3809 125.157V124.836C42.3209 124.848 42.2699 124.851 42.2129 124.851ZM40.6319 124.872C40.2869 124.872 40.0199 124.719 40.0199 124.368C40.0199 123.99 40.3829 123.867 40.9559 123.867C41.1539 123.867 41.3639 123.879 41.5829 123.903V124.38C41.3909 124.686 41.0429 124.872 40.6319 124.872ZM44.5633 124.725C44.4433 124.806 44.3203 124.845 44.1583 124.845C43.8013 124.845 43.6393 124.65 43.6393 124.218V122.61H44.6293V122.277H43.6393V121.341L43.2493 121.395V122.277H42.6283V122.61H43.2493V124.263C43.2493 124.917 43.5853 125.199 44.1133 125.199C44.3443 125.199 44.5273 125.142 44.6953 125.034L44.5633 124.725ZM46.4659 125.214C47.0959 125.214 47.5699 124.911 47.7139 124.266L47.3659 124.194C47.2429 124.617 46.9639 124.866 46.4689 124.866C45.8269 124.866 45.4729 124.368 45.4729 123.714C45.4729 123.063 45.8269 122.565 46.4689 122.565C46.9639 122.565 47.2429 122.814 47.3659 123.237L47.7139 123.165C47.5699 122.52 47.0959 122.217 46.4659 122.217C45.6049 122.217 45.0739 122.868 45.0739 123.714C45.0739 124.56 45.6049 125.214 46.4659 125.214ZM49.8851 122.217C49.4081 122.217 49.0511 122.454 48.8711 122.823V120.966H48.4781V125.154H48.8711V123.645C48.8711 122.976 49.2791 122.583 49.8191 122.583C50.3111 122.583 50.5481 122.859 50.5481 123.471V125.154H50.9411V123.414C50.9411 122.628 50.5931 122.217 49.8851 122.217Z" fill="white"/>
<path d="M56.7569 123.111C57.1499 122.949 57.3719 122.655 57.3719 122.271C57.3719 121.605 56.7719 121.2 55.9169 121.2C55.0619 121.2 54.4619 121.605 54.4619 122.271C54.4619 122.655 54.6839 122.949 55.0769 123.111C54.6059 123.279 54.3479 123.609 54.3479 124.056C54.3479 124.749 55.0259 125.208 55.9169 125.208C56.8079 125.208 57.4859 124.749 57.4859 124.056C57.4859 123.609 57.2279 123.279 56.7569 123.111ZM55.9169 121.95C56.2139 121.95 56.3609 122.115 56.3609 122.343C56.3609 122.598 56.1929 122.754 55.9169 122.754C55.6409 122.754 55.4729 122.598 55.4729 122.343C55.4729 122.115 55.6199 121.95 55.9169 121.95ZM55.9169 124.452C55.5779 124.452 55.3709 124.248 55.3709 123.96C55.3709 123.66 55.5719 123.474 55.9169 123.474C56.2619 123.474 56.4629 123.66 56.4629 123.96C56.4629 124.248 56.2559 124.452 55.9169 124.452ZM59.3312 121.2C58.3862 121.2 57.7952 121.782 57.7952 122.583C57.7952 123.291 58.2602 123.834 59.0222 123.834C59.4542 123.834 59.7842 123.66 59.9582 123.315C59.9252 123.984 59.5862 124.308 59.0282 124.308C58.7132 124.308 58.4522 124.236 58.2092 124.086L57.8972 124.914C58.2152 125.106 58.6142 125.208 59.0432 125.208C60.3032 125.208 60.9092 124.347 60.9092 123.069C60.9092 121.872 60.3542 121.2 59.3312 121.2ZM59.3222 122.994C59.0132 122.994 58.7972 122.835 58.7972 122.535C58.7972 122.235 59.0162 122.058 59.3462 122.058C59.7722 122.058 59.9132 122.349 59.9072 122.721C59.7752 122.904 59.5562 122.994 59.3222 122.994ZM62.2042 123.162C62.7922 123.162 63.1762 122.754 63.1762 122.184C63.1762 121.608 62.7922 121.2 62.2042 121.2C61.6162 121.2 61.2262 121.608 61.2262 122.184C61.2262 122.754 61.6162 123.162 62.2042 123.162ZM61.6102 125.154H62.4742L65.0302 121.254H64.1662L61.6102 125.154ZM62.2042 122.484C62.0422 122.484 61.9462 122.37 61.9462 122.184C61.9462 121.992 62.0422 121.872 62.2042 121.872C62.3602 121.872 62.4562 121.992 62.4562 122.184C62.4562 122.37 62.3602 122.484 62.2042 122.484ZM64.4302 125.208C65.0182 125.208 65.4082 124.8 65.4082 124.224C65.4082 123.654 65.0182 123.246 64.4302 123.246C63.8422 123.246 63.4582 123.654 63.4582 124.224C63.4582 124.8 63.8422 125.208 64.4302 125.208ZM64.4302 124.536C64.2742 124.536 64.1782 124.416 64.1782 124.224C64.1782 124.038 64.2742 123.924 64.4302 123.924C64.5922 123.924 64.6822 124.038 64.6822 124.224C64.6822 124.416 64.5922 124.536 64.4302 124.536Z" fill="white"/>
<rect x="28.824" y="137.333" width="21.3647" height="5.27775" rx="2.63887" stroke="#5375FF" stroke-width="0.4"/>
<rect x="55.3202" y="137.333" width="17.5795" height="5.27775" rx="2.63887" stroke="#5375FF" stroke-width="0.4"/>
<rect x="81.8163" y="137.333" width="9.06292" height="5.27775" rx="2.63887" stroke="#5375FF" stroke-width="0.4"/>
<rect x="241.519" y="221.432" width="89.8977" height="124.91" rx="15" fill="#E7E7E7"/>
<g clip-path="url(#clip1)">
<g filter="url(#filter3_d)">
<path d="M316.249 326.199H310.626C308.296 326.199 306.408 328.088 306.408 330.417V336.041C306.408 338.37 308.296 340.258 310.626 340.258H316.249C318.579 340.258 320.467 338.37 320.467 336.041V330.417C320.467 328.088 318.579 326.199 316.249 326.199Z" fill="black"/>
</g>
<path d="M316.249 326.199H310.626C308.296 326.199 306.408 328.088 306.408 330.417V336.041C306.408 338.37 308.296 340.258 310.626 340.258H316.249C318.579 340.258 320.467 338.37 320.467 336.041V330.417C320.467 328.088 318.579 326.199 316.249 326.199Z" fill="#5375FF"/>
<path d="M316.456 330.209C316.334 330.088 316.161 330.039 315.994 330.078L315.992 330.078L310.471 331.429C309.941 331.559 309.571 332.03 309.571 332.576V333.305C309.571 333.57 309.781 333.787 310.044 333.799L312.121 334.152C312.165 334.16 312.209 334.145 312.241 334.114L314.688 331.667C314.774 331.581 314.913 331.581 314.999 331.667C315.084 331.752 315.084 331.892 314.999 331.977L312.552 334.424C312.52 334.456 312.506 334.501 312.513 334.545L312.867 336.621C312.878 336.884 313.095 337.094 313.36 337.094H314.089C314.635 337.094 315.106 336.724 315.236 336.194L316.587 330.674L316.588 330.671C316.626 330.504 316.577 330.331 316.456 330.209Z" fill="#FBFBFB"/>
</g>
<rect x="250.036" y="302.812" width="72.8644" height="2.83887" rx="1.41944" fill="#B0AFAF"/>
<rect x="266.123" y="309.436" width="44.4757" height="2.83887" rx="1.41944" fill="#B0AFAF"/>
<circle cx="263.284" cy="245.089" r="10.4092" fill="#C4C4C4"/>
<rect x="278.425" y="238.465" width="38.798" height="2.83887" rx="1.41944" fill="#B0AFAF"/>
<rect x="278.425" y="244.143" width="31.2276" height="0.946292" rx="0.473146" fill="#C4C4C4"/>
<rect x="248.143" y="268.746" width="77.5959" height="13.2481" rx="2" fill="#E5ECFE"/>
<rect x="248.143" y="268.746" width="67.1867" height="13.2481" rx="2" fill="url(#paint1_linear)"/>
<g filter="url(#filter4_d)">
<rect x="250.982" y="326.469" width="47.3146" height="13.2481" rx="2" fill="#5375FF"/>
</g>
<path d="M262.302 335.369C263.127 335.369 263.583 334.937 263.586 334.289C263.589 333.536 262.977 333.359 262.323 333.17C261.72 332.993 261.321 332.855 261.321 332.381C261.321 331.973 261.615 331.703 262.185 331.703C262.86 331.703 263.151 332.09 263.193 332.666L263.553 332.588C263.535 331.751 263.007 331.349 262.2 331.349C261.447 331.349 260.904 331.721 260.904 332.408C260.904 333.119 261.471 333.347 262.152 333.53C262.776 333.704 263.175 333.827 263.175 334.307C263.175 334.802 262.83 335.012 262.308 335.012C261.534 335.012 261.147 334.652 261.159 333.974L260.778 334.034C260.76 334.976 261.447 335.369 262.302 335.369ZM265.845 332.372C265.368 332.372 265.011 332.609 264.831 332.978V331.121H264.438V335.309H264.831V333.8C264.831 333.131 265.239 332.738 265.779 332.738C266.271 332.738 266.508 333.014 266.508 333.626V335.309H266.901V333.569C266.901 332.783 266.553 332.372 265.845 332.372ZM268.998 335.369C269.865 335.369 270.426 334.724 270.426 333.869C270.426 333.014 269.865 332.372 268.998 332.372C268.131 332.372 267.567 333.014 267.567 333.869C267.567 334.724 268.131 335.369 268.998 335.369ZM268.998 335.018C268.371 335.018 267.966 334.529 267.966 333.869C267.966 333.209 268.371 332.723 268.998 332.723C269.622 332.723 270.027 333.209 270.027 333.869C270.027 334.529 269.622 335.018 268.998 335.018ZM274.516 332.432L274.06 334.109C273.979 334.409 273.91 334.697 273.835 335.006C273.757 334.685 273.679 334.394 273.595 334.106L273.097 332.435H272.65L272.149 334.106C272.065 334.394 271.987 334.685 271.909 335.006C271.834 334.697 271.765 334.409 271.687 334.109L271.231 332.432H270.823L271.648 335.309H272.146L272.695 333.494C272.761 333.275 272.812 333.059 272.872 332.831C272.932 333.059 272.986 333.275 273.052 333.494L273.598 335.309H274.096L274.921 332.432H274.516ZM280.001 332.372C279.503 332.372 279.179 332.612 279.023 332.99C278.909 332.585 278.636 332.372 278.162 332.372C277.679 332.372 277.373 332.594 277.217 332.948L277.223 332.432H276.848V335.309H277.238V333.791C277.238 333.119 277.55 332.729 278.093 332.729C278.552 332.729 278.702 333.008 278.702 333.611V335.309H279.089V333.791C279.089 333.119 279.398 332.729 279.941 332.729C280.403 332.729 280.553 333.017 280.553 333.611V335.309H280.94V333.569C280.94 332.801 280.67 332.372 280.001 332.372ZM283.043 335.369C283.91 335.369 284.471 334.724 284.471 333.869C284.471 333.014 283.91 332.372 283.043 332.372C282.176 332.372 281.612 333.014 281.612 333.869C281.612 334.724 282.176 335.369 283.043 335.369ZM283.043 335.018C282.416 335.018 282.011 334.529 282.011 333.869C282.011 333.209 282.416 332.723 283.043 332.723C283.667 332.723 284.072 333.209 284.072 333.869C284.072 334.529 283.667 335.018 283.043 335.018ZM285.561 333.02L285.567 332.432H285.192V335.309H285.579V333.785C285.579 333.035 286.152 332.663 286.713 332.81L286.74 332.399C286.209 332.282 285.756 332.516 285.561 333.02ZM289.659 333.812C289.659 332.951 289.188 332.372 288.378 332.372C287.565 332.372 287.043 333.029 287.043 333.863C287.043 334.715 287.586 335.369 288.423 335.369C289.005 335.369 289.437 335.099 289.605 334.586L289.296 334.478C289.158 334.82 288.888 335.027 288.423 335.027C287.847 335.027 287.484 334.598 287.439 333.983H289.656C289.659 333.923 289.659 333.866 289.659 333.812ZM288.378 332.708C288.912 332.708 289.224 333.059 289.266 333.659H287.448C287.508 333.098 287.841 332.708 288.378 332.708Z" fill="white"/>
<path d="M257.625 273.684L256.566 276.375C256.464 276.639 256.395 276.837 256.317 277.065C256.239 276.834 256.152 276.591 256.068 276.375L255.009 273.684H254.388V277.584H254.781V274.878C254.781 274.614 254.778 274.377 254.775 274.119C254.862 274.38 254.952 274.626 255.06 274.896L256.137 277.584H256.497L257.574 274.896C257.679 274.629 257.769 274.386 257.859 274.113C257.856 274.386 257.853 274.62 257.853 274.878V277.584H258.246V273.684H257.625ZM261.732 277.281C261.519 277.281 261.489 277.125 261.489 276.972V275.82C261.489 275.268 261.303 274.647 260.355 274.647C259.746 274.647 259.353 274.917 259.191 275.46L259.545 275.577C259.671 275.184 259.893 274.986 260.358 274.986C260.934 274.986 261.102 275.346 261.102 275.817V276.027C260.883 276 260.664 275.985 260.463 275.985C259.701 275.985 259.116 276.183 259.116 276.807C259.116 277.335 259.521 277.644 260.103 277.644C260.577 277.644 260.943 277.431 261.132 277.125C261.156 277.44 261.291 277.614 261.651 277.614C261.735 277.614 261.813 277.605 261.9 277.587V277.266C261.84 277.278 261.789 277.281 261.732 277.281ZM260.151 277.302C259.806 277.302 259.539 277.149 259.539 276.798C259.539 276.42 259.902 276.297 260.475 276.297C260.673 276.297 260.883 276.309 261.102 276.333V276.81C260.91 277.116 260.562 277.302 260.151 277.302ZM264.083 277.155C263.963 277.236 263.84 277.275 263.678 277.275C263.321 277.275 263.159 277.08 263.159 276.648V275.04H264.149V274.707H263.159V273.771L262.769 273.825V274.707H262.148V275.04H262.769V276.693C262.769 277.347 263.105 277.629 263.633 277.629C263.864 277.629 264.047 277.572 264.215 277.464L264.083 277.155ZM265.985 277.644C266.615 277.644 267.089 277.341 267.233 276.696L266.885 276.624C266.762 277.047 266.483 277.296 265.988 277.296C265.346 277.296 264.992 276.798 264.992 276.144C264.992 275.493 265.346 274.995 265.988 274.995C266.483 274.995 266.762 275.244 266.885 275.667L267.233 275.595C267.089 274.95 266.615 274.647 265.985 274.647C265.124 274.647 264.593 275.298 264.593 276.144C264.593 276.99 265.124 277.644 265.985 277.644ZM269.404 274.647C268.927 274.647 268.57 274.884 268.39 275.253V273.396H267.997V277.584H268.39V276.075C268.39 275.406 268.798 275.013 269.338 275.013C269.83 275.013 270.067 275.289 270.067 275.901V277.584H270.46V275.844C270.46 275.058 270.112 274.647 269.404 274.647Z" fill="white"/>
<path d="M276.276 275.541C276.669 275.379 276.891 275.085 276.891 274.701C276.891 274.035 276.291 273.63 275.436 273.63C274.581 273.63 273.981 274.035 273.981 274.701C273.981 275.085 274.203 275.379 274.596 275.541C274.125 275.709 273.867 276.039 273.867 276.486C273.867 277.179 274.545 277.638 275.436 277.638C276.327 277.638 277.005 277.179 277.005 276.486C277.005 276.039 276.747 275.709 276.276 275.541ZM275.436 274.38C275.733 274.38 275.88 274.545 275.88 274.773C275.88 275.028 275.712 275.184 275.436 275.184C275.16 275.184 274.992 275.028 274.992 274.773C274.992 274.545 275.139 274.38 275.436 274.38ZM275.436 276.882C275.097 276.882 274.89 276.678 274.89 276.39C274.89 276.09 275.091 275.904 275.436 275.904C275.781 275.904 275.982 276.09 275.982 276.39C275.982 276.678 275.775 276.882 275.436 276.882ZM278.85 273.63C277.905 273.63 277.314 274.212 277.314 275.013C277.314 275.721 277.779 276.264 278.541 276.264C278.973 276.264 279.303 276.09 279.477 275.745C279.444 276.414 279.105 276.738 278.547 276.738C278.232 276.738 277.971 276.666 277.728 276.516L277.416 277.344C277.734 277.536 278.133 277.638 278.562 277.638C279.822 277.638 280.428 276.777 280.428 275.499C280.428 274.302 279.873 273.63 278.85 273.63ZM278.841 275.424C278.532 275.424 278.316 275.265 278.316 274.965C278.316 274.665 278.535 274.488 278.865 274.488C279.291 274.488 279.432 274.779 279.426 275.151C279.294 275.334 279.075 275.424 278.841 275.424ZM281.723 275.592C282.311 275.592 282.695 275.184 282.695 274.614C282.695 274.038 282.311 273.63 281.723 273.63C281.135 273.63 280.745 274.038 280.745 274.614C280.745 275.184 281.135 275.592 281.723 275.592ZM281.129 277.584H281.993L284.549 273.684H283.685L281.129 277.584ZM281.723 274.914C281.561 274.914 281.465 274.8 281.465 274.614C281.465 274.422 281.561 274.302 281.723 274.302C281.879 274.302 281.975 274.422 281.975 274.614C281.975 274.8 281.879 274.914 281.723 274.914ZM283.949 277.638C284.537 277.638 284.927 277.23 284.927 276.654C284.927 276.084 284.537 275.676 283.949 275.676C283.361 275.676 282.977 276.084 282.977 276.654C282.977 277.23 283.361 277.638 283.949 277.638ZM283.949 276.966C283.793 276.966 283.697 276.846 283.697 276.654C283.697 276.468 283.793 276.354 283.949 276.354C284.111 276.354 284.201 276.468 284.201 276.654C284.201 276.846 284.111 276.966 283.949 276.966Z" fill="white"/>
<rect x="248.343" y="289.764" width="21.3647" height="5.27775" rx="2.63887" stroke="#5375FF" stroke-width="0.4"/>
<rect x="274.839" y="289.764" width="17.5795" height="5.27775" rx="2.63887" stroke="#5375FF" stroke-width="0.4"/>
<rect x="301.336" y="289.764" width="9.06292" height="5.27775" rx="2.63887" stroke="#5375FF" stroke-width="0.4"/>
<rect x="131" y="66" width="95" height="132" rx="15" fill="#E7E7E7"/>
<g clip-path="url(#clip2)">
<g filter="url(#filter5_d)">
<path d="M209.971 176.715H204.029C201.567 176.715 199.571 178.71 199.571 181.172V187.115C199.571 189.576 201.567 191.572 204.029 191.572H209.971C212.433 191.572 214.429 189.576 214.429 187.115V181.172C214.429 178.71 212.433 176.715 209.971 176.715Z" fill="black"/>
</g>
<path d="M209.971 176.715H204.029C201.567 176.715 199.571 178.71 199.571 181.172V187.115C199.571 189.576 201.567 191.572 204.029 191.572H209.971C212.433 191.572 214.429 189.576 214.429 187.115V181.172C214.429 178.71 212.433 176.715 209.971 176.715Z" fill="#5375FF"/>
<path d="M210.19 180.954C210.061 180.825 209.879 180.773 209.702 180.815L209.699 180.815L203.865 182.243C203.305 182.38 202.914 182.878 202.914 183.455V184.225C202.914 184.506 203.136 184.735 203.414 184.747L205.609 185.12C205.655 185.128 205.702 185.113 205.736 185.08L208.322 182.494C208.412 182.403 208.559 182.403 208.65 182.494C208.74 182.585 208.74 182.732 208.65 182.822L206.064 185.408C206.031 185.442 206.016 185.489 206.023 185.535L206.397 187.73C206.409 188.007 206.638 188.229 206.919 188.229H207.689C208.265 188.229 208.764 187.838 208.901 187.279L210.328 181.445L210.329 181.442C210.37 181.265 210.318 181.083 210.19 180.954Z" fill="#FBFBFB"/>
</g>
<rect x="140" y="152" width="77" height="3" rx="1.5" fill="#B0AFAF"/>
<rect x="157" y="159" width="47" height="3" rx="1.5" fill="#B0AFAF"/>
<circle cx="154" cy="91" r="11" fill="#C4C4C4"/>
<rect x="170" y="84" width="41" height="3" rx="1.5" fill="#B0AFAF"/>
<rect x="170" y="90" width="33" height="1" rx="0.5" fill="#C4C4C4"/>
<rect x="138" y="116" width="82" height="14" rx="2" fill="#E5ECFE"/>
<rect x="138" y="116" width="53" height="14" rx="2" fill="url(#paint2_linear)"/>
<g filter="url(#filter6_d)">
<rect x="141" y="177" width="50" height="14" rx="2" fill="#5375FF"/>
</g>
<path d="M152.857 186.06C153.682 186.06 154.138 185.628 154.141 184.98C154.144 184.227 153.532 184.05 152.878 183.861C152.275 183.684 151.876 183.546 151.876 183.072C151.876 182.664 152.17 182.394 152.74 182.394C153.415 182.394 153.706 182.781 153.748 183.357L154.108 183.279C154.09 182.442 153.562 182.04 152.755 182.04C152.002 182.04 151.459 182.412 151.459 183.099C151.459 183.81 152.026 184.038 152.707 184.221C153.331 184.395 153.73 184.518 153.73 184.998C153.73 185.493 153.385 185.703 152.863 185.703C152.089 185.703 151.702 185.343 151.714 184.665L151.333 184.725C151.315 185.667 152.002 186.06 152.857 186.06ZM156.4 183.063C155.923 183.063 155.566 183.3 155.386 183.669V181.812H154.993V186H155.386V184.491C155.386 183.822 155.794 183.429 156.334 183.429C156.826 183.429 157.063 183.705 157.063 184.317V186H157.456V184.26C157.456 183.474 157.108 183.063 156.4 183.063ZM159.553 186.06C160.42 186.06 160.981 185.415 160.981 184.56C160.981 183.705 160.42 183.063 159.553 183.063C158.686 183.063 158.122 183.705 158.122 184.56C158.122 185.415 158.686 186.06 159.553 186.06ZM159.553 185.709C158.926 185.709 158.521 185.22 158.521 184.56C158.521 183.9 158.926 183.414 159.553 183.414C160.177 183.414 160.582 183.9 160.582 184.56C160.582 185.22 160.177 185.709 159.553 185.709ZM165.071 183.123L164.615 184.8C164.534 185.1 164.465 185.388 164.39 185.697C164.312 185.376 164.234 185.085 164.15 184.797L163.652 183.126H163.205L162.704 184.797C162.62 185.085 162.542 185.376 162.464 185.697C162.389 185.388 162.32 185.1 162.242 184.8L161.786 183.123H161.378L162.203 186H162.701L163.25 184.185C163.316 183.966 163.367 183.75 163.427 183.522C163.487 183.75 163.541 183.966 163.607 184.185L164.153 186H164.651L165.476 183.123H165.071ZM170.556 183.063C170.058 183.063 169.734 183.303 169.578 183.681C169.464 183.276 169.191 183.063 168.717 183.063C168.234 183.063 167.928 183.285 167.772 183.639L167.778 183.123H167.403V186H167.793V184.482C167.793 183.81 168.105 183.42 168.648 183.42C169.107 183.42 169.257 183.699 169.257 184.302V186H169.644V184.482C169.644 183.81 169.953 183.42 170.496 183.42C170.958 183.42 171.108 183.708 171.108 184.302V186H171.495V184.26C171.495 183.492 171.225 183.063 170.556 183.063ZM173.598 186.06C174.465 186.06 175.026 185.415 175.026 184.56C175.026 183.705 174.465 183.063 173.598 183.063C172.731 183.063 172.167 183.705 172.167 184.56C172.167 185.415 172.731 186.06 173.598 186.06ZM173.598 185.709C172.971 185.709 172.566 185.22 172.566 184.56C172.566 183.9 172.971 183.414 173.598 183.414C174.222 183.414 174.627 183.9 174.627 184.56C174.627 185.22 174.222 185.709 173.598 185.709ZM176.116 183.711L176.122 183.123H175.747V186H176.134V184.476C176.134 183.726 176.707 183.354 177.268 183.501L177.295 183.09C176.764 182.973 176.311 183.207 176.116 183.711ZM180.214 184.503C180.214 183.642 179.743 183.063 178.933 183.063C178.12 183.063 177.598 183.72 177.598 184.554C177.598 185.406 178.141 186.06 178.978 186.06C179.56 186.06 179.992 185.79 180.16 185.277L179.851 185.169C179.713 185.511 179.443 185.718 178.978 185.718C178.402 185.718 178.039 185.289 177.994 184.674H180.211C180.214 184.614 180.214 184.557 180.214 184.503ZM178.933 183.399C179.467 183.399 179.779 183.75 179.821 184.35H178.003C178.063 183.789 178.396 183.399 178.933 183.399Z" fill="white"/>
<path d="M147.804 121.1L146.745 123.791C146.643 124.055 146.574 124.253 146.496 124.481C146.418 124.25 146.331 124.007 146.247 123.791L145.188 121.1H144.567V125H144.96V122.294C144.96 122.03 144.957 121.793 144.954 121.535C145.041 121.796 145.131 122.042 145.239 122.312L146.316 125H146.676L147.753 122.312C147.858 122.045 147.948 121.802 148.038 121.529C148.035 121.802 148.032 122.036 148.032 122.294V125H148.425V121.1H147.804ZM151.911 124.697C151.698 124.697 151.668 124.541 151.668 124.388V123.236C151.668 122.684 151.482 122.063 150.534 122.063C149.925 122.063 149.532 122.333 149.37 122.876L149.724 122.993C149.85 122.6 150.072 122.402 150.537 122.402C151.113 122.402 151.281 122.762 151.281 123.233V123.443C151.062 123.416 150.843 123.401 150.642 123.401C149.88 123.401 149.295 123.599 149.295 124.223C149.295 124.751 149.7 125.06 150.282 125.06C150.756 125.06 151.122 124.847 151.311 124.541C151.335 124.856 151.47 125.03 151.83 125.03C151.914 125.03 151.992 125.021 152.079 125.003V124.682C152.019 124.694 151.968 124.697 151.911 124.697ZM150.33 124.718C149.985 124.718 149.718 124.565 149.718 124.214C149.718 123.836 150.081 123.713 150.654 123.713C150.852 123.713 151.062 123.725 151.281 123.749V124.226C151.089 124.532 150.741 124.718 150.33 124.718ZM154.262 124.571C154.142 124.652 154.019 124.691 153.857 124.691C153.5 124.691 153.338 124.496 153.338 124.064V122.456H154.328V122.123H153.338V121.187L152.948 121.241V122.123H152.327V122.456H152.948V124.109C152.948 124.763 153.284 125.045 153.812 125.045C154.043 125.045 154.226 124.988 154.394 124.88L154.262 124.571ZM156.164 125.06C156.794 125.06 157.268 124.757 157.412 124.112L157.064 124.04C156.941 124.463 156.662 124.712 156.167 124.712C155.525 124.712 155.171 124.214 155.171 123.56C155.171 122.909 155.525 122.411 156.167 122.411C156.662 122.411 156.941 122.66 157.064 123.083L157.412 123.011C157.268 122.366 156.794 122.063 156.164 122.063C155.303 122.063 154.772 122.714 154.772 123.56C154.772 124.406 155.303 125.06 156.164 125.06ZM159.583 122.063C159.106 122.063 158.749 122.3 158.569 122.669V120.812H158.176V125H158.569V123.491C158.569 122.822 158.977 122.429 159.517 122.429C160.009 122.429 160.246 122.705 160.246 123.317V125H160.639V123.26C160.639 122.474 160.291 122.063 159.583 122.063Z" fill="white"/>
<path d="M167.001 122.399C166.668 122.399 166.428 122.471 166.215 122.66L166.272 121.964H167.994V121.1H165.432L165.288 123.062L166.14 123.518C166.26 123.326 166.437 123.224 166.662 123.224C167.022 123.224 167.181 123.398 167.181 123.698C167.181 124.016 166.983 124.184 166.674 124.184C166.362 124.184 166.116 124.022 166.071 123.638L165.075 123.722C165.156 124.586 165.732 125.054 166.671 125.054C167.586 125.054 168.237 124.508 168.237 123.698C168.237 122.918 167.799 122.399 167.001 122.399ZM170.405 122.399C170.072 122.399 169.832 122.471 169.619 122.66L169.676 121.964H171.398V121.1H168.836L168.692 123.062L169.544 123.518C169.664 123.326 169.841 123.224 170.066 123.224C170.426 123.224 170.585 123.398 170.585 123.698C170.585 124.016 170.387 124.184 170.078 124.184C169.766 124.184 169.52 124.022 169.475 123.638L168.479 123.722C168.56 124.586 169.136 125.054 170.075 125.054C170.99 125.054 171.641 124.508 171.641 123.698C171.641 122.918 171.203 122.399 170.405 122.399ZM172.937 123.008C173.525 123.008 173.909 122.6 173.909 122.03C173.909 121.454 173.525 121.046 172.937 121.046C172.349 121.046 171.959 121.454 171.959 122.03C171.959 122.6 172.349 123.008 172.937 123.008ZM172.343 125H173.207L175.763 121.1H174.899L172.343 125ZM172.937 122.33C172.775 122.33 172.679 122.216 172.679 122.03C172.679 121.838 172.775 121.718 172.937 121.718C173.093 121.718 173.189 121.838 173.189 122.03C173.189 122.216 173.093 122.33 172.937 122.33ZM175.163 125.054C175.751 125.054 176.141 124.646 176.141 124.07C176.141 123.5 175.751 123.092 175.163 123.092C174.575 123.092 174.191 123.5 174.191 124.07C174.191 124.646 174.575 125.054 175.163 125.054ZM175.163 124.382C175.007 124.382 174.911 124.262 174.911 124.07C174.911 123.884 175.007 123.77 175.163 123.77C175.325 123.77 175.415 123.884 175.415 124.07C175.415 124.262 175.325 124.382 175.163 124.382Z" fill="white"/>
<rect x="138.2" y="138.2" width="22.6" height="5.6" rx="2.8" stroke="#5375FF" stroke-width="0.4"/>
<rect x="166.2" y="138.2" width="18.6" height="5.6" rx="2.8" stroke="#5375FF" stroke-width="0.4"/>
<rect x="194.2" y="138.2" width="9.6" height="5.6" rx="2.8" stroke="#5375FF" stroke-width="0.4"/>
<rect x="240" y="66" width="95" height="132" rx="15" fill="#E7E7E7"/>
<g clip-path="url(#clip3)">
<g filter="url(#filter7_d)">
<path d="M318.971 176.715H313.029C310.567 176.715 308.571 178.71 308.571 181.172V187.115C308.571 189.576 310.567 191.572 313.029 191.572H318.971C321.433 191.572 323.429 189.576 323.429 187.115V181.172C323.429 178.71 321.433 176.715 318.971 176.715Z" fill="black"/>
</g>
<path d="M318.971 176.715H313.029C310.567 176.715 308.571 178.71 308.571 181.172V187.115C308.571 189.576 310.567 191.572 313.029 191.572H318.971C321.433 191.572 323.429 189.576 323.429 187.115V181.172C323.429 178.71 321.433 176.715 318.971 176.715Z" fill="#5375FF"/>
<path d="M319.19 180.954C319.061 180.825 318.879 180.773 318.702 180.815L318.699 180.815L312.865 182.243C312.305 182.38 311.914 182.878 311.914 183.455V184.225C311.914 184.506 312.136 184.735 312.414 184.747L314.609 185.12C314.655 185.128 314.702 185.113 314.736 185.08L317.322 182.494C317.412 182.403 317.559 182.403 317.65 182.494C317.74 182.585 317.74 182.732 317.65 182.822L315.064 185.408C315.031 185.442 315.016 185.489 315.023 185.535L315.397 187.73C315.409 188.007 315.638 188.229 315.919 188.229H316.689C317.265 188.229 317.764 187.838 317.901 187.279L319.328 181.445L319.329 181.442C319.37 181.265 319.318 181.083 319.19 180.954Z" fill="#FBFBFB"/>
</g>
<rect x="249" y="152" width="77" height="3" rx="1.5" fill="#B0AFAF"/>
<rect x="266" y="159" width="47" height="3" rx="1.5" fill="#B0AFAF"/>
<circle cx="263" cy="91" r="11" fill="#C4C4C4"/>
<rect x="279" y="84" width="41" height="3" rx="1.5" fill="#B0AFAF"/>
<rect x="279" y="90" width="33" height="1" rx="0.5" fill="#C4C4C4"/>
<rect x="247" y="116" width="82" height="14" rx="2" fill="#E5ECFE"/>
<rect x="247" y="116" width="45" height="14" rx="2" fill="url(#paint3_linear)"/>
<g filter="url(#filter8_d)">
<rect x="250" y="177" width="50" height="14" rx="2" fill="#5375FF"/>
</g>
<path d="M261.857 186.06C262.682 186.06 263.138 185.628 263.141 184.98C263.144 184.227 262.532 184.05 261.878 183.861C261.275 183.684 260.876 183.546 260.876 183.072C260.876 182.664 261.17 182.394 261.74 182.394C262.415 182.394 262.706 182.781 262.748 183.357L263.108 183.279C263.09 182.442 262.562 182.04 261.755 182.04C261.002 182.04 260.459 182.412 260.459 183.099C260.459 183.81 261.026 184.038 261.707 184.221C262.331 184.395 262.73 184.518 262.73 184.998C262.73 185.493 262.385 185.703 261.863 185.703C261.089 185.703 260.702 185.343 260.714 184.665L260.333 184.725C260.315 185.667 261.002 186.06 261.857 186.06ZM265.4 183.063C264.923 183.063 264.566 183.3 264.386 183.669V181.812H263.993V186H264.386V184.491C264.386 183.822 264.794 183.429 265.334 183.429C265.826 183.429 266.063 183.705 266.063 184.317V186H266.456V184.26C266.456 183.474 266.108 183.063 265.4 183.063ZM268.553 186.06C269.42 186.06 269.981 185.415 269.981 184.56C269.981 183.705 269.42 183.063 268.553 183.063C267.686 183.063 267.122 183.705 267.122 184.56C267.122 185.415 267.686 186.06 268.553 186.06ZM268.553 185.709C267.926 185.709 267.521 185.22 267.521 184.56C267.521 183.9 267.926 183.414 268.553 183.414C269.177 183.414 269.582 183.9 269.582 184.56C269.582 185.22 269.177 185.709 268.553 185.709ZM274.071 183.123L273.615 184.8C273.534 185.1 273.465 185.388 273.39 185.697C273.312 185.376 273.234 185.085 273.15 184.797L272.652 183.126H272.205L271.704 184.797C271.62 185.085 271.542 185.376 271.464 185.697C271.389 185.388 271.32 185.1 271.242 184.8L270.786 183.123H270.378L271.203 186H271.701L272.25 184.185C272.316 183.966 272.367 183.75 272.427 183.522C272.487 183.75 272.541 183.966 272.607 184.185L273.153 186H273.651L274.476 183.123H274.071ZM279.556 183.063C279.058 183.063 278.734 183.303 278.578 183.681C278.464 183.276 278.191 183.063 277.717 183.063C277.234 183.063 276.928 183.285 276.772 183.639L276.778 183.123H276.403V186H276.793V184.482C276.793 183.81 277.105 183.42 277.648 183.42C278.107 183.42 278.257 183.699 278.257 184.302V186H278.644V184.482C278.644 183.81 278.953 183.42 279.496 183.42C279.958 183.42 280.108 183.708 280.108 184.302V186H280.495V184.26C280.495 183.492 280.225 183.063 279.556 183.063ZM282.598 186.06C283.465 186.06 284.026 185.415 284.026 184.56C284.026 183.705 283.465 183.063 282.598 183.063C281.731 183.063 281.167 183.705 281.167 184.56C281.167 185.415 281.731 186.06 282.598 186.06ZM282.598 185.709C281.971 185.709 281.566 185.22 281.566 184.56C281.566 183.9 281.971 183.414 282.598 183.414C283.222 183.414 283.627 183.9 283.627 184.56C283.627 185.22 283.222 185.709 282.598 185.709ZM285.116 183.711L285.122 183.123H284.747V186H285.134V184.476C285.134 183.726 285.707 183.354 286.268 183.501L286.295 183.09C285.764 182.973 285.311 183.207 285.116 183.711ZM289.214 184.503C289.214 183.642 288.743 183.063 287.933 183.063C287.12 183.063 286.598 183.72 286.598 184.554C286.598 185.406 287.141 186.06 287.978 186.06C288.56 186.06 288.992 185.79 289.16 185.277L288.851 185.169C288.713 185.511 288.443 185.718 287.978 185.718C287.402 185.718 287.039 185.289 286.994 184.674H289.211C289.214 184.614 289.214 184.557 289.214 184.503ZM287.933 183.399C288.467 183.399 288.779 183.75 288.821 184.35H287.003C287.063 183.789 287.396 183.399 287.933 183.399Z" fill="white"/>
<path d="M256.804 121.1L255.745 123.791C255.643 124.055 255.574 124.253 255.496 124.481C255.418 124.25 255.331 124.007 255.247 123.791L254.188 121.1H253.567V125H253.96V122.294C253.96 122.03 253.957 121.793 253.954 121.535C254.041 121.796 254.131 122.042 254.239 122.312L255.316 125H255.676L256.753 122.312C256.858 122.045 256.948 121.802 257.038 121.529C257.035 121.802 257.032 122.036 257.032 122.294V125H257.425V121.1H256.804ZM260.911 124.697C260.698 124.697 260.668 124.541 260.668 124.388V123.236C260.668 122.684 260.482 122.063 259.534 122.063C258.925 122.063 258.532 122.333 258.37 122.876L258.724 122.993C258.85 122.6 259.072 122.402 259.537 122.402C260.113 122.402 260.281 122.762 260.281 123.233V123.443C260.062 123.416 259.843 123.401 259.642 123.401C258.88 123.401 258.295 123.599 258.295 124.223C258.295 124.751 258.7 125.06 259.282 125.06C259.756 125.06 260.122 124.847 260.311 124.541C260.335 124.856 260.47 125.03 260.83 125.03C260.914 125.03 260.992 125.021 261.079 125.003V124.682C261.019 124.694 260.968 124.697 260.911 124.697ZM259.33 124.718C258.985 124.718 258.718 124.565 258.718 124.214C258.718 123.836 259.081 123.713 259.654 123.713C259.852 123.713 260.062 123.725 260.281 123.749V124.226C260.089 124.532 259.741 124.718 259.33 124.718ZM263.262 124.571C263.142 124.652 263.019 124.691 262.857 124.691C262.5 124.691 262.338 124.496 262.338 124.064V122.456H263.328V122.123H262.338V121.187L261.948 121.241V122.123H261.327V122.456H261.948V124.109C261.948 124.763 262.284 125.045 262.812 125.045C263.043 125.045 263.226 124.988 263.394 124.88L263.262 124.571ZM265.164 125.06C265.794 125.06 266.268 124.757 266.412 124.112L266.064 124.04C265.941 124.463 265.662 124.712 265.167 124.712C264.525 124.712 264.171 124.214 264.171 123.56C264.171 122.909 264.525 122.411 265.167 122.411C265.662 122.411 265.941 122.66 266.064 123.083L266.412 123.011C266.268 122.366 265.794 122.063 265.164 122.063C264.303 122.063 263.772 122.714 263.772 123.56C263.772 124.406 264.303 125.06 265.164 125.06ZM268.583 122.063C268.106 122.063 267.749 122.3 267.569 122.669V120.812H267.176V125H267.569V123.491C267.569 122.822 267.977 122.429 268.517 122.429C269.009 122.429 269.246 122.705 269.246 123.317V125H269.639V123.26C269.639 122.474 269.291 122.063 268.583 122.063Z" fill="white"/>
<path d="M277.567 123.485H277.036V121.07H275.389L274.078 123.557L274.204 124.31L276.013 124.301V125H277.036V124.298L277.567 124.295V123.485ZM275.215 123.485L275.473 122.972C275.674 122.576 275.869 122.18 276.04 121.742C276.019 122.111 276.013 122.471 276.013 122.843V123.485H275.215ZM279.513 125.054C280.635 125.054 281.175 124.349 281.175 123.05C281.175 121.748 280.605 121.046 279.513 121.046C278.421 121.046 277.851 121.748 277.851 123.05C277.851 124.349 278.391 125.054 279.513 125.054ZM279.513 124.208C279.075 124.208 278.874 123.767 278.874 123.05C278.874 122.333 279.075 121.892 279.513 121.892C279.951 121.892 280.152 122.333 280.152 123.05C280.152 123.767 279.951 124.208 279.513 124.208ZM282.47 123.008C283.058 123.008 283.442 122.6 283.442 122.03C283.442 121.454 283.058 121.046 282.47 121.046C281.882 121.046 281.492 121.454 281.492 122.03C281.492 122.6 281.882 123.008 282.47 123.008ZM281.876 125H282.74L285.296 121.1H284.432L281.876 125ZM282.47 122.33C282.308 122.33 282.212 122.216 282.212 122.03C282.212 121.838 282.308 121.718 282.47 121.718C282.626 121.718 282.722 121.838 282.722 122.03C282.722 122.216 282.626 122.33 282.47 122.33ZM284.696 125.054C285.284 125.054 285.674 124.646 285.674 124.07C285.674 123.5 285.284 123.092 284.696 123.092C284.108 123.092 283.724 123.5 283.724 124.07C283.724 124.646 284.108 125.054 284.696 125.054ZM284.696 124.382C284.54 124.382 284.444 124.262 284.444 124.07C284.444 123.884 284.54 123.77 284.696 123.77C284.858 123.77 284.948 123.884 284.948 124.07C284.948 124.262 284.858 124.382 284.696 124.382Z" fill="white"/>
<rect x="247.2" y="138.2" width="22.6" height="5.6" rx="2.8" stroke="#5375FF" stroke-width="0.4"/>
<rect x="275.2" y="138.2" width="18.6" height="5.6" rx="2.8" stroke="#5375FF" stroke-width="0.4"/>
<rect x="303.2" y="138.2" width="9.6" height="5.6" rx="2.8" stroke="#5375FF" stroke-width="0.4"/>
<rect x="131" y="217" width="95" height="132" rx="15" fill="#E7E7E7"/>
<g clip-path="url(#clip4)">
<g filter="url(#filter9_d)">
<path d="M209.971 327.715H204.029C201.567 327.715 199.571 329.71 199.571 332.172V338.115C199.571 340.576 201.567 342.572 204.029 342.572H209.971C212.433 342.572 214.429 340.576 214.429 338.115V332.172C214.429 329.71 212.433 327.715 209.971 327.715Z" fill="black"/>
</g>
<path d="M209.971 327.715H204.029C201.567 327.715 199.571 329.71 199.571 332.172V338.115C199.571 340.576 201.567 342.572 204.029 342.572H209.971C212.433 342.572 214.429 340.576 214.429 338.115V332.172C214.429 329.71 212.433 327.715 209.971 327.715Z" fill="#5375FF"/>
<path d="M210.19 331.954C210.061 331.825 209.879 331.773 209.702 331.815L209.699 331.815L203.865 333.243C203.305 333.38 202.914 333.878 202.914 334.455V335.225C202.914 335.506 203.136 335.735 203.414 335.747L205.609 336.12C205.655 336.128 205.702 336.113 205.736 336.08L208.322 333.494C208.412 333.403 208.559 333.403 208.65 333.494C208.74 333.585 208.74 333.732 208.65 333.822L206.064 336.408C206.031 336.442 206.016 336.489 206.023 336.535L206.397 338.73C206.409 339.007 206.638 339.229 206.919 339.229H207.689C208.265 339.229 208.764 338.838 208.901 338.279L210.328 332.445L210.329 332.442C210.37 332.265 210.318 332.083 210.19 331.954Z" fill="#FBFBFB"/>
</g>
<rect x="140" y="303" width="77" height="3" rx="1.5" fill="#B0AFAF"/>
<rect x="157" y="310" width="47" height="3" rx="1.5" fill="#B0AFAF"/>
<circle cx="154" cy="242" r="11" fill="#C4C4C4"/>
<rect x="170" y="235" width="41" height="3" rx="1.5" fill="#B0AFAF"/>
<rect x="170" y="241" width="33" height="1" rx="0.5" fill="#C4C4C4"/>
<rect x="138" y="267" width="82" height="14" rx="2" fill="#E5ECFE"/>
<rect x="138" y="267" width="53" height="14" rx="2" fill="url(#paint4_linear)"/>
<g filter="url(#filter10_d)">
<rect x="141" y="328" width="50" height="14" rx="2" fill="#5375FF"/>
</g>
<path d="M152.857 337.06C153.682 337.06 154.138 336.628 154.141 335.98C154.144 335.227 153.532 335.05 152.878 334.861C152.275 334.684 151.876 334.546 151.876 334.072C151.876 333.664 152.17 333.394 152.74 333.394C153.415 333.394 153.706 333.781 153.748 334.357L154.108 334.279C154.09 333.442 153.562 333.04 152.755 333.04C152.002 333.04 151.459 333.412 151.459 334.099C151.459 334.81 152.026 335.038 152.707 335.221C153.331 335.395 153.73 335.518 153.73 335.998C153.73 336.493 153.385 336.703 152.863 336.703C152.089 336.703 151.702 336.343 151.714 335.665L151.333 335.725C151.315 336.667 152.002 337.06 152.857 337.06ZM156.4 334.063C155.923 334.063 155.566 334.3 155.386 334.669V332.812H154.993V337H155.386V335.491C155.386 334.822 155.794 334.429 156.334 334.429C156.826 334.429 157.063 334.705 157.063 335.317V337H157.456V335.26C157.456 334.474 157.108 334.063 156.4 334.063ZM159.553 337.06C160.42 337.06 160.981 336.415 160.981 335.56C160.981 334.705 160.42 334.063 159.553 334.063C158.686 334.063 158.122 334.705 158.122 335.56C158.122 336.415 158.686 337.06 159.553 337.06ZM159.553 336.709C158.926 336.709 158.521 336.22 158.521 335.56C158.521 334.9 158.926 334.414 159.553 334.414C160.177 334.414 160.582 334.9 160.582 335.56C160.582 336.22 160.177 336.709 159.553 336.709ZM165.071 334.123L164.615 335.8C164.534 336.1 164.465 336.388 164.39 336.697C164.312 336.376 164.234 336.085 164.15 335.797L163.652 334.126H163.205L162.704 335.797C162.62 336.085 162.542 336.376 162.464 336.697C162.389 336.388 162.32 336.1 162.242 335.8L161.786 334.123H161.378L162.203 337H162.701L163.25 335.185C163.316 334.966 163.367 334.75 163.427 334.522C163.487 334.75 163.541 334.966 163.607 335.185L164.153 337H164.651L165.476 334.123H165.071ZM170.556 334.063C170.058 334.063 169.734 334.303 169.578 334.681C169.464 334.276 169.191 334.063 168.717 334.063C168.234 334.063 167.928 334.285 167.772 334.639L167.778 334.123H167.403V337H167.793V335.482C167.793 334.81 168.105 334.42 168.648 334.42C169.107 334.42 169.257 334.699 169.257 335.302V337H169.644V335.482C169.644 334.81 169.953 334.42 170.496 334.42C170.958 334.42 171.108 334.708 171.108 335.302V337H171.495V335.26C171.495 334.492 171.225 334.063 170.556 334.063ZM173.598 337.06C174.465 337.06 175.026 336.415 175.026 335.56C175.026 334.705 174.465 334.063 173.598 334.063C172.731 334.063 172.167 334.705 172.167 335.56C172.167 336.415 172.731 337.06 173.598 337.06ZM173.598 336.709C172.971 336.709 172.566 336.22 172.566 335.56C172.566 334.9 172.971 334.414 173.598 334.414C174.222 334.414 174.627 334.9 174.627 335.56C174.627 336.22 174.222 336.709 173.598 336.709ZM176.116 334.711L176.122 334.123H175.747V337H176.134V335.476C176.134 334.726 176.707 334.354 177.268 334.501L177.295 334.09C176.764 333.973 176.311 334.207 176.116 334.711ZM180.214 335.503C180.214 334.642 179.743 334.063 178.933 334.063C178.12 334.063 177.598 334.72 177.598 335.554C177.598 336.406 178.141 337.06 178.978 337.06C179.56 337.06 179.992 336.79 180.16 336.277L179.851 336.169C179.713 336.511 179.443 336.718 178.978 336.718C178.402 336.718 178.039 336.289 177.994 335.674H180.211C180.214 335.614 180.214 335.557 180.214 335.503ZM178.933 334.399C179.467 334.399 179.779 334.75 179.821 335.35H178.003C178.063 334.789 178.396 334.399 178.933 334.399Z" fill="white"/>
<path d="M147.804 272.1L146.745 274.791C146.643 275.055 146.574 275.253 146.496 275.481C146.418 275.25 146.331 275.007 146.247 274.791L145.188 272.1H144.567V276H144.96V273.294C144.96 273.03 144.957 272.793 144.954 272.535C145.041 272.796 145.131 273.042 145.239 273.312L146.316 276H146.676L147.753 273.312C147.858 273.045 147.948 272.802 148.038 272.529C148.035 272.802 148.032 273.036 148.032 273.294V276H148.425V272.1H147.804ZM151.911 275.697C151.698 275.697 151.668 275.541 151.668 275.388V274.236C151.668 273.684 151.482 273.063 150.534 273.063C149.925 273.063 149.532 273.333 149.37 273.876L149.724 273.993C149.85 273.6 150.072 273.402 150.537 273.402C151.113 273.402 151.281 273.762 151.281 274.233V274.443C151.062 274.416 150.843 274.401 150.642 274.401C149.88 274.401 149.295 274.599 149.295 275.223C149.295 275.751 149.7 276.06 150.282 276.06C150.756 276.06 151.122 275.847 151.311 275.541C151.335 275.856 151.47 276.03 151.83 276.03C151.914 276.03 151.992 276.021 152.079 276.003V275.682C152.019 275.694 151.968 275.697 151.911 275.697ZM150.33 275.718C149.985 275.718 149.718 275.565 149.718 275.214C149.718 274.836 150.081 274.713 150.654 274.713C150.852 274.713 151.062 274.725 151.281 274.749V275.226C151.089 275.532 150.741 275.718 150.33 275.718ZM154.262 275.571C154.142 275.652 154.019 275.691 153.857 275.691C153.5 275.691 153.338 275.496 153.338 275.064V273.456H154.328V273.123H153.338V272.187L152.948 272.241V273.123H152.327V273.456H152.948V275.109C152.948 275.763 153.284 276.045 153.812 276.045C154.043 276.045 154.226 275.988 154.394 275.88L154.262 275.571ZM156.164 276.06C156.794 276.06 157.268 275.757 157.412 275.112L157.064 275.04C156.941 275.463 156.662 275.712 156.167 275.712C155.525 275.712 155.171 275.214 155.171 274.56C155.171 273.909 155.525 273.411 156.167 273.411C156.662 273.411 156.941 273.66 157.064 274.083L157.412 274.011C157.268 273.366 156.794 273.063 156.164 273.063C155.303 273.063 154.772 273.714 154.772 274.56C154.772 275.406 155.303 276.06 156.164 276.06ZM159.583 273.063C159.106 273.063 158.749 273.3 158.569 273.669V271.812H158.176V276H158.569V274.491C158.569 273.822 158.977 273.429 159.517 273.429C160.009 273.429 160.246 273.705 160.246 274.317V276H160.639V274.26C160.639 273.474 160.291 273.063 159.583 273.063Z" fill="white"/>
<path d="M167.052 273.42C166.62 273.42 166.29 273.594 166.116 273.939C166.149 273.27 166.488 272.946 167.046 272.946C167.361 272.946 167.622 273.018 167.865 273.168L168.177 272.34C167.859 272.148 167.46 272.046 167.031 272.046C165.771 272.046 165.165 272.907 165.165 274.185C165.165 275.382 165.72 276.054 166.743 276.054C167.688 276.054 168.279 275.472 168.279 274.671C168.279 273.963 167.814 273.42 167.052 273.42ZM166.728 275.196C166.302 275.196 166.161 274.905 166.167 274.533C166.299 274.35 166.518 274.26 166.752 274.26C167.061 274.26 167.277 274.419 167.277 274.719C167.277 275.019 167.058 275.196 166.728 275.196ZM170.243 276.054C171.365 276.054 171.905 275.349 171.905 274.05C171.905 272.748 171.335 272.046 170.243 272.046C169.151 272.046 168.581 272.748 168.581 274.05C168.581 275.349 169.121 276.054 170.243 276.054ZM170.243 275.208C169.805 275.208 169.604 274.767 169.604 274.05C169.604 273.333 169.805 272.892 170.243 272.892C170.681 272.892 170.882 273.333 170.882 274.05C170.882 274.767 170.681 275.208 170.243 275.208ZM173.2 274.008C173.788 274.008 174.172 273.6 174.172 273.03C174.172 272.454 173.788 272.046 173.2 272.046C172.612 272.046 172.222 272.454 172.222 273.03C172.222 273.6 172.612 274.008 173.2 274.008ZM172.606 276H173.47L176.026 272.1H175.162L172.606 276ZM173.2 273.33C173.038 273.33 172.942 273.216 172.942 273.03C172.942 272.838 173.038 272.718 173.2 272.718C173.356 272.718 173.452 272.838 173.452 273.03C173.452 273.216 173.356 273.33 173.2 273.33ZM175.426 276.054C176.014 276.054 176.404 275.646 176.404 275.07C176.404 274.5 176.014 274.092 175.426 274.092C174.838 274.092 174.454 274.5 174.454 275.07C174.454 275.646 174.838 276.054 175.426 276.054ZM175.426 275.382C175.27 275.382 175.174 275.262 175.174 275.07C175.174 274.884 175.27 274.77 175.426 274.77C175.588 274.77 175.678 274.884 175.678 275.07C175.678 275.262 175.588 275.382 175.426 275.382Z" fill="white"/>
<rect x="138.2" y="289.2" width="22.6" height="5.6" rx="2.8" stroke="#5375FF" stroke-width="0.4"/>
<rect x="166.2" y="289.2" width="18.6" height="5.6" rx="2.8" stroke="#5375FF" stroke-width="0.4"/>
<rect x="194.2" y="289.2" width="9.6" height="5.6" rx="2.8" stroke="#5375FF" stroke-width="0.4"/>
<rect x="21" y="220" width="95" height="132" rx="15" fill="#E7E7E7"/>
<g clip-path="url(#clip5)">
<g filter="url(#filter11_d)">
<path d="M99.9714 330.715H94.0286C91.5669 330.715 89.5714 332.71 89.5714 335.172V341.115C89.5714 343.576 91.5669 345.572 94.0286 345.572H99.9714C102.433 345.572 104.429 343.576 104.429 341.115V335.172C104.429 332.71 102.433 330.715 99.9714 330.715Z" fill="black"/>
</g>
<path d="M99.9714 330.715H94.0286C91.5669 330.715 89.5714 332.71 89.5714 335.172V341.115C89.5714 343.576 91.5669 345.572 94.0286 345.572H99.9714C102.433 345.572 104.429 343.576 104.429 341.115V335.172C104.429 332.71 102.433 330.715 99.9714 330.715Z" fill="#5375FF"/>
<path d="M100.19 334.954C100.061 334.825 99.8785 334.773 99.7017 334.815L99.6991 334.815L93.8655 336.243C93.3054 336.38 92.9142 336.878 92.9142 337.455V338.225C92.9142 338.506 93.1364 338.735 93.4142 338.747L95.6086 339.12C95.655 339.128 95.7022 339.113 95.7356 339.08L98.3215 336.494C98.4121 336.403 98.5592 336.403 98.6498 336.494C98.7405 336.585 98.7405 336.732 98.6498 336.822L96.064 339.408C96.0305 339.442 96.0157 339.489 96.0231 339.535L96.3968 341.73C96.4086 342.007 96.6382 342.229 96.9186 342.229H97.6886C98.265 342.229 98.7635 341.838 98.9006 341.279L100.328 335.445L100.329 335.442C100.37 335.265 100.318 335.083 100.19 334.954Z" fill="#FBFBFB"/>
</g>
<rect x="30" y="306" width="77" height="3" rx="1.5" fill="#B0AFAF"/>
<rect x="47" y="313" width="47" height="3" rx="1.5" fill="#B0AFAF"/>
<circle cx="44" cy="245" r="11" fill="#C4C4C4"/>
<rect x="60" y="238" width="41" height="3" rx="1.5" fill="#B0AFAF"/>
<rect x="60" y="244" width="33" height="1" rx="0.5" fill="#C4C4C4"/>
<rect x="28" y="270" width="82" height="14" rx="2" fill="#E5ECFE"/>
<rect x="28" y="270" width="79" height="14" rx="2" fill="url(#paint5_linear)"/>
<g filter="url(#filter12_d)">
<rect x="31" y="331" width="50" height="14" rx="2" fill="#5375FF"/>
</g>
<path d="M42.857 340.06C43.682 340.06 44.138 339.628 44.141 338.98C44.144 338.227 43.532 338.05 42.878 337.861C42.275 337.684 41.876 337.546 41.876 337.072C41.876 336.664 42.17 336.394 42.74 336.394C43.415 336.394 43.706 336.781 43.748 337.357L44.108 337.279C44.09 336.442 43.562 336.04 42.755 336.04C42.002 336.04 41.459 336.412 41.459 337.099C41.459 337.81 42.026 338.038 42.707 338.221C43.331 338.395 43.73 338.518 43.73 338.998C43.73 339.493 43.385 339.703 42.863 339.703C42.089 339.703 41.702 339.343 41.714 338.665L41.333 338.725C41.315 339.667 42.002 340.06 42.857 340.06ZM46.3998 337.063C45.9228 337.063 45.5658 337.3 45.3858 337.669V335.812H44.9928V340H45.3858V338.491C45.3858 337.822 45.7938 337.429 46.3338 337.429C46.8258 337.429 47.0628 337.705 47.0628 338.317V340H47.4558V338.26C47.4558 337.474 47.1078 337.063 46.3998 337.063ZM49.5528 340.06C50.4198 340.06 50.9808 339.415 50.9808 338.56C50.9808 337.705 50.4198 337.063 49.5528 337.063C48.6858 337.063 48.1218 337.705 48.1218 338.56C48.1218 339.415 48.6858 340.06 49.5528 340.06ZM49.5528 339.709C48.9258 339.709 48.5208 339.22 48.5208 338.56C48.5208 337.9 48.9258 337.414 49.5528 337.414C50.1768 337.414 50.5818 337.9 50.5818 338.56C50.5818 339.22 50.1768 339.709 49.5528 339.709ZM55.0708 337.123L54.6148 338.8C54.5338 339.1 54.4648 339.388 54.3898 339.697C54.3118 339.376 54.2337 339.085 54.1498 338.797L53.6518 337.126H53.2048L52.7038 338.797C52.6198 339.085 52.5418 339.376 52.4638 339.697C52.3888 339.388 52.3198 339.1 52.2418 338.8L51.7858 337.123H51.3778L52.2028 340H52.7008L53.2498 338.185C53.3158 337.966 53.3668 337.75 53.4268 337.522C53.4868 337.75 53.5408 337.966 53.6068 338.185L54.1528 340H54.6508L55.4758 337.123H55.0708ZM60.5559 337.063C60.0579 337.063 59.7339 337.303 59.5779 337.681C59.4639 337.276 59.1909 337.063 58.7169 337.063C58.2339 337.063 57.9279 337.285 57.7719 337.639L57.7779 337.123H57.4029V340H57.7929V338.482C57.7929 337.81 58.1049 337.42 58.6479 337.42C59.1069 337.42 59.2569 337.699 59.2569 338.302V340H59.6439V338.482C59.6439 337.81 59.9529 337.42 60.4959 337.42C60.9579 337.42 61.1079 337.708 61.1079 338.302V340H61.4949V338.26C61.4949 337.492 61.2249 337.063 60.5559 337.063ZM63.5977 340.06C64.4647 340.06 65.0257 339.415 65.0257 338.56C65.0257 337.705 64.4647 337.063 63.5977 337.063C62.7307 337.063 62.1667 337.705 62.1667 338.56C62.1667 339.415 62.7307 340.06 63.5977 340.06ZM63.5977 339.709C62.9707 339.709 62.5657 339.22 62.5657 338.56C62.5657 337.9 62.9707 337.414 63.5977 337.414C64.2217 337.414 64.6267 337.9 64.6267 338.56C64.6267 339.22 64.2217 339.709 63.5977 339.709ZM66.1157 337.711L66.1217 337.123H65.7467V340H66.1337V338.476C66.1337 337.726 66.7067 337.354 67.2677 337.501L67.2947 337.09C66.7637 336.973 66.3107 337.207 66.1157 337.711ZM70.2143 338.503C70.2143 337.642 69.7433 337.063 68.9333 337.063C68.1203 337.063 67.5983 337.72 67.5983 338.554C67.5983 339.406 68.1413 340.06 68.9783 340.06C69.5603 340.06 69.9923 339.79 70.1603 339.277L69.8513 339.169C69.7133 339.511 69.4433 339.718 68.9783 339.718C68.4023 339.718 68.0393 339.289 67.9943 338.674H70.2113C70.2143 338.614 70.2143 338.557 70.2143 338.503ZM68.9333 337.399C69.4673 337.399 69.7793 337.75 69.8213 338.35H68.0033C68.0633 337.789 68.3963 337.399 68.9333 337.399Z" fill="white"/>
<path d="M37.804 275.1L36.745 277.791C36.643 278.055 36.574 278.253 36.496 278.481C36.418 278.25 36.331 278.007 36.247 277.791L35.188 275.1H34.567V279H34.96V276.294C34.96 276.03 34.957 275.793 34.954 275.535C35.041 275.796 35.131 276.042 35.239 276.312L36.316 279H36.676L37.753 276.312C37.858 276.045 37.948 275.802 38.038 275.529C38.035 275.802 38.032 276.036 38.032 276.294V279H38.425V275.1H37.804ZM41.9112 278.697C41.6982 278.697 41.6682 278.541 41.6682 278.388V277.236C41.6682 276.684 41.4822 276.063 40.5342 276.063C39.9252 276.063 39.5322 276.333 39.3702 276.876L39.7242 276.993C39.8502 276.6 40.0722 276.402 40.5372 276.402C41.1132 276.402 41.2812 276.762 41.2812 277.233V277.443C41.0622 277.416 40.8432 277.401 40.6422 277.401C39.8802 277.401 39.2952 277.599 39.2952 278.223C39.2952 278.751 39.7002 279.06 40.2822 279.06C40.7562 279.06 41.1222 278.847 41.3112 278.541C41.3352 278.856 41.4702 279.03 41.8302 279.03C41.9142 279.03 41.9922 279.021 42.0792 279.003V278.682C42.0192 278.694 41.9682 278.697 41.9112 278.697ZM40.3302 278.718C39.9852 278.718 39.7182 278.565 39.7182 278.214C39.7182 277.836 40.0812 277.713 40.6542 277.713C40.8522 277.713 41.0622 277.725 41.2812 277.749V278.226C41.0892 278.532 40.7412 278.718 40.3302 278.718ZM44.2615 278.571C44.1415 278.652 44.0185 278.691 43.8565 278.691C43.4995 278.691 43.3375 278.496 43.3375 278.064V276.456H44.3275V276.123H43.3375V275.187L42.9475 275.241V276.123H42.3265V276.456H42.9475V278.109C42.9475 278.763 43.2835 279.045 43.8115 279.045C44.0425 279.045 44.2255 278.988 44.3935 278.88L44.2615 278.571ZM46.1642 279.06C46.7942 279.06 47.2682 278.757 47.4122 278.112L47.0642 278.04C46.9412 278.463 46.6622 278.712 46.1672 278.712C45.5252 278.712 45.1712 278.214 45.1712 277.56C45.1712 276.909 45.5252 276.411 46.1672 276.411C46.6622 276.411 46.9412 276.66 47.0642 277.083L47.4122 277.011C47.2682 276.366 46.7942 276.063 46.1642 276.063C45.3032 276.063 44.7722 276.714 44.7722 277.56C44.7722 278.406 45.3032 279.06 46.1642 279.06ZM49.5834 276.063C49.1064 276.063 48.7494 276.3 48.5694 276.669V274.812H48.1764V279H48.5694V277.491C48.5694 276.822 48.9774 276.429 49.5174 276.429C50.0094 276.429 50.2464 276.705 50.2464 277.317V279H50.6394V277.26C50.6394 276.474 50.2914 276.063 49.5834 276.063Z" fill="white"/>
<path d="M56.671 275.046C55.726 275.046 55.135 275.628 55.135 276.429C55.135 277.137 55.6 277.68 56.362 277.68C56.794 277.68 57.124 277.506 57.298 277.161C57.265 277.83 56.926 278.154 56.368 278.154C56.053 278.154 55.792 278.082 55.549 277.932L55.237 278.76C55.555 278.952 55.954 279.054 56.383 279.054C57.643 279.054 58.249 278.193 58.249 276.915C58.249 275.718 57.694 275.046 56.671 275.046ZM56.662 276.84C56.353 276.84 56.137 276.681 56.137 276.381C56.137 276.081 56.356 275.904 56.686 275.904C57.112 275.904 57.253 276.195 57.247 276.567C57.115 276.75 56.896 276.84 56.662 276.84ZM60.999 276.957C61.392 276.795 61.614 276.501 61.614 276.117C61.614 275.451 61.014 275.046 60.159 275.046C59.304 275.046 58.704 275.451 58.704 276.117C58.704 276.501 58.926 276.795 59.319 276.957C58.848 277.125 58.59 277.455 58.59 277.902C58.59 278.595 59.268 279.054 60.159 279.054C61.05 279.054 61.728 278.595 61.728 277.902C61.728 277.455 61.47 277.125 60.999 276.957ZM60.159 275.796C60.456 275.796 60.603 275.961 60.603 276.189C60.603 276.444 60.435 276.6 60.159 276.6C59.883 276.6 59.715 276.444 59.715 276.189C59.715 275.961 59.862 275.796 60.159 275.796ZM60.159 278.298C59.82 278.298 59.613 278.094 59.613 277.806C59.613 277.506 59.814 277.32 60.159 277.32C60.504 277.32 60.705 277.506 60.705 277.806C60.705 278.094 60.498 278.298 60.159 278.298ZM63.0303 277.008C63.6183 277.008 64.0023 276.6 64.0023 276.03C64.0023 275.454 63.6183 275.046 63.0303 275.046C62.4423 275.046 62.0523 275.454 62.0523 276.03C62.0523 276.6 62.4423 277.008 63.0303 277.008ZM62.4363 279H63.3003L65.8563 275.1H64.9923L62.4363 279ZM63.0303 276.33C62.8683 276.33 62.7723 276.216 62.7723 276.03C62.7723 275.838 62.8683 275.718 63.0303 275.718C63.1863 275.718 63.2823 275.838 63.2823 276.03C63.2823 276.216 63.1863 276.33 63.0303 276.33ZM65.2563 279.054C65.8443 279.054 66.2343 278.646 66.2343 278.07C66.2343 277.5 65.8443 277.092 65.2563 277.092C64.6683 277.092 64.2843 277.5 64.2843 278.07C64.2843 278.646 64.6683 279.054 65.2563 279.054ZM65.2563 278.382C65.1003 278.382 65.0043 278.262 65.0043 278.07C65.0043 277.884 65.1003 277.77 65.2563 277.77C65.4183 277.77 65.5083 277.884 65.5083 278.07C65.5083 278.262 65.4183 278.382 65.2563 278.382Z" fill="white"/>
<rect x="28.2" y="292.2" width="22.6" height="5.6" rx="2.8" stroke="#5375FF" stroke-width="0.4"/>
<rect x="56.2" y="292.2" width="18.6" height="5.6" rx="2.8" stroke="#5375FF" stroke-width="0.4"/>
<rect x="84.2" y="292.2" width="9.6" height="5.6" rx="2.8" stroke="#5375FF" stroke-width="0.4"/>
<g clip-path="url(#clip6)">
<path d="M55.099 28.479C55.403 25.156 52.759 22.668 49.724 22.668C48.355 22.668 47.054 23.168 46.061 24.058C45.069 23.168 43.767 22.668 42.399 22.668C38.155 22.668 35.039 27.353 38.459 32.018C39.211 33.044 40.253 34.038 41.554 34.973C43.741 36.543 45.898 37.403 45.989 37.438C46.148 37.501 46.313 37.498 46.486 37.425C48.116 38.59 49.721 39.237 49.856 39.29C50.006 39.349 50.175 39.35 50.329 39.287C50.396 39.26 51.992 38.599 53.609 37.394C54.574 36.674 55.347 35.908 55.906 35.116C57.713 32.556 57.169 29.819 55.099 28.479ZM42.399 23.902C43.632 23.902 44.794 24.427 45.586 25.343C45.836 25.632 46.287 25.632 46.536 25.343C47.329 24.428 48.49 23.903 49.724 23.903C51.999 23.903 53.886 25.693 53.874 27.936C52.551 27.583 51.074 27.864 49.968 28.795C49.201 28.149 48.218 27.789 47.188 27.789C43.888 27.789 41.395 31.443 44.058 35.104C35.002 29.925 38.22 23.902 42.4 23.902H42.399ZM50.084 38.042C47.558 36.928 44.186 34.67 44.186 31.922C44.186 30.323 45.532 29.023 47.188 29.023C48.08 29.023 48.92 29.403 49.493 30.065C49.743 30.354 50.194 30.354 50.443 30.065C51.016 29.403 51.856 29.023 52.749 29.023C54.404 29.023 55.75 30.323 55.75 31.921C55.75 35.241 51.182 37.539 50.084 38.043V38.042Z" fill="#5375FF"/>
</g>
<defs>
<filter id="filter0_d" x="0" y="0" width="354.343" height="378" filterUnits="userSpaceOnUse" color-interpolation-filters="sRGB">
<feFlood flood-opacity="0" result="BackgroundImageFix"/>
<feColorMatrix in="SourceAlpha" type="matrix" values="0 0 0 0 0 0 0 0 0 0 0 0 0 0 0 0 0 0 127 0"/>
<feOffset dy="4"/>
<feGaussianBlur stdDeviation="2"/>
<feColorMatrix type="matrix" values="0 0 0 0 0 0 0 0 0 0 0 0 0 0 0 0 0 0 0.25 0"/>
<feBlend mode="normal" in2="BackgroundImageFix" result="effect1_dropShadow"/>
<feBlend mode="normal" in="SourceGraphic" in2="effect1_dropShadow" result="shape"/>
</filter>
<filter id="filter1_d" x="71.8885" y="163.77" width="44.0592" height="44.0592" filterUnits="userSpaceOnUse" color-interpolation-filters="sRGB">
<feFlood flood-opacity="0" result="BackgroundImageFix"/>
<feColorMatrix in="SourceAlpha" type="matrix" values="0 0 0 0 0 0 0 0 0 0 0 0 0 0 0 0 0 0 127 0"/>
<feOffset dy="5"/>
<feGaussianBlur stdDeviation="7.5"/>
<feColorMatrix type="matrix" values="0 0 0 0 0.0470588 0 0 0 0 0.0666667 0 0 0 0 0.109804 0 0 0 0.151825 0"/>
<feBlend mode="normal" in2="BackgroundImageFix" result="effect1_dropShadow"/>
<feBlend mode="normal" in="SourceGraphic" in2="effect1_dropShadow" result="shape"/>
</filter>
<filter id="filter2_d" x="27.4629" y="172.039" width="55.3146" height="21.2481" filterUnits="userSpaceOnUse" color-interpolation-filters="sRGB">
<feFlood flood-opacity="0" result="BackgroundImageFix"/>
<feColorMatrix in="SourceAlpha" type="matrix" values="0 0 0 0 0 0 0 0 0 0 0 0 0 0 0 0 0 0 127 0"/>
<feOffset dy="2"/>
<feGaussianBlur stdDeviation="2"/>
<feColorMatrix type="matrix" values="0 0 0 0 0 0 0 0 0 0 0 0 0 0 0 0 0 0 0.25 0"/>
<feBlend mode="normal" in2="BackgroundImageFix" result="effect1_dropShadow"/>
<feBlend mode="normal" in="SourceGraphic" in2="effect1_dropShadow" result="shape"/>
</filter>
<filter id="filter3_d" x="291.408" y="316.199" width="44.0592" height="44.0592" filterUnits="userSpaceOnUse" color-interpolation-filters="sRGB">
<feFlood flood-opacity="0" result="BackgroundImageFix"/>
<feColorMatrix in="SourceAlpha" type="matrix" values="0 0 0 0 0 0 0 0 0 0 0 0 0 0 0 0 0 0 127 0"/>
<feOffset dy="5"/>
<feGaussianBlur stdDeviation="7.5"/>
<feColorMatrix type="matrix" values="0 0 0 0 0.0470588 0 0 0 0 0.0666667 0 0 0 0 0.109804 0 0 0 0.151825 0"/>
<feBlend mode="normal" in2="BackgroundImageFix" result="effect1_dropShadow"/>
<feBlend mode="normal" in="SourceGraphic" in2="effect1_dropShadow" result="shape"/>
</filter>
<filter id="filter4_d" x="246.982" y="324.469" width="55.3146" height="21.2481" filterUnits="userSpaceOnUse" color-interpolation-filters="sRGB">
<feFlood flood-opacity="0" result="BackgroundImageFix"/>
<feColorMatrix in="SourceAlpha" type="matrix" values="0 0 0 0 0 0 0 0 0 0 0 0 0 0 0 0 0 0 127 0"/>
<feOffset dy="2"/>
<feGaussianBlur stdDeviation="2"/>
<feColorMatrix type="matrix" values="0 0 0 0 0 0 0 0 0 0 0 0 0 0 0 0 0 0 0.25 0"/>
<feBlend mode="normal" in2="BackgroundImageFix" result="effect1_dropShadow"/>
<feBlend mode="normal" in="SourceGraphic" in2="effect1_dropShadow" result="shape"/>
</filter>
<filter id="filter5_d" x="184.571" y="166.715" width="44.8571" height="44.8571" filterUnits="userSpaceOnUse" color-interpolation-filters="sRGB">
<feFlood flood-opacity="0" result="BackgroundImageFix"/>
<feColorMatrix in="SourceAlpha" type="matrix" values="0 0 0 0 0 0 0 0 0 0 0 0 0 0 0 0 0 0 127 0"/>
<feOffset dy="5"/>
<feGaussianBlur stdDeviation="7.5"/>
<feColorMatrix type="matrix" values="0 0 0 0 0.0470588 0 0 0 0 0.0666667 0 0 0 0 0.109804 0 0 0 0.151825 0"/>
<feBlend mode="normal" in2="BackgroundImageFix" result="effect1_dropShadow"/>
<feBlend mode="normal" in="SourceGraphic" in2="effect1_dropShadow" result="shape"/>
</filter>
<filter id="filter6_d" x="137" y="175" width="58" height="22" filterUnits="userSpaceOnUse" color-interpolation-filters="sRGB">
<feFlood flood-opacity="0" result="BackgroundImageFix"/>
<feColorMatrix in="SourceAlpha" type="matrix" values="0 0 0 0 0 0 0 0 0 0 0 0 0 0 0 0 0 0 127 0"/>
<feOffset dy="2"/>
<feGaussianBlur stdDeviation="2"/>
<feColorMatrix type="matrix" values="0 0 0 0 0 0 0 0 0 0 0 0 0 0 0 0 0 0 0.25 0"/>
<feBlend mode="normal" in2="BackgroundImageFix" result="effect1_dropShadow"/>
<feBlend mode="normal" in="SourceGraphic" in2="effect1_dropShadow" result="shape"/>
</filter>
<filter id="filter7_d" x="293.571" y="166.715" width="44.8571" height="44.8571" filterUnits="userSpaceOnUse" color-interpolation-filters="sRGB">
<feFlood flood-opacity="0" result="BackgroundImageFix"/>
<feColorMatrix in="SourceAlpha" type="matrix" values="0 0 0 0 0 0 0 0 0 0 0 0 0 0 0 0 0 0 127 0"/>
<feOffset dy="5"/>
<feGaussianBlur stdDeviation="7.5"/>
<feColorMatrix type="matrix" values="0 0 0 0 0.0470588 0 0 0 0 0.0666667 0 0 0 0 0.109804 0 0 0 0.151825 0"/>
<feBlend mode="normal" in2="BackgroundImageFix" result="effect1_dropShadow"/>
<feBlend mode="normal" in="SourceGraphic" in2="effect1_dropShadow" result="shape"/>
</filter>
<filter id="filter8_d" x="246" y="175" width="58" height="22" filterUnits="userSpaceOnUse" color-interpolation-filters="sRGB">
<feFlood flood-opacity="0" result="BackgroundImageFix"/>
<feColorMatrix in="SourceAlpha" type="matrix" values="0 0 0 0 0 0 0 0 0 0 0 0 0 0 0 0 0 0 127 0"/>
<feOffset dy="2"/>
<feGaussianBlur stdDeviation="2"/>
<feColorMatrix type="matrix" values="0 0 0 0 0 0 0 0 0 0 0 0 0 0 0 0 0 0 0.25 0"/>
<feBlend mode="normal" in2="BackgroundImageFix" result="effect1_dropShadow"/>
<feBlend mode="normal" in="SourceGraphic" in2="effect1_dropShadow" result="shape"/>
</filter>
<filter id="filter9_d" x="184.571" y="317.715" width="44.8571" height="44.8571" filterUnits="userSpaceOnUse" color-interpolation-filters="sRGB">
<feFlood flood-opacity="0" result="BackgroundImageFix"/>
<feColorMatrix in="SourceAlpha" type="matrix" values="0 0 0 0 0 0 0 0 0 0 0 0 0 0 0 0 0 0 127 0"/>
<feOffset dy="5"/>
<feGaussianBlur stdDeviation="7.5"/>
<feColorMatrix type="matrix" values="0 0 0 0 0.0470588 0 0 0 0 0.0666667 0 0 0 0 0.109804 0 0 0 0.151825 0"/>
<feBlend mode="normal" in2="BackgroundImageFix" result="effect1_dropShadow"/>
<feBlend mode="normal" in="SourceGraphic" in2="effect1_dropShadow" result="shape"/>
</filter>
<filter id="filter10_d" x="137" y="326" width="58" height="22" filterUnits="userSpaceOnUse" color-interpolation-filters="sRGB">
<feFlood flood-opacity="0" result="BackgroundImageFix"/>
<feColorMatrix in="SourceAlpha" type="matrix" values="0 0 0 0 0 0 0 0 0 0 0 0 0 0 0 0 0 0 127 0"/>
<feOffset dy="2"/>
<feGaussianBlur stdDeviation="2"/>
<feColorMatrix type="matrix" values="0 0 0 0 0 0 0 0 0 0 0 0 0 0 0 0 0 0 0.25 0"/>
<feBlend mode="normal" in2="BackgroundImageFix" result="effect1_dropShadow"/>
<feBlend mode="normal" in="SourceGraphic" in2="effect1_dropShadow" result="shape"/>
</filter>
<filter id="filter11_d" x="74.5714" y="320.715" width="44.8571" height="44.8571" filterUnits="userSpaceOnUse" color-interpolation-filters="sRGB">
<feFlood flood-opacity="0" result="BackgroundImageFix"/>
<feColorMatrix in="SourceAlpha" type="matrix" values="0 0 0 0 0 0 0 0 0 0 0 0 0 0 0 0 0 0 127 0"/>
<feOffset dy="5"/>
<feGaussianBlur stdDeviation="7.5"/>
<feColorMatrix type="matrix" values="0 0 0 0 0.0470588 0 0 0 0 0.0666667 0 0 0 0 0.109804 0 0 0 0.151825 0"/>
<feBlend mode="normal" in2="BackgroundImageFix" result="effect1_dropShadow"/>
<feBlend mode="normal" in="SourceGraphic" in2="effect1_dropShadow" result="shape"/>
</filter>
<filter id="filter12_d" x="27" y="329" width="58" height="22" filterUnits="userSpaceOnUse" color-interpolation-filters="sRGB">
<feFlood flood-opacity="0" result="BackgroundImageFix"/>
<feColorMatrix in="SourceAlpha" type="matrix" values="0 0 0 0 0 0 0 0 0 0 0 0 0 0 0 0 0 0 127 0"/>
<feOffset dy="2"/>
<feGaussianBlur stdDeviation="2"/>
<feColorMatrix type="matrix" values="0 0 0 0 0 0 0 0 0 0 0 0 0 0 0 0 0 0 0.25 0"/>
<feBlend mode="normal" in2="BackgroundImageFix" result="effect1_dropShadow"/>
<feBlend mode="normal" in="SourceGraphic" in2="effect1_dropShadow" result="shape"/>
</filter>
<linearGradient id="paint0_linear" x1="95.8107" y1="122.938" x2="31.4629" y2="122.938" gradientUnits="userSpaceOnUse">
<stop stop-color="#7C9EF8"/>
<stop offset="1" stop-color="#6A78F7"/>
</linearGradient>
<linearGradient id="paint1_linear" x1="315.33" y1="275.37" x2="250.982" y2="275.37" gradientUnits="userSpaceOnUse">
<stop stop-color="#7C9EF8"/>
<stop offset="1" stop-color="#6A78F7"/>
</linearGradient>
<linearGradient id="paint2_linear" x1="191" y1="123" x2="140.239" y2="123" gradientUnits="userSpaceOnUse">
<stop stop-color="#7C9EF8"/>
<stop offset="1" stop-color="#6A78F7"/>
</linearGradient>
<linearGradient id="paint3_linear" x1="292" y1="123" x2="248.901" y2="123" gradientUnits="userSpaceOnUse">
<stop stop-color="#7C9EF8"/>
<stop offset="1" stop-color="#6A78F7"/>
</linearGradient>
<linearGradient id="paint4_linear" x1="191" y1="274" x2="140.239" y2="274" gradientUnits="userSpaceOnUse">
<stop stop-color="#7C9EF8"/>
<stop offset="1" stop-color="#6A78F7"/>
</linearGradient>
<linearGradient id="paint5_linear" x1="107" y1="277" x2="31.338" y2="277" gradientUnits="userSpaceOnUse">
<stop stop-color="#7C9EF8"/>
<stop offset="1" stop-color="#6A78F7"/>
</linearGradient>
<clipPath id="clip0">
<rect width="24.6036" height="24.6036" fill="white" transform="translate(81.6163 170.254)"/>
</clipPath>
<clipPath id="clip1">
<rect width="24.6036" height="24.6036" fill="white" transform="translate(301.136 322.684)"/>
</clipPath>
<clipPath id="clip2">
<rect width="26" height="26" fill="white" transform="translate(194 173)"/>
</clipPath>
<clipPath id="clip3">
<rect width="26" height="26" fill="white" transform="translate(303 173)"/>
</clipPath>
<clipPath id="clip4">
<rect width="26" height="26" fill="white" transform="translate(194 324)"/>
</clipPath>
<clipPath id="clip5">
<rect width="26" height="26" fill="white" transform="translate(84 327)"/>
</clipPath>
<clipPath id="clip6">
<rect width="20" height="20" fill="white" transform="translate(37 21)"/>
</clipPath>
</defs>
</svg>
