<svg width="450" height="440" viewBox="0 0 450 440" fill="none" xmlns="http://www.w3.org/2000/svg">
<g filter="url(#filter0_d)">
<rect x="4" width="346.343" height="370" rx="37" fill="white"/>
<rect x="4.5" y="0.5" width="345.343" height="369" rx="36.5" stroke="#C6C6C6"/>
</g>
<g clip-path="url(#clip0)">
<path d="M48.7795 26.8698C47.7065 25.663 46.2178 24.998 44.5876 24.998C42.2936 24.998 40.8419 26.3551 40.0279 27.4934C39.8168 27.7883 39.6362 28.0843 39.486 28.364C39.3347 28.0843 39.1552 27.7883 38.944 27.4934C38.13 26.3551 36.6783 24.9991 34.3843 24.9991C32.7542 24.9991 31.2655 25.663 30.1914 26.8698C29.1695 28.0201 28.6036 29.5621 28.6036 31.2097C28.6036 33.0031 29.311 34.6714 30.8291 36.4593C32.185 38.058 34.1373 39.7055 36.3976 41.6132C37.2399 42.3238 38.1105 43.0584 39.0376 43.8626L39.0659 43.8865C39.1856 43.991 39.3358 44.0433 39.486 44.0433C39.6362 44.0433 39.7853 43.991 39.906 43.8865L39.9343 43.8626C40.8615 43.0584 41.7321 42.3238 42.5744 41.6132C44.8347 39.7055 46.7859 38.058 48.1429 36.4593C49.661 34.6714 50.3683 33.0031 50.3683 31.2097C50.3683 29.5621 49.8046 28.0212 48.7795 26.8698ZM41.7484 40.6512C41.0226 41.2639 40.275 41.8951 39.4871 42.573C38.6992 41.8951 37.9527 41.2639 37.2257 40.6512C32.802 36.9186 29.8801 34.4515 29.8801 31.2097C29.8801 29.869 30.3307 28.6251 31.149 27.7056C31.9772 26.774 33.1263 26.2615 34.3854 26.2615C36.1342 26.2615 37.2649 27.328 37.9048 28.2236C38.4794 29.0267 38.7786 29.8353 38.8809 30.1454C38.9658 30.4066 39.2107 30.5818 39.4871 30.5818C39.7635 30.5818 40.0083 30.4055 40.0932 30.1465C40.1955 29.8353 40.4959 29.0256 41.0694 28.2236C41.7093 27.329 42.8399 26.2615 44.5876 26.2615C45.8478 26.2615 46.997 26.774 47.8251 27.7045C48.6435 28.6251 49.094 29.8701 49.094 31.2086C49.094 34.4515 46.1721 36.9186 41.7484 40.6512Z" fill="#5375FF"/>
</g>
<path d="M135.857 37.8721H138.485V26.1721H135.857V37.8721ZM145.786 28.8361C144.301 28.8361 143.356 29.5561 142.915 30.7621L142.897 29.0071H140.755V37.8721H143.167V33.6061C143.167 31.9141 143.95 31.0951 145.102 31.0951C146.11 31.0951 146.551 31.6621 146.551 32.8771V37.8721H148.963V32.2021C148.963 30.1951 148.027 28.8361 145.786 28.8361ZM156.396 35.6851C156.027 35.8111 155.694 35.8741 155.28 35.8741C154.371 35.8741 154.074 35.3791 154.074 34.4881V31.0411H156.585V29.0071H154.074V26.2441L151.662 26.5861V29.0071H150.159V31.0411H151.662V34.8121C151.662 36.8281 152.643 37.9891 154.821 37.9891C155.55 37.9891 156.171 37.8901 156.774 37.6921L156.396 35.6851ZM166.062 33.3091C166.062 30.5821 164.478 28.8361 161.877 28.8361C159.213 28.8361 157.521 30.8071 157.521 33.4441C157.521 36.1351 159.15 38.0431 161.949 38.0431C164.001 38.0431 165.495 37.0711 165.9 35.1631L163.866 34.8481C163.641 35.6581 163.02 36.0631 161.94 36.0631C160.806 36.0631 160.104 35.3881 159.915 34.1011H166.017C166.053 33.7951 166.062 33.5521 166.062 33.3091ZM161.877 30.7891C162.885 30.7891 163.587 31.3831 163.686 32.5801H159.933C160.14 31.4101 160.842 30.7891 161.877 30.7891ZM169.704 30.8521L169.677 29.0071H167.562V37.8631H169.956V33.8761C169.956 31.8511 171.396 31.1581 172.962 31.4821V28.8811C171.324 28.5931 170.199 29.4391 169.704 30.8521ZM182.129 33.3091C182.129 30.5821 180.545 28.8361 177.944 28.8361C175.28 28.8361 173.588 30.8071 173.588 33.4441C173.588 36.1351 175.217 38.0431 178.016 38.0431C180.068 38.0431 181.562 37.0711 181.967 35.1631L179.933 34.8481C179.708 35.6581 179.087 36.0631 178.007 36.0631C176.873 36.0631 176.171 35.3881 175.982 34.1011H182.084C182.12 33.7951 182.129 33.5521 182.129 33.3091ZM177.944 30.7891C178.952 30.7891 179.654 31.3831 179.753 32.5801H176C176.207 31.4101 176.909 30.7891 177.944 30.7891ZM187.327 38.0431C189.55 38.0431 190.945 36.9721 190.945 35.2981C190.954 33.6511 189.838 33.0571 187.462 32.5351C186.103 32.2381 185.761 31.9771 185.761 31.4641C185.761 30.9961 186.112 30.6631 186.994 30.6631C187.948 30.6631 188.542 31.1041 188.65 32.1661L190.837 31.9681C190.72 30.0691 189.604 28.8361 186.985 28.8361C184.978 28.8361 183.466 29.8081 183.457 31.5991C183.448 33.2371 184.501 33.9301 186.976 34.4431C188.146 34.6771 188.605 34.8481 188.605 35.4151C188.605 35.9371 188.218 36.2161 187.309 36.2161C186.274 36.2161 185.563 35.8291 185.428 34.7221L183.151 34.9291C183.313 37.1071 185.095 38.0431 187.327 38.0431ZM198.004 35.6851C197.635 35.8111 197.302 35.8741 196.888 35.8741C195.979 35.8741 195.682 35.3791 195.682 34.4881V31.0411H198.193V29.0071H195.682V26.2441L193.27 26.5861V29.0071H191.767V31.0411H193.27V34.8121C193.27 36.8281 194.251 37.9891 196.429 37.9891C197.158 37.9891 197.779 37.8901 198.382 37.6921L198.004 35.6851ZM203.341 38.0431C205.564 38.0431 206.959 36.9721 206.959 35.2981C206.968 33.6511 205.852 33.0571 203.476 32.5351C202.117 32.2381 201.775 31.9771 201.775 31.4641C201.775 30.9961 202.126 30.6631 203.008 30.6631C203.962 30.6631 204.556 31.1041 204.664 32.1661L206.851 31.9681C206.734 30.0691 205.618 28.8361 202.999 28.8361C200.992 28.8361 199.48 29.8081 199.471 31.5991C199.462 33.2371 200.515 33.9301 202.99 34.4431C204.16 34.6771 204.619 34.8481 204.619 35.4151C204.619 35.9371 204.232 36.2161 203.323 36.2161C202.288 36.2161 201.577 35.8291 201.442 34.7221L199.165 34.9291C199.327 37.1071 201.109 38.0431 203.341 38.0431Z" fill="black"/>
<rect x="22" y="69" width="89.8977" height="124.91" rx="15" fill="#E7E7E7"/>
<g clip-path="url(#clip1)">
<g filter="url(#filter1_d)">
<path d="M96.73 173.769H91.1063C88.7769 173.769 86.8885 175.657 86.8885 177.986V183.61C86.8885 185.939 88.7769 187.828 91.1063 187.828H96.73C99.0594 187.828 100.948 185.939 100.948 183.61V177.986C100.948 175.657 99.0594 173.769 96.73 173.769Z" fill="black"/>
</g>
<path d="M96.73 173.769H91.1063C88.7769 173.769 86.8885 175.657 86.8885 177.986V183.61C86.8885 185.939 88.7769 187.828 91.1063 187.828H96.73C99.0594 187.828 100.948 185.939 100.948 183.61V177.986C100.948 175.657 99.0594 173.769 96.73 173.769Z" fill="#5375FF"/>
<path d="M96.9367 177.78C96.8147 177.658 96.6421 177.609 96.4748 177.648L96.4724 177.649L90.952 179C90.422 179.129 90.0519 179.601 90.0519 180.147V180.875C90.0519 181.141 90.2621 181.358 90.525 181.369L92.6015 181.722C92.6454 181.73 92.6901 181.716 92.7217 181.684L95.1687 179.237C95.2545 179.151 95.3937 179.151 95.4794 179.237C95.5652 179.323 95.5652 179.462 95.4794 179.548L93.0324 181.995C93.0008 182.026 92.9867 182.071 92.9938 182.115L93.3474 184.191C93.3586 184.454 93.5758 184.664 93.8412 184.664H94.5698C95.1153 184.664 95.587 184.294 95.7167 183.765L97.0678 178.244L97.0685 178.242C97.1071 178.074 97.0579 177.902 96.9367 177.78Z" fill="#FBFBFB"/>
</g>
<rect x="30.5166" y="150.381" width="72.8644" height="2.83887" rx="1.41944" fill="#B0AFAF"/>
<rect x="46.6035" y="157.005" width="44.4757" height="2.83887" rx="1.41944" fill="#B0AFAF"/>
<circle cx="43.7647" cy="92.6573" r="10.4092" fill="#C4C4C4"/>
<rect x="58.9054" y="86.0332" width="38.798" height="2.83887" rx="1.41944" fill="#B0AFAF"/>
<rect x="58.9054" y="91.7109" width="31.2276" height="0.946292" rx="0.473146" fill="#C4C4C4"/>
<rect x="28.624" y="116.314" width="77.5959" height="13.2481" rx="2" fill="#E5ECFE"/>
<rect x="28.624" y="116.314" width="67.1867" height="13.2481" rx="2" fill="url(#paint0_linear)"/>
<g filter="url(#filter2_d)">
<rect x="31.4629" y="174.039" width="47.3146" height="13.2481" rx="2" fill="#5375FF"/>
</g>
<path d="M42.7828 182.938C43.6078 182.938 44.0638 182.506 44.0668 181.858C44.0698 181.105 43.4578 180.928 42.8038 180.739C42.2008 180.562 41.8018 180.424 41.8018 179.95C41.8018 179.542 42.0958 179.272 42.6658 179.272C43.3408 179.272 43.6318 179.659 43.6738 180.235L44.0338 180.157C44.0158 179.32 43.4878 178.918 42.6808 178.918C41.9278 178.918 41.3848 179.29 41.3848 179.977C41.3848 180.688 41.9518 180.916 42.6328 181.099C43.2568 181.273 43.6558 181.396 43.6558 181.876C43.6558 182.371 43.3108 182.581 42.7888 182.581C42.0148 182.581 41.6278 182.221 41.6398 181.543L41.2588 181.603C41.2408 182.545 41.9278 182.938 42.7828 182.938ZM46.3255 179.941C45.8485 179.941 45.4915 180.178 45.3115 180.547V178.69H44.9185V182.878H45.3115V181.369C45.3115 180.7 45.7195 180.307 46.2595 180.307C46.7515 180.307 46.9885 180.583 46.9885 181.195V182.878H47.3815V181.138C47.3815 180.352 47.0335 179.941 46.3255 179.941ZM49.4785 182.938C50.3455 182.938 50.9065 182.293 50.9065 181.438C50.9065 180.583 50.3455 179.941 49.4785 179.941C48.6115 179.941 48.0475 180.583 48.0475 181.438C48.0475 182.293 48.6115 182.938 49.4785 182.938ZM49.4785 182.587C48.8515 182.587 48.4465 182.098 48.4465 181.438C48.4465 180.778 48.8515 180.292 49.4785 180.292C50.1025 180.292 50.5075 180.778 50.5075 181.438C50.5075 182.098 50.1025 182.587 49.4785 182.587ZM54.9965 180.001L54.5405 181.678C54.4595 181.978 54.3905 182.266 54.3155 182.575C54.2375 182.254 54.1595 181.963 54.0755 181.675L53.5775 180.004H53.1305L52.6295 181.675C52.5455 181.963 52.4675 182.254 52.3895 182.575C52.3145 182.266 52.2455 181.978 52.1675 181.678L51.7115 180.001H51.3035L52.1285 182.878H52.6265L53.1755 181.063C53.2415 180.844 53.2925 180.628 53.3525 180.4C53.4125 180.628 53.4665 180.844 53.5325 181.063L54.0785 182.878H54.5765L55.4015 180.001H54.9965ZM60.4817 179.941C59.9837 179.941 59.6597 180.181 59.5037 180.559C59.3897 180.154 59.1167 179.941 58.6427 179.941C58.1597 179.941 57.8537 180.163 57.6977 180.517L57.7037 180.001H57.3287V182.878H57.7187V181.36C57.7187 180.688 58.0307 180.298 58.5737 180.298C59.0327 180.298 59.1827 180.577 59.1827 181.18V182.878H59.5697V181.36C59.5697 180.688 59.8787 180.298 60.4217 180.298C60.8837 180.298 61.0337 180.586 61.0337 181.18V182.878H61.4207V181.138C61.4207 180.37 61.1507 179.941 60.4817 179.941ZM63.5235 182.938C64.3905 182.938 64.9515 182.293 64.9515 181.438C64.9515 180.583 64.3905 179.941 63.5235 179.941C62.6565 179.941 62.0925 180.583 62.0925 181.438C62.0925 182.293 62.6565 182.938 63.5235 182.938ZM63.5235 182.587C62.8965 182.587 62.4915 182.098 62.4915 181.438C62.4915 180.778 62.8965 180.292 63.5235 180.292C64.1475 180.292 64.5525 180.778 64.5525 181.438C64.5525 182.098 64.1475 182.587 63.5235 182.587ZM66.0415 180.589L66.0475 180.001H65.6725V182.878H66.0595V181.354C66.0595 180.604 66.6325 180.232 67.1935 180.379L67.2205 179.968C66.6895 179.851 66.2365 180.085 66.0415 180.589ZM70.1401 181.381C70.1401 180.52 69.6691 179.941 68.8591 179.941C68.0461 179.941 67.5241 180.598 67.5241 181.432C67.5241 182.284 68.0671 182.938 68.9041 182.938C69.4861 182.938 69.9181 182.668 70.0861 182.155L69.7771 182.047C69.6391 182.389 69.3691 182.596 68.9041 182.596C68.3281 182.596 67.9651 182.167 67.9201 181.552H70.1371C70.1401 181.492 70.1401 181.435 70.1401 181.381ZM68.8591 180.277C69.3931 180.277 69.7051 180.628 69.7471 181.228H67.9291C67.9891 180.667 68.3221 180.277 68.8591 180.277Z" fill="white"/>
<path d="M38.1058 121.253L37.0468 123.944C36.9448 124.208 36.8758 124.406 36.7978 124.634C36.7198 124.403 36.6328 124.16 36.5488 123.944L35.4898 121.253H34.8688V125.153H35.2618V122.447C35.2618 122.183 35.2588 121.946 35.2558 121.688C35.3428 121.949 35.4328 122.195 35.5408 122.465L36.6178 125.153H36.9778L38.0548 122.465C38.1598 122.198 38.2498 121.955 38.3398 121.682C38.3368 121.955 38.3338 122.189 38.3338 122.447V125.153H38.7268V121.253H38.1058ZM42.2129 124.85C41.9999 124.85 41.9699 124.694 41.9699 124.541V123.389C41.9699 122.837 41.7839 122.216 40.8359 122.216C40.2269 122.216 39.8339 122.486 39.6719 123.029L40.0259 123.146C40.1519 122.753 40.3739 122.555 40.8389 122.555C41.4149 122.555 41.5829 122.915 41.5829 123.386V123.596C41.3639 123.569 41.1449 123.554 40.9439 123.554C40.1819 123.554 39.5969 123.752 39.5969 124.376C39.5969 124.904 40.0019 125.213 40.5839 125.213C41.0579 125.213 41.4239 125 41.6129 124.694C41.6369 125.009 41.7719 125.183 42.1319 125.183C42.2159 125.183 42.2939 125.174 42.3809 125.156V124.835C42.3209 124.847 42.2699 124.85 42.2129 124.85ZM40.6319 124.871C40.2869 124.871 40.0199 124.718 40.0199 124.367C40.0199 123.989 40.3829 123.866 40.9559 123.866C41.1539 123.866 41.3639 123.878 41.5829 123.902V124.379C41.3909 124.685 41.0429 124.871 40.6319 124.871ZM44.5633 124.724C44.4433 124.805 44.3203 124.844 44.1583 124.844C43.8013 124.844 43.6393 124.649 43.6393 124.217V122.609H44.6293V122.276H43.6393V121.34L43.2493 121.394V122.276H42.6283V122.609H43.2493V124.262C43.2493 124.916 43.5853 125.198 44.1133 125.198C44.3443 125.198 44.5273 125.141 44.6953 125.033L44.5633 124.724ZM46.4659 125.213C47.0959 125.213 47.5699 124.91 47.7139 124.265L47.3659 124.193C47.2429 124.616 46.9639 124.865 46.4689 124.865C45.8269 124.865 45.4729 124.367 45.4729 123.713C45.4729 123.062 45.8269 122.564 46.4689 122.564C46.9639 122.564 47.2429 122.813 47.3659 123.236L47.7139 123.164C47.5699 122.519 47.0959 122.216 46.4659 122.216C45.6049 122.216 45.0739 122.867 45.0739 123.713C45.0739 124.559 45.6049 125.213 46.4659 125.213ZM49.8851 122.216C49.4081 122.216 49.0511 122.453 48.8711 122.822V120.965H48.4781V125.153H48.8711V123.644C48.8711 122.975 49.2791 122.582 49.8191 122.582C50.3111 122.582 50.5481 122.858 50.5481 123.47V125.153H50.9411V123.413C50.9411 122.627 50.5931 122.216 49.8851 122.216Z" fill="white"/>
<path d="M56.757 123.11C57.15 122.948 57.372 122.654 57.372 122.27C57.372 121.604 56.772 121.199 55.917 121.199C55.062 121.199 54.462 121.604 54.462 122.27C54.462 122.654 54.684 122.948 55.077 123.11C54.606 123.278 54.348 123.608 54.348 124.055C54.348 124.748 55.026 125.207 55.917 125.207C56.808 125.207 57.486 124.748 57.486 124.055C57.486 123.608 57.228 123.278 56.757 123.11ZM55.917 121.949C56.214 121.949 56.361 122.114 56.361 122.342C56.361 122.597 56.193 122.753 55.917 122.753C55.641 122.753 55.473 122.597 55.473 122.342C55.473 122.114 55.62 121.949 55.917 121.949ZM55.917 124.451C55.578 124.451 55.371 124.247 55.371 123.959C55.371 123.659 55.572 123.473 55.917 123.473C56.262 123.473 56.463 123.659 56.463 123.959C56.463 124.247 56.256 124.451 55.917 124.451ZM59.3313 121.199C58.3863 121.199 57.7953 121.781 57.7953 122.582C57.7953 123.29 58.2603 123.833 59.0223 123.833C59.4543 123.833 59.7843 123.659 59.9583 123.314C59.9253 123.983 59.5863 124.307 59.0283 124.307C58.7133 124.307 58.4523 124.235 58.2093 124.085L57.8973 124.913C58.2153 125.105 58.6143 125.207 59.0433 125.207C60.3033 125.207 60.9093 124.346 60.9093 123.068C60.9093 121.871 60.3543 121.199 59.3313 121.199ZM59.3223 122.993C59.0133 122.993 58.7973 122.834 58.7973 122.534C58.7973 122.234 59.0163 122.057 59.3463 122.057C59.7723 122.057 59.9133 122.348 59.9073 122.72C59.7753 122.903 59.5563 122.993 59.3223 122.993ZM62.2043 123.161C62.7923 123.161 63.1763 122.753 63.1763 122.183C63.1763 121.607 62.7923 121.199 62.2043 121.199C61.6163 121.199 61.2263 121.607 61.2263 122.183C61.2263 122.753 61.6163 123.161 62.2043 123.161ZM61.6103 125.153H62.4743L65.0303 121.253H64.1663L61.6103 125.153ZM62.2043 122.483C62.0423 122.483 61.9463 122.369 61.9463 122.183C61.9463 121.991 62.0423 121.871 62.2043 121.871C62.3603 121.871 62.4563 121.991 62.4563 122.183C62.4563 122.369 62.3603 122.483 62.2043 122.483ZM64.4303 125.207C65.0183 125.207 65.4083 124.799 65.4083 124.223C65.4083 123.653 65.0183 123.245 64.4303 123.245C63.8423 123.245 63.4583 123.653 63.4583 124.223C63.4583 124.799 63.8423 125.207 64.4303 125.207ZM64.4303 124.535C64.2743 124.535 64.1783 124.415 64.1783 124.223C64.1783 124.037 64.2743 123.923 64.4303 123.923C64.5923 123.923 64.6823 124.037 64.6823 124.223C64.6823 124.415 64.5923 124.535 64.4303 124.535Z" fill="white"/>
<rect x="28.824" y="137.333" width="21.3647" height="5.27775" rx="2.63887" stroke="#5375FF" stroke-width="0.4"/>
<rect x="55.3202" y="137.333" width="17.5795" height="5.27775" rx="2.63887" stroke="#5375FF" stroke-width="0.4"/>
<rect x="81.8163" y="137.333" width="9.06292" height="5.27775" rx="2.63887" stroke="#5375FF" stroke-width="0.4"/>
<rect x="241.519" y="221.433" width="89.8977" height="124.91" rx="15" fill="#E7E7E7"/>
<g clip-path="url(#clip2)">
<g filter="url(#filter3_d)">
<path d="M316.249 326.2H310.626C308.296 326.2 306.408 328.089 306.408 330.418V336.042C306.408 338.371 308.296 340.259 310.626 340.259H316.249C318.579 340.259 320.467 338.371 320.467 336.042V330.418C320.467 328.089 318.579 326.2 316.249 326.2Z" fill="black"/>
</g>
<path d="M316.249 326.2H310.626C308.296 326.2 306.408 328.089 306.408 330.418V336.042C306.408 338.371 308.296 340.259 310.626 340.259H316.249C318.579 340.259 320.467 338.371 320.467 336.042V330.418C320.467 328.089 318.579 326.2 316.249 326.2Z" fill="#5375FF"/>
<path d="M316.456 330.211C316.334 330.09 316.162 330.041 315.994 330.08L315.992 330.08L310.471 331.431C309.941 331.561 309.571 332.032 309.571 332.578V333.307C309.571 333.572 309.781 333.789 310.044 333.801L312.121 334.154C312.165 334.162 312.209 334.147 312.241 334.116L314.688 331.669C314.774 331.583 314.913 331.583 314.999 331.669C315.085 331.754 315.085 331.894 314.999 331.979L312.552 334.426C312.52 334.458 312.506 334.503 312.513 334.546L312.867 336.623C312.878 336.886 313.095 337.096 313.361 337.096H314.089C314.635 337.096 315.106 336.726 315.236 336.196L316.587 330.676L316.588 330.673C316.627 330.506 316.577 330.333 316.456 330.211Z" fill="#FBFBFB"/>
</g>
<rect x="250.036" y="302.813" width="72.8644" height="2.83887" rx="1.41944" fill="#B0AFAF"/>
<rect x="266.123" y="309.438" width="44.4757" height="2.83887" rx="1.41944" fill="#B0AFAF"/>
<circle cx="263.284" cy="245.09" r="10.4092" fill="#C4C4C4"/>
<rect x="278.425" y="238.466" width="38.798" height="2.83887" rx="1.41944" fill="#B0AFAF"/>
<rect x="278.425" y="244.144" width="31.2276" height="0.946292" rx="0.473146" fill="#C4C4C4"/>
<rect x="248.143" y="268.747" width="77.5959" height="13.2481" rx="2" fill="#E5ECFE"/>
<rect x="248.143" y="268.747" width="67.1867" height="13.2481" rx="2" fill="url(#paint1_linear)"/>
<g filter="url(#filter4_d)">
<rect x="250.982" y="326.471" width="47.3146" height="13.2481" rx="2" fill="#5375FF"/>
</g>
<path d="M262.302 335.37C263.127 335.37 263.583 334.938 263.586 334.29C263.589 333.537 262.977 333.36 262.323 333.171C261.72 332.994 261.321 332.856 261.321 332.382C261.321 331.974 261.615 331.704 262.185 331.704C262.86 331.704 263.151 332.091 263.193 332.667L263.553 332.589C263.535 331.752 263.007 331.35 262.2 331.35C261.447 331.35 260.904 331.722 260.904 332.409C260.904 333.12 261.471 333.348 262.152 333.531C262.776 333.705 263.175 333.828 263.175 334.308C263.175 334.803 262.83 335.013 262.308 335.013C261.534 335.013 261.147 334.653 261.159 333.975L260.778 334.035C260.76 334.977 261.447 335.37 262.302 335.37ZM265.845 332.373C265.368 332.373 265.011 332.61 264.831 332.979V331.122H264.438V335.31H264.831V333.801C264.831 333.132 265.239 332.739 265.779 332.739C266.271 332.739 266.508 333.015 266.508 333.627V335.31H266.901V333.57C266.901 332.784 266.553 332.373 265.845 332.373ZM268.998 335.37C269.865 335.37 270.426 334.725 270.426 333.87C270.426 333.015 269.865 332.373 268.998 332.373C268.131 332.373 267.567 333.015 267.567 333.87C267.567 334.725 268.131 335.37 268.998 335.37ZM268.998 335.019C268.371 335.019 267.966 334.53 267.966 333.87C267.966 333.21 268.371 332.724 268.998 332.724C269.622 332.724 270.027 333.21 270.027 333.87C270.027 334.53 269.622 335.019 268.998 335.019ZM274.516 332.433L274.06 334.11C273.979 334.41 273.91 334.698 273.835 335.007C273.757 334.686 273.679 334.395 273.595 334.107L273.097 332.436H272.65L272.149 334.107C272.065 334.395 271.987 334.686 271.909 335.007C271.834 334.698 271.765 334.41 271.687 334.11L271.231 332.433H270.823L271.648 335.31H272.146L272.695 333.495C272.761 333.276 272.812 333.06 272.872 332.832C272.932 333.06 272.986 333.276 273.052 333.495L273.598 335.31H274.096L274.921 332.433H274.516ZM280.001 332.373C279.503 332.373 279.179 332.613 279.023 332.991C278.909 332.586 278.636 332.373 278.162 332.373C277.679 332.373 277.373 332.595 277.217 332.949L277.223 332.433H276.848V335.31H277.238V333.792C277.238 333.12 277.55 332.73 278.093 332.73C278.552 332.73 278.702 333.009 278.702 333.612V335.31H279.089V333.792C279.089 333.12 279.398 332.73 279.941 332.73C280.403 332.73 280.553 333.018 280.553 333.612V335.31H280.94V333.57C280.94 332.802 280.67 332.373 280.001 332.373ZM283.043 335.37C283.91 335.37 284.471 334.725 284.471 333.87C284.471 333.015 283.91 332.373 283.043 332.373C282.176 332.373 281.612 333.015 281.612 333.87C281.612 334.725 282.176 335.37 283.043 335.37ZM283.043 335.019C282.416 335.019 282.011 334.53 282.011 333.87C282.011 333.21 282.416 332.724 283.043 332.724C283.667 332.724 284.072 333.21 284.072 333.87C284.072 334.53 283.667 335.019 283.043 335.019ZM285.561 333.021L285.567 332.433H285.192V335.31H285.579V333.786C285.579 333.036 286.152 332.664 286.713 332.811L286.74 332.4C286.209 332.283 285.756 332.517 285.561 333.021ZM289.659 333.813C289.659 332.952 289.188 332.373 288.378 332.373C287.565 332.373 287.043 333.03 287.043 333.864C287.043 334.716 287.586 335.37 288.423 335.37C289.005 335.37 289.437 335.1 289.605 334.587L289.296 334.479C289.158 334.821 288.888 335.028 288.423 335.028C287.847 335.028 287.484 334.599 287.439 333.984H289.656C289.659 333.924 289.659 333.867 289.659 333.813ZM288.378 332.709C288.912 332.709 289.224 333.06 289.266 333.66H287.448C287.508 333.099 287.841 332.709 288.378 332.709Z" fill="white"/>
<path d="M257.625 273.686L256.566 276.377C256.464 276.641 256.395 276.839 256.317 277.067C256.239 276.836 256.152 276.593 256.068 276.377L255.009 273.686H254.388V277.586H254.781V274.88C254.781 274.616 254.778 274.379 254.775 274.121C254.862 274.382 254.952 274.628 255.06 274.898L256.137 277.586H256.497L257.574 274.898C257.679 274.631 257.769 274.388 257.859 274.115C257.856 274.388 257.853 274.622 257.853 274.88V277.586H258.246V273.686H257.625ZM261.732 277.283C261.519 277.283 261.489 277.127 261.489 276.974V275.822C261.489 275.27 261.303 274.649 260.355 274.649C259.746 274.649 259.353 274.919 259.191 275.462L259.545 275.579C259.671 275.186 259.893 274.988 260.358 274.988C260.934 274.988 261.102 275.348 261.102 275.819V276.029C260.883 276.002 260.664 275.987 260.463 275.987C259.701 275.987 259.116 276.185 259.116 276.809C259.116 277.337 259.521 277.646 260.103 277.646C260.577 277.646 260.943 277.433 261.132 277.127C261.156 277.442 261.291 277.616 261.651 277.616C261.735 277.616 261.813 277.607 261.9 277.589V277.268C261.84 277.28 261.789 277.283 261.732 277.283ZM260.151 277.304C259.806 277.304 259.539 277.151 259.539 276.8C259.539 276.422 259.902 276.299 260.475 276.299C260.673 276.299 260.883 276.311 261.102 276.335V276.812C260.91 277.118 260.562 277.304 260.151 277.304ZM264.083 277.157C263.963 277.238 263.84 277.277 263.678 277.277C263.321 277.277 263.159 277.082 263.159 276.65V275.042H264.149V274.709H263.159V273.773L262.769 273.827V274.709H262.148V275.042H262.769V276.695C262.769 277.349 263.105 277.631 263.633 277.631C263.864 277.631 264.047 277.574 264.215 277.466L264.083 277.157ZM265.985 277.646C266.615 277.646 267.089 277.343 267.233 276.698L266.885 276.626C266.762 277.049 266.483 277.298 265.988 277.298C265.346 277.298 264.992 276.8 264.992 276.146C264.992 275.495 265.346 274.997 265.988 274.997C266.483 274.997 266.762 275.246 266.885 275.669L267.233 275.597C267.089 274.952 266.615 274.649 265.985 274.649C265.124 274.649 264.593 275.3 264.593 276.146C264.593 276.992 265.124 277.646 265.985 277.646ZM269.404 274.649C268.927 274.649 268.57 274.886 268.39 275.255V273.398H267.997V277.586H268.39V276.077C268.39 275.408 268.798 275.015 269.338 275.015C269.83 275.015 270.067 275.291 270.067 275.903V277.586H270.46V275.846C270.46 275.06 270.112 274.649 269.404 274.649Z" fill="white"/>
<path d="M276.276 275.543C276.669 275.381 276.891 275.087 276.891 274.703C276.891 274.037 276.291 273.632 275.436 273.632C274.581 273.632 273.981 274.037 273.981 274.703C273.981 275.087 274.203 275.381 274.596 275.543C274.125 275.711 273.867 276.041 273.867 276.488C273.867 277.181 274.545 277.64 275.436 277.64C276.327 277.64 277.005 277.181 277.005 276.488C277.005 276.041 276.747 275.711 276.276 275.543ZM275.436 274.382C275.733 274.382 275.88 274.547 275.88 274.775C275.88 275.03 275.712 275.186 275.436 275.186C275.16 275.186 274.992 275.03 274.992 274.775C274.992 274.547 275.139 274.382 275.436 274.382ZM275.436 276.884C275.097 276.884 274.89 276.68 274.89 276.392C274.89 276.092 275.091 275.906 275.436 275.906C275.781 275.906 275.982 276.092 275.982 276.392C275.982 276.68 275.775 276.884 275.436 276.884ZM278.85 273.632C277.905 273.632 277.314 274.214 277.314 275.015C277.314 275.723 277.779 276.266 278.541 276.266C278.973 276.266 279.303 276.092 279.477 275.747C279.444 276.416 279.105 276.74 278.547 276.74C278.232 276.74 277.971 276.668 277.728 276.518L277.416 277.346C277.734 277.538 278.133 277.64 278.562 277.64C279.822 277.64 280.428 276.779 280.428 275.501C280.428 274.304 279.873 273.632 278.85 273.632ZM278.841 275.426C278.532 275.426 278.316 275.267 278.316 274.967C278.316 274.667 278.535 274.49 278.865 274.49C279.291 274.49 279.432 274.781 279.426 275.153C279.294 275.336 279.075 275.426 278.841 275.426ZM281.723 275.594C282.311 275.594 282.695 275.186 282.695 274.616C282.695 274.04 282.311 273.632 281.723 273.632C281.135 273.632 280.745 274.04 280.745 274.616C280.745 275.186 281.135 275.594 281.723 275.594ZM281.129 277.586H281.993L284.549 273.686H283.685L281.129 277.586ZM281.723 274.916C281.561 274.916 281.465 274.802 281.465 274.616C281.465 274.424 281.561 274.304 281.723 274.304C281.879 274.304 281.975 274.424 281.975 274.616C281.975 274.802 281.879 274.916 281.723 274.916ZM283.949 277.64C284.537 277.64 284.927 277.232 284.927 276.656C284.927 276.086 284.537 275.678 283.949 275.678C283.361 275.678 282.977 276.086 282.977 276.656C282.977 277.232 283.361 277.64 283.949 277.64ZM283.949 276.968C283.793 276.968 283.697 276.848 283.697 276.656C283.697 276.47 283.793 276.356 283.949 276.356C284.111 276.356 284.201 276.47 284.201 276.656C284.201 276.848 284.111 276.968 283.949 276.968Z" fill="white"/>
<rect x="248.343" y="289.765" width="21.3647" height="5.27775" rx="2.63887" stroke="#5375FF" stroke-width="0.4"/>
<rect x="274.839" y="289.765" width="17.5795" height="5.27775" rx="2.63887" stroke="#5375FF" stroke-width="0.4"/>
<rect x="301.336" y="289.765" width="9.06292" height="5.27775" rx="2.63887" stroke="#5375FF" stroke-width="0.4"/>
<rect x="131" y="66" width="95" height="132" rx="15" fill="#E7E7E7"/>
<g clip-path="url(#clip3)">
<g filter="url(#filter5_d)">
<path d="M209.972 176.714H204.029C201.567 176.714 199.572 178.709 199.572 181.171V187.114C199.572 189.575 201.567 191.571 204.029 191.571H209.972C212.433 191.571 214.429 189.575 214.429 187.114V181.171C214.429 178.709 212.433 176.714 209.972 176.714Z" fill="black"/>
</g>
<path d="M209.972 176.714H204.029C201.567 176.714 199.572 178.709 199.572 181.171V187.114C199.572 189.575 201.567 191.571 204.029 191.571H209.972C212.433 191.571 214.429 189.575 214.429 187.114V181.171C214.429 178.709 212.433 176.714 209.972 176.714Z" fill="#5375FF"/>
<path d="M210.19 180.953C210.061 180.824 209.879 180.772 209.702 180.814L209.699 180.814L203.866 182.242C203.305 182.379 202.914 182.877 202.914 183.454V184.224C202.914 184.505 203.136 184.734 203.414 184.746L205.609 185.119C205.655 185.127 205.702 185.112 205.736 185.079L208.322 182.493C208.412 182.402 208.559 182.402 208.65 182.493C208.741 182.584 208.741 182.731 208.65 182.821L206.064 185.407C206.031 185.441 206.016 185.488 206.023 185.534L206.397 187.729C206.409 188.006 206.638 188.228 206.919 188.228H207.689C208.265 188.228 208.764 187.837 208.901 187.278L210.328 181.444L210.329 181.441C210.37 181.264 210.318 181.082 210.19 180.953Z" fill="#FBFBFB"/>
</g>
<rect x="140" y="152" width="77" height="3" rx="1.5" fill="#B0AFAF"/>
<rect x="157" y="159" width="47" height="3" rx="1.5" fill="#B0AFAF"/>
<circle cx="154" cy="91" r="11" fill="#C4C4C4"/>
<rect x="170" y="84" width="41" height="3" rx="1.5" fill="#B0AFAF"/>
<rect x="170" y="90" width="33" height="1" rx="0.5" fill="#C4C4C4"/>
<rect x="138" y="116" width="82" height="14" rx="2" fill="#E5ECFE"/>
<rect x="138" y="116" width="53" height="14" rx="2" fill="url(#paint2_linear)"/>
<g filter="url(#filter6_d)">
<rect x="141" y="177" width="50" height="14" rx="2" fill="#5375FF"/>
</g>
<path d="M152.857 186.06C153.682 186.06 154.138 185.628 154.141 184.98C154.144 184.227 153.532 184.05 152.878 183.861C152.275 183.684 151.876 183.546 151.876 183.072C151.876 182.664 152.17 182.394 152.74 182.394C153.415 182.394 153.706 182.781 153.748 183.357L154.108 183.279C154.09 182.442 153.562 182.04 152.755 182.04C152.002 182.04 151.459 182.412 151.459 183.099C151.459 183.81 152.026 184.038 152.707 184.221C153.331 184.395 153.73 184.518 153.73 184.998C153.73 185.493 153.385 185.703 152.863 185.703C152.089 185.703 151.702 185.343 151.714 184.665L151.333 184.725C151.315 185.667 152.002 186.06 152.857 186.06ZM156.4 183.063C155.923 183.063 155.566 183.3 155.386 183.669V181.812H154.993V186H155.386V184.491C155.386 183.822 155.794 183.429 156.334 183.429C156.826 183.429 157.063 183.705 157.063 184.317V186H157.456V184.26C157.456 183.474 157.108 183.063 156.4 183.063ZM159.553 186.06C160.42 186.06 160.981 185.415 160.981 184.56C160.981 183.705 160.42 183.063 159.553 183.063C158.686 183.063 158.122 183.705 158.122 184.56C158.122 185.415 158.686 186.06 159.553 186.06ZM159.553 185.709C158.926 185.709 158.521 185.22 158.521 184.56C158.521 183.9 158.926 183.414 159.553 183.414C160.177 183.414 160.582 183.9 160.582 184.56C160.582 185.22 160.177 185.709 159.553 185.709ZM165.071 183.123L164.615 184.8C164.534 185.1 164.465 185.388 164.39 185.697C164.312 185.376 164.234 185.085 164.15 184.797L163.652 183.126H163.205L162.704 184.797C162.62 185.085 162.542 185.376 162.464 185.697C162.389 185.388 162.32 185.1 162.242 184.8L161.786 183.123H161.378L162.203 186H162.701L163.25 184.185C163.316 183.966 163.367 183.75 163.427 183.522C163.487 183.75 163.541 183.966 163.607 184.185L164.153 186H164.651L165.476 183.123H165.071ZM170.556 183.063C170.058 183.063 169.734 183.303 169.578 183.681C169.464 183.276 169.191 183.063 168.717 183.063C168.234 183.063 167.928 183.285 167.772 183.639L167.778 183.123H167.403V186H167.793V184.482C167.793 183.81 168.105 183.42 168.648 183.42C169.107 183.42 169.257 183.699 169.257 184.302V186H169.644V184.482C169.644 183.81 169.953 183.42 170.496 183.42C170.958 183.42 171.108 183.708 171.108 184.302V186H171.495V184.26C171.495 183.492 171.225 183.063 170.556 183.063ZM173.598 186.06C174.465 186.06 175.026 185.415 175.026 184.56C175.026 183.705 174.465 183.063 173.598 183.063C172.731 183.063 172.167 183.705 172.167 184.56C172.167 185.415 172.731 186.06 173.598 186.06ZM173.598 185.709C172.971 185.709 172.566 185.22 172.566 184.56C172.566 183.9 172.971 183.414 173.598 183.414C174.222 183.414 174.627 183.9 174.627 184.56C174.627 185.22 174.222 185.709 173.598 185.709ZM176.116 183.711L176.122 183.123H175.747V186H176.134V184.476C176.134 183.726 176.707 183.354 177.268 183.501L177.295 183.09C176.764 182.973 176.311 183.207 176.116 183.711ZM180.214 184.503C180.214 183.642 179.743 183.063 178.933 183.063C178.12 183.063 177.598 183.72 177.598 184.554C177.598 185.406 178.141 186.06 178.978 186.06C179.56 186.06 179.992 185.79 180.16 185.277L179.851 185.169C179.713 185.511 179.443 185.718 178.978 185.718C178.402 185.718 178.039 185.289 177.994 184.674H180.211C180.214 184.614 180.214 184.557 180.214 184.503ZM178.933 183.399C179.467 183.399 179.779 183.75 179.821 184.35H178.003C178.063 183.789 178.396 183.399 178.933 183.399Z" fill="white"/>
<path d="M147.804 121.1L146.745 123.791C146.643 124.055 146.574 124.253 146.496 124.481C146.418 124.25 146.331 124.007 146.247 123.791L145.188 121.1H144.567V125H144.96V122.294C144.96 122.03 144.957 121.793 144.954 121.535C145.041 121.796 145.131 122.042 145.239 122.312L146.316 125H146.676L147.753 122.312C147.858 122.045 147.948 121.802 148.038 121.529C148.035 121.802 148.032 122.036 148.032 122.294V125H148.425V121.1H147.804ZM151.911 124.697C151.698 124.697 151.668 124.541 151.668 124.388V123.236C151.668 122.684 151.482 122.063 150.534 122.063C149.925 122.063 149.532 122.333 149.37 122.876L149.724 122.993C149.85 122.6 150.072 122.402 150.537 122.402C151.113 122.402 151.281 122.762 151.281 123.233V123.443C151.062 123.416 150.843 123.401 150.642 123.401C149.88 123.401 149.295 123.599 149.295 124.223C149.295 124.751 149.7 125.06 150.282 125.06C150.756 125.06 151.122 124.847 151.311 124.541C151.335 124.856 151.47 125.03 151.83 125.03C151.914 125.03 151.992 125.021 152.079 125.003V124.682C152.019 124.694 151.968 124.697 151.911 124.697ZM150.33 124.718C149.985 124.718 149.718 124.565 149.718 124.214C149.718 123.836 150.081 123.713 150.654 123.713C150.852 123.713 151.062 123.725 151.281 123.749V124.226C151.089 124.532 150.741 124.718 150.33 124.718ZM154.262 124.571C154.142 124.652 154.019 124.691 153.857 124.691C153.5 124.691 153.338 124.496 153.338 124.064V122.456H154.328V122.123H153.338V121.187L152.948 121.241V122.123H152.327V122.456H152.948V124.109C152.948 124.763 153.284 125.045 153.812 125.045C154.043 125.045 154.226 124.988 154.394 124.88L154.262 124.571ZM156.164 125.06C156.794 125.06 157.268 124.757 157.412 124.112L157.064 124.04C156.941 124.463 156.662 124.712 156.167 124.712C155.525 124.712 155.171 124.214 155.171 123.56C155.171 122.909 155.525 122.411 156.167 122.411C156.662 122.411 156.941 122.66 157.064 123.083L157.412 123.011C157.268 122.366 156.794 122.063 156.164 122.063C155.303 122.063 154.772 122.714 154.772 123.56C154.772 124.406 155.303 125.06 156.164 125.06ZM159.583 122.063C159.106 122.063 158.749 122.3 158.569 122.669V120.812H158.176V125H158.569V123.491C158.569 122.822 158.977 122.429 159.517 122.429C160.009 122.429 160.246 122.705 160.246 123.317V125H160.639V123.26C160.639 122.474 160.291 122.063 159.583 122.063Z" fill="white"/>
<path d="M167.001 122.399C166.668 122.399 166.428 122.471 166.215 122.66L166.272 121.964H167.994V121.1H165.432L165.288 123.062L166.14 123.518C166.26 123.326 166.437 123.224 166.662 123.224C167.022 123.224 167.181 123.398 167.181 123.698C167.181 124.016 166.983 124.184 166.674 124.184C166.362 124.184 166.116 124.022 166.071 123.638L165.075 123.722C165.156 124.586 165.732 125.054 166.671 125.054C167.586 125.054 168.237 124.508 168.237 123.698C168.237 122.918 167.799 122.399 167.001 122.399ZM170.405 122.399C170.072 122.399 169.832 122.471 169.619 122.66L169.676 121.964H171.398V121.1H168.836L168.692 123.062L169.544 123.518C169.664 123.326 169.841 123.224 170.066 123.224C170.426 123.224 170.585 123.398 170.585 123.698C170.585 124.016 170.387 124.184 170.078 124.184C169.766 124.184 169.52 124.022 169.475 123.638L168.479 123.722C168.56 124.586 169.136 125.054 170.075 125.054C170.99 125.054 171.641 124.508 171.641 123.698C171.641 122.918 171.203 122.399 170.405 122.399ZM172.937 123.008C173.525 123.008 173.909 122.6 173.909 122.03C173.909 121.454 173.525 121.046 172.937 121.046C172.349 121.046 171.959 121.454 171.959 122.03C171.959 122.6 172.349 123.008 172.937 123.008ZM172.343 125H173.207L175.763 121.1H174.899L172.343 125ZM172.937 122.33C172.775 122.33 172.679 122.216 172.679 122.03C172.679 121.838 172.775 121.718 172.937 121.718C173.093 121.718 173.189 121.838 173.189 122.03C173.189 122.216 173.093 122.33 172.937 122.33ZM175.163 125.054C175.751 125.054 176.141 124.646 176.141 124.07C176.141 123.5 175.751 123.092 175.163 123.092C174.575 123.092 174.191 123.5 174.191 124.07C174.191 124.646 174.575 125.054 175.163 125.054ZM175.163 124.382C175.007 124.382 174.911 124.262 174.911 124.07C174.911 123.884 175.007 123.77 175.163 123.77C175.325 123.77 175.415 123.884 175.415 124.07C175.415 124.262 175.325 124.382 175.163 124.382Z" fill="white"/>
<rect x="138.2" y="138.2" width="22.6" height="5.6" rx="2.8" stroke="#5375FF" stroke-width="0.4"/>
<rect x="166.2" y="138.2" width="18.6" height="5.6" rx="2.8" stroke="#5375FF" stroke-width="0.4"/>
<rect x="194.2" y="138.2" width="9.6" height="5.6" rx="2.8" stroke="#5375FF" stroke-width="0.4"/>
<rect x="240" y="66" width="95" height="132" rx="15" fill="#E7E7E7"/>
<g clip-path="url(#clip4)">
<g filter="url(#filter7_d)">
<path d="M318.972 176.714H313.029C310.567 176.714 308.572 178.709 308.572 181.171V187.114C308.572 189.575 310.567 191.571 313.029 191.571H318.972C321.433 191.571 323.429 189.575 323.429 187.114V181.171C323.429 178.709 321.433 176.714 318.972 176.714Z" fill="black"/>
</g>
<path d="M318.972 176.714H313.029C310.567 176.714 308.572 178.709 308.572 181.171V187.114C308.572 189.575 310.567 191.571 313.029 191.571H318.972C321.433 191.571 323.429 189.575 323.429 187.114V181.171C323.429 178.709 321.433 176.714 318.972 176.714Z" fill="#5375FF"/>
<path d="M319.19 180.953C319.061 180.824 318.879 180.772 318.702 180.814L318.699 180.814L312.866 182.242C312.305 182.379 311.914 182.877 311.914 183.454V184.224C311.914 184.505 312.136 184.734 312.414 184.746L314.609 185.119C314.655 185.127 314.702 185.112 314.736 185.079L317.322 182.493C317.412 182.402 317.559 182.402 317.65 182.493C317.741 182.584 317.741 182.731 317.65 182.821L315.064 185.407C315.031 185.441 315.016 185.488 315.023 185.534L315.397 187.729C315.409 188.006 315.638 188.228 315.919 188.228H316.689C317.265 188.228 317.764 187.837 317.901 187.278L319.328 181.444L319.329 181.441C319.37 181.264 319.318 181.082 319.19 180.953Z" fill="#FBFBFB"/>
</g>
<rect x="249" y="152" width="77" height="3" rx="1.5" fill="#B0AFAF"/>
<rect x="266" y="159" width="47" height="3" rx="1.5" fill="#B0AFAF"/>
<circle cx="263" cy="91" r="11" fill="#C4C4C4"/>
<rect x="279" y="84" width="41" height="3" rx="1.5" fill="#B0AFAF"/>
<rect x="279" y="90" width="33" height="1" rx="0.5" fill="#C4C4C4"/>
<rect x="247" y="116" width="82" height="14" rx="2" fill="#E5ECFE"/>
<rect x="247" y="116" width="45" height="14" rx="2" fill="url(#paint3_linear)"/>
<g filter="url(#filter8_d)">
<rect x="250" y="177" width="50" height="14" rx="2" fill="#5375FF"/>
</g>
<path d="M261.857 186.06C262.682 186.06 263.138 185.628 263.141 184.98C263.144 184.227 262.532 184.05 261.878 183.861C261.275 183.684 260.876 183.546 260.876 183.072C260.876 182.664 261.17 182.394 261.74 182.394C262.415 182.394 262.706 182.781 262.748 183.357L263.108 183.279C263.09 182.442 262.562 182.04 261.755 182.04C261.002 182.04 260.459 182.412 260.459 183.099C260.459 183.81 261.026 184.038 261.707 184.221C262.331 184.395 262.73 184.518 262.73 184.998C262.73 185.493 262.385 185.703 261.863 185.703C261.089 185.703 260.702 185.343 260.714 184.665L260.333 184.725C260.315 185.667 261.002 186.06 261.857 186.06ZM265.4 183.063C264.923 183.063 264.566 183.3 264.386 183.669V181.812H263.993V186H264.386V184.491C264.386 183.822 264.794 183.429 265.334 183.429C265.826 183.429 266.063 183.705 266.063 184.317V186H266.456V184.26C266.456 183.474 266.108 183.063 265.4 183.063ZM268.553 186.06C269.42 186.06 269.981 185.415 269.981 184.56C269.981 183.705 269.42 183.063 268.553 183.063C267.686 183.063 267.122 183.705 267.122 184.56C267.122 185.415 267.686 186.06 268.553 186.06ZM268.553 185.709C267.926 185.709 267.521 185.22 267.521 184.56C267.521 183.9 267.926 183.414 268.553 183.414C269.177 183.414 269.582 183.9 269.582 184.56C269.582 185.22 269.177 185.709 268.553 185.709ZM274.071 183.123L273.615 184.8C273.534 185.1 273.465 185.388 273.39 185.697C273.312 185.376 273.234 185.085 273.15 184.797L272.652 183.126H272.205L271.704 184.797C271.62 185.085 271.542 185.376 271.464 185.697C271.389 185.388 271.32 185.1 271.242 184.8L270.786 183.123H270.378L271.203 186H271.701L272.25 184.185C272.316 183.966 272.367 183.75 272.427 183.522C272.487 183.75 272.541 183.966 272.607 184.185L273.153 186H273.651L274.476 183.123H274.071ZM279.556 183.063C279.058 183.063 278.734 183.303 278.578 183.681C278.464 183.276 278.191 183.063 277.717 183.063C277.234 183.063 276.928 183.285 276.772 183.639L276.778 183.123H276.403V186H276.793V184.482C276.793 183.81 277.105 183.42 277.648 183.42C278.107 183.42 278.257 183.699 278.257 184.302V186H278.644V184.482C278.644 183.81 278.953 183.42 279.496 183.42C279.958 183.42 280.108 183.708 280.108 184.302V186H280.495V184.26C280.495 183.492 280.225 183.063 279.556 183.063ZM282.598 186.06C283.465 186.06 284.026 185.415 284.026 184.56C284.026 183.705 283.465 183.063 282.598 183.063C281.731 183.063 281.167 183.705 281.167 184.56C281.167 185.415 281.731 186.06 282.598 186.06ZM282.598 185.709C281.971 185.709 281.566 185.22 281.566 184.56C281.566 183.9 281.971 183.414 282.598 183.414C283.222 183.414 283.627 183.9 283.627 184.56C283.627 185.22 283.222 185.709 282.598 185.709ZM285.116 183.711L285.122 183.123H284.747V186H285.134V184.476C285.134 183.726 285.707 183.354 286.268 183.501L286.295 183.09C285.764 182.973 285.311 183.207 285.116 183.711ZM289.214 184.503C289.214 183.642 288.743 183.063 287.933 183.063C287.12 183.063 286.598 183.72 286.598 184.554C286.598 185.406 287.141 186.06 287.978 186.06C288.56 186.06 288.992 185.79 289.16 185.277L288.851 185.169C288.713 185.511 288.443 185.718 287.978 185.718C287.402 185.718 287.039 185.289 286.994 184.674H289.211C289.214 184.614 289.214 184.557 289.214 184.503ZM287.933 183.399C288.467 183.399 288.779 183.75 288.821 184.35H287.003C287.063 183.789 287.396 183.399 287.933 183.399Z" fill="white"/>
<path d="M256.804 121.1L255.745 123.791C255.643 124.055 255.574 124.253 255.496 124.481C255.418 124.25 255.331 124.007 255.247 123.791L254.188 121.1H253.567V125H253.96V122.294C253.96 122.03 253.957 121.793 253.954 121.535C254.041 121.796 254.131 122.042 254.239 122.312L255.316 125H255.676L256.753 122.312C256.858 122.045 256.948 121.802 257.038 121.529C257.035 121.802 257.032 122.036 257.032 122.294V125H257.425V121.1H256.804ZM260.911 124.697C260.698 124.697 260.668 124.541 260.668 124.388V123.236C260.668 122.684 260.482 122.063 259.534 122.063C258.925 122.063 258.532 122.333 258.37 122.876L258.724 122.993C258.85 122.6 259.072 122.402 259.537 122.402C260.113 122.402 260.281 122.762 260.281 123.233V123.443C260.062 123.416 259.843 123.401 259.642 123.401C258.88 123.401 258.295 123.599 258.295 124.223C258.295 124.751 258.7 125.06 259.282 125.06C259.756 125.06 260.122 124.847 260.311 124.541C260.335 124.856 260.47 125.03 260.83 125.03C260.914 125.03 260.992 125.021 261.079 125.003V124.682C261.019 124.694 260.968 124.697 260.911 124.697ZM259.33 124.718C258.985 124.718 258.718 124.565 258.718 124.214C258.718 123.836 259.081 123.713 259.654 123.713C259.852 123.713 260.062 123.725 260.281 123.749V124.226C260.089 124.532 259.741 124.718 259.33 124.718ZM263.262 124.571C263.142 124.652 263.019 124.691 262.857 124.691C262.5 124.691 262.338 124.496 262.338 124.064V122.456H263.328V122.123H262.338V121.187L261.948 121.241V122.123H261.327V122.456H261.948V124.109C261.948 124.763 262.284 125.045 262.812 125.045C263.043 125.045 263.226 124.988 263.394 124.88L263.262 124.571ZM265.164 125.06C265.794 125.06 266.268 124.757 266.412 124.112L266.064 124.04C265.941 124.463 265.662 124.712 265.167 124.712C264.525 124.712 264.171 124.214 264.171 123.56C264.171 122.909 264.525 122.411 265.167 122.411C265.662 122.411 265.941 122.66 266.064 123.083L266.412 123.011C266.268 122.366 265.794 122.063 265.164 122.063C264.303 122.063 263.772 122.714 263.772 123.56C263.772 124.406 264.303 125.06 265.164 125.06ZM268.583 122.063C268.106 122.063 267.749 122.3 267.569 122.669V120.812H267.176V125H267.569V123.491C267.569 122.822 267.977 122.429 268.517 122.429C269.009 122.429 269.246 122.705 269.246 123.317V125H269.639V123.26C269.639 122.474 269.291 122.063 268.583 122.063Z" fill="white"/>
<path d="M277.567 123.485H277.036V121.07H275.389L274.078 123.557L274.204 124.31L276.013 124.301V125H277.036V124.298L277.567 124.295V123.485ZM275.215 123.485L275.473 122.972C275.674 122.576 275.869 122.18 276.04 121.742C276.019 122.111 276.013 122.471 276.013 122.843V123.485H275.215ZM279.513 125.054C280.635 125.054 281.175 124.349 281.175 123.05C281.175 121.748 280.605 121.046 279.513 121.046C278.421 121.046 277.851 121.748 277.851 123.05C277.851 124.349 278.391 125.054 279.513 125.054ZM279.513 124.208C279.075 124.208 278.874 123.767 278.874 123.05C278.874 122.333 279.075 121.892 279.513 121.892C279.951 121.892 280.152 122.333 280.152 123.05C280.152 123.767 279.951 124.208 279.513 124.208ZM282.47 123.008C283.058 123.008 283.442 122.6 283.442 122.03C283.442 121.454 283.058 121.046 282.47 121.046C281.882 121.046 281.492 121.454 281.492 122.03C281.492 122.6 281.882 123.008 282.47 123.008ZM281.876 125H282.74L285.296 121.1H284.432L281.876 125ZM282.47 122.33C282.308 122.33 282.212 122.216 282.212 122.03C282.212 121.838 282.308 121.718 282.47 121.718C282.626 121.718 282.722 121.838 282.722 122.03C282.722 122.216 282.626 122.33 282.47 122.33ZM284.696 125.054C285.284 125.054 285.674 124.646 285.674 124.07C285.674 123.5 285.284 123.092 284.696 123.092C284.108 123.092 283.724 123.5 283.724 124.07C283.724 124.646 284.108 125.054 284.696 125.054ZM284.696 124.382C284.54 124.382 284.444 124.262 284.444 124.07C284.444 123.884 284.54 123.77 284.696 123.77C284.858 123.77 284.948 123.884 284.948 124.07C284.948 124.262 284.858 124.382 284.696 124.382Z" fill="white"/>
<rect x="247.2" y="138.2" width="22.6" height="5.6" rx="2.8" stroke="#5375FF" stroke-width="0.4"/>
<rect x="275.2" y="138.2" width="18.6" height="5.6" rx="2.8" stroke="#5375FF" stroke-width="0.4"/>
<rect x="303.2" y="138.2" width="9.6" height="5.6" rx="2.8" stroke="#5375FF" stroke-width="0.4"/>
<rect x="131" y="217" width="95" height="132" rx="15" fill="#E7E7E7"/>
<g clip-path="url(#clip5)">
<g filter="url(#filter9_d)">
<path d="M209.972 327.714H204.029C201.567 327.714 199.572 329.709 199.572 332.171V338.114C199.572 340.575 201.567 342.571 204.029 342.571H209.972C212.433 342.571 214.429 340.575 214.429 338.114V332.171C214.429 329.709 212.433 327.714 209.972 327.714Z" fill="black"/>
</g>
<path d="M209.972 327.714H204.029C201.567 327.714 199.572 329.709 199.572 332.171V338.114C199.572 340.575 201.567 342.571 204.029 342.571H209.972C212.433 342.571 214.429 340.575 214.429 338.114V332.171C214.429 329.709 212.433 327.714 209.972 327.714Z" fill="#5375FF"/>
<path d="M210.19 331.953C210.061 331.824 209.879 331.772 209.702 331.814L209.699 331.814L203.866 333.242C203.305 333.379 202.914 333.877 202.914 334.454V335.224C202.914 335.505 203.136 335.734 203.414 335.746L205.609 336.119C205.655 336.127 205.702 336.112 205.736 336.079L208.322 333.493C208.412 333.402 208.559 333.402 208.65 333.493C208.741 333.584 208.741 333.731 208.65 333.821L206.064 336.407C206.031 336.441 206.016 336.488 206.023 336.534L206.397 338.729C206.409 339.006 206.638 339.228 206.919 339.228H207.689C208.265 339.228 208.764 338.837 208.901 338.278L210.328 332.444L210.329 332.441C210.37 332.264 210.318 332.082 210.19 331.953Z" fill="#FBFBFB"/>
</g>
<rect x="140" y="303" width="77" height="3" rx="1.5" fill="#B0AFAF"/>
<rect x="157" y="310" width="47" height="3" rx="1.5" fill="#B0AFAF"/>
<circle cx="154" cy="242" r="11" fill="#C4C4C4"/>
<rect x="170" y="235" width="41" height="3" rx="1.5" fill="#B0AFAF"/>
<rect x="170" y="241" width="33" height="1" rx="0.5" fill="#C4C4C4"/>
<rect x="138" y="267" width="82" height="14" rx="2" fill="#E5ECFE"/>
<rect x="138" y="267" width="53" height="14" rx="2" fill="url(#paint4_linear)"/>
<g filter="url(#filter10_d)">
<rect x="141" y="328" width="50" height="14" rx="2" fill="#5375FF"/>
</g>
<path d="M152.857 337.06C153.682 337.06 154.138 336.628 154.141 335.98C154.144 335.227 153.532 335.05 152.878 334.861C152.275 334.684 151.876 334.546 151.876 334.072C151.876 333.664 152.17 333.394 152.74 333.394C153.415 333.394 153.706 333.781 153.748 334.357L154.108 334.279C154.09 333.442 153.562 333.04 152.755 333.04C152.002 333.04 151.459 333.412 151.459 334.099C151.459 334.81 152.026 335.038 152.707 335.221C153.331 335.395 153.73 335.518 153.73 335.998C153.73 336.493 153.385 336.703 152.863 336.703C152.089 336.703 151.702 336.343 151.714 335.665L151.333 335.725C151.315 336.667 152.002 337.06 152.857 337.06ZM156.4 334.063C155.923 334.063 155.566 334.3 155.386 334.669V332.812H154.993V337H155.386V335.491C155.386 334.822 155.794 334.429 156.334 334.429C156.826 334.429 157.063 334.705 157.063 335.317V337H157.456V335.26C157.456 334.474 157.108 334.063 156.4 334.063ZM159.553 337.06C160.42 337.06 160.981 336.415 160.981 335.56C160.981 334.705 160.42 334.063 159.553 334.063C158.686 334.063 158.122 334.705 158.122 335.56C158.122 336.415 158.686 337.06 159.553 337.06ZM159.553 336.709C158.926 336.709 158.521 336.22 158.521 335.56C158.521 334.9 158.926 334.414 159.553 334.414C160.177 334.414 160.582 334.9 160.582 335.56C160.582 336.22 160.177 336.709 159.553 336.709ZM165.071 334.123L164.615 335.8C164.534 336.1 164.465 336.388 164.39 336.697C164.312 336.376 164.234 336.085 164.15 335.797L163.652 334.126H163.205L162.704 335.797C162.62 336.085 162.542 336.376 162.464 336.697C162.389 336.388 162.32 336.1 162.242 335.8L161.786 334.123H161.378L162.203 337H162.701L163.25 335.185C163.316 334.966 163.367 334.75 163.427 334.522C163.487 334.75 163.541 334.966 163.607 335.185L164.153 337H164.651L165.476 334.123H165.071ZM170.556 334.063C170.058 334.063 169.734 334.303 169.578 334.681C169.464 334.276 169.191 334.063 168.717 334.063C168.234 334.063 167.928 334.285 167.772 334.639L167.778 334.123H167.403V337H167.793V335.482C167.793 334.81 168.105 334.42 168.648 334.42C169.107 334.42 169.257 334.699 169.257 335.302V337H169.644V335.482C169.644 334.81 169.953 334.42 170.496 334.42C170.958 334.42 171.108 334.708 171.108 335.302V337H171.495V335.26C171.495 334.492 171.225 334.063 170.556 334.063ZM173.598 337.06C174.465 337.06 175.026 336.415 175.026 335.56C175.026 334.705 174.465 334.063 173.598 334.063C172.731 334.063 172.167 334.705 172.167 335.56C172.167 336.415 172.731 337.06 173.598 337.06ZM173.598 336.709C172.971 336.709 172.566 336.22 172.566 335.56C172.566 334.9 172.971 334.414 173.598 334.414C174.222 334.414 174.627 334.9 174.627 335.56C174.627 336.22 174.222 336.709 173.598 336.709ZM176.116 334.711L176.122 334.123H175.747V337H176.134V335.476C176.134 334.726 176.707 334.354 177.268 334.501L177.295 334.09C176.764 333.973 176.311 334.207 176.116 334.711ZM180.214 335.503C180.214 334.642 179.743 334.063 178.933 334.063C178.12 334.063 177.598 334.72 177.598 335.554C177.598 336.406 178.141 337.06 178.978 337.06C179.56 337.06 179.992 336.79 180.16 336.277L179.851 336.169C179.713 336.511 179.443 336.718 178.978 336.718C178.402 336.718 178.039 336.289 177.994 335.674H180.211C180.214 335.614 180.214 335.557 180.214 335.503ZM178.933 334.399C179.467 334.399 179.779 334.75 179.821 335.35H178.003C178.063 334.789 178.396 334.399 178.933 334.399Z" fill="white"/>
<path d="M147.804 272.1L146.745 274.791C146.643 275.055 146.574 275.253 146.496 275.481C146.418 275.25 146.331 275.007 146.247 274.791L145.188 272.1H144.567V276H144.96V273.294C144.96 273.03 144.957 272.793 144.954 272.535C145.041 272.796 145.131 273.042 145.239 273.312L146.316 276H146.676L147.753 273.312C147.858 273.045 147.948 272.802 148.038 272.529C148.035 272.802 148.032 273.036 148.032 273.294V276H148.425V272.1H147.804ZM151.911 275.697C151.698 275.697 151.668 275.541 151.668 275.388V274.236C151.668 273.684 151.482 273.063 150.534 273.063C149.925 273.063 149.532 273.333 149.37 273.876L149.724 273.993C149.85 273.6 150.072 273.402 150.537 273.402C151.113 273.402 151.281 273.762 151.281 274.233V274.443C151.062 274.416 150.843 274.401 150.642 274.401C149.88 274.401 149.295 274.599 149.295 275.223C149.295 275.751 149.7 276.06 150.282 276.06C150.756 276.06 151.122 275.847 151.311 275.541C151.335 275.856 151.47 276.03 151.83 276.03C151.914 276.03 151.992 276.021 152.079 276.003V275.682C152.019 275.694 151.968 275.697 151.911 275.697ZM150.33 275.718C149.985 275.718 149.718 275.565 149.718 275.214C149.718 274.836 150.081 274.713 150.654 274.713C150.852 274.713 151.062 274.725 151.281 274.749V275.226C151.089 275.532 150.741 275.718 150.33 275.718ZM154.262 275.571C154.142 275.652 154.019 275.691 153.857 275.691C153.5 275.691 153.338 275.496 153.338 275.064V273.456H154.328V273.123H153.338V272.187L152.948 272.241V273.123H152.327V273.456H152.948V275.109C152.948 275.763 153.284 276.045 153.812 276.045C154.043 276.045 154.226 275.988 154.394 275.88L154.262 275.571ZM156.164 276.06C156.794 276.06 157.268 275.757 157.412 275.112L157.064 275.04C156.941 275.463 156.662 275.712 156.167 275.712C155.525 275.712 155.171 275.214 155.171 274.56C155.171 273.909 155.525 273.411 156.167 273.411C156.662 273.411 156.941 273.66 157.064 274.083L157.412 274.011C157.268 273.366 156.794 273.063 156.164 273.063C155.303 273.063 154.772 273.714 154.772 274.56C154.772 275.406 155.303 276.06 156.164 276.06ZM159.583 273.063C159.106 273.063 158.749 273.3 158.569 273.669V271.812H158.176V276H158.569V274.491C158.569 273.822 158.977 273.429 159.517 273.429C160.009 273.429 160.246 273.705 160.246 274.317V276H160.639V274.26C160.639 273.474 160.291 273.063 159.583 273.063Z" fill="white"/>
<path d="M167.052 273.42C166.62 273.42 166.29 273.594 166.116 273.939C166.149 273.27 166.488 272.946 167.046 272.946C167.361 272.946 167.622 273.018 167.865 273.168L168.177 272.34C167.859 272.148 167.46 272.046 167.031 272.046C165.771 272.046 165.165 272.907 165.165 274.185C165.165 275.382 165.72 276.054 166.743 276.054C167.688 276.054 168.279 275.472 168.279 274.671C168.279 273.963 167.814 273.42 167.052 273.42ZM166.728 275.196C166.302 275.196 166.161 274.905 166.167 274.533C166.299 274.35 166.518 274.26 166.752 274.26C167.061 274.26 167.277 274.419 167.277 274.719C167.277 275.019 167.058 275.196 166.728 275.196ZM170.243 276.054C171.365 276.054 171.905 275.349 171.905 274.05C171.905 272.748 171.335 272.046 170.243 272.046C169.151 272.046 168.581 272.748 168.581 274.05C168.581 275.349 169.121 276.054 170.243 276.054ZM170.243 275.208C169.805 275.208 169.604 274.767 169.604 274.05C169.604 273.333 169.805 272.892 170.243 272.892C170.681 272.892 170.882 273.333 170.882 274.05C170.882 274.767 170.681 275.208 170.243 275.208ZM173.2 274.008C173.788 274.008 174.172 273.6 174.172 273.03C174.172 272.454 173.788 272.046 173.2 272.046C172.612 272.046 172.222 272.454 172.222 273.03C172.222 273.6 172.612 274.008 173.2 274.008ZM172.606 276H173.47L176.026 272.1H175.162L172.606 276ZM173.2 273.33C173.038 273.33 172.942 273.216 172.942 273.03C172.942 272.838 173.038 272.718 173.2 272.718C173.356 272.718 173.452 272.838 173.452 273.03C173.452 273.216 173.356 273.33 173.2 273.33ZM175.426 276.054C176.014 276.054 176.404 275.646 176.404 275.07C176.404 274.5 176.014 274.092 175.426 274.092C174.838 274.092 174.454 274.5 174.454 275.07C174.454 275.646 174.838 276.054 175.426 276.054ZM175.426 275.382C175.27 275.382 175.174 275.262 175.174 275.07C175.174 274.884 175.27 274.77 175.426 274.77C175.588 274.77 175.678 274.884 175.678 275.07C175.678 275.262 175.588 275.382 175.426 275.382Z" fill="white"/>
<rect x="138.2" y="289.2" width="22.6" height="5.6" rx="2.8" stroke="#5375FF" stroke-width="0.4"/>
<rect x="166.2" y="289.2" width="18.6" height="5.6" rx="2.8" stroke="#5375FF" stroke-width="0.4"/>
<rect x="194.2" y="289.2" width="9.6" height="5.6" rx="2.8" stroke="#5375FF" stroke-width="0.4"/>
<rect x="264" y="226" width="95" height="132" rx="15" fill="#E7E7E7"/>
<g clip-path="url(#clip6)">
<g filter="url(#filter11_d)">
<path d="M342.972 336.714H337.029C334.567 336.714 332.572 338.709 332.572 341.171V347.114C332.572 349.575 334.567 351.571 337.029 351.571H342.972C345.433 351.571 347.429 349.575 347.429 347.114V341.171C347.429 338.709 345.433 336.714 342.972 336.714Z" fill="black"/>
</g>
<path d="M342.972 336.714H337.029C334.567 336.714 332.572 338.709 332.572 341.171V347.114C332.572 349.575 334.567 351.571 337.029 351.571H342.972C345.433 351.571 347.429 349.575 347.429 347.114V341.171C347.429 338.709 345.433 336.714 342.972 336.714Z" fill="#5375FF"/>
<path d="M343.19 340.953C343.061 340.824 342.879 340.772 342.702 340.814L342.699 340.814L336.866 342.242C336.305 342.379 335.914 342.877 335.914 343.454V344.224C335.914 344.505 336.136 344.734 336.414 344.746L338.609 345.119C338.655 345.127 338.702 345.112 338.736 345.079L341.322 342.493C341.412 342.402 341.559 342.402 341.65 342.493C341.741 342.584 341.741 342.731 341.65 342.821L339.064 345.407C339.031 345.441 339.016 345.488 339.023 345.534L339.397 347.729C339.409 348.006 339.638 348.228 339.919 348.228H340.689C341.265 348.228 341.764 347.837 341.901 347.278L343.328 341.444L343.329 341.441C343.37 341.264 343.318 341.082 343.19 340.953Z" fill="#FBFBFB"/>
</g>
<rect x="273" y="312" width="77" height="3" rx="1.5" fill="#B0AFAF"/>
<rect x="290" y="319" width="47" height="3" rx="1.5" fill="#B0AFAF"/>
<circle cx="287" cy="251" r="11" fill="#C4C4C4"/>
<rect x="303" y="244" width="41" height="3" rx="1.5" fill="#B0AFAF"/>
<rect x="303" y="250" width="33" height="1" rx="0.5" fill="#C4C4C4"/>
<rect x="271" y="276" width="82" height="14" rx="2" fill="#E5ECFE"/>
<rect x="271" y="276" width="73" height="14" rx="2" fill="url(#paint5_linear)"/>
<g filter="url(#filter12_d)">
<rect x="274" y="337" width="50" height="14" rx="2" fill="#5375FF"/>
</g>
<path d="M280.804 281.1L279.745 283.791C279.643 284.055 279.574 284.253 279.496 284.481C279.418 284.25 279.331 284.007 279.247 283.791L278.188 281.1H277.567V285H277.96V282.294C277.96 282.03 277.957 281.793 277.954 281.535C278.041 281.796 278.131 282.042 278.239 282.312L279.316 285H279.676L280.753 282.312C280.858 282.045 280.948 281.802 281.038 281.529C281.035 281.802 281.032 282.036 281.032 282.294V285H281.425V281.1H280.804ZM284.911 284.697C284.698 284.697 284.668 284.541 284.668 284.388V283.236C284.668 282.684 284.482 282.063 283.534 282.063C282.925 282.063 282.532 282.333 282.37 282.876L282.724 282.993C282.85 282.6 283.072 282.402 283.537 282.402C284.113 282.402 284.281 282.762 284.281 283.233V283.443C284.062 283.416 283.843 283.401 283.642 283.401C282.88 283.401 282.295 283.599 282.295 284.223C282.295 284.751 282.7 285.06 283.282 285.06C283.756 285.06 284.122 284.847 284.311 284.541C284.335 284.856 284.47 285.03 284.83 285.03C284.914 285.03 284.992 285.021 285.079 285.003V284.682C285.019 284.694 284.968 284.697 284.911 284.697ZM283.33 284.718C282.985 284.718 282.718 284.565 282.718 284.214C282.718 283.836 283.081 283.713 283.654 283.713C283.852 283.713 284.062 283.725 284.281 283.749V284.226C284.089 284.532 283.741 284.718 283.33 284.718ZM287.262 284.571C287.142 284.652 287.019 284.691 286.857 284.691C286.5 284.691 286.338 284.496 286.338 284.064V282.456H287.328V282.123H286.338V281.187L285.948 281.241V282.123H285.327V282.456H285.948V284.109C285.948 284.763 286.284 285.045 286.812 285.045C287.043 285.045 287.226 284.988 287.394 284.88L287.262 284.571ZM289.164 285.06C289.794 285.06 290.268 284.757 290.412 284.112L290.064 284.04C289.941 284.463 289.662 284.712 289.167 284.712C288.525 284.712 288.171 284.214 288.171 283.56C288.171 282.909 288.525 282.411 289.167 282.411C289.662 282.411 289.941 282.66 290.064 283.083L290.412 283.011C290.268 282.366 289.794 282.063 289.164 282.063C288.303 282.063 287.772 282.714 287.772 283.56C287.772 284.406 288.303 285.06 289.164 285.06ZM292.583 282.063C292.106 282.063 291.749 282.3 291.569 282.669V280.812H291.176V285H291.569V283.491C291.569 282.822 291.977 282.429 292.517 282.429C293.009 282.429 293.246 282.705 293.246 283.317V285H293.639V283.26C293.639 282.474 293.291 282.063 292.583 282.063Z" fill="white"/>
<path d="M299.671 281.046C298.726 281.046 298.135 281.628 298.135 282.429C298.135 283.137 298.6 283.68 299.362 283.68C299.794 283.68 300.124 283.506 300.298 283.161C300.265 283.83 299.926 284.154 299.368 284.154C299.053 284.154 298.792 284.082 298.549 283.932L298.237 284.76C298.555 284.952 298.954 285.054 299.383 285.054C300.643 285.054 301.249 284.193 301.249 282.915C301.249 281.718 300.694 281.046 299.671 281.046ZM299.662 282.84C299.353 282.84 299.137 282.681 299.137 282.381C299.137 282.081 299.356 281.904 299.686 281.904C300.112 281.904 300.253 282.195 300.247 282.567C300.115 282.75 299.896 282.84 299.662 282.84ZM303.243 285.054C304.365 285.054 304.905 284.349 304.905 283.05C304.905 281.748 304.335 281.046 303.243 281.046C302.151 281.046 301.581 281.748 301.581 283.05C301.581 284.349 302.121 285.054 303.243 285.054ZM303.243 284.208C302.805 284.208 302.604 283.767 302.604 283.05C302.604 282.333 302.805 281.892 303.243 281.892C303.681 281.892 303.882 282.333 303.882 283.05C303.882 283.767 303.681 284.208 303.243 284.208ZM306.2 283.008C306.788 283.008 307.172 282.6 307.172 282.03C307.172 281.454 306.788 281.046 306.2 281.046C305.612 281.046 305.222 281.454 305.222 282.03C305.222 282.6 305.612 283.008 306.2 283.008ZM305.606 285H306.47L309.026 281.1H308.162L305.606 285ZM306.2 282.33C306.038 282.33 305.942 282.216 305.942 282.03C305.942 281.838 306.038 281.718 306.2 281.718C306.356 281.718 306.452 281.838 306.452 282.03C306.452 282.216 306.356 282.33 306.2 282.33ZM308.426 285.054C309.014 285.054 309.404 284.646 309.404 284.07C309.404 283.5 309.014 283.092 308.426 283.092C307.838 283.092 307.454 283.5 307.454 284.07C307.454 284.646 307.838 285.054 308.426 285.054ZM308.426 284.382C308.27 284.382 308.174 284.262 308.174 284.07C308.174 283.884 308.27 283.77 308.426 283.77C308.588 283.77 308.678 283.884 308.678 284.07C308.678 284.262 308.588 284.382 308.426 284.382Z" fill="white"/>
<rect x="271.2" y="298.2" width="22.6" height="5.6" rx="2.8" stroke="#5375FF" stroke-width="0.4"/>
<rect x="299.2" y="298.2" width="18.6" height="5.6" rx="2.8" stroke="#5375FF" stroke-width="0.4"/>
<rect x="327.2" y="298.2" width="9.6" height="5.6" rx="2.8" stroke="#5375FF" stroke-width="0.4"/>
<rect x="21" y="220" width="95" height="132" rx="15" fill="#E7E7E7"/>
<g clip-path="url(#clip7)">
<g filter="url(#filter13_d)">
<path d="M99.9714 330.714H94.0286C91.5669 330.714 89.5714 332.709 89.5714 335.171V341.114C89.5714 343.575 91.5669 345.571 94.0286 345.571H99.9714C102.433 345.571 104.429 343.575 104.429 341.114V335.171C104.429 332.709 102.433 330.714 99.9714 330.714Z" fill="black"/>
</g>
<path d="M99.9714 330.714H94.0286C91.5669 330.714 89.5714 332.709 89.5714 335.171V341.114C89.5714 343.575 91.5669 345.571 94.0286 345.571H99.9714C102.433 345.571 104.429 343.575 104.429 341.114V335.171C104.429 332.709 102.433 330.714 99.9714 330.714Z" fill="#5375FF"/>
<path d="M100.19 334.953C100.061 334.824 99.8786 334.772 99.7018 334.814L99.6992 334.814L93.8655 336.242C93.3054 336.379 92.9143 336.877 92.9143 337.454V338.224C92.9143 338.505 93.1364 338.734 93.4142 338.746L95.6086 339.119C95.6551 339.127 95.7022 339.112 95.7357 339.079L98.3216 336.493C98.4122 336.402 98.5593 336.402 98.6499 336.493C98.7405 336.584 98.7405 336.731 98.6499 336.821L96.064 339.407C96.0306 339.441 96.0157 339.488 96.0232 339.534L96.3968 341.729C96.4087 342.006 96.6382 342.228 96.9187 342.228H97.6886C98.2651 342.228 98.7636 341.837 98.9006 341.278L100.328 335.444L100.329 335.441C100.37 335.264 100.318 335.082 100.19 334.953Z" fill="#FBFBFB"/>
</g>
<rect x="30" y="306" width="77" height="3" rx="1.5" fill="#B0AFAF"/>
<rect x="47" y="313" width="47" height="3" rx="1.5" fill="#B0AFAF"/>
<circle cx="44" cy="245" r="11" fill="#C4C4C4"/>
<rect x="60" y="238" width="41" height="3" rx="1.5" fill="#B0AFAF"/>
<rect x="60" y="244" width="33" height="1" rx="0.5" fill="#C4C4C4"/>
<rect x="28" y="270" width="82" height="14" rx="2" fill="#E5ECFE"/>
<rect x="28" y="270" width="79" height="14" rx="2" fill="url(#paint6_linear)"/>
<g filter="url(#filter14_d)">
<rect x="31" y="331" width="50" height="14" rx="2" fill="#5375FF"/>
</g>
<path d="M42.857 340.06C43.682 340.06 44.138 339.628 44.141 338.98C44.144 338.227 43.532 338.05 42.878 337.861C42.275 337.684 41.876 337.546 41.876 337.072C41.876 336.664 42.17 336.394 42.74 336.394C43.415 336.394 43.706 336.781 43.748 337.357L44.108 337.279C44.09 336.442 43.562 336.04 42.755 336.04C42.002 336.04 41.459 336.412 41.459 337.099C41.459 337.81 42.026 338.038 42.707 338.221C43.331 338.395 43.73 338.518 43.73 338.998C43.73 339.493 43.385 339.703 42.863 339.703C42.089 339.703 41.702 339.343 41.714 338.665L41.333 338.725C41.315 339.667 42.002 340.06 42.857 340.06ZM46.3998 337.063C45.9228 337.063 45.5658 337.3 45.3858 337.669V335.812H44.9928V340H45.3858V338.491C45.3858 337.822 45.7938 337.429 46.3338 337.429C46.8258 337.429 47.0628 337.705 47.0628 338.317V340H47.4558V338.26C47.4558 337.474 47.1078 337.063 46.3998 337.063ZM49.5528 340.06C50.4198 340.06 50.9808 339.415 50.9808 338.56C50.9808 337.705 50.4198 337.063 49.5528 337.063C48.6858 337.063 48.1218 337.705 48.1218 338.56C48.1218 339.415 48.6858 340.06 49.5528 340.06ZM49.5528 339.709C48.9258 339.709 48.5208 339.22 48.5208 338.56C48.5208 337.9 48.9258 337.414 49.5528 337.414C50.1768 337.414 50.5818 337.9 50.5818 338.56C50.5818 339.22 50.1768 339.709 49.5528 339.709ZM55.0708 337.123L54.6148 338.8C54.5338 339.1 54.4648 339.388 54.3898 339.697C54.3118 339.376 54.2337 339.085 54.1498 338.797L53.6518 337.126H53.2048L52.7038 338.797C52.6198 339.085 52.5418 339.376 52.4638 339.697C52.3888 339.388 52.3198 339.1 52.2418 338.8L51.7858 337.123H51.3778L52.2028 340H52.7008L53.2498 338.185C53.3158 337.966 53.3668 337.75 53.4268 337.522C53.4868 337.75 53.5408 337.966 53.6068 338.185L54.1528 340H54.6508L55.4758 337.123H55.0708ZM60.5559 337.063C60.0579 337.063 59.7339 337.303 59.5779 337.681C59.4639 337.276 59.1909 337.063 58.7169 337.063C58.2339 337.063 57.9279 337.285 57.7719 337.639L57.7779 337.123H57.4029V340H57.7929V338.482C57.7929 337.81 58.1049 337.42 58.6479 337.42C59.1069 337.42 59.2569 337.699 59.2569 338.302V340H59.6439V338.482C59.6439 337.81 59.9529 337.42 60.4959 337.42C60.9579 337.42 61.1079 337.708 61.1079 338.302V340H61.4949V338.26C61.4949 337.492 61.2249 337.063 60.5559 337.063ZM63.5977 340.06C64.4647 340.06 65.0257 339.415 65.0257 338.56C65.0257 337.705 64.4647 337.063 63.5977 337.063C62.7307 337.063 62.1667 337.705 62.1667 338.56C62.1667 339.415 62.7307 340.06 63.5977 340.06ZM63.5977 339.709C62.9707 339.709 62.5657 339.22 62.5657 338.56C62.5657 337.9 62.9707 337.414 63.5977 337.414C64.2217 337.414 64.6267 337.9 64.6267 338.56C64.6267 339.22 64.2217 339.709 63.5977 339.709ZM66.1157 337.711L66.1217 337.123H65.7467V340H66.1337V338.476C66.1337 337.726 66.7067 337.354 67.2677 337.501L67.2947 337.09C66.7637 336.973 66.3107 337.207 66.1157 337.711ZM70.2143 338.503C70.2143 337.642 69.7433 337.063 68.9333 337.063C68.1203 337.063 67.5983 337.72 67.5983 338.554C67.5983 339.406 68.1413 340.06 68.9783 340.06C69.5603 340.06 69.9923 339.79 70.1603 339.277L69.8513 339.169C69.7133 339.511 69.4433 339.718 68.9783 339.718C68.4023 339.718 68.0393 339.289 67.9943 338.674H70.2113C70.2143 338.614 70.2143 338.557 70.2143 338.503ZM68.9333 337.399C69.4673 337.399 69.7793 337.75 69.8213 338.35H68.0033C68.0633 337.789 68.3963 337.399 68.9333 337.399Z" fill="white"/>
<path d="M37.804 275.1L36.745 277.791C36.643 278.055 36.574 278.253 36.496 278.481C36.418 278.25 36.331 278.007 36.247 277.791L35.188 275.1H34.567V279H34.96V276.294C34.96 276.03 34.957 275.793 34.954 275.535C35.041 275.796 35.131 276.042 35.239 276.312L36.316 279H36.676L37.753 276.312C37.858 276.045 37.948 275.802 38.038 275.529C38.035 275.802 38.032 276.036 38.032 276.294V279H38.425V275.1H37.804ZM41.9112 278.697C41.6982 278.697 41.6682 278.541 41.6682 278.388V277.236C41.6682 276.684 41.4822 276.063 40.5342 276.063C39.9252 276.063 39.5322 276.333 39.3702 276.876L39.7242 276.993C39.8502 276.6 40.0722 276.402 40.5372 276.402C41.1132 276.402 41.2812 276.762 41.2812 277.233V277.443C41.0622 277.416 40.8432 277.401 40.6422 277.401C39.8802 277.401 39.2952 277.599 39.2952 278.223C39.2952 278.751 39.7002 279.06 40.2822 279.06C40.7562 279.06 41.1222 278.847 41.3112 278.541C41.3352 278.856 41.4702 279.03 41.8302 279.03C41.9142 279.03 41.9922 279.021 42.0792 279.003V278.682C42.0192 278.694 41.9682 278.697 41.9112 278.697ZM40.3302 278.718C39.9852 278.718 39.7182 278.565 39.7182 278.214C39.7182 277.836 40.0812 277.713 40.6542 277.713C40.8522 277.713 41.0622 277.725 41.2812 277.749V278.226C41.0892 278.532 40.7412 278.718 40.3302 278.718ZM44.2615 278.571C44.1415 278.652 44.0185 278.691 43.8565 278.691C43.4995 278.691 43.3375 278.496 43.3375 278.064V276.456H44.3275V276.123H43.3375V275.187L42.9475 275.241V276.123H42.3265V276.456H42.9475V278.109C42.9475 278.763 43.2835 279.045 43.8115 279.045C44.0425 279.045 44.2255 278.988 44.3935 278.88L44.2615 278.571ZM46.1642 279.06C46.7942 279.06 47.2682 278.757 47.4122 278.112L47.0642 278.04C46.9412 278.463 46.6622 278.712 46.1672 278.712C45.5252 278.712 45.1712 278.214 45.1712 277.56C45.1712 276.909 45.5252 276.411 46.1672 276.411C46.6622 276.411 46.9412 276.66 47.0642 277.083L47.4122 277.011C47.2682 276.366 46.7942 276.063 46.1642 276.063C45.3032 276.063 44.7722 276.714 44.7722 277.56C44.7722 278.406 45.3032 279.06 46.1642 279.06ZM49.5834 276.063C49.1064 276.063 48.7494 276.3 48.5694 276.669V274.812H48.1764V279H48.5694V277.491C48.5694 276.822 48.9774 276.429 49.5174 276.429C50.0094 276.429 50.2464 276.705 50.2464 277.317V279H50.6394V277.26C50.6394 276.474 50.2914 276.063 49.5834 276.063Z" fill="white"/>
<path d="M56.671 275.046C55.726 275.046 55.135 275.628 55.135 276.429C55.135 277.137 55.6 277.68 56.362 277.68C56.794 277.68 57.124 277.506 57.298 277.161C57.265 277.83 56.926 278.154 56.368 278.154C56.053 278.154 55.792 278.082 55.549 277.932L55.237 278.76C55.555 278.952 55.954 279.054 56.383 279.054C57.643 279.054 58.249 278.193 58.249 276.915C58.249 275.718 57.694 275.046 56.671 275.046ZM56.662 276.84C56.353 276.84 56.137 276.681 56.137 276.381C56.137 276.081 56.356 275.904 56.686 275.904C57.112 275.904 57.253 276.195 57.247 276.567C57.115 276.75 56.896 276.84 56.662 276.84ZM60.999 276.957C61.392 276.795 61.614 276.501 61.614 276.117C61.614 275.451 61.014 275.046 60.159 275.046C59.304 275.046 58.704 275.451 58.704 276.117C58.704 276.501 58.926 276.795 59.319 276.957C58.848 277.125 58.59 277.455 58.59 277.902C58.59 278.595 59.268 279.054 60.159 279.054C61.05 279.054 61.728 278.595 61.728 277.902C61.728 277.455 61.47 277.125 60.999 276.957ZM60.159 275.796C60.456 275.796 60.603 275.961 60.603 276.189C60.603 276.444 60.435 276.6 60.159 276.6C59.883 276.6 59.715 276.444 59.715 276.189C59.715 275.961 59.862 275.796 60.159 275.796ZM60.159 278.298C59.82 278.298 59.613 278.094 59.613 277.806C59.613 277.506 59.814 277.32 60.159 277.32C60.504 277.32 60.705 277.506 60.705 277.806C60.705 278.094 60.498 278.298 60.159 278.298ZM63.0303 277.008C63.6183 277.008 64.0023 276.6 64.0023 276.03C64.0023 275.454 63.6183 275.046 63.0303 275.046C62.4423 275.046 62.0523 275.454 62.0523 276.03C62.0523 276.6 62.4423 277.008 63.0303 277.008ZM62.4363 279H63.3003L65.8563 275.1H64.9923L62.4363 279ZM63.0303 276.33C62.8683 276.33 62.7723 276.216 62.7723 276.03C62.7723 275.838 62.8683 275.718 63.0303 275.718C63.1863 275.718 63.2823 275.838 63.2823 276.03C63.2823 276.216 63.1863 276.33 63.0303 276.33ZM65.2563 279.054C65.8443 279.054 66.2343 278.646 66.2343 278.07C66.2343 277.5 65.8443 277.092 65.2563 277.092C64.6683 277.092 64.2843 277.5 64.2843 278.07C64.2843 278.646 64.6683 279.054 65.2563 279.054ZM65.2563 278.382C65.1003 278.382 65.0043 278.262 65.0043 278.07C65.0043 277.884 65.1003 277.77 65.2563 277.77C65.4183 277.77 65.5083 277.884 65.5083 278.07C65.5083 278.262 65.4183 278.382 65.2563 278.382Z" fill="white"/>
<rect x="28.2" y="292.2" width="22.6" height="5.6" rx="2.8" stroke="#5375FF" stroke-width="0.4"/>
<rect x="56.2" y="292.2" width="18.6" height="5.6" rx="2.8" stroke="#5375FF" stroke-width="0.4"/>
<rect x="84.2" y="292.2" width="9.6" height="5.6" rx="2.8" stroke="#5375FF" stroke-width="0.4"/>
<g filter="url(#filter15_d)">
<rect x="166" y="209" width="280" height="223" rx="40" fill="white"/>
<rect x="166.5" y="209.5" width="279" height="222" rx="39.5" stroke="#D0D0D0"/>
</g>
<circle cx="198.72" cy="243.72" r="12.72" fill="#C4C4C4"/>
<path d="M189.497 385H200.471" stroke="black"/>
<path d="M302.379 272.808H300.762V266.823H299.026L295.022 272.885L295.218 273.781L299.6 273.774V276H300.762V273.767H302.379V272.808ZM296.345 272.808L298.284 269.91C298.725 269.238 299.166 268.58 299.642 267.733C299.6 268.503 299.6 269.301 299.6 270.183V272.808H296.345ZM304.637 270.974C305.12 270.974 305.526 270.575 305.526 270.085C305.526 269.595 305.12 269.196 304.637 269.196C304.147 269.196 303.734 269.595 303.734 270.085C303.734 270.575 304.147 270.974 304.637 270.974ZM304.637 276.14C305.12 276.14 305.526 275.741 305.526 275.251C305.526 274.768 305.12 274.369 304.637 274.369C304.147 274.369 303.734 274.768 303.734 275.251C303.734 275.741 304.147 276.14 304.637 276.14ZM310.968 270.176C310.163 270.176 309.519 270.372 308.896 270.876L309.106 267.929H313.418V266.9H308.091L307.783 271.478L308.735 272.052C309.414 271.408 309.967 271.184 310.73 271.184C311.997 271.184 312.634 271.968 312.634 273.144C312.627 274.439 311.815 275.104 310.555 275.104C309.512 275.104 308.588 274.558 308.336 273.424L307.216 273.641C307.566 275.272 308.819 276.14 310.534 276.14C312.48 276.14 313.88 275.006 313.88 273.137C313.88 271.331 312.83 270.176 310.968 270.176ZM319.24 270.176C318.435 270.176 317.791 270.372 317.168 270.876L317.378 267.929H321.69V266.9H316.363L316.055 271.478L317.007 272.052C317.686 271.408 318.239 271.184 319.002 271.184C320.269 271.184 320.906 271.968 320.906 273.144C320.899 274.439 320.087 275.104 318.827 275.104C317.784 275.104 316.86 274.558 316.608 273.424L315.488 273.641C315.838 275.272 317.091 276.14 318.806 276.14C320.752 276.14 322.152 275.006 322.152 273.137C322.152 271.331 321.102 270.176 319.24 270.176ZM327.574 269.112C326.412 269.112 325.593 269.588 325.152 270.491L325.138 269.245H324.053V278.73H325.194V274.782C325.649 275.65 326.44 276.14 327.574 276.14C329.534 276.14 330.64 274.691 330.64 272.612C330.64 270.547 329.534 269.112 327.574 269.112ZM327.378 275.125C326.006 275.125 325.152 274.047 325.152 272.612C325.152 271.184 326.006 270.134 327.378 270.134C328.771 270.134 329.471 271.156 329.471 272.612C329.471 274.075 328.771 275.125 327.378 275.125ZM339.636 269.105C338.516 269.105 337.788 269.623 337.417 270.47C337.137 269.574 336.486 269.105 335.394 269.105C334.316 269.105 333.623 269.581 333.245 270.358L333.252 269.245H332.188V276H333.308V272.486C333.308 270.981 333.98 270.127 335.149 270.127C336.136 270.127 336.479 270.729 336.479 272.017V276H337.592V272.486C337.592 270.981 338.257 270.127 339.426 270.127C340.413 270.127 340.756 270.75 340.756 272.017V276H341.869V271.849C341.869 270.113 341.204 269.105 339.636 269.105Z" fill="#5A5A5A"/>
<rect x="207.696" y="331.714" width="23.5731" height="65.0292" rx="5" fill="#5375FF"/>
<rect x="238.585" y="317.082" width="23.5731" height="79.6608" rx="5" fill="#5375FF"/>
<rect x="269.474" y="364.229" width="23.5731" height="32.5146" rx="5" fill="#5375FF"/>
<rect x="300.363" y="339.842" width="23.5731" height="56.9006" rx="5" fill="#5375FF"/>
<rect x="331.251" y="324.397" width="23.5731" height="72.345" rx="5" fill="#5375FF"/>
<rect x="362.14" y="384.55" width="23.5731" height="12.193" rx="5" fill="#5375FF"/>
<rect x="393.029" y="305.702" width="23.5731" height="91.0409" rx="5" fill="#5375FF"/>
<path d="M189 393.491H199.974" stroke="black"/>
<path d="M189 377.234H199.974" stroke="black"/>
<path d="M189 369.105H199.974" stroke="black"/>
<path d="M189 360.977H199.974" stroke="black"/>
<path d="M189 350.409H199.974" stroke="black"/>
<path d="M189 342.28H199.974" stroke="black"/>
<path d="M189 334.152H199.974" stroke="black"/>
<path d="M189 326.836H199.974" stroke="black"/>
<path d="M189 319.521H199.974" stroke="black"/>
<defs>
<filter id="filter0_d" x="0" y="0" width="354.343" height="378" filterUnits="userSpaceOnUse" color-interpolation-filters="sRGB">
<feFlood flood-opacity="0" result="BackgroundImageFix"/>
<feColorMatrix in="SourceAlpha" type="matrix" values="0 0 0 0 0 0 0 0 0 0 0 0 0 0 0 0 0 0 127 0"/>
<feOffset dy="4"/>
<feGaussianBlur stdDeviation="2"/>
<feColorMatrix type="matrix" values="0 0 0 0 0 0 0 0 0 0 0 0 0 0 0 0 0 0 0.25 0"/>
<feBlend mode="normal" in2="BackgroundImageFix" result="effect1_dropShadow"/>
<feBlend mode="normal" in="SourceGraphic" in2="effect1_dropShadow" result="shape"/>
</filter>
<filter id="filter1_d" x="71.8885" y="163.769" width="44.0592" height="44.0592" filterUnits="userSpaceOnUse" color-interpolation-filters="sRGB">
<feFlood flood-opacity="0" result="BackgroundImageFix"/>
<feColorMatrix in="SourceAlpha" type="matrix" values="0 0 0 0 0 0 0 0 0 0 0 0 0 0 0 0 0 0 127 0"/>
<feOffset dy="5"/>
<feGaussianBlur stdDeviation="7.5"/>
<feColorMatrix type="matrix" values="0 0 0 0 0.0470588 0 0 0 0 0.0666667 0 0 0 0 0.109804 0 0 0 0.151825 0"/>
<feBlend mode="normal" in2="BackgroundImageFix" result="effect1_dropShadow"/>
<feBlend mode="normal" in="SourceGraphic" in2="effect1_dropShadow" result="shape"/>
</filter>
<filter id="filter2_d" x="27.4629" y="172.039" width="55.3146" height="21.2481" filterUnits="userSpaceOnUse" color-interpolation-filters="sRGB">
<feFlood flood-opacity="0" result="BackgroundImageFix"/>
<feColorMatrix in="SourceAlpha" type="matrix" values="0 0 0 0 0 0 0 0 0 0 0 0 0 0 0 0 0 0 127 0"/>
<feOffset dy="2"/>
<feGaussianBlur stdDeviation="2"/>
<feColorMatrix type="matrix" values="0 0 0 0 0 0 0 0 0 0 0 0 0 0 0 0 0 0 0.25 0"/>
<feBlend mode="normal" in2="BackgroundImageFix" result="effect1_dropShadow"/>
<feBlend mode="normal" in="SourceGraphic" in2="effect1_dropShadow" result="shape"/>
</filter>
<filter id="filter3_d" x="291.408" y="316.2" width="44.0592" height="44.0592" filterUnits="userSpaceOnUse" color-interpolation-filters="sRGB">
<feFlood flood-opacity="0" result="BackgroundImageFix"/>
<feColorMatrix in="SourceAlpha" type="matrix" values="0 0 0 0 0 0 0 0 0 0 0 0 0 0 0 0 0 0 127 0"/>
<feOffset dy="5"/>
<feGaussianBlur stdDeviation="7.5"/>
<feColorMatrix type="matrix" values="0 0 0 0 0.0470588 0 0 0 0 0.0666667 0 0 0 0 0.109804 0 0 0 0.151825 0"/>
<feBlend mode="normal" in2="BackgroundImageFix" result="effect1_dropShadow"/>
<feBlend mode="normal" in="SourceGraphic" in2="effect1_dropShadow" result="shape"/>
</filter>
<filter id="filter4_d" x="246.982" y="324.471" width="55.3146" height="21.2481" filterUnits="userSpaceOnUse" color-interpolation-filters="sRGB">
<feFlood flood-opacity="0" result="BackgroundImageFix"/>
<feColorMatrix in="SourceAlpha" type="matrix" values="0 0 0 0 0 0 0 0 0 0 0 0 0 0 0 0 0 0 127 0"/>
<feOffset dy="2"/>
<feGaussianBlur stdDeviation="2"/>
<feColorMatrix type="matrix" values="0 0 0 0 0 0 0 0 0 0 0 0 0 0 0 0 0 0 0.25 0"/>
<feBlend mode="normal" in2="BackgroundImageFix" result="effect1_dropShadow"/>
<feBlend mode="normal" in="SourceGraphic" in2="effect1_dropShadow" result="shape"/>
</filter>
<filter id="filter5_d" x="184.572" y="166.714" width="44.8571" height="44.8571" filterUnits="userSpaceOnUse" color-interpolation-filters="sRGB">
<feFlood flood-opacity="0" result="BackgroundImageFix"/>
<feColorMatrix in="SourceAlpha" type="matrix" values="0 0 0 0 0 0 0 0 0 0 0 0 0 0 0 0 0 0 127 0"/>
<feOffset dy="5"/>
<feGaussianBlur stdDeviation="7.5"/>
<feColorMatrix type="matrix" values="0 0 0 0 0.0470588 0 0 0 0 0.0666667 0 0 0 0 0.109804 0 0 0 0.151825 0"/>
<feBlend mode="normal" in2="BackgroundImageFix" result="effect1_dropShadow"/>
<feBlend mode="normal" in="SourceGraphic" in2="effect1_dropShadow" result="shape"/>
</filter>
<filter id="filter6_d" x="137" y="175" width="58" height="22" filterUnits="userSpaceOnUse" color-interpolation-filters="sRGB">
<feFlood flood-opacity="0" result="BackgroundImageFix"/>
<feColorMatrix in="SourceAlpha" type="matrix" values="0 0 0 0 0 0 0 0 0 0 0 0 0 0 0 0 0 0 127 0"/>
<feOffset dy="2"/>
<feGaussianBlur stdDeviation="2"/>
<feColorMatrix type="matrix" values="0 0 0 0 0 0 0 0 0 0 0 0 0 0 0 0 0 0 0.25 0"/>
<feBlend mode="normal" in2="BackgroundImageFix" result="effect1_dropShadow"/>
<feBlend mode="normal" in="SourceGraphic" in2="effect1_dropShadow" result="shape"/>
</filter>
<filter id="filter7_d" x="293.572" y="166.714" width="44.8571" height="44.8571" filterUnits="userSpaceOnUse" color-interpolation-filters="sRGB">
<feFlood flood-opacity="0" result="BackgroundImageFix"/>
<feColorMatrix in="SourceAlpha" type="matrix" values="0 0 0 0 0 0 0 0 0 0 0 0 0 0 0 0 0 0 127 0"/>
<feOffset dy="5"/>
<feGaussianBlur stdDeviation="7.5"/>
<feColorMatrix type="matrix" values="0 0 0 0 0.0470588 0 0 0 0 0.0666667 0 0 0 0 0.109804 0 0 0 0.151825 0"/>
<feBlend mode="normal" in2="BackgroundImageFix" result="effect1_dropShadow"/>
<feBlend mode="normal" in="SourceGraphic" in2="effect1_dropShadow" result="shape"/>
</filter>
<filter id="filter8_d" x="246" y="175" width="58" height="22" filterUnits="userSpaceOnUse" color-interpolation-filters="sRGB">
<feFlood flood-opacity="0" result="BackgroundImageFix"/>
<feColorMatrix in="SourceAlpha" type="matrix" values="0 0 0 0 0 0 0 0 0 0 0 0 0 0 0 0 0 0 127 0"/>
<feOffset dy="2"/>
<feGaussianBlur stdDeviation="2"/>
<feColorMatrix type="matrix" values="0 0 0 0 0 0 0 0 0 0 0 0 0 0 0 0 0 0 0.25 0"/>
<feBlend mode="normal" in2="BackgroundImageFix" result="effect1_dropShadow"/>
<feBlend mode="normal" in="SourceGraphic" in2="effect1_dropShadow" result="shape"/>
</filter>
<filter id="filter9_d" x="184.572" y="317.714" width="44.8571" height="44.8571" filterUnits="userSpaceOnUse" color-interpolation-filters="sRGB">
<feFlood flood-opacity="0" result="BackgroundImageFix"/>
<feColorMatrix in="SourceAlpha" type="matrix" values="0 0 0 0 0 0 0 0 0 0 0 0 0 0 0 0 0 0 127 0"/>
<feOffset dy="5"/>
<feGaussianBlur stdDeviation="7.5"/>
<feColorMatrix type="matrix" values="0 0 0 0 0.0470588 0 0 0 0 0.0666667 0 0 0 0 0.109804 0 0 0 0.151825 0"/>
<feBlend mode="normal" in2="BackgroundImageFix" result="effect1_dropShadow"/>
<feBlend mode="normal" in="SourceGraphic" in2="effect1_dropShadow" result="shape"/>
</filter>
<filter id="filter10_d" x="137" y="326" width="58" height="22" filterUnits="userSpaceOnUse" color-interpolation-filters="sRGB">
<feFlood flood-opacity="0" result="BackgroundImageFix"/>
<feColorMatrix in="SourceAlpha" type="matrix" values="0 0 0 0 0 0 0 0 0 0 0 0 0 0 0 0 0 0 127 0"/>
<feOffset dy="2"/>
<feGaussianBlur stdDeviation="2"/>
<feColorMatrix type="matrix" values="0 0 0 0 0 0 0 0 0 0 0 0 0 0 0 0 0 0 0.25 0"/>
<feBlend mode="normal" in2="BackgroundImageFix" result="effect1_dropShadow"/>
<feBlend mode="normal" in="SourceGraphic" in2="effect1_dropShadow" result="shape"/>
</filter>
<filter id="filter11_d" x="317.572" y="326.714" width="44.8571" height="44.8571" filterUnits="userSpaceOnUse" color-interpolation-filters="sRGB">
<feFlood flood-opacity="0" result="BackgroundImageFix"/>
<feColorMatrix in="SourceAlpha" type="matrix" values="0 0 0 0 0 0 0 0 0 0 0 0 0 0 0 0 0 0 127 0"/>
<feOffset dy="5"/>
<feGaussianBlur stdDeviation="7.5"/>
<feColorMatrix type="matrix" values="0 0 0 0 0.0470588 0 0 0 0 0.0666667 0 0 0 0 0.109804 0 0 0 0.151825 0"/>
<feBlend mode="normal" in2="BackgroundImageFix" result="effect1_dropShadow"/>
<feBlend mode="normal" in="SourceGraphic" in2="effect1_dropShadow" result="shape"/>
</filter>
<filter id="filter12_d" x="270" y="335" width="58" height="22" filterUnits="userSpaceOnUse" color-interpolation-filters="sRGB">
<feFlood flood-opacity="0" result="BackgroundImageFix"/>
<feColorMatrix in="SourceAlpha" type="matrix" values="0 0 0 0 0 0 0 0 0 0 0 0 0 0 0 0 0 0 127 0"/>
<feOffset dy="2"/>
<feGaussianBlur stdDeviation="2"/>
<feColorMatrix type="matrix" values="0 0 0 0 0 0 0 0 0 0 0 0 0 0 0 0 0 0 0.25 0"/>
<feBlend mode="normal" in2="BackgroundImageFix" result="effect1_dropShadow"/>
<feBlend mode="normal" in="SourceGraphic" in2="effect1_dropShadow" result="shape"/>
</filter>
<filter id="filter13_d" x="74.5714" y="320.714" width="44.8571" height="44.8571" filterUnits="userSpaceOnUse" color-interpolation-filters="sRGB">
<feFlood flood-opacity="0" result="BackgroundImageFix"/>
<feColorMatrix in="SourceAlpha" type="matrix" values="0 0 0 0 0 0 0 0 0 0 0 0 0 0 0 0 0 0 127 0"/>
<feOffset dy="5"/>
<feGaussianBlur stdDeviation="7.5"/>
<feColorMatrix type="matrix" values="0 0 0 0 0.0470588 0 0 0 0 0.0666667 0 0 0 0 0.109804 0 0 0 0.151825 0"/>
<feBlend mode="normal" in2="BackgroundImageFix" result="effect1_dropShadow"/>
<feBlend mode="normal" in="SourceGraphic" in2="effect1_dropShadow" result="shape"/>
</filter>
<filter id="filter14_d" x="27" y="329" width="58" height="22" filterUnits="userSpaceOnUse" color-interpolation-filters="sRGB">
<feFlood flood-opacity="0" result="BackgroundImageFix"/>
<feColorMatrix in="SourceAlpha" type="matrix" values="0 0 0 0 0 0 0 0 0 0 0 0 0 0 0 0 0 0 127 0"/>
<feOffset dy="2"/>
<feGaussianBlur stdDeviation="2"/>
<feColorMatrix type="matrix" values="0 0 0 0 0 0 0 0 0 0 0 0 0 0 0 0 0 0 0.25 0"/>
<feBlend mode="normal" in2="BackgroundImageFix" result="effect1_dropShadow"/>
<feBlend mode="normal" in="SourceGraphic" in2="effect1_dropShadow" result="shape"/>
</filter>
<filter id="filter15_d" x="162" y="209" width="288" height="231" filterUnits="userSpaceOnUse" color-interpolation-filters="sRGB">
<feFlood flood-opacity="0" result="BackgroundImageFix"/>
<feColorMatrix in="SourceAlpha" type="matrix" values="0 0 0 0 0 0 0 0 0 0 0 0 0 0 0 0 0 0 127 0"/>
<feOffset dy="4"/>
<feGaussianBlur stdDeviation="2"/>
<feColorMatrix type="matrix" values="0 0 0 0 0 0 0 0 0 0 0 0 0 0 0 0 0 0 0.25 0"/>
<feBlend mode="normal" in2="BackgroundImageFix" result="effect1_dropShadow"/>
<feBlend mode="normal" in="SourceGraphic" in2="effect1_dropShadow" result="shape"/>
</filter>
<linearGradient id="paint0_linear" x1="95.8107" y1="122.938" x2="31.4629" y2="122.938" gradientUnits="userSpaceOnUse">
<stop stop-color="#7C9EF8"/>
<stop offset="1" stop-color="#6A78F7"/>
</linearGradient>
<linearGradient id="paint1_linear" x1="315.33" y1="275.371" x2="250.982" y2="275.371" gradientUnits="userSpaceOnUse">
<stop stop-color="#7C9EF8"/>
<stop offset="1" stop-color="#6A78F7"/>
</linearGradient>
<linearGradient id="paint2_linear" x1="191" y1="123" x2="140.239" y2="123" gradientUnits="userSpaceOnUse">
<stop stop-color="#7C9EF8"/>
<stop offset="1" stop-color="#6A78F7"/>
</linearGradient>
<linearGradient id="paint3_linear" x1="292" y1="123" x2="248.901" y2="123" gradientUnits="userSpaceOnUse">
<stop stop-color="#7C9EF8"/>
<stop offset="1" stop-color="#6A78F7"/>
</linearGradient>
<linearGradient id="paint4_linear" x1="191" y1="274" x2="140.239" y2="274" gradientUnits="userSpaceOnUse">
<stop stop-color="#7C9EF8"/>
<stop offset="1" stop-color="#6A78F7"/>
</linearGradient>
<linearGradient id="paint5_linear" x1="344" y1="283" x2="274.085" y2="283" gradientUnits="userSpaceOnUse">
<stop stop-color="#7C9EF8"/>
<stop offset="1" stop-color="#6A78F7"/>
</linearGradient>
<linearGradient id="paint6_linear" x1="107" y1="277" x2="31.338" y2="277" gradientUnits="userSpaceOnUse">
<stop stop-color="#7C9EF8"/>
<stop offset="1" stop-color="#6A78F7"/>
</linearGradient>
<clipPath id="clip0">
<rect width="21.7647" height="21.7647" fill="white" transform="translate(28.6036 23.1846)"/>
</clipPath>
<clipPath id="clip1">
<rect width="24.6036" height="24.6036" fill="white" transform="translate(81.6163 170.254)"/>
</clipPath>
<clipPath id="clip2">
<rect width="24.6036" height="24.6036" fill="white" transform="translate(301.136 322.686)"/>
</clipPath>
<clipPath id="clip3">
<rect width="26" height="26" fill="white" transform="translate(194 173)"/>
</clipPath>
<clipPath id="clip4">
<rect width="26" height="26" fill="white" transform="translate(303 173)"/>
</clipPath>
<clipPath id="clip5">
<rect width="26" height="26" fill="white" transform="translate(194 324)"/>
</clipPath>
<clipPath id="clip6">
<rect width="26" height="26" fill="white" transform="translate(327 333)"/>
</clipPath>
<clipPath id="clip7">
<rect width="26" height="26" fill="white" transform="translate(84 327)"/>
</clipPath>
</defs>
</svg>
