<svg width="459" height="362" viewBox="0 0 459 362" fill="none" xmlns="http://www.w3.org/2000/svg">
<g filter="url(#filter0_d)">
<rect x="4" width="451" height="354" rx="26" fill="#FAFAFA"/>
</g>
<path d="M227.126 202H232.922L225.164 178.6H217.226L209.486 202H215.264L216.74 197.194H225.65L227.126 202ZM217.91 193.378L221.204 182.614L224.48 193.378H217.91ZM248.248 184.288L248.212 187.42C247.204 185.152 245.314 183.928 242.38 183.928C237.592 183.928 234.46 187.474 234.46 192.892C234.46 198.346 237.592 201.91 242.38 201.91C245.278 201.91 247.168 200.632 248.176 198.346V200.524C248.176 203.872 246.106 205.258 243.208 205.258C240.904 205.258 238.708 204.358 237.088 202.702L234.82 206.032C236.998 208.156 239.644 209.146 243.064 209.146C248.752 209.146 252.46 206.23 252.46 200.668V184.288H248.248ZM243.424 197.77C240.796 197.77 239.302 195.862 239.302 192.892C239.302 189.976 240.796 188.122 243.424 188.122C246.088 188.122 247.834 190.03 247.834 192.892C247.834 195.808 246.088 197.77 243.424 197.77ZM272.546 192.874C272.546 187.42 269.378 183.928 264.176 183.928C258.848 183.928 255.464 187.87 255.464 193.144C255.464 198.526 258.722 202.342 264.32 202.342C268.424 202.342 271.412 200.398 272.222 196.582L268.154 195.952C267.704 197.572 266.462 198.382 264.302 198.382C262.034 198.382 260.63 197.032 260.252 194.458H272.456C272.528 193.846 272.546 193.36 272.546 192.874ZM264.176 187.834C266.192 187.834 267.596 189.022 267.794 191.416H260.288C260.702 189.076 262.106 187.834 264.176 187.834ZM285.607 183.928C282.637 183.928 280.747 185.368 279.865 187.78L279.829 184.27H275.545V202H280.369V193.468C280.369 190.084 281.935 188.446 284.239 188.446C286.255 188.446 287.137 189.58 287.137 192.01V202H291.961V190.66C291.961 186.646 290.089 183.928 285.607 183.928ZM303.803 202.342C308.213 202.342 311.471 200.362 312.299 195.43L307.709 194.962C307.295 197.086 305.963 198.202 303.857 198.202C301.157 198.202 299.681 196.168 299.681 193.126C299.681 190.102 301.157 188.068 303.857 188.068C305.963 188.068 307.295 189.184 307.709 191.29L312.299 190.84C311.471 185.908 308.213 183.928 303.803 183.928C298.187 183.928 294.839 187.78 294.839 193.126C294.839 198.49 298.187 202.342 303.803 202.342ZM326.082 184.27L323.31 194.89C322.968 196.204 322.662 197.446 322.374 198.616C322.068 197.392 321.744 196.078 321.42 194.854L318.63 184.27H313.176L318.972 202H321.042L320.898 202.45C320.124 204.772 318.108 205.348 314.166 204.34L313.338 208.48C318.666 209.794 323.616 208.678 325.596 202.45L331.536 184.27H326.082Z" fill="black"/>
<path d="M221.582 277.342C227.72 277.342 231.554 274.174 232.076 268.306L227 267.622C226.406 271.78 224.3 272.95 221.474 272.95C217.424 272.95 215.498 269.944 215.498 265.3C215.498 260.656 217.424 257.65 221.474 257.65C224.3 257.65 226.424 258.946 227 262.978L232.076 262.294C231.626 256.426 227.72 253.258 221.582 253.258C214.256 253.258 210.08 258.154 210.08 265.3C210.08 272.446 214.256 277.342 221.582 277.342ZM243.25 277.342C248.974 277.342 252.322 273.526 252.322 268.126C252.322 262.744 248.974 258.928 243.25 258.928C237.508 258.928 234.16 262.744 234.16 268.126C234.16 273.526 237.508 277.342 243.25 277.342ZM243.25 273.058C240.622 273.058 238.93 271.168 238.93 268.126C238.93 265.102 240.622 263.23 243.25 263.23C245.86 263.23 247.534 265.102 247.534 268.126C247.534 271.168 245.86 273.058 243.25 273.058ZM275.581 258.928C272.881 258.928 271.171 260.188 270.289 262.312C269.533 260.206 267.841 258.928 264.907 258.928C262.117 258.928 260.407 260.26 259.579 262.51L259.543 259.27H255.295V277H260.101V268.414C260.101 265.03 261.397 263.392 263.521 263.392C265.285 263.392 266.005 264.526 266.005 266.92V277H270.793V268.378L270.811 268.414C270.811 265.03 272.107 263.392 274.231 263.392C275.995 263.392 276.715 264.544 276.715 266.92V277H281.503V265.642C281.503 261.682 279.829 258.928 275.581 258.928ZM295.541 258.946C292.715 258.946 290.843 260.116 289.835 262.33L289.763 259.27H285.389V283.786H290.213V274.552C291.275 276.352 293.039 277.342 295.541 277.342C300.311 277.342 303.371 273.688 303.371 268.126C303.371 262.582 300.311 258.946 295.541 258.946ZM294.407 273.076C291.797 273.076 290.051 271.078 290.051 268.126C290.051 265.192 291.797 263.266 294.407 263.266C297.035 263.266 298.511 265.138 298.511 268.126C298.511 271.132 297.035 273.076 294.407 273.076ZM322.935 273.04C321.999 273.04 321.765 272.59 321.765 271.708V266.326C321.765 262.942 320.793 258.928 313.881 258.928C309.435 258.928 306.357 261.052 306.069 265.066L310.695 265.606C310.911 263.734 311.937 262.852 313.899 262.852C316.329 262.852 317.049 264.292 317.049 266.272V266.974C316.023 266.812 314.943 266.722 313.773 266.722C308.895 266.722 305.475 268.108 305.475 271.852C305.475 275.02 307.653 277.324 311.523 277.324C314.457 277.324 316.599 276.244 317.571 274.318C317.841 276.388 318.849 277.144 321.495 277.144C322.395 277.144 323.115 277.09 323.907 276.892V272.968C323.565 273.022 323.241 273.04 322.935 273.04ZM313.161 273.652C311.559 273.652 310.677 272.986 310.677 271.672C310.677 270.34 311.865 269.71 314.439 269.71C315.357 269.71 316.185 269.782 317.049 269.944V271.87C316.275 272.986 314.835 273.652 313.161 273.652ZM336.478 258.928C333.508 258.928 331.618 260.368 330.736 262.78L330.7 259.27H326.416V277H331.24V268.468C331.24 265.084 332.806 263.446 335.11 263.446C337.126 263.446 338.008 264.58 338.008 267.01V277H342.832V265.66C342.832 261.646 340.96 258.928 336.478 258.928ZM357.968 259.27L355.196 269.89C354.854 271.204 354.548 272.446 354.26 273.616C353.954 272.392 353.63 271.078 353.306 269.854L350.516 259.27H345.062L350.858 277H352.928L352.784 277.45C352.01 279.772 349.994 280.348 346.052 279.34L345.224 283.48C350.552 284.794 355.502 283.678 357.482 277.45L363.422 259.27H357.968Z" fill="black"/>
<rect x="111.5" y="175.5" width="31" height="30" stroke="#5375FF"/>
<rect x="111.5" y="250.5" width="31" height="30" stroke="#5375FF"/>
<g clip-path="url(#clip0)">
<path d="M109.996 248.216C110.033 248.216 110.106 248.216 110.143 248.216C110.624 248.236 110.957 248.031 111.105 247.805C111.586 247.086 110.291 246.552 109.108 246.758C108.627 246.84 108.109 247.066 108.035 247.353C107.739 248.442 108.553 249.571 109.071 250.598C109.7 251.871 110.439 253.144 111.068 254.438C112.363 257.005 113.657 259.572 114.841 262.16C117.245 267.314 119.094 272.572 120.907 277.808C121.388 279.184 125.308 279.472 126.418 278.199C131.855 271.956 137.07 265.651 142.988 259.552C145.466 257.005 148.055 254.5 151.125 252.179C152.605 251.07 154.232 250.043 155.971 249.078C157.857 248.051 160.15 247.271 162.037 246.244C160.15 245.649 158.301 245.033 156.414 244.437C156.23 244.786 155.971 245.115 155.712 245.464C154.602 247.004 158.708 248.154 160.594 247.045C161.075 246.778 161.519 246.491 162 246.244C164.367 245.053 161.889 242.404 158.745 243.123C153.714 244.273 149.646 246.963 146.391 249.325C143.062 251.748 140.325 254.377 137.736 257.067C131.707 263.412 126.307 269.943 121.129 276.515C122.978 276.638 124.79 276.782 126.64 276.905C124.495 271.771 121.942 266.719 119.353 261.646C118.059 259.141 116.727 256.656 115.322 254.171C114.582 252.898 113.842 251.625 113.065 250.372C112.696 249.797 112.326 249.242 111.919 248.688C111.697 248.298 111.105 247.723 111.105 247.435C110.883 247.641 110.661 247.867 110.439 248.072C110.513 248.051 110.55 248.031 110.624 248.01C110.291 248.031 109.996 248.051 109.663 248.072C109.552 248.01 109.441 247.969 109.33 247.908C109.33 247.723 109.33 247.538 109.33 247.353C109.293 247.374 109.256 247.394 109.256 247.415C108.738 247.784 109.404 248.175 109.996 248.216Z" fill="black"/>
</g>
<g filter="url(#filter1_d)">
<rect x="89" y="23" width="282" height="59" rx="13" fill="white"/>
</g>
<rect x="134" y="60" width="12" height="3" fill="#242424"/>
<rect x="125" y="51" width="27" height="3" fill="#242424"/>
<rect x="116" y="42" width="45" height="3" fill="#242424"/>
<path d="M208.258 65H211.354V54.596H221.488V52.058H211.354V44.264H222.604V41.6H208.258V65ZM228.109 44.3C229.315 44.3 230.287 43.364 230.287 42.212C230.287 41.06 229.315 40.16 228.109 40.16C226.993 40.16 226.021 41.06 226.021 42.212C226.021 43.364 226.993 44.3 228.109 44.3ZM226.687 65H229.621V47.63H226.687V65ZM235.158 65H238.092V39.872H235.158V65ZM253.424 62.012C252.686 62.444 251.966 62.642 251.012 62.642C248.942 62.642 248.06 61.508 248.06 59.114V50.078H253.802V47.63H248.06V42.032L245.144 42.464V47.63H241.562V50.078H245.144V59.474C245.144 63.416 247.16 65.252 250.598 65.252C252.002 65.252 253.136 64.946 254.198 64.37L253.424 62.012ZM272.271 55.982C272.271 50.762 269.373 47.27 264.441 47.27C259.455 47.27 256.269 51.212 256.269 56.288C256.269 61.472 259.509 65.36 264.711 65.36C268.329 65.36 270.993 63.686 271.947 60.428L269.589 59.762C268.833 61.706 267.321 62.858 264.693 62.858C261.525 62.858 259.545 60.626 259.221 57.224H272.235C272.271 56.792 272.271 56.378 272.271 55.982ZM264.423 49.718C267.357 49.718 269.103 51.608 269.355 54.902H259.239C259.635 51.788 261.507 49.718 264.423 49.718ZM279.097 51.14L279.115 47.63H276.361V65H279.205V56.198C279.205 51.752 282.607 49.7 285.937 50.492L286.009 47.414C282.859 46.73 280.249 48.188 279.097 51.14ZM295.726 65.36C299.902 65.36 302.206 63.362 302.206 60.266C302.206 56.882 299.668 56.036 295.762 55.172C292.99 54.542 291.496 54.038 291.496 52.22C291.496 50.69 292.594 49.61 295.042 49.61C297.526 49.61 299.272 50.816 299.434 53.498L302.008 53.156C301.918 49.592 299.596 47.27 295.024 47.27C291.19 47.27 288.67 49.196 288.652 52.4C288.652 55.496 290.83 56.702 295.168 57.62C297.724 58.16 299.308 58.556 299.308 60.482C299.308 62.21 298.03 63.02 295.654 63.02C292.918 63.02 290.938 61.994 290.74 59.096L288.058 59.456C288.346 63.56 291.388 65.36 295.726 65.36Z" fill="#252525"/>
<defs>
<filter id="filter0_d" x="0" y="0" width="459" height="362" filterUnits="userSpaceOnUse" color-interpolation-filters="sRGB">
<feFlood flood-opacity="0" result="BackgroundImageFix"/>
<feColorMatrix in="SourceAlpha" type="matrix" values="0 0 0 0 0 0 0 0 0 0 0 0 0 0 0 0 0 0 127 0"/>
<feOffset dy="4"/>
<feGaussianBlur stdDeviation="2"/>
<feColorMatrix type="matrix" values="0 0 0 0 0 0 0 0 0 0 0 0 0 0 0 0 0 0 0.25 0"/>
<feBlend mode="normal" in2="BackgroundImageFix" result="effect1_dropShadow"/>
<feBlend mode="normal" in="SourceGraphic" in2="effect1_dropShadow" result="shape"/>
</filter>
<filter id="filter1_d" x="85" y="23" width="290" height="67" filterUnits="userSpaceOnUse" color-interpolation-filters="sRGB">
<feFlood flood-opacity="0" result="BackgroundImageFix"/>
<feColorMatrix in="SourceAlpha" type="matrix" values="0 0 0 0 0 0 0 0 0 0 0 0 0 0 0 0 0 0 127 0"/>
<feOffset dy="4"/>
<feGaussianBlur stdDeviation="2"/>
<feColorMatrix type="matrix" values="0 0 0 0 0 0 0 0 0 0 0 0 0 0 0 0 0 0 0.25 0"/>
<feBlend mode="normal" in2="BackgroundImageFix" result="effect1_dropShadow"/>
<feBlend mode="normal" in="SourceGraphic" in2="effect1_dropShadow" result="shape"/>
</filter>
<clipPath id="clip0">
<rect width="55" height="36" fill="white" transform="translate(108 243)"/>
</clipPath>
</defs>
</svg>
