<svg width="361" height="290" viewBox="0 0 361 290" fill="none" xmlns="http://www.w3.org/2000/svg">
<rect x="127.55" y="21.4316" width="119.768" height="166.414" rx="15" fill="#E7E7E7"/>
<g clip-path="url(#clip0)">
<g filter="url(#filter0_d)">
<path d="M227.11 161.012H219.618C216.515 161.012 213.999 163.528 213.999 166.631V174.123C213.999 177.227 216.515 179.742 219.618 179.742H227.11C230.214 179.742 232.73 177.227 232.73 174.123V166.631C232.73 163.528 230.214 161.012 227.11 161.012Z" fill="black"/>
</g>
<path d="M227.11 161.012H219.618C216.515 161.012 213.999 163.528 213.999 166.631V174.123C213.999 177.227 216.515 179.742 219.618 179.742H227.11C230.214 179.742 232.73 177.227 232.73 174.123V166.631C232.73 163.528 230.214 161.012 227.11 161.012Z" fill="#5375FF"/>
<path d="M227.386 166.355C227.223 166.193 226.993 166.128 226.77 166.18L226.767 166.181L219.413 167.981C218.706 168.153 218.213 168.781 218.213 169.508V170.479C218.213 170.833 218.493 171.122 218.844 171.137L221.61 171.608C221.669 171.618 221.728 171.599 221.77 171.557L225.03 168.297C225.145 168.182 225.33 168.182 225.444 168.297C225.559 168.411 225.559 168.596 225.444 168.711L222.184 171.971C222.142 172.013 222.123 172.072 222.133 172.131L222.604 174.897C222.619 175.248 222.908 175.528 223.262 175.528H224.232C224.959 175.528 225.588 175.034 225.76 174.329L227.56 166.974L227.561 166.97C227.613 166.748 227.547 166.518 227.386 166.355Z" fill="#FBFBFB"/>
</g>
<rect x="138.896" y="129.854" width="97.075" height="3.78214" rx="1.89107" fill="#B0AFAF"/>
<rect x="160.329" y="138.678" width="59.2536" height="3.78214" rx="1.89107" fill="#B0AFAF"/>
<circle cx="156.547" cy="52.9499" r="13.8679" fill="#C4C4C4"/>
<rect x="176.718" y="44.125" width="51.6893" height="3.78214" rx="1.89107" fill="#B0AFAF"/>
<rect x="176.718" y="51.6895" width="41.6036" height="1.26071" rx="0.630357" fill="#C4C4C4"/>
<rect x="136.375" y="84.4668" width="103.379" height="17.65" rx="2" fill="#E5ECFE"/>
<rect x="136.375" y="84.4668" width="92.0321" height="17.65" rx="2" fill="url(#paint0_linear)"/>
<g filter="url(#filter1_d)">
<rect x="140.157" y="161.371" width="63.0357" height="17.65" rx="2" fill="#5375FF"/>
</g>
<path d="M147.743 90.35L146.684 93.041C146.582 93.305 146.513 93.503 146.435 93.731C146.357 93.5 146.27 93.257 146.186 93.041L145.127 90.35H144.506V94.25H144.899V91.544C144.899 91.28 144.896 91.043 144.893 90.785C144.98 91.046 145.07 91.292 145.178 91.562L146.255 94.25H146.615L147.692 91.562C147.797 91.295 147.887 91.052 147.977 90.779C147.974 91.052 147.971 91.286 147.971 91.544V94.25H148.364V90.35H147.743ZM151.851 93.947C151.638 93.947 151.608 93.791 151.608 93.638V92.486C151.608 91.934 151.422 91.313 150.474 91.313C149.865 91.313 149.472 91.583 149.31 92.126L149.664 92.243C149.79 91.85 150.012 91.652 150.477 91.652C151.053 91.652 151.221 92.012 151.221 92.483V92.693C151.002 92.666 150.783 92.651 150.582 92.651C149.82 92.651 149.235 92.849 149.235 93.473C149.235 94.001 149.64 94.31 150.222 94.31C150.696 94.31 151.062 94.097 151.251 93.791C151.275 94.106 151.41 94.28 151.77 94.28C151.854 94.28 151.932 94.271 152.019 94.253V93.932C151.959 93.944 151.908 93.947 151.851 93.947ZM150.27 93.968C149.925 93.968 149.658 93.815 149.658 93.464C149.658 93.086 150.021 92.963 150.594 92.963C150.792 92.963 151.002 92.975 151.221 92.999V93.476C151.029 93.782 150.681 93.968 150.27 93.968ZM154.201 93.821C154.081 93.902 153.958 93.941 153.796 93.941C153.439 93.941 153.277 93.746 153.277 93.314V91.706H154.267V91.373H153.277V90.437L152.887 90.491V91.373H152.266V91.706H152.887V93.359C152.887 94.013 153.223 94.295 153.751 94.295C153.982 94.295 154.165 94.238 154.333 94.13L154.201 93.821ZM156.104 94.31C156.734 94.31 157.208 94.007 157.352 93.362L157.004 93.29C156.881 93.713 156.602 93.962 156.107 93.962C155.465 93.962 155.111 93.464 155.111 92.81C155.111 92.159 155.465 91.661 156.107 91.661C156.602 91.661 156.881 91.91 157.004 92.333L157.352 92.261C157.208 91.616 156.734 91.313 156.104 91.313C155.243 91.313 154.712 91.964 154.712 92.81C154.712 93.656 155.243 94.31 156.104 94.31ZM159.523 91.313C159.046 91.313 158.689 91.55 158.509 91.919V90.062H158.116V94.25H158.509V92.741C158.509 92.072 158.917 91.679 159.457 91.679C159.949 91.679 160.186 91.955 160.186 92.567V94.25H160.579V92.51C160.579 91.724 160.231 91.313 159.523 91.313Z" fill="white"/>
<path d="M172.085 90.296C171.14 90.296 170.549 90.878 170.549 91.679C170.549 92.387 171.014 92.93 171.776 92.93C172.208 92.93 172.538 92.756 172.712 92.411C172.679 93.08 172.34 93.404 171.782 93.404C171.467 93.404 171.206 93.332 170.963 93.182L170.651 94.01C170.969 94.202 171.368 94.304 171.797 94.304C173.057 94.304 173.663 93.443 173.663 92.165C173.663 90.968 173.108 90.296 172.085 90.296ZM172.076 92.09C171.767 92.09 171.551 91.931 171.551 91.631C171.551 91.331 171.77 91.154 172.1 91.154C172.526 91.154 172.667 91.445 172.661 91.817C172.529 92 172.31 92.09 172.076 92.09ZM175.657 94.304C176.779 94.304 177.319 93.599 177.319 92.3C177.319 90.998 176.749 90.296 175.657 90.296C174.565 90.296 173.995 90.998 173.995 92.3C173.995 93.599 174.535 94.304 175.657 94.304ZM175.657 93.458C175.219 93.458 175.018 93.017 175.018 92.3C175.018 91.583 175.219 91.142 175.657 91.142C176.095 91.142 176.296 91.583 176.296 92.3C176.296 93.017 176.095 93.458 175.657 93.458ZM178.614 92.258C179.202 92.258 179.586 91.85 179.586 91.28C179.586 90.704 179.202 90.296 178.614 90.296C178.026 90.296 177.636 90.704 177.636 91.28C177.636 91.85 178.026 92.258 178.614 92.258ZM178.02 94.25H178.884L181.44 90.35H180.576L178.02 94.25ZM178.614 91.58C178.452 91.58 178.356 91.466 178.356 91.28C178.356 91.088 178.452 90.968 178.614 90.968C178.77 90.968 178.866 91.088 178.866 91.28C178.866 91.466 178.77 91.58 178.614 91.58ZM180.84 94.304C181.428 94.304 181.818 93.896 181.818 93.32C181.818 92.75 181.428 92.342 180.84 92.342C180.252 92.342 179.868 92.75 179.868 93.32C179.868 93.896 180.252 94.304 180.84 94.304ZM180.84 93.632C180.684 93.632 180.588 93.512 180.588 93.32C180.588 93.134 180.684 93.02 180.84 93.02C181.002 93.02 181.092 93.134 181.092 93.32C181.092 93.512 181.002 93.632 180.84 93.632Z" fill="white"/>
<rect x="136.575" y="112.403" width="28.5964" height="7.16429" rx="3.58214" stroke="#5375FF" stroke-width="0.4"/>
<rect x="171.875" y="112.403" width="23.5536" height="7.16429" rx="3.58214" stroke="#5375FF" stroke-width="0.4"/>
<rect x="207.175" y="112.403" width="12.2071" height="7.16429" rx="3.58214" stroke="#5375FF" stroke-width="0.4"/>
<g filter="url(#filter2_d)">
<rect x="4" width="353" height="281.139" rx="40" fill="white"/>
<rect x="4.5" y="0.5" width="352" height="280.139" rx="39.5" stroke="#D0D0D0"/>
</g>
<circle cx="45.2507" cy="43.7707" r="16.0363" fill="#C4C4C4"/>
<path d="M33.6226 221.885H47.4572" stroke="black"/>
<rect x="56.5659" y="154.705" width="29.7189" height="81.9833" rx="5" fill="#5375FF"/>
<rect x="95.5088" y="136.26" width="29.7189" height="100.43" rx="5" fill="#5375FF"/>
<rect x="134.45" y="195.695" width="29.7189" height="40.9916" rx="5" fill="#5375FF"/>
<rect x="173.393" y="164.953" width="29.7189" height="71.7354" rx="5" fill="#5375FF"/>
<rect x="212.334" y="145.482" width="29.7189" height="91.2064" rx="5" fill="#5375FF"/>
<rect x="251.276" y="221.316" width="29.7189" height="15.3719" rx="5" fill="#5375FF"/>
<rect x="290.219" y="121.912" width="29.7189" height="114.777" rx="5" fill="#5375FF"/>
<path d="M32.9961 232.59H46.8308" stroke="black"/>
<path d="M32.9961 212.092H46.8308" stroke="black"/>
<path d="M32.9961 201.848H46.8308" stroke="black"/>
<path d="M32.9961 191.598H46.8308" stroke="black"/>
<path d="M32.9961 178.275H46.8308" stroke="black"/>
<path d="M32.9961 168.027H46.8308" stroke="black"/>
<path d="M32.9961 157.781H46.8308" stroke="black"/>
<path d="M32.9961 148.557H46.8308" stroke="black"/>
<path d="M32.9961 139.334H46.8308" stroke="black"/>
<path d="M153.172 50.684V53.252H157.072C156.748 55.364 155.356 56.3 153.496 56.3C150.748 56.3 149.308 54.284 149.308 51.14C149.308 47.9 150.796 46.124 153.34 46.124C155.248 46.124 156.496 47.012 156.868 49.328L160.336 48.752C159.748 44.936 157.252 43.172 153.448 43.172C148.636 43.172 145.72 46.34 145.72 51.2C145.72 55.976 148.516 59.228 152.812 59.228C155.26 59.228 157 58.22 157.744 56.3L157.828 59H160.396V50.684H153.172ZM165.969 49.64L165.933 47.18H163.113V58.988H166.305V53.672C166.305 50.972 168.225 50.048 170.313 50.48V47.012C168.129 46.628 166.629 47.756 165.969 49.64ZM177.208 59.228C181.024 59.228 183.256 56.684 183.256 53.084C183.256 49.496 181.024 46.952 177.208 46.952C173.38 46.952 171.148 49.496 171.148 53.084C171.148 56.684 173.38 59.228 177.208 59.228ZM177.208 56.372C175.456 56.372 174.328 55.112 174.328 53.084C174.328 51.068 175.456 49.82 177.208 49.82C178.948 49.82 180.064 51.068 180.064 53.084C180.064 55.112 178.948 56.372 177.208 56.372ZM199.041 47.18L197.841 53.168C197.601 54.416 197.421 55.46 197.205 56.768C196.977 55.316 196.749 54.26 196.509 53.096L195.249 47.18H191.337L190.077 53.06C189.825 54.224 189.609 55.28 189.381 56.72C189.165 55.412 188.985 54.38 188.733 53.132L187.545 47.18H184.185L187.149 59H191.421L192.897 52.364C193.053 51.716 193.161 51.128 193.293 50.396C193.425 51.128 193.545 51.716 193.689 52.364L195.165 59H199.437L202.401 47.18H199.041ZM211.437 56.084C210.945 56.252 210.501 56.336 209.949 56.336C208.737 56.336 208.341 55.676 208.341 54.488V49.892H211.689V47.18H208.341V43.496L205.125 43.952V47.18H203.121V49.892H205.125V54.92C205.125 57.608 206.433 59.156 209.337 59.156C210.309 59.156 211.137 59.024 211.941 58.76L211.437 56.084ZM220.425 46.952C218.661 46.952 217.485 47.744 216.837 49.088V42.248H213.621V59H216.837V53.312C216.837 51.056 217.881 49.964 219.417 49.964C220.761 49.964 221.349 50.72 221.349 52.34V59H224.565V51.44C224.565 48.764 223.317 46.952 220.425 46.952Z" fill="#5375FF"/>
<defs>
<filter id="filter0_d" x="198.999" y="151.012" width="48.7306" height="48.7306" filterUnits="userSpaceOnUse" color-interpolation-filters="sRGB">
<feFlood flood-opacity="0" result="BackgroundImageFix"/>
<feColorMatrix in="SourceAlpha" type="matrix" values="0 0 0 0 0 0 0 0 0 0 0 0 0 0 0 0 0 0 127 0"/>
<feOffset dy="5"/>
<feGaussianBlur stdDeviation="7.5"/>
<feColorMatrix type="matrix" values="0 0 0 0 0.0470588 0 0 0 0 0.0666667 0 0 0 0 0.109804 0 0 0 0.151825 0"/>
<feBlend mode="normal" in2="BackgroundImageFix" result="effect1_dropShadow"/>
<feBlend mode="normal" in="SourceGraphic" in2="effect1_dropShadow" result="shape"/>
</filter>
<filter id="filter1_d" x="136.157" y="159.371" width="71.0357" height="25.65" filterUnits="userSpaceOnUse" color-interpolation-filters="sRGB">
<feFlood flood-opacity="0" result="BackgroundImageFix"/>
<feColorMatrix in="SourceAlpha" type="matrix" values="0 0 0 0 0 0 0 0 0 0 0 0 0 0 0 0 0 0 127 0"/>
<feOffset dy="2"/>
<feGaussianBlur stdDeviation="2"/>
<feColorMatrix type="matrix" values="0 0 0 0 0 0 0 0 0 0 0 0 0 0 0 0 0 0 0.25 0"/>
<feBlend mode="normal" in2="BackgroundImageFix" result="effect1_dropShadow"/>
<feBlend mode="normal" in="SourceGraphic" in2="effect1_dropShadow" result="shape"/>
</filter>
<filter id="filter2_d" x="0" y="0" width="361" height="289.139" filterUnits="userSpaceOnUse" color-interpolation-filters="sRGB">
<feFlood flood-opacity="0" result="BackgroundImageFix"/>
<feColorMatrix in="SourceAlpha" type="matrix" values="0 0 0 0 0 0 0 0 0 0 0 0 0 0 0 0 0 0 127 0"/>
<feOffset dy="4"/>
<feGaussianBlur stdDeviation="2"/>
<feColorMatrix type="matrix" values="0 0 0 0 0 0 0 0 0 0 0 0 0 0 0 0 0 0 0.25 0"/>
<feBlend mode="normal" in2="BackgroundImageFix" result="effect1_dropShadow"/>
<feBlend mode="normal" in="SourceGraphic" in2="effect1_dropShadow" result="shape"/>
</filter>
<linearGradient id="paint0_linear" x1="228.407" y1="93.2918" x2="140.264" y2="93.2918" gradientUnits="userSpaceOnUse">
<stop stop-color="#7C9EF8"/>
<stop offset="1" stop-color="#6A78F7"/>
</linearGradient>
<clipPath id="clip0">
<rect width="32.7786" height="32.7786" fill="white" transform="translate(206.975 156.328)"/>
</clipPath>
</defs>
</svg>
