<svg width="431" height="438" viewBox="0 0 431 438" fill="none" xmlns="http://www.w3.org/2000/svg">
<g filter="url(#filter0_d)">
<rect x="70.6899" y="86.9805" width="297.766" height="343.019" rx="32" fill="white"/>
</g>
<g filter="url(#filter1_d)">
<rect x="229.981" y="385.65" width="68.7848" height="22.6266" rx="2" fill="#5375FF"/>
</g>
<path d="M256.927 402.5C258.859 402.5 259.993 401.506 260 399.924C260 398.188 258.614 397.74 257.074 397.292C255.646 396.886 254.82 396.578 254.82 395.577C254.82 394.702 255.457 394.128 256.668 394.128C258.138 394.128 258.789 394.961 258.894 396.277L259.923 396.067C259.86 394.086 258.642 393.134 256.696 393.134C254.918 393.134 253.623 394.016 253.623 395.661C253.623 397.32 254.911 397.866 256.542 398.307C257.977 398.706 258.817 398.972 258.817 399.994C258.817 401.051 258.089 401.499 256.948 401.499C255.247 401.499 254.421 400.687 254.435 399.189L253.343 399.343C253.322 401.583 254.918 402.5 256.927 402.5ZM267.768 401.478C267.313 401.478 267.208 401.198 267.208 400.806V398.237C267.208 397.278 267.019 395.472 264.457 395.472C262.966 395.472 261.993 396.158 261.671 397.481L262.714 397.74C262.952 396.865 263.449 396.431 264.464 396.431C265.717 396.431 266.102 397.194 266.102 398.23V398.643C265.612 398.58 265.108 398.545 264.653 398.545C262.847 398.545 261.482 399.042 261.482 400.505C261.482 401.744 262.413 402.5 263.806 402.5C264.898 402.5 265.752 402.031 266.193 401.317C266.27 402.052 266.606 402.43 267.502 402.43C267.719 402.43 267.915 402.409 268.139 402.36V401.45C268.006 401.471 267.887 401.478 267.768 401.478ZM264.002 401.548C263.253 401.548 262.714 401.24 262.714 400.477C262.714 399.707 263.421 399.413 264.716 399.413C265.157 399.413 265.612 399.441 266.102 399.497V400.477C265.675 401.149 264.884 401.548 264.002 401.548ZM273.756 395.612L272.363 399.833C272.167 400.4 271.999 400.946 271.817 401.52C271.635 400.96 271.453 400.393 271.264 399.833L269.871 395.612H268.604L270.998 402.367H272.629L275.023 395.612H273.756ZM259.314 415.86C259.314 413.83 258.187 412.472 256.269 412.472C254.33 412.472 253.091 414.005 253.091 415.979C253.091 417.995 254.351 419.507 256.374 419.507C257.781 419.507 258.817 418.856 259.188 417.589L258.271 417.33C257.977 418.086 257.389 418.534 256.367 418.534C255.135 418.534 254.365 417.666 254.239 416.343H259.3C259.314 416.175 259.314 416.014 259.314 415.86ZM256.262 413.424C257.403 413.424 258.082 414.159 258.18 415.44H254.246C254.4 414.229 255.128 413.424 256.262 413.424Z" fill="white"/>
<path d="M145.012 404.14C147.224 404.14 148.617 403.09 149.044 400.92L147.903 400.731C147.525 402.488 146.517 403.125 145.012 403.125C143.031 403.125 141.876 401.662 141.876 399.457C141.876 397.231 143.031 395.775 145.012 395.775C146.503 395.775 147.532 396.433 147.903 398.162L149.044 397.973C148.652 395.803 147.21 394.76 145.012 394.76C142.31 394.76 140.63 396.657 140.63 399.457C140.63 402.243 142.31 404.14 145.012 404.14ZM156.637 403.111C156.182 403.111 156.077 402.831 156.077 402.439V399.87C156.077 398.911 155.888 397.105 153.326 397.105C151.835 397.105 150.862 397.791 150.54 399.114L151.583 399.373C151.821 398.498 152.318 398.064 153.333 398.064C154.586 398.064 154.971 398.827 154.971 399.863V400.276C154.481 400.213 153.977 400.178 153.522 400.178C151.716 400.178 150.351 400.675 150.351 402.138C150.351 403.377 151.282 404.133 152.675 404.133C153.767 404.133 154.621 403.664 155.062 402.95C155.139 403.685 155.475 404.063 156.371 404.063C156.588 404.063 156.784 404.042 157.008 403.993V403.083C156.875 403.104 156.756 403.111 156.637 403.111ZM152.871 403.181C152.122 403.181 151.583 402.873 151.583 402.11C151.583 401.34 152.29 401.046 153.585 401.046C154.026 401.046 154.481 401.074 154.971 401.13V402.11C154.544 402.782 153.753 403.181 152.871 403.181ZM161.864 397.105C160.723 397.105 159.911 397.672 159.519 398.568L159.526 397.245H158.427V404H159.568V400.528C159.568 399.016 160.436 398.169 161.612 398.169C162.676 398.169 163.18 398.764 163.18 400.08V404H164.321V399.856C164.321 398.085 163.523 397.105 161.864 397.105ZM169.073 404.14C170.606 404.14 171.747 403.419 172.076 401.816L171.04 401.641C170.781 402.593 170.165 403.139 169.087 403.139C167.694 403.139 166.924 402.068 166.924 400.619C166.924 399.177 167.694 398.099 169.087 398.099C170.165 398.099 170.781 398.645 171.04 399.597L172.076 399.429C171.747 397.826 170.606 397.105 169.073 397.105C167.029 397.105 165.776 398.617 165.776 400.619C165.776 402.621 167.029 404.14 169.073 404.14ZM179.573 400.493C179.573 398.463 178.446 397.105 176.528 397.105C174.589 397.105 173.35 398.638 173.35 400.612C173.35 402.628 174.61 404.14 176.633 404.14C178.04 404.14 179.076 403.489 179.447 402.222L178.53 401.963C178.236 402.719 177.648 403.167 176.626 403.167C175.394 403.167 174.624 402.299 174.498 400.976H179.559C179.573 400.808 179.573 400.647 179.573 400.493ZM176.521 398.057C177.662 398.057 178.341 398.792 178.439 400.073H174.505C174.659 398.862 175.387 398.057 176.521 398.057ZM181.164 404H182.305V394.228H181.164V404Z" fill="#5C5C5C"/>
<path d="M164.269 129H166.888V124.941H168.823C171.487 124.941 172.936 123.555 172.936 121.044C172.936 118.596 171.505 117.291 168.85 117.291H164.269V129ZM166.888 122.979V119.397H168.616C169.75 119.397 170.344 119.946 170.344 121.125C170.344 122.322 169.813 122.979 168.607 122.979H166.888ZM182.328 124.437C182.328 121.71 180.744 119.964 178.143 119.964C175.479 119.964 173.787 121.935 173.787 124.572C173.787 127.263 175.416 129.171 178.215 129.171C180.267 129.171 181.761 128.199 182.166 126.291L180.132 125.976C179.907 126.786 179.286 127.191 178.206 127.191C177.072 127.191 176.37 126.516 176.181 125.229H182.283C182.319 124.923 182.328 124.68 182.328 124.437ZM178.143 121.917C179.151 121.917 179.853 122.511 179.952 123.708H176.199C176.406 122.538 177.108 121.917 178.143 121.917ZM185.969 121.98L185.942 120.135H183.827V128.991H186.221V125.004C186.221 122.979 187.661 122.286 189.227 122.61V120.009C187.589 119.721 186.464 120.567 185.969 121.98ZM194.171 129.171C196.394 129.171 197.789 128.1 197.789 126.426C197.798 124.779 196.682 124.185 194.306 123.663C192.947 123.366 192.605 123.105 192.605 122.592C192.605 122.124 192.956 121.791 193.838 121.791C194.792 121.791 195.386 122.232 195.494 123.294L197.681 123.096C197.564 121.197 196.448 119.964 193.829 119.964C191.822 119.964 190.31 120.936 190.301 122.727C190.292 124.365 191.345 125.058 193.82 125.571C194.99 125.805 195.449 125.976 195.449 126.543C195.449 127.065 195.062 127.344 194.153 127.344C193.118 127.344 192.407 126.957 192.272 125.85L189.995 126.057C190.157 128.235 191.939 129.171 194.171 129.171ZM203.433 129.171C206.295 129.171 207.969 127.263 207.969 124.563C207.969 121.872 206.295 119.964 203.433 119.964C200.562 119.964 198.888 121.872 198.888 124.563C198.888 127.263 200.562 129.171 203.433 129.171ZM203.433 127.029C202.119 127.029 201.273 126.084 201.273 124.563C201.273 123.051 202.119 122.115 203.433 122.115C204.738 122.115 205.575 123.051 205.575 124.563C205.575 126.084 204.738 127.029 203.433 127.029ZM214.487 119.964C213.002 119.964 212.057 120.684 211.616 121.89L211.598 120.135H209.456V129H211.868V124.734C211.868 123.042 212.651 122.223 213.803 122.223C214.811 122.223 215.252 122.79 215.252 124.005V129H217.664V123.33C217.664 121.323 216.728 119.964 214.487 119.964ZM227.86 127.02C227.392 127.02 227.275 126.795 227.275 126.354V123.663C227.275 121.971 226.789 119.964 223.333 119.964C221.11 119.964 219.571 121.026 219.427 123.033L221.74 123.303C221.848 122.367 222.361 121.926 223.342 121.926C224.557 121.926 224.917 122.646 224.917 123.636V123.987C224.404 123.906 223.864 123.861 223.279 123.861C220.84 123.861 219.13 124.554 219.13 126.426C219.13 128.01 220.219 129.162 222.154 129.162C223.621 129.162 224.692 128.622 225.178 127.659C225.313 128.694 225.817 129.072 227.14 129.072C227.59 129.072 227.95 129.045 228.346 128.946V126.984C228.175 127.011 228.013 127.02 227.86 127.02ZM222.973 127.326C222.172 127.326 221.731 126.993 221.731 126.336C221.731 125.67 222.325 125.355 223.612 125.355C224.071 125.355 224.485 125.391 224.917 125.472V126.435C224.53 126.993 223.81 127.326 222.973 127.326ZM229.601 129H232.013V116.436H229.601V129ZM242.411 119.973C240.998 119.973 240.062 120.558 239.558 121.665L239.522 120.135H237.335V132.393H239.747V127.776C240.278 128.676 241.16 129.171 242.411 129.171C244.796 129.171 246.326 127.344 246.326 124.563C246.326 121.791 244.796 119.973 242.411 119.973ZM241.844 127.038C240.539 127.038 239.666 126.039 239.666 124.563C239.666 123.096 240.539 122.133 241.844 122.133C243.158 122.133 243.896 123.069 243.896 124.563C243.896 126.066 243.158 127.038 241.844 127.038ZM249.954 121.98L249.927 120.135H247.812V128.991H250.206V125.004C250.206 122.979 251.646 122.286 253.212 122.61V120.009C251.574 119.721 250.449 120.567 249.954 121.98ZM258.383 129.171C261.245 129.171 262.919 127.263 262.919 124.563C262.919 121.872 261.245 119.964 258.383 119.964C255.512 119.964 253.838 121.872 253.838 124.563C253.838 127.263 255.512 129.171 258.383 129.171ZM258.383 127.029C257.069 127.029 256.223 126.084 256.223 124.563C256.223 123.051 257.069 122.115 258.383 122.115C259.688 122.115 260.525 123.051 260.525 124.563C260.525 126.084 259.688 127.029 258.383 127.029ZM265.071 119.64V120.135H263.649V122.169H265.071V129H267.483V122.169H269.868V120.135H267.483V119.577C267.483 118.614 267.897 118.263 268.743 118.263C269.148 118.263 269.508 118.326 269.868 118.461V116.436C269.391 116.319 268.932 116.265 268.41 116.265C266.205 116.265 265.071 117.381 265.071 119.64ZM272.442 119.226C273.252 119.226 273.936 118.587 273.936 117.786C273.936 116.994 273.252 116.355 272.442 116.355C271.65 116.355 270.966 116.994 270.966 117.786C270.966 118.587 271.65 119.226 272.442 119.226ZM271.245 129H273.657V120.135H271.245V129ZM275.655 129H278.067V116.436H275.655V129ZM288.095 124.437C288.095 121.71 286.511 119.964 283.91 119.964C281.246 119.964 279.554 121.935 279.554 124.572C279.554 127.263 281.183 129.171 283.982 129.171C286.034 129.171 287.528 128.199 287.933 126.291L285.899 125.976C285.674 126.786 285.053 127.191 283.973 127.191C282.839 127.191 282.137 126.516 281.948 125.229H288.05C288.086 124.923 288.095 124.68 288.095 124.437ZM283.91 121.917C284.918 121.917 285.62 122.511 285.719 123.708H281.966C282.173 122.538 282.875 121.917 283.91 121.917Z" fill="black"/>
<g filter="url(#filter2_d)">
<circle cx="219.573" cy="182.465" r="31.2247" fill="#F1EFEF"/>
</g>
<g clip-path="url(#clip0)">
<path d="M230.966 176.059C230.479 175.538 229.806 175.231 229.04 175.231H225.186V175.183C225.186 174.592 224.954 174.025 224.559 173.646C224.164 173.244 223.63 173.008 223.05 173.008H216.084C215.481 173.008 214.947 173.244 214.552 173.646C214.157 174.048 213.925 174.592 213.925 175.183V175.23H210.094C209.328 175.23 208.654 175.538 208.167 176.058C207.679 176.556 207.354 177.265 207.354 178.022V189.798C207.354 190.579 207.656 191.265 208.167 191.761C208.654 192.258 209.351 192.589 210.094 192.589H229.04C229.806 192.589 230.479 192.281 230.967 191.761C231.455 191.265 231.78 190.555 231.78 189.798V178.021C231.78 177.241 231.478 176.555 230.967 176.059H230.966ZM230.572 189.797H230.549C230.549 190.223 230.387 190.602 230.108 190.886C229.829 191.169 229.458 191.335 229.04 191.335H210.094C209.676 191.335 209.304 191.169 209.026 190.886C208.747 190.602 208.585 190.223 208.585 189.797V178.021C208.585 177.596 208.747 177.217 209.026 176.933C209.304 176.65 209.676 176.484 210.094 176.484H214.575C214.923 176.484 215.202 176.2 215.202 175.846V175.159C215.202 174.899 215.295 174.663 215.458 174.497C215.62 174.332 215.852 174.237 216.108 174.237H223.049C223.304 174.237 223.536 174.332 223.699 174.497C223.861 174.663 223.954 174.899 223.954 175.159V175.846C223.954 176.2 224.233 176.484 224.582 176.484H229.062C229.481 176.484 229.852 176.65 230.131 176.933C230.409 177.217 230.572 177.596 230.572 178.021V189.797H230.572Z" fill="#5375FF"/>
<path d="M219.567 178.092C217.988 178.092 216.549 178.754 215.527 179.794C214.483 180.858 213.855 182.301 213.855 183.909C213.855 185.518 214.505 186.983 215.527 188.024C216.572 189.088 217.988 189.726 219.567 189.726C221.146 189.726 222.585 189.064 223.607 188.024C224.651 186.96 225.279 185.518 225.279 183.909C225.279 182.301 224.629 180.835 223.607 179.794C222.585 178.754 221.146 178.092 219.567 178.092ZM222.725 187.149C221.912 187.953 220.798 188.473 219.567 188.473C218.336 188.473 217.222 187.953 216.409 187.149C215.597 186.321 215.109 185.186 215.109 183.933C215.109 182.68 215.62 181.545 216.409 180.717C217.222 179.889 218.336 179.392 219.567 179.392C220.798 179.392 221.912 179.912 222.725 180.717C223.538 181.545 224.025 182.68 224.025 183.933C224.048 185.186 223.537 186.321 222.724 187.149H222.725Z" fill="#5375FF"/>
<path d="M227.832 180.386C228.461 180.386 228.97 179.867 228.97 179.227C228.97 178.587 228.461 178.068 227.832 178.068C227.204 178.068 226.695 178.587 226.695 179.227C226.695 179.867 227.204 180.386 227.832 180.386Z" fill="#5375FF"/>
</g>
<rect x="117.753" y="240.842" width="204.544" height="7.24051" rx="3.62025" fill="#E4E4E4"/>
<rect x="117.753" y="258.943" width="204.544" height="7.24051" rx="3.62025" fill="#E4E4E4"/>
<rect x="117.753" y="277.043" width="204.544" height="7.24051" rx="3.62025" fill="#E4E4E4"/>
<rect x="126.399" y="313.746" width="87.6962" height="14.3861" rx="7.19304" stroke="#5375FF"/>
<rect x="225.051" y="313.746" width="87.6962" height="14.3861" rx="7.19304" stroke="#5375FF"/>
<rect x="126.399" y="339.992" width="45.1582" height="14.3861" rx="7.19304" stroke="#5375FF"/>
<rect x="184.323" y="339.992" width="73.2152" height="14.3861" rx="7.19304" stroke="#5375FF"/>
<rect x="263.968" y="339.992" width="48.7785" height="14.3861" rx="7.19304" stroke="#5375FF"/>
<path d="M45.2104 126.904C42.6123 124.934 45.1714 121.607 42.5763 119.649C39.9783 117.679 37.4192 121.007 34.8242 119.048C32.2261 117.079 34.7852 113.752 32.1901 111.793C29.5921 109.824 27.0331 113.151 24.438 111.193C21.84 109.224 24.399 105.896 21.804 103.938C19.2059 101.969 16.6469 105.296 14.0518 103.338C11.4538 101.368 14.0128 98.0412 11.4178 96.083C8.81973 94.1136 6.26068 97.4408 3.66564 95.4826C1.07059 93.5244 3.59804 90.1696 0.999991 88.2002" stroke="black" stroke-miterlimit="10" stroke-linecap="round"/>
<path d="M380 128.163C382.598 126.194 380.039 122.867 382.634 120.908C385.232 118.939 387.791 122.266 390.386 120.308C392.984 118.339 390.425 115.011 393.02 113.053C395.618 111.084 398.177 114.411 400.772 112.453C403.37 110.483 400.811 107.156 403.406 105.198C406.004 103.229 408.564 106.556 411.159 104.598C413.757 102.628 411.198 99.301 413.793 97.3428C416.391 95.3733 418.95 98.7006 421.545 96.7424C424.14 94.7842 421.612 91.4294 424.21 89.46" stroke="black" stroke-miterlimit="10" stroke-linecap="round"/>
<path d="M95.1124 86.574C94.5371 83.365 98.6739 82.6532 98.0932 79.4545C97.5179 76.2456 93.3812 76.9573 92.8005 73.7586C92.2252 70.5497 96.362 69.8379 95.7813 66.6392C95.206 63.4302 91.0693 64.142 90.4886 60.9433C89.9133 57.7343 94.05 57.0226 93.4694 53.8239C92.8941 50.6149 88.7574 51.3267 88.1767 48.128C87.6014 44.919 91.7381 44.2072 91.1575 41.0085C90.5822 37.7996 86.4454 38.5113 85.8648 35.3126C85.2841 32.1139 89.4163 31.3605 88.841 28.1515" stroke="black" stroke-miterlimit="10" stroke-linecap="round"/>
<path d="M224.732 59.2773C224.919 56.0226 229.108 56.2936 229.288 53.0477C229.476 49.7929 225.287 49.5219 225.467 46.2759C225.655 43.0212 229.844 43.2922 230.024 40.0462C230.211 36.7915 226.023 36.5205 226.203 33.2745C226.39 30.0198 230.579 30.2908 230.759 27.0448C230.947 23.7901 226.758 23.5191 226.938 20.2731C227.126 17.0184 231.315 17.2894 231.495 14.0434C231.682 10.7887 227.494 10.5177 227.674 7.27171C227.854 4.02573 232.048 4.25515 232.236 1.00043" stroke="black" stroke-miterlimit="10" stroke-linecap="round"/>
<path d="M335.081 81.4195C336.734 78.6097 340.337 80.7636 341.98 77.9581C343.633 75.1483 340.03 72.9943 341.673 70.1888C343.326 67.379 346.929 69.5329 348.571 66.7274C350.224 63.9176 346.622 61.7636 348.264 58.9581C349.918 56.1483 353.52 58.3023 355.163 55.4967C356.816 52.6869 353.213 50.533 354.856 47.7274C356.509 44.9176 360.112 47.0716 361.754 44.266C363.408 41.4562 359.805 39.3023 361.447 36.4968C363.09 33.6912 366.716 35.8106 368.37 33.0008" stroke="black" stroke-miterlimit="10" stroke-linecap="round"/>
<path d="M383 154.88L383 163.28L414.2 163.28L414.2 154.88L383 154.88ZM389.696 183.652C389.48 182.668 389.36 181.804 389.36 180.772C389.36 178.564 390.584 177.916 392.576 177.916L400.376 177.916L400.376 184.156L406.856 184.156L406.856 177.916L414.2 177.916L413.12 170.284L406.856 170.284L406.856 166.636L400.376 166.636L400.376 170.284L391.52 170.284C386.096 170.284 382.688 172.876 382.688 179.26C382.688 181.228 382.904 182.956 383.312 184.636L389.696 183.652ZM407.288 223.484C407.288 219.956 405.632 217.772 402.752 216.668C405.512 215.66 407.288 213.404 407.288 209.372C407.288 205.532 405.32 203.3 401.984 202.316L406.856 202.22L406.856 195.644L383 195.644L383 203.276L394.112 203.276C398.336 203.276 400.16 204.74 400.16 206.996C400.16 208.892 398.912 209.708 396.272 209.708L383 209.708L383 217.34L394.208 217.34L394.112 217.388C398.336 217.388 400.16 218.852 400.16 221.108C400.16 223.004 398.912 223.82 396.272 223.82L383 223.82L383 231.452L398.552 231.452C403.544 231.452 407.288 229.316 407.288 223.484ZM389.36 258.477C389.36 257.349 389.888 257.109 390.872 257.109L397.256 257.109C403.112 257.109 407.288 255.021 407.288 246.117C407.288 239.805 404.264 235.341 398.504 235.269L397.88 242.685C400.136 242.757 401.144 243.933 401.144 246.117C401.144 248.877 399.536 249.621 397.352 249.621L396.584 249.621C396.8 248.397 396.92 247.149 396.92 245.541C396.92 238.917 395.024 234.429 390.08 234.429C385.88 234.429 382.568 237.189 382.568 242.493C382.568 246.573 383.936 249.333 386.6 250.509C383.72 250.893 382.808 252.333 382.808 256.053C382.808 257.493 382.904 258.597 383.192 259.797L389.456 259.797C389.384 259.341 389.36 258.909 389.36 258.477ZM388.232 245.493C388.232 243.501 389.096 242.661 390.392 242.661C391.832 242.661 392.552 243.933 392.552 246.789C392.552 247.869 392.432 248.757 392.24 249.621L389.936 249.621C388.856 248.829 388.232 247.389 388.232 245.493ZM389.696 276.793C389.48 275.809 389.36 274.945 389.36 273.913C389.36 271.705 390.584 271.057 392.576 271.057L400.376 271.057L400.376 277.297L406.856 277.297L406.856 271.057L414.2 271.057L413.12 263.425L406.856 263.425L406.856 259.777L400.376 259.777L400.376 263.425L391.52 263.425C386.096 263.425 382.688 266.017 382.688 272.401C382.688 274.369 382.904 276.097 383.312 277.777L389.696 276.793ZM389.696 295.73C389.48 294.746 389.36 293.882 389.36 292.85C389.36 290.642 390.584 289.994 392.576 289.994L400.376 289.994L400.376 296.234L406.856 296.234L406.856 289.994L414.2 289.994L413.12 282.362L406.856 282.362L406.856 278.714L400.376 278.714L400.376 282.362L391.52 282.362C386.096 282.362 382.688 284.954 382.688 291.338C382.688 293.306 382.904 295.034 383.312 296.714L389.696 295.73ZM395.24 321.82C402.632 321.82 407.288 317.428 407.288 310.324C407.288 303.004 402.056 298.372 394.88 298.372C387.584 298.372 382.568 302.74 382.568 310.396C382.568 316.204 385.328 320.404 390.752 321.388L391.568 314.908C389.6 314.476 388.736 312.988 388.736 310.396C388.736 307.9 390.08 306.388 393.008 305.908L393.008 321.676C393.872 321.796 394.568 321.82 395.24 321.82ZM401.192 310.324C401.192 312.484 400.016 314.14 397.352 314.308L397.352 305.956C399.992 306.508 401.192 308.068 401.192 310.324ZM401.768 331.784L406.856 331.688L406.856 325.16L383.048 325.16L383.048 332.792L393.224 332.792C398.312 332.792 399.704 336.248 398.936 340.256L407.216 340.256C407.912 335.768 405.488 332.984 401.768 331.784ZM382.568 353.601C382.568 359.697 385.496 363.729 390.128 363.753C394.448 363.777 396.248 360.993 397.76 354.129C398.552 350.529 399.248 350.097 400.136 350.097C400.976 350.097 401.6 350.793 401.6 352.713C401.6 354.897 400.64 356.097 398.168 356.433L398.744 363.441C403.928 363.033 407.288 360.105 407.288 352.713C407.288 347.241 404.696 342.873 399.68 342.849C395.048 342.825 393.2 345.897 391.832 352.569C391.232 355.593 390.824 356.361 389.792 356.361C388.832 356.361 388.256 355.641 388.256 353.577C388.256 351.225 389.144 349.713 391.688 349.305L391.088 342.033C385.088 342.441 382.568 347.577 382.568 353.601ZM393.272 367.881L393.272 374.217L414.2 375.177L414.2 366.921L393.272 367.881ZM382.568 371.049C382.568 373.545 384.632 375.705 387.224 375.705C389.816 375.705 391.88 373.545 391.88 371.049C391.88 368.553 389.816 366.393 387.224 366.393C384.632 366.393 382.568 368.553 382.568 371.049Z" fill="#5375FF"/>
<defs>
<filter id="filter0_d" x="66.6899" y="86.9805" width="305.766" height="351.019" filterUnits="userSpaceOnUse" color-interpolation-filters="sRGB">
<feFlood flood-opacity="0" result="BackgroundImageFix"/>
<feColorMatrix in="SourceAlpha" type="matrix" values="0 0 0 0 0 0 0 0 0 0 0 0 0 0 0 0 0 0 127 0"/>
<feOffset dy="4"/>
<feGaussianBlur stdDeviation="2"/>
<feColorMatrix type="matrix" values="0 0 0 0 0 0 0 0 0 0 0 0 0 0 0 0 0 0 0.25 0"/>
<feBlend mode="normal" in2="BackgroundImageFix" result="effect1_dropShadow"/>
<feBlend mode="normal" in="SourceGraphic" in2="effect1_dropShadow" result="shape"/>
</filter>
<filter id="filter1_d" x="225.981" y="383.65" width="76.7848" height="30.6266" filterUnits="userSpaceOnUse" color-interpolation-filters="sRGB">
<feFlood flood-opacity="0" result="BackgroundImageFix"/>
<feColorMatrix in="SourceAlpha" type="matrix" values="0 0 0 0 0 0 0 0 0 0 0 0 0 0 0 0 0 0 127 0"/>
<feOffset dy="2"/>
<feGaussianBlur stdDeviation="2"/>
<feColorMatrix type="matrix" values="0 0 0 0 0 0 0 0 0 0 0 0 0 0 0 0 0 0 0.25 0"/>
<feBlend mode="normal" in2="BackgroundImageFix" result="effect1_dropShadow"/>
<feBlend mode="normal" in="SourceGraphic" in2="effect1_dropShadow" result="shape"/>
</filter>
<filter id="filter2_d" x="184.348" y="151.24" width="70.4494" height="70.4494" filterUnits="userSpaceOnUse" color-interpolation-filters="sRGB">
<feFlood flood-opacity="0" result="BackgroundImageFix"/>
<feColorMatrix in="SourceAlpha" type="matrix" values="0 0 0 0 0 0 0 0 0 0 0 0 0 0 0 0 0 0 127 0"/>
<feOffset dy="4"/>
<feGaussianBlur stdDeviation="2"/>
<feColorMatrix type="matrix" values="0 0 0 0 0 0 0 0 0 0 0 0 0 0 0 0 0 0 0.25 0"/>
<feBlend mode="normal" in2="BackgroundImageFix" result="effect1_dropShadow"/>
<feBlend mode="normal" in="SourceGraphic" in2="effect1_dropShadow" result="shape"/>
</filter>
<clipPath id="clip0">
<rect width="24.4367" height="19.9114" fill="white" transform="translate(207.354 172.961)"/>
</clipPath>
</defs>
</svg>
