<svg width="575" height="260" viewBox="0 0 575 260" fill="none" xmlns="http://www.w3.org/2000/svg">
<g filter="url(#filter0_d)">
<rect x="4" width="241" height="252" rx="38" fill="white"/>
<rect x="4.5" y="0.5" width="240" height="251" rx="37.5" stroke="#D1D1D1"/>
</g>
<path d="M114.544 50.1235C116.76 50.1235 118.145 48.9795 118.333 46.8605L116.5 46.6135C116.286 48.115 115.525 48.5375 114.505 48.5375C113.042 48.5375 112.347 47.452 112.347 45.775C112.347 44.098 113.042 43.0125 114.505 43.0125C115.525 43.0125 116.292 43.4805 116.5 44.9365L118.333 44.6895C118.171 42.5705 116.76 41.4265 114.544 41.4265C111.898 41.4265 110.39 43.1945 110.39 45.775C110.39 48.3555 111.898 50.1235 114.544 50.1235ZM122.368 50.1235C124.435 50.1235 125.644 48.7455 125.644 46.7955C125.644 44.852 124.435 43.474 122.368 43.474C120.294 43.474 119.085 44.852 119.085 46.7955C119.085 48.7455 120.294 50.1235 122.368 50.1235ZM122.368 48.5765C121.419 48.5765 120.808 47.894 120.808 46.7955C120.808 45.7035 121.419 45.0275 122.368 45.0275C123.31 45.0275 123.915 45.7035 123.915 46.7955C123.915 47.894 123.31 48.5765 122.368 48.5765ZM130.351 43.474C129.279 43.474 128.596 43.994 128.278 44.865L128.265 43.5975H126.718V50H128.46V46.919C128.46 45.697 129.025 45.1055 129.857 45.1055C130.585 45.1055 130.904 45.515 130.904 46.3925V50H132.646V45.905C132.646 44.4555 131.97 43.474 130.351 43.474ZM138.014 48.4205C137.747 48.5115 137.507 48.557 137.208 48.557C136.551 48.557 136.337 48.1995 136.337 47.556V45.0665H138.15V43.5975H136.337V41.602L134.595 41.849V43.5975H133.509V45.0665H134.595V47.79C134.595 49.246 135.303 50.0845 136.876 50.0845C137.403 50.0845 137.851 50.013 138.287 49.87L138.014 48.4205ZM144.995 46.7045C144.995 44.735 143.851 43.474 141.973 43.474C140.049 43.474 138.827 44.8975 138.827 46.802C138.827 48.7455 140.003 50.1235 142.025 50.1235C143.507 50.1235 144.586 49.4215 144.878 48.0435L143.409 47.816C143.247 48.401 142.798 48.6935 142.018 48.6935C141.199 48.6935 140.692 48.206 140.556 47.2765H144.963C144.989 47.0555 144.995 46.88 144.995 46.7045ZM141.973 44.8845C142.701 44.8845 143.208 45.3135 143.279 46.178H140.569C140.718 45.333 141.225 44.8845 141.973 44.8845ZM149.711 43.474C148.639 43.474 147.956 43.994 147.638 44.865L147.625 43.5975H146.078V50H147.82V46.919C147.82 45.697 148.385 45.1055 149.217 45.1055C149.945 45.1055 150.264 45.515 150.264 46.3925V50H152.006V45.905C152.006 44.4555 151.33 43.474 149.711 43.474ZM157.374 48.4205C157.108 48.5115 156.867 48.557 156.568 48.557C155.912 48.557 155.697 48.1995 155.697 47.556V45.0665H157.511V43.5975H155.697V41.602L153.955 41.849V43.5975H152.87V45.0665H153.955V47.79C153.955 49.246 154.664 50.0845 156.237 50.0845C156.763 50.0845 157.212 50.013 157.647 49.87L157.374 48.4205ZM163.823 50.1235C165.416 50.1235 166.592 49.4085 166.891 47.6275L165.234 47.4585C165.084 48.2255 164.603 48.6285 163.843 48.6285C162.868 48.6285 162.335 47.894 162.335 46.7955C162.335 45.7035 162.868 44.969 163.843 44.969C164.603 44.969 165.084 45.372 165.234 46.1325L166.891 45.97C166.592 44.189 165.416 43.474 163.823 43.474C161.795 43.474 160.586 44.865 160.586 46.7955C160.586 48.7325 161.795 50.1235 163.823 50.1235ZM169.499 44.93L169.479 43.5975H167.952V49.9935H169.681V47.114C169.681 45.6515 170.721 45.151 171.852 45.385V43.5065C170.669 43.2985 169.856 43.9095 169.499 44.93ZM178.473 46.7045C178.473 44.735 177.329 43.474 175.45 43.474C173.526 43.474 172.304 44.8975 172.304 46.802C172.304 48.7455 173.481 50.1235 175.502 50.1235C176.984 50.1235 178.063 49.4215 178.356 48.0435L176.887 47.816C176.724 48.401 176.276 48.6935 175.496 48.6935C174.677 48.6935 174.17 48.206 174.033 47.2765H178.44C178.466 47.0555 178.473 46.88 178.473 46.7045ZM175.45 44.8845C176.178 44.8845 176.685 45.3135 176.757 46.178H174.046C174.196 45.333 174.703 44.8845 175.45 44.8845ZM185.586 48.57C185.248 48.57 185.163 48.4075 185.163 48.089V46.1455C185.163 44.9235 184.812 43.474 182.316 43.474C180.711 43.474 179.599 44.241 179.495 45.6905L181.166 45.8855C181.244 45.2095 181.614 44.891 182.323 44.891C183.2 44.891 183.46 45.411 183.46 46.126V46.3795C183.09 46.321 182.7 46.2885 182.277 46.2885C180.516 46.2885 179.281 46.789 179.281 48.141C179.281 49.285 180.067 50.117 181.465 50.117C182.524 50.117 183.298 49.727 183.649 49.0315C183.746 49.779 184.11 50.052 185.066 50.052C185.391 50.052 185.651 50.0325 185.937 49.961V48.544C185.813 48.5635 185.696 48.57 185.586 48.57ZM182.056 48.791C181.478 48.791 181.159 48.5505 181.159 48.076C181.159 47.595 181.588 47.3675 182.518 47.3675C182.849 47.3675 183.148 47.3935 183.46 47.452V48.1475C183.181 48.5505 182.661 48.791 182.056 48.791ZM190.611 48.4205C190.344 48.5115 190.104 48.557 189.805 48.557C189.148 48.557 188.934 48.1995 188.934 47.556V45.0665H190.747V43.5975H188.934V41.602L187.192 41.849V43.5975H186.106V45.0665H187.192V47.79C187.192 49.246 187.9 50.0845 189.473 50.0845C190 50.0845 190.448 50.013 190.884 49.87L190.611 48.4205ZM194.706 50.1235C196.773 50.1235 197.982 48.7455 197.982 46.7955C197.982 44.852 196.773 43.474 194.706 43.474C192.632 43.474 191.423 44.852 191.423 46.7955C191.423 48.7455 192.632 50.1235 194.706 50.1235ZM194.706 48.5765C193.757 48.5765 193.146 47.894 193.146 46.7955C193.146 45.7035 193.757 45.0275 194.706 45.0275C195.648 45.0275 196.253 45.7035 196.253 46.7955C196.253 47.894 195.648 48.5765 194.706 48.5765ZM200.602 44.93L200.583 43.5975H199.055V49.9935H200.784V47.114C200.784 45.6515 201.824 45.151 202.955 45.385V43.5065C201.772 43.2985 200.96 43.9095 200.602 44.93Z" fill="black"/>
<g clip-path="url(#clip0)">
<g filter="url(#filter1_d)">
<path d="M204.628 194.286H191.371C185.88 194.286 181.428 198.738 181.428 204.229V217.486C181.428 222.977 185.88 227.429 191.371 227.429H204.628C210.12 227.429 214.571 222.977 214.571 217.486V204.229C214.571 198.738 210.12 194.286 204.628 194.286Z" fill="black"/>
</g>
<path d="M204.628 194.286H191.371C185.88 194.286 181.428 198.738 181.428 204.229V217.486C181.428 222.977 185.88 227.429 191.371 227.429H204.628C210.12 227.429 214.571 222.977 214.571 217.486V204.229C214.571 198.738 210.12 194.286 204.628 194.286Z" fill="#5375FF"/>
<path d="M205.115 203.741C204.828 203.454 204.421 203.338 204.027 203.43L204.021 203.432L191.007 206.617C189.758 206.923 188.885 208.034 188.885 209.321V211.038C188.885 211.664 189.381 212.176 190.001 212.202L194.896 213.035C194.999 213.053 195.105 213.019 195.179 212.945L200.948 207.176C201.15 206.974 201.478 206.974 201.68 207.176C201.882 207.378 201.882 207.707 201.68 207.909L195.912 213.677C195.837 213.752 195.804 213.857 195.821 213.961L196.654 218.856C196.681 219.476 197.193 219.971 197.818 219.971H199.536C200.822 219.971 201.934 219.099 202.24 217.85L205.425 204.836L205.426 204.83C205.517 204.435 205.401 204.029 205.115 203.741Z" fill="#FBFBFB"/>
</g>
<rect x="49" y="139" width="172" height="7" rx="2" fill="#B0AFAF"/>
<rect x="87" y="154" width="105" height="8" rx="2" fill="#B0AFAF"/>
<ellipse cx="74" cy="58" rx="25" ry="24" fill="#C4C4C4"/>
<rect x="110" y="58" width="73" height="3" rx="1.5" fill="#C4C4C4"/>
<g filter="url(#filter2_d)">
<rect x="50" y="195" width="113" height="31" rx="4" fill="#5375FF"/>
</g>
<path d="M78.0235 214.13C79.811 214.13 80.799 213.194 80.8055 211.79C80.812 210.158 79.486 209.775 78.069 209.365C76.7625 208.982 75.898 208.683 75.898 207.656C75.898 206.772 76.535 206.187 77.77 206.187C79.2325 206.187 79.863 207.025 79.954 208.273L80.734 208.104C80.695 206.291 79.551 205.42 77.8025 205.42C76.171 205.42 74.9945 206.226 74.9945 207.714C74.9945 209.255 76.223 209.749 77.6985 210.145C79.0505 210.522 79.915 210.789 79.915 211.829C79.915 212.901 79.1675 213.356 78.0365 213.356C76.3595 213.356 75.521 212.576 75.547 211.107L74.7215 211.237C74.6825 213.278 76.171 214.13 78.0235 214.13ZM85.6995 207.636C84.666 207.636 83.8925 208.15 83.5025 208.949V204.926H82.651V214H83.5025V210.73C83.5025 209.281 84.3865 208.429 85.5565 208.429C86.6225 208.429 87.136 209.027 87.136 210.353V214H87.9875V210.23C87.9875 208.527 87.2335 207.636 85.6995 207.636ZM92.531 214.13C94.4095 214.13 95.625 212.732 95.625 210.88C95.625 209.027 94.4095 207.636 92.531 207.636C90.6525 207.636 89.4305 209.027 89.4305 210.88C89.4305 212.732 90.6525 214.13 92.531 214.13ZM92.531 213.369C91.1725 213.369 90.295 212.31 90.295 210.88C90.295 209.45 91.1725 208.397 92.531 208.397C93.883 208.397 94.7605 209.45 94.7605 210.88C94.7605 212.31 93.883 213.369 92.531 213.369ZM104.487 207.766L103.499 211.4C103.323 212.05 103.174 212.674 103.011 213.343C102.842 212.648 102.673 212.017 102.491 211.393L101.412 207.773H100.444L99.3581 211.393C99.1761 212.017 99.0071 212.648 98.8381 213.343C98.6756 212.674 98.5261 212.05 98.3571 211.4L97.3691 207.766H96.4851L98.2726 214H99.3516L100.541 210.067C100.684 209.593 100.795 209.125 100.925 208.631C101.055 209.125 101.172 209.593 101.315 210.067L102.498 214H103.577L105.364 207.766H104.487ZM116.371 207.636C115.292 207.636 114.59 208.156 114.252 208.975C114.005 208.098 113.414 207.636 112.387 207.636C111.34 207.636 110.677 208.117 110.339 208.884L110.352 207.766H109.54V214H110.385V210.711C110.385 209.255 111.061 208.41 112.237 208.41C113.232 208.41 113.557 209.014 113.557 210.321V214H114.395V210.711C114.395 209.255 115.065 208.41 116.241 208.41C117.242 208.41 117.567 209.034 117.567 210.321V214H118.406V210.23C118.406 208.566 117.821 207.636 116.371 207.636ZM122.962 214.13C124.84 214.13 126.056 212.732 126.056 210.88C126.056 209.027 124.84 207.636 122.962 207.636C121.083 207.636 119.861 209.027 119.861 210.88C119.861 212.732 121.083 214.13 122.962 214.13ZM122.962 213.369C121.603 213.369 120.726 212.31 120.726 210.88C120.726 209.45 121.603 208.397 122.962 208.397C124.314 208.397 125.191 209.45 125.191 210.88C125.191 212.31 124.314 213.369 122.962 213.369ZM128.417 209.04L128.43 207.766H127.618V214H128.456V210.698C128.456 209.073 129.698 208.267 130.913 208.585L130.972 207.695C129.821 207.441 128.84 207.948 128.417 209.04ZM137.298 210.756C137.298 208.891 136.277 207.636 134.522 207.636C132.761 207.636 131.63 209.06 131.63 210.867C131.63 212.713 132.806 214.13 134.62 214.13C135.881 214.13 136.817 213.545 137.181 212.433L136.511 212.199C136.212 212.94 135.627 213.389 134.62 213.389C133.372 213.389 132.585 212.459 132.488 211.127H137.291C137.298 210.997 137.298 210.873 137.298 210.756ZM134.522 208.364C135.679 208.364 136.355 209.125 136.446 210.425H132.507C132.637 209.209 133.359 208.364 134.522 208.364Z" fill="white"/>
<rect x="44.2" y="108.2" width="51.6" height="13.6" rx="6.8" stroke="#5375FF" stroke-width="0.4"/>
<rect x="107.2" y="108.2" width="41.6" height="13.6" rx="6.8" stroke="#5375FF" stroke-width="0.4"/>
<rect x="169.2" y="108.2" width="22.6" height="13.6" rx="6.8" stroke="#5375FF" stroke-width="0.4"/>
<g filter="url(#filter3_d)">
<rect x="330" width="241" height="252" rx="38" fill="white"/>
<rect x="330.5" y="0.5" width="240" height="251" rx="37.5" stroke="#D1D1D1"/>
</g>
<path d="M440.544 50.1235C442.76 50.1235 444.145 48.9795 444.333 46.8605L442.5 46.6135C442.286 48.115 441.525 48.5375 440.505 48.5375C439.042 48.5375 438.347 47.452 438.347 45.775C438.347 44.098 439.042 43.0125 440.505 43.0125C441.525 43.0125 442.292 43.4805 442.5 44.9365L444.333 44.6895C444.171 42.5705 442.76 41.4265 440.544 41.4265C437.898 41.4265 436.39 43.1945 436.39 45.775C436.39 48.3555 437.898 50.1235 440.544 50.1235ZM448.368 50.1235C450.435 50.1235 451.644 48.7455 451.644 46.7955C451.644 44.852 450.435 43.474 448.368 43.474C446.294 43.474 445.085 44.852 445.085 46.7955C445.085 48.7455 446.294 50.1235 448.368 50.1235ZM448.368 48.5765C447.419 48.5765 446.808 47.894 446.808 46.7955C446.808 45.7035 447.419 45.0275 448.368 45.0275C449.31 45.0275 449.915 45.7035 449.915 46.7955C449.915 47.894 449.31 48.5765 448.368 48.5765ZM460.043 43.474C459.068 43.474 458.451 43.929 458.132 44.696C457.859 43.9355 457.248 43.474 456.189 43.474C455.181 43.474 454.564 43.955 454.265 44.7675L454.252 43.5975H452.718V50H454.453V46.8995C454.453 45.6775 454.921 45.086 455.688 45.086C456.325 45.086 456.585 45.4955 456.585 46.36V50H458.314V46.8865L458.321 46.8995C458.321 45.6775 458.789 45.086 459.556 45.086C460.193 45.086 460.453 45.502 460.453 46.36V50H462.182V45.8985C462.182 44.4685 461.577 43.474 460.043 43.474ZM467.251 43.4805C466.23 43.4805 465.554 43.903 465.19 44.7025L465.164 43.5975H463.585V52.4505H465.327V49.116C465.71 49.766 466.347 50.1235 467.251 50.1235C468.973 50.1235 470.078 48.804 470.078 46.7955C470.078 44.7935 468.973 43.4805 467.251 43.4805ZM466.841 48.583C465.899 48.583 465.268 47.8615 465.268 46.7955C465.268 45.736 465.899 45.0405 466.841 45.0405C467.79 45.0405 468.323 45.7165 468.323 46.7955C468.323 47.881 467.79 48.583 466.841 48.583ZM477.143 48.57C476.805 48.57 476.721 48.4075 476.721 48.089V46.1455C476.721 44.9235 476.37 43.474 473.874 43.474C472.268 43.474 471.157 44.241 471.053 45.6905L472.723 45.8855C472.801 45.2095 473.172 44.891 473.88 44.891C474.758 44.891 475.018 45.411 475.018 46.126V46.3795C474.647 46.321 474.257 46.2885 473.835 46.2885C472.073 46.2885 470.838 46.789 470.838 48.141C470.838 49.285 471.625 50.117 473.022 50.117C474.082 50.117 474.855 49.727 475.206 49.0315C475.304 49.779 475.668 50.052 476.623 50.052C476.948 50.052 477.208 50.0325 477.494 49.961V48.544C477.371 48.5635 477.254 48.57 477.143 48.57ZM473.614 48.791C473.035 48.791 472.717 48.5505 472.717 48.076C472.717 47.595 473.146 47.3675 474.075 47.3675C474.407 47.3675 474.706 47.3935 475.018 47.452V48.1475C474.738 48.5505 474.218 48.791 473.614 48.791ZM482.034 43.474C480.961 43.474 480.279 43.994 479.96 44.865L479.947 43.5975H478.4V50H480.142V46.919C480.142 45.697 480.708 45.1055 481.54 45.1055C482.268 45.1055 482.586 45.515 482.586 46.3925V50H484.328V45.905C484.328 44.4555 483.652 43.474 482.034 43.474ZM489.794 43.5975L488.793 47.4325C488.67 47.907 488.559 48.3555 488.455 48.778C488.345 48.336 488.228 47.8615 488.111 47.4195L487.103 43.5975H485.134L487.227 50H487.974L487.922 50.1625C487.643 51.001 486.915 51.209 485.491 50.845L485.192 52.34C487.116 52.8145 488.904 52.4115 489.619 50.1625L491.764 43.5975H489.794Z" fill="black"/>
<g clip-path="url(#clip1)">
<g filter="url(#filter4_d)">
<path d="M530.628 194.286H517.371C511.88 194.286 507.428 198.738 507.428 204.229V217.486C507.428 222.977 511.88 227.429 517.371 227.429H530.628C536.12 227.429 540.571 222.977 540.571 217.486V204.229C540.571 198.738 536.12 194.286 530.628 194.286Z" fill="black"/>
</g>
<path d="M530.628 194.286H517.371C511.88 194.286 507.428 198.738 507.428 204.229V217.486C507.428 222.977 511.88 227.429 517.371 227.429H530.628C536.12 227.429 540.571 222.977 540.571 217.486V204.229C540.571 198.738 536.12 194.286 530.628 194.286Z" fill="#5375FF"/>
<path d="M531.115 203.741C530.828 203.454 530.421 203.338 530.027 203.43L530.021 203.432L517.007 206.617C515.758 206.923 514.885 208.034 514.885 209.321V211.038C514.885 211.664 515.381 212.176 516.001 212.202L520.896 213.035C520.999 213.053 521.105 213.019 521.179 212.945L526.948 207.176C527.15 206.974 527.478 206.974 527.68 207.176C527.882 207.378 527.882 207.707 527.68 207.909L521.912 213.677C521.837 213.752 521.804 213.857 521.821 213.961L522.654 218.856C522.681 219.476 523.193 219.971 523.818 219.971H525.536C526.822 219.971 527.934 219.099 528.239 217.85L531.425 204.836L531.426 204.83C531.517 204.435 531.401 204.029 531.115 203.741Z" fill="#FBFBFB"/>
</g>
<rect x="375" y="139" width="172" height="7" rx="2" fill="#B0AFAF"/>
<rect x="413" y="154" width="105" height="8" rx="2" fill="#B0AFAF"/>
<ellipse cx="400" cy="58" rx="25" ry="24" fill="#C4C4C4"/>
<rect x="436" y="58" width="73" height="3" rx="1.5" fill="#C4C4C4"/>
<g filter="url(#filter5_d)">
<rect x="376" y="195" width="113" height="31" rx="4" fill="#5375FF"/>
</g>
<path d="M404.024 214.13C405.811 214.13 406.799 213.194 406.806 211.79C406.812 210.158 405.486 209.775 404.069 209.365C402.763 208.982 401.898 208.683 401.898 207.656C401.898 206.772 402.535 206.187 403.77 206.187C405.233 206.187 405.863 207.025 405.954 208.273L406.734 208.104C406.695 206.291 405.551 205.42 403.803 205.42C402.171 205.42 400.995 206.226 400.995 207.714C400.995 209.255 402.223 209.749 403.699 210.145C405.051 210.522 405.915 210.789 405.915 211.829C405.915 212.901 405.168 213.356 404.037 213.356C402.36 213.356 401.521 212.576 401.547 211.107L400.722 211.237C400.683 213.278 402.171 214.13 404.024 214.13ZM411.699 207.636C410.666 207.636 409.892 208.15 409.502 208.949V204.926H408.651V214H409.502V210.73C409.502 209.281 410.386 208.429 411.556 208.429C412.622 208.429 413.136 209.027 413.136 210.353V214H413.987V210.23C413.987 208.527 413.233 207.636 411.699 207.636ZM418.531 214.13C420.409 214.13 421.625 212.732 421.625 210.88C421.625 209.027 420.409 207.636 418.531 207.636C416.652 207.636 415.43 209.027 415.43 210.88C415.43 212.732 416.652 214.13 418.531 214.13ZM418.531 213.369C417.172 213.369 416.295 212.31 416.295 210.88C416.295 209.45 417.172 208.397 418.531 208.397C419.883 208.397 420.76 209.45 420.76 210.88C420.76 212.31 419.883 213.369 418.531 213.369ZM430.487 207.766L429.499 211.4C429.323 212.05 429.174 212.674 429.011 213.343C428.842 212.648 428.673 212.017 428.491 211.393L427.412 207.773H426.444L425.358 211.393C425.176 212.017 425.007 212.648 424.838 213.343C424.676 212.674 424.526 212.05 424.357 211.4L423.369 207.766H422.485L424.273 214H425.352L426.541 210.067C426.684 209.593 426.795 209.125 426.925 208.631C427.055 209.125 427.172 209.593 427.315 210.067L428.498 214H429.577L431.364 207.766H430.487ZM442.371 207.636C441.292 207.636 440.59 208.156 440.252 208.975C440.005 208.098 439.414 207.636 438.387 207.636C437.34 207.636 436.677 208.117 436.339 208.884L436.352 207.766H435.54V214H436.385V210.711C436.385 209.255 437.061 208.41 438.237 208.41C439.232 208.41 439.557 209.014 439.557 210.321V214H440.395V210.711C440.395 209.255 441.065 208.41 442.241 208.41C443.242 208.41 443.567 209.034 443.567 210.321V214H444.406V210.23C444.406 208.566 443.821 207.636 442.371 207.636ZM448.962 214.13C450.84 214.13 452.056 212.732 452.056 210.88C452.056 209.027 450.84 207.636 448.962 207.636C447.083 207.636 445.861 209.027 445.861 210.88C445.861 212.732 447.083 214.13 448.962 214.13ZM448.962 213.369C447.603 213.369 446.726 212.31 446.726 210.88C446.726 209.45 447.603 208.397 448.962 208.397C450.314 208.397 451.191 209.45 451.191 210.88C451.191 212.31 450.314 213.369 448.962 213.369ZM454.417 209.04L454.43 207.766H453.618V214H454.456V210.698C454.456 209.073 455.698 208.267 456.913 208.585L456.972 207.695C455.821 207.441 454.84 207.948 454.417 209.04ZM463.298 210.756C463.298 208.891 462.277 207.636 460.522 207.636C458.761 207.636 457.63 209.06 457.63 210.867C457.63 212.713 458.806 214.13 460.62 214.13C461.881 214.13 462.817 213.545 463.181 212.433L462.511 212.199C462.212 212.94 461.627 213.389 460.62 213.389C459.372 213.389 458.585 212.459 458.488 211.127H463.291C463.298 210.997 463.298 210.873 463.298 210.756ZM460.522 208.364C461.679 208.364 462.355 209.125 462.446 210.425H458.507C458.637 209.209 459.359 208.364 460.522 208.364Z" fill="white"/>
<rect x="370.2" y="108.2" width="51.6" height="13.6" rx="6.8" stroke="#5375FF" stroke-width="0.4"/>
<rect x="433.2" y="108.2" width="41.6" height="13.6" rx="6.8" stroke="#5375FF" stroke-width="0.4"/>
<rect x="495.2" y="108.2" width="22.6" height="13.6" rx="6.8" stroke="#5375FF" stroke-width="0.4"/>
<g clip-path="url(#clip2)">
<path d="M305.302 124.029C303.961 123.522 302.357 123.522 300.941 123.409C299.45 123.277 297.958 123.165 296.448 123.052C293.522 122.846 290.596 122.658 287.651 122.507C284.725 122.376 281.799 122.263 278.873 122.169C277.382 122.132 275.872 122.094 274.381 122.076C272.908 122.057 271.36 121.907 269.888 122.076C267.415 122.357 267.339 125.775 269.888 125.963C271.36 126.076 272.908 125.888 274.381 125.85C275.872 125.813 277.382 125.775 278.873 125.738C281.799 125.681 284.744 125.662 287.67 125.681C290.596 125.7 293.522 125.738 296.467 125.831C297.958 125.869 299.45 125.925 300.96 125.982C302.394 126.038 303.924 126.226 305.32 125.907C306.321 125.681 306.132 124.348 305.302 124.029Z" fill="black"/>
<path d="M304.66 145.436C301.394 144.817 298.015 144.779 294.693 144.704C291.351 144.629 288.029 144.648 284.688 144.779C281.365 144.911 278.043 145.136 274.72 145.474C273.154 145.624 270.718 145.512 270.19 147.408C269.944 148.31 270.303 149.305 271.134 149.775C271.945 150.225 272.776 149.981 273.456 149.436C273.909 149.098 274.022 148.347 273.871 147.84C273.871 147.803 273.852 147.784 273.852 147.746C273.512 146.544 272.096 146.3 271.209 147.052C271.19 147.07 271.153 147.089 271.134 147.108C271.794 147.014 272.455 146.939 273.116 146.845C273.078 146.826 273.059 146.807 273.021 146.807C273.229 147.014 273.437 147.221 273.644 147.427C273.625 147.39 273.607 147.352 273.588 147.314C273.644 147.765 273.701 148.235 273.776 148.685C273.795 148.648 273.795 148.61 273.814 148.573C273.531 148.948 273.248 149.324 272.946 149.681C273.003 149.662 273.059 149.624 273.116 149.605C272.776 149.699 272.455 149.793 272.115 149.868C274.701 149.662 277.307 149.117 279.893 148.836C282.592 148.535 285.311 148.31 288.029 148.141C290.747 147.972 293.466 147.897 296.184 147.859C298.902 147.84 301.621 147.99 304.339 147.821C305.641 147.784 306.113 145.699 304.66 145.436Z" fill="black"/>
</g>
<defs>
<filter id="filter0_d" x="0" y="0" width="249" height="260" filterUnits="userSpaceOnUse" color-interpolation-filters="sRGB">
<feFlood flood-opacity="0" result="BackgroundImageFix"/>
<feColorMatrix in="SourceAlpha" type="matrix" values="0 0 0 0 0 0 0 0 0 0 0 0 0 0 0 0 0 0 127 0"/>
<feOffset dy="4"/>
<feGaussianBlur stdDeviation="2"/>
<feColorMatrix type="matrix" values="0 0 0 0 0 0 0 0 0 0 0 0 0 0 0 0 0 0 0.25 0"/>
<feBlend mode="normal" in2="BackgroundImageFix" result="effect1_dropShadow"/>
<feBlend mode="normal" in="SourceGraphic" in2="effect1_dropShadow" result="shape"/>
</filter>
<filter id="filter1_d" x="166.428" y="184.286" width="63.1429" height="63.1429" filterUnits="userSpaceOnUse" color-interpolation-filters="sRGB">
<feFlood flood-opacity="0" result="BackgroundImageFix"/>
<feColorMatrix in="SourceAlpha" type="matrix" values="0 0 0 0 0 0 0 0 0 0 0 0 0 0 0 0 0 0 127 0"/>
<feOffset dy="5"/>
<feGaussianBlur stdDeviation="7.5"/>
<feColorMatrix type="matrix" values="0 0 0 0 0.0470588 0 0 0 0 0.0666667 0 0 0 0 0.109804 0 0 0 0.151825 0"/>
<feBlend mode="normal" in2="BackgroundImageFix" result="effect1_dropShadow"/>
<feBlend mode="normal" in="SourceGraphic" in2="effect1_dropShadow" result="shape"/>
</filter>
<filter id="filter2_d" x="46" y="193" width="121" height="39" filterUnits="userSpaceOnUse" color-interpolation-filters="sRGB">
<feFlood flood-opacity="0" result="BackgroundImageFix"/>
<feColorMatrix in="SourceAlpha" type="matrix" values="0 0 0 0 0 0 0 0 0 0 0 0 0 0 0 0 0 0 127 0"/>
<feOffset dy="2"/>
<feGaussianBlur stdDeviation="2"/>
<feColorMatrix type="matrix" values="0 0 0 0 0 0 0 0 0 0 0 0 0 0 0 0 0 0 0.25 0"/>
<feBlend mode="normal" in2="BackgroundImageFix" result="effect1_dropShadow"/>
<feBlend mode="normal" in="SourceGraphic" in2="effect1_dropShadow" result="shape"/>
</filter>
<filter id="filter3_d" x="326" y="0" width="249" height="260" filterUnits="userSpaceOnUse" color-interpolation-filters="sRGB">
<feFlood flood-opacity="0" result="BackgroundImageFix"/>
<feColorMatrix in="SourceAlpha" type="matrix" values="0 0 0 0 0 0 0 0 0 0 0 0 0 0 0 0 0 0 127 0"/>
<feOffset dy="4"/>
<feGaussianBlur stdDeviation="2"/>
<feColorMatrix type="matrix" values="0 0 0 0 0 0 0 0 0 0 0 0 0 0 0 0 0 0 0.25 0"/>
<feBlend mode="normal" in2="BackgroundImageFix" result="effect1_dropShadow"/>
<feBlend mode="normal" in="SourceGraphic" in2="effect1_dropShadow" result="shape"/>
</filter>
<filter id="filter4_d" x="492.428" y="184.286" width="63.1429" height="63.1429" filterUnits="userSpaceOnUse" color-interpolation-filters="sRGB">
<feFlood flood-opacity="0" result="BackgroundImageFix"/>
<feColorMatrix in="SourceAlpha" type="matrix" values="0 0 0 0 0 0 0 0 0 0 0 0 0 0 0 0 0 0 127 0"/>
<feOffset dy="5"/>
<feGaussianBlur stdDeviation="7.5"/>
<feColorMatrix type="matrix" values="0 0 0 0 0.0470588 0 0 0 0 0.0666667 0 0 0 0 0.109804 0 0 0 0.151825 0"/>
<feBlend mode="normal" in2="BackgroundImageFix" result="effect1_dropShadow"/>
<feBlend mode="normal" in="SourceGraphic" in2="effect1_dropShadow" result="shape"/>
</filter>
<filter id="filter5_d" x="372" y="193" width="121" height="39" filterUnits="userSpaceOnUse" color-interpolation-filters="sRGB">
<feFlood flood-opacity="0" result="BackgroundImageFix"/>
<feColorMatrix in="SourceAlpha" type="matrix" values="0 0 0 0 0 0 0 0 0 0 0 0 0 0 0 0 0 0 127 0"/>
<feOffset dy="2"/>
<feGaussianBlur stdDeviation="2"/>
<feColorMatrix type="matrix" values="0 0 0 0 0 0 0 0 0 0 0 0 0 0 0 0 0 0 0.25 0"/>
<feBlend mode="normal" in2="BackgroundImageFix" result="effect1_dropShadow"/>
<feBlend mode="normal" in="SourceGraphic" in2="effect1_dropShadow" result="shape"/>
</filter>
<clipPath id="clip0">
<rect width="58" height="58" fill="white" transform="translate(169 186)"/>
</clipPath>
<clipPath id="clip1">
<rect width="58" height="58" fill="white" transform="translate(495 186)"/>
</clipPath>
<clipPath id="clip2">
<rect width="38" height="28" fill="white" transform="translate(268 122)"/>
</clipPath>
</defs>
</svg>
