<svg width="290" height="366" viewBox="0 0 290 366" fill="none" xmlns="http://www.w3.org/2000/svg">
<path d="M132.48 18.18C136.116 18.18 138.249 15.678 138.249 12.15C138.249 8.622 136.116 6.12 132.48 6.12C128.853 6.12 126.711 8.622 126.711 12.15C126.711 15.678 128.853 18.18 132.48 18.18ZM132.48 16.461C130.113 16.461 128.772 14.733 128.772 12.15C128.772 9.567 130.113 7.839 132.48 7.839C134.838 7.839 136.188 9.567 136.188 12.15C136.188 14.733 134.838 16.461 132.48 16.461ZM149.899 6.84C150.421 6.84 150.898 6.984 151.348 7.317L151.96 5.859C151.303 5.409 150.592 5.256 149.809 5.256C147.784 5.256 146.614 6.381 146.614 8.424V18H148.486V10.8H151.051V9.234H148.486V8.415C148.486 7.299 148.945 6.84 149.899 6.84ZM144.076 7.02C144.454 7.02 144.814 7.101 145.147 7.272L145.732 5.805C145.192 5.535 144.607 5.436 143.986 5.436C141.961 5.436 140.791 6.561 140.791 8.604V9.234H139.261V10.8H140.791V18.027H142.663V10.8H145.156V9.234H142.663V8.577C142.663 7.479 143.122 7.02 144.076 7.02ZM159.955 13.464C159.955 10.809 158.443 9.063 155.923 9.063C153.349 9.063 151.711 11.025 151.711 13.617C151.711 16.254 153.349 18.18 156.04 18.18C157.948 18.18 159.343 17.298 159.793 15.534L158.245 15.201C157.93 16.101 157.246 16.605 156.031 16.605C154.645 16.605 153.781 15.714 153.592 14.202H159.919C159.946 13.932 159.955 13.698 159.955 13.464ZM155.914 10.602C157.174 10.602 157.984 11.385 158.092 12.825H153.61C153.817 11.439 154.645 10.602 155.914 10.602ZM163.484 11.025L163.475 9.234H161.774V18H163.592V13.806C163.592 11.646 165.221 10.755 166.841 11.106V9.117C165.257 8.802 164.033 9.576 163.484 11.025Z" fill="#5375FF"/>
<path d="M9.648 52.751C9.648 50.573 7.983 49.916 5.931 49.34C4.014 48.8 3.141 48.449 3.141 47.351C3.141 46.397 3.852 45.776 5.211 45.776C6.885 45.776 7.686 46.694 7.83 48.314L9.558 47.999C9.432 45.704 8.217 44.453 6.138 44.183V42.572H4.428V44.174C2.511 44.417 1.152 45.56 1.152 47.495C1.152 49.655 2.736 50.393 4.968 50.978C6.75 51.455 7.668 51.77 7.668 52.886C7.668 54.02 6.885 54.524 5.553 54.524C3.609 54.524 2.673 53.597 2.655 51.833L0.828 52.067C0.855 54.569 2.358 55.793 4.428 56.09V57.692H6.138V56.144C8.307 55.955 9.648 54.704 9.648 52.751ZM15.955 56.18C19.051 56.18 20.572 53.813 20.572 50.15C20.572 46.496 19.006 44.129 15.955 44.129C12.913 44.129 11.347 46.496 11.347 50.15C11.347 53.813 12.868 56.18 15.955 56.18ZM15.955 54.488C14.182 54.488 13.363 52.751 13.363 50.15C13.363 47.558 14.182 45.812 15.955 45.812C17.737 45.812 18.547 47.558 18.547 50.15C18.547 52.751 17.737 54.488 15.955 54.488Z" fill="#9F9F9F"/>
<path d="M274.413 56L270.912 50.06L274.224 44.3H271.731L269.472 48.827L267.096 44.3H264.621L268.05 50.06L264.414 56H266.898L269.472 51.257L271.947 56H274.413Z" fill="#9F9F9F"/>
<rect x="34" y="44" width="223" height="12" rx="6" fill="#E6E6E6"/>
<g filter="url(#filter0_d)">
<rect x="151" y="30" width="39" height="12" rx="6" transform="rotate(90 151 30)" fill="#5375FF"/>
</g>
<g filter="url(#filter1_d)">
<rect x="26" y="106" width="241" height="252" rx="38" fill="white"/>
<rect x="26.5" y="106.5" width="240" height="251" rx="37.5" stroke="#D1D1D1"/>
</g>
<path d="M136.544 156.124C138.76 156.124 140.145 154.979 140.333 152.86L138.5 152.613C138.286 154.115 137.525 154.537 136.505 154.537C135.042 154.537 134.347 153.452 134.347 151.775C134.347 150.098 135.042 149.012 136.505 149.012C137.525 149.012 138.292 149.48 138.5 150.936L140.333 150.689C140.171 148.57 138.76 147.426 136.544 147.426C133.898 147.426 132.39 149.194 132.39 151.775C132.39 154.355 133.898 156.124 136.544 156.124ZM145.596 149.597V152.737C145.596 153.965 145.031 154.55 144.199 154.55C143.477 154.55 143.152 154.141 143.152 153.263V149.597H141.41V153.692C141.41 155.135 142.086 156.117 143.705 156.117C144.771 156.117 145.453 155.61 145.772 154.752L145.869 156H147.338V149.597H145.596ZM151.465 156.124C153.071 156.124 154.078 155.35 154.078 154.141C154.085 152.951 153.279 152.522 151.563 152.145C150.581 151.931 150.334 151.742 150.334 151.372C150.334 151.034 150.588 150.793 151.225 150.793C151.914 150.793 152.343 151.112 152.421 151.879L154 151.736C153.916 150.364 153.11 149.474 151.218 149.474C149.769 149.474 148.677 150.176 148.67 151.469C148.664 152.652 149.424 153.153 151.212 153.523C152.057 153.692 152.388 153.816 152.388 154.225C152.388 154.602 152.109 154.804 151.452 154.804C150.705 154.804 150.191 154.524 150.094 153.725L148.449 153.874C148.566 155.447 149.853 156.124 151.465 156.124ZM159.176 154.42C158.91 154.511 158.669 154.557 158.37 154.557C157.714 154.557 157.499 154.199 157.499 153.556V151.066H159.313V149.597H157.499V147.602L155.757 147.849V149.597H154.672V151.066H155.757V153.79C155.757 155.246 156.466 156.085 158.039 156.085C158.565 156.085 159.014 156.013 159.449 155.87L159.176 154.42ZM163.271 156.124C165.338 156.124 166.547 154.745 166.547 152.795C166.547 150.852 165.338 149.474 163.271 149.474C161.198 149.474 159.989 150.852 159.989 152.795C159.989 154.745 161.198 156.124 163.271 156.124ZM163.271 154.576C162.322 154.576 161.711 153.894 161.711 152.795C161.711 151.703 162.322 151.027 163.271 151.027C164.214 151.027 164.818 151.703 164.818 152.795C164.818 153.894 164.214 154.576 163.271 154.576ZM174.946 149.474C173.971 149.474 173.354 149.929 173.035 150.696C172.762 149.935 172.151 149.474 171.092 149.474C170.084 149.474 169.467 149.955 169.168 150.767L169.155 149.597H167.621V156H169.356V152.899C169.356 151.677 169.824 151.086 170.591 151.086C171.228 151.086 171.488 151.495 171.488 152.36V156H173.217V152.886L173.224 152.899C173.224 151.677 173.692 151.086 174.459 151.086C175.096 151.086 175.356 151.502 175.356 152.36V156H177.085V151.898C177.085 150.468 176.48 149.474 174.946 149.474ZM184.286 152.704C184.286 150.735 183.142 149.474 181.264 149.474C179.34 149.474 178.118 150.897 178.118 152.802C178.118 154.745 179.294 156.124 181.316 156.124C182.798 156.124 183.877 155.421 184.169 154.043L182.7 153.816C182.538 154.401 182.089 154.693 181.309 154.693C180.49 154.693 179.983 154.206 179.847 153.276H184.254C184.28 153.055 184.286 152.88 184.286 152.704ZM181.264 150.884C181.992 150.884 182.499 151.313 182.57 152.178H179.86C180.009 151.333 180.516 150.884 181.264 150.884ZM186.916 150.93L186.896 149.597H185.369V155.993H187.098V153.114C187.098 151.651 188.138 151.151 189.269 151.385V149.506C188.086 149.298 187.273 149.909 186.916 150.93Z" fill="black"/>
<g clip-path="url(#clip0)">
<g filter="url(#filter2_d)">
<path d="M226.628 300.285H213.371C207.88 300.285 203.428 304.737 203.428 310.228V323.485C203.428 328.976 207.88 333.428 213.371 333.428H226.628C232.12 333.428 236.571 328.976 236.571 323.485V310.228C236.571 304.737 232.12 300.285 226.628 300.285Z" fill="black"/>
</g>
<path d="M226.628 300.285H213.371C207.88 300.285 203.428 304.737 203.428 310.228V323.485C203.428 328.976 207.88 333.428 213.371 333.428H226.628C232.12 333.428 236.571 328.976 236.571 323.485V310.228C236.571 304.737 232.12 300.285 226.628 300.285Z" fill="#5375FF"/>
<path d="M227.116 309.74C226.828 309.453 226.421 309.337 226.027 309.429L226.021 309.431L213.007 312.616C211.758 312.922 210.885 314.033 210.885 315.32V317.037C210.885 317.663 211.381 318.175 212.001 318.201L216.896 319.034C217 319.052 217.105 319.018 217.179 318.944L222.948 313.175C223.15 312.973 223.478 312.973 223.68 313.175C223.882 313.378 223.882 313.706 223.68 313.908L217.912 319.676C217.837 319.751 217.804 319.856 217.821 319.96L218.654 324.855C218.681 325.475 219.193 325.97 219.818 325.97H221.536C222.822 325.97 223.934 325.098 224.24 323.849L227.425 310.835L227.426 310.829C227.517 310.434 227.401 310.028 227.116 309.74Z" fill="#FBFBFB"/>
</g>
<rect x="71" y="245" width="172" height="7" rx="2" fill="#B0AFAF"/>
<rect x="109" y="260" width="105" height="8" rx="2" fill="#B0AFAF"/>
<ellipse cx="96" cy="164" rx="25" ry="24" fill="#C4C4C4"/>
<rect x="132" y="164" width="73" height="3" rx="1.5" fill="#C4C4C4"/>
<g filter="url(#filter3_d)">
<rect x="72" y="301" width="113" height="31" rx="4" fill="#5375FF"/>
</g>
<path d="M100.024 320.13C101.811 320.13 102.799 319.194 102.806 317.79C102.812 316.158 101.486 315.775 100.069 315.365C98.7625 314.982 97.898 314.683 97.898 313.656C97.898 312.772 98.535 312.187 99.77 312.187C101.233 312.187 101.863 313.025 101.954 314.273L102.734 314.104C102.695 312.291 101.551 311.42 99.8025 311.42C98.171 311.42 96.9945 312.226 96.9945 313.714C96.9945 315.255 98.223 315.749 99.6985 316.145C101.051 316.522 101.915 316.789 101.915 317.829C101.915 318.901 101.168 319.356 100.037 319.356C98.3595 319.356 97.521 318.576 97.547 317.107L96.7215 317.237C96.6825 319.278 98.171 320.13 100.024 320.13ZM107.699 313.636C106.666 313.636 105.892 314.15 105.502 314.949V310.926H104.651V320H105.502V316.73C105.502 315.281 106.386 314.429 107.556 314.429C108.622 314.429 109.136 315.027 109.136 316.353V320H109.987V316.23C109.987 314.527 109.233 313.636 107.699 313.636ZM114.531 320.13C116.409 320.13 117.625 318.732 117.625 316.88C117.625 315.027 116.409 313.636 114.531 313.636C112.652 313.636 111.43 315.027 111.43 316.88C111.43 318.732 112.652 320.13 114.531 320.13ZM114.531 319.369C113.172 319.369 112.295 318.31 112.295 316.88C112.295 315.45 113.172 314.397 114.531 314.397C115.883 314.397 116.76 315.45 116.76 316.88C116.76 318.31 115.883 319.369 114.531 319.369ZM126.487 313.766L125.499 317.4C125.323 318.05 125.174 318.674 125.011 319.343C124.842 318.648 124.673 318.017 124.491 317.393L123.412 313.773H122.444L121.358 317.393C121.176 318.017 121.007 318.648 120.838 319.343C120.676 318.674 120.526 318.05 120.357 317.4L119.369 313.766H118.485L120.273 320H121.352L122.541 316.067C122.684 315.593 122.795 315.125 122.925 314.631C123.055 315.125 123.172 315.593 123.315 316.067L124.498 320H125.577L127.364 313.766H126.487ZM138.371 313.636C137.292 313.636 136.59 314.156 136.252 314.975C136.005 314.098 135.414 313.636 134.387 313.636C133.34 313.636 132.677 314.117 132.339 314.884L132.352 313.766H131.54V320H132.385V316.711C132.385 315.255 133.061 314.41 134.237 314.41C135.232 314.41 135.557 315.014 135.557 316.321V320H136.395V316.711C136.395 315.255 137.065 314.41 138.241 314.41C139.242 314.41 139.567 315.034 139.567 316.321V320H140.406V316.23C140.406 314.566 139.821 313.636 138.371 313.636ZM144.962 320.13C146.84 320.13 148.056 318.732 148.056 316.88C148.056 315.027 146.84 313.636 144.962 313.636C143.083 313.636 141.861 315.027 141.861 316.88C141.861 318.732 143.083 320.13 144.962 320.13ZM144.962 319.369C143.603 319.369 142.726 318.31 142.726 316.88C142.726 315.45 143.603 314.397 144.962 314.397C146.314 314.397 147.191 315.45 147.191 316.88C147.191 318.31 146.314 319.369 144.962 319.369ZM150.417 315.04L150.43 313.766H149.618V320H150.456V316.698C150.456 315.073 151.698 314.267 152.913 314.585L152.972 313.695C151.821 313.441 150.84 313.948 150.417 315.04ZM159.298 316.756C159.298 314.891 158.277 313.636 156.522 313.636C154.761 313.636 153.63 315.06 153.63 316.867C153.63 318.713 154.806 320.13 156.62 320.13C157.881 320.13 158.817 319.545 159.181 318.433L158.511 318.199C158.212 318.94 157.627 319.389 156.62 319.389C155.372 319.389 154.585 318.459 154.488 317.127H159.291C159.298 316.997 159.298 316.873 159.298 316.756ZM156.522 314.364C157.679 314.364 158.355 315.125 158.446 316.425H154.507C154.637 315.209 155.359 314.364 156.522 314.364Z" fill="white"/>
<rect x="66.2" y="214.2" width="51.6" height="13.6" rx="6.8" stroke="#5375FF" stroke-width="0.4"/>
<rect x="129.2" y="214.2" width="41.6" height="13.6" rx="6.8" stroke="#5375FF" stroke-width="0.4"/>
<rect x="191.2" y="214.2" width="22.6" height="13.6" rx="6.8" stroke="#5375FF" stroke-width="0.4"/>
<defs>
<filter id="filter0_d" x="135" y="30" width="20" height="47" filterUnits="userSpaceOnUse" color-interpolation-filters="sRGB">
<feFlood flood-opacity="0" result="BackgroundImageFix"/>
<feColorMatrix in="SourceAlpha" type="matrix" values="0 0 0 0 0 0 0 0 0 0 0 0 0 0 0 0 0 0 127 0"/>
<feOffset dy="4"/>
<feGaussianBlur stdDeviation="2"/>
<feColorMatrix type="matrix" values="0 0 0 0 0 0 0 0 0 0 0 0 0 0 0 0 0 0 0.25 0"/>
<feBlend mode="normal" in2="BackgroundImageFix" result="effect1_dropShadow"/>
<feBlend mode="normal" in="SourceGraphic" in2="effect1_dropShadow" result="shape"/>
</filter>
<filter id="filter1_d" x="22" y="106" width="249" height="260" filterUnits="userSpaceOnUse" color-interpolation-filters="sRGB">
<feFlood flood-opacity="0" result="BackgroundImageFix"/>
<feColorMatrix in="SourceAlpha" type="matrix" values="0 0 0 0 0 0 0 0 0 0 0 0 0 0 0 0 0 0 127 0"/>
<feOffset dy="4"/>
<feGaussianBlur stdDeviation="2"/>
<feColorMatrix type="matrix" values="0 0 0 0 0 0 0 0 0 0 0 0 0 0 0 0 0 0 0.25 0"/>
<feBlend mode="normal" in2="BackgroundImageFix" result="effect1_dropShadow"/>
<feBlend mode="normal" in="SourceGraphic" in2="effect1_dropShadow" result="shape"/>
</filter>
<filter id="filter2_d" x="188.428" y="290.285" width="63.1429" height="63.1429" filterUnits="userSpaceOnUse" color-interpolation-filters="sRGB">
<feFlood flood-opacity="0" result="BackgroundImageFix"/>
<feColorMatrix in="SourceAlpha" type="matrix" values="0 0 0 0 0 0 0 0 0 0 0 0 0 0 0 0 0 0 127 0"/>
<feOffset dy="5"/>
<feGaussianBlur stdDeviation="7.5"/>
<feColorMatrix type="matrix" values="0 0 0 0 0.0470588 0 0 0 0 0.0666667 0 0 0 0 0.109804 0 0 0 0.151825 0"/>
<feBlend mode="normal" in2="BackgroundImageFix" result="effect1_dropShadow"/>
<feBlend mode="normal" in="SourceGraphic" in2="effect1_dropShadow" result="shape"/>
</filter>
<filter id="filter3_d" x="68" y="299" width="121" height="39" filterUnits="userSpaceOnUse" color-interpolation-filters="sRGB">
<feFlood flood-opacity="0" result="BackgroundImageFix"/>
<feColorMatrix in="SourceAlpha" type="matrix" values="0 0 0 0 0 0 0 0 0 0 0 0 0 0 0 0 0 0 127 0"/>
<feOffset dy="2"/>
<feGaussianBlur stdDeviation="2"/>
<feColorMatrix type="matrix" values="0 0 0 0 0 0 0 0 0 0 0 0 0 0 0 0 0 0 0.25 0"/>
<feBlend mode="normal" in2="BackgroundImageFix" result="effect1_dropShadow"/>
<feBlend mode="normal" in="SourceGraphic" in2="effect1_dropShadow" result="shape"/>
</filter>
<clipPath id="clip0">
<rect width="58" height="58" fill="white" transform="translate(191 292)"/>
</clipPath>
</defs>
</svg>
