<svg width="416" height="245" viewBox="0 0 416 245" fill="none" xmlns="http://www.w3.org/2000/svg">
<path d="M281.174 110.428C273.187 101.445 262.107 96.4961 249.973 96.4961C232.898 96.4961 222.093 106.597 216.034 115.069C214.462 117.264 213.118 119.468 212 121.549C210.874 119.468 209.538 117.264 207.966 115.069C201.907 106.597 191.102 96.5042 174.027 96.5042C161.893 96.5042 150.813 101.445 142.818 110.428C135.212 118.99 131 130.467 131 142.731C131 156.08 136.265 168.497 147.565 181.805C157.657 193.704 172.189 205.968 189.012 220.167C195.282 225.456 201.762 230.924 208.663 236.91L208.873 237.088C209.764 237.865 210.882 238.254 212 238.254C213.118 238.254 214.228 237.865 215.127 237.088L215.337 236.91C222.238 230.924 228.718 225.456 234.988 220.167C251.812 205.968 266.335 193.704 276.436 181.805C287.735 168.497 293 156.08 293 142.731C293 130.467 288.804 118.998 281.174 110.428ZM228.84 213.006C223.437 217.567 217.873 222.265 212.008 227.311C206.144 222.265 200.587 217.567 195.176 213.006C162.25 185.223 140.501 166.861 140.501 142.731C140.501 132.752 143.855 123.493 149.946 116.649C156.11 109.715 164.664 105.9 174.035 105.9C187.052 105.9 195.468 113.838 200.231 120.504C204.507 126.482 206.735 132.501 207.496 134.809C208.128 136.753 209.951 138.057 212.008 138.057C214.066 138.057 215.888 136.745 216.52 134.817C217.281 132.501 219.517 126.474 223.786 120.504C228.548 113.846 236.964 105.9 249.973 105.9C259.353 105.9 267.906 109.715 274.07 116.641C280.162 123.493 283.515 132.76 283.515 142.723C283.515 166.861 261.766 185.223 228.84 213.006Z" fill="#5375FF"/>
<path d="M151.985 9.31203C149.274 6.26228 145.511 4.58203 141.392 4.58203C135.595 4.58203 131.927 8.01128 129.87 10.8878C129.336 11.633 128.879 12.381 128.5 13.0878C128.118 12.381 127.664 11.633 127.13 10.8878C125.073 8.01128 121.405 4.58478 115.608 4.58478C111.488 4.58478 107.727 6.26228 105.012 9.31203C102.43 12.2188 101 16.1155 101 20.279C101 24.811 102.788 29.0268 106.624 33.545C110.05 37.5848 114.984 41.7483 120.696 46.569C122.824 48.3648 125.024 50.221 127.367 52.2533L127.439 52.3138C127.741 52.5778 128.121 52.7098 128.5 52.7098C128.879 52.7098 129.256 52.5778 129.561 52.3138L129.633 52.2533C131.976 50.221 134.176 48.3648 136.305 46.569C142.016 41.7483 146.947 37.5848 150.376 33.545C154.213 29.0268 156 24.811 156 20.279C156 16.1155 154.576 12.2215 151.985 9.31203ZM134.217 44.138C132.383 45.6863 130.494 47.2813 128.503 48.9945C126.512 47.2813 124.625 45.6863 122.788 44.138C111.609 34.7055 104.226 28.4713 104.226 20.279C104.226 16.891 105.364 13.7478 107.432 11.424C109.525 9.07003 112.429 7.77478 115.611 7.77478C120.03 7.77478 122.887 10.4698 124.504 12.733C125.956 14.7625 126.713 16.8058 126.971 17.5895C127.186 18.2495 127.804 18.6923 128.503 18.6923C129.201 18.6923 129.82 18.2468 130.034 17.5923C130.293 16.8058 131.052 14.7598 132.501 12.733C134.118 10.4725 136.975 7.77478 141.392 7.77478C144.576 7.77478 147.48 9.07003 149.573 11.4213C151.641 13.7478 152.78 16.8938 152.78 20.2763C152.78 28.4713 145.396 34.7055 134.217 44.138Z" fill="#5375FF"/>
<path d="M86.248 30.984H79.168V23.64H76.24V30.984H69.16V33.84H76.24V41.184H79.168V33.84H86.248V30.984Z" fill="#5375FF"/>
<path d="M315.985 14.312C313.274 11.2623 309.511 9.58203 305.392 9.58203C299.595 9.58203 295.927 13.0113 293.87 15.8878C293.336 16.633 292.879 17.381 292.5 18.0878C292.118 17.381 291.664 16.633 291.13 15.8878C289.073 13.0113 285.405 9.58478 279.608 9.58478C275.488 9.58478 271.727 11.2623 269.012 14.312C266.43 17.2188 265 21.1155 265 25.279C265 29.811 266.788 34.0268 270.624 38.545C274.05 42.5848 278.984 46.7483 284.696 51.569C286.824 53.3648 289.024 55.221 291.367 57.2533L291.439 57.3138C291.741 57.5778 292.121 57.7098 292.5 57.7098C292.879 57.7098 293.256 57.5778 293.561 57.3138L293.633 57.2533C295.976 55.221 298.176 53.3648 300.305 51.569C306.016 46.7483 310.947 42.5848 314.376 38.545C318.213 34.0268 320 29.811 320 25.279C320 21.1155 318.576 17.2215 315.985 14.312ZM298.217 49.138C296.383 50.6863 294.494 52.2813 292.503 53.9945C290.512 52.2813 288.625 50.6863 286.788 49.138C275.609 39.7055 268.226 33.4713 268.226 25.279C268.226 21.891 269.364 18.7478 271.432 16.424C273.525 14.07 276.429 12.7748 279.611 12.7748C284.03 12.7748 286.887 15.4698 288.504 17.733C289.956 19.7625 290.713 21.8058 290.971 22.5895C291.186 23.2495 291.804 23.6923 292.503 23.6923C293.201 23.6923 293.82 23.2468 294.034 22.5923C294.293 21.8058 295.052 19.7598 296.501 17.733C298.118 15.4725 300.975 12.7748 305.392 12.7748C308.576 12.7748 311.48 14.07 313.573 16.4213C315.641 18.7478 316.78 21.8938 316.78 25.2763C316.78 33.4713 309.396 39.7055 298.217 49.138Z" fill="#5375FF"/>
<path d="M250.248 35.984H243.168V28.64H240.24V35.984H233.16V38.84H240.24V46.184H243.168V38.84H250.248V35.984Z" fill="#5375FF"/>
<path d="M411.985 95.312C409.274 92.2623 405.511 90.582 401.392 90.582C395.595 90.582 391.927 94.0113 389.87 96.8878C389.336 97.633 388.879 98.381 388.5 99.0878C388.118 98.381 387.664 97.633 387.13 96.8878C385.073 94.0113 381.405 90.5848 375.608 90.5848C371.488 90.5848 367.727 92.2623 365.012 95.312C362.43 98.2188 361 102.116 361 106.279C361 110.811 362.788 115.027 366.624 119.545C370.05 123.585 374.984 127.748 380.696 132.569C382.824 134.365 385.024 136.221 387.367 138.253L387.439 138.314C387.741 138.578 388.121 138.71 388.5 138.71C388.879 138.71 389.256 138.578 389.561 138.314L389.633 138.253C391.976 136.221 394.176 134.365 396.305 132.569C402.016 127.748 406.947 123.585 410.376 119.545C414.213 115.027 416 110.811 416 106.279C416 102.116 414.576 98.2215 411.985 95.312ZM394.217 130.138C392.383 131.686 390.494 133.281 388.503 134.995C386.512 133.281 384.625 131.686 382.788 130.138C371.609 120.706 364.226 114.471 364.226 106.279C364.226 102.891 365.364 99.7478 367.432 97.424C369.525 95.07 372.429 93.7748 375.611 93.7748C380.03 93.7748 382.887 96.4698 384.504 98.733C385.956 100.763 386.713 102.806 386.971 103.59C387.186 104.25 387.804 104.692 388.503 104.692C389.201 104.692 389.82 104.247 390.034 103.592C390.293 102.806 391.052 100.76 392.501 98.733C394.118 96.4725 396.975 93.7748 401.392 93.7748C404.576 93.7748 407.48 95.07 409.573 97.4213C411.641 99.7478 412.78 102.894 412.78 106.276C412.78 114.471 405.396 120.706 394.217 130.138Z" fill="#5375FF"/>
<path d="M346.248 116.984H339.168V109.64H336.24V116.984H329.16V119.84H336.24V127.184H339.168V119.84H346.248V116.984Z" fill="#5375FF"/>
<path d="M84.985 105.312C82.2735 102.262 78.5115 100.582 74.392 100.582C68.595 100.582 64.9265 104.011 62.8695 106.888C62.336 107.633 61.8795 108.381 61.5 109.088C61.1178 108.381 60.664 107.633 60.1305 106.888C58.0735 104.011 54.405 100.585 48.608 100.585C44.4885 100.585 40.7265 102.262 38.0122 105.312C35.43 108.219 34 112.116 34 116.279C34 120.811 35.7875 125.027 39.6238 129.545C43.0503 133.585 47.9838 137.748 53.6955 142.569C55.824 144.365 58.024 146.221 60.367 148.253L60.4385 148.314C60.741 148.578 61.1205 148.71 61.5 148.71C61.8795 148.71 62.2562 148.578 62.5615 148.314L62.633 148.253C64.976 146.221 67.176 144.365 69.3045 142.569C75.0163 137.748 79.947 133.585 83.3763 129.545C87.2125 125.027 89 120.811 89 116.279C89 112.116 87.5755 108.222 84.985 105.312ZM67.2173 140.138C65.383 141.686 63.4938 143.281 61.5028 144.995C59.5118 143.281 57.6252 141.686 55.7882 140.138C44.6095 130.706 37.2257 124.471 37.2257 116.279C37.2257 112.891 38.3643 109.748 40.4323 107.424C42.525 105.07 45.429 103.775 48.6108 103.775C53.03 103.775 55.8872 106.47 57.5042 108.733C58.9562 110.763 59.7125 112.806 59.971 113.59C60.1855 114.25 60.8043 114.692 61.5028 114.692C62.2013 114.692 62.82 114.247 63.0345 113.592C63.293 112.806 64.052 110.76 65.5012 108.733C67.1182 106.473 69.9755 103.775 74.392 103.775C77.5765 103.775 80.4805 105.07 82.5732 107.421C84.6413 109.748 85.7798 112.894 85.7798 116.276C85.7798 124.471 78.396 130.706 67.2173 140.138Z" fill="#5375FF"/>
<path d="M19.248 126.984H12.168V119.64H9.24V126.984H2.16V129.84H9.24V137.184H12.168V129.84H19.248V126.984Z" fill="#5375FF"/>
</svg>
