<svg width="384" height="366" viewBox="0 0 384 366" fill="none" xmlns="http://www.w3.org/2000/svg">
<g filter="url(#filter0_d)">
<rect x="4" width="376" height="358" rx="38" fill="white"/>
<rect x="4.5" y="0.5" width="375" height="357" rx="37.5" stroke="#D1D1D1"/>
</g>
<path d="M114.544 50.1235C116.76 50.1235 118.145 48.9795 118.333 46.8605L116.5 46.6135C116.286 48.115 115.525 48.5375 114.505 48.5375C113.042 48.5375 112.347 47.452 112.347 45.775C112.347 44.098 113.042 43.0125 114.505 43.0125C115.525 43.0125 116.292 43.4805 116.5 44.9365L118.333 44.6895C118.171 42.5705 116.76 41.4265 114.544 41.4265C111.898 41.4265 110.39 43.1945 110.39 45.775C110.39 48.3555 111.898 50.1235 114.544 50.1235ZM122.368 50.1235C124.435 50.1235 125.644 48.7455 125.644 46.7955C125.644 44.852 124.435 43.474 122.368 43.474C120.294 43.474 119.085 44.852 119.085 46.7955C119.085 48.7455 120.294 50.1235 122.368 50.1235ZM122.368 48.5765C121.419 48.5765 120.808 47.894 120.808 46.7955C120.808 45.7035 121.419 45.0275 122.368 45.0275C123.31 45.0275 123.915 45.7035 123.915 46.7955C123.915 47.894 123.31 48.5765 122.368 48.5765ZM134.043 43.474C133.068 43.474 132.451 43.929 132.132 44.696C131.859 43.9355 131.248 43.474 130.189 43.474C129.181 43.474 128.564 43.955 128.265 44.7675L128.252 43.5975H126.718V50H128.453V46.8995C128.453 45.6775 128.921 45.086 129.688 45.086C130.325 45.086 130.585 45.4955 130.585 46.36V50H132.314V46.8865L132.321 46.8995C132.321 45.6775 132.789 45.086 133.556 45.086C134.193 45.086 134.453 45.502 134.453 46.36V50H136.182V45.8985C136.182 44.4685 135.577 43.474 134.043 43.474ZM141.251 43.4805C140.23 43.4805 139.554 43.903 139.19 44.7025L139.164 43.5975H137.585V52.4505H139.327V49.116C139.71 49.766 140.347 50.1235 141.251 50.1235C142.973 50.1235 144.078 48.804 144.078 46.7955C144.078 44.7935 142.973 43.4805 141.251 43.4805ZM140.841 48.583C139.899 48.583 139.268 47.8615 139.268 46.7955C139.268 45.736 139.899 45.0405 140.841 45.0405C141.79 45.0405 142.323 45.7165 142.323 46.7955C142.323 47.881 141.79 48.583 140.841 48.583ZM151.143 48.57C150.805 48.57 150.721 48.4075 150.721 48.089V46.1455C150.721 44.9235 150.37 43.474 147.874 43.474C146.268 43.474 145.157 44.241 145.053 45.6905L146.723 45.8855C146.801 45.2095 147.172 44.891 147.88 44.891C148.758 44.891 149.018 45.411 149.018 46.126V46.3795C148.647 46.321 148.257 46.2885 147.835 46.2885C146.073 46.2885 144.838 46.789 144.838 48.141C144.838 49.285 145.625 50.117 147.022 50.117C148.082 50.117 148.855 49.727 149.206 49.0315C149.304 49.779 149.668 50.052 150.623 50.052C150.948 50.052 151.208 50.0325 151.494 49.961V48.544C151.371 48.5635 151.254 48.57 151.143 48.57ZM147.614 48.791C147.035 48.791 146.717 48.5505 146.717 48.076C146.717 47.595 147.146 47.3675 148.075 47.3675C148.407 47.3675 148.706 47.3935 149.018 47.452V48.1475C148.738 48.5505 148.218 48.791 147.614 48.791ZM156.034 43.474C154.961 43.474 154.279 43.994 153.96 44.865L153.947 43.5975H152.4V50H154.142V46.919C154.142 45.697 154.708 45.1055 155.54 45.1055C156.268 45.1055 156.586 45.515 156.586 46.3925V50H158.328V45.905C158.328 44.4555 157.652 43.474 156.034 43.474ZM163.794 43.5975L162.793 47.4325C162.67 47.907 162.559 48.3555 162.455 48.778C162.345 48.336 162.228 47.8615 162.111 47.4195L161.103 43.5975H159.134L161.227 50H161.974L161.922 50.1625C161.643 51.001 160.915 51.209 159.491 50.845L159.192 52.34C161.116 52.8145 162.904 52.4115 163.619 50.1625L165.764 43.5975H163.794Z" fill="black"/>
<rect x="49" y="103" width="172" height="7" rx="2" fill="#B0AFAF"/>
<rect x="49" y="119" width="105" height="8" rx="2" fill="#B0AFAF"/>
<ellipse cx="74" cy="58" rx="25" ry="24" fill="#C4C4C4"/>
<rect x="110" y="58" width="73" height="3" rx="1.5" fill="#C4C4C4"/>
<g filter="url(#filter1_d)">
<rect x="221" y="34" width="113" height="31" rx="4" fill="#5375FF"/>
</g>
<path d="M262.242 44.55L259.948 50.3805C259.727 50.9525 259.577 51.3815 259.408 51.8755C259.239 51.375 259.051 50.8485 258.869 50.3805L256.574 44.55H255.229V53H256.08V47.137C256.08 46.565 256.074 46.0515 256.067 45.4925C256.256 46.058 256.451 46.591 256.685 47.176L259.018 53H259.798L262.132 47.176C262.359 46.5975 262.554 46.071 262.749 45.4795C262.743 46.071 262.736 46.578 262.736 47.137V53H263.588V44.55H262.242ZM270.998 49.7565C270.998 47.891 269.977 46.6365 268.222 46.6365C266.461 46.6365 265.33 48.06 265.33 49.867C265.33 51.713 266.506 53.13 268.32 53.13C269.581 53.13 270.517 52.545 270.881 51.4335L270.211 51.1995C269.912 51.9405 269.327 52.389 268.32 52.389C267.072 52.389 266.285 51.4595 266.188 50.127H270.991C270.998 49.997 270.998 49.8735 270.998 49.7565ZM268.222 47.3645C269.379 47.3645 270.055 48.125 270.146 49.425H266.207C266.337 48.2095 267.059 47.3645 268.222 47.3645ZM274.866 53.13C276.355 53.13 277.135 52.4215 277.135 51.336C277.135 50.101 276.186 49.8345 274.86 49.542C273.846 49.3145 273.222 49.1325 273.222 48.3785C273.222 47.761 273.664 47.3385 274.626 47.3385C275.581 47.3385 276.257 47.813 276.309 48.8335L277.07 48.7165C277.05 47.4685 276.205 46.6365 274.619 46.6365C273.248 46.6365 272.39 47.3385 272.383 48.4435C272.383 49.62 273.345 49.9905 274.691 50.2765C275.646 50.478 276.283 50.6275 276.283 51.414C276.283 52.1095 275.763 52.428 274.84 52.428C273.781 52.428 273.014 52.0315 272.962 50.907L272.169 51.024C272.26 52.4865 273.306 53.13 274.866 53.13ZM281.138 53.13C282.626 53.13 283.406 52.4215 283.406 51.336C283.406 50.101 282.457 49.8345 281.131 49.542C280.117 49.3145 279.493 49.1325 279.493 48.3785C279.493 47.761 279.935 47.3385 280.897 47.3385C281.853 47.3385 282.529 47.813 282.581 48.8335L283.341 48.7165C283.322 47.4685 282.477 46.6365 280.891 46.6365C279.519 46.6365 278.661 47.3385 278.655 48.4435C278.655 49.62 279.617 49.9905 280.962 50.2765C281.918 50.478 282.555 50.6275 282.555 51.414C282.555 52.1095 282.035 52.428 281.112 52.428C280.052 52.428 279.285 52.0315 279.233 50.907L278.44 51.024C278.531 52.4865 279.578 53.13 281.138 53.13ZM290.412 52.3435C289.951 52.3435 289.886 52.0055 289.886 51.674V49.178C289.886 47.982 289.483 46.6365 287.429 46.6365C286.109 46.6365 285.258 47.2215 284.907 48.398L285.674 48.6515C285.947 47.8 286.428 47.371 287.435 47.371C288.683 47.371 289.047 48.151 289.047 49.1715V49.6265C288.573 49.568 288.098 49.5355 287.663 49.5355C286.012 49.5355 284.744 49.9645 284.744 51.3165C284.744 52.4605 285.622 53.13 286.883 53.13C287.91 53.13 288.703 52.6685 289.112 52.0055C289.164 52.688 289.457 53.065 290.237 53.065C290.419 53.065 290.588 53.0455 290.776 53.0065V52.311C290.646 52.337 290.536 52.3435 290.412 52.3435ZM286.987 52.389C286.239 52.389 285.661 52.0575 285.661 51.297C285.661 50.478 286.447 50.2115 287.689 50.2115C288.118 50.2115 288.573 50.2375 289.047 50.2895V51.323C288.631 51.986 287.877 52.389 286.987 52.389ZM296.906 46.7665L296.899 48.099C296.509 47.176 295.736 46.6365 294.579 46.6365C292.7 46.6365 291.68 47.9755 291.68 49.8215C291.68 51.6805 292.7 53.0195 294.579 53.0195C295.742 53.0195 296.503 52.454 296.899 51.5245V52.662C296.899 54.1895 295.983 54.9565 294.722 54.9565C293.857 54.9565 293.084 54.651 292.421 53.91L291.92 54.534C292.694 55.3335 293.578 55.691 294.702 55.691C296.444 55.691 297.705 54.677 297.705 52.675V46.7665H296.906ZM294.657 52.2655C293.253 52.2655 292.564 51.2255 292.564 49.8215C292.564 48.424 293.253 47.397 294.657 47.397C296.015 47.397 296.86 48.45 296.86 49.8215C296.86 51.1995 296.015 52.2655 294.657 52.2655ZM304.945 49.7565C304.945 47.891 303.925 46.6365 302.17 46.6365C300.408 46.6365 299.277 48.06 299.277 49.867C299.277 51.713 300.454 53.13 302.267 53.13C303.528 53.13 304.464 52.545 304.828 51.4335L304.159 51.1995C303.86 51.9405 303.275 52.389 302.267 52.389C301.019 52.389 300.233 51.4595 300.135 50.127H304.939C304.945 49.997 304.945 49.8735 304.945 49.7565ZM302.17 47.3645C303.327 47.3645 304.003 48.125 304.094 49.425H300.155C300.285 48.2095 301.006 47.3645 302.17 47.3645Z" fill="white"/>
<rect x="49.2" y="139.2" width="51.6" height="13.6" rx="6.8" stroke="#5375FF" stroke-width="0.4"/>
<rect x="112.2" y="139.2" width="41.6" height="13.6" rx="6.8" stroke="#5375FF" stroke-width="0.4"/>
<rect x="174.2" y="139.2" width="22.6" height="13.6" rx="6.8" stroke="#5375FF" stroke-width="0.4"/>
<rect x="49.5" y="184.5" width="75" height="64" rx="5.5" stroke="#5375FF"/>
<path d="M96.325 211.489C95.9265 211.071 95.375 210.824 94.748 210.824H91.594V210.785C91.594 210.31 91.404 209.854 91.081 209.55C90.7575 209.227 90.321 209.037 89.846 209.037H84.145C83.651 209.037 83.214 209.227 82.8905 209.55C82.5675 209.873 82.3775 210.31 82.3775 210.785V210.823H79.2425C78.615 210.823 78.064 211.071 77.665 211.488C77.266 211.888 77 212.458 77 213.066V222.529C77 223.157 77.247 223.708 77.665 224.107C78.064 224.506 78.634 224.772 79.2425 224.772H94.748C95.3755 224.772 95.9265 224.525 96.3255 224.107C96.7245 223.708 96.9905 223.138 96.9905 222.529V213.066C96.9905 212.439 96.7435 211.888 96.3255 211.489H96.325ZM96.0025 222.529H95.9835C95.9835 222.871 95.8505 223.175 95.6225 223.403C95.3945 223.631 95.0905 223.764 94.748 223.764H79.2425C78.9 223.764 78.596 223.631 78.368 223.403C78.14 223.175 78.007 222.871 78.007 222.529V213.066C78.007 212.724 78.14 212.42 78.368 212.192C78.596 211.964 78.9 211.831 79.2425 211.831H82.9095C83.1945 211.831 83.423 211.603 83.423 211.318V210.766C83.423 210.557 83.499 210.367 83.632 210.234C83.765 210.101 83.955 210.025 84.164 210.025H89.845C90.054 210.025 90.244 210.101 90.377 210.234C90.51 210.367 90.586 210.557 90.586 210.766V211.318C90.586 211.603 90.814 211.831 91.0995 211.831H94.7665C95.109 211.831 95.413 211.964 95.641 212.192C95.869 212.42 96.002 212.724 96.002 213.066V222.529H96.0025Z" fill="#5375FF"/>
<path d="M86.9951 213.123C85.7031 213.123 84.5251 213.655 83.6891 214.491C82.8341 215.346 82.3206 216.506 82.3206 217.798C82.3206 219.09 82.8526 220.268 83.6891 221.104C84.5441 221.959 85.7031 222.472 86.9951 222.472C88.2876 222.472 89.4656 221.94 90.3016 221.104C91.1566 220.249 91.6701 219.09 91.6701 217.798C91.6701 216.506 91.1381 215.328 90.3016 214.491C89.4656 213.655 88.2876 213.123 86.9951 213.123ZM89.5801 220.401C88.9146 221.047 88.0026 221.465 86.9951 221.465C85.9881 221.465 85.0761 221.047 84.4111 220.401C83.7461 219.736 83.3471 218.824 83.3471 217.817C83.3471 216.81 83.7651 215.898 84.4111 215.233C85.0761 214.568 85.9881 214.168 86.9951 214.168C88.0026 214.168 88.9146 214.586 89.5801 215.233C90.2451 215.898 90.6436 216.81 90.6436 217.817C90.6626 218.824 90.2446 219.736 89.5796 220.401H89.5801Z" fill="#5375FF"/>
<path d="M93.7601 214.966C94.2743 214.966 94.6911 214.549 94.6911 214.035C94.6911 213.52 94.2743 213.104 93.7601 213.104C93.2459 213.104 92.8291 213.52 92.8291 214.035C92.8291 214.549 93.2459 214.966 93.7601 214.966Z" fill="#5375FF"/>
<rect x="146.5" y="184.5" width="75" height="64" rx="5.5" stroke="#5375FF"/>
<path d="M193.325 211.489C192.927 211.071 192.375 210.824 191.748 210.824H188.594V210.785C188.594 210.31 188.404 209.854 188.081 209.55C187.758 209.227 187.321 209.037 186.846 209.037H181.145C180.651 209.037 180.214 209.227 179.891 209.55C179.568 209.873 179.378 210.31 179.378 210.785V210.823H176.243C175.615 210.823 175.064 211.071 174.665 211.488C174.266 211.888 174 212.458 174 213.066V222.529C174 223.157 174.247 223.708 174.665 224.107C175.064 224.506 175.634 224.772 176.243 224.772H191.748C192.375 224.772 192.927 224.525 193.326 224.107C193.725 223.708 193.99 223.138 193.99 222.529V213.066C193.99 212.439 193.743 211.888 193.326 211.489H193.325ZM193.003 222.529H192.983C192.983 222.871 192.851 223.175 192.622 223.403C192.394 223.631 192.09 223.764 191.748 223.764H176.243C175.9 223.764 175.596 223.631 175.368 223.403C175.14 223.175 175.007 222.871 175.007 222.529V213.066C175.007 212.724 175.14 212.42 175.368 212.192C175.596 211.964 175.9 211.831 176.243 211.831H179.91C180.194 211.831 180.423 211.603 180.423 211.318V210.766C180.423 210.557 180.499 210.367 180.632 210.234C180.765 210.101 180.955 210.025 181.164 210.025H186.845C187.054 210.025 187.244 210.101 187.377 210.234C187.51 210.367 187.586 210.557 187.586 210.766V211.318C187.586 211.603 187.814 211.831 188.099 211.831H191.767C192.109 211.831 192.413 211.964 192.641 212.192C192.869 212.42 193.002 212.724 193.002 213.066V222.529H193.003Z" fill="#5375FF"/>
<path d="M183.995 213.123C182.703 213.123 181.525 213.655 180.689 214.491C179.834 215.346 179.321 216.506 179.321 217.798C179.321 219.09 179.853 220.268 180.689 221.104C181.544 221.959 182.703 222.472 183.995 222.472C185.288 222.472 186.466 221.94 187.302 221.104C188.157 220.249 188.67 219.09 188.67 217.798C188.67 216.506 188.138 215.328 187.302 214.491C186.466 213.655 185.288 213.123 183.995 213.123ZM186.58 220.401C185.915 221.047 185.003 221.465 183.995 221.465C182.988 221.465 182.076 221.047 181.411 220.401C180.746 219.736 180.347 218.824 180.347 217.817C180.347 216.81 180.765 215.898 181.411 215.233C182.076 214.568 182.988 214.168 183.995 214.168C185.003 214.168 185.915 214.586 186.58 215.233C187.245 215.898 187.644 216.81 187.644 217.817C187.663 218.824 187.245 219.736 186.58 220.401H186.58Z" fill="#5375FF"/>
<path d="M190.76 214.966C191.274 214.966 191.691 214.549 191.691 214.035C191.691 213.52 191.274 213.104 190.76 213.104C190.246 213.104 189.829 213.52 189.829 214.035C189.829 214.549 190.246 214.966 190.76 214.966Z" fill="#5375FF"/>
<rect x="243.5" y="184.5" width="75" height="64" rx="5.5" stroke="#5375FF"/>
<path d="M290.325 211.489C289.927 211.071 289.375 210.824 288.748 210.824H285.594V210.785C285.594 210.31 285.404 209.854 285.081 209.55C284.758 209.227 284.321 209.037 283.846 209.037H278.145C277.651 209.037 277.214 209.227 276.891 209.55C276.568 209.873 276.378 210.31 276.378 210.785V210.823H273.243C272.615 210.823 272.064 211.071 271.665 211.488C271.266 211.888 271 212.458 271 213.066V222.529C271 223.157 271.247 223.708 271.665 224.107C272.064 224.506 272.634 224.772 273.243 224.772H288.748C289.375 224.772 289.927 224.525 290.326 224.107C290.725 223.708 290.99 223.138 290.99 222.529V213.066C290.99 212.439 290.743 211.888 290.326 211.489H290.325ZM290.003 222.529H289.983C289.983 222.871 289.851 223.175 289.622 223.403C289.394 223.631 289.09 223.764 288.748 223.764H273.243C272.9 223.764 272.596 223.631 272.368 223.403C272.14 223.175 272.007 222.871 272.007 222.529V213.066C272.007 212.724 272.14 212.42 272.368 212.192C272.596 211.964 272.9 211.831 273.243 211.831H276.91C277.194 211.831 277.423 211.603 277.423 211.318V210.766C277.423 210.557 277.499 210.367 277.632 210.234C277.765 210.101 277.955 210.025 278.164 210.025H283.845C284.054 210.025 284.244 210.101 284.377 210.234C284.51 210.367 284.586 210.557 284.586 210.766V211.318C284.586 211.603 284.814 211.831 285.099 211.831H288.767C289.109 211.831 289.413 211.964 289.641 212.192C289.869 212.42 290.002 212.724 290.002 213.066V222.529H290.003Z" fill="#5375FF"/>
<path d="M280.995 213.123C279.703 213.123 278.525 213.655 277.689 214.491C276.834 215.346 276.321 216.506 276.321 217.798C276.321 219.09 276.853 220.268 277.689 221.104C278.544 221.959 279.703 222.472 280.995 222.472C282.288 222.472 283.466 221.94 284.302 221.104C285.157 220.249 285.67 219.09 285.67 217.798C285.67 216.506 285.138 215.328 284.302 214.491C283.466 213.655 282.288 213.123 280.995 213.123ZM283.58 220.401C282.915 221.047 282.003 221.465 280.995 221.465C279.988 221.465 279.076 221.047 278.411 220.401C277.746 219.736 277.347 218.824 277.347 217.817C277.347 216.81 277.765 215.898 278.411 215.233C279.076 214.568 279.988 214.168 280.995 214.168C282.003 214.168 282.915 214.586 283.58 215.233C284.245 215.898 284.644 216.81 284.644 217.817C284.663 218.824 284.245 219.736 283.58 220.401H283.58Z" fill="#5375FF"/>
<path d="M287.76 214.966C288.274 214.966 288.691 214.549 288.691 214.035C288.691 213.52 288.274 213.104 287.76 213.104C287.246 213.104 286.829 213.52 286.829 214.035C286.829 214.549 287.246 214.966 287.76 214.966Z" fill="#5375FF"/>
<rect x="243.5" y="264.5" width="75" height="64" rx="5.5" stroke="#5375FF"/>
<path d="M290.325 291.489C289.927 291.071 289.375 290.824 288.748 290.824H285.594V290.785C285.594 290.31 285.404 289.854 285.081 289.55C284.758 289.227 284.321 289.037 283.846 289.037H278.145C277.651 289.037 277.214 289.227 276.891 289.55C276.568 289.873 276.378 290.31 276.378 290.785V290.823H273.243C272.615 290.823 272.064 291.071 271.665 291.488C271.266 291.888 271 292.458 271 293.066V302.529C271 303.157 271.247 303.708 271.665 304.107C272.064 304.506 272.634 304.772 273.243 304.772H288.748C289.375 304.772 289.927 304.525 290.326 304.107C290.725 303.708 290.99 303.138 290.99 302.529V293.066C290.99 292.439 290.743 291.888 290.326 291.489H290.325ZM290.003 302.529H289.983C289.983 302.871 289.851 303.175 289.622 303.403C289.394 303.631 289.09 303.764 288.748 303.764H273.243C272.9 303.764 272.596 303.631 272.368 303.403C272.14 303.175 272.007 302.871 272.007 302.529V293.066C272.007 292.724 272.14 292.42 272.368 292.192C272.596 291.964 272.9 291.831 273.243 291.831H276.91C277.194 291.831 277.423 291.603 277.423 291.318V290.766C277.423 290.557 277.499 290.367 277.632 290.234C277.765 290.101 277.955 290.025 278.164 290.025H283.845C284.054 290.025 284.244 290.101 284.377 290.234C284.51 290.367 284.586 290.557 284.586 290.766V291.318C284.586 291.603 284.814 291.831 285.099 291.831H288.767C289.109 291.831 289.413 291.964 289.641 292.192C289.869 292.42 290.002 292.724 290.002 293.066V302.529H290.003Z" fill="#5375FF"/>
<path d="M280.995 293.123C279.703 293.123 278.525 293.655 277.689 294.491C276.834 295.346 276.321 296.506 276.321 297.798C276.321 299.09 276.853 300.268 277.689 301.104C278.544 301.959 279.703 302.472 280.995 302.472C282.288 302.472 283.466 301.94 284.302 301.104C285.157 300.249 285.67 299.09 285.67 297.798C285.67 296.506 285.138 295.328 284.302 294.491C283.466 293.655 282.288 293.123 280.995 293.123ZM283.58 300.401C282.915 301.047 282.003 301.465 280.995 301.465C279.988 301.465 279.076 301.047 278.411 300.401C277.746 299.736 277.347 298.824 277.347 297.817C277.347 296.81 277.765 295.898 278.411 295.233C279.076 294.568 279.988 294.168 280.995 294.168C282.003 294.168 282.915 294.586 283.58 295.233C284.245 295.898 284.644 296.81 284.644 297.817C284.663 298.824 284.245 299.736 283.58 300.401H283.58Z" fill="#5375FF"/>
<path d="M287.76 294.966C288.274 294.966 288.691 294.549 288.691 294.035C288.691 293.52 288.274 293.104 287.76 293.104C287.246 293.104 286.829 293.52 286.829 294.035C286.829 294.549 287.246 294.966 287.76 294.966Z" fill="#5375FF"/>
<rect x="145.5" y="264.5" width="75" height="64" rx="5.5" stroke="#5375FF"/>
<path d="M192.325 291.489C191.927 291.071 191.375 290.824 190.748 290.824H187.594V290.785C187.594 290.31 187.404 289.854 187.081 289.55C186.758 289.227 186.321 289.037 185.846 289.037H180.145C179.651 289.037 179.214 289.227 178.891 289.55C178.568 289.873 178.378 290.31 178.378 290.785V290.823H175.243C174.615 290.823 174.064 291.071 173.665 291.488C173.266 291.888 173 292.458 173 293.066V302.529C173 303.157 173.247 303.708 173.665 304.107C174.064 304.506 174.634 304.772 175.243 304.772H190.748C191.375 304.772 191.927 304.525 192.326 304.107C192.725 303.708 192.99 303.138 192.99 302.529V293.066C192.99 292.439 192.743 291.888 192.326 291.489H192.325ZM192.003 302.529H191.983C191.983 302.871 191.851 303.175 191.622 303.403C191.394 303.631 191.09 303.764 190.748 303.764H175.243C174.9 303.764 174.596 303.631 174.368 303.403C174.14 303.175 174.007 302.871 174.007 302.529V293.066C174.007 292.724 174.14 292.42 174.368 292.192C174.596 291.964 174.9 291.831 175.243 291.831H178.91C179.194 291.831 179.423 291.603 179.423 291.318V290.766C179.423 290.557 179.499 290.367 179.632 290.234C179.765 290.101 179.955 290.025 180.164 290.025H185.845C186.054 290.025 186.244 290.101 186.377 290.234C186.51 290.367 186.586 290.557 186.586 290.766V291.318C186.586 291.603 186.814 291.831 187.099 291.831H190.767C191.109 291.831 191.413 291.964 191.641 292.192C191.869 292.42 192.002 292.724 192.002 293.066V302.529H192.003Z" fill="#5375FF"/>
<path d="M182.995 293.123C181.703 293.123 180.525 293.655 179.689 294.491C178.834 295.346 178.321 296.506 178.321 297.798C178.321 299.09 178.853 300.268 179.689 301.104C180.544 301.959 181.703 302.472 182.995 302.472C184.288 302.472 185.466 301.94 186.302 301.104C187.157 300.249 187.67 299.09 187.67 297.798C187.67 296.506 187.138 295.328 186.302 294.491C185.466 293.655 184.288 293.123 182.995 293.123ZM185.58 300.401C184.915 301.047 184.003 301.465 182.995 301.465C181.988 301.465 181.076 301.047 180.411 300.401C179.746 299.736 179.347 298.824 179.347 297.817C179.347 296.81 179.765 295.898 180.411 295.233C181.076 294.568 181.988 294.168 182.995 294.168C184.003 294.168 184.915 294.586 185.58 295.233C186.245 295.898 186.644 296.81 186.644 297.817C186.663 298.824 186.245 299.736 185.58 300.401H185.58Z" fill="#5375FF"/>
<path d="M189.76 294.966C190.274 294.966 190.691 294.549 190.691 294.035C190.691 293.52 190.274 293.104 189.76 293.104C189.246 293.104 188.829 293.52 188.829 294.035C188.829 294.549 189.246 294.966 189.76 294.966Z" fill="#5375FF"/>
<rect x="49.5" y="264.5" width="75" height="64" rx="5.5" stroke="#5375FF"/>
<path d="M96.325 291.489C95.9265 291.071 95.375 290.824 94.748 290.824H91.594V290.785C91.594 290.31 91.404 289.854 91.081 289.55C90.7575 289.227 90.321 289.037 89.846 289.037H84.145C83.651 289.037 83.214 289.227 82.8905 289.55C82.5675 289.873 82.3775 290.31 82.3775 290.785V290.823H79.2425C78.615 290.823 78.064 291.071 77.665 291.488C77.266 291.888 77 292.458 77 293.066V302.529C77 303.157 77.247 303.708 77.665 304.107C78.064 304.506 78.634 304.772 79.2425 304.772H94.748C95.3755 304.772 95.9265 304.525 96.3255 304.107C96.7245 303.708 96.9905 303.138 96.9905 302.529V293.066C96.9905 292.439 96.7435 291.888 96.3255 291.489H96.325ZM96.0025 302.529H95.9835C95.9835 302.871 95.8505 303.175 95.6225 303.403C95.3945 303.631 95.0905 303.764 94.748 303.764H79.2425C78.9 303.764 78.596 303.631 78.368 303.403C78.14 303.175 78.007 302.871 78.007 302.529V293.066C78.007 292.724 78.14 292.42 78.368 292.192C78.596 291.964 78.9 291.831 79.2425 291.831H82.9095C83.1945 291.831 83.423 291.603 83.423 291.318V290.766C83.423 290.557 83.499 290.367 83.632 290.234C83.765 290.101 83.955 290.025 84.164 290.025H89.845C90.054 290.025 90.244 290.101 90.377 290.234C90.51 290.367 90.586 290.557 90.586 290.766V291.318C90.586 291.603 90.814 291.831 91.0995 291.831H94.7665C95.109 291.831 95.413 291.964 95.641 292.192C95.869 292.42 96.002 292.724 96.002 293.066V302.529H96.0025Z" fill="#5375FF"/>
<path d="M86.9951 293.123C85.7031 293.123 84.5251 293.655 83.6891 294.491C82.8341 295.346 82.3206 296.506 82.3206 297.798C82.3206 299.09 82.8526 300.268 83.6891 301.104C84.5441 301.959 85.7031 302.472 86.9951 302.472C88.2876 302.472 89.4656 301.94 90.3016 301.104C91.1566 300.249 91.6701 299.09 91.6701 297.798C91.6701 296.506 91.1381 295.328 90.3016 294.491C89.4656 293.655 88.2876 293.123 86.9951 293.123ZM89.5801 300.401C88.9146 301.047 88.0026 301.465 86.9951 301.465C85.9881 301.465 85.0761 301.047 84.4111 300.401C83.7461 299.736 83.3471 298.824 83.3471 297.817C83.3471 296.81 83.7651 295.898 84.4111 295.233C85.0761 294.568 85.9881 294.168 86.9951 294.168C88.0026 294.168 88.9146 294.586 89.5801 295.233C90.2451 295.898 90.6436 296.81 90.6436 297.817C90.6626 298.824 90.2446 299.736 89.5796 300.401H89.5801Z" fill="#5375FF"/>
<path d="M93.7601 294.966C94.2743 294.966 94.6911 294.549 94.6911 294.035C94.6911 293.52 94.2743 293.104 93.7601 293.104C93.2459 293.104 92.8291 293.52 92.8291 294.035C92.8291 294.549 93.2459 294.966 93.7601 294.966Z" fill="#5375FF"/>
<defs>
<filter id="filter0_d" x="0" y="0" width="384" height="366" filterUnits="userSpaceOnUse" color-interpolation-filters="sRGB">
<feFlood flood-opacity="0" result="BackgroundImageFix"/>
<feColorMatrix in="SourceAlpha" type="matrix" values="0 0 0 0 0 0 0 0 0 0 0 0 0 0 0 0 0 0 127 0"/>
<feOffset dy="4"/>
<feGaussianBlur stdDeviation="2"/>
<feColorMatrix type="matrix" values="0 0 0 0 0 0 0 0 0 0 0 0 0 0 0 0 0 0 0.25 0"/>
<feBlend mode="normal" in2="BackgroundImageFix" result="effect1_dropShadow"/>
<feBlend mode="normal" in="SourceGraphic" in2="effect1_dropShadow" result="shape"/>
</filter>
<filter id="filter1_d" x="217" y="32" width="121" height="39" filterUnits="userSpaceOnUse" color-interpolation-filters="sRGB">
<feFlood flood-opacity="0" result="BackgroundImageFix"/>
<feColorMatrix in="SourceAlpha" type="matrix" values="0 0 0 0 0 0 0 0 0 0 0 0 0 0 0 0 0 0 127 0"/>
<feOffset dy="2"/>
<feGaussianBlur stdDeviation="2"/>
<feColorMatrix type="matrix" values="0 0 0 0 0 0 0 0 0 0 0 0 0 0 0 0 0 0 0.25 0"/>
<feBlend mode="normal" in2="BackgroundImageFix" result="effect1_dropShadow"/>
<feBlend mode="normal" in="SourceGraphic" in2="effect1_dropShadow" result="shape"/>
</filter>
</defs>
</svg>
