<svg width="486" height="438" viewBox="0 0 486 438" fill="none" xmlns="http://www.w3.org/2000/svg">
<path d="M125.292 91.216C129.528 91.216 132.18 88.912 132.3 84.94L128.22 84.4C127.956 87.064 126.72 87.712 125.16 87.712C122.856 87.712 121.86 85.96 121.86 83.2C121.86 80.44 122.856 78.688 125.16 78.688C126.72 78.688 127.968 79.456 128.22 82L132.3 81.46C132.18 77.488 129.528 75.184 125.292 75.184C120.312 75.184 117.54 78.448 117.54 83.2C117.54 87.952 120.312 91.216 125.292 91.216ZM141.196 78.856C139.444 78.856 138.34 79.636 137.74 81.004V74.248H133.924V91H137.74V85.444C137.74 83.332 138.58 82.42 139.888 82.42C140.992 82.42 141.46 83.044 141.46 84.364V91H145.276V83.224C145.276 80.728 144.088 78.856 141.196 78.856ZM158.801 87.82C158.237 87.82 158.117 87.556 158.117 87.064V83.872C158.117 80.944 157.073 78.856 152.621 78.856C149.465 78.856 147.233 80.368 147.197 83.248L150.905 83.56C150.941 82.432 151.529 81.928 152.621 81.928C154.001 81.928 154.373 82.732 154.373 83.824V84.208C153.761 84.1 153.137 84.04 152.333 84.04C149.021 84.04 146.777 84.988 146.777 87.46C146.777 89.56 148.157 91.216 150.809 91.216C152.849 91.216 154.229 90.532 154.817 89.2C155.009 90.64 155.729 91.096 157.589 91.096C158.309 91.096 158.861 91.048 159.461 90.904V87.772C159.233 87.808 159.017 87.82 158.801 87.82ZM152.309 88.384C151.313 88.384 150.893 87.952 150.893 87.304C150.893 86.584 151.529 86.224 152.957 86.224C153.497 86.224 153.941 86.284 154.373 86.38V87.532C153.977 88.072 153.257 88.384 152.309 88.384ZM167.959 87.652C167.467 87.76 167.035 87.82 166.519 87.82C165.415 87.82 165.091 87.208 165.091 86.212V82.312H168.211V79.072H165.091V75.4L161.275 75.94V79.072H159.451V82.312H161.275V86.74C161.275 89.452 162.571 91.156 165.763 91.156C166.747 91.156 167.611 91.048 168.451 90.844L167.959 87.652ZM176.876 78.856C175.316 78.856 174.248 79.42 173.576 80.464V74.248H169.76V91H173.168L173.228 88.9C173.84 90.376 175.016 91.216 176.876 91.216C179.96 91.216 182.072 88.816 182.072 85.024C182.072 81.256 179.96 78.856 176.876 78.856ZM175.928 87.856C174.464 87.856 173.444 86.764 173.444 85.024C173.444 83.308 174.464 82.264 175.928 82.264C177.368 82.264 178.256 83.272 178.256 85.024C178.256 86.8 177.368 87.856 175.928 87.856ZM189.627 91.216C193.563 91.216 195.795 88.696 195.795 85.024C195.795 81.376 193.563 78.856 189.627 78.856C185.691 78.856 183.459 81.376 183.459 85.024C183.459 88.696 185.691 91.216 189.627 91.216ZM189.627 87.832C188.163 87.832 187.227 86.836 187.227 85.024C187.227 83.236 188.163 82.24 189.627 82.24C191.091 82.24 192.027 83.236 192.027 85.024C192.027 86.836 191.091 87.832 189.627 87.832ZM205.154 87.652C204.662 87.76 204.23 87.82 203.714 87.82C202.61 87.82 202.286 87.208 202.286 86.212V82.312H205.406V79.072H202.286V75.4L198.47 75.94V79.072H196.646V82.312H198.47V86.74C198.47 89.452 199.766 91.156 202.958 91.156C203.942 91.156 204.806 91.048 205.646 90.844L205.154 87.652Z" fill="#515151"/>
<g filter="url(#filter0_d)">
<rect x="4" y="101" width="280" height="223" rx="40" fill="white"/>
<rect x="4.5" y="101.5" width="279" height="222" rx="39.5" stroke="#D0D0D0"/>
</g>
<circle cx="36.72" cy="135.72" r="12.72" fill="#C4C4C4"/>
<path d="M248.579 278.693C257.16 278.693 264.154 273.174 264.154 266.377V223.742H113.859C105.279 223.742 98.2847 229.273 98.2847 236.058V266.377C98.2847 273.162 105.264 278.693 113.859 278.693H248.579Z" fill="#EAEAEA"/>
<path d="M76.2081 202.372C67.6276 202.372 60.6333 196.853 60.6333 190.056V147.422H210.928C219.508 147.422 226.502 152.953 226.502 159.738V190.056C226.502 196.841 219.523 202.372 210.928 202.372H76.2081Z" fill="#5375FF"/>
<path d="M77.7765 166.086C79.0185 166.086 79.7475 165.446 79.752 164.429C79.752 163.313 78.861 163.025 77.871 162.737C76.953 162.476 76.422 162.278 76.422 161.635C76.422 161.072 76.8315 160.703 77.61 160.703C78.555 160.703 78.9735 161.239 79.041 162.085L79.7025 161.95C79.662 160.676 78.879 160.064 77.628 160.064C76.485 160.064 75.6525 160.631 75.6525 161.689C75.6525 162.755 76.4805 163.106 77.529 163.39C78.4515 163.646 78.9915 163.817 78.9915 164.474C78.9915 165.154 78.5235 165.442 77.79 165.442C76.6965 165.442 76.1655 164.92 76.1745 163.957L75.4725 164.056C75.459 165.496 76.485 166.086 77.7765 166.086ZM82.721 166.09C83.7065 166.09 84.44 165.626 84.6515 164.596L83.9855 164.483C83.819 165.095 83.423 165.446 82.73 165.446C81.8345 165.446 81.3395 164.758 81.3395 163.826C81.3395 162.899 81.8345 162.206 82.73 162.206C83.423 162.206 83.819 162.557 83.9855 163.169L84.6515 163.061C84.44 162.031 83.7065 161.567 82.721 161.567C81.407 161.567 80.6015 162.539 80.6015 163.826C80.6015 165.113 81.407 166.09 82.721 166.09ZM87.8777 161.567C87.1892 161.567 86.6807 161.887 86.4107 162.404V159.718H85.6772V166H86.4107V163.768C86.4107 162.796 86.9687 162.251 87.7247 162.251C88.4087 162.251 88.7327 162.634 88.7327 163.48V166H89.4662V163.336C89.4662 162.197 88.9532 161.567 87.8777 161.567ZM92.5793 166.09C93.9113 166.09 94.7528 165.127 94.7528 163.826C94.7528 162.53 93.9113 161.567 92.5793 161.567C91.2428 161.567 90.4013 162.53 90.4013 163.826C90.4013 165.127 91.2428 166.09 92.5793 166.09ZM92.5793 165.438C91.7018 165.438 91.1348 164.762 91.1348 163.826C91.1348 162.89 91.7018 162.22 92.5793 162.22C93.4478 162.22 94.0193 162.89 94.0193 163.826C94.0193 164.762 93.4478 165.438 92.5793 165.438ZM98.7194 161.657V163.885C98.7194 164.857 98.1614 165.401 97.4054 165.401C96.7484 165.401 96.4199 165.019 96.4199 164.173V161.657H95.6909V164.317C95.6909 165.455 96.1994 166.086 97.2479 166.086C97.9859 166.086 98.5079 165.716 98.7554 165.127L98.7734 166H99.4484V161.657H98.7194ZM100.821 166H101.554V159.718H100.821V166ZM106.049 159.718V162.391C105.77 161.851 105.275 161.567 104.555 161.567C103.29 161.567 102.548 162.494 102.548 163.822C102.548 165.158 103.29 166.09 104.555 166.09C105.302 166.09 105.797 165.757 106.076 165.176L106.085 166H106.782V159.718H106.049ZM104.645 165.438C103.749 165.438 103.299 164.762 103.299 163.822C103.299 162.881 103.749 162.224 104.645 162.224C105.527 162.224 106.076 162.899 106.076 163.822C106.076 164.744 105.527 165.438 104.645 165.438ZM110.136 166H110.91V160.15H110.136V166ZM117.886 163.745C117.886 162.44 117.162 161.567 115.929 161.567C114.682 161.567 113.886 162.553 113.886 163.822C113.886 165.118 114.696 166.09 115.996 166.09C116.901 166.09 117.567 165.671 117.805 164.857L117.216 164.69C117.027 165.176 116.649 165.464 115.992 165.464C115.2 165.464 114.705 164.906 114.624 164.056H117.877C117.886 163.948 117.886 163.844 117.886 163.745ZM115.924 162.179C116.658 162.179 117.094 162.652 117.157 163.475H114.628C114.727 162.697 115.195 162.179 115.924 162.179ZM122.648 166L121.015 163.786L122.54 161.657H121.645L120.52 163.327L119.395 161.657H118.504L120.034 163.786L118.391 166H119.291L120.52 164.231L121.748 166H122.648ZM127.036 163.745C127.036 162.44 126.311 161.567 125.078 161.567C123.832 161.567 123.035 162.553 123.035 163.822C123.035 165.118 123.845 166.09 125.146 166.09C126.05 166.09 126.716 165.671 126.955 164.857L126.365 164.69C126.176 165.176 125.798 165.464 125.141 165.464C124.349 165.464 123.854 164.906 123.773 164.056H127.027C127.036 163.948 127.036 163.844 127.036 163.745ZM125.074 162.179C125.807 162.179 126.244 162.652 126.307 163.475H123.778C123.877 162.697 124.345 162.179 125.074 162.179ZM129.971 166.09C130.957 166.09 131.69 165.626 131.902 164.596L131.236 164.483C131.069 165.095 130.673 165.446 129.98 165.446C129.085 165.446 128.59 164.758 128.59 163.826C128.59 162.899 129.085 162.206 129.98 162.206C130.673 162.206 131.069 162.557 131.236 163.169L131.902 163.061C131.69 162.031 130.957 161.567 129.971 161.567C128.657 161.567 127.852 162.539 127.852 163.826C127.852 165.113 128.657 166.09 129.971 166.09ZM135.915 161.657V163.885C135.915 164.857 135.357 165.401 134.601 165.401C133.944 165.401 133.615 165.019 133.615 164.173V161.657H132.886V164.317C132.886 165.455 133.395 166.086 134.443 166.086C135.181 166.086 135.703 165.716 135.951 165.127L135.969 166H136.644V161.657H135.915ZM140.482 165.253C140.298 165.361 140.118 165.41 139.879 165.41C139.362 165.41 139.141 165.127 139.141 164.528V162.269H140.577V161.657H139.141V160.258L138.412 160.366V161.657H137.517V162.269H138.412V164.618C138.412 165.604 138.916 166.063 139.776 166.063C140.127 166.063 140.41 165.986 140.676 165.842L140.482 165.253ZM145.194 163.745C145.194 162.44 144.469 161.567 143.236 161.567C141.99 161.567 141.193 162.553 141.193 163.822C141.193 165.118 142.003 166.09 143.304 166.09C144.208 166.09 144.874 165.671 145.113 164.857L144.523 164.69C144.334 165.176 143.956 165.464 143.299 165.464C142.507 165.464 142.012 164.906 141.931 164.056H145.185C145.194 163.948 145.194 163.844 145.194 163.745ZM143.232 162.179C143.965 162.179 144.402 162.652 144.465 163.475H141.936C142.035 162.697 142.503 162.179 143.232 162.179ZM150.334 161.572C149.587 161.572 149.061 161.878 148.777 162.458L148.768 161.657H148.071V167.755H148.804V165.217C149.097 165.775 149.605 166.09 150.334 166.09C151.594 166.09 152.305 165.158 152.305 163.822C152.305 162.494 151.594 161.572 150.334 161.572ZM150.208 165.438C149.326 165.438 148.777 164.744 148.777 163.822C148.777 162.904 149.326 162.229 150.208 162.229C151.104 162.229 151.554 162.886 151.554 163.822C151.554 164.762 151.104 165.438 150.208 165.438ZM153.283 166H154.016V159.718H153.283V166ZM159.154 165.428C158.862 165.428 158.794 165.248 158.794 164.996V163.345C158.794 162.728 158.673 161.567 157.026 161.567C156.067 161.567 155.442 162.008 155.235 162.859L155.905 163.025C156.058 162.463 156.378 162.184 157.03 162.184C157.836 162.184 158.083 162.674 158.083 163.34V163.606C157.768 163.565 157.444 163.543 157.152 163.543C155.991 163.543 155.113 163.862 155.113 164.803C155.113 165.599 155.712 166.086 156.607 166.086C157.309 166.086 157.858 165.784 158.142 165.325C158.191 165.797 158.407 166.041 158.983 166.041C159.123 166.041 159.249 166.027 159.393 165.995V165.41C159.307 165.424 159.231 165.428 159.154 165.428ZM156.733 165.473C156.252 165.473 155.905 165.275 155.905 164.785C155.905 164.29 156.36 164.101 157.192 164.101C157.476 164.101 157.768 164.119 158.083 164.155V164.785C157.809 165.217 157.3 165.473 156.733 165.473ZM162.515 161.567C161.781 161.567 161.259 161.932 161.007 162.508L161.012 161.657H160.305V166H161.039V163.768C161.039 162.796 161.597 162.251 162.353 162.251C163.037 162.251 163.361 162.634 163.361 163.48V166H164.094V163.336C164.094 162.197 163.581 161.567 162.515 161.567ZM171.37 166H172.212L170.088 160.15H168.972L166.848 166H167.689L168.202 164.542H170.857L171.37 166ZM168.418 163.93L169.53 160.775L170.641 163.93H168.418ZM176.831 166.09C178.163 166.09 179.005 165.127 179.005 163.826C179.005 162.53 178.163 161.567 176.831 161.567C175.495 161.567 174.653 162.53 174.653 163.826C174.653 165.127 175.495 166.09 176.831 166.09ZM176.831 165.438C175.954 165.438 175.387 164.762 175.387 163.826C175.387 162.89 175.954 162.22 176.831 162.22C177.7 162.22 178.271 162.89 178.271 163.826C178.271 164.762 177.7 165.438 176.831 165.438ZM180.685 162.535L180.69 161.657H180.001V166H180.712V163.799C180.712 162.688 181.563 162.175 182.395 162.373L182.413 161.603C181.626 161.432 180.973 161.797 180.685 162.535ZM188.317 162.922C188.911 162.719 189.181 162.274 189.181 161.572C189.181 160.64 188.605 160.15 187.417 160.15H185.203V166H187.678C188.772 166 189.501 165.388 189.501 164.434C189.501 163.642 189.123 163.084 188.317 162.922ZM185.977 160.762H187.323C187.998 160.762 188.407 160.996 188.407 161.675C188.407 162.377 188.007 162.67 187.287 162.67H185.977V160.762ZM187.606 165.388H185.977V163.277H187.431C188.322 163.277 188.722 163.597 188.722 164.38C188.722 165.032 188.308 165.388 187.606 165.388ZM191.747 164.366H192.463V164.177C192.463 163.718 192.571 163.493 193.151 163.048C193.705 162.629 194.02 162.265 194.02 161.576C194.02 160.618 193.354 160.06 192.31 160.06C191.18 160.06 190.555 160.685 190.483 161.878L191.207 162.017C191.23 161.099 191.626 160.726 192.305 160.726C192.89 160.726 193.246 161.041 193.246 161.639C193.246 162.062 193.075 162.301 192.697 162.611C191.891 163.264 191.747 163.538 191.747 164.177V164.366ZM192.134 166.09C192.445 166.09 192.706 165.833 192.706 165.518C192.706 165.208 192.445 164.951 192.134 164.951C191.819 164.951 191.554 165.208 191.554 165.518C191.554 165.833 191.819 166.09 192.134 166.09Z" fill="white"/>
<path d="M128.091 134.15L126.61 137.241L125.13 134.15H124.257L126.223 137.997V140H126.997V137.997L128.964 134.15H128.091ZM132.855 137.745C132.855 136.44 132.13 135.567 130.897 135.567C129.651 135.567 128.854 136.553 128.854 137.822C128.854 139.118 129.664 140.09 130.965 140.09C131.869 140.09 132.535 139.671 132.774 138.857L132.184 138.69C131.995 139.176 131.617 139.464 130.96 139.464C130.168 139.464 129.673 138.906 129.592 138.056H132.846C132.855 137.948 132.855 137.844 132.855 137.745ZM130.893 136.179C131.626 136.179 132.063 136.652 132.126 137.475H129.597C129.696 136.697 130.164 136.179 130.893 136.179ZM135.502 140.09C136.546 140.09 137.122 139.59 137.122 138.816C137.122 137.97 136.487 137.759 135.511 137.543C134.818 137.385 134.444 137.259 134.444 136.805C134.444 136.422 134.719 136.152 135.331 136.152C135.952 136.152 136.388 136.454 136.429 137.124L137.072 137.039C137.05 136.148 136.469 135.567 135.326 135.567C134.368 135.567 133.738 136.049 133.733 136.85C133.733 137.624 134.278 137.925 135.362 138.155C136.001 138.29 136.397 138.389 136.397 138.87C136.397 139.302 136.078 139.505 135.484 139.505C134.8 139.505 134.305 139.248 134.255 138.524L133.585 138.614C133.657 139.64 134.417 140.09 135.502 140.09ZM140.694 139.253C140.509 139.361 140.329 139.41 140.091 139.41C139.573 139.41 139.353 139.127 139.353 138.528V136.269H140.788V135.657H139.353V134.258L138.624 134.366V135.657H137.728V136.269H138.624V138.618C138.624 139.604 139.128 140.063 139.987 140.063C140.338 140.063 140.622 139.986 140.887 139.842L140.694 139.253ZM145.406 137.745C145.406 136.44 144.681 135.567 143.448 135.567C142.202 135.567 141.405 136.553 141.405 137.822C141.405 139.118 142.215 140.09 143.516 140.09C144.42 140.09 145.086 139.671 145.325 138.857L144.735 138.69C144.546 139.176 144.168 139.464 143.511 139.464C142.719 139.464 142.224 138.906 142.143 138.056H145.397C145.406 137.948 145.406 137.844 145.406 137.745ZM143.444 136.179C144.177 136.179 144.614 136.652 144.677 137.475H142.148C142.247 136.697 142.715 136.179 143.444 136.179ZM147.112 136.535L147.117 135.657H146.428V140H147.139V137.799C147.139 136.688 147.99 136.175 148.822 136.373L148.84 135.603C148.053 135.432 147.4 135.797 147.112 136.535ZM152.746 133.718V136.391C152.467 135.851 151.972 135.567 151.252 135.567C149.988 135.567 149.245 136.494 149.245 137.822C149.245 139.158 149.988 140.09 151.252 140.09C151.999 140.09 152.494 139.757 152.773 139.176L152.782 140H153.48V133.718H152.746ZM151.342 139.438C150.447 139.438 149.997 138.762 149.997 137.822C149.997 136.881 150.447 136.224 151.342 136.224C152.224 136.224 152.773 136.899 152.773 137.822C152.773 138.744 152.224 139.438 151.342 139.438ZM158.619 139.428C158.327 139.428 158.259 139.248 158.259 138.996V137.345C158.259 136.728 158.138 135.567 156.491 135.567C155.532 135.567 154.907 136.008 154.7 136.859L155.37 137.025C155.523 136.463 155.843 136.184 156.495 136.184C157.301 136.184 157.548 136.674 157.548 137.34V137.606C157.233 137.565 156.909 137.543 156.617 137.543C155.456 137.543 154.578 137.862 154.578 138.803C154.578 139.599 155.177 140.086 156.072 140.086C156.774 140.086 157.323 139.784 157.607 139.325C157.656 139.797 157.872 140.041 158.448 140.041C158.588 140.041 158.714 140.027 158.858 139.995V139.41C158.772 139.424 158.696 139.428 158.619 139.428ZM156.198 139.473C155.717 139.473 155.37 139.275 155.37 138.785C155.37 138.29 155.825 138.101 156.657 138.101C156.941 138.101 157.233 138.119 157.548 138.155V138.785C157.274 139.217 156.765 139.473 156.198 139.473ZM162.518 135.657L161.632 138.272C161.501 138.668 161.38 139.046 161.263 139.424C161.132 139.046 161.002 138.659 160.871 138.272L159.985 135.657H159.157L160.763 140.009H160.97L160.876 140.284C160.624 140.99 160.111 141.17 159.314 141.053L159.22 141.724C160.349 141.895 161.195 141.535 161.609 140.351L163.346 135.657H162.518Z" fill="#5A5A5A"/>
<path d="M188.067 218.948H187.028V215.1H185.912L183.338 218.997L183.464 219.573L186.281 219.569V221H187.028V219.564H188.067V218.948ZM184.188 218.948L185.435 217.085C185.718 216.653 186.002 216.23 186.308 215.685C186.281 216.18 186.281 216.693 186.281 217.26V218.948H184.188ZM189.518 217.769C189.829 217.769 190.09 217.512 190.09 217.197C190.09 216.882 189.829 216.626 189.518 216.626C189.203 216.626 188.938 216.882 188.938 217.197C188.938 217.512 189.203 217.769 189.518 217.769ZM189.518 221.09C189.829 221.09 190.09 220.833 190.09 220.518C190.09 220.208 189.829 219.951 189.518 219.951C189.203 219.951 188.938 220.208 188.938 220.518C188.938 220.833 189.203 221.09 189.518 221.09ZM193.589 217.256C193.071 217.256 192.657 217.382 192.257 217.706L192.392 215.812H195.164V215.15H191.739L191.541 218.093L192.153 218.462C192.59 218.048 192.945 217.904 193.436 217.904C194.25 217.904 194.66 218.408 194.66 219.164C194.655 219.996 194.133 220.424 193.323 220.424C192.653 220.424 192.059 220.073 191.897 219.344L191.177 219.483C191.402 220.532 192.207 221.09 193.31 221.09C194.561 221.09 195.461 220.361 195.461 219.159C195.461 217.998 194.786 217.256 193.589 217.256ZM198.906 217.256C198.389 217.256 197.975 217.382 197.574 217.706L197.709 215.812H200.481V215.15H197.057L196.859 218.093L197.471 218.462C197.907 218.048 198.263 217.904 198.753 217.904C199.568 217.904 199.977 218.408 199.977 219.164C199.973 219.996 199.451 220.424 198.641 220.424C197.97 220.424 197.376 220.073 197.214 219.344L196.494 219.483C196.719 220.532 197.525 221.09 198.627 221.09C199.878 221.09 200.778 220.361 200.778 219.159C200.778 217.998 200.103 217.256 198.906 217.256ZM204.264 216.572C203.517 216.572 202.99 216.878 202.707 217.458L202.698 216.657H202V222.755H202.734V220.217C203.026 220.775 203.535 221.09 204.264 221.09C205.524 221.09 206.235 220.158 206.235 218.822C206.235 217.494 205.524 216.572 204.264 216.572ZM204.138 220.438C203.256 220.438 202.707 219.744 202.707 218.822C202.707 217.904 203.256 217.229 204.138 217.229C205.033 217.229 205.483 217.886 205.483 218.822C205.483 219.762 205.033 220.438 204.138 220.438ZM212.018 216.567C211.298 216.567 210.83 216.9 210.591 217.445C210.411 216.869 209.993 216.567 209.291 216.567C208.598 216.567 208.152 216.873 207.909 217.373L207.914 216.657H207.23V221H207.95V218.741C207.95 217.773 208.382 217.224 209.133 217.224C209.768 217.224 209.988 217.611 209.988 218.439V221H210.704V218.741C210.704 217.773 211.131 217.224 211.883 217.224C212.517 217.224 212.738 217.625 212.738 218.439V221H213.453V218.331C213.453 217.215 213.026 216.567 212.018 216.567Z" fill="#5A5A5A"/>
<path d="M116.585 235.15L115.131 239.056C115.001 239.42 114.897 239.726 114.798 240.059C114.69 239.717 114.573 239.375 114.461 239.056L113.003 235.15H111.815V241H112.548V237.076C112.548 236.689 112.544 236.329 112.544 235.942C112.665 236.342 112.791 236.72 112.949 237.125L114.443 241H115.145L116.639 237.125C116.792 236.729 116.922 236.356 117.044 235.946C117.044 236.347 117.039 236.698 117.039 237.076V241H117.773V235.15H116.585ZM122.149 236.657L121.262 239.272C121.132 239.668 121.01 240.046 120.893 240.424C120.763 240.046 120.632 239.659 120.502 239.272L119.615 236.657H118.787L120.394 241.009H120.601L120.506 241.284C120.254 241.99 119.741 242.17 118.945 242.053L118.85 242.724C119.98 242.895 120.826 242.535 121.24 241.351L122.977 236.657H122.149ZM129.491 240.428C129.199 240.428 129.131 240.248 129.131 239.996V238.345C129.131 237.728 129.01 236.567 127.363 236.567C126.404 236.567 125.779 237.008 125.572 237.859L126.242 238.025C126.395 237.463 126.715 237.184 127.367 237.184C128.173 237.184 128.42 237.674 128.42 238.34V238.606C128.105 238.565 127.781 238.543 127.489 238.543C126.328 238.543 125.45 238.862 125.45 239.803C125.45 240.599 126.049 241.086 126.944 241.086C127.646 241.086 128.195 240.784 128.479 240.325C128.528 240.797 128.744 241.041 129.32 241.041C129.46 241.041 129.586 241.027 129.73 240.995V240.41C129.644 240.424 129.568 240.428 129.491 240.428ZM127.07 240.473C126.589 240.473 126.242 240.275 126.242 239.785C126.242 239.29 126.697 239.101 127.529 239.101C127.813 239.101 128.105 239.119 128.42 239.155V239.785C128.146 240.217 127.637 240.473 127.07 240.473ZM133.77 234.718V237.391C133.491 236.851 132.996 236.567 132.276 236.567C131.011 236.567 130.269 237.494 130.269 238.822C130.269 240.158 131.011 241.09 132.276 241.09C133.023 241.09 133.518 240.757 133.797 240.176L133.806 241H134.503V234.718H133.77ZM132.366 240.438C131.47 240.438 131.02 239.762 131.02 238.822C131.02 237.881 131.47 237.224 132.366 237.224C133.248 237.224 133.797 237.899 133.797 238.822C133.797 239.744 133.248 240.438 132.366 240.438ZM138.702 236.657L137.807 239.371C137.681 239.735 137.573 240.086 137.456 240.455C137.339 240.095 137.222 239.731 137.1 239.371L136.205 236.657H135.39L136.929 241H137.978L139.517 236.657H138.702ZM140.78 235.825C141.082 235.825 141.325 235.591 141.325 235.303C141.325 235.015 141.082 234.79 140.78 234.79C140.501 234.79 140.258 235.015 140.258 235.303C140.258 235.591 140.501 235.825 140.78 235.825ZM140.425 241H141.158V236.657H140.425V241ZM144.288 241.09C145.274 241.09 146.007 240.626 146.219 239.596L145.553 239.483C145.386 240.095 144.99 240.446 144.297 240.446C143.402 240.446 142.907 239.758 142.907 238.826C142.907 237.899 143.402 237.206 144.297 237.206C144.99 237.206 145.386 237.557 145.553 238.169L146.219 238.061C146.007 237.031 145.274 236.567 144.288 236.567C142.974 236.567 142.169 237.539 142.169 238.826C142.169 240.113 142.974 241.09 144.288 241.09ZM151.039 238.745C151.039 237.44 150.314 236.567 149.081 236.567C147.835 236.567 147.038 237.553 147.038 238.822C147.038 240.118 147.848 241.09 149.149 241.09C150.053 241.09 150.719 240.671 150.958 239.857L150.368 239.69C150.179 240.176 149.801 240.464 149.144 240.464C148.352 240.464 147.857 239.906 147.776 239.056H151.03C151.039 238.948 151.039 238.844 151.039 238.745ZM149.077 237.179C149.81 237.179 150.247 237.652 150.31 238.475H147.781C147.88 237.697 148.348 237.179 149.077 237.179ZM154.289 235.825C154.59 235.825 154.833 235.591 154.833 235.303C154.833 235.015 154.59 234.79 154.289 234.79C154.01 234.79 153.767 235.015 153.767 235.303C153.767 235.591 154.01 235.825 154.289 235.825ZM153.933 241H154.667V236.657H153.933V241ZM157.676 241.09C158.72 241.09 159.296 240.59 159.296 239.816C159.296 238.97 158.661 238.759 157.685 238.543C156.992 238.385 156.618 238.259 156.618 237.805C156.618 237.422 156.893 237.152 157.505 237.152C158.126 237.152 158.562 237.454 158.603 238.124L159.246 238.039C159.224 237.148 158.643 236.567 157.5 236.567C156.542 236.567 155.912 237.049 155.907 237.85C155.907 238.624 156.452 238.925 157.536 239.155C158.175 239.29 158.571 239.389 158.571 239.87C158.571 240.302 158.252 240.505 157.658 240.505C156.974 240.505 156.479 240.248 156.429 239.524L155.759 239.614C155.831 240.64 156.591 241.09 157.676 241.09ZM164.722 240.253C164.538 240.361 164.358 240.41 164.119 240.41C163.602 240.41 163.381 240.127 163.381 239.528V237.269H164.817V236.657H163.381V235.258L162.652 235.366V236.657H161.757V237.269H162.652V239.618C162.652 240.604 163.156 241.063 164.016 241.063C164.367 241.063 164.65 240.986 164.916 240.842L164.722 240.253ZM167.612 241.09C168.944 241.09 169.785 240.127 169.785 238.826C169.785 237.53 168.944 236.567 167.612 236.567C166.275 236.567 165.434 237.53 165.434 238.826C165.434 240.127 166.275 241.09 167.612 241.09ZM167.612 240.438C166.734 240.438 166.167 239.762 166.167 238.826C166.167 237.89 166.734 237.22 167.612 237.22C168.48 237.22 169.052 237.89 169.052 238.826C169.052 239.762 168.48 240.438 167.612 240.438ZM175.872 236.662L175.867 237.553C175.602 236.918 175.084 236.567 174.292 236.567C173.023 236.567 172.285 237.481 172.285 238.781C172.285 240.091 173.023 241.005 174.292 241.005C175.089 241.005 175.593 240.631 175.863 239.987V240.734C175.863 241.738 175.251 242.224 174.414 242.224C173.815 242.224 173.275 242.008 172.825 241.522L172.42 242.049C172.96 242.598 173.586 242.845 174.387 242.845C175.647 242.845 176.538 242.139 176.538 240.748V236.662H175.872ZM174.382 240.361C173.487 240.361 173.037 239.699 173.037 238.781C173.037 237.863 173.487 237.215 174.382 237.215C175.264 237.215 175.813 237.881 175.813 238.781C175.813 239.681 175.264 240.361 174.382 240.361ZM179.732 241.09C181.064 241.09 181.905 240.127 181.905 238.826C181.905 237.53 181.064 236.567 179.732 236.567C178.395 236.567 177.554 237.53 177.554 238.826C177.554 240.127 178.395 241.09 179.732 241.09ZM179.732 240.438C178.854 240.438 178.287 239.762 178.287 238.826C178.287 237.89 178.854 237.22 179.732 237.22C180.6 237.22 181.172 237.89 181.172 238.826C181.172 239.762 180.6 240.438 179.732 240.438ZM186.543 234.628C185.611 234.628 185.04 235.177 185.04 236.153V236.657H184.257V237.269H185.04V241H185.773V237.269H187.119V236.657H185.773V236.153C185.773 235.532 186.03 235.253 186.552 235.253C186.849 235.253 187.101 235.352 187.326 235.582L187.618 235.024C187.312 234.736 186.952 234.628 186.543 234.628ZM189.698 241.09C191.03 241.09 191.872 240.127 191.872 238.826C191.872 237.53 191.03 236.567 189.698 236.567C188.362 236.567 187.52 237.53 187.52 238.826C187.52 240.127 188.362 241.09 189.698 241.09ZM189.698 240.438C188.821 240.438 188.254 239.762 188.254 238.826C188.254 237.89 188.821 237.22 189.698 237.22C190.567 237.22 191.138 237.89 191.138 238.826C191.138 239.762 190.567 240.438 189.698 240.438ZM193.553 237.535L193.557 236.657H192.869V241H193.58V238.799C193.58 237.688 194.43 237.175 195.263 237.373L195.281 236.603C194.493 236.432 193.841 236.797 193.553 237.535ZM200.203 236.572C199.456 236.572 198.93 236.878 198.646 237.458L198.637 236.657H197.94V242.755H198.673V240.217C198.966 240.775 199.474 241.09 200.203 241.09C201.463 241.09 202.174 240.158 202.174 238.822C202.174 237.494 201.463 236.572 200.203 236.572ZM200.077 240.438C199.195 240.438 198.646 239.744 198.646 238.822C198.646 237.904 199.195 237.229 200.077 237.229C200.973 237.229 201.423 237.886 201.423 238.822C201.423 239.762 200.973 240.438 200.077 240.438ZM203.152 241H203.885V234.718H203.152V241ZM209.023 240.428C208.731 240.428 208.663 240.248 208.663 239.996V238.345C208.663 237.728 208.542 236.567 206.895 236.567C205.936 236.567 205.311 237.008 205.104 237.859L205.774 238.025C205.927 237.463 206.247 237.184 206.899 237.184C207.705 237.184 207.952 237.674 207.952 238.34V238.606C207.637 238.565 207.313 238.543 207.021 238.543C205.86 238.543 204.982 238.862 204.982 239.803C204.982 240.599 205.581 241.086 206.476 241.086C207.178 241.086 207.727 240.784 208.011 240.325C208.06 240.797 208.276 241.041 208.852 241.041C208.992 241.041 209.118 241.027 209.262 240.995V240.41C209.176 240.424 209.1 240.428 209.023 240.428ZM206.602 240.473C206.121 240.473 205.774 240.275 205.774 239.785C205.774 239.29 206.229 239.101 207.061 239.101C207.345 239.101 207.637 239.119 207.952 239.155V239.785C207.678 240.217 207.169 240.473 206.602 240.473ZM212.384 236.567C211.65 236.567 211.128 236.932 210.876 237.508L210.881 236.657H210.174V241H210.908V238.768C210.908 237.796 211.466 237.251 212.222 237.251C212.906 237.251 213.23 237.634 213.23 238.48V241H213.963V238.336C213.963 237.197 213.45 236.567 212.384 236.567ZM220.371 237.922C220.965 237.719 221.235 237.274 221.235 236.572C221.235 235.64 220.659 235.15 219.471 235.15H217.257V241H219.732C220.825 241 221.554 240.388 221.554 239.434C221.554 238.642 221.176 238.084 220.371 237.922ZM218.031 235.762H219.376C220.051 235.762 220.461 235.996 220.461 236.675C220.461 237.377 220.06 237.67 219.34 237.67H218.031V235.762ZM219.66 240.388H218.031V238.277H219.484C220.375 238.277 220.776 238.597 220.776 239.38C220.776 240.032 220.362 240.388 219.66 240.388ZM223.207 241.09C223.517 241.09 223.778 240.833 223.778 240.518C223.778 240.208 223.517 239.951 223.207 239.951C222.892 239.951 222.626 240.208 222.626 240.518C222.626 240.833 222.892 241.09 223.207 241.09Z" fill="black"/>
<g filter="url(#filter1_d)">
<rect x="241" width="241" height="252" rx="38" fill="white"/>
<rect x="241.5" y="0.5" width="240" height="251" rx="37.5" stroke="#D1D1D1"/>
</g>
<path d="M351.544 50.1235C353.76 50.1235 355.145 48.9795 355.333 46.8605L353.5 46.6135C353.286 48.115 352.525 48.5375 351.505 48.5375C350.042 48.5375 349.347 47.452 349.347 45.775C349.347 44.098 350.042 43.0125 351.505 43.0125C352.525 43.0125 353.292 43.4805 353.5 44.9365L355.333 44.6895C355.171 42.5705 353.76 41.4265 351.544 41.4265C348.898 41.4265 347.39 43.1945 347.39 45.775C347.39 48.3555 348.898 50.1235 351.544 50.1235ZM359.368 50.1235C361.435 50.1235 362.644 48.7455 362.644 46.7955C362.644 44.852 361.435 43.474 359.368 43.474C357.294 43.474 356.085 44.852 356.085 46.7955C356.085 48.7455 357.294 50.1235 359.368 50.1235ZM359.368 48.5765C358.419 48.5765 357.808 47.894 357.808 46.7955C357.808 45.7035 358.419 45.0275 359.368 45.0275C360.31 45.0275 360.915 45.7035 360.915 46.7955C360.915 47.894 360.31 48.5765 359.368 48.5765ZM371.043 43.474C370.068 43.474 369.451 43.929 369.132 44.696C368.859 43.9355 368.248 43.474 367.189 43.474C366.181 43.474 365.564 43.955 365.265 44.7675L365.252 43.5975H363.718V50H365.453V46.8995C365.453 45.6775 365.921 45.086 366.688 45.086C367.325 45.086 367.585 45.4955 367.585 46.36V50H369.314V46.8865L369.321 46.8995C369.321 45.6775 369.789 45.086 370.556 45.086C371.193 45.086 371.453 45.502 371.453 46.36V50H373.182V45.8985C373.182 44.4685 372.577 43.474 371.043 43.474ZM378.251 43.4805C377.23 43.4805 376.554 43.903 376.19 44.7025L376.164 43.5975H374.585V52.4505H376.327V49.116C376.71 49.766 377.347 50.1235 378.251 50.1235C379.973 50.1235 381.078 48.804 381.078 46.7955C381.078 44.7935 379.973 43.4805 378.251 43.4805ZM377.841 48.583C376.899 48.583 376.268 47.8615 376.268 46.7955C376.268 45.736 376.899 45.0405 377.841 45.0405C378.79 45.0405 379.323 45.7165 379.323 46.7955C379.323 47.881 378.79 48.583 377.841 48.583ZM388.143 48.57C387.805 48.57 387.721 48.4075 387.721 48.089V46.1455C387.721 44.9235 387.37 43.474 384.874 43.474C383.268 43.474 382.157 44.241 382.053 45.6905L383.723 45.8855C383.801 45.2095 384.172 44.891 384.88 44.891C385.758 44.891 386.018 45.411 386.018 46.126V46.3795C385.647 46.321 385.257 46.2885 384.835 46.2885C383.073 46.2885 381.838 46.789 381.838 48.141C381.838 49.285 382.625 50.117 384.022 50.117C385.082 50.117 385.855 49.727 386.206 49.0315C386.304 49.779 386.668 50.052 387.623 50.052C387.948 50.052 388.208 50.0325 388.494 49.961V48.544C388.371 48.5635 388.254 48.57 388.143 48.57ZM384.614 48.791C384.035 48.791 383.717 48.5505 383.717 48.076C383.717 47.595 384.146 47.3675 385.075 47.3675C385.407 47.3675 385.706 47.3935 386.018 47.452V48.1475C385.738 48.5505 385.218 48.791 384.614 48.791ZM393.034 43.474C391.961 43.474 391.279 43.994 390.96 44.865L390.947 43.5975H389.4V50H391.142V46.919C391.142 45.697 391.708 45.1055 392.54 45.1055C393.268 45.1055 393.586 45.515 393.586 46.3925V50H395.328V45.905C395.328 44.4555 394.652 43.474 393.034 43.474ZM400.794 43.5975L399.793 47.4325C399.67 47.907 399.559 48.3555 399.455 48.778C399.345 48.336 399.228 47.8615 399.111 47.4195L398.103 43.5975H396.134L398.227 50H398.974L398.922 50.1625C398.643 51.001 397.915 51.209 396.491 50.845L396.192 52.34C398.116 52.8145 399.904 52.4115 400.619 50.1625L402.764 43.5975H400.794ZM409.295 48.4595V41.355C408.086 41.797 406.961 42.0245 405.596 42.0765V43.682C406.266 43.6625 406.825 43.578 407.397 43.4285V48.4595H405.596V50H411.095V48.4595H409.295Z" fill="black"/>
<g clip-path="url(#clip0)">
<g filter="url(#filter2_d)">
<path d="M441.628 194.285H428.371C422.88 194.285 418.428 198.737 418.428 204.228V217.485C418.428 222.976 422.88 227.428 428.371 227.428H441.628C447.12 227.428 451.571 222.976 451.571 217.485V204.228C451.571 198.737 447.12 194.285 441.628 194.285Z" fill="black"/>
</g>
<path d="M441.628 194.285H428.371C422.88 194.285 418.428 198.737 418.428 204.228V217.485C418.428 222.976 422.88 227.428 428.371 227.428H441.628C447.12 227.428 451.571 222.976 451.571 217.485V204.228C451.571 198.737 447.12 194.285 441.628 194.285Z" fill="#5375FF"/>
<path d="M442.116 203.74C441.828 203.453 441.421 203.337 441.027 203.429L441.021 203.431L428.007 206.616C426.758 206.922 425.885 208.033 425.885 209.32V211.037C425.885 211.663 426.381 212.175 427.001 212.201L431.896 213.034C432 213.052 432.105 213.018 432.179 212.944L437.948 207.175C438.15 206.973 438.478 206.973 438.68 207.175C438.882 207.378 438.882 207.706 438.68 207.908L432.912 213.676C432.837 213.751 432.804 213.856 432.821 213.96L433.654 218.855C433.681 219.475 434.193 219.97 434.818 219.97H436.536C437.822 219.97 438.934 219.098 439.24 217.849L442.425 204.835L442.426 204.829C442.517 204.434 442.401 204.028 442.116 203.74Z" fill="#FBFBFB"/>
</g>
<rect x="286" y="139" width="172" height="7" rx="2" fill="#B0AFAF"/>
<rect x="324" y="154" width="105" height="8" rx="2" fill="#B0AFAF"/>
<ellipse cx="311" cy="58" rx="25" ry="24" fill="#C4C4C4"/>
<rect x="347" y="58" width="73" height="3" rx="1.5" fill="#C4C4C4"/>
<g filter="url(#filter3_d)">
<rect x="287" y="195" width="113" height="31" rx="4" fill="#5375FF"/>
</g>
<path d="M315.024 214.13C316.811 214.13 317.799 213.194 317.806 211.79C317.812 210.158 316.486 209.775 315.069 209.365C313.763 208.982 312.898 208.683 312.898 207.656C312.898 206.772 313.535 206.187 314.77 206.187C316.233 206.187 316.863 207.025 316.954 208.273L317.734 208.104C317.695 206.291 316.551 205.42 314.803 205.42C313.171 205.42 311.995 206.226 311.995 207.714C311.995 209.255 313.223 209.749 314.699 210.145C316.051 210.522 316.915 210.789 316.915 211.829C316.915 212.901 316.168 213.356 315.037 213.356C313.36 213.356 312.521 212.576 312.547 211.107L311.722 211.237C311.683 213.278 313.171 214.13 315.024 214.13ZM322.699 207.636C321.666 207.636 320.892 208.15 320.502 208.949V204.926H319.651V214H320.502V210.73C320.502 209.281 321.386 208.429 322.556 208.429C323.622 208.429 324.136 209.027 324.136 210.353V214H324.987V210.23C324.987 208.527 324.233 207.636 322.699 207.636ZM329.531 214.13C331.409 214.13 332.625 212.732 332.625 210.88C332.625 209.027 331.409 207.636 329.531 207.636C327.652 207.636 326.43 209.027 326.43 210.88C326.43 212.732 327.652 214.13 329.531 214.13ZM329.531 213.369C328.172 213.369 327.295 212.31 327.295 210.88C327.295 209.45 328.172 208.397 329.531 208.397C330.883 208.397 331.76 209.45 331.76 210.88C331.76 212.31 330.883 213.369 329.531 213.369ZM341.487 207.766L340.499 211.4C340.323 212.05 340.174 212.674 340.011 213.343C339.842 212.648 339.673 212.017 339.491 211.393L338.412 207.773H337.444L336.358 211.393C336.176 212.017 336.007 212.648 335.838 213.343C335.676 212.674 335.526 212.05 335.357 211.4L334.369 207.766H333.485L335.273 214H336.352L337.541 210.067C337.684 209.593 337.795 209.125 337.925 208.631C338.055 209.125 338.172 209.593 338.315 210.067L339.498 214H340.577L342.364 207.766H341.487ZM353.371 207.636C352.292 207.636 351.59 208.156 351.252 208.975C351.005 208.098 350.414 207.636 349.387 207.636C348.34 207.636 347.677 208.117 347.339 208.884L347.352 207.766H346.54V214H347.385V210.711C347.385 209.255 348.061 208.41 349.237 208.41C350.232 208.41 350.557 209.014 350.557 210.321V214H351.395V210.711C351.395 209.255 352.065 208.41 353.241 208.41C354.242 208.41 354.567 209.034 354.567 210.321V214H355.406V210.23C355.406 208.566 354.821 207.636 353.371 207.636ZM359.962 214.13C361.84 214.13 363.056 212.732 363.056 210.88C363.056 209.027 361.84 207.636 359.962 207.636C358.083 207.636 356.861 209.027 356.861 210.88C356.861 212.732 358.083 214.13 359.962 214.13ZM359.962 213.369C358.603 213.369 357.726 212.31 357.726 210.88C357.726 209.45 358.603 208.397 359.962 208.397C361.314 208.397 362.191 209.45 362.191 210.88C362.191 212.31 361.314 213.369 359.962 213.369ZM365.417 209.04L365.43 207.766H364.618V214H365.456V210.698C365.456 209.073 366.698 208.267 367.913 208.585L367.972 207.695C366.821 207.441 365.84 207.948 365.417 209.04ZM374.298 210.756C374.298 208.891 373.277 207.636 371.522 207.636C369.761 207.636 368.63 209.06 368.63 210.867C368.63 212.713 369.806 214.13 371.62 214.13C372.881 214.13 373.817 213.545 374.181 212.433L373.511 212.199C373.212 212.94 372.627 213.389 371.62 213.389C370.372 213.389 369.585 212.459 369.488 211.127H374.291C374.298 210.997 374.298 210.873 374.298 210.756ZM371.522 208.364C372.679 208.364 373.355 209.125 373.446 210.425H369.507C369.637 209.209 370.359 208.364 371.522 208.364Z" fill="white"/>
<rect x="281.2" y="108.2" width="51.6" height="13.6" rx="6.8" stroke="#5375FF" stroke-width="0.4"/>
<rect x="344.2" y="108.2" width="41.6" height="13.6" rx="6.8" stroke="#5375FF" stroke-width="0.4"/>
<rect x="406.2" y="108.2" width="22.6" height="13.6" rx="6.8" stroke="#5375FF" stroke-width="0.4"/>
<g filter="url(#filter4_d)">
<rect x="241" y="86" width="241" height="252" rx="38" fill="white"/>
<rect x="241.5" y="86.5" width="240" height="251" rx="37.5" stroke="#D1D1D1"/>
</g>
<path d="M351.544 136.124C353.76 136.124 355.145 134.979 355.333 132.86L353.5 132.613C353.286 134.115 352.525 134.537 351.505 134.537C350.042 134.537 349.347 133.452 349.347 131.775C349.347 130.098 350.042 129.012 351.505 129.012C352.525 129.012 353.292 129.48 353.5 130.936L355.333 130.689C355.171 128.57 353.76 127.426 351.544 127.426C348.898 127.426 347.39 129.194 347.39 131.775C347.39 134.355 348.898 136.124 351.544 136.124ZM359.368 136.124C361.435 136.124 362.644 134.745 362.644 132.795C362.644 130.852 361.435 129.474 359.368 129.474C357.294 129.474 356.085 130.852 356.085 132.795C356.085 134.745 357.294 136.124 359.368 136.124ZM359.368 134.576C358.419 134.576 357.808 133.894 357.808 132.795C357.808 131.703 358.419 131.027 359.368 131.027C360.31 131.027 360.915 131.703 360.915 132.795C360.915 133.894 360.31 134.576 359.368 134.576ZM371.043 129.474C370.068 129.474 369.451 129.929 369.132 130.696C368.859 129.935 368.248 129.474 367.189 129.474C366.181 129.474 365.564 129.955 365.265 130.767L365.252 129.597H363.718V136H365.453V132.899C365.453 131.677 365.921 131.086 366.688 131.086C367.325 131.086 367.585 131.495 367.585 132.36V136H369.314V132.886L369.321 132.899C369.321 131.677 369.789 131.086 370.556 131.086C371.193 131.086 371.453 131.502 371.453 132.36V136H373.182V131.898C373.182 130.468 372.577 129.474 371.043 129.474ZM378.251 129.48C377.23 129.48 376.554 129.903 376.19 130.702L376.164 129.597H374.585V138.451H376.327V135.116C376.71 135.766 377.347 136.124 378.251 136.124C379.973 136.124 381.078 134.804 381.078 132.795C381.078 130.793 379.973 129.48 378.251 129.48ZM377.841 134.583C376.899 134.583 376.268 133.861 376.268 132.795C376.268 131.736 376.899 131.04 377.841 131.04C378.79 131.04 379.323 131.716 379.323 132.795C379.323 133.881 378.79 134.583 377.841 134.583ZM388.143 134.57C387.805 134.57 387.721 134.407 387.721 134.089V132.145C387.721 130.923 387.37 129.474 384.874 129.474C383.268 129.474 382.157 130.241 382.053 131.69L383.723 131.885C383.801 131.209 384.172 130.891 384.88 130.891C385.758 130.891 386.018 131.411 386.018 132.126V132.379C385.647 132.321 385.257 132.288 384.835 132.288C383.073 132.288 381.838 132.789 381.838 134.141C381.838 135.285 382.625 136.117 384.022 136.117C385.082 136.117 385.855 135.727 386.206 135.031C386.304 135.779 386.668 136.052 387.623 136.052C387.948 136.052 388.208 136.033 388.494 135.961V134.544C388.371 134.563 388.254 134.57 388.143 134.57ZM384.614 134.791C384.035 134.791 383.717 134.55 383.717 134.076C383.717 133.595 384.146 133.367 385.075 133.367C385.407 133.367 385.706 133.393 386.018 133.452V134.147C385.738 134.55 385.218 134.791 384.614 134.791ZM393.034 129.474C391.961 129.474 391.279 129.994 390.96 130.865L390.947 129.597H389.4V136H391.142V132.919C391.142 131.697 391.708 131.105 392.54 131.105C393.268 131.105 393.586 131.515 393.586 132.392V136H395.328V131.905C395.328 130.455 394.652 129.474 393.034 129.474ZM400.794 129.597L399.793 133.432C399.67 133.907 399.559 134.355 399.455 134.778C399.345 134.336 399.228 133.861 399.111 133.419L398.103 129.597H396.134L398.227 136H398.974L398.922 136.163C398.643 137.001 397.915 137.209 396.491 136.845L396.192 138.34C398.116 138.815 399.904 138.412 400.619 136.163L402.764 129.597H400.794ZM408.034 134.459L409.626 133.445C411.069 132.561 411.953 131.515 411.953 129.961C411.953 128.538 411.069 127.426 409.002 127.426C406.838 127.426 405.629 128.629 405.889 130.696L407.663 131.021C407.566 129.812 407.832 129.077 408.885 129.077C409.639 129.077 409.971 129.435 409.971 130.059C409.971 131.053 409.126 131.827 408.3 132.47L405.798 134.427L405.895 136H412.174V134.459H408.034Z" fill="black"/>
<g clip-path="url(#clip1)">
<g filter="url(#filter5_d)">
<path d="M441.628 280.285H428.371C422.88 280.285 418.428 284.737 418.428 290.228V303.485C418.428 308.976 422.88 313.428 428.371 313.428H441.628C447.12 313.428 451.571 308.976 451.571 303.485V290.228C451.571 284.737 447.12 280.285 441.628 280.285Z" fill="black"/>
</g>
<path d="M441.628 280.285H428.371C422.88 280.285 418.428 284.737 418.428 290.228V303.485C418.428 308.976 422.88 313.428 428.371 313.428H441.628C447.12 313.428 451.571 308.976 451.571 303.485V290.228C451.571 284.737 447.12 280.285 441.628 280.285Z" fill="#5375FF"/>
<path d="M442.116 289.74C441.828 289.453 441.421 289.337 441.027 289.429L441.021 289.431L428.007 292.616C426.758 292.922 425.885 294.033 425.885 295.32V297.037C425.885 297.663 426.381 298.175 427.001 298.201L431.896 299.034C432 299.052 432.105 299.018 432.179 298.944L437.948 293.175C438.15 292.973 438.478 292.973 438.68 293.175C438.882 293.378 438.882 293.706 438.68 293.908L432.912 299.676C432.837 299.751 432.804 299.856 432.821 299.96L433.654 304.855C433.681 305.475 434.193 305.97 434.818 305.97H436.536C437.822 305.97 438.934 305.098 439.24 303.849L442.425 290.835L442.426 290.829C442.517 290.434 442.401 290.028 442.116 289.74Z" fill="#FBFBFB"/>
</g>
<rect x="286" y="225" width="172" height="7" rx="2" fill="#B0AFAF"/>
<rect x="324" y="240" width="105" height="8" rx="2" fill="#B0AFAF"/>
<ellipse cx="311" cy="144" rx="25" ry="24" fill="#C4C4C4"/>
<rect x="347" y="144" width="73" height="3" rx="1.5" fill="#C4C4C4"/>
<g filter="url(#filter6_d)">
<rect x="287" y="281" width="113" height="31" rx="4" fill="#5375FF"/>
</g>
<path d="M315.024 300.13C316.811 300.13 317.799 299.194 317.806 297.79C317.812 296.158 316.486 295.775 315.069 295.365C313.763 294.982 312.898 294.683 312.898 293.656C312.898 292.772 313.535 292.187 314.77 292.187C316.233 292.187 316.863 293.025 316.954 294.273L317.734 294.104C317.695 292.291 316.551 291.42 314.803 291.42C313.171 291.42 311.995 292.226 311.995 293.714C311.995 295.255 313.223 295.749 314.699 296.145C316.051 296.522 316.915 296.789 316.915 297.829C316.915 298.901 316.168 299.356 315.037 299.356C313.36 299.356 312.521 298.576 312.547 297.107L311.722 297.237C311.683 299.278 313.171 300.13 315.024 300.13ZM322.699 293.636C321.666 293.636 320.892 294.15 320.502 294.949V290.926H319.651V300H320.502V296.73C320.502 295.281 321.386 294.429 322.556 294.429C323.622 294.429 324.136 295.027 324.136 296.353V300H324.987V296.23C324.987 294.527 324.233 293.636 322.699 293.636ZM329.531 300.13C331.409 300.13 332.625 298.732 332.625 296.88C332.625 295.027 331.409 293.636 329.531 293.636C327.652 293.636 326.43 295.027 326.43 296.88C326.43 298.732 327.652 300.13 329.531 300.13ZM329.531 299.369C328.172 299.369 327.295 298.31 327.295 296.88C327.295 295.45 328.172 294.397 329.531 294.397C330.883 294.397 331.76 295.45 331.76 296.88C331.76 298.31 330.883 299.369 329.531 299.369ZM341.487 293.766L340.499 297.4C340.323 298.05 340.174 298.674 340.011 299.343C339.842 298.648 339.673 298.017 339.491 297.393L338.412 293.773H337.444L336.358 297.393C336.176 298.017 336.007 298.648 335.838 299.343C335.676 298.674 335.526 298.05 335.357 297.4L334.369 293.766H333.485L335.273 300H336.352L337.541 296.067C337.684 295.593 337.795 295.125 337.925 294.631C338.055 295.125 338.172 295.593 338.315 296.067L339.498 300H340.577L342.364 293.766H341.487ZM353.371 293.636C352.292 293.636 351.59 294.156 351.252 294.975C351.005 294.098 350.414 293.636 349.387 293.636C348.34 293.636 347.677 294.117 347.339 294.884L347.352 293.766H346.54V300H347.385V296.711C347.385 295.255 348.061 294.41 349.237 294.41C350.232 294.41 350.557 295.014 350.557 296.321V300H351.395V296.711C351.395 295.255 352.065 294.41 353.241 294.41C354.242 294.41 354.567 295.034 354.567 296.321V300H355.406V296.23C355.406 294.566 354.821 293.636 353.371 293.636ZM359.962 300.13C361.84 300.13 363.056 298.732 363.056 296.88C363.056 295.027 361.84 293.636 359.962 293.636C358.083 293.636 356.861 295.027 356.861 296.88C356.861 298.732 358.083 300.13 359.962 300.13ZM359.962 299.369C358.603 299.369 357.726 298.31 357.726 296.88C357.726 295.45 358.603 294.397 359.962 294.397C361.314 294.397 362.191 295.45 362.191 296.88C362.191 298.31 361.314 299.369 359.962 299.369ZM365.417 295.04L365.43 293.766H364.618V300H365.456V296.698C365.456 295.073 366.698 294.267 367.913 294.585L367.972 293.695C366.821 293.441 365.84 293.948 365.417 295.04ZM374.298 296.756C374.298 294.891 373.277 293.636 371.522 293.636C369.761 293.636 368.63 295.06 368.63 296.867C368.63 298.713 369.806 300.13 371.62 300.13C372.881 300.13 373.817 299.545 374.181 298.433L373.511 298.199C373.212 298.94 372.627 299.389 371.62 299.389C370.372 299.389 369.585 298.459 369.488 297.127H374.291C374.298 296.997 374.298 296.873 374.298 296.756ZM371.522 294.364C372.679 294.364 373.355 295.125 373.446 296.425H369.507C369.637 295.209 370.359 294.364 371.522 294.364Z" fill="white"/>
<rect x="281.2" y="194.2" width="51.6" height="13.6" rx="6.8" stroke="#5375FF" stroke-width="0.4"/>
<rect x="344.2" y="194.2" width="41.6" height="13.6" rx="6.8" stroke="#5375FF" stroke-width="0.4"/>
<rect x="406.2" y="194.2" width="22.6" height="13.6" rx="6.8" stroke="#5375FF" stroke-width="0.4"/>
<g filter="url(#filter7_d)">
<rect x="241" y="178" width="241" height="252" rx="38" fill="white"/>
<rect x="241.5" y="178.5" width="240" height="251" rx="37.5" stroke="#D1D1D1"/>
</g>
<path d="M351.544 228.124C353.76 228.124 355.145 226.979 355.333 224.86L353.5 224.613C353.286 226.115 352.525 226.537 351.505 226.537C350.042 226.537 349.347 225.452 349.347 223.775C349.347 222.098 350.042 221.012 351.505 221.012C352.525 221.012 353.292 221.48 353.5 222.936L355.333 222.689C355.171 220.57 353.76 219.426 351.544 219.426C348.898 219.426 347.39 221.194 347.39 223.775C347.39 226.355 348.898 228.124 351.544 228.124ZM359.368 228.124C361.435 228.124 362.644 226.745 362.644 224.795C362.644 222.852 361.435 221.474 359.368 221.474C357.294 221.474 356.085 222.852 356.085 224.795C356.085 226.745 357.294 228.124 359.368 228.124ZM359.368 226.576C358.419 226.576 357.808 225.894 357.808 224.795C357.808 223.703 358.419 223.027 359.368 223.027C360.31 223.027 360.915 223.703 360.915 224.795C360.915 225.894 360.31 226.576 359.368 226.576ZM371.043 221.474C370.068 221.474 369.451 221.929 369.132 222.696C368.859 221.935 368.248 221.474 367.189 221.474C366.181 221.474 365.564 221.955 365.265 222.767L365.252 221.597H363.718V228H365.453V224.899C365.453 223.677 365.921 223.086 366.688 223.086C367.325 223.086 367.585 223.495 367.585 224.36V228H369.314V224.886L369.321 224.899C369.321 223.677 369.789 223.086 370.556 223.086C371.193 223.086 371.453 223.502 371.453 224.36V228H373.182V223.898C373.182 222.468 372.577 221.474 371.043 221.474ZM378.251 221.48C377.23 221.48 376.554 221.903 376.19 222.702L376.164 221.597H374.585V230.451H376.327V227.116C376.71 227.766 377.347 228.124 378.251 228.124C379.973 228.124 381.078 226.804 381.078 224.795C381.078 222.793 379.973 221.48 378.251 221.48ZM377.841 226.583C376.899 226.583 376.268 225.861 376.268 224.795C376.268 223.736 376.899 223.04 377.841 223.04C378.79 223.04 379.323 223.716 379.323 224.795C379.323 225.881 378.79 226.583 377.841 226.583ZM388.143 226.57C387.805 226.57 387.721 226.407 387.721 226.089V224.145C387.721 222.923 387.37 221.474 384.874 221.474C383.268 221.474 382.157 222.241 382.053 223.69L383.723 223.885C383.801 223.209 384.172 222.891 384.88 222.891C385.758 222.891 386.018 223.411 386.018 224.126V224.379C385.647 224.321 385.257 224.288 384.835 224.288C383.073 224.288 381.838 224.789 381.838 226.141C381.838 227.285 382.625 228.117 384.022 228.117C385.082 228.117 385.855 227.727 386.206 227.031C386.304 227.779 386.668 228.052 387.623 228.052C387.948 228.052 388.208 228.033 388.494 227.961V226.544C388.371 226.563 388.254 226.57 388.143 226.57ZM384.614 226.791C384.035 226.791 383.717 226.55 383.717 226.076C383.717 225.595 384.146 225.367 385.075 225.367C385.407 225.367 385.706 225.393 386.018 225.452V226.147C385.738 226.55 385.218 226.791 384.614 226.791ZM393.034 221.474C391.961 221.474 391.279 221.994 390.96 222.865L390.947 221.597H389.4V228H391.142V224.919C391.142 223.697 391.708 223.105 392.54 223.105C393.268 223.105 393.586 223.515 393.586 224.392V228H395.328V223.905C395.328 222.455 394.652 221.474 393.034 221.474ZM400.794 221.597L399.793 225.432C399.67 225.907 399.559 226.355 399.455 226.778C399.345 226.336 399.228 225.861 399.111 225.419L398.103 221.597H396.134L398.227 228H398.974L398.922 228.163C398.643 229.001 397.915 229.209 396.491 228.845L396.192 230.34C398.116 230.815 399.904 230.412 400.619 228.163L402.764 221.597H400.794ZM409.893 222.91L411.765 221.123V219.55H405.928V221.123H409.756L407.592 223.183L408.047 224.262C408.32 224.158 408.593 224.119 408.859 224.119C409.639 224.119 410.153 224.542 410.153 225.27C410.153 226.115 409.574 226.537 408.814 226.537C408.073 226.537 407.442 226.063 407.325 224.958L405.525 225.257C405.713 227.181 406.896 228.124 408.762 228.124C410.803 228.124 412.07 226.973 412.07 225.276C412.07 224.054 411.297 223.099 409.893 222.91Z" fill="black"/>
<g clip-path="url(#clip2)">
<g filter="url(#filter8_d)">
<path d="M441.628 372.285H428.371C422.88 372.285 418.428 376.737 418.428 382.228V395.485C418.428 400.976 422.88 405.428 428.371 405.428H441.628C447.12 405.428 451.571 400.976 451.571 395.485V382.228C451.571 376.737 447.12 372.285 441.628 372.285Z" fill="black"/>
</g>
<path d="M441.628 372.285H428.371C422.88 372.285 418.428 376.737 418.428 382.228V395.485C418.428 400.976 422.88 405.428 428.371 405.428H441.628C447.12 405.428 451.571 400.976 451.571 395.485V382.228C451.571 376.737 447.12 372.285 441.628 372.285Z" fill="#5375FF"/>
<path d="M442.116 381.74C441.828 381.453 441.421 381.337 441.027 381.429L441.021 381.431L428.007 384.616C426.758 384.922 425.885 386.033 425.885 387.32V389.037C425.885 389.663 426.381 390.175 427.001 390.201L431.896 391.034C432 391.052 432.105 391.018 432.179 390.944L437.948 385.175C438.15 384.973 438.478 384.973 438.68 385.175C438.882 385.378 438.882 385.706 438.68 385.908L432.912 391.676C432.837 391.751 432.804 391.856 432.821 391.96L433.654 396.855C433.681 397.475 434.193 397.97 434.818 397.97H436.536C437.822 397.97 438.934 397.098 439.24 395.849L442.425 382.835L442.426 382.829C442.517 382.434 442.401 382.028 442.116 381.74Z" fill="#FBFBFB"/>
</g>
<rect x="286" y="317" width="172" height="7" rx="2" fill="#B0AFAF"/>
<rect x="324" y="332" width="105" height="8" rx="2" fill="#B0AFAF"/>
<ellipse cx="311" cy="236" rx="25" ry="24" fill="#C4C4C4"/>
<rect x="347" y="236" width="73" height="3" rx="1.5" fill="#C4C4C4"/>
<g filter="url(#filter9_d)">
<rect x="287" y="373" width="113" height="31" rx="4" fill="#5375FF"/>
</g>
<path d="M315.024 392.13C316.811 392.13 317.799 391.194 317.806 389.79C317.812 388.158 316.486 387.775 315.069 387.365C313.763 386.982 312.898 386.683 312.898 385.656C312.898 384.772 313.535 384.187 314.77 384.187C316.233 384.187 316.863 385.025 316.954 386.273L317.734 386.104C317.695 384.291 316.551 383.42 314.803 383.42C313.171 383.42 311.995 384.226 311.995 385.714C311.995 387.255 313.223 387.749 314.699 388.145C316.051 388.522 316.915 388.789 316.915 389.829C316.915 390.901 316.168 391.356 315.037 391.356C313.36 391.356 312.521 390.576 312.547 389.107L311.722 389.237C311.683 391.278 313.171 392.13 315.024 392.13ZM322.699 385.636C321.666 385.636 320.892 386.15 320.502 386.949V382.926H319.651V392H320.502V388.73C320.502 387.281 321.386 386.429 322.556 386.429C323.622 386.429 324.136 387.027 324.136 388.353V392H324.987V388.23C324.987 386.527 324.233 385.636 322.699 385.636ZM329.531 392.13C331.409 392.13 332.625 390.732 332.625 388.88C332.625 387.027 331.409 385.636 329.531 385.636C327.652 385.636 326.43 387.027 326.43 388.88C326.43 390.732 327.652 392.13 329.531 392.13ZM329.531 391.369C328.172 391.369 327.295 390.31 327.295 388.88C327.295 387.45 328.172 386.397 329.531 386.397C330.883 386.397 331.76 387.45 331.76 388.88C331.76 390.31 330.883 391.369 329.531 391.369ZM341.487 385.766L340.499 389.4C340.323 390.05 340.174 390.674 340.011 391.343C339.842 390.648 339.673 390.017 339.491 389.393L338.412 385.773H337.444L336.358 389.393C336.176 390.017 336.007 390.648 335.838 391.343C335.676 390.674 335.526 390.05 335.357 389.4L334.369 385.766H333.485L335.273 392H336.352L337.541 388.067C337.684 387.593 337.795 387.125 337.925 386.631C338.055 387.125 338.172 387.593 338.315 388.067L339.498 392H340.577L342.364 385.766H341.487ZM353.371 385.636C352.292 385.636 351.59 386.156 351.252 386.975C351.005 386.098 350.414 385.636 349.387 385.636C348.34 385.636 347.677 386.117 347.339 386.884L347.352 385.766H346.54V392H347.385V388.711C347.385 387.255 348.061 386.41 349.237 386.41C350.232 386.41 350.557 387.014 350.557 388.321V392H351.395V388.711C351.395 387.255 352.065 386.41 353.241 386.41C354.242 386.41 354.567 387.034 354.567 388.321V392H355.406V388.23C355.406 386.566 354.821 385.636 353.371 385.636ZM359.962 392.13C361.84 392.13 363.056 390.732 363.056 388.88C363.056 387.027 361.84 385.636 359.962 385.636C358.083 385.636 356.861 387.027 356.861 388.88C356.861 390.732 358.083 392.13 359.962 392.13ZM359.962 391.369C358.603 391.369 357.726 390.31 357.726 388.88C357.726 387.45 358.603 386.397 359.962 386.397C361.314 386.397 362.191 387.45 362.191 388.88C362.191 390.31 361.314 391.369 359.962 391.369ZM365.417 387.04L365.43 385.766H364.618V392H365.456V388.698C365.456 387.073 366.698 386.267 367.913 386.585L367.972 385.695C366.821 385.441 365.84 385.948 365.417 387.04ZM374.298 388.756C374.298 386.891 373.277 385.636 371.522 385.636C369.761 385.636 368.63 387.06 368.63 388.867C368.63 390.713 369.806 392.13 371.62 392.13C372.881 392.13 373.817 391.545 374.181 390.433L373.511 390.199C373.212 390.94 372.627 391.389 371.62 391.389C370.372 391.389 369.585 390.459 369.488 389.127H374.291C374.298 388.997 374.298 388.873 374.298 388.756ZM371.522 386.364C372.679 386.364 373.355 387.125 373.446 388.425H369.507C369.637 387.209 370.359 386.364 371.522 386.364Z" fill="white"/>
<rect x="281.2" y="286.2" width="51.6" height="13.6" rx="6.8" stroke="#5375FF" stroke-width="0.4"/>
<rect x="344.2" y="286.2" width="41.6" height="13.6" rx="6.8" stroke="#5375FF" stroke-width="0.4"/>
<rect x="406.2" y="286.2" width="22.6" height="13.6" rx="6.8" stroke="#5375FF" stroke-width="0.4"/>
<defs>
<filter id="filter0_d" x="0" y="101" width="288" height="231" filterUnits="userSpaceOnUse" color-interpolation-filters="sRGB">
<feFlood flood-opacity="0" result="BackgroundImageFix"/>
<feColorMatrix in="SourceAlpha" type="matrix" values="0 0 0 0 0 0 0 0 0 0 0 0 0 0 0 0 0 0 127 0"/>
<feOffset dy="4"/>
<feGaussianBlur stdDeviation="2"/>
<feColorMatrix type="matrix" values="0 0 0 0 0 0 0 0 0 0 0 0 0 0 0 0 0 0 0.25 0"/>
<feBlend mode="normal" in2="BackgroundImageFix" result="effect1_dropShadow"/>
<feBlend mode="normal" in="SourceGraphic" in2="effect1_dropShadow" result="shape"/>
</filter>
<filter id="filter1_d" x="237" y="0" width="249" height="260" filterUnits="userSpaceOnUse" color-interpolation-filters="sRGB">
<feFlood flood-opacity="0" result="BackgroundImageFix"/>
<feColorMatrix in="SourceAlpha" type="matrix" values="0 0 0 0 0 0 0 0 0 0 0 0 0 0 0 0 0 0 127 0"/>
<feOffset dy="4"/>
<feGaussianBlur stdDeviation="2"/>
<feColorMatrix type="matrix" values="0 0 0 0 0 0 0 0 0 0 0 0 0 0 0 0 0 0 0.25 0"/>
<feBlend mode="normal" in2="BackgroundImageFix" result="effect1_dropShadow"/>
<feBlend mode="normal" in="SourceGraphic" in2="effect1_dropShadow" result="shape"/>
</filter>
<filter id="filter2_d" x="403.428" y="184.285" width="63.1429" height="63.1429" filterUnits="userSpaceOnUse" color-interpolation-filters="sRGB">
<feFlood flood-opacity="0" result="BackgroundImageFix"/>
<feColorMatrix in="SourceAlpha" type="matrix" values="0 0 0 0 0 0 0 0 0 0 0 0 0 0 0 0 0 0 127 0"/>
<feOffset dy="5"/>
<feGaussianBlur stdDeviation="7.5"/>
<feColorMatrix type="matrix" values="0 0 0 0 0.0470588 0 0 0 0 0.0666667 0 0 0 0 0.109804 0 0 0 0.151825 0"/>
<feBlend mode="normal" in2="BackgroundImageFix" result="effect1_dropShadow"/>
<feBlend mode="normal" in="SourceGraphic" in2="effect1_dropShadow" result="shape"/>
</filter>
<filter id="filter3_d" x="283" y="193" width="121" height="39" filterUnits="userSpaceOnUse" color-interpolation-filters="sRGB">
<feFlood flood-opacity="0" result="BackgroundImageFix"/>
<feColorMatrix in="SourceAlpha" type="matrix" values="0 0 0 0 0 0 0 0 0 0 0 0 0 0 0 0 0 0 127 0"/>
<feOffset dy="2"/>
<feGaussianBlur stdDeviation="2"/>
<feColorMatrix type="matrix" values="0 0 0 0 0 0 0 0 0 0 0 0 0 0 0 0 0 0 0.25 0"/>
<feBlend mode="normal" in2="BackgroundImageFix" result="effect1_dropShadow"/>
<feBlend mode="normal" in="SourceGraphic" in2="effect1_dropShadow" result="shape"/>
</filter>
<filter id="filter4_d" x="237" y="86" width="249" height="260" filterUnits="userSpaceOnUse" color-interpolation-filters="sRGB">
<feFlood flood-opacity="0" result="BackgroundImageFix"/>
<feColorMatrix in="SourceAlpha" type="matrix" values="0 0 0 0 0 0 0 0 0 0 0 0 0 0 0 0 0 0 127 0"/>
<feOffset dy="4"/>
<feGaussianBlur stdDeviation="2"/>
<feColorMatrix type="matrix" values="0 0 0 0 0 0 0 0 0 0 0 0 0 0 0 0 0 0 0.25 0"/>
<feBlend mode="normal" in2="BackgroundImageFix" result="effect1_dropShadow"/>
<feBlend mode="normal" in="SourceGraphic" in2="effect1_dropShadow" result="shape"/>
</filter>
<filter id="filter5_d" x="403.428" y="270.285" width="63.1429" height="63.1429" filterUnits="userSpaceOnUse" color-interpolation-filters="sRGB">
<feFlood flood-opacity="0" result="BackgroundImageFix"/>
<feColorMatrix in="SourceAlpha" type="matrix" values="0 0 0 0 0 0 0 0 0 0 0 0 0 0 0 0 0 0 127 0"/>
<feOffset dy="5"/>
<feGaussianBlur stdDeviation="7.5"/>
<feColorMatrix type="matrix" values="0 0 0 0 0.0470588 0 0 0 0 0.0666667 0 0 0 0 0.109804 0 0 0 0.151825 0"/>
<feBlend mode="normal" in2="BackgroundImageFix" result="effect1_dropShadow"/>
<feBlend mode="normal" in="SourceGraphic" in2="effect1_dropShadow" result="shape"/>
</filter>
<filter id="filter6_d" x="283" y="279" width="121" height="39" filterUnits="userSpaceOnUse" color-interpolation-filters="sRGB">
<feFlood flood-opacity="0" result="BackgroundImageFix"/>
<feColorMatrix in="SourceAlpha" type="matrix" values="0 0 0 0 0 0 0 0 0 0 0 0 0 0 0 0 0 0 127 0"/>
<feOffset dy="2"/>
<feGaussianBlur stdDeviation="2"/>
<feColorMatrix type="matrix" values="0 0 0 0 0 0 0 0 0 0 0 0 0 0 0 0 0 0 0.25 0"/>
<feBlend mode="normal" in2="BackgroundImageFix" result="effect1_dropShadow"/>
<feBlend mode="normal" in="SourceGraphic" in2="effect1_dropShadow" result="shape"/>
</filter>
<filter id="filter7_d" x="237" y="178" width="249" height="260" filterUnits="userSpaceOnUse" color-interpolation-filters="sRGB">
<feFlood flood-opacity="0" result="BackgroundImageFix"/>
<feColorMatrix in="SourceAlpha" type="matrix" values="0 0 0 0 0 0 0 0 0 0 0 0 0 0 0 0 0 0 127 0"/>
<feOffset dy="4"/>
<feGaussianBlur stdDeviation="2"/>
<feColorMatrix type="matrix" values="0 0 0 0 0 0 0 0 0 0 0 0 0 0 0 0 0 0 0.25 0"/>
<feBlend mode="normal" in2="BackgroundImageFix" result="effect1_dropShadow"/>
<feBlend mode="normal" in="SourceGraphic" in2="effect1_dropShadow" result="shape"/>
</filter>
<filter id="filter8_d" x="403.428" y="362.285" width="63.1429" height="63.1429" filterUnits="userSpaceOnUse" color-interpolation-filters="sRGB">
<feFlood flood-opacity="0" result="BackgroundImageFix"/>
<feColorMatrix in="SourceAlpha" type="matrix" values="0 0 0 0 0 0 0 0 0 0 0 0 0 0 0 0 0 0 127 0"/>
<feOffset dy="5"/>
<feGaussianBlur stdDeviation="7.5"/>
<feColorMatrix type="matrix" values="0 0 0 0 0.0470588 0 0 0 0 0.0666667 0 0 0 0 0.109804 0 0 0 0.151825 0"/>
<feBlend mode="normal" in2="BackgroundImageFix" result="effect1_dropShadow"/>
<feBlend mode="normal" in="SourceGraphic" in2="effect1_dropShadow" result="shape"/>
</filter>
<filter id="filter9_d" x="283" y="371" width="121" height="39" filterUnits="userSpaceOnUse" color-interpolation-filters="sRGB">
<feFlood flood-opacity="0" result="BackgroundImageFix"/>
<feColorMatrix in="SourceAlpha" type="matrix" values="0 0 0 0 0 0 0 0 0 0 0 0 0 0 0 0 0 0 127 0"/>
<feOffset dy="2"/>
<feGaussianBlur stdDeviation="2"/>
<feColorMatrix type="matrix" values="0 0 0 0 0 0 0 0 0 0 0 0 0 0 0 0 0 0 0.25 0"/>
<feBlend mode="normal" in2="BackgroundImageFix" result="effect1_dropShadow"/>
<feBlend mode="normal" in="SourceGraphic" in2="effect1_dropShadow" result="shape"/>
</filter>
<clipPath id="clip0">
<rect width="58" height="58" fill="white" transform="translate(406 186)"/>
</clipPath>
<clipPath id="clip1">
<rect width="58" height="58" fill="white" transform="translate(406 272)"/>
</clipPath>
<clipPath id="clip2">
<rect width="58" height="58" fill="white" transform="translate(406 364)"/>
</clipPath>
</defs>
</svg>
