<svg width="489" height="284" viewBox="0 0 489 284" fill="none" xmlns="http://www.w3.org/2000/svg">
<path d="M180 157H193.5" stroke="black"/>
<path d="M459.234 194.2C475.633 194.2 489 177.022 489 155.866V23.167H201.766C185.367 23.167 172 40.3818 172 61.5006V155.866C172 176.985 185.338 194.2 201.766 194.2H459.234Z" fill="#F2F2F2"/>
<path d="M203.815 49H205.812C207.77 49 208.733 47.8435 208.733 46.066C208.733 44.2975 207.77 43.15 205.812 43.15H203.815V49ZM204.598 48.334V43.816H205.831C207.289 43.816 207.932 44.6665 207.932 46.066C207.932 47.4655 207.289 48.334 205.831 48.334H204.598ZM211.623 49.09C212.955 49.09 213.797 48.127 213.797 46.8265C213.797 45.5305 212.955 44.5675 211.623 44.5675C210.287 44.5675 209.445 45.5305 209.445 46.8265C209.445 48.127 210.287 49.09 211.623 49.09ZM211.623 48.4375C210.746 48.4375 210.179 47.7625 210.179 46.8265C210.179 45.8905 210.746 45.22 211.623 45.22C212.492 45.22 213.063 45.8905 213.063 46.8265C213.063 47.7625 212.492 48.4375 211.623 48.4375ZM219.528 44.6575L218.641 47.272C218.511 47.668 218.389 48.046 218.272 48.424C218.142 48.046 218.011 47.659 217.881 47.272L216.994 44.6575H216.166L217.773 49.009H217.98L217.885 49.2835C217.633 49.99 217.12 50.17 216.324 50.053L216.229 50.7235C217.359 50.8945 218.205 50.5345 218.619 49.351L220.356 44.6575H219.528ZM222.97 49.09C224.302 49.09 225.143 48.127 225.143 46.8265C225.143 45.5305 224.302 44.5675 222.97 44.5675C221.633 44.5675 220.792 45.5305 220.792 46.8265C220.792 48.127 221.633 49.09 222.97 49.09ZM222.97 48.4375C222.092 48.4375 221.525 47.7625 221.525 46.8265C221.525 45.8905 222.092 45.22 222.97 45.22C223.838 45.22 224.41 45.8905 224.41 46.8265C224.41 47.7625 223.838 48.4375 222.97 48.4375ZM229.11 44.6575V46.885C229.11 47.857 228.552 48.4015 227.796 48.4015C227.139 48.4015 226.811 48.019 226.811 47.173V44.6575H226.082V47.317C226.082 48.4555 226.59 49.0855 227.639 49.0855C228.377 49.0855 228.899 48.7165 229.146 48.127L229.164 49H229.839V44.6575H229.11ZM233.066 49H233.799V42.718H233.066V49ZM235.54 43.825C235.841 43.825 236.084 43.591 236.084 43.303C236.084 43.015 235.841 42.79 235.54 42.79C235.261 42.79 235.018 43.015 235.018 43.303C235.018 43.591 235.261 43.825 235.54 43.825ZM235.184 49H235.918V44.6575H235.184V49ZM240.218 49H241.082L239.174 46.4935L240.884 44.6575H239.975L238.013 46.8085V42.718H237.302V49H238.013V47.6275L238.666 46.9345L240.218 49ZM245.324 46.7455C245.324 45.4405 244.599 44.5675 243.366 44.5675C242.12 44.5675 241.323 45.553 241.323 46.822C241.323 48.118 242.133 49.09 243.434 49.09C244.338 49.09 245.004 48.6715 245.243 47.857L244.653 47.6905C244.464 48.1765 244.086 48.4645 243.429 48.4645C242.637 48.4645 242.142 47.9065 242.061 47.056H245.315C245.324 46.948 245.324 46.8445 245.324 46.7455ZM243.362 45.1795C244.095 45.1795 244.532 45.652 244.595 46.4755H242.066C242.165 45.697 242.633 45.1795 243.362 45.1795ZM250.401 44.5675C249.713 44.5675 249.204 44.887 248.934 45.4045V42.718H248.201V49H248.934V46.768C248.934 45.796 249.492 45.2515 250.248 45.2515C250.932 45.2515 251.256 45.634 251.256 46.48V49H251.99V46.336C251.99 45.1975 251.477 44.5675 250.401 44.5675ZM255.103 49.09C256.435 49.09 257.276 48.127 257.276 46.8265C257.276 45.5305 256.435 44.5675 255.103 44.5675C253.766 44.5675 252.925 45.5305 252.925 46.8265C252.925 48.127 253.766 49.09 255.103 49.09ZM255.103 48.4375C254.225 48.4375 253.658 47.7625 253.658 46.8265C253.658 45.8905 254.225 45.22 255.103 45.22C255.971 45.22 256.543 45.8905 256.543 46.8265C256.543 47.7625 255.971 48.4375 255.103 48.4375ZM263.344 44.6575L262.714 47.11C262.597 47.56 262.507 47.983 262.404 48.4555C262.296 47.9605 262.192 47.533 262.071 47.101L261.387 44.6575H260.532L259.848 47.101C259.726 47.533 259.618 47.956 259.51 48.451C259.411 47.9785 259.317 47.56 259.204 47.11L258.574 44.6575H257.809L259.015 49H259.956L260.716 46.318C260.811 46.003 260.878 45.7015 260.959 45.364C261.04 45.7015 261.112 46.003 261.202 46.318L261.958 49H262.903L264.109 44.6575H263.344ZM269.335 48.253C269.15 48.361 268.97 48.4105 268.732 48.4105C268.214 48.4105 267.994 48.127 267.994 47.5285V45.2695H269.429V44.6575H267.994V43.258L267.265 43.366V44.6575H266.369V45.2695H267.265V47.6185C267.265 48.604 267.769 49.063 268.628 49.063C268.979 49.063 269.263 48.9865 269.528 48.8425L269.335 48.253ZM272.62 44.5675C271.931 44.5675 271.423 44.887 271.153 45.4045V42.718H270.419V49H271.153V46.768C271.153 45.796 271.711 45.2515 272.467 45.2515C273.151 45.2515 273.475 45.634 273.475 46.48V49H274.208V46.336C274.208 45.1975 273.695 44.5675 272.62 44.5675ZM275.891 43.825C276.192 43.825 276.435 43.591 276.435 43.303C276.435 43.015 276.192 42.79 275.891 42.79C275.612 42.79 275.369 43.015 275.369 43.303C275.369 43.591 275.612 43.825 275.891 43.825ZM275.535 49H276.269V44.6575H275.535V49ZM279.277 49.09C280.321 49.09 280.897 48.5905 280.897 47.8165C280.897 46.9705 280.263 46.759 279.286 46.543C278.593 46.3855 278.22 46.2595 278.22 45.805C278.22 45.4225 278.494 45.1525 279.106 45.1525C279.727 45.1525 280.164 45.454 280.204 46.1245L280.848 46.039C280.825 45.148 280.245 44.5675 279.102 44.5675C278.143 44.5675 277.513 45.049 277.509 45.85C277.509 46.624 278.053 46.9255 279.138 47.155C279.777 47.29 280.173 47.389 280.173 47.8705C280.173 48.3025 279.853 48.505 279.259 48.505C278.575 48.505 278.08 48.2485 278.031 47.524L277.36 47.614C277.432 48.64 278.193 49.09 279.277 49.09ZM284.231 43.825C284.533 43.825 284.776 43.591 284.776 43.303C284.776 43.015 284.533 42.79 284.231 42.79C283.952 42.79 283.709 43.015 283.709 43.303C283.709 43.591 283.952 43.825 284.231 43.825ZM283.876 49H284.609V44.6575H283.876V49ZM287.618 49.09C288.662 49.09 289.238 48.5905 289.238 47.8165C289.238 46.9705 288.604 46.759 287.627 46.543C286.934 46.3855 286.561 46.2595 286.561 45.805C286.561 45.4225 286.835 45.1525 287.447 45.1525C288.068 45.1525 288.505 45.454 288.545 46.1245L289.189 46.039C289.166 45.148 288.586 44.5675 287.443 44.5675C286.484 44.5675 285.854 45.049 285.85 45.85C285.85 46.624 286.394 46.9255 287.479 47.155C288.118 47.29 288.514 47.389 288.514 47.8705C288.514 48.3025 288.194 48.505 287.6 48.505C286.916 48.505 286.421 48.2485 286.372 47.524L285.701 47.614C285.773 48.64 286.534 49.09 287.618 49.09ZM295.434 44.662L295.43 45.553C295.164 44.9185 294.647 44.5675 293.855 44.5675C292.586 44.5675 291.848 45.481 291.848 46.7815C291.848 48.091 292.586 49.0045 293.855 49.0045C294.651 49.0045 295.155 48.631 295.425 47.9875V48.7345C295.425 49.738 294.813 50.224 293.976 50.224C293.378 50.224 292.838 50.008 292.388 49.522L291.983 50.0485C292.523 50.5975 293.148 50.845 293.949 50.845C295.209 50.845 296.1 50.1385 296.1 48.748V44.662H295.434ZM293.945 48.361C293.049 48.361 292.599 47.6995 292.599 46.7815C292.599 45.8635 293.049 45.2155 293.945 45.2155C294.827 45.2155 295.376 45.8815 295.376 46.7815C295.376 47.6815 294.827 48.361 293.945 48.361ZM299.294 49.09C300.626 49.09 301.468 48.127 301.468 46.8265C301.468 45.5305 300.626 44.5675 299.294 44.5675C297.958 44.5675 297.116 45.5305 297.116 46.8265C297.116 48.127 297.958 49.09 299.294 49.09ZM299.294 48.4375C298.417 48.4375 297.85 47.7625 297.85 46.8265C297.85 45.8905 298.417 45.22 299.294 45.22C300.163 45.22 300.734 45.8905 300.734 46.8265C300.734 47.7625 300.163 48.4375 299.294 48.4375ZM302.838 43.825C303.139 43.825 303.382 43.591 303.382 43.303C303.382 43.015 303.139 42.79 302.838 42.79C302.559 42.79 302.316 43.015 302.316 43.303C302.316 43.591 302.559 43.825 302.838 43.825ZM302.482 49H303.216V44.6575H302.482V49ZM306.81 44.5675C306.076 44.5675 305.554 44.932 305.302 45.508L305.307 44.6575H304.6V49H305.334V46.768C305.334 45.796 305.892 45.2515 306.648 45.2515C307.332 45.2515 307.656 45.634 307.656 46.48V49H308.389V46.336C308.389 45.1975 307.876 44.5675 306.81 44.5675ZM312.933 44.662L312.929 45.553C312.663 44.9185 312.146 44.5675 311.354 44.5675C310.085 44.5675 309.347 45.481 309.347 46.7815C309.347 48.091 310.085 49.0045 311.354 49.0045C312.15 49.0045 312.654 48.631 312.924 47.9875V48.7345C312.924 49.738 312.312 50.224 311.475 50.224C310.877 50.224 310.337 50.008 309.887 49.522L309.482 50.0485C310.022 50.5975 310.647 50.845 311.448 50.845C312.708 50.845 313.599 50.1385 313.599 48.748V44.662H312.933ZM311.444 48.361C310.548 48.361 310.098 47.6995 310.098 46.7815C310.098 45.8635 310.548 45.2155 311.444 45.2155C312.326 45.2155 312.875 45.8815 312.875 46.7815C312.875 47.6815 312.326 48.361 311.444 48.361ZM316.073 47.3665H316.789V47.1775C316.789 46.7185 316.897 46.4935 317.477 46.048C318.031 45.6295 318.346 45.265 318.346 44.5765C318.346 43.618 317.68 43.06 316.636 43.06C315.506 43.06 314.881 43.6855 314.809 44.878L315.533 45.0175C315.556 44.0995 315.952 43.726 316.631 43.726C317.216 43.726 317.572 44.041 317.572 44.6395C317.572 45.0625 317.401 45.301 317.023 45.6115C316.217 46.264 316.073 46.5385 316.073 47.1775V47.3665ZM316.46 49.09C316.771 49.09 317.032 48.8335 317.032 48.5185C317.032 48.208 316.771 47.9515 316.46 47.9515C316.145 47.9515 315.88 48.208 315.88 48.5185C315.88 48.8335 316.145 49.09 316.46 49.09Z" fill="black"/>
<path d="M329.882 10.808H328.265V4.823H326.529L322.525 10.885L322.721 11.781L327.103 11.774V14H328.265V11.767H329.882V10.808ZM323.848 10.808L325.787 7.91C326.228 7.238 326.669 6.58 327.145 5.733C327.103 6.503 327.103 7.301 327.103 8.183V10.808H323.848ZM332.14 8.974C332.623 8.974 333.029 8.575 333.029 8.085C333.029 7.595 332.623 7.196 332.14 7.196C331.65 7.196 331.236 7.595 331.236 8.085C331.236 8.575 331.65 8.974 332.14 8.974ZM332.14 14.14C332.623 14.14 333.029 13.741 333.029 13.251C333.029 12.768 332.623 12.369 332.14 12.369C331.65 12.369 331.236 12.768 331.236 13.251C331.236 13.741 331.65 14.14 332.14 14.14ZM338.471 8.176C337.666 8.176 337.022 8.372 336.399 8.876L336.609 5.929H340.921V4.9H335.594L335.286 9.478L336.238 10.052C336.917 9.408 337.47 9.184 338.233 9.184C339.5 9.184 340.137 9.968 340.137 11.144C340.13 12.439 339.318 13.104 338.058 13.104C337.015 13.104 336.091 12.558 335.839 11.424L334.719 11.641C335.069 13.272 336.322 14.14 338.037 14.14C339.983 14.14 341.383 13.006 341.383 11.137C341.383 9.331 340.333 8.176 338.471 8.176ZM346.743 8.176C345.938 8.176 345.294 8.372 344.671 8.876L344.881 5.929H349.193V4.9H343.866L343.558 9.478L344.51 10.052C345.189 9.408 345.742 9.184 346.505 9.184C347.772 9.184 348.409 9.968 348.409 11.144C348.402 12.439 347.59 13.104 346.33 13.104C345.287 13.104 344.363 12.558 344.111 11.424L342.991 11.641C343.341 13.272 344.594 14.14 346.309 14.14C348.255 14.14 349.655 13.006 349.655 11.137C349.655 9.331 348.605 8.176 346.743 8.176ZM355.077 7.112C353.915 7.112 353.096 7.588 352.655 8.491L352.641 7.245H351.556V16.73H352.697V12.782C353.152 13.65 353.943 14.14 355.077 14.14C357.037 14.14 358.143 12.691 358.143 10.612C358.143 8.547 357.037 7.112 355.077 7.112ZM354.881 13.125C353.509 13.125 352.655 12.047 352.655 10.612C352.655 9.184 353.509 8.134 354.881 8.134C356.274 8.134 356.974 9.156 356.974 10.612C356.974 12.075 356.274 13.125 354.881 13.125ZM367.139 7.105C366.019 7.105 365.291 7.623 364.92 8.47C364.64 7.574 363.989 7.105 362.897 7.105C361.819 7.105 361.126 7.581 360.748 8.358L360.755 7.245H359.691V14H360.811V10.486C360.811 8.981 361.483 8.127 362.652 8.127C363.639 8.127 363.982 8.729 363.982 10.017V14H365.095V10.486C365.095 8.981 365.76 8.127 366.929 8.127C367.916 8.127 368.259 8.75 368.259 10.017V14H369.372V9.849C369.372 8.113 368.707 7.105 367.139 7.105Z" fill="#5A5A5A"/>
<rect x="203" y="94" width="29" height="80" rx="5" fill="#5375FF"/>
<rect x="241" y="76" width="29" height="98" rx="5" fill="#5375FF"/>
<rect x="279" y="134" width="29" height="40" rx="5" fill="#5375FF"/>
<rect x="317" y="104" width="29" height="70" rx="5" fill="#5375FF"/>
<rect x="355" y="85" width="29" height="89" rx="5" fill="#5375FF"/>
<rect x="393" y="159" width="29" height="15" rx="5" fill="#5375FF"/>
<rect x="431" y="62" width="29" height="112" rx="5" fill="#5375FF"/>
<path d="M180 170H193.5" stroke="black"/>
<path d="M180 160H193.5" stroke="black"/>
<path d="M180 150H193.5" stroke="black"/>
<path d="M180 140H193.5" stroke="black"/>
<path d="M180 130H193.5" stroke="black"/>
<path d="M180 117H193.5" stroke="black"/>
<path d="M180 107H193.5" stroke="black"/>
<path d="M180 97H193.5" stroke="black"/>
<path d="M180 88H193.5" stroke="black"/>
<path d="M180 79H193.5" stroke="black"/>
<path d="M54.3759 284C43.1504 284 34 276.769 34 267.863V212H230.624C241.85 212 251 219.247 251 228.137V267.863C251 276.753 241.869 284 230.624 284H54.3759Z" fill="#5375FF"/>
<path d="M46.8145 234H47.5885V228.15H46.8145V234ZM51.5494 233.253C51.3649 233.361 51.1849 233.41 50.9464 233.41C50.4289 233.41 50.2084 233.127 50.2084 232.528V230.269H51.6439V229.657H50.2084V228.258L49.4794 228.366V229.657H48.5839V230.269H49.4794V232.618C49.4794 233.604 49.9834 234.063 50.8429 234.063C51.1939 234.063 51.4774 233.986 51.7429 233.842L51.5494 233.253ZM52.9646 227.601C52.6091 227.601 52.3661 227.848 52.3661 228.181C52.3661 228.519 52.6046 228.753 52.9151 228.753C52.9376 228.753 52.9556 228.753 52.9781 228.748C52.8971 229.117 52.6316 229.392 52.2041 229.662L52.4921 230.071C53.2526 229.635 53.6126 229.099 53.6126 228.366C53.6126 227.875 53.3741 227.601 52.9646 227.601ZM55.8319 234.09C56.8759 234.09 57.4519 233.59 57.4519 232.816C57.4519 231.97 56.8174 231.759 55.8409 231.543C55.1479 231.385 54.7744 231.259 54.7744 230.805C54.7744 230.422 55.0489 230.152 55.6609 230.152C56.2819 230.152 56.7184 230.454 56.7589 231.124L57.4024 231.039C57.3799 230.148 56.7994 229.567 55.6564 229.567C54.6979 229.567 54.0679 230.049 54.0634 230.85C54.0634 231.624 54.6079 231.925 55.6924 232.155C56.3314 232.29 56.7274 232.389 56.7274 232.87C56.7274 233.302 56.4079 233.505 55.8139 233.505C55.1299 233.505 54.6349 233.248 54.5854 232.524L53.9149 232.614C53.9869 233.64 54.7474 234.09 55.8319 234.09ZM60.7815 228.825C61.083 228.825 61.326 228.591 61.326 228.303C61.326 228.015 61.083 227.79 60.7815 227.79C60.5025 227.79 60.2595 228.015 60.2595 228.303C60.2595 228.591 60.5025 228.825 60.7815 228.825ZM59.535 235.868C60.705 235.881 61.164 235.242 61.164 234.297V229.657H60.4305V234.297C60.4305 234.936 60.21 235.265 59.535 235.251V235.868ZM65.5183 229.657V231.885C65.5183 232.857 64.9603 233.401 64.2043 233.401C63.5473 233.401 63.2188 233.019 63.2188 232.173V229.657H62.4898V232.317C62.4898 233.455 62.9983 234.086 64.0468 234.086C64.7848 234.086 65.3068 233.716 65.5543 233.127L65.5723 234H66.2473V229.657H65.5183ZM69.244 234.09C70.288 234.09 70.864 233.59 70.864 232.816C70.864 231.97 70.2295 231.759 69.253 231.543C68.56 231.385 68.1865 231.259 68.1865 230.805C68.1865 230.422 68.461 230.152 69.073 230.152C69.694 230.152 70.1305 230.454 70.171 231.124L70.8145 231.039C70.792 230.148 70.2115 229.567 69.0685 229.567C68.11 229.567 67.48 230.049 67.4755 230.85C67.4755 231.624 68.02 231.925 69.1045 232.155C69.7435 232.29 70.1395 232.389 70.1395 232.87C70.1395 233.302 69.82 233.505 69.226 233.505C68.542 233.505 68.047 233.248 67.9975 232.524L67.327 232.614C67.399 233.64 68.1595 234.09 69.244 234.09ZM74.4361 233.253C74.2516 233.361 74.0716 233.41 73.8331 233.41C73.3156 233.41 73.0951 233.127 73.0951 232.528V230.269H74.5306V229.657H73.0951V228.258L72.3661 228.366V229.657H71.4706V230.269H72.3661V232.618C72.3661 233.604 72.8701 234.063 73.7296 234.063C74.0806 234.063 74.3641 233.986 74.6296 233.842L74.4361 233.253ZM78.9999 234.09C80.0439 234.09 80.6199 233.59 80.6199 232.816C80.6199 231.97 79.9854 231.759 79.0089 231.543C78.3159 231.385 77.9424 231.259 77.9424 230.805C77.9424 230.422 78.2169 230.152 78.8289 230.152C79.4499 230.152 79.8864 230.454 79.9269 231.124L80.5704 231.039C80.5479 230.148 79.9674 229.567 78.8244 229.567C77.8659 229.567 77.2359 230.049 77.2314 230.85C77.2314 231.624 77.7759 231.925 78.8604 232.155C79.4994 232.29 79.8954 232.389 79.8954 232.87C79.8954 233.302 79.5759 233.505 78.9819 233.505C78.2979 233.505 77.8029 233.248 77.7534 232.524L77.0829 232.614C77.1549 233.64 77.9154 234.09 78.9999 234.09ZM83.5656 234.09C84.8976 234.09 85.7391 233.127 85.7391 231.826C85.7391 230.53 84.8976 229.567 83.5656 229.567C82.2291 229.567 81.3876 230.53 81.3876 231.826C81.3876 233.127 82.2291 234.09 83.5656 234.09ZM83.5656 233.438C82.6881 233.438 82.1211 232.762 82.1211 231.826C82.1211 230.89 82.6881 230.22 83.5656 230.22C84.4341 230.22 85.0056 230.89 85.0056 231.826C85.0056 232.762 84.4341 233.438 83.5656 233.438ZM92.2173 231.745C92.2173 230.44 91.4928 229.567 90.2598 229.567C89.0133 229.567 88.2168 230.553 88.2168 231.822C88.2168 233.118 89.0268 234.09 90.3273 234.09C91.2318 234.09 91.8978 233.671 92.1363 232.857L91.5468 232.69C91.3578 233.176 90.9798 233.464 90.3228 233.464C89.5308 233.464 89.0358 232.906 88.9548 232.056H92.2083C92.2173 231.948 92.2173 231.844 92.2173 231.745ZM90.2553 230.179C90.9888 230.179 91.4253 230.652 91.4883 231.475H88.9593C89.0583 230.697 89.5263 230.179 90.2553 230.179ZM97.081 233.428C96.7885 233.428 96.721 233.248 96.721 232.996V231.345C96.721 230.728 96.5995 229.567 94.9525 229.567C93.994 229.567 93.3685 230.008 93.1615 230.859L93.832 231.025C93.985 230.463 94.3045 230.184 94.957 230.184C95.7625 230.184 96.01 230.674 96.01 231.34V231.606C95.695 231.565 95.371 231.543 95.0785 231.543C93.9175 231.543 93.04 231.862 93.04 232.803C93.04 233.599 93.6385 234.086 94.534 234.086C95.236 234.086 95.785 233.784 96.0685 233.325C96.118 233.797 96.334 234.041 96.91 234.041C97.0495 234.041 97.1755 234.027 97.3195 233.995V233.41C97.234 233.424 97.1575 233.428 97.081 233.428ZM94.66 233.473C94.1785 233.473 93.832 233.275 93.832 232.785C93.832 232.29 94.2865 232.101 95.119 232.101C95.4025 232.101 95.695 232.119 96.01 232.155V232.785C95.7355 233.217 95.227 233.473 94.66 233.473ZM99.8564 234.09C100.9 234.09 101.476 233.59 101.476 232.816C101.476 231.97 100.842 231.759 99.8654 231.543C99.1724 231.385 98.7989 231.259 98.7989 230.805C98.7989 230.422 99.0734 230.152 99.6854 230.152C100.306 230.152 100.743 230.454 100.783 231.124L101.427 231.039C101.404 230.148 100.824 229.567 99.6809 229.567C98.7224 229.567 98.0924 230.049 98.0879 230.85C98.0879 231.624 98.6324 231.925 99.7169 232.155C100.356 232.29 100.752 232.389 100.752 232.87C100.752 233.302 100.432 233.505 99.8384 233.505C99.1544 233.505 98.6594 233.248 98.6099 232.524L97.9394 232.614C98.0114 233.64 98.7719 234.09 99.8564 234.09ZM105.462 229.657L104.576 232.272C104.445 232.668 104.324 233.046 104.207 233.424C104.076 233.046 103.946 232.659 103.815 232.272L102.929 229.657H102.101L103.707 234.009H103.914L103.82 234.284C103.568 234.99 103.055 235.17 102.258 235.053L102.164 235.724C103.293 235.895 104.139 235.535 104.553 234.351L106.29 229.657H105.462ZM111.5 233.253C111.315 233.361 111.135 233.41 110.897 233.41C110.379 233.41 110.159 233.127 110.159 232.528V230.269H111.594V229.657H110.159V228.258L109.43 228.366V229.657H108.534V230.269H109.43V232.618C109.43 233.604 109.934 234.063 110.793 234.063C111.144 234.063 111.428 233.986 111.693 233.842L111.5 233.253ZM114.389 234.09C115.721 234.09 116.562 233.127 116.562 231.826C116.562 230.53 115.721 229.567 114.389 229.567C113.052 229.567 112.211 230.53 112.211 231.826C112.211 233.127 113.052 234.09 114.389 234.09ZM114.389 233.438C113.511 233.438 112.944 232.762 112.944 231.826C112.944 230.89 113.511 230.22 114.389 230.22C115.257 230.22 115.829 230.89 115.829 231.826C115.829 232.762 115.257 233.438 114.389 233.438ZM121.159 234.09C122.145 234.09 122.878 233.626 123.09 232.596L122.424 232.483C122.257 233.095 121.861 233.446 121.168 233.446C120.273 233.446 119.778 232.758 119.778 231.826C119.778 230.899 120.273 230.206 121.168 230.206C121.861 230.206 122.257 230.557 122.424 231.169L123.09 231.061C122.878 230.031 122.145 229.567 121.159 229.567C119.845 229.567 119.04 230.539 119.04 231.826C119.04 233.113 119.845 234.09 121.159 234.09ZM126.087 234.09C127.419 234.09 128.261 233.127 128.261 231.826C128.261 230.53 127.419 229.567 126.087 229.567C124.751 229.567 123.909 230.53 123.909 231.826C123.909 233.127 124.751 234.09 126.087 234.09ZM126.087 233.438C125.21 233.438 124.643 232.762 124.643 231.826C124.643 230.89 125.21 230.22 126.087 230.22C126.956 230.22 127.527 230.89 127.527 231.826C127.527 232.762 126.956 233.438 126.087 233.438ZM134.045 229.567C133.325 229.567 132.857 229.9 132.619 230.445C132.439 229.869 132.02 229.567 131.318 229.567C130.625 229.567 130.18 229.873 129.937 230.373L129.941 229.657H129.257V234H129.977V231.741C129.977 230.773 130.409 230.224 131.161 230.224C131.795 230.224 132.016 230.611 132.016 231.439V234H132.731V231.741C132.731 230.773 133.159 230.224 133.91 230.224C134.545 230.224 134.765 230.625 134.765 231.439V234H135.481V231.331C135.481 230.215 135.053 229.567 134.045 229.567ZM141.577 229.567C140.857 229.567 140.389 229.9 140.151 230.445C139.971 229.869 139.552 229.567 138.85 229.567C138.157 229.567 137.712 229.873 137.469 230.373L137.473 229.657H136.789V234H137.509V231.741C137.509 230.773 137.941 230.224 138.693 230.224C139.327 230.224 139.548 230.611 139.548 231.439V234H140.263V231.741C140.263 230.773 140.691 230.224 141.442 230.224C142.077 230.224 142.297 230.625 142.297 231.439V234H143.013V231.331C143.013 230.215 142.585 229.567 141.577 229.567ZM147.292 229.657V231.885C147.292 232.857 146.734 233.401 145.978 233.401C145.321 233.401 144.992 233.019 144.992 232.173V229.657H144.263V232.317C144.263 233.455 144.772 234.086 145.82 234.086C146.558 234.086 147.08 233.716 147.328 233.127L147.346 234H148.021V229.657H147.292ZM151.646 229.567C150.913 229.567 150.391 229.932 150.139 230.508L150.143 229.657H149.437V234H150.17V231.768C150.17 230.796 150.728 230.251 151.484 230.251C152.168 230.251 152.492 230.634 152.492 231.48V234H153.226V231.336C153.226 230.197 152.713 229.567 151.646 229.567ZM154.908 228.825C155.21 228.825 155.453 228.591 155.453 228.303C155.453 228.015 155.21 227.79 154.908 227.79C154.629 227.79 154.386 228.015 154.386 228.303C154.386 228.591 154.629 228.825 154.908 228.825ZM154.553 234H155.286V229.657H154.553V234ZM158.416 234.09C159.402 234.09 160.135 233.626 160.347 232.596L159.681 232.483C159.514 233.095 159.118 233.446 158.425 233.446C157.53 233.446 157.035 232.758 157.035 231.826C157.035 230.899 157.53 230.206 158.425 230.206C159.118 230.206 159.514 230.557 159.681 231.169L160.347 231.061C160.135 230.031 159.402 229.567 158.416 229.567C157.102 229.567 156.297 230.539 156.297 231.826C156.297 233.113 157.102 234.09 158.416 234.09ZM165.231 233.428C164.939 233.428 164.871 233.248 164.871 232.996V231.345C164.871 230.728 164.75 229.567 163.103 229.567C162.144 229.567 161.519 230.008 161.312 230.859L161.982 231.025C162.135 230.463 162.455 230.184 163.107 230.184C163.913 230.184 164.16 230.674 164.16 231.34V231.606C163.845 231.565 163.521 231.543 163.229 231.543C162.068 231.543 161.19 231.862 161.19 232.803C161.19 233.599 161.789 234.086 162.684 234.086C163.386 234.086 163.935 233.784 164.219 233.325C164.268 233.797 164.484 234.041 165.06 234.041C165.2 234.041 165.326 234.027 165.47 233.995V233.41C165.384 233.424 165.308 233.428 165.231 233.428ZM162.81 233.473C162.329 233.473 161.982 233.275 161.982 232.785C161.982 232.29 162.437 232.101 163.269 232.101C163.553 232.101 163.845 232.119 164.16 232.155V232.785C163.886 233.217 163.377 233.473 162.81 233.473ZM168.76 233.253C168.576 233.361 168.396 233.41 168.157 233.41C167.64 233.41 167.419 233.127 167.419 232.528V230.269H168.855V229.657H167.419V228.258L166.69 228.366V229.657H165.795V230.269H166.69V232.618C166.69 233.604 167.194 234.063 168.054 234.063C168.405 234.063 168.688 233.986 168.954 233.842L168.76 233.253ZM173.472 231.745C173.472 230.44 172.748 229.567 171.515 229.567C170.268 229.567 169.472 230.553 169.472 231.822C169.472 233.118 170.282 234.09 171.582 234.09C172.487 234.09 173.153 233.671 173.391 232.857L172.802 232.69C172.613 233.176 172.235 233.464 171.578 233.464C170.786 233.464 170.291 232.906 170.21 232.056H173.463C173.472 231.948 173.472 231.844 173.472 231.745ZM171.51 230.179C172.244 230.179 172.68 230.652 172.743 231.475H170.214C170.313 230.697 170.781 230.179 171.51 230.179ZM178.613 229.567C177.888 229.567 177.371 229.855 177.083 230.4V227.718H176.349V234H177.047L177.056 233.167C177.344 233.752 177.861 234.09 178.613 234.09C179.873 234.09 180.584 233.158 180.584 231.822C180.584 230.494 179.873 229.567 178.613 229.567ZM178.487 233.438C177.605 233.438 177.056 232.744 177.056 231.822C177.056 230.899 177.605 230.224 178.487 230.224C179.382 230.224 179.832 230.881 179.832 231.822C179.832 232.762 179.382 233.438 178.487 233.438ZM185.355 231.745C185.355 230.44 184.63 229.567 183.397 229.567C182.151 229.567 181.354 230.553 181.354 231.822C181.354 233.118 182.164 234.09 183.465 234.09C184.369 234.09 185.035 233.671 185.274 232.857L184.684 232.69C184.495 233.176 184.117 233.464 183.46 233.464C182.668 233.464 182.173 232.906 182.092 232.056H185.346C185.355 231.948 185.355 231.844 185.355 231.745ZM183.393 230.179C184.126 230.179 184.563 230.652 184.626 231.475H182.097C182.196 230.697 182.664 230.179 183.393 230.179ZM188.843 233.253C188.659 233.361 188.479 233.41 188.24 233.41C187.723 233.41 187.502 233.127 187.502 232.528V230.269H188.938V229.657H187.502V228.258L186.773 228.366V229.657H185.878V230.269H186.773V232.618C186.773 233.604 187.277 234.063 188.137 234.063C188.488 234.063 188.771 233.986 189.037 233.842L188.843 233.253ZM195 229.657L194.37 232.11C194.253 232.56 194.163 232.983 194.059 233.455C193.951 232.96 193.848 232.533 193.726 232.101L193.042 229.657H192.187L191.503 232.101C191.382 232.533 191.274 232.956 191.166 233.451C191.067 232.978 190.972 232.56 190.86 232.11L190.23 229.657H189.465L190.671 234H191.611L192.372 231.318C192.466 231.003 192.534 230.701 192.615 230.364C192.696 230.701 192.768 231.003 192.858 231.318L193.614 234H194.559L195.765 229.657H195ZM200.296 231.745C200.296 230.44 199.572 229.567 198.339 229.567C197.092 229.567 196.296 230.553 196.296 231.822C196.296 233.118 197.106 234.09 198.406 234.09C199.311 234.09 199.977 233.671 200.215 232.857L199.626 232.69C199.437 233.176 199.059 233.464 198.402 233.464C197.61 233.464 197.115 232.906 197.034 232.056H200.287C200.296 231.948 200.296 231.844 200.296 231.745ZM198.334 230.179C199.068 230.179 199.504 230.652 199.567 231.475H197.038C197.137 230.697 197.605 230.179 198.334 230.179ZM205.113 231.745C205.113 230.44 204.388 229.567 203.155 229.567C201.909 229.567 201.112 230.553 201.112 231.822C201.112 233.118 201.922 234.09 203.223 234.09C204.127 234.09 204.793 233.671 205.032 232.857L204.442 232.69C204.253 233.176 203.875 233.464 203.218 233.464C202.426 233.464 201.931 232.906 201.85 232.056H205.104C205.113 231.948 205.113 231.844 205.113 231.745ZM203.151 230.179C203.884 230.179 204.321 230.652 204.384 231.475H201.855C201.954 230.697 202.422 230.179 203.151 230.179ZM208.345 229.567C207.611 229.567 207.089 229.932 206.837 230.508L206.842 229.657H206.135V234H206.869V231.768C206.869 230.796 207.427 230.251 208.183 230.251C208.867 230.251 209.191 230.634 209.191 231.48V234H209.924V231.336C209.924 230.197 209.411 229.567 208.345 229.567ZM214.892 234.09C216.224 234.09 217.065 233.127 217.065 231.826C217.065 230.53 216.224 229.567 214.892 229.567C213.555 229.567 212.714 230.53 212.714 231.826C212.714 233.127 213.555 234.09 214.892 234.09ZM214.892 233.438C214.014 233.438 213.447 232.762 213.447 231.826C213.447 230.89 214.014 230.22 214.892 230.22C215.76 230.22 216.332 230.89 216.332 231.826C216.332 232.762 215.76 233.438 214.892 233.438ZM220.271 229.567C219.538 229.567 219.016 229.932 218.764 230.508L218.768 229.657H218.062V234H218.795V231.768C218.795 230.796 219.353 230.251 220.109 230.251C220.793 230.251 221.117 230.634 221.117 231.48V234H221.851V231.336C221.851 230.197 221.338 229.567 220.271 229.567ZM226.787 231.745C226.787 230.44 226.062 229.567 224.829 229.567C223.583 229.567 222.786 230.553 222.786 231.822C222.786 233.118 223.596 234.09 224.897 234.09C225.801 234.09 226.467 233.671 226.706 232.857L226.116 232.69C225.927 233.176 225.549 233.464 224.892 233.464C224.1 233.464 223.605 232.906 223.524 232.056H226.778C226.787 231.948 226.787 231.844 226.787 231.745ZM224.825 230.179C225.558 230.179 225.995 230.652 226.058 231.475H223.529C223.628 230.697 224.096 230.179 224.825 230.179ZM50.455 244.428C50.1625 244.428 50.095 244.248 50.095 243.996V242.345C50.095 241.728 49.9735 240.567 48.3265 240.567C47.368 240.567 46.7425 241.008 46.5355 241.859L47.206 242.025C47.359 241.463 47.6785 241.184 48.331 241.184C49.1365 241.184 49.384 241.674 49.384 242.34V242.606C49.069 242.565 48.745 242.543 48.4525 242.543C47.2915 242.543 46.414 242.862 46.414 243.803C46.414 244.599 47.0125 245.086 47.908 245.086C48.61 245.086 49.159 244.784 49.4425 244.325C49.492 244.797 49.708 245.041 50.284 245.041C50.4235 245.041 50.5495 245.027 50.6935 244.995V244.41C50.608 244.424 50.5315 244.428 50.455 244.428ZM48.034 244.473C47.5525 244.473 47.206 244.275 47.206 243.785C47.206 243.29 47.6605 243.101 48.493 243.101C48.7765 243.101 49.069 243.119 49.384 243.155V243.785C49.1095 244.217 48.601 244.473 48.034 244.473ZM53.8154 240.567C53.0819 240.567 52.5599 240.932 52.3079 241.508L52.3124 240.657H51.6059V245H52.3394V242.768C52.3394 241.796 52.8974 241.251 53.6534 241.251C54.3374 241.251 54.6614 241.634 54.6614 242.48V245H55.3949V242.336C55.3949 241.197 54.8819 240.567 53.8154 240.567ZM58.508 245.09C59.84 245.09 60.6815 244.127 60.6815 242.826C60.6815 241.53 59.84 240.567 58.508 240.567C57.1715 240.567 56.33 241.53 56.33 242.826C56.33 244.127 57.1715 245.09 58.508 245.09ZM58.508 244.438C57.6305 244.438 57.0635 243.762 57.0635 242.826C57.0635 241.89 57.6305 241.22 58.508 241.22C59.3765 241.22 59.948 241.89 59.948 242.826C59.948 243.762 59.3765 244.438 58.508 244.438ZM64.1441 244.253C63.9596 244.361 63.7796 244.41 63.5411 244.41C63.0236 244.41 62.8031 244.127 62.8031 243.528V241.269H64.2386V240.657H62.8031V239.258L62.0741 239.366V240.657H61.1786V241.269H62.0741V243.618C62.0741 244.604 62.5781 245.063 63.4376 245.063C63.7886 245.063 64.0721 244.986 64.3376 244.842L64.1441 244.253ZM67.4294 240.567C66.7409 240.567 66.2324 240.887 65.9624 241.404V238.718H65.2289V245H65.9624V242.768C65.9624 241.796 66.5204 241.251 67.2764 241.251C67.9604 241.251 68.2844 241.634 68.2844 242.48V245H69.0179V242.336C69.0179 241.197 68.5049 240.567 67.4294 240.567ZM73.9536 242.745C73.9536 241.44 73.2291 240.567 71.9961 240.567C70.7496 240.567 69.9531 241.553 69.9531 242.822C69.9531 244.118 70.7631 245.09 72.0636 245.09C72.9681 245.09 73.6341 244.671 73.8726 243.857L73.2831 243.69C73.0941 244.176 72.7161 244.464 72.0591 244.464C71.2671 244.464 70.7721 243.906 70.6911 243.056H73.9446C73.9536 242.948 73.9536 242.844 73.9536 242.745ZM71.9916 241.179C72.7251 241.179 73.1616 241.652 73.2246 242.475H70.6956C70.7946 241.697 71.2626 241.179 71.9916 241.179ZM75.66 241.535L75.6645 240.657H74.976V245H75.687V242.799C75.687 241.688 76.5375 241.175 77.37 241.373L77.388 240.603C76.6005 240.432 75.948 240.797 75.66 241.535ZM78.3593 243.366H79.0028L79.0613 239.15H78.3008L78.3593 243.366ZM78.6833 245.09C78.9938 245.09 79.2548 244.833 79.2548 244.518C79.2548 244.208 78.9938 243.951 78.6833 243.951C78.3683 243.951 78.1028 244.208 78.1028 244.518C78.1028 244.833 78.3683 245.09 78.6833 245.09Z" fill="white"/>
<path d="M116.091 194.15L114.61 197.241L113.13 194.15H112.257L114.223 197.997V200H114.997V197.997L116.964 194.15H116.091ZM120.855 197.745C120.855 196.44 120.13 195.567 118.897 195.567C117.651 195.567 116.854 196.553 116.854 197.822C116.854 199.118 117.664 200.09 118.965 200.09C119.869 200.09 120.535 199.671 120.774 198.857L120.184 198.69C119.995 199.176 119.617 199.464 118.96 199.464C118.168 199.464 117.673 198.906 117.592 198.056H120.846C120.855 197.948 120.855 197.844 120.855 197.745ZM118.893 196.179C119.626 196.179 120.063 196.652 120.126 197.475H117.597C117.696 196.697 118.164 196.179 118.893 196.179ZM123.502 200.09C124.546 200.09 125.122 199.59 125.122 198.816C125.122 197.97 124.487 197.759 123.511 197.543C122.818 197.385 122.444 197.259 122.444 196.805C122.444 196.422 122.719 196.152 123.331 196.152C123.952 196.152 124.388 196.454 124.429 197.124L125.072 197.039C125.05 196.148 124.469 195.567 123.326 195.567C122.368 195.567 121.738 196.049 121.733 196.85C121.733 197.624 122.278 197.925 123.362 198.155C124.001 198.29 124.397 198.389 124.397 198.87C124.397 199.302 124.078 199.505 123.484 199.505C122.8 199.505 122.305 199.248 122.255 198.524L121.585 198.614C121.657 199.64 122.417 200.09 123.502 200.09ZM128.694 199.253C128.509 199.361 128.329 199.41 128.091 199.41C127.573 199.41 127.353 199.127 127.353 198.528V196.269H128.788V195.657H127.353V194.258L126.624 194.366V195.657H125.728V196.269H126.624V198.618C126.624 199.604 127.128 200.063 127.987 200.063C128.338 200.063 128.622 199.986 128.887 199.842L128.694 199.253ZM133.406 197.745C133.406 196.44 132.681 195.567 131.448 195.567C130.202 195.567 129.405 196.553 129.405 197.822C129.405 199.118 130.215 200.09 131.516 200.09C132.42 200.09 133.086 199.671 133.325 198.857L132.735 198.69C132.546 199.176 132.168 199.464 131.511 199.464C130.719 199.464 130.224 198.906 130.143 198.056H133.397C133.406 197.948 133.406 197.844 133.406 197.745ZM131.444 196.179C132.177 196.179 132.614 196.652 132.677 197.475H130.148C130.247 196.697 130.715 196.179 131.444 196.179ZM135.112 196.535L135.117 195.657H134.428V200H135.139V197.799C135.139 196.688 135.99 196.175 136.822 196.373L136.84 195.603C136.053 195.432 135.4 195.797 135.112 196.535ZM140.746 193.718V196.391C140.467 195.851 139.972 195.567 139.252 195.567C137.988 195.567 137.245 196.494 137.245 197.822C137.245 199.158 137.988 200.09 139.252 200.09C139.999 200.09 140.494 199.757 140.773 199.176L140.782 200H141.48V193.718H140.746ZM139.342 199.438C138.447 199.438 137.997 198.762 137.997 197.822C137.997 196.881 138.447 196.224 139.342 196.224C140.224 196.224 140.773 196.899 140.773 197.822C140.773 198.744 140.224 199.438 139.342 199.438ZM146.619 199.428C146.327 199.428 146.259 199.248 146.259 198.996V197.345C146.259 196.728 146.138 195.567 144.491 195.567C143.532 195.567 142.907 196.008 142.7 196.859L143.37 197.025C143.523 196.463 143.843 196.184 144.495 196.184C145.301 196.184 145.548 196.674 145.548 197.34V197.606C145.233 197.565 144.909 197.543 144.617 197.543C143.456 197.543 142.578 197.862 142.578 198.803C142.578 199.599 143.177 200.086 144.072 200.086C144.774 200.086 145.323 199.784 145.607 199.325C145.656 199.797 145.872 200.041 146.448 200.041C146.588 200.041 146.714 200.027 146.858 199.995V199.41C146.772 199.424 146.696 199.428 146.619 199.428ZM144.198 199.473C143.717 199.473 143.37 199.275 143.37 198.785C143.37 198.29 143.825 198.101 144.657 198.101C144.941 198.101 145.233 198.119 145.548 198.155V198.785C145.274 199.217 144.765 199.473 144.198 199.473ZM150.518 195.657L149.632 198.272C149.501 198.668 149.38 199.046 149.263 199.424C149.132 199.046 149.002 198.659 148.871 198.272L147.985 195.657H147.157L148.763 200.009H148.97L148.876 200.284C148.624 200.99 148.111 201.17 147.314 201.053L147.22 201.724C148.349 201.895 149.195 201.535 149.609 200.351L151.346 195.657H150.518Z" fill="#5A5A5A"/>
<circle cx="12.72" cy="187.72" r="12.72" fill="#C4C4C4"/>
</svg>
