<svg width="486" height="438" viewBox="0 0 486 438" fill="none" xmlns="http://www.w3.org/2000/svg">
<g filter="url(#filter0_d)">
<rect x="4" y="101" width="280" height="223" rx="40" fill="white"/>
<rect x="4.5" y="101.5" width="279" height="222" rx="39.5" stroke="#D0D0D0"/>
</g>
<circle cx="36.72" cy="135.72" r="12.72" fill="#C4C4C4"/>
<path d="M248.579 278.693C257.16 278.693 264.154 273.174 264.154 266.377V223.742H113.859C105.279 223.742 98.2847 229.273 98.2847 236.058V266.377C98.2847 273.162 105.264 278.693 113.859 278.693H248.579Z" fill="#EAEAEA"/>
<path d="M76.2081 202.372C67.6276 202.372 60.6333 196.853 60.6333 190.056V147.422H210.928C219.508 147.422 226.502 152.953 226.502 159.738V190.056C226.502 196.841 219.523 202.372 210.928 202.372H76.2081Z" fill="#5375FF"/>
<path d="M81.93 160.15L81.0255 163.898C80.913 164.366 80.8185 164.821 80.7195 165.28C80.616 164.816 80.5125 164.371 80.3865 163.903L79.437 160.231H78.6225L77.6685 163.894C77.547 164.353 77.4435 164.803 77.3355 165.275C77.241 164.816 77.142 164.371 77.0295 163.898L76.1295 160.15H75.315L76.8 166H77.8485L78.8025 162.332C78.897 161.972 78.96 161.689 79.0275 161.401C79.095 161.702 79.1715 162.008 79.2525 162.323L80.2065 166H81.255L82.74 160.15H81.93ZM87.1718 165.428C86.8793 165.428 86.8118 165.248 86.8118 164.996V163.345C86.8118 162.728 86.6903 161.567 85.0433 161.567C84.0848 161.567 83.4593 162.008 83.2523 162.859L83.9228 163.025C84.0758 162.463 84.3953 162.184 85.0478 162.184C85.8533 162.184 86.1008 162.674 86.1008 163.34V163.606C85.7858 163.565 85.4618 163.543 85.1693 163.543C84.0083 163.543 83.1308 163.862 83.1308 164.803C83.1308 165.599 83.7293 166.086 84.6248 166.086C85.3268 166.086 85.8758 165.784 86.1593 165.325C86.2088 165.797 86.4248 166.041 87.0008 166.041C87.1403 166.041 87.2663 166.027 87.4103 165.995V165.41C87.3248 165.424 87.2483 165.428 87.1718 165.428ZM84.7508 165.473C84.2693 165.473 83.9228 165.275 83.9228 164.785C83.9228 164.29 84.3773 164.101 85.2098 164.101C85.4933 164.101 85.7858 164.119 86.1008 164.155V164.785C85.8263 165.217 85.3178 165.473 84.7508 165.473ZM90.5322 161.567C89.7987 161.567 89.2767 161.932 89.0247 162.508L89.0292 161.657H88.3227V166H89.0562V163.768C89.0562 162.796 89.6142 162.251 90.3702 162.251C91.0542 162.251 91.3782 162.634 91.3782 163.48V166H92.1117V163.336C92.1117 162.197 91.5987 161.567 90.5322 161.567ZM95.8863 165.253C95.7018 165.361 95.5218 165.41 95.2833 165.41C94.7658 165.41 94.5453 165.127 94.5453 164.528V162.269H95.9808V161.657H94.5453V160.258L93.8163 160.366V161.657H92.9208V162.269H93.8163V164.618C93.8163 165.604 94.3203 166.063 95.1798 166.063C95.5308 166.063 95.8143 165.986 96.0798 165.842L95.8863 165.253ZM101.292 165.253C101.107 165.361 100.927 165.41 100.689 165.41C100.171 165.41 99.9506 165.127 99.9506 164.528V162.269H101.386V161.657H99.9506V160.258L99.2216 160.366V161.657H98.3261V162.269H99.2216V164.618C99.2216 165.604 99.7256 166.063 100.585 166.063C100.936 166.063 101.22 165.986 101.485 165.842L101.292 165.253ZM104.181 166.09C105.513 166.09 106.354 165.127 106.354 163.826C106.354 162.53 105.513 161.567 104.181 161.567C102.844 161.567 102.003 162.53 102.003 163.826C102.003 165.127 102.844 166.09 104.181 166.09ZM104.181 165.438C103.303 165.438 102.736 164.762 102.736 163.826C102.736 162.89 103.303 162.22 104.181 162.22C105.049 162.22 105.621 162.89 105.621 163.826C105.621 164.762 105.049 165.438 104.181 165.438ZM114.277 161.657L113.647 164.11C113.53 164.56 113.44 164.983 113.336 165.455C113.228 164.96 113.125 164.533 113.003 164.101L112.319 161.657H111.464L110.78 164.101C110.659 164.533 110.551 164.956 110.443 165.451C110.344 164.978 110.249 164.56 110.137 164.11L109.507 161.657H108.742L109.948 166H110.888L111.649 163.318C111.743 163.003 111.811 162.701 111.892 162.364C111.973 162.701 112.045 163.003 112.135 163.318L112.891 166H113.836L115.042 161.657H114.277ZM117.751 166.09C119.083 166.09 119.925 165.127 119.925 163.826C119.925 162.53 119.083 161.567 117.751 161.567C116.415 161.567 115.573 162.53 115.573 163.826C115.573 165.127 116.415 166.09 117.751 166.09ZM117.751 165.438C116.874 165.438 116.307 164.762 116.307 163.826C116.307 162.89 116.874 162.22 117.751 162.22C118.62 162.22 119.191 162.89 119.191 163.826C119.191 164.762 118.62 165.438 117.751 165.438ZM121.605 162.535L121.61 161.657H120.921V166H121.632V163.799C121.632 162.688 122.483 162.175 123.315 162.373L123.333 161.603C122.546 161.432 121.893 161.797 121.605 162.535ZM127.054 166H127.918L126.01 163.493L127.72 161.657H126.811L124.849 163.808V159.718H124.138V166H124.849V164.627L125.502 163.934L127.054 166ZM133.02 165.253C132.836 165.361 132.656 165.41 132.417 165.41C131.9 165.41 131.679 165.127 131.679 164.528V162.269H133.115V161.657H131.679V160.258L130.95 160.366V161.657H130.055V162.269H130.95V164.618C130.95 165.604 131.454 166.063 132.314 166.063C132.665 166.063 132.948 165.986 133.214 165.842L133.02 165.253ZM135.909 166.09C137.241 166.09 138.083 165.127 138.083 163.826C138.083 162.53 137.241 161.567 135.909 161.567C134.573 161.567 133.731 162.53 133.731 163.826C133.731 165.127 134.573 166.09 135.909 166.09ZM135.909 165.438C135.032 165.438 134.465 164.762 134.465 163.826C134.465 162.89 135.032 162.22 135.909 162.22C136.778 162.22 137.349 162.89 137.349 163.826C137.349 164.762 136.778 165.438 135.909 165.438ZM142.464 161.662L142.46 162.553C142.194 161.918 141.677 161.567 140.885 161.567C139.616 161.567 138.878 162.481 138.878 163.781C138.878 165.091 139.616 166.005 140.885 166.005C141.681 166.005 142.185 165.631 142.455 164.987V165.734C142.455 166.738 141.843 167.224 141.006 167.224C140.408 167.224 139.868 167.008 139.418 166.522L139.013 167.049C139.553 167.598 140.178 167.845 140.979 167.845C142.239 167.845 143.13 167.139 143.13 165.748V161.662H142.464ZM140.975 165.361C140.079 165.361 139.629 164.699 139.629 163.781C139.629 162.863 140.079 162.215 140.975 162.215C141.857 162.215 142.406 162.881 142.406 163.781C142.406 164.681 141.857 165.361 140.975 165.361ZM148.147 163.745C148.147 162.44 147.422 161.567 146.189 161.567C144.943 161.567 144.146 162.553 144.146 163.822C144.146 165.118 144.956 166.09 146.257 166.09C147.161 166.09 147.827 165.671 148.066 164.857L147.476 164.69C147.287 165.176 146.909 165.464 146.252 165.464C145.46 165.464 144.965 164.906 144.884 164.056H148.138C148.147 163.948 148.147 163.844 148.147 163.745ZM146.185 162.179C146.918 162.179 147.355 162.652 147.418 163.475H144.889C144.988 162.697 145.456 162.179 146.185 162.179ZM151.37 161.567C150.681 161.567 150.173 161.887 149.903 162.404V159.718H149.169V166H149.903V163.768C149.903 162.796 150.461 162.251 151.217 162.251C151.901 162.251 152.225 162.634 152.225 163.48V166H152.958V163.336C152.958 162.197 152.445 161.567 151.37 161.567ZM156.733 165.253C156.549 165.361 156.369 165.41 156.13 165.41C155.613 165.41 155.392 165.127 155.392 164.528V162.269H156.828V161.657H155.392V160.258L154.663 160.366V161.657H153.768V162.269H154.663V164.618C154.663 165.604 155.167 166.063 156.027 166.063C156.378 166.063 156.661 165.986 156.927 165.842L156.733 165.253ZM161.445 163.745C161.445 162.44 160.72 161.567 159.487 161.567C158.241 161.567 157.444 162.553 157.444 163.822C157.444 165.118 158.254 166.09 159.555 166.09C160.459 166.09 161.125 165.671 161.364 164.857L160.774 164.69C160.585 165.176 160.207 165.464 159.55 165.464C158.758 165.464 158.263 164.906 158.182 164.056H161.436C161.445 163.948 161.445 163.844 161.445 163.745ZM159.483 162.179C160.216 162.179 160.653 162.652 160.716 163.475H158.187C158.286 162.697 158.754 162.179 159.483 162.179ZM163.151 162.535L163.156 161.657H162.467V166H163.178V163.799C163.178 162.688 164.029 162.175 164.861 162.373L164.879 161.603C164.092 161.432 163.439 161.797 163.151 162.535ZM166.769 164.366H167.484V164.177C167.484 163.718 167.592 163.493 168.173 163.048C168.726 162.629 169.041 162.265 169.041 161.576C169.041 160.618 168.375 160.06 167.331 160.06C166.202 160.06 165.576 160.685 165.504 161.878L166.229 162.017C166.251 161.099 166.647 160.726 167.327 160.726C167.912 160.726 168.267 161.041 168.267 161.639C168.267 162.062 168.096 162.301 167.718 162.611C166.913 163.264 166.769 163.538 166.769 164.177V164.366ZM167.156 166.09C167.466 166.09 167.727 165.833 167.727 165.518C167.727 165.208 167.466 164.951 167.156 164.951C166.841 164.951 166.575 165.208 166.575 165.518C166.575 165.833 166.841 166.09 167.156 166.09Z" fill="white"/>
<path d="M128.091 134.15L126.61 137.241L125.13 134.15H124.257L126.223 137.997V140H126.997V137.997L128.964 134.15H128.091ZM132.855 137.745C132.855 136.44 132.13 135.567 130.897 135.567C129.651 135.567 128.854 136.553 128.854 137.822C128.854 139.118 129.664 140.09 130.965 140.09C131.869 140.09 132.535 139.671 132.774 138.857L132.184 138.69C131.995 139.176 131.617 139.464 130.96 139.464C130.168 139.464 129.673 138.906 129.592 138.056H132.846C132.855 137.948 132.855 137.844 132.855 137.745ZM130.893 136.179C131.626 136.179 132.063 136.652 132.126 137.475H129.597C129.696 136.697 130.164 136.179 130.893 136.179ZM135.502 140.09C136.546 140.09 137.122 139.59 137.122 138.816C137.122 137.97 136.487 137.759 135.511 137.543C134.818 137.385 134.444 137.259 134.444 136.805C134.444 136.422 134.719 136.152 135.331 136.152C135.952 136.152 136.388 136.454 136.429 137.124L137.072 137.039C137.05 136.148 136.469 135.567 135.326 135.567C134.368 135.567 133.738 136.049 133.733 136.85C133.733 137.624 134.278 137.925 135.362 138.155C136.001 138.29 136.397 138.389 136.397 138.87C136.397 139.302 136.078 139.505 135.484 139.505C134.8 139.505 134.305 139.248 134.255 138.524L133.585 138.614C133.657 139.64 134.417 140.09 135.502 140.09ZM140.694 139.253C140.509 139.361 140.329 139.41 140.091 139.41C139.573 139.41 139.353 139.127 139.353 138.528V136.269H140.788V135.657H139.353V134.258L138.624 134.366V135.657H137.728V136.269H138.624V138.618C138.624 139.604 139.128 140.063 139.987 140.063C140.338 140.063 140.622 139.986 140.887 139.842L140.694 139.253ZM145.406 137.745C145.406 136.44 144.681 135.567 143.448 135.567C142.202 135.567 141.405 136.553 141.405 137.822C141.405 139.118 142.215 140.09 143.516 140.09C144.42 140.09 145.086 139.671 145.325 138.857L144.735 138.69C144.546 139.176 144.168 139.464 143.511 139.464C142.719 139.464 142.224 138.906 142.143 138.056H145.397C145.406 137.948 145.406 137.844 145.406 137.745ZM143.444 136.179C144.177 136.179 144.614 136.652 144.677 137.475H142.148C142.247 136.697 142.715 136.179 143.444 136.179ZM147.112 136.535L147.117 135.657H146.428V140H147.139V137.799C147.139 136.688 147.99 136.175 148.822 136.373L148.84 135.603C148.053 135.432 147.4 135.797 147.112 136.535ZM152.746 133.718V136.391C152.467 135.851 151.972 135.567 151.252 135.567C149.988 135.567 149.245 136.494 149.245 137.822C149.245 139.158 149.988 140.09 151.252 140.09C151.999 140.09 152.494 139.757 152.773 139.176L152.782 140H153.48V133.718H152.746ZM151.342 139.438C150.447 139.438 149.997 138.762 149.997 137.822C149.997 136.881 150.447 136.224 151.342 136.224C152.224 136.224 152.773 136.899 152.773 137.822C152.773 138.744 152.224 139.438 151.342 139.438ZM158.619 139.428C158.327 139.428 158.259 139.248 158.259 138.996V137.345C158.259 136.728 158.138 135.567 156.491 135.567C155.532 135.567 154.907 136.008 154.7 136.859L155.37 137.025C155.523 136.463 155.843 136.184 156.495 136.184C157.301 136.184 157.548 136.674 157.548 137.34V137.606C157.233 137.565 156.909 137.543 156.617 137.543C155.456 137.543 154.578 137.862 154.578 138.803C154.578 139.599 155.177 140.086 156.072 140.086C156.774 140.086 157.323 139.784 157.607 139.325C157.656 139.797 157.872 140.041 158.448 140.041C158.588 140.041 158.714 140.027 158.858 139.995V139.41C158.772 139.424 158.696 139.428 158.619 139.428ZM156.198 139.473C155.717 139.473 155.37 139.275 155.37 138.785C155.37 138.29 155.825 138.101 156.657 138.101C156.941 138.101 157.233 138.119 157.548 138.155V138.785C157.274 139.217 156.765 139.473 156.198 139.473ZM162.518 135.657L161.632 138.272C161.501 138.668 161.38 139.046 161.263 139.424C161.132 139.046 161.002 138.659 160.871 138.272L159.985 135.657H159.157L160.763 140.009H160.97L160.876 140.284C160.624 140.99 160.111 141.17 159.314 141.053L159.22 141.724C160.349 141.895 161.195 141.535 161.609 140.351L163.346 135.657H162.518Z" fill="#5A5A5A"/>
<path d="M188.067 218.948H187.028V215.1H185.912L183.338 218.997L183.464 219.573L186.281 219.569V221H187.028V219.564H188.067V218.948ZM184.188 218.948L185.435 217.085C185.718 216.653 186.002 216.23 186.308 215.685C186.281 216.18 186.281 216.693 186.281 217.26V218.948H184.188ZM189.518 217.769C189.829 217.769 190.09 217.512 190.09 217.197C190.09 216.882 189.829 216.626 189.518 216.626C189.203 216.626 188.938 216.882 188.938 217.197C188.938 217.512 189.203 217.769 189.518 217.769ZM189.518 221.09C189.829 221.09 190.09 220.833 190.09 220.518C190.09 220.208 189.829 219.951 189.518 219.951C189.203 219.951 188.938 220.208 188.938 220.518C188.938 220.833 189.203 221.09 189.518 221.09ZM193.589 217.256C193.071 217.256 192.657 217.382 192.257 217.706L192.392 215.812H195.164V215.15H191.739L191.541 218.093L192.153 218.462C192.59 218.048 192.945 217.904 193.436 217.904C194.25 217.904 194.66 218.408 194.66 219.164C194.655 219.996 194.133 220.424 193.323 220.424C192.653 220.424 192.059 220.073 191.897 219.344L191.177 219.483C191.402 220.532 192.207 221.09 193.31 221.09C194.561 221.09 195.461 220.361 195.461 219.159C195.461 217.998 194.786 217.256 193.589 217.256ZM198.906 217.256C198.389 217.256 197.975 217.382 197.574 217.706L197.709 215.812H200.481V215.15H197.057L196.859 218.093L197.471 218.462C197.907 218.048 198.263 217.904 198.753 217.904C199.568 217.904 199.977 218.408 199.977 219.164C199.973 219.996 199.451 220.424 198.641 220.424C197.97 220.424 197.376 220.073 197.214 219.344L196.494 219.483C196.719 220.532 197.525 221.09 198.627 221.09C199.878 221.09 200.778 220.361 200.778 219.159C200.778 217.998 200.103 217.256 198.906 217.256ZM204.264 216.572C203.517 216.572 202.99 216.878 202.707 217.458L202.698 216.657H202V222.755H202.734V220.217C203.026 220.775 203.535 221.09 204.264 221.09C205.524 221.09 206.235 220.158 206.235 218.822C206.235 217.494 205.524 216.572 204.264 216.572ZM204.138 220.438C203.256 220.438 202.707 219.744 202.707 218.822C202.707 217.904 203.256 217.229 204.138 217.229C205.033 217.229 205.483 217.886 205.483 218.822C205.483 219.762 205.033 220.438 204.138 220.438ZM212.018 216.567C211.298 216.567 210.83 216.9 210.591 217.445C210.411 216.869 209.993 216.567 209.291 216.567C208.598 216.567 208.152 216.873 207.909 217.373L207.914 216.657H207.23V221H207.95V218.741C207.95 217.773 208.382 217.224 209.133 217.224C209.768 217.224 209.988 217.611 209.988 218.439V221H210.704V218.741C210.704 217.773 211.131 217.224 211.883 217.224C212.517 217.224 212.738 217.625 212.738 218.439V221H213.453V218.331C213.453 217.215 213.026 216.567 212.018 216.567Z" fill="#5A5A5A"/>
<path d="M113.777 241.086C115.019 241.086 115.748 240.446 115.752 239.429C115.752 238.313 114.861 238.025 113.871 237.737C112.953 237.476 112.422 237.278 112.422 236.635C112.422 236.072 112.832 235.703 113.61 235.703C114.555 235.703 114.974 236.239 115.041 237.085L115.703 236.95C115.662 235.676 114.879 235.064 113.628 235.064C112.485 235.064 111.653 235.631 111.653 236.689C111.653 237.755 112.481 238.106 113.529 238.39C114.452 238.646 114.992 238.817 114.992 239.474C114.992 240.154 114.524 240.442 113.79 240.442C112.697 240.442 112.166 239.92 112.175 238.957L111.473 239.056C111.459 240.496 112.485 241.086 113.777 241.086ZM119.945 236.657V238.885C119.945 239.857 119.387 240.401 118.631 240.401C117.974 240.401 117.646 240.019 117.646 239.173V236.657H116.917V239.317C116.917 240.455 117.425 241.086 118.474 241.086C119.212 241.086 119.734 240.716 119.981 240.127L119.999 241H120.674V236.657H119.945ZM122.774 237.535L122.779 236.657H122.09V241H122.801V238.799C122.801 237.688 123.652 237.175 124.484 237.373L124.502 236.603C123.715 236.432 123.062 236.797 122.774 237.535ZM128.908 238.745C128.908 237.44 128.183 236.567 126.95 236.567C125.704 236.567 124.907 237.553 124.907 238.822C124.907 240.118 125.717 241.09 127.018 241.09C127.922 241.09 128.588 240.671 128.827 239.857L128.237 239.69C128.048 240.176 127.67 240.464 127.013 240.464C126.221 240.464 125.726 239.906 125.645 239.056H128.899C128.908 238.948 128.908 238.844 128.908 238.745ZM126.946 237.179C127.679 237.179 128.116 237.652 128.179 238.475H125.65C125.749 237.697 126.217 237.179 126.946 237.179ZM130.097 239.366H130.74L130.799 235.15H130.038L130.097 239.366ZM130.421 241.09C130.731 241.09 130.992 240.833 130.992 240.518C130.992 240.208 130.731 239.951 130.421 239.951C130.106 239.951 129.84 240.208 129.84 240.518C129.84 240.833 130.106 241.09 130.421 241.09ZM132.434 239.366H133.078L133.136 235.15H132.376L132.434 239.366ZM132.758 241.09C133.069 241.09 133.33 240.833 133.33 240.518C133.33 240.208 133.069 239.951 132.758 239.951C132.443 239.951 132.178 240.208 132.178 240.518C132.178 240.833 132.443 241.09 132.758 241.09ZM134.772 239.366H135.416L135.474 235.15H134.714L134.772 239.366ZM135.096 241.09C135.407 241.09 135.668 240.833 135.668 240.518C135.668 240.208 135.407 239.951 135.096 239.951C134.781 239.951 134.516 240.208 134.516 240.518C134.516 240.833 134.781 241.09 135.096 241.09Z" fill="black"/>
<g filter="url(#filter1_d)">
<rect x="241" width="241" height="252" rx="38" fill="white"/>
<rect x="241.5" y="0.5" width="240" height="251" rx="37.5" stroke="#D1D1D1"/>
</g>
<path d="M351.544 50.1235C353.76 50.1235 355.145 48.9795 355.333 46.8605L353.5 46.6135C353.286 48.115 352.525 48.5375 351.505 48.5375C350.042 48.5375 349.347 47.452 349.347 45.775C349.347 44.098 350.042 43.0125 351.505 43.0125C352.525 43.0125 353.292 43.4805 353.5 44.9365L355.333 44.6895C355.171 42.5705 353.76 41.4265 351.544 41.4265C348.898 41.4265 347.39 43.1945 347.39 45.775C347.39 48.3555 348.898 50.1235 351.544 50.1235ZM359.368 50.1235C361.435 50.1235 362.644 48.7455 362.644 46.7955C362.644 44.852 361.435 43.474 359.368 43.474C357.294 43.474 356.085 44.852 356.085 46.7955C356.085 48.7455 357.294 50.1235 359.368 50.1235ZM359.368 48.5765C358.419 48.5765 357.808 47.894 357.808 46.7955C357.808 45.7035 358.419 45.0275 359.368 45.0275C360.31 45.0275 360.915 45.7035 360.915 46.7955C360.915 47.894 360.31 48.5765 359.368 48.5765ZM371.043 43.474C370.068 43.474 369.451 43.929 369.132 44.696C368.859 43.9355 368.248 43.474 367.189 43.474C366.181 43.474 365.564 43.955 365.265 44.7675L365.252 43.5975H363.718V50H365.453V46.8995C365.453 45.6775 365.921 45.086 366.688 45.086C367.325 45.086 367.585 45.4955 367.585 46.36V50H369.314V46.8865L369.321 46.8995C369.321 45.6775 369.789 45.086 370.556 45.086C371.193 45.086 371.453 45.502 371.453 46.36V50H373.182V45.8985C373.182 44.4685 372.577 43.474 371.043 43.474ZM378.251 43.4805C377.23 43.4805 376.554 43.903 376.19 44.7025L376.164 43.5975H374.585V52.4505H376.327V49.116C376.71 49.766 377.347 50.1235 378.251 50.1235C379.973 50.1235 381.078 48.804 381.078 46.7955C381.078 44.7935 379.973 43.4805 378.251 43.4805ZM377.841 48.583C376.899 48.583 376.268 47.8615 376.268 46.7955C376.268 45.736 376.899 45.0405 377.841 45.0405C378.79 45.0405 379.323 45.7165 379.323 46.7955C379.323 47.881 378.79 48.583 377.841 48.583ZM388.143 48.57C387.805 48.57 387.721 48.4075 387.721 48.089V46.1455C387.721 44.9235 387.37 43.474 384.874 43.474C383.268 43.474 382.157 44.241 382.053 45.6905L383.723 45.8855C383.801 45.2095 384.172 44.891 384.88 44.891C385.758 44.891 386.018 45.411 386.018 46.126V46.3795C385.647 46.321 385.257 46.2885 384.835 46.2885C383.073 46.2885 381.838 46.789 381.838 48.141C381.838 49.285 382.625 50.117 384.022 50.117C385.082 50.117 385.855 49.727 386.206 49.0315C386.304 49.779 386.668 50.052 387.623 50.052C387.948 50.052 388.208 50.0325 388.494 49.961V48.544C388.371 48.5635 388.254 48.57 388.143 48.57ZM384.614 48.791C384.035 48.791 383.717 48.5505 383.717 48.076C383.717 47.595 384.146 47.3675 385.075 47.3675C385.407 47.3675 385.706 47.3935 386.018 47.452V48.1475C385.738 48.5505 385.218 48.791 384.614 48.791ZM393.034 43.474C391.961 43.474 391.279 43.994 390.96 44.865L390.947 43.5975H389.4V50H391.142V46.919C391.142 45.697 391.708 45.1055 392.54 45.1055C393.268 45.1055 393.586 45.515 393.586 46.3925V50H395.328V45.905C395.328 44.4555 394.652 43.474 393.034 43.474ZM400.794 43.5975L399.793 47.4325C399.67 47.907 399.559 48.3555 399.455 48.778C399.345 48.336 399.228 47.8615 399.111 47.4195L398.103 43.5975H396.134L398.227 50H398.974L398.922 50.1625C398.643 51.001 397.915 51.209 396.491 50.845L396.192 52.34C398.116 52.8145 399.904 52.4115 400.619 50.1625L402.764 43.5975H400.794ZM409.295 48.4595V41.355C408.086 41.797 406.961 42.0245 405.596 42.0765V43.682C406.266 43.6625 406.825 43.578 407.397 43.4285V48.4595H405.596V50H411.095V48.4595H409.295Z" fill="black"/>
<g clip-path="url(#clip0)">
<g filter="url(#filter2_d)">
<path d="M441.628 194.286H428.371C422.88 194.286 418.428 198.738 418.428 204.229V217.486C418.428 222.977 422.88 227.429 428.371 227.429H441.628C447.12 227.429 451.571 222.977 451.571 217.486V204.229C451.571 198.738 447.12 194.286 441.628 194.286Z" fill="black"/>
</g>
<path d="M441.628 194.286H428.371C422.88 194.286 418.428 198.738 418.428 204.229V217.486C418.428 222.977 422.88 227.429 428.371 227.429H441.628C447.12 227.429 451.571 222.977 451.571 217.486V204.229C451.571 198.738 447.12 194.286 441.628 194.286Z" fill="#5375FF"/>
<path d="M442.115 203.741C441.828 203.454 441.421 203.338 441.027 203.43L441.021 203.432L428.007 206.617C426.758 206.923 425.885 208.034 425.885 209.321V211.038C425.885 211.664 426.381 212.176 427.001 212.202L431.896 213.035C431.999 213.053 432.105 213.019 432.179 212.945L437.948 207.176C438.15 206.974 438.478 206.974 438.68 207.176C438.882 207.378 438.882 207.707 438.68 207.909L432.912 213.677C432.837 213.752 432.804 213.857 432.821 213.961L433.654 218.856C433.681 219.476 434.193 219.971 434.818 219.971H436.536C437.822 219.971 438.934 219.099 439.239 217.85L442.425 204.836L442.426 204.83C442.517 204.435 442.401 204.029 442.115 203.741Z" fill="#FBFBFB"/>
</g>
<rect x="286" y="139" width="172" height="7" rx="2" fill="#B0AFAF"/>
<rect x="324" y="154" width="105" height="8" rx="2" fill="#B0AFAF"/>
<ellipse cx="311" cy="58" rx="25" ry="24" fill="#C4C4C4"/>
<rect x="347" y="58" width="73" height="3" rx="1.5" fill="#C4C4C4"/>
<g filter="url(#filter3_d)">
<rect x="287" y="195" width="113" height="31" rx="4" fill="#5375FF"/>
</g>
<path d="M315.024 214.13C316.811 214.13 317.799 213.194 317.806 211.79C317.812 210.158 316.486 209.775 315.069 209.365C313.763 208.982 312.898 208.683 312.898 207.656C312.898 206.772 313.535 206.187 314.77 206.187C316.233 206.187 316.863 207.025 316.954 208.273L317.734 208.104C317.695 206.291 316.551 205.42 314.803 205.42C313.171 205.42 311.995 206.226 311.995 207.714C311.995 209.255 313.223 209.749 314.699 210.145C316.051 210.522 316.915 210.789 316.915 211.829C316.915 212.901 316.168 213.356 315.037 213.356C313.36 213.356 312.521 212.576 312.547 211.107L311.722 211.237C311.683 213.278 313.171 214.13 315.024 214.13ZM322.699 207.636C321.666 207.636 320.892 208.15 320.502 208.949V204.926H319.651V214H320.502V210.73C320.502 209.281 321.386 208.429 322.556 208.429C323.622 208.429 324.136 209.027 324.136 210.353V214H324.987V210.23C324.987 208.527 324.233 207.636 322.699 207.636ZM329.531 214.13C331.409 214.13 332.625 212.732 332.625 210.88C332.625 209.027 331.409 207.636 329.531 207.636C327.652 207.636 326.43 209.027 326.43 210.88C326.43 212.732 327.652 214.13 329.531 214.13ZM329.531 213.369C328.172 213.369 327.295 212.31 327.295 210.88C327.295 209.45 328.172 208.397 329.531 208.397C330.883 208.397 331.76 209.45 331.76 210.88C331.76 212.31 330.883 213.369 329.531 213.369ZM341.487 207.766L340.499 211.4C340.323 212.05 340.174 212.674 340.011 213.343C339.842 212.648 339.673 212.017 339.491 211.393L338.412 207.773H337.444L336.358 211.393C336.176 212.017 336.007 212.648 335.838 213.343C335.676 212.674 335.526 212.05 335.357 211.4L334.369 207.766H333.485L335.273 214H336.352L337.541 210.067C337.684 209.593 337.795 209.125 337.925 208.631C338.055 209.125 338.172 209.593 338.315 210.067L339.498 214H340.577L342.364 207.766H341.487ZM353.371 207.636C352.292 207.636 351.59 208.156 351.252 208.975C351.005 208.098 350.414 207.636 349.387 207.636C348.34 207.636 347.677 208.117 347.339 208.884L347.352 207.766H346.54V214H347.385V210.711C347.385 209.255 348.061 208.41 349.237 208.41C350.232 208.41 350.557 209.014 350.557 210.321V214H351.395V210.711C351.395 209.255 352.065 208.41 353.241 208.41C354.242 208.41 354.567 209.034 354.567 210.321V214H355.406V210.23C355.406 208.566 354.821 207.636 353.371 207.636ZM359.962 214.13C361.84 214.13 363.056 212.732 363.056 210.88C363.056 209.027 361.84 207.636 359.962 207.636C358.083 207.636 356.861 209.027 356.861 210.88C356.861 212.732 358.083 214.13 359.962 214.13ZM359.962 213.369C358.603 213.369 357.726 212.31 357.726 210.88C357.726 209.45 358.603 208.397 359.962 208.397C361.314 208.397 362.191 209.45 362.191 210.88C362.191 212.31 361.314 213.369 359.962 213.369ZM365.417 209.04L365.43 207.766H364.618V214H365.456V210.698C365.456 209.073 366.698 208.267 367.913 208.585L367.972 207.695C366.821 207.441 365.84 207.948 365.417 209.04ZM374.298 210.756C374.298 208.891 373.277 207.636 371.522 207.636C369.761 207.636 368.63 209.06 368.63 210.867C368.63 212.713 369.806 214.13 371.62 214.13C372.881 214.13 373.817 213.545 374.181 212.433L373.511 212.199C373.212 212.94 372.627 213.389 371.62 213.389C370.372 213.389 369.585 212.459 369.488 211.127H374.291C374.298 210.997 374.298 210.873 374.298 210.756ZM371.522 208.364C372.679 208.364 373.355 209.125 373.446 210.425H369.507C369.637 209.209 370.359 208.364 371.522 208.364Z" fill="white"/>
<rect x="281.2" y="108.2" width="51.6" height="13.6" rx="6.8" stroke="#5375FF" stroke-width="0.4"/>
<rect x="344.2" y="108.2" width="41.6" height="13.6" rx="6.8" stroke="#5375FF" stroke-width="0.4"/>
<rect x="406.2" y="108.2" width="22.6" height="13.6" rx="6.8" stroke="#5375FF" stroke-width="0.4"/>
<g filter="url(#filter4_d)">
<rect x="241" y="86" width="241" height="252" rx="38" fill="white"/>
<rect x="241.5" y="86.5" width="240" height="251" rx="37.5" stroke="#D1D1D1"/>
</g>
<path d="M351.544 136.124C353.76 136.124 355.145 134.979 355.333 132.86L353.5 132.613C353.286 134.115 352.525 134.537 351.505 134.537C350.042 134.537 349.347 133.452 349.347 131.775C349.347 130.098 350.042 129.012 351.505 129.012C352.525 129.012 353.292 129.48 353.5 130.936L355.333 130.689C355.171 128.57 353.76 127.426 351.544 127.426C348.898 127.426 347.39 129.194 347.39 131.775C347.39 134.355 348.898 136.124 351.544 136.124ZM359.368 136.124C361.435 136.124 362.644 134.745 362.644 132.795C362.644 130.852 361.435 129.474 359.368 129.474C357.294 129.474 356.085 130.852 356.085 132.795C356.085 134.745 357.294 136.124 359.368 136.124ZM359.368 134.576C358.419 134.576 357.808 133.894 357.808 132.795C357.808 131.703 358.419 131.027 359.368 131.027C360.31 131.027 360.915 131.703 360.915 132.795C360.915 133.894 360.31 134.576 359.368 134.576ZM371.043 129.474C370.068 129.474 369.451 129.929 369.132 130.696C368.859 129.935 368.248 129.474 367.189 129.474C366.181 129.474 365.564 129.955 365.265 130.767L365.252 129.597H363.718V136H365.453V132.899C365.453 131.677 365.921 131.086 366.688 131.086C367.325 131.086 367.585 131.495 367.585 132.36V136H369.314V132.886L369.321 132.899C369.321 131.677 369.789 131.086 370.556 131.086C371.193 131.086 371.453 131.502 371.453 132.36V136H373.182V131.898C373.182 130.468 372.577 129.474 371.043 129.474ZM378.251 129.48C377.23 129.48 376.554 129.903 376.19 130.702L376.164 129.597H374.585V138.451H376.327V135.116C376.71 135.766 377.347 136.124 378.251 136.124C379.973 136.124 381.078 134.804 381.078 132.795C381.078 130.793 379.973 129.48 378.251 129.48ZM377.841 134.583C376.899 134.583 376.268 133.861 376.268 132.795C376.268 131.736 376.899 131.04 377.841 131.04C378.79 131.04 379.323 131.716 379.323 132.795C379.323 133.881 378.79 134.583 377.841 134.583ZM388.143 134.57C387.805 134.57 387.721 134.407 387.721 134.089V132.145C387.721 130.923 387.37 129.474 384.874 129.474C383.268 129.474 382.157 130.241 382.053 131.69L383.723 131.885C383.801 131.209 384.172 130.891 384.88 130.891C385.758 130.891 386.018 131.411 386.018 132.126V132.379C385.647 132.321 385.257 132.288 384.835 132.288C383.073 132.288 381.838 132.789 381.838 134.141C381.838 135.285 382.625 136.117 384.022 136.117C385.082 136.117 385.855 135.727 386.206 135.031C386.304 135.779 386.668 136.052 387.623 136.052C387.948 136.052 388.208 136.033 388.494 135.961V134.544C388.371 134.563 388.254 134.57 388.143 134.57ZM384.614 134.791C384.035 134.791 383.717 134.55 383.717 134.076C383.717 133.595 384.146 133.367 385.075 133.367C385.407 133.367 385.706 133.393 386.018 133.452V134.147C385.738 134.55 385.218 134.791 384.614 134.791ZM393.034 129.474C391.961 129.474 391.279 129.994 390.96 130.865L390.947 129.597H389.4V136H391.142V132.919C391.142 131.697 391.708 131.105 392.54 131.105C393.268 131.105 393.586 131.515 393.586 132.392V136H395.328V131.905C395.328 130.455 394.652 129.474 393.034 129.474ZM400.794 129.597L399.793 133.432C399.67 133.907 399.559 134.355 399.455 134.778C399.345 134.336 399.228 133.861 399.111 133.419L398.103 129.597H396.134L398.227 136H398.974L398.922 136.163C398.643 137.001 397.915 137.209 396.491 136.845L396.192 138.34C398.116 138.815 399.904 138.412 400.619 136.163L402.764 129.597H400.794ZM408.034 134.459L409.626 133.445C411.069 132.561 411.953 131.515 411.953 129.961C411.953 128.538 411.069 127.426 409.002 127.426C406.838 127.426 405.629 128.629 405.889 130.696L407.663 131.021C407.566 129.812 407.832 129.077 408.885 129.077C409.639 129.077 409.971 129.435 409.971 130.059C409.971 131.053 409.126 131.827 408.3 132.47L405.798 134.427L405.895 136H412.174V134.459H408.034Z" fill="black"/>
<g clip-path="url(#clip1)">
<g filter="url(#filter5_d)">
<path d="M441.628 280.286H428.371C422.88 280.286 418.428 284.738 418.428 290.229V303.486C418.428 308.977 422.88 313.429 428.371 313.429H441.628C447.12 313.429 451.571 308.977 451.571 303.486V290.229C451.571 284.738 447.12 280.286 441.628 280.286Z" fill="black"/>
</g>
<path d="M441.628 280.286H428.371C422.88 280.286 418.428 284.738 418.428 290.229V303.486C418.428 308.977 422.88 313.429 428.371 313.429H441.628C447.12 313.429 451.571 308.977 451.571 303.486V290.229C451.571 284.738 447.12 280.286 441.628 280.286Z" fill="#5375FF"/>
<path d="M442.115 289.741C441.828 289.454 441.421 289.338 441.027 289.43L441.021 289.432L428.007 292.617C426.758 292.923 425.885 294.034 425.885 295.321V297.038C425.885 297.664 426.381 298.176 427.001 298.202L431.896 299.035C431.999 299.053 432.105 299.019 432.179 298.945L437.948 293.176C438.15 292.974 438.478 292.974 438.68 293.176C438.882 293.378 438.882 293.707 438.68 293.909L432.912 299.677C432.837 299.752 432.804 299.857 432.821 299.961L433.654 304.856C433.681 305.476 434.193 305.971 434.818 305.971H436.536C437.822 305.971 438.934 305.099 439.239 303.85L442.425 290.836L442.426 290.83C442.517 290.435 442.401 290.029 442.115 289.741Z" fill="#FBFBFB"/>
</g>
<rect x="286" y="225" width="172" height="7" rx="2" fill="#B0AFAF"/>
<rect x="324" y="240" width="105" height="8" rx="2" fill="#B0AFAF"/>
<ellipse cx="311" cy="144" rx="25" ry="24" fill="#C4C4C4"/>
<rect x="347" y="144" width="73" height="3" rx="1.5" fill="#C4C4C4"/>
<g filter="url(#filter6_d)">
<rect x="287" y="281" width="113" height="31" rx="4" fill="#5375FF"/>
</g>
<path d="M315.024 300.13C316.811 300.13 317.799 299.194 317.806 297.79C317.812 296.158 316.486 295.775 315.069 295.365C313.763 294.982 312.898 294.683 312.898 293.656C312.898 292.772 313.535 292.187 314.77 292.187C316.233 292.187 316.863 293.025 316.954 294.273L317.734 294.104C317.695 292.291 316.551 291.42 314.803 291.42C313.171 291.42 311.995 292.226 311.995 293.714C311.995 295.255 313.223 295.749 314.699 296.145C316.051 296.522 316.915 296.789 316.915 297.829C316.915 298.901 316.168 299.356 315.037 299.356C313.36 299.356 312.521 298.576 312.547 297.107L311.722 297.237C311.683 299.278 313.171 300.13 315.024 300.13ZM322.699 293.636C321.666 293.636 320.892 294.15 320.502 294.949V290.926H319.651V300H320.502V296.73C320.502 295.281 321.386 294.429 322.556 294.429C323.622 294.429 324.136 295.027 324.136 296.353V300H324.987V296.23C324.987 294.527 324.233 293.636 322.699 293.636ZM329.531 300.13C331.409 300.13 332.625 298.732 332.625 296.88C332.625 295.027 331.409 293.636 329.531 293.636C327.652 293.636 326.43 295.027 326.43 296.88C326.43 298.732 327.652 300.13 329.531 300.13ZM329.531 299.369C328.172 299.369 327.295 298.31 327.295 296.88C327.295 295.45 328.172 294.397 329.531 294.397C330.883 294.397 331.76 295.45 331.76 296.88C331.76 298.31 330.883 299.369 329.531 299.369ZM341.487 293.766L340.499 297.4C340.323 298.05 340.174 298.674 340.011 299.343C339.842 298.648 339.673 298.017 339.491 297.393L338.412 293.773H337.444L336.358 297.393C336.176 298.017 336.007 298.648 335.838 299.343C335.676 298.674 335.526 298.05 335.357 297.4L334.369 293.766H333.485L335.273 300H336.352L337.541 296.067C337.684 295.593 337.795 295.125 337.925 294.631C338.055 295.125 338.172 295.593 338.315 296.067L339.498 300H340.577L342.364 293.766H341.487ZM353.371 293.636C352.292 293.636 351.59 294.156 351.252 294.975C351.005 294.098 350.414 293.636 349.387 293.636C348.34 293.636 347.677 294.117 347.339 294.884L347.352 293.766H346.54V300H347.385V296.711C347.385 295.255 348.061 294.41 349.237 294.41C350.232 294.41 350.557 295.014 350.557 296.321V300H351.395V296.711C351.395 295.255 352.065 294.41 353.241 294.41C354.242 294.41 354.567 295.034 354.567 296.321V300H355.406V296.23C355.406 294.566 354.821 293.636 353.371 293.636ZM359.962 300.13C361.84 300.13 363.056 298.732 363.056 296.88C363.056 295.027 361.84 293.636 359.962 293.636C358.083 293.636 356.861 295.027 356.861 296.88C356.861 298.732 358.083 300.13 359.962 300.13ZM359.962 299.369C358.603 299.369 357.726 298.31 357.726 296.88C357.726 295.45 358.603 294.397 359.962 294.397C361.314 294.397 362.191 295.45 362.191 296.88C362.191 298.31 361.314 299.369 359.962 299.369ZM365.417 295.04L365.43 293.766H364.618V300H365.456V296.698C365.456 295.073 366.698 294.267 367.913 294.585L367.972 293.695C366.821 293.441 365.84 293.948 365.417 295.04ZM374.298 296.756C374.298 294.891 373.277 293.636 371.522 293.636C369.761 293.636 368.63 295.06 368.63 296.867C368.63 298.713 369.806 300.13 371.62 300.13C372.881 300.13 373.817 299.545 374.181 298.433L373.511 298.199C373.212 298.94 372.627 299.389 371.62 299.389C370.372 299.389 369.585 298.459 369.488 297.127H374.291C374.298 296.997 374.298 296.873 374.298 296.756ZM371.522 294.364C372.679 294.364 373.355 295.125 373.446 296.425H369.507C369.637 295.209 370.359 294.364 371.522 294.364Z" fill="white"/>
<rect x="281.2" y="194.2" width="51.6" height="13.6" rx="6.8" stroke="#5375FF" stroke-width="0.4"/>
<rect x="344.2" y="194.2" width="41.6" height="13.6" rx="6.8" stroke="#5375FF" stroke-width="0.4"/>
<rect x="406.2" y="194.2" width="22.6" height="13.6" rx="6.8" stroke="#5375FF" stroke-width="0.4"/>
<g filter="url(#filter7_d)">
<rect x="241" y="178" width="241" height="252" rx="38" fill="white"/>
<rect x="241.5" y="178.5" width="240" height="251" rx="37.5" stroke="#D1D1D1"/>
</g>
<path d="M351.544 228.124C353.76 228.124 355.145 226.979 355.333 224.86L353.5 224.613C353.286 226.115 352.525 226.537 351.505 226.537C350.042 226.537 349.347 225.452 349.347 223.775C349.347 222.098 350.042 221.012 351.505 221.012C352.525 221.012 353.292 221.48 353.5 222.936L355.333 222.689C355.171 220.57 353.76 219.426 351.544 219.426C348.898 219.426 347.39 221.194 347.39 223.775C347.39 226.355 348.898 228.124 351.544 228.124ZM359.368 228.124C361.435 228.124 362.644 226.745 362.644 224.795C362.644 222.852 361.435 221.474 359.368 221.474C357.294 221.474 356.085 222.852 356.085 224.795C356.085 226.745 357.294 228.124 359.368 228.124ZM359.368 226.576C358.419 226.576 357.808 225.894 357.808 224.795C357.808 223.703 358.419 223.027 359.368 223.027C360.31 223.027 360.915 223.703 360.915 224.795C360.915 225.894 360.31 226.576 359.368 226.576ZM371.043 221.474C370.068 221.474 369.451 221.929 369.132 222.696C368.859 221.935 368.248 221.474 367.189 221.474C366.181 221.474 365.564 221.955 365.265 222.767L365.252 221.597H363.718V228H365.453V224.899C365.453 223.677 365.921 223.086 366.688 223.086C367.325 223.086 367.585 223.495 367.585 224.36V228H369.314V224.886L369.321 224.899C369.321 223.677 369.789 223.086 370.556 223.086C371.193 223.086 371.453 223.502 371.453 224.36V228H373.182V223.898C373.182 222.468 372.577 221.474 371.043 221.474ZM378.251 221.48C377.23 221.48 376.554 221.903 376.19 222.702L376.164 221.597H374.585V230.451H376.327V227.116C376.71 227.766 377.347 228.124 378.251 228.124C379.973 228.124 381.078 226.804 381.078 224.795C381.078 222.793 379.973 221.48 378.251 221.48ZM377.841 226.583C376.899 226.583 376.268 225.861 376.268 224.795C376.268 223.736 376.899 223.04 377.841 223.04C378.79 223.04 379.323 223.716 379.323 224.795C379.323 225.881 378.79 226.583 377.841 226.583ZM388.143 226.57C387.805 226.57 387.721 226.407 387.721 226.089V224.145C387.721 222.923 387.37 221.474 384.874 221.474C383.268 221.474 382.157 222.241 382.053 223.69L383.723 223.885C383.801 223.209 384.172 222.891 384.88 222.891C385.758 222.891 386.018 223.411 386.018 224.126V224.379C385.647 224.321 385.257 224.288 384.835 224.288C383.073 224.288 381.838 224.789 381.838 226.141C381.838 227.285 382.625 228.117 384.022 228.117C385.082 228.117 385.855 227.727 386.206 227.031C386.304 227.779 386.668 228.052 387.623 228.052C387.948 228.052 388.208 228.033 388.494 227.961V226.544C388.371 226.563 388.254 226.57 388.143 226.57ZM384.614 226.791C384.035 226.791 383.717 226.55 383.717 226.076C383.717 225.595 384.146 225.367 385.075 225.367C385.407 225.367 385.706 225.393 386.018 225.452V226.147C385.738 226.55 385.218 226.791 384.614 226.791ZM393.034 221.474C391.961 221.474 391.279 221.994 390.96 222.865L390.947 221.597H389.4V228H391.142V224.919C391.142 223.697 391.708 223.105 392.54 223.105C393.268 223.105 393.586 223.515 393.586 224.392V228H395.328V223.905C395.328 222.455 394.652 221.474 393.034 221.474ZM400.794 221.597L399.793 225.432C399.67 225.907 399.559 226.355 399.455 226.778C399.345 226.336 399.228 225.861 399.111 225.419L398.103 221.597H396.134L398.227 228H398.974L398.922 228.163C398.643 229.001 397.915 229.209 396.491 228.845L396.192 230.34C398.116 230.815 399.904 230.412 400.619 228.163L402.764 221.597H400.794ZM409.893 222.91L411.765 221.123V219.55H405.928V221.123H409.756L407.592 223.183L408.047 224.262C408.32 224.158 408.593 224.119 408.859 224.119C409.639 224.119 410.153 224.542 410.153 225.27C410.153 226.115 409.574 226.537 408.814 226.537C408.073 226.537 407.442 226.063 407.325 224.958L405.525 225.257C405.713 227.181 406.896 228.124 408.762 228.124C410.803 228.124 412.07 226.973 412.07 225.276C412.07 224.054 411.297 223.099 409.893 222.91Z" fill="black"/>
<g clip-path="url(#clip2)">
<g filter="url(#filter8_d)">
<path d="M441.628 372.286H428.371C422.88 372.286 418.428 376.738 418.428 382.229V395.486C418.428 400.977 422.88 405.429 428.371 405.429H441.628C447.12 405.429 451.571 400.977 451.571 395.486V382.229C451.571 376.738 447.12 372.286 441.628 372.286Z" fill="black"/>
</g>
<path d="M441.628 372.286H428.371C422.88 372.286 418.428 376.738 418.428 382.229V395.486C418.428 400.977 422.88 405.429 428.371 405.429H441.628C447.12 405.429 451.571 400.977 451.571 395.486V382.229C451.571 376.738 447.12 372.286 441.628 372.286Z" fill="#5375FF"/>
<path d="M442.115 381.741C441.828 381.454 441.421 381.338 441.027 381.43L441.021 381.432L428.007 384.617C426.758 384.923 425.885 386.034 425.885 387.321V389.038C425.885 389.664 426.381 390.176 427.001 390.202L431.896 391.035C431.999 391.053 432.105 391.019 432.179 390.945L437.948 385.176C438.15 384.974 438.478 384.974 438.68 385.176C438.882 385.378 438.882 385.707 438.68 385.909L432.912 391.677C432.837 391.752 432.804 391.857 432.821 391.961L433.654 396.856C433.681 397.476 434.193 397.971 434.818 397.971H436.536C437.822 397.971 438.934 397.099 439.239 395.85L442.425 382.836L442.426 382.83C442.517 382.435 442.401 382.029 442.115 381.741Z" fill="#FBFBFB"/>
</g>
<rect x="286" y="317" width="172" height="7" rx="2" fill="#B0AFAF"/>
<rect x="324" y="332" width="105" height="8" rx="2" fill="#B0AFAF"/>
<ellipse cx="311" cy="236" rx="25" ry="24" fill="#C4C4C4"/>
<rect x="347" y="236" width="73" height="3" rx="1.5" fill="#C4C4C4"/>
<g filter="url(#filter9_d)">
<rect x="287" y="373" width="113" height="31" rx="4" fill="#5375FF"/>
</g>
<path d="M315.024 392.13C316.811 392.13 317.799 391.194 317.806 389.79C317.812 388.158 316.486 387.775 315.069 387.365C313.763 386.982 312.898 386.683 312.898 385.656C312.898 384.772 313.535 384.187 314.77 384.187C316.233 384.187 316.863 385.025 316.954 386.273L317.734 386.104C317.695 384.291 316.551 383.42 314.803 383.42C313.171 383.42 311.995 384.226 311.995 385.714C311.995 387.255 313.223 387.749 314.699 388.145C316.051 388.522 316.915 388.789 316.915 389.829C316.915 390.901 316.168 391.356 315.037 391.356C313.36 391.356 312.521 390.576 312.547 389.107L311.722 389.237C311.683 391.278 313.171 392.13 315.024 392.13ZM322.699 385.636C321.666 385.636 320.892 386.15 320.502 386.949V382.926H319.651V392H320.502V388.73C320.502 387.281 321.386 386.429 322.556 386.429C323.622 386.429 324.136 387.027 324.136 388.353V392H324.987V388.23C324.987 386.527 324.233 385.636 322.699 385.636ZM329.531 392.13C331.409 392.13 332.625 390.732 332.625 388.88C332.625 387.027 331.409 385.636 329.531 385.636C327.652 385.636 326.43 387.027 326.43 388.88C326.43 390.732 327.652 392.13 329.531 392.13ZM329.531 391.369C328.172 391.369 327.295 390.31 327.295 388.88C327.295 387.45 328.172 386.397 329.531 386.397C330.883 386.397 331.76 387.45 331.76 388.88C331.76 390.31 330.883 391.369 329.531 391.369ZM341.487 385.766L340.499 389.4C340.323 390.05 340.174 390.674 340.011 391.343C339.842 390.648 339.673 390.017 339.491 389.393L338.412 385.773H337.444L336.358 389.393C336.176 390.017 336.007 390.648 335.838 391.343C335.676 390.674 335.526 390.05 335.357 389.4L334.369 385.766H333.485L335.273 392H336.352L337.541 388.067C337.684 387.593 337.795 387.125 337.925 386.631C338.055 387.125 338.172 387.593 338.315 388.067L339.498 392H340.577L342.364 385.766H341.487ZM353.371 385.636C352.292 385.636 351.59 386.156 351.252 386.975C351.005 386.098 350.414 385.636 349.387 385.636C348.34 385.636 347.677 386.117 347.339 386.884L347.352 385.766H346.54V392H347.385V388.711C347.385 387.255 348.061 386.41 349.237 386.41C350.232 386.41 350.557 387.014 350.557 388.321V392H351.395V388.711C351.395 387.255 352.065 386.41 353.241 386.41C354.242 386.41 354.567 387.034 354.567 388.321V392H355.406V388.23C355.406 386.566 354.821 385.636 353.371 385.636ZM359.962 392.13C361.84 392.13 363.056 390.732 363.056 388.88C363.056 387.027 361.84 385.636 359.962 385.636C358.083 385.636 356.861 387.027 356.861 388.88C356.861 390.732 358.083 392.13 359.962 392.13ZM359.962 391.369C358.603 391.369 357.726 390.31 357.726 388.88C357.726 387.45 358.603 386.397 359.962 386.397C361.314 386.397 362.191 387.45 362.191 388.88C362.191 390.31 361.314 391.369 359.962 391.369ZM365.417 387.04L365.43 385.766H364.618V392H365.456V388.698C365.456 387.073 366.698 386.267 367.913 386.585L367.972 385.695C366.821 385.441 365.84 385.948 365.417 387.04ZM374.298 388.756C374.298 386.891 373.277 385.636 371.522 385.636C369.761 385.636 368.63 387.06 368.63 388.867C368.63 390.713 369.806 392.13 371.62 392.13C372.881 392.13 373.817 391.545 374.181 390.433L373.511 390.199C373.212 390.94 372.627 391.389 371.62 391.389C370.372 391.389 369.585 390.459 369.488 389.127H374.291C374.298 388.997 374.298 388.873 374.298 388.756ZM371.522 386.364C372.679 386.364 373.355 387.125 373.446 388.425H369.507C369.637 387.209 370.359 386.364 371.522 386.364Z" fill="white"/>
<rect x="281.2" y="286.2" width="51.6" height="13.6" rx="6.8" stroke="#5375FF" stroke-width="0.4"/>
<rect x="344.2" y="286.2" width="41.6" height="13.6" rx="6.8" stroke="#5375FF" stroke-width="0.4"/>
<rect x="406.2" y="286.2" width="22.6" height="13.6" rx="6.8" stroke="#5375FF" stroke-width="0.4"/>
<defs>
<filter id="filter0_d" x="0" y="101" width="288" height="231" filterUnits="userSpaceOnUse" color-interpolation-filters="sRGB">
<feFlood flood-opacity="0" result="BackgroundImageFix"/>
<feColorMatrix in="SourceAlpha" type="matrix" values="0 0 0 0 0 0 0 0 0 0 0 0 0 0 0 0 0 0 127 0"/>
<feOffset dy="4"/>
<feGaussianBlur stdDeviation="2"/>
<feColorMatrix type="matrix" values="0 0 0 0 0 0 0 0 0 0 0 0 0 0 0 0 0 0 0.25 0"/>
<feBlend mode="normal" in2="BackgroundImageFix" result="effect1_dropShadow"/>
<feBlend mode="normal" in="SourceGraphic" in2="effect1_dropShadow" result="shape"/>
</filter>
<filter id="filter1_d" x="237" y="0" width="249" height="260" filterUnits="userSpaceOnUse" color-interpolation-filters="sRGB">
<feFlood flood-opacity="0" result="BackgroundImageFix"/>
<feColorMatrix in="SourceAlpha" type="matrix" values="0 0 0 0 0 0 0 0 0 0 0 0 0 0 0 0 0 0 127 0"/>
<feOffset dy="4"/>
<feGaussianBlur stdDeviation="2"/>
<feColorMatrix type="matrix" values="0 0 0 0 0 0 0 0 0 0 0 0 0 0 0 0 0 0 0.25 0"/>
<feBlend mode="normal" in2="BackgroundImageFix" result="effect1_dropShadow"/>
<feBlend mode="normal" in="SourceGraphic" in2="effect1_dropShadow" result="shape"/>
</filter>
<filter id="filter2_d" x="403.428" y="184.286" width="63.1429" height="63.1429" filterUnits="userSpaceOnUse" color-interpolation-filters="sRGB">
<feFlood flood-opacity="0" result="BackgroundImageFix"/>
<feColorMatrix in="SourceAlpha" type="matrix" values="0 0 0 0 0 0 0 0 0 0 0 0 0 0 0 0 0 0 127 0"/>
<feOffset dy="5"/>
<feGaussianBlur stdDeviation="7.5"/>
<feColorMatrix type="matrix" values="0 0 0 0 0.0470588 0 0 0 0 0.0666667 0 0 0 0 0.109804 0 0 0 0.151825 0"/>
<feBlend mode="normal" in2="BackgroundImageFix" result="effect1_dropShadow"/>
<feBlend mode="normal" in="SourceGraphic" in2="effect1_dropShadow" result="shape"/>
</filter>
<filter id="filter3_d" x="283" y="193" width="121" height="39" filterUnits="userSpaceOnUse" color-interpolation-filters="sRGB">
<feFlood flood-opacity="0" result="BackgroundImageFix"/>
<feColorMatrix in="SourceAlpha" type="matrix" values="0 0 0 0 0 0 0 0 0 0 0 0 0 0 0 0 0 0 127 0"/>
<feOffset dy="2"/>
<feGaussianBlur stdDeviation="2"/>
<feColorMatrix type="matrix" values="0 0 0 0 0 0 0 0 0 0 0 0 0 0 0 0 0 0 0.25 0"/>
<feBlend mode="normal" in2="BackgroundImageFix" result="effect1_dropShadow"/>
<feBlend mode="normal" in="SourceGraphic" in2="effect1_dropShadow" result="shape"/>
</filter>
<filter id="filter4_d" x="237" y="86" width="249" height="260" filterUnits="userSpaceOnUse" color-interpolation-filters="sRGB">
<feFlood flood-opacity="0" result="BackgroundImageFix"/>
<feColorMatrix in="SourceAlpha" type="matrix" values="0 0 0 0 0 0 0 0 0 0 0 0 0 0 0 0 0 0 127 0"/>
<feOffset dy="4"/>
<feGaussianBlur stdDeviation="2"/>
<feColorMatrix type="matrix" values="0 0 0 0 0 0 0 0 0 0 0 0 0 0 0 0 0 0 0.25 0"/>
<feBlend mode="normal" in2="BackgroundImageFix" result="effect1_dropShadow"/>
<feBlend mode="normal" in="SourceGraphic" in2="effect1_dropShadow" result="shape"/>
</filter>
<filter id="filter5_d" x="403.428" y="270.286" width="63.1429" height="63.1429" filterUnits="userSpaceOnUse" color-interpolation-filters="sRGB">
<feFlood flood-opacity="0" result="BackgroundImageFix"/>
<feColorMatrix in="SourceAlpha" type="matrix" values="0 0 0 0 0 0 0 0 0 0 0 0 0 0 0 0 0 0 127 0"/>
<feOffset dy="5"/>
<feGaussianBlur stdDeviation="7.5"/>
<feColorMatrix type="matrix" values="0 0 0 0 0.0470588 0 0 0 0 0.0666667 0 0 0 0 0.109804 0 0 0 0.151825 0"/>
<feBlend mode="normal" in2="BackgroundImageFix" result="effect1_dropShadow"/>
<feBlend mode="normal" in="SourceGraphic" in2="effect1_dropShadow" result="shape"/>
</filter>
<filter id="filter6_d" x="283" y="279" width="121" height="39" filterUnits="userSpaceOnUse" color-interpolation-filters="sRGB">
<feFlood flood-opacity="0" result="BackgroundImageFix"/>
<feColorMatrix in="SourceAlpha" type="matrix" values="0 0 0 0 0 0 0 0 0 0 0 0 0 0 0 0 0 0 127 0"/>
<feOffset dy="2"/>
<feGaussianBlur stdDeviation="2"/>
<feColorMatrix type="matrix" values="0 0 0 0 0 0 0 0 0 0 0 0 0 0 0 0 0 0 0.25 0"/>
<feBlend mode="normal" in2="BackgroundImageFix" result="effect1_dropShadow"/>
<feBlend mode="normal" in="SourceGraphic" in2="effect1_dropShadow" result="shape"/>
</filter>
<filter id="filter7_d" x="237" y="178" width="249" height="260" filterUnits="userSpaceOnUse" color-interpolation-filters="sRGB">
<feFlood flood-opacity="0" result="BackgroundImageFix"/>
<feColorMatrix in="SourceAlpha" type="matrix" values="0 0 0 0 0 0 0 0 0 0 0 0 0 0 0 0 0 0 127 0"/>
<feOffset dy="4"/>
<feGaussianBlur stdDeviation="2"/>
<feColorMatrix type="matrix" values="0 0 0 0 0 0 0 0 0 0 0 0 0 0 0 0 0 0 0.25 0"/>
<feBlend mode="normal" in2="BackgroundImageFix" result="effect1_dropShadow"/>
<feBlend mode="normal" in="SourceGraphic" in2="effect1_dropShadow" result="shape"/>
</filter>
<filter id="filter8_d" x="403.428" y="362.286" width="63.1429" height="63.1429" filterUnits="userSpaceOnUse" color-interpolation-filters="sRGB">
<feFlood flood-opacity="0" result="BackgroundImageFix"/>
<feColorMatrix in="SourceAlpha" type="matrix" values="0 0 0 0 0 0 0 0 0 0 0 0 0 0 0 0 0 0 127 0"/>
<feOffset dy="5"/>
<feGaussianBlur stdDeviation="7.5"/>
<feColorMatrix type="matrix" values="0 0 0 0 0.0470588 0 0 0 0 0.0666667 0 0 0 0 0.109804 0 0 0 0.151825 0"/>
<feBlend mode="normal" in2="BackgroundImageFix" result="effect1_dropShadow"/>
<feBlend mode="normal" in="SourceGraphic" in2="effect1_dropShadow" result="shape"/>
</filter>
<filter id="filter9_d" x="283" y="371" width="121" height="39" filterUnits="userSpaceOnUse" color-interpolation-filters="sRGB">
<feFlood flood-opacity="0" result="BackgroundImageFix"/>
<feColorMatrix in="SourceAlpha" type="matrix" values="0 0 0 0 0 0 0 0 0 0 0 0 0 0 0 0 0 0 127 0"/>
<feOffset dy="2"/>
<feGaussianBlur stdDeviation="2"/>
<feColorMatrix type="matrix" values="0 0 0 0 0 0 0 0 0 0 0 0 0 0 0 0 0 0 0.25 0"/>
<feBlend mode="normal" in2="BackgroundImageFix" result="effect1_dropShadow"/>
<feBlend mode="normal" in="SourceGraphic" in2="effect1_dropShadow" result="shape"/>
</filter>
<clipPath id="clip0">
<rect width="58" height="58" fill="white" transform="translate(406 186)"/>
</clipPath>
<clipPath id="clip1">
<rect width="58" height="58" fill="white" transform="translate(406 272)"/>
</clipPath>
<clipPath id="clip2">
<rect width="58" height="58" fill="white" transform="translate(406 364)"/>
</clipPath>
</defs>
</svg>
