<svg width="249" height="438" viewBox="0 0 249 438" fill="none" xmlns="http://www.w3.org/2000/svg">
<g filter="url(#filter0_d)">
<rect x="4" width="241" height="252" rx="38" fill="white"/>
<rect x="4.5" y="0.5" width="240" height="251" rx="37.5" stroke="#D1D1D1"/>
</g>
<path d="M114.544 50.1235C116.76 50.1235 118.145 48.9795 118.333 46.8605L116.5 46.6135C116.286 48.115 115.525 48.5375 114.505 48.5375C113.042 48.5375 112.347 47.452 112.347 45.775C112.347 44.098 113.042 43.0125 114.505 43.0125C115.525 43.0125 116.292 43.4805 116.5 44.9365L118.333 44.6895C118.171 42.5705 116.76 41.4265 114.544 41.4265C111.898 41.4265 110.39 43.1945 110.39 45.775C110.39 48.3555 111.898 50.1235 114.544 50.1235ZM122.368 50.1235C124.435 50.1235 125.644 48.7455 125.644 46.7955C125.644 44.852 124.435 43.474 122.368 43.474C120.294 43.474 119.085 44.852 119.085 46.7955C119.085 48.7455 120.294 50.1235 122.368 50.1235ZM122.368 48.5765C121.419 48.5765 120.808 47.894 120.808 46.7955C120.808 45.7035 121.419 45.0275 122.368 45.0275C123.31 45.0275 123.915 45.7035 123.915 46.7955C123.915 47.894 123.31 48.5765 122.368 48.5765ZM130.351 43.474C129.279 43.474 128.596 43.994 128.278 44.865L128.265 43.5975H126.718V50H128.46V46.919C128.46 45.697 129.025 45.1055 129.857 45.1055C130.585 45.1055 130.904 45.515 130.904 46.3925V50H132.646V45.905C132.646 44.4555 131.97 43.474 130.351 43.474ZM138.014 48.4205C137.747 48.5115 137.507 48.557 137.208 48.557C136.551 48.557 136.337 48.1995 136.337 47.556V45.0665H138.15V43.5975H136.337V41.602L134.595 41.849V43.5975H133.509V45.0665H134.595V47.79C134.595 49.246 135.303 50.0845 136.876 50.0845C137.403 50.0845 137.851 50.013 138.287 49.87L138.014 48.4205ZM144.995 46.7045C144.995 44.735 143.851 43.474 141.973 43.474C140.049 43.474 138.827 44.8975 138.827 46.802C138.827 48.7455 140.003 50.1235 142.025 50.1235C143.507 50.1235 144.586 49.4215 144.878 48.0435L143.409 47.816C143.247 48.401 142.798 48.6935 142.018 48.6935C141.199 48.6935 140.692 48.206 140.556 47.2765H144.963C144.989 47.0555 144.995 46.88 144.995 46.7045ZM141.973 44.8845C142.701 44.8845 143.208 45.3135 143.279 46.178H140.569C140.718 45.333 141.225 44.8845 141.973 44.8845ZM149.711 43.474C148.639 43.474 147.956 43.994 147.638 44.865L147.625 43.5975H146.078V50H147.82V46.919C147.82 45.697 148.385 45.1055 149.217 45.1055C149.945 45.1055 150.264 45.515 150.264 46.3925V50H152.006V45.905C152.006 44.4555 151.33 43.474 149.711 43.474ZM157.374 48.4205C157.108 48.5115 156.867 48.557 156.568 48.557C155.912 48.557 155.697 48.1995 155.697 47.556V45.0665H157.511V43.5975H155.697V41.602L153.955 41.849V43.5975H152.87V45.0665H153.955V47.79C153.955 49.246 154.664 50.0845 156.237 50.0845C156.763 50.0845 157.212 50.013 157.647 49.87L157.374 48.4205ZM163.823 50.1235C165.416 50.1235 166.592 49.4085 166.891 47.6275L165.234 47.4585C165.084 48.2255 164.603 48.6285 163.843 48.6285C162.868 48.6285 162.335 47.894 162.335 46.7955C162.335 45.7035 162.868 44.969 163.843 44.969C164.603 44.969 165.084 45.372 165.234 46.1325L166.891 45.97C166.592 44.189 165.416 43.474 163.823 43.474C161.795 43.474 160.586 44.865 160.586 46.7955C160.586 48.7325 161.795 50.1235 163.823 50.1235ZM169.499 44.93L169.479 43.5975H167.952V49.9935H169.681V47.114C169.681 45.6515 170.721 45.151 171.852 45.385V43.5065C170.669 43.2985 169.856 43.9095 169.499 44.93ZM178.473 46.7045C178.473 44.735 177.329 43.474 175.45 43.474C173.526 43.474 172.304 44.8975 172.304 46.802C172.304 48.7455 173.481 50.1235 175.502 50.1235C176.984 50.1235 178.063 49.4215 178.356 48.0435L176.887 47.816C176.724 48.401 176.276 48.6935 175.496 48.6935C174.677 48.6935 174.17 48.206 174.033 47.2765H178.44C178.466 47.0555 178.473 46.88 178.473 46.7045ZM175.45 44.8845C176.178 44.8845 176.685 45.3135 176.757 46.178H174.046C174.196 45.333 174.703 44.8845 175.45 44.8845ZM185.586 48.57C185.248 48.57 185.163 48.4075 185.163 48.089V46.1455C185.163 44.9235 184.812 43.474 182.316 43.474C180.711 43.474 179.599 44.241 179.495 45.6905L181.166 45.8855C181.244 45.2095 181.614 44.891 182.323 44.891C183.2 44.891 183.46 45.411 183.46 46.126V46.3795C183.09 46.321 182.7 46.2885 182.277 46.2885C180.516 46.2885 179.281 46.789 179.281 48.141C179.281 49.285 180.067 50.117 181.465 50.117C182.524 50.117 183.298 49.727 183.649 49.0315C183.746 49.779 184.11 50.052 185.066 50.052C185.391 50.052 185.651 50.0325 185.937 49.961V48.544C185.813 48.5635 185.696 48.57 185.586 48.57ZM182.056 48.791C181.478 48.791 181.159 48.5505 181.159 48.076C181.159 47.595 181.588 47.3675 182.518 47.3675C182.849 47.3675 183.148 47.3935 183.46 47.452V48.1475C183.181 48.5505 182.661 48.791 182.056 48.791ZM190.611 48.4205C190.344 48.5115 190.104 48.557 189.805 48.557C189.148 48.557 188.934 48.1995 188.934 47.556V45.0665H190.747V43.5975H188.934V41.602L187.192 41.849V43.5975H186.106V45.0665H187.192V47.79C187.192 49.246 187.9 50.0845 189.473 50.0845C190 50.0845 190.448 50.013 190.884 49.87L190.611 48.4205ZM194.706 50.1235C196.773 50.1235 197.982 48.7455 197.982 46.7955C197.982 44.852 196.773 43.474 194.706 43.474C192.632 43.474 191.423 44.852 191.423 46.7955C191.423 48.7455 192.632 50.1235 194.706 50.1235ZM194.706 48.5765C193.757 48.5765 193.146 47.894 193.146 46.7955C193.146 45.7035 193.757 45.0275 194.706 45.0275C195.648 45.0275 196.253 45.7035 196.253 46.7955C196.253 47.894 195.648 48.5765 194.706 48.5765ZM200.602 44.93L200.583 43.5975H199.055V49.9935H200.784V47.114C200.784 45.6515 201.824 45.151 202.955 45.385V43.5065C201.772 43.2985 200.96 43.9095 200.602 44.93ZM209.543 48.4595V41.355C208.334 41.797 207.209 42.0245 205.844 42.0765V43.682C206.514 43.6625 207.073 43.578 207.645 43.4285V48.4595H205.844V50H211.343V48.4595H209.543Z" fill="black"/>
<g clip-path="url(#clip0)">
<g filter="url(#filter1_d)">
<path d="M204.628 194.286H191.371C185.88 194.286 181.428 198.738 181.428 204.229V217.486C181.428 222.977 185.88 227.429 191.371 227.429H204.628C210.12 227.429 214.571 222.977 214.571 217.486V204.229C214.571 198.738 210.12 194.286 204.628 194.286Z" fill="black"/>
</g>
<path d="M204.628 194.286H191.371C185.88 194.286 181.428 198.738 181.428 204.229V217.486C181.428 222.977 185.88 227.429 191.371 227.429H204.628C210.12 227.429 214.571 222.977 214.571 217.486V204.229C214.571 198.738 210.12 194.286 204.628 194.286Z" fill="#5375FF"/>
<path d="M205.116 203.741C204.828 203.454 204.421 203.338 204.027 203.43L204.021 203.432L191.007 206.617C189.758 206.923 188.885 208.034 188.885 209.321V211.038C188.885 211.664 189.381 212.176 190.001 212.202L194.896 213.035C195 213.053 195.105 213.019 195.179 212.945L200.948 207.176C201.15 206.974 201.478 206.974 201.68 207.176C201.882 207.378 201.882 207.707 201.68 207.909L195.912 213.677C195.837 213.752 195.804 213.857 195.821 213.961L196.654 218.856C196.681 219.476 197.193 219.971 197.818 219.971H199.536C200.822 219.971 201.934 219.099 202.24 217.85L205.425 204.836L205.426 204.83C205.517 204.435 205.401 204.029 205.116 203.741Z" fill="#FBFBFB"/>
</g>
<rect x="49" y="139" width="172" height="7" rx="2" fill="#B0AFAF"/>
<rect x="87" y="154" width="105" height="8" rx="2" fill="#B0AFAF"/>
<ellipse cx="74" cy="58" rx="25" ry="24" fill="#C4C4C4"/>
<rect x="110" y="58" width="73" height="3" rx="1.5" fill="#C4C4C4"/>
<g filter="url(#filter2_d)">
<rect x="50" y="195" width="113" height="31" rx="4" fill="#5375FF"/>
</g>
<path d="M78.0235 214.13C79.811 214.13 80.799 213.194 80.8055 211.79C80.812 210.158 79.486 209.775 78.069 209.365C76.7625 208.982 75.898 208.683 75.898 207.656C75.898 206.772 76.535 206.187 77.77 206.187C79.2325 206.187 79.863 207.025 79.954 208.273L80.734 208.104C80.695 206.291 79.551 205.42 77.8025 205.42C76.171 205.42 74.9945 206.226 74.9945 207.714C74.9945 209.255 76.223 209.749 77.6985 210.145C79.0505 210.522 79.915 210.789 79.915 211.829C79.915 212.901 79.1675 213.356 78.0365 213.356C76.3595 213.356 75.521 212.576 75.547 211.107L74.7215 211.237C74.6825 213.278 76.171 214.13 78.0235 214.13ZM85.6995 207.636C84.666 207.636 83.8925 208.15 83.5025 208.949V204.926H82.651V214H83.5025V210.73C83.5025 209.281 84.3865 208.429 85.5565 208.429C86.6225 208.429 87.136 209.027 87.136 210.353V214H87.9875V210.23C87.9875 208.527 87.2335 207.636 85.6995 207.636ZM92.531 214.13C94.4095 214.13 95.625 212.732 95.625 210.88C95.625 209.027 94.4095 207.636 92.531 207.636C90.6525 207.636 89.4305 209.027 89.4305 210.88C89.4305 212.732 90.6525 214.13 92.531 214.13ZM92.531 213.369C91.1725 213.369 90.295 212.31 90.295 210.88C90.295 209.45 91.1725 208.397 92.531 208.397C93.883 208.397 94.7605 209.45 94.7605 210.88C94.7605 212.31 93.883 213.369 92.531 213.369ZM104.487 207.766L103.499 211.4C103.323 212.05 103.174 212.674 103.011 213.343C102.842 212.648 102.673 212.017 102.491 211.393L101.412 207.773H100.444L99.3581 211.393C99.1761 212.017 99.0071 212.648 98.8381 213.343C98.6756 212.674 98.5261 212.05 98.3571 211.4L97.3691 207.766H96.4851L98.2726 214H99.3516L100.541 210.067C100.684 209.593 100.795 209.125 100.925 208.631C101.055 209.125 101.172 209.593 101.315 210.067L102.498 214H103.577L105.364 207.766H104.487ZM116.371 207.636C115.292 207.636 114.59 208.156 114.252 208.975C114.005 208.098 113.414 207.636 112.387 207.636C111.34 207.636 110.677 208.117 110.339 208.884L110.352 207.766H109.54V214H110.385V210.711C110.385 209.255 111.061 208.41 112.237 208.41C113.232 208.41 113.557 209.014 113.557 210.321V214H114.395V210.711C114.395 209.255 115.065 208.41 116.241 208.41C117.242 208.41 117.567 209.034 117.567 210.321V214H118.406V210.23C118.406 208.566 117.821 207.636 116.371 207.636ZM122.962 214.13C124.84 214.13 126.056 212.732 126.056 210.88C126.056 209.027 124.84 207.636 122.962 207.636C121.083 207.636 119.861 209.027 119.861 210.88C119.861 212.732 121.083 214.13 122.962 214.13ZM122.962 213.369C121.603 213.369 120.726 212.31 120.726 210.88C120.726 209.45 121.603 208.397 122.962 208.397C124.314 208.397 125.191 209.45 125.191 210.88C125.191 212.31 124.314 213.369 122.962 213.369ZM128.417 209.04L128.43 207.766H127.618V214H128.456V210.698C128.456 209.073 129.698 208.267 130.913 208.585L130.972 207.695C129.821 207.441 128.84 207.948 128.417 209.04ZM137.298 210.756C137.298 208.891 136.277 207.636 134.522 207.636C132.761 207.636 131.63 209.06 131.63 210.867C131.63 212.713 132.806 214.13 134.62 214.13C135.881 214.13 136.817 213.545 137.181 212.433L136.511 212.199C136.212 212.94 135.627 213.389 134.62 213.389C133.372 213.389 132.585 212.459 132.488 211.127H137.291C137.298 210.997 137.298 210.873 137.298 210.756ZM134.522 208.364C135.679 208.364 136.355 209.125 136.446 210.425H132.507C132.637 209.209 133.359 208.364 134.522 208.364Z" fill="white"/>
<rect x="44.2" y="108.2" width="51.6" height="13.6" rx="6.8" stroke="#5375FF" stroke-width="0.4"/>
<rect x="107.2" y="108.2" width="41.6" height="13.6" rx="6.8" stroke="#5375FF" stroke-width="0.4"/>
<rect x="169.2" y="108.2" width="22.6" height="13.6" rx="6.8" stroke="#5375FF" stroke-width="0.4"/>
<g filter="url(#filter3_d)">
<rect x="4" y="86" width="241" height="252" rx="38" fill="white"/>
<rect x="4.5" y="86.5" width="240" height="251" rx="37.5" stroke="#D1D1D1"/>
</g>
<path d="M114.544 136.124C116.76 136.124 118.145 134.979 118.333 132.86L116.5 132.613C116.286 134.115 115.525 134.537 114.505 134.537C113.042 134.537 112.347 133.452 112.347 131.775C112.347 130.098 113.042 129.012 114.505 129.012C115.525 129.012 116.292 129.48 116.5 130.936L118.333 130.689C118.171 128.57 116.76 127.426 114.544 127.426C111.898 127.426 110.39 129.194 110.39 131.775C110.39 134.355 111.898 136.124 114.544 136.124ZM122.368 136.124C124.435 136.124 125.644 134.745 125.644 132.795C125.644 130.852 124.435 129.474 122.368 129.474C120.294 129.474 119.085 130.852 119.085 132.795C119.085 134.745 120.294 136.124 122.368 136.124ZM122.368 134.576C121.419 134.576 120.808 133.894 120.808 132.795C120.808 131.703 121.419 131.027 122.368 131.027C123.31 131.027 123.915 131.703 123.915 132.795C123.915 133.894 123.31 134.576 122.368 134.576ZM130.351 129.474C129.279 129.474 128.596 129.994 128.278 130.865L128.265 129.597H126.718V136H128.46V132.919C128.46 131.697 129.025 131.105 129.857 131.105C130.585 131.105 130.904 131.515 130.904 132.392V136H132.646V131.905C132.646 130.455 131.97 129.474 130.351 129.474ZM138.014 134.42C137.747 134.511 137.507 134.557 137.208 134.557C136.551 134.557 136.337 134.199 136.337 133.556V131.066H138.15V129.597H136.337V127.602L134.595 127.849V129.597H133.509V131.066H134.595V133.79C134.595 135.246 135.303 136.085 136.876 136.085C137.403 136.085 137.851 136.013 138.287 135.87L138.014 134.42ZM144.995 132.704C144.995 130.735 143.851 129.474 141.973 129.474C140.049 129.474 138.827 130.897 138.827 132.802C138.827 134.745 140.003 136.124 142.025 136.124C143.507 136.124 144.586 135.421 144.878 134.043L143.409 133.816C143.247 134.401 142.798 134.693 142.018 134.693C141.199 134.693 140.692 134.206 140.556 133.276H144.963C144.989 133.055 144.995 132.88 144.995 132.704ZM141.973 130.884C142.701 130.884 143.208 131.313 143.279 132.178H140.569C140.718 131.333 141.225 130.884 141.973 130.884ZM149.711 129.474C148.639 129.474 147.956 129.994 147.638 130.865L147.625 129.597H146.078V136H147.82V132.919C147.82 131.697 148.385 131.105 149.217 131.105C149.945 131.105 150.264 131.515 150.264 132.392V136H152.006V131.905C152.006 130.455 151.33 129.474 149.711 129.474ZM157.374 134.42C157.108 134.511 156.867 134.557 156.568 134.557C155.912 134.557 155.697 134.199 155.697 133.556V131.066H157.511V129.597H155.697V127.602L153.955 127.849V129.597H152.87V131.066H153.955V133.79C153.955 135.246 154.664 136.085 156.237 136.085C156.763 136.085 157.212 136.013 157.647 135.87L157.374 134.42ZM163.823 136.124C165.416 136.124 166.592 135.408 166.891 133.627L165.234 133.458C165.084 134.225 164.603 134.628 163.843 134.628C162.868 134.628 162.335 133.894 162.335 132.795C162.335 131.703 162.868 130.969 163.843 130.969C164.603 130.969 165.084 131.372 165.234 132.132L166.891 131.97C166.592 130.189 165.416 129.474 163.823 129.474C161.795 129.474 160.586 130.865 160.586 132.795C160.586 134.732 161.795 136.124 163.823 136.124ZM169.499 130.93L169.479 129.597H167.952V135.993H169.681V133.114C169.681 131.651 170.721 131.151 171.852 131.385V129.506C170.669 129.298 169.856 129.909 169.499 130.93ZM178.473 132.704C178.473 130.735 177.329 129.474 175.45 129.474C173.526 129.474 172.304 130.897 172.304 132.802C172.304 134.745 173.481 136.124 175.502 136.124C176.984 136.124 178.063 135.421 178.356 134.043L176.887 133.816C176.724 134.401 176.276 134.693 175.496 134.693C174.677 134.693 174.17 134.206 174.033 133.276H178.44C178.466 133.055 178.473 132.88 178.473 132.704ZM175.45 130.884C176.178 130.884 176.685 131.313 176.757 132.178H174.046C174.196 131.333 174.703 130.884 175.45 130.884ZM185.586 134.57C185.248 134.57 185.163 134.407 185.163 134.089V132.145C185.163 130.923 184.812 129.474 182.316 129.474C180.711 129.474 179.599 130.241 179.495 131.69L181.166 131.885C181.244 131.209 181.614 130.891 182.323 130.891C183.2 130.891 183.46 131.411 183.46 132.126V132.379C183.09 132.321 182.7 132.288 182.277 132.288C180.516 132.288 179.281 132.789 179.281 134.141C179.281 135.285 180.067 136.117 181.465 136.117C182.524 136.117 183.298 135.727 183.649 135.031C183.746 135.779 184.11 136.052 185.066 136.052C185.391 136.052 185.651 136.033 185.937 135.961V134.544C185.813 134.563 185.696 134.57 185.586 134.57ZM182.056 134.791C181.478 134.791 181.159 134.55 181.159 134.076C181.159 133.595 181.588 133.367 182.518 133.367C182.849 133.367 183.148 133.393 183.46 133.452V134.147C183.181 134.55 182.661 134.791 182.056 134.791ZM190.611 134.42C190.344 134.511 190.104 134.557 189.805 134.557C189.148 134.557 188.934 134.199 188.934 133.556V131.066H190.747V129.597H188.934V127.602L187.192 127.849V129.597H186.106V131.066H187.192V133.79C187.192 135.246 187.9 136.085 189.473 136.085C190 136.085 190.448 136.013 190.884 135.87L190.611 134.42ZM194.706 136.124C196.773 136.124 197.982 134.745 197.982 132.795C197.982 130.852 196.773 129.474 194.706 129.474C192.632 129.474 191.423 130.852 191.423 132.795C191.423 134.745 192.632 136.124 194.706 136.124ZM194.706 134.576C193.757 134.576 193.146 133.894 193.146 132.795C193.146 131.703 193.757 131.027 194.706 131.027C195.648 131.027 196.253 131.703 196.253 132.795C196.253 133.894 195.648 134.576 194.706 134.576ZM200.602 130.93L200.583 129.597H199.055V135.993H200.784V133.114C200.784 131.651 201.824 131.151 202.955 131.385V129.506C201.772 129.298 200.96 129.909 200.602 130.93ZM208.282 134.459L209.874 133.445C211.317 132.561 212.201 131.515 212.201 129.961C212.201 128.538 211.317 127.426 209.25 127.426C207.086 127.426 205.877 128.629 206.137 130.696L207.911 131.021C207.814 129.812 208.08 129.077 209.133 129.077C209.887 129.077 210.219 129.435 210.219 130.059C210.219 131.053 209.374 131.827 208.548 132.47L206.046 134.427L206.143 136H212.422V134.459H208.282Z" fill="black"/>
<g clip-path="url(#clip1)">
<g filter="url(#filter4_d)">
<path d="M204.628 280.286H191.371C185.88 280.286 181.428 284.738 181.428 290.229V303.486C181.428 308.977 185.88 313.429 191.371 313.429H204.628C210.12 313.429 214.571 308.977 214.571 303.486V290.229C214.571 284.738 210.12 280.286 204.628 280.286Z" fill="black"/>
</g>
<path d="M204.628 280.286H191.371C185.88 280.286 181.428 284.738 181.428 290.229V303.486C181.428 308.977 185.88 313.429 191.371 313.429H204.628C210.12 313.429 214.571 308.977 214.571 303.486V290.229C214.571 284.738 210.12 280.286 204.628 280.286Z" fill="#5375FF"/>
<path d="M205.116 289.741C204.828 289.454 204.421 289.338 204.027 289.43L204.021 289.432L191.007 292.617C189.758 292.923 188.885 294.034 188.885 295.321V297.038C188.885 297.664 189.381 298.176 190.001 298.202L194.896 299.035C195 299.053 195.105 299.019 195.179 298.945L200.948 293.176C201.15 292.974 201.478 292.974 201.68 293.176C201.882 293.378 201.882 293.707 201.68 293.909L195.912 299.677C195.837 299.752 195.804 299.857 195.821 299.961L196.654 304.856C196.681 305.476 197.193 305.971 197.818 305.971H199.536C200.822 305.971 201.934 305.099 202.24 303.85L205.425 290.836L205.426 290.83C205.517 290.435 205.401 290.029 205.116 289.741Z" fill="#FBFBFB"/>
</g>
<rect x="49" y="225" width="172" height="7" rx="2" fill="#B0AFAF"/>
<rect x="87" y="240" width="105" height="8" rx="2" fill="#B0AFAF"/>
<ellipse cx="74" cy="144" rx="25" ry="24" fill="#C4C4C4"/>
<rect x="110" y="144" width="73" height="3" rx="1.5" fill="#C4C4C4"/>
<g filter="url(#filter5_d)">
<rect x="50" y="281" width="113" height="31" rx="4" fill="#5375FF"/>
</g>
<path d="M78.0235 300.13C79.811 300.13 80.799 299.194 80.8055 297.79C80.812 296.158 79.486 295.775 78.069 295.365C76.7625 294.982 75.898 294.683 75.898 293.656C75.898 292.772 76.535 292.187 77.77 292.187C79.2325 292.187 79.863 293.025 79.954 294.273L80.734 294.104C80.695 292.291 79.551 291.42 77.8025 291.42C76.171 291.42 74.9945 292.226 74.9945 293.714C74.9945 295.255 76.223 295.749 77.6985 296.145C79.0505 296.522 79.915 296.789 79.915 297.829C79.915 298.901 79.1675 299.356 78.0365 299.356C76.3595 299.356 75.521 298.576 75.547 297.107L74.7215 297.237C74.6825 299.278 76.171 300.13 78.0235 300.13ZM85.6995 293.636C84.666 293.636 83.8925 294.15 83.5025 294.949V290.926H82.651V300H83.5025V296.73C83.5025 295.281 84.3865 294.429 85.5565 294.429C86.6225 294.429 87.136 295.027 87.136 296.353V300H87.9875V296.23C87.9875 294.527 87.2335 293.636 85.6995 293.636ZM92.531 300.13C94.4095 300.13 95.625 298.732 95.625 296.88C95.625 295.027 94.4095 293.636 92.531 293.636C90.6525 293.636 89.4305 295.027 89.4305 296.88C89.4305 298.732 90.6525 300.13 92.531 300.13ZM92.531 299.369C91.1725 299.369 90.295 298.31 90.295 296.88C90.295 295.45 91.1725 294.397 92.531 294.397C93.883 294.397 94.7605 295.45 94.7605 296.88C94.7605 298.31 93.883 299.369 92.531 299.369ZM104.487 293.766L103.499 297.4C103.323 298.05 103.174 298.674 103.011 299.343C102.842 298.648 102.673 298.017 102.491 297.393L101.412 293.773H100.444L99.3581 297.393C99.1761 298.017 99.0071 298.648 98.8381 299.343C98.6756 298.674 98.5261 298.05 98.3571 297.4L97.3691 293.766H96.4851L98.2726 300H99.3516L100.541 296.067C100.684 295.593 100.795 295.125 100.925 294.631C101.055 295.125 101.172 295.593 101.315 296.067L102.498 300H103.577L105.364 293.766H104.487ZM116.371 293.636C115.292 293.636 114.59 294.156 114.252 294.975C114.005 294.098 113.414 293.636 112.387 293.636C111.34 293.636 110.677 294.117 110.339 294.884L110.352 293.766H109.54V300H110.385V296.711C110.385 295.255 111.061 294.41 112.237 294.41C113.232 294.41 113.557 295.014 113.557 296.321V300H114.395V296.711C114.395 295.255 115.065 294.41 116.241 294.41C117.242 294.41 117.567 295.034 117.567 296.321V300H118.406V296.23C118.406 294.566 117.821 293.636 116.371 293.636ZM122.962 300.13C124.84 300.13 126.056 298.732 126.056 296.88C126.056 295.027 124.84 293.636 122.962 293.636C121.083 293.636 119.861 295.027 119.861 296.88C119.861 298.732 121.083 300.13 122.962 300.13ZM122.962 299.369C121.603 299.369 120.726 298.31 120.726 296.88C120.726 295.45 121.603 294.397 122.962 294.397C124.314 294.397 125.191 295.45 125.191 296.88C125.191 298.31 124.314 299.369 122.962 299.369ZM128.417 295.04L128.43 293.766H127.618V300H128.456V296.698C128.456 295.073 129.698 294.267 130.913 294.585L130.972 293.695C129.821 293.441 128.84 293.948 128.417 295.04ZM137.298 296.756C137.298 294.891 136.277 293.636 134.522 293.636C132.761 293.636 131.63 295.06 131.63 296.867C131.63 298.713 132.806 300.13 134.62 300.13C135.881 300.13 136.817 299.545 137.181 298.433L136.511 298.199C136.212 298.94 135.627 299.389 134.62 299.389C133.372 299.389 132.585 298.459 132.488 297.127H137.291C137.298 296.997 137.298 296.873 137.298 296.756ZM134.522 294.364C135.679 294.364 136.355 295.125 136.446 296.425H132.507C132.637 295.209 133.359 294.364 134.522 294.364Z" fill="white"/>
<rect x="44.2" y="194.2" width="51.6" height="13.6" rx="6.8" stroke="#5375FF" stroke-width="0.4"/>
<rect x="107.2" y="194.2" width="41.6" height="13.6" rx="6.8" stroke="#5375FF" stroke-width="0.4"/>
<rect x="169.2" y="194.2" width="22.6" height="13.6" rx="6.8" stroke="#5375FF" stroke-width="0.4"/>
<g filter="url(#filter6_d)">
<rect x="4" y="178" width="241" height="252" rx="38" fill="white"/>
<rect x="4.5" y="178.5" width="240" height="251" rx="37.5" stroke="#D1D1D1"/>
</g>
<path d="M114.544 228.124C116.76 228.124 118.145 226.979 118.333 224.86L116.5 224.613C116.286 226.115 115.525 226.537 114.505 226.537C113.042 226.537 112.347 225.452 112.347 223.775C112.347 222.098 113.042 221.012 114.505 221.012C115.525 221.012 116.292 221.48 116.5 222.936L118.333 222.689C118.171 220.57 116.76 219.426 114.544 219.426C111.898 219.426 110.39 221.194 110.39 223.775C110.39 226.355 111.898 228.124 114.544 228.124ZM122.368 228.124C124.435 228.124 125.644 226.745 125.644 224.795C125.644 222.852 124.435 221.474 122.368 221.474C120.294 221.474 119.085 222.852 119.085 224.795C119.085 226.745 120.294 228.124 122.368 228.124ZM122.368 226.576C121.419 226.576 120.808 225.894 120.808 224.795C120.808 223.703 121.419 223.027 122.368 223.027C123.31 223.027 123.915 223.703 123.915 224.795C123.915 225.894 123.31 226.576 122.368 226.576ZM130.351 221.474C129.279 221.474 128.596 221.994 128.278 222.865L128.265 221.597H126.718V228H128.46V224.919C128.46 223.697 129.025 223.105 129.857 223.105C130.585 223.105 130.904 223.515 130.904 224.392V228H132.646V223.905C132.646 222.455 131.97 221.474 130.351 221.474ZM138.014 226.42C137.747 226.511 137.507 226.557 137.208 226.557C136.551 226.557 136.337 226.199 136.337 225.556V223.066H138.15V221.597H136.337V219.602L134.595 219.849V221.597H133.509V223.066H134.595V225.79C134.595 227.246 135.303 228.085 136.876 228.085C137.403 228.085 137.851 228.013 138.287 227.87L138.014 226.42ZM144.995 224.704C144.995 222.735 143.851 221.474 141.973 221.474C140.049 221.474 138.827 222.897 138.827 224.802C138.827 226.745 140.003 228.124 142.025 228.124C143.507 228.124 144.586 227.421 144.878 226.043L143.409 225.816C143.247 226.401 142.798 226.693 142.018 226.693C141.199 226.693 140.692 226.206 140.556 225.276H144.963C144.989 225.055 144.995 224.88 144.995 224.704ZM141.973 222.884C142.701 222.884 143.208 223.313 143.279 224.178H140.569C140.718 223.333 141.225 222.884 141.973 222.884ZM149.711 221.474C148.639 221.474 147.956 221.994 147.638 222.865L147.625 221.597H146.078V228H147.82V224.919C147.82 223.697 148.385 223.105 149.217 223.105C149.945 223.105 150.264 223.515 150.264 224.392V228H152.006V223.905C152.006 222.455 151.33 221.474 149.711 221.474ZM157.374 226.42C157.108 226.511 156.867 226.557 156.568 226.557C155.912 226.557 155.697 226.199 155.697 225.556V223.066H157.511V221.597H155.697V219.602L153.955 219.849V221.597H152.87V223.066H153.955V225.79C153.955 227.246 154.664 228.085 156.237 228.085C156.763 228.085 157.212 228.013 157.647 227.87L157.374 226.42ZM163.823 228.124C165.416 228.124 166.592 227.408 166.891 225.627L165.234 225.458C165.084 226.225 164.603 226.628 163.843 226.628C162.868 226.628 162.335 225.894 162.335 224.795C162.335 223.703 162.868 222.969 163.843 222.969C164.603 222.969 165.084 223.372 165.234 224.132L166.891 223.97C166.592 222.189 165.416 221.474 163.823 221.474C161.795 221.474 160.586 222.865 160.586 224.795C160.586 226.732 161.795 228.124 163.823 228.124ZM169.499 222.93L169.479 221.597H167.952V227.993H169.681V225.114C169.681 223.651 170.721 223.151 171.852 223.385V221.506C170.669 221.298 169.856 221.909 169.499 222.93ZM178.473 224.704C178.473 222.735 177.329 221.474 175.45 221.474C173.526 221.474 172.304 222.897 172.304 224.802C172.304 226.745 173.481 228.124 175.502 228.124C176.984 228.124 178.063 227.421 178.356 226.043L176.887 225.816C176.724 226.401 176.276 226.693 175.496 226.693C174.677 226.693 174.17 226.206 174.033 225.276H178.44C178.466 225.055 178.473 224.88 178.473 224.704ZM175.45 222.884C176.178 222.884 176.685 223.313 176.757 224.178H174.046C174.196 223.333 174.703 222.884 175.45 222.884ZM185.586 226.57C185.248 226.57 185.163 226.407 185.163 226.089V224.145C185.163 222.923 184.812 221.474 182.316 221.474C180.711 221.474 179.599 222.241 179.495 223.69L181.166 223.885C181.244 223.209 181.614 222.891 182.323 222.891C183.2 222.891 183.46 223.411 183.46 224.126V224.379C183.09 224.321 182.7 224.288 182.277 224.288C180.516 224.288 179.281 224.789 179.281 226.141C179.281 227.285 180.067 228.117 181.465 228.117C182.524 228.117 183.298 227.727 183.649 227.031C183.746 227.779 184.11 228.052 185.066 228.052C185.391 228.052 185.651 228.033 185.937 227.961V226.544C185.813 226.563 185.696 226.57 185.586 226.57ZM182.056 226.791C181.478 226.791 181.159 226.55 181.159 226.076C181.159 225.595 181.588 225.367 182.518 225.367C182.849 225.367 183.148 225.393 183.46 225.452V226.147C183.181 226.55 182.661 226.791 182.056 226.791ZM190.611 226.42C190.344 226.511 190.104 226.557 189.805 226.557C189.148 226.557 188.934 226.199 188.934 225.556V223.066H190.747V221.597H188.934V219.602L187.192 219.849V221.597H186.106V223.066H187.192V225.79C187.192 227.246 187.9 228.085 189.473 228.085C190 228.085 190.448 228.013 190.884 227.87L190.611 226.42ZM194.706 228.124C196.773 228.124 197.982 226.745 197.982 224.795C197.982 222.852 196.773 221.474 194.706 221.474C192.632 221.474 191.423 222.852 191.423 224.795C191.423 226.745 192.632 228.124 194.706 228.124ZM194.706 226.576C193.757 226.576 193.146 225.894 193.146 224.795C193.146 223.703 193.757 223.027 194.706 223.027C195.648 223.027 196.253 223.703 196.253 224.795C196.253 225.894 195.648 226.576 194.706 226.576ZM200.602 222.93L200.583 221.597H199.055V227.993H200.784V225.114C200.784 223.651 201.824 223.151 202.955 223.385V221.506C201.772 221.298 200.96 221.909 200.602 222.93ZM210.141 222.91L212.013 221.123V219.55H206.176V221.123H210.004L207.84 223.183L208.295 224.262C208.568 224.158 208.841 224.119 209.107 224.119C209.887 224.119 210.401 224.542 210.401 225.27C210.401 226.115 209.822 226.537 209.062 226.537C208.321 226.537 207.69 226.063 207.573 224.958L205.773 225.257C205.961 227.181 207.144 228.124 209.01 228.124C211.051 228.124 212.318 226.973 212.318 225.276C212.318 224.054 211.545 223.099 210.141 222.91Z" fill="black"/>
<g clip-path="url(#clip2)">
<g filter="url(#filter7_d)">
<path d="M204.628 372.286H191.371C185.88 372.286 181.428 376.738 181.428 382.229V395.486C181.428 400.977 185.88 405.429 191.371 405.429H204.628C210.12 405.429 214.571 400.977 214.571 395.486V382.229C214.571 376.738 210.12 372.286 204.628 372.286Z" fill="black"/>
</g>
<path d="M204.628 372.286H191.371C185.88 372.286 181.428 376.738 181.428 382.229V395.486C181.428 400.977 185.88 405.429 191.371 405.429H204.628C210.12 405.429 214.571 400.977 214.571 395.486V382.229C214.571 376.738 210.12 372.286 204.628 372.286Z" fill="#5375FF"/>
<path d="M205.116 381.741C204.828 381.454 204.421 381.338 204.027 381.43L204.021 381.432L191.007 384.617C189.758 384.923 188.885 386.034 188.885 387.321V389.038C188.885 389.664 189.381 390.176 190.001 390.202L194.896 391.035C195 391.053 195.105 391.019 195.179 390.945L200.948 385.176C201.15 384.974 201.478 384.974 201.68 385.176C201.882 385.378 201.882 385.707 201.68 385.909L195.912 391.677C195.837 391.752 195.804 391.857 195.821 391.961L196.654 396.856C196.681 397.476 197.193 397.971 197.818 397.971H199.536C200.822 397.971 201.934 397.099 202.24 395.85L205.425 382.836L205.426 382.83C205.517 382.435 205.401 382.029 205.116 381.741Z" fill="#FBFBFB"/>
</g>
<rect x="49" y="317" width="172" height="7" rx="2" fill="#B0AFAF"/>
<rect x="87" y="332" width="105" height="8" rx="2" fill="#B0AFAF"/>
<ellipse cx="74" cy="236" rx="25" ry="24" fill="#C4C4C4"/>
<rect x="110" y="236" width="73" height="3" rx="1.5" fill="#C4C4C4"/>
<g filter="url(#filter8_d)">
<rect x="50" y="373" width="113" height="31" rx="4" fill="#5375FF"/>
</g>
<path d="M78.0235 392.13C79.811 392.13 80.799 391.194 80.8055 389.79C80.812 388.158 79.486 387.775 78.069 387.365C76.7625 386.982 75.898 386.683 75.898 385.656C75.898 384.772 76.535 384.187 77.77 384.187C79.2325 384.187 79.863 385.025 79.954 386.273L80.734 386.104C80.695 384.291 79.551 383.42 77.8025 383.42C76.171 383.42 74.9945 384.226 74.9945 385.714C74.9945 387.255 76.223 387.749 77.6985 388.145C79.0505 388.522 79.915 388.789 79.915 389.829C79.915 390.901 79.1675 391.356 78.0365 391.356C76.3595 391.356 75.521 390.576 75.547 389.107L74.7215 389.237C74.6825 391.278 76.171 392.13 78.0235 392.13ZM85.6995 385.636C84.666 385.636 83.8925 386.15 83.5025 386.949V382.926H82.651V392H83.5025V388.73C83.5025 387.281 84.3865 386.429 85.5565 386.429C86.6225 386.429 87.136 387.027 87.136 388.353V392H87.9875V388.23C87.9875 386.527 87.2335 385.636 85.6995 385.636ZM92.531 392.13C94.4095 392.13 95.625 390.732 95.625 388.88C95.625 387.027 94.4095 385.636 92.531 385.636C90.6525 385.636 89.4305 387.027 89.4305 388.88C89.4305 390.732 90.6525 392.13 92.531 392.13ZM92.531 391.369C91.1725 391.369 90.295 390.31 90.295 388.88C90.295 387.45 91.1725 386.397 92.531 386.397C93.883 386.397 94.7605 387.45 94.7605 388.88C94.7605 390.31 93.883 391.369 92.531 391.369ZM104.487 385.766L103.499 389.4C103.323 390.05 103.174 390.674 103.011 391.343C102.842 390.648 102.673 390.017 102.491 389.393L101.412 385.773H100.444L99.3581 389.393C99.1761 390.017 99.0071 390.648 98.8381 391.343C98.6756 390.674 98.5261 390.05 98.3571 389.4L97.3691 385.766H96.4851L98.2726 392H99.3516L100.541 388.067C100.684 387.593 100.795 387.125 100.925 386.631C101.055 387.125 101.172 387.593 101.315 388.067L102.498 392H103.577L105.364 385.766H104.487ZM116.371 385.636C115.292 385.636 114.59 386.156 114.252 386.975C114.005 386.098 113.414 385.636 112.387 385.636C111.34 385.636 110.677 386.117 110.339 386.884L110.352 385.766H109.54V392H110.385V388.711C110.385 387.255 111.061 386.41 112.237 386.41C113.232 386.41 113.557 387.014 113.557 388.321V392H114.395V388.711C114.395 387.255 115.065 386.41 116.241 386.41C117.242 386.41 117.567 387.034 117.567 388.321V392H118.406V388.23C118.406 386.566 117.821 385.636 116.371 385.636ZM122.962 392.13C124.84 392.13 126.056 390.732 126.056 388.88C126.056 387.027 124.84 385.636 122.962 385.636C121.083 385.636 119.861 387.027 119.861 388.88C119.861 390.732 121.083 392.13 122.962 392.13ZM122.962 391.369C121.603 391.369 120.726 390.31 120.726 388.88C120.726 387.45 121.603 386.397 122.962 386.397C124.314 386.397 125.191 387.45 125.191 388.88C125.191 390.31 124.314 391.369 122.962 391.369ZM128.417 387.04L128.43 385.766H127.618V392H128.456V388.698C128.456 387.073 129.698 386.267 130.913 386.585L130.972 385.695C129.821 385.441 128.84 385.948 128.417 387.04ZM137.298 388.756C137.298 386.891 136.277 385.636 134.522 385.636C132.761 385.636 131.63 387.06 131.63 388.867C131.63 390.713 132.806 392.13 134.62 392.13C135.881 392.13 136.817 391.545 137.181 390.433L136.511 390.199C136.212 390.94 135.627 391.389 134.62 391.389C133.372 391.389 132.585 390.459 132.488 389.127H137.291C137.298 388.997 137.298 388.873 137.298 388.756ZM134.522 386.364C135.679 386.364 136.355 387.125 136.446 388.425H132.507C132.637 387.209 133.359 386.364 134.522 386.364Z" fill="white"/>
<rect x="44.2" y="286.2" width="51.6" height="13.6" rx="6.8" stroke="#5375FF" stroke-width="0.4"/>
<rect x="107.2" y="286.2" width="41.6" height="13.6" rx="6.8" stroke="#5375FF" stroke-width="0.4"/>
<rect x="169.2" y="286.2" width="22.6" height="13.6" rx="6.8" stroke="#5375FF" stroke-width="0.4"/>
<defs>
<filter id="filter0_d" x="0" y="0" width="249" height="260" filterUnits="userSpaceOnUse" color-interpolation-filters="sRGB">
<feFlood flood-opacity="0" result="BackgroundImageFix"/>
<feColorMatrix in="SourceAlpha" type="matrix" values="0 0 0 0 0 0 0 0 0 0 0 0 0 0 0 0 0 0 127 0"/>
<feOffset dy="4"/>
<feGaussianBlur stdDeviation="2"/>
<feColorMatrix type="matrix" values="0 0 0 0 0 0 0 0 0 0 0 0 0 0 0 0 0 0 0.25 0"/>
<feBlend mode="normal" in2="BackgroundImageFix" result="effect1_dropShadow"/>
<feBlend mode="normal" in="SourceGraphic" in2="effect1_dropShadow" result="shape"/>
</filter>
<filter id="filter1_d" x="166.428" y="184.286" width="63.1429" height="63.1429" filterUnits="userSpaceOnUse" color-interpolation-filters="sRGB">
<feFlood flood-opacity="0" result="BackgroundImageFix"/>
<feColorMatrix in="SourceAlpha" type="matrix" values="0 0 0 0 0 0 0 0 0 0 0 0 0 0 0 0 0 0 127 0"/>
<feOffset dy="5"/>
<feGaussianBlur stdDeviation="7.5"/>
<feColorMatrix type="matrix" values="0 0 0 0 0.0470588 0 0 0 0 0.0666667 0 0 0 0 0.109804 0 0 0 0.151825 0"/>
<feBlend mode="normal" in2="BackgroundImageFix" result="effect1_dropShadow"/>
<feBlend mode="normal" in="SourceGraphic" in2="effect1_dropShadow" result="shape"/>
</filter>
<filter id="filter2_d" x="46" y="193" width="121" height="39" filterUnits="userSpaceOnUse" color-interpolation-filters="sRGB">
<feFlood flood-opacity="0" result="BackgroundImageFix"/>
<feColorMatrix in="SourceAlpha" type="matrix" values="0 0 0 0 0 0 0 0 0 0 0 0 0 0 0 0 0 0 127 0"/>
<feOffset dy="2"/>
<feGaussianBlur stdDeviation="2"/>
<feColorMatrix type="matrix" values="0 0 0 0 0 0 0 0 0 0 0 0 0 0 0 0 0 0 0.25 0"/>
<feBlend mode="normal" in2="BackgroundImageFix" result="effect1_dropShadow"/>
<feBlend mode="normal" in="SourceGraphic" in2="effect1_dropShadow" result="shape"/>
</filter>
<filter id="filter3_d" x="0" y="86" width="249" height="260" filterUnits="userSpaceOnUse" color-interpolation-filters="sRGB">
<feFlood flood-opacity="0" result="BackgroundImageFix"/>
<feColorMatrix in="SourceAlpha" type="matrix" values="0 0 0 0 0 0 0 0 0 0 0 0 0 0 0 0 0 0 127 0"/>
<feOffset dy="4"/>
<feGaussianBlur stdDeviation="2"/>
<feColorMatrix type="matrix" values="0 0 0 0 0 0 0 0 0 0 0 0 0 0 0 0 0 0 0.25 0"/>
<feBlend mode="normal" in2="BackgroundImageFix" result="effect1_dropShadow"/>
<feBlend mode="normal" in="SourceGraphic" in2="effect1_dropShadow" result="shape"/>
</filter>
<filter id="filter4_d" x="166.428" y="270.286" width="63.1429" height="63.1429" filterUnits="userSpaceOnUse" color-interpolation-filters="sRGB">
<feFlood flood-opacity="0" result="BackgroundImageFix"/>
<feColorMatrix in="SourceAlpha" type="matrix" values="0 0 0 0 0 0 0 0 0 0 0 0 0 0 0 0 0 0 127 0"/>
<feOffset dy="5"/>
<feGaussianBlur stdDeviation="7.5"/>
<feColorMatrix type="matrix" values="0 0 0 0 0.0470588 0 0 0 0 0.0666667 0 0 0 0 0.109804 0 0 0 0.151825 0"/>
<feBlend mode="normal" in2="BackgroundImageFix" result="effect1_dropShadow"/>
<feBlend mode="normal" in="SourceGraphic" in2="effect1_dropShadow" result="shape"/>
</filter>
<filter id="filter5_d" x="46" y="279" width="121" height="39" filterUnits="userSpaceOnUse" color-interpolation-filters="sRGB">
<feFlood flood-opacity="0" result="BackgroundImageFix"/>
<feColorMatrix in="SourceAlpha" type="matrix" values="0 0 0 0 0 0 0 0 0 0 0 0 0 0 0 0 0 0 127 0"/>
<feOffset dy="2"/>
<feGaussianBlur stdDeviation="2"/>
<feColorMatrix type="matrix" values="0 0 0 0 0 0 0 0 0 0 0 0 0 0 0 0 0 0 0.25 0"/>
<feBlend mode="normal" in2="BackgroundImageFix" result="effect1_dropShadow"/>
<feBlend mode="normal" in="SourceGraphic" in2="effect1_dropShadow" result="shape"/>
</filter>
<filter id="filter6_d" x="0" y="178" width="249" height="260" filterUnits="userSpaceOnUse" color-interpolation-filters="sRGB">
<feFlood flood-opacity="0" result="BackgroundImageFix"/>
<feColorMatrix in="SourceAlpha" type="matrix" values="0 0 0 0 0 0 0 0 0 0 0 0 0 0 0 0 0 0 127 0"/>
<feOffset dy="4"/>
<feGaussianBlur stdDeviation="2"/>
<feColorMatrix type="matrix" values="0 0 0 0 0 0 0 0 0 0 0 0 0 0 0 0 0 0 0.25 0"/>
<feBlend mode="normal" in2="BackgroundImageFix" result="effect1_dropShadow"/>
<feBlend mode="normal" in="SourceGraphic" in2="effect1_dropShadow" result="shape"/>
</filter>
<filter id="filter7_d" x="166.428" y="362.286" width="63.1429" height="63.1429" filterUnits="userSpaceOnUse" color-interpolation-filters="sRGB">
<feFlood flood-opacity="0" result="BackgroundImageFix"/>
<feColorMatrix in="SourceAlpha" type="matrix" values="0 0 0 0 0 0 0 0 0 0 0 0 0 0 0 0 0 0 127 0"/>
<feOffset dy="5"/>
<feGaussianBlur stdDeviation="7.5"/>
<feColorMatrix type="matrix" values="0 0 0 0 0.0470588 0 0 0 0 0.0666667 0 0 0 0 0.109804 0 0 0 0.151825 0"/>
<feBlend mode="normal" in2="BackgroundImageFix" result="effect1_dropShadow"/>
<feBlend mode="normal" in="SourceGraphic" in2="effect1_dropShadow" result="shape"/>
</filter>
<filter id="filter8_d" x="46" y="371" width="121" height="39" filterUnits="userSpaceOnUse" color-interpolation-filters="sRGB">
<feFlood flood-opacity="0" result="BackgroundImageFix"/>
<feColorMatrix in="SourceAlpha" type="matrix" values="0 0 0 0 0 0 0 0 0 0 0 0 0 0 0 0 0 0 127 0"/>
<feOffset dy="2"/>
<feGaussianBlur stdDeviation="2"/>
<feColorMatrix type="matrix" values="0 0 0 0 0 0 0 0 0 0 0 0 0 0 0 0 0 0 0.25 0"/>
<feBlend mode="normal" in2="BackgroundImageFix" result="effect1_dropShadow"/>
<feBlend mode="normal" in="SourceGraphic" in2="effect1_dropShadow" result="shape"/>
</filter>
<clipPath id="clip0">
<rect width="58" height="58" fill="white" transform="translate(169 186)"/>
</clipPath>
<clipPath id="clip1">
<rect width="58" height="58" fill="white" transform="translate(169 272)"/>
</clipPath>
<clipPath id="clip2">
<rect width="58" height="58" fill="white" transform="translate(169 364)"/>
</clipPath>
</defs>
</svg>
