<svg width="420" height="317" viewBox="0 0 420 317" fill="none" xmlns="http://www.w3.org/2000/svg">
<rect x="1.5" y="1.5" width="417" height="59" rx="29.5" fill="#5375FF" stroke="#5375FF" stroke-width="3"/>
<path d="M119.258 44H122.354V34.856H127.484C132.254 34.856 135.188 32.156 135.188 27.674C135.188 22.958 132.416 20.6 127.628 20.6H119.258V44ZM122.354 32.354V23.12H127.412C130.454 23.12 131.984 24.596 131.984 27.602C131.984 30.662 130.418 32.354 127.322 32.354H122.354ZM153.529 34.982C153.529 29.762 150.631 26.27 145.699 26.27C140.713 26.27 137.527 30.212 137.527 35.288C137.527 40.472 140.767 44.36 145.969 44.36C149.587 44.36 152.251 42.686 153.205 39.428L150.847 38.762C150.091 40.706 148.579 41.858 145.951 41.858C142.783 41.858 140.803 39.626 140.479 36.224H153.493C153.529 35.792 153.529 35.378 153.529 34.982ZM145.681 28.718C148.615 28.718 150.361 30.608 150.613 33.902H140.497C140.893 30.788 142.765 28.718 145.681 28.718ZM160.355 30.14L160.373 26.63H157.619V44H160.463V35.198C160.463 30.752 163.865 28.7 167.195 29.492L167.267 26.414C164.117 25.73 161.507 27.188 160.355 30.14ZM176.984 44.36C181.16 44.36 183.464 42.362 183.464 39.266C183.464 35.882 180.926 35.036 177.02 34.172C174.248 33.542 172.754 33.038 172.754 31.22C172.754 29.69 173.852 28.61 176.3 28.61C178.784 28.61 180.53 29.816 180.692 32.498L183.266 32.156C183.176 28.592 180.854 26.27 176.282 26.27C172.448 26.27 169.928 28.196 169.91 31.4C169.91 34.496 172.088 35.702 176.426 36.62C178.982 37.16 180.566 37.556 180.566 39.482C180.566 41.21 179.288 42.02 176.912 42.02C174.176 42.02 172.196 40.994 171.998 38.096L169.316 38.456C169.604 42.56 172.646 44.36 176.984 44.36ZM199.768 26.63V35.54C199.768 39.428 197.536 41.606 194.512 41.606C191.884 41.606 190.57 40.076 190.57 36.692V26.63H187.654V37.268C187.654 41.822 189.688 44.342 193.882 44.342C196.834 44.342 198.922 42.866 199.912 40.508L199.984 44H202.684V26.63H199.768ZM223.258 41.714C222.088 41.714 221.818 40.994 221.818 39.986V33.38C221.818 30.914 221.332 26.27 214.744 26.27C210.91 26.27 208.408 28.034 207.58 31.436L210.262 32.102C210.874 29.852 212.152 28.736 214.762 28.736C217.984 28.736 218.974 30.698 218.974 33.362V34.424C217.714 34.262 216.418 34.172 215.248 34.172C210.604 34.172 207.094 35.45 207.094 39.212C207.094 42.398 209.488 44.342 213.07 44.342C215.878 44.342 218.074 43.136 219.208 41.3C219.406 43.19 220.27 44.162 222.574 44.162C223.132 44.162 223.636 44.108 224.212 43.982V41.642C223.87 41.696 223.564 41.714 223.258 41.714ZM213.574 41.894C211.648 41.894 210.262 41.102 210.262 39.14C210.262 37.16 212.08 36.404 215.41 36.404C216.544 36.404 217.714 36.476 218.974 36.62V39.14C217.876 40.868 215.842 41.894 213.574 41.894ZM234.359 44.36C238.535 44.36 240.839 42.362 240.839 39.266C240.839 35.882 238.301 35.036 234.395 34.172C231.623 33.542 230.129 33.038 230.129 31.22C230.129 29.69 231.227 28.61 233.675 28.61C236.159 28.61 237.905 29.816 238.067 32.498L240.641 32.156C240.551 28.592 238.229 26.27 233.657 26.27C229.823 26.27 227.303 28.196 227.285 31.4C227.285 34.496 229.463 35.702 233.801 36.62C236.357 37.16 237.941 37.556 237.941 39.482C237.941 41.21 236.663 42.02 234.287 42.02C231.551 42.02 229.571 40.994 229.373 38.096L226.691 38.456C226.979 42.56 230.021 44.36 234.359 44.36ZM246.757 23.3C247.963 23.3 248.935 22.364 248.935 21.212C248.935 20.06 247.963 19.16 246.757 19.16C245.641 19.16 244.669 20.06 244.669 21.212C244.669 22.364 245.641 23.3 246.757 23.3ZM245.335 44H248.269V26.63H245.335V44ZM265.128 26.63L261.546 37.484C261.042 38.942 260.61 40.346 260.142 41.822C259.674 40.382 259.206 38.924 258.72 37.484L255.138 26.63H251.88L258.036 44H262.23L268.386 26.63H265.128ZM286.139 34.982C286.139 29.762 283.241 26.27 278.309 26.27C273.323 26.27 270.137 30.212 270.137 35.288C270.137 40.472 273.377 44.36 278.579 44.36C282.197 44.36 284.861 42.686 285.815 39.428L283.457 38.762C282.701 40.706 281.189 41.858 278.561 41.858C275.393 41.858 273.413 39.626 273.089 36.224H286.103C286.139 35.792 286.139 35.378 286.139 34.982ZM278.291 28.718C281.225 28.718 282.971 30.608 283.223 33.902H273.107C273.503 30.788 275.375 28.718 278.291 28.718Z" fill="white"/>
<path d="M372.598 30.004H367.396V24.478H364.696V30.004H359.494V32.632H364.696V38.14H367.396V32.632H372.598V30.004ZM383.984 40.354V19.096C381.212 20.032 378.422 20.572 375.488 20.77V23.488C377.378 23.344 379.124 23.056 380.888 22.57V40.354H375.488V43H389.384V40.354H383.984Z" fill="white"/>
<rect x="1.5" y="93.5" width="417" height="59" rx="29.5" stroke="#5375FF" stroke-width="3"/>
<path d="M136.888 136.36C142.576 136.36 146.158 133.66 147.256 128.08L144.322 127.594C143.35 132.112 140.758 133.75 136.888 133.75C131.794 133.75 128.824 129.988 128.824 124.318C128.824 118.594 131.794 114.85 136.888 114.85C140.722 114.85 143.368 116.542 144.322 120.988L147.256 120.502C146.248 114.922 142.54 112.24 136.888 112.24C129.94 112.24 125.62 117.118 125.62 124.318C125.62 131.482 129.94 136.36 136.888 136.36ZM160.499 118.27C157.745 118.27 155.711 119.548 154.631 121.618V110.872H151.697V136H154.631V127.072C154.631 123.184 156.863 121.006 159.887 121.006C162.623 121.006 163.919 122.536 163.919 125.92V136H166.853V125.344C166.853 120.79 164.801 118.27 160.499 118.27ZM187.172 133.714C186.002 133.714 185.732 132.994 185.732 131.986V125.38C185.732 122.914 185.246 118.27 178.658 118.27C174.824 118.27 172.322 120.034 171.494 123.436L174.176 124.102C174.788 121.852 176.066 120.736 178.676 120.736C181.898 120.736 182.888 122.698 182.888 125.362V126.424C181.628 126.262 180.332 126.172 179.162 126.172C174.518 126.172 171.008 127.45 171.008 131.212C171.008 134.398 173.402 136.342 176.984 136.342C179.792 136.342 181.988 135.136 183.122 133.3C183.32 135.19 184.184 136.162 186.488 136.162C187.046 136.162 187.55 136.108 188.126 135.982V133.642C187.784 133.696 187.478 133.714 187.172 133.714ZM177.488 133.894C175.562 133.894 174.176 133.102 174.176 131.14C174.176 129.16 175.994 128.404 179.324 128.404C180.458 128.404 181.628 128.476 182.888 128.62V131.14C181.79 132.868 179.756 133.894 177.488 133.894ZM194.511 122.14L194.529 118.63H191.775V136H194.619V127.198C194.619 122.752 198.021 120.7 201.351 121.492L201.423 118.414C198.273 117.73 195.663 119.188 194.511 122.14ZM206.136 115.3C207.342 115.3 208.314 114.364 208.314 113.212C208.314 112.06 207.342 111.16 206.136 111.16C205.02 111.16 204.048 112.06 204.048 113.212C204.048 114.364 205.02 115.3 206.136 115.3ZM204.714 136H207.648V118.63H204.714V136ZM219.683 136.36C223.859 136.36 226.163 134.362 226.163 131.266C226.163 127.882 223.625 127.036 219.719 126.172C216.947 125.542 215.453 125.038 215.453 123.22C215.453 121.69 216.551 120.61 218.999 120.61C221.483 120.61 223.229 121.816 223.391 124.498L225.965 124.156C225.875 120.592 223.553 118.27 218.981 118.27C215.147 118.27 212.627 120.196 212.609 123.4C212.609 126.496 214.787 127.702 219.125 128.62C221.681 129.16 223.265 129.556 223.265 131.482C223.265 133.21 221.987 134.02 219.611 134.02C216.875 134.02 214.895 132.994 214.697 130.096L212.015 130.456C212.303 134.56 215.345 136.36 219.683 136.36ZM249.74 118.27C246.86 118.27 244.988 119.602 244.034 121.78C243.314 119.476 241.64 118.27 238.832 118.27C236.06 118.27 234.278 119.494 233.306 121.492L233.324 118.63H230.588V136H233.468V126.964C233.468 123.094 235.196 120.898 238.202 120.898C240.74 120.898 241.622 122.446 241.622 125.758V136H244.484V126.964C244.484 123.094 246.194 120.898 249.2 120.898C251.738 120.898 252.62 122.5 252.62 125.758V136H255.482V125.326C255.482 120.862 253.772 118.27 249.74 118.27ZM275.8 133.714C274.63 133.714 274.36 132.994 274.36 131.986V125.38C274.36 122.914 273.874 118.27 267.286 118.27C263.452 118.27 260.95 120.034 260.122 123.436L262.804 124.102C263.416 121.852 264.694 120.736 267.304 120.736C270.526 120.736 271.516 122.698 271.516 125.362V126.424C270.256 126.262 268.96 126.172 267.79 126.172C263.146 126.172 259.636 127.45 259.636 131.212C259.636 134.398 262.03 136.342 265.612 136.342C268.42 136.342 270.616 135.136 271.75 133.3C271.948 135.19 272.812 136.162 275.116 136.162C275.674 136.162 276.178 136.108 276.754 135.982V133.642C276.412 133.696 276.106 133.714 275.8 133.714ZM266.116 133.894C264.19 133.894 262.804 133.102 262.804 131.14C262.804 129.16 264.622 128.404 267.952 128.404C269.086 128.404 270.256 128.476 271.516 128.62V131.14C270.418 132.868 268.384 133.894 266.116 133.894Z" fill="#5375FF"/>
<rect x="1.5" y="180.5" width="417" height="59" rx="29.5" stroke="#5375FF" stroke-width="3"/>
<rect x="153.5" y="256.5" width="113" height="59" rx="29.5" stroke="#5375FF" stroke-width="3"/>
<path d="M82.258 220H85.354V210.856H90.484C95.254 210.856 98.188 208.156 98.188 203.674C98.188 198.958 95.416 196.6 90.628 196.6H82.258V220ZM85.354 208.354V199.12H90.412C93.454 199.12 94.984 200.596 94.984 203.602C94.984 206.662 93.418 208.354 90.322 208.354H85.354ZM109.239 220.36C114.567 220.36 117.933 216.508 117.933 211.306C117.933 206.122 114.567 202.27 109.239 202.27C103.893 202.27 100.527 206.122 100.527 211.306C100.527 216.508 103.893 220.36 109.239 220.36ZM109.239 217.75C105.729 217.75 103.461 215.05 103.461 211.306C103.461 207.562 105.729 204.88 109.239 204.88C112.713 204.88 114.999 207.562 114.999 211.306C114.999 215.05 112.713 217.75 109.239 217.75ZM128.418 220.36C132.594 220.36 134.898 218.362 134.898 215.266C134.898 211.882 132.36 211.036 128.454 210.172C125.682 209.542 124.188 209.038 124.188 207.22C124.188 205.69 125.286 204.61 127.734 204.61C130.218 204.61 131.964 205.816 132.126 208.498L134.7 208.156C134.61 204.592 132.288 202.27 127.716 202.27C123.882 202.27 121.362 204.196 121.344 207.4C121.344 210.496 123.522 211.702 127.86 212.62C130.416 213.16 132 213.556 132 215.482C132 217.21 130.722 218.02 128.346 218.02C125.61 218.02 123.63 216.994 123.432 214.096L120.75 214.456C121.038 218.56 124.08 220.36 128.418 220.36ZM140.816 199.3C142.022 199.3 142.994 198.364 142.994 197.212C142.994 196.06 142.022 195.16 140.816 195.16C139.7 195.16 138.728 196.06 138.728 197.212C138.728 198.364 139.7 199.3 140.816 199.3ZM139.394 220H142.328V202.63H139.394V220ZM157.729 217.012C156.991 217.444 156.271 217.642 155.317 217.642C153.247 217.642 152.365 216.508 152.365 214.114V205.078H158.107V202.63H152.365V197.032L149.449 197.464V202.63H145.867V205.078H149.449V214.474C149.449 218.416 151.465 220.252 154.903 220.252C156.307 220.252 157.441 219.946 158.503 219.37L157.729 217.012ZM163.562 199.3C164.768 199.3 165.74 198.364 165.74 197.212C165.74 196.06 164.768 195.16 163.562 195.16C162.446 195.16 161.474 196.06 161.474 197.212C161.474 198.364 162.446 199.3 163.562 199.3ZM162.14 220H165.074V202.63H162.14V220ZM181.933 202.63L178.351 213.484C177.847 214.942 177.415 216.346 176.947 217.822C176.479 216.382 176.011 214.924 175.525 213.484L171.943 202.63H168.685L174.841 220H179.035L185.191 202.63H181.933ZM202.943 210.982C202.943 205.762 200.045 202.27 195.113 202.27C190.127 202.27 186.941 206.212 186.941 211.288C186.941 216.472 190.181 220.36 195.383 220.36C199.001 220.36 201.665 218.686 202.619 215.428L200.261 214.762C199.505 216.706 197.993 217.858 195.365 217.858C192.197 217.858 190.217 215.626 189.893 212.224H202.907C202.943 211.792 202.943 211.378 202.943 210.982ZM195.095 204.718C198.029 204.718 199.775 206.608 200.027 209.902H189.911C190.307 206.788 192.179 204.718 195.095 204.718ZM224.315 217.012C223.577 217.444 222.857 217.642 221.903 217.642C219.833 217.642 218.951 216.508 218.951 214.114V205.078H224.693V202.63H218.951V197.032L216.035 197.464V202.63H212.453V205.078H216.035V214.474C216.035 218.416 218.051 220.252 221.489 220.252C222.893 220.252 224.027 219.946 225.089 219.37L224.315 217.012ZM237.456 202.27C234.702 202.27 232.668 203.548 231.588 205.618V194.872H228.654V220H231.588V211.072C231.588 207.184 233.82 205.006 236.844 205.006C239.58 205.006 240.876 206.536 240.876 209.92V220H243.81V209.344C243.81 204.79 241.758 202.27 237.456 202.27ZM250.539 199.3C251.745 199.3 252.717 198.364 252.717 197.212C252.717 196.06 251.745 195.16 250.539 195.16C249.423 195.16 248.451 196.06 248.451 197.212C248.451 198.364 249.423 199.3 250.539 199.3ZM249.117 220H252.051V202.63H249.117V220ZM266.426 202.27C263.492 202.27 261.404 203.728 260.396 206.032L260.414 202.63H257.588V220H260.522V211.072C260.522 207.184 262.754 205.006 265.778 205.006C268.514 205.006 269.81 206.536 269.81 209.92V220H272.744V209.344C272.744 204.79 270.692 202.27 266.426 202.27ZM289.642 220H293.098L285.466 209.974L292.306 202.63H288.67L280.822 211.234V194.872H277.978V220H280.822V214.51L283.432 211.738L289.642 220ZM310.064 210.982C310.064 205.762 307.166 202.27 302.234 202.27C297.248 202.27 294.062 206.212 294.062 211.288C294.062 216.472 297.302 220.36 302.504 220.36C306.122 220.36 308.786 218.686 309.74 215.428L307.382 214.762C306.626 216.706 305.114 217.858 302.486 217.858C299.318 217.858 297.338 215.626 297.014 212.224H310.028C310.064 211.792 310.064 211.378 310.064 210.982ZM302.216 204.718C305.15 204.718 306.896 206.608 307.148 209.902H297.032C297.428 206.788 299.3 204.718 302.216 204.718ZM316.89 206.14L316.908 202.63H314.154V220H316.998V211.198C316.998 206.752 320.4 204.7 323.73 205.492L323.802 202.414C320.652 201.73 318.042 203.188 316.89 206.14Z" fill="#5375FF"/>
<path d="M203.598 286.004H198.396V280.478H195.696V286.004H190.494V288.632H195.696V294.14H198.396V288.632H203.598V286.004ZM211.492 296.354L217.594 291.494C220.906 288.848 223.228 286.13 223.228 282.062C223.228 277.94 220.726 275.24 215.56 275.24C210.178 275.24 207.19 278.246 207.694 283.61L210.664 284.186C210.304 279.686 211.906 277.886 215.56 277.886C218.62 277.886 219.97 279.344 219.97 282.08C219.97 285.014 218.44 287.21 215.65 289.55L207.55 296.372L207.658 299H223.876V296.354H211.492Z" fill="#5375FF"/>
</svg>
