<svg width="463" height="257" viewBox="0 0 463 257" fill="none" xmlns="http://www.w3.org/2000/svg">
<path d="M1.01117 232.314H23.3344" stroke="black"/>
<rect x="38.0322" y="123.914" width="47.9536" height="132.286" rx="5" fill="#5375FF"/>
<rect x="100.868" y="94.1523" width="47.9536" height="162.05" rx="5" fill="#5375FF"/>
<rect x="163.704" y="190.059" width="47.9536" height="66.1429" rx="5" fill="#5375FF"/>
<rect x="226.539" y="140.451" width="47.9536" height="115.75" rx="5" fill="#5375FF"/>
<rect x="289.375" y="109.035" width="47.9536" height="147.168" rx="5" fill="#5375FF"/>
<rect x="352.211" y="231.396" width="47.9536" height="24.8036" rx="5" fill="#5375FF"/>
<rect x="415.046" y="71" width="47.9536" height="185.2" rx="5" fill="#5375FF"/>
<path d="M0 249.588H22.3232" stroke="black"/>
<path d="M0 216.516H22.3232" stroke="black"/>
<path d="M0 199.98H22.3232" stroke="black"/>
<path d="M0 183.443H22.3232" stroke="black"/>
<path d="M0 161.949H22.3232" stroke="black"/>
<path d="M0 145.412H22.3232" stroke="black"/>
<path d="M0 128.877H22.3232" stroke="black"/>
<path d="M0 113.994H22.3232" stroke="black"/>
<path d="M0 99.1094H22.3232" stroke="black"/>
<path d="M38.43 12.6L34.398 26.46C34.11 27.558 33.822 28.638 33.552 29.736C33.264 28.62 32.976 27.522 32.688 26.46L28.656 12.6H20.538V36H25.362V22.122C25.362 20.682 25.344 19.278 25.344 17.766C25.74 19.44 26.19 21.006 26.694 22.554L31.05 36H36.036L40.41 22.554C40.896 21.042 41.346 19.476 41.742 17.802C41.742 19.314 41.724 20.7 41.724 22.122V36H46.548V12.6H38.43ZM67.1321 26.874C67.1321 21.42 63.9641 17.928 58.7621 17.928C53.4341 17.928 50.0501 21.87 50.0501 27.144C50.0501 32.526 53.3081 36.342 58.9061 36.342C63.0101 36.342 65.9981 34.398 66.8081 30.582L62.7401 29.952C62.2901 31.572 61.0481 32.382 58.8881 32.382C56.6201 32.382 55.2161 31.032 54.8381 28.458H67.0421C67.1141 27.846 67.1321 27.36 67.1321 26.874ZM58.7621 21.834C60.7781 21.834 62.1821 23.022 62.3801 25.416H54.8741C55.2881 23.076 56.6921 21.834 58.7621 21.834ZM82.5621 10.872V20.628C81.5181 18.864 79.8081 17.928 77.2701 17.928C72.5181 17.928 69.3861 21.564 69.3861 27.108C69.3861 32.688 72.5181 36.342 77.2701 36.342C80.2041 36.342 82.0581 34.992 83.0301 32.616L83.2461 36H87.3861V10.872H82.5621ZM78.3321 32.076C75.7221 32.076 74.2281 30.132 74.2281 27.108C74.2281 24.12 75.7221 22.248 78.3321 22.248C80.9421 22.248 82.7061 24.174 82.7061 27.108C82.7061 30.078 80.9601 32.076 78.3321 32.076ZM93.8123 16.452C95.4323 16.452 96.8003 15.174 96.8003 13.572C96.8003 11.988 95.4323 10.71 93.8123 10.71C92.2283 10.71 90.8603 11.988 90.8603 13.572C90.8603 15.174 92.2283 16.452 93.8123 16.452ZM91.4183 36H96.2423V18.27H91.4183V36ZM116.748 32.04C115.812 32.04 115.578 31.59 115.578 30.708V25.326C115.578 21.942 114.606 17.928 107.694 17.928C103.248 17.928 100.17 20.052 99.8817 24.066L104.508 24.606C104.724 22.734 105.75 21.852 107.712 21.852C110.142 21.852 110.862 23.292 110.862 25.272V25.974C109.836 25.812 108.756 25.722 107.586 25.722C102.708 25.722 99.2877 27.108 99.2877 30.852C99.2877 34.02 101.466 36.324 105.336 36.324C108.27 36.324 110.412 35.244 111.384 33.318C111.654 35.388 112.662 36.144 115.308 36.144C116.208 36.144 116.928 36.09 117.72 35.892V31.968C117.378 32.022 117.054 32.04 116.748 32.04ZM106.974 32.652C105.372 32.652 104.49 31.986 104.49 30.672C104.49 29.34 105.678 28.71 108.252 28.71C109.17 28.71 109.998 28.782 110.862 28.944V30.87C110.088 31.986 108.648 32.652 106.974 32.652ZM138.123 18.27L135.099 29.646C134.829 30.672 134.577 31.626 134.343 32.616C134.109 31.644 133.857 30.672 133.587 29.646L130.545 18.27H125.199L130.905 36H137.781L143.469 18.27H138.123ZM161.783 32.04C160.847 32.04 160.613 31.59 160.613 30.708V25.326C160.613 21.942 159.641 17.928 152.729 17.928C148.283 17.928 145.205 20.052 144.917 24.066L149.543 24.606C149.759 22.734 150.785 21.852 152.747 21.852C155.177 21.852 155.897 23.292 155.897 25.272V25.974C154.871 25.812 153.791 25.722 152.621 25.722C147.743 25.722 144.323 27.108 144.323 30.852C144.323 34.02 146.501 36.324 150.371 36.324C153.305 36.324 155.447 35.244 156.419 33.318C156.689 35.388 157.697 36.144 160.343 36.144C161.243 36.144 161.963 36.09 162.755 35.892V31.968C162.413 32.022 162.089 32.04 161.783 32.04ZM152.009 32.652C150.407 32.652 149.525 31.986 149.525 30.672C149.525 29.34 150.713 28.71 153.287 28.71C154.205 28.71 155.033 28.782 155.897 28.944V30.87C155.123 31.986 153.683 32.652 152.009 32.652ZM165.264 36H170.088V10.872H165.264V36ZM185.554 18.27V26.964C185.554 30.366 183.988 31.986 181.684 31.986C179.686 31.986 178.786 30.852 178.786 28.422V18.27H173.962V29.61C173.962 33.606 175.834 36.324 180.316 36.324C183.268 36.324 185.158 34.92 186.04 32.544L186.31 36H190.378V18.27H185.554ZM210.464 26.874C210.464 21.42 207.296 17.928 202.094 17.928C196.766 17.928 193.382 21.87 193.382 27.144C193.382 32.526 196.64 36.342 202.238 36.342C206.342 36.342 209.33 34.398 210.14 30.582L206.072 29.952C205.622 31.572 204.38 32.382 202.22 32.382C199.952 32.382 198.548 31.032 198.17 28.458H210.374C210.446 27.846 210.464 27.36 210.464 26.874ZM202.094 21.834C204.11 21.834 205.514 23.022 205.712 25.416H198.206C198.62 23.076 200.024 21.834 202.094 21.834Z" fill="#464646"/>
</svg>
