<svg width="376" height="264" viewBox="0 0 376 264" fill="none" xmlns="http://www.w3.org/2000/svg">
<path d="M32.44 58H36.628V52.96H38.728C42.448 52.96 44.368 51.1 44.368 47.524C44.368 44.224 42.448 42.388 38.728 42.388H32.44V58ZM36.628 49.912V45.736H38.344C39.604 45.736 40.288 46.36 40.288 47.74C40.288 49.132 39.76 49.912 38.344 49.912H36.628ZM49.1264 48.616L49.0784 46.072H45.8144V57.976H49.6304V52.888C49.6304 50.344 51.3584 49.648 53.3624 50.032V45.892C51.1184 45.544 49.7264 46.756 49.1264 48.616ZM60.2914 58.216C64.2274 58.216 66.4594 55.696 66.4594 52.024C66.4594 48.376 64.2274 45.856 60.2914 45.856C56.3554 45.856 54.1234 48.376 54.1234 52.024C54.1234 55.696 56.3554 58.216 60.2914 58.216ZM60.2914 54.832C58.8274 54.832 57.8914 53.836 57.8914 52.024C57.8914 50.236 58.8274 49.24 60.2914 49.24C61.7554 49.24 62.6914 50.236 62.6914 52.024C62.6914 53.836 61.7554 54.832 60.2914 54.832ZM74.3303 44.14C74.7983 44.14 75.3503 44.26 75.9023 44.476L76.7663 41.632C75.7583 41.176 74.8463 41.008 73.7183 41.008C70.5863 41.008 69.1103 42.472 69.1103 45.724V46.072H67.3103V49.312H69.1103V58H72.9263V49.312H75.9023V46.072H72.9263V45.592C72.9263 44.488 73.3223 44.14 74.3303 44.14ZM88.1365 51.88C88.1365 48.184 85.9405 45.856 82.3885 45.856C78.7285 45.856 76.4125 48.472 76.4125 52.06C76.4125 55.708 78.5965 58.216 82.4245 58.216C85.3285 58.216 87.4285 56.836 87.9205 54.124L84.6805 53.716C84.4645 54.7 83.7205 55.132 82.4245 55.132C81.1765 55.132 80.4205 54.46 80.1805 52.996H88.0645C88.1245 52.564 88.1365 52.216 88.1365 51.88ZM82.3885 48.904C83.4685 48.904 84.2965 49.492 84.3805 50.824H80.2045C80.4805 49.504 81.2605 48.904 82.3885 48.904ZM95.0506 58.216C98.0986 58.216 100.115 56.752 100.127 54.436C100.139 52.276 98.7466 51.376 95.3146 50.62C93.5146 50.224 93.2986 49.876 93.2986 49.432C93.2986 49.012 93.6466 48.7 94.6066 48.7C95.6986 48.7 96.2986 49.18 96.4666 50.416L99.9706 50.128C99.7666 47.536 98.3026 45.856 94.6066 45.856C91.8706 45.856 89.6866 47.152 89.6746 49.66C89.6626 51.976 91.1986 52.9 94.5346 53.584C96.0466 53.884 96.4306 54.088 96.4306 54.604C96.4306 55.084 96.0706 55.372 95.0386 55.372C93.8626 55.372 93.1066 54.928 92.9026 53.656L89.2666 53.956C89.4706 56.956 92.0386 58.216 95.0506 58.216ZM107.051 58.216C110.099 58.216 112.115 56.752 112.127 54.436C112.139 52.276 110.747 51.376 107.315 50.62C105.515 50.224 105.299 49.876 105.299 49.432C105.299 49.012 105.647 48.7 106.607 48.7C107.699 48.7 108.299 49.18 108.467 50.416L111.971 50.128C111.767 47.536 110.303 45.856 106.607 45.856C103.871 45.856 101.687 47.152 101.675 49.66C101.663 51.976 103.199 52.9 106.535 53.584C108.047 53.884 108.431 54.088 108.431 54.604C108.431 55.084 108.071 55.372 107.039 55.372C105.863 55.372 105.107 54.928 104.903 53.656L101.267 53.956C101.471 56.956 104.039 58.216 107.051 58.216ZM115.715 45.328C116.915 45.328 117.947 44.368 117.947 43.168C117.947 41.968 116.915 41.008 115.715 41.008C114.515 41.008 113.483 41.968 113.483 43.168C113.483 44.368 114.515 45.328 115.715 45.328ZM113.807 58H117.623V46.072H113.807V58ZM125.471 58.216C129.407 58.216 131.639 55.696 131.639 52.024C131.639 48.376 129.407 45.856 125.471 45.856C121.535 45.856 119.303 48.376 119.303 52.024C119.303 55.696 121.535 58.216 125.471 58.216ZM125.471 54.832C124.007 54.832 123.071 53.836 123.071 52.024C123.071 50.236 124.007 49.24 125.471 49.24C126.935 49.24 127.871 50.236 127.871 52.024C127.871 53.836 126.935 54.832 125.471 54.832ZM140.434 45.856C138.37 45.856 137.17 46.864 136.666 48.568L136.618 46.072H133.33V58H137.146V52.444C137.146 50.332 137.986 49.42 139.294 49.42C140.398 49.42 140.866 50.044 140.866 51.364V58H144.682V50.224C144.682 47.728 143.482 45.856 140.434 45.856ZM158.207 54.82C157.643 54.82 157.523 54.556 157.523 54.064V50.872C157.523 47.944 156.479 45.856 152.027 45.856C148.871 45.856 146.639 47.368 146.603 50.248L150.311 50.56C150.347 49.432 150.935 48.928 152.027 48.928C153.407 48.928 153.779 49.732 153.779 50.824V51.208C153.167 51.1 152.543 51.04 151.739 51.04C148.427 51.04 146.183 51.988 146.183 54.46C146.183 56.56 147.563 58.216 150.215 58.216C152.255 58.216 153.635 57.532 154.223 56.2C154.415 57.64 155.135 58.096 156.995 58.096C157.715 58.096 158.267 58.048 158.867 57.904V54.772C158.639 54.808 158.423 54.82 158.207 54.82ZM151.715 55.384C150.719 55.384 150.299 54.952 150.299 54.304C150.299 53.584 150.935 53.224 152.363 53.224C152.903 53.224 153.347 53.284 153.779 53.38V54.532C153.383 55.072 152.663 55.384 151.715 55.384ZM160.119 58H163.935V41.248H160.119V58ZM168.004 45.328C169.204 45.328 170.236 44.368 170.236 43.168C170.236 41.968 169.204 41.008 168.004 41.008C166.804 41.008 165.772 41.968 165.772 43.168C165.772 44.368 166.804 45.328 168.004 45.328ZM166.096 58H169.912V46.072H166.096V58ZM179.74 54.652C179.248 54.76 178.816 54.82 178.3 54.82C177.196 54.82 176.872 54.208 176.872 53.212V49.312H179.992V46.072H176.872V42.4L173.056 42.94V46.072H171.232V49.312H173.056V53.74C173.056 56.452 174.352 58.156 177.544 58.156C178.528 58.156 179.392 58.048 180.232 57.844L179.74 54.652ZM188.945 46.072L187.337 53.2C187.181 53.92 187.037 54.604 186.893 55.252C186.749 54.568 186.593 53.848 186.437 53.176L184.829 46.072H180.521L184.181 58H185.981L185.957 58.06C185.513 59.452 184.181 59.836 181.289 58.984L180.593 62.188C184.397 63.256 188.201 62.632 189.617 58L193.253 46.072H188.945Z" fill="#555555"/>
<path d="M294.985 9.31105C292.274 6.2613 288.511 4.58105 284.392 4.58105C278.595 4.58105 274.927 8.01031 272.87 10.8868C272.336 11.6321 271.879 12.3801 271.5 13.0868C271.118 12.3801 270.664 11.6321 270.13 10.8868C268.073 8.01031 264.405 4.5838 258.608 4.5838C254.488 4.5838 250.727 6.2613 248.012 9.31105C245.43 12.2178 244 16.1146 244 20.2781C244 24.8101 245.788 29.0258 249.624 33.5441C253.05 37.5838 257.984 41.7473 263.696 46.5681C265.824 48.3638 268.024 50.2201 270.367 52.2523L270.439 52.3128C270.741 52.5768 271.121 52.7088 271.5 52.7088C271.879 52.7088 272.256 52.5768 272.561 52.3128L272.633 52.2523C274.976 50.2201 277.176 48.3638 279.305 46.5681C285.016 41.7473 289.947 37.5838 293.376 33.5441C297.213 29.0258 299 24.8101 299 20.2781C299 16.1146 297.576 12.2206 294.985 9.31105ZM277.217 44.1371C275.383 45.6853 273.494 47.2803 271.503 48.9936C269.512 47.2803 267.625 45.6853 265.788 44.1371C254.609 34.7046 247.226 28.4703 247.226 20.2781C247.226 16.8901 248.364 13.7468 250.432 11.4231C252.525 9.06905 255.429 7.7738 258.611 7.7738C263.03 7.7738 265.887 10.4688 267.504 12.7321C268.956 14.7616 269.713 16.8048 269.971 17.5886C270.186 18.2486 270.804 18.6913 271.503 18.6913C272.201 18.6913 272.82 18.2458 273.034 17.5913C273.293 16.8048 274.052 14.7588 275.501 12.7321C277.118 10.4716 279.975 7.7738 284.392 7.7738C287.576 7.7738 290.48 9.06905 292.573 11.4203C294.641 13.7468 295.78 16.8928 295.78 20.2753C295.78 28.4703 288.396 34.7046 277.217 44.1371Z" fill="#5375FF"/>
<path d="M229.248 30.984H222.168V23.64H219.24V30.984H212.16V33.84H219.24V41.184H222.168V33.84H229.248V30.984Z" fill="#5375FF"/>
<path d="M176.292 149.216C180.528 149.216 183.18 146.912 183.3 142.94L179.22 142.4C178.956 145.064 177.72 145.712 176.16 145.712C173.856 145.712 172.86 143.96 172.86 141.2C172.86 138.44 173.856 136.688 176.16 136.688C177.72 136.688 178.968 137.456 179.22 140L183.3 139.46C183.18 135.488 180.528 133.184 176.292 133.184C171.312 133.184 168.54 136.448 168.54 141.2C168.54 145.952 171.312 149.216 176.292 149.216ZM188.236 139.616L188.188 137.072H184.924V148.976H188.74V143.888C188.74 141.344 190.468 140.648 192.472 141.032V136.892C190.228 136.544 188.836 137.756 188.236 139.616ZM204.957 142.88C204.957 139.184 202.761 136.856 199.209 136.856C195.549 136.856 193.233 139.472 193.233 143.06C193.233 146.708 195.417 149.216 199.245 149.216C202.149 149.216 204.249 147.836 204.741 145.124L201.501 144.716C201.285 145.7 200.541 146.132 199.245 146.132C197.997 146.132 197.241 145.46 197.001 143.996H204.885C204.945 143.564 204.957 143.216 204.957 142.88ZM199.209 139.904C200.289 139.904 201.117 140.492 201.201 141.824H197.025C197.301 140.504 198.081 139.904 199.209 139.904ZM218.168 145.82C217.604 145.82 217.484 145.556 217.484 145.064V141.872C217.484 138.944 216.44 136.856 211.988 136.856C208.832 136.856 206.6 138.368 206.564 141.248L210.272 141.56C210.308 140.432 210.896 139.928 211.988 139.928C213.368 139.928 213.74 140.732 213.74 141.824V142.208C213.128 142.1 212.504 142.04 211.7 142.04C208.388 142.04 206.144 142.988 206.144 145.46C206.144 147.56 207.524 149.216 210.176 149.216C212.216 149.216 213.596 148.532 214.184 147.2C214.376 148.64 215.096 149.096 216.956 149.096C217.676 149.096 218.228 149.048 218.828 148.904V145.772C218.6 145.808 218.384 145.82 218.168 145.82ZM211.676 146.384C210.68 146.384 210.26 145.952 210.26 145.304C210.26 144.584 210.896 144.224 212.324 144.224C212.864 144.224 213.308 144.284 213.74 144.38V145.532C213.344 146.072 212.624 146.384 211.676 146.384ZM227.326 145.652C226.834 145.76 226.402 145.82 225.886 145.82C224.782 145.82 224.458 145.208 224.458 144.212V140.312H227.578V137.072H224.458V133.4L220.642 133.94V137.072H218.818V140.312H220.642V144.74C220.642 147.452 221.938 149.156 225.13 149.156C226.114 149.156 226.978 149.048 227.818 148.844L227.326 145.652ZM231.035 136.328C232.235 136.328 233.267 135.368 233.267 134.168C233.267 132.968 232.235 132.008 231.035 132.008C229.835 132.008 228.803 132.968 228.803 134.168C228.803 135.368 229.835 136.328 231.035 136.328ZM229.127 149H232.943V137.072H229.127V149ZM242.591 137.072L240.755 144.812C240.635 145.316 240.539 145.784 240.455 146.252C240.359 145.784 240.263 145.316 240.143 144.812L238.307 137.072H234.083L237.731 149H243.167L246.815 137.072H242.591ZM249.855 136.328C251.055 136.328 252.087 135.368 252.087 134.168C252.087 132.968 251.055 132.008 249.855 132.008C248.655 132.008 247.623 132.968 247.623 134.168C247.623 135.368 248.655 136.328 249.855 136.328ZM247.947 149H251.763V137.072H247.947V149ZM261.592 145.652C261.1 145.76 260.668 145.82 260.152 145.82C259.048 145.82 258.724 145.208 258.724 144.212V140.312H261.844V137.072H258.724V133.4L254.908 133.94V137.072H253.084V140.312H254.908V144.74C254.908 147.452 256.204 149.156 259.396 149.156C260.38 149.156 261.244 149.048 262.084 148.844L261.592 145.652ZM270.797 137.072L269.189 144.2C269.033 144.92 268.889 145.604 268.745 146.252C268.601 145.568 268.445 144.848 268.289 144.176L266.681 137.072H262.373L266.033 149H267.833L267.809 149.06C267.365 150.452 266.033 150.836 263.141 149.984L262.445 153.188C266.249 154.256 270.053 153.632 271.469 149L275.105 137.072H270.797Z" fill="#555555"/>
<path d="M371.985 105.311C369.274 102.261 365.511 100.581 361.392 100.581C355.595 100.581 351.927 104.01 349.87 106.887C349.336 107.632 348.879 108.38 348.5 109.087C348.118 108.38 347.664 107.632 347.13 106.887C345.073 104.01 341.405 100.584 335.608 100.584C331.488 100.584 327.727 102.261 325.012 105.311C322.43 108.218 321 112.115 321 116.278C321 120.81 322.788 125.026 326.624 129.544C330.05 133.584 334.984 137.747 340.696 142.568C342.824 144.364 345.024 146.22 347.367 148.252L347.439 148.313C347.741 148.577 348.121 148.709 348.5 148.709C348.879 148.709 349.256 148.577 349.561 148.313L349.633 148.252C351.976 146.22 354.176 144.364 356.305 142.568C362.016 137.747 366.947 133.584 370.376 129.544C374.213 125.026 376 120.81 376 116.278C376 112.115 374.576 108.221 371.985 105.311ZM354.217 140.137C352.383 141.685 350.494 143.28 348.503 144.994C346.512 143.28 344.625 141.685 342.788 140.137C331.609 130.705 324.226 124.47 324.226 116.278C324.226 112.89 325.364 109.747 327.432 107.423C329.525 105.069 332.429 103.774 335.611 103.774C340.03 103.774 342.887 106.469 344.504 108.732C345.956 110.762 346.713 112.805 346.971 113.589C347.186 114.249 347.804 114.691 348.503 114.691C349.201 114.691 349.82 114.246 350.034 113.591C350.293 112.805 351.052 110.759 352.501 108.732C354.118 106.472 356.975 103.774 361.392 103.774C364.576 103.774 367.48 105.069 369.573 107.42C371.641 109.747 372.78 112.893 372.78 116.275C372.78 124.47 365.396 130.705 354.217 140.137Z" fill="#5375FF"/>
<path d="M306.248 126.984H299.168V119.64H296.24V126.984H289.16V129.84H296.24V137.184H299.168V129.84H306.248V126.984Z" fill="#5375FF"/>
<path d="M8.292 259.216C12.528 259.216 15.18 256.912 15.3 252.94L11.22 252.4C10.956 255.064 9.72 255.712 8.16 255.712C5.856 255.712 4.86 253.96 4.86 251.2C4.86 248.44 5.856 246.688 8.16 246.688C9.72 246.688 10.968 247.456 11.22 250L15.3 249.46C15.18 245.488 12.528 243.184 8.292 243.184C3.312 243.184 0.54 246.448 0.54 251.2C0.54 255.952 3.312 259.216 8.292 259.216ZM22.6118 259.216C26.5478 259.216 28.7798 256.696 28.7798 253.024C28.7798 249.376 26.5478 246.856 22.6118 246.856C18.6758 246.856 16.4438 249.376 16.4438 253.024C16.4438 256.696 18.6758 259.216 22.6118 259.216ZM22.6118 255.832C21.1478 255.832 20.2118 254.836 20.2118 253.024C20.2118 251.236 21.1478 250.24 22.6118 250.24C24.0758 250.24 25.0118 251.236 25.0118 253.024C25.0118 254.836 24.0758 255.832 22.6118 255.832ZM37.5746 246.856C35.5106 246.856 34.3106 247.864 33.8066 249.568L33.7586 247.072H30.4706V259H34.2866V253.444C34.2866 251.332 35.1266 250.42 36.4346 250.42C37.5386 250.42 38.0066 251.044 38.0066 252.364V259H41.8226V251.224C41.8226 248.728 40.6226 246.856 37.5746 246.856ZM51.5918 255.652C51.0998 255.76 50.6678 255.82 50.1518 255.82C49.0478 255.82 48.7238 255.208 48.7238 254.212V250.312H51.8438V247.072H48.7238V243.4L44.9078 243.94V247.072H43.0838V250.312H44.9078V254.74C44.9078 257.452 46.2038 259.156 49.3958 259.156C50.3798 259.156 51.2438 259.048 52.0838 258.844L51.5918 255.652ZM64.6365 252.88C64.6365 249.184 62.4405 246.856 58.8885 246.856C55.2285 246.856 52.9125 249.472 52.9125 253.06C52.9125 256.708 55.0965 259.216 58.9245 259.216C61.8285 259.216 63.9285 257.836 64.4205 255.124L61.1805 254.716C60.9645 255.7 60.2205 256.132 58.9245 256.132C57.6765 256.132 56.9205 255.46 56.6805 253.996H64.5645C64.6245 253.564 64.6365 253.216 64.6365 252.88ZM58.8885 249.904C59.9685 249.904 60.7965 250.492 60.8805 251.824H56.7045C56.9805 250.504 57.7605 249.904 58.8885 249.904ZM73.4106 246.856C71.3466 246.856 70.1466 247.864 69.6426 249.568L69.5946 247.072H66.3066V259H70.1226V253.444C70.1226 251.332 70.9626 250.42 72.2706 250.42C73.3746 250.42 73.8426 251.044 73.8426 252.364V259H77.6586V251.224C77.6586 248.728 76.4586 246.856 73.4106 246.856ZM87.4277 255.652C86.9357 255.76 86.5037 255.82 85.9877 255.82C84.8837 255.82 84.5597 255.208 84.5597 254.212V250.312H87.6797V247.072H84.5597V243.4L80.7437 243.94V247.072H78.9197V250.312H80.7437V254.74C80.7437 257.452 82.0397 259.156 85.2317 259.156C86.2157 259.156 87.0797 259.048 87.9197 258.844L87.4277 255.652ZM100.636 259.216C104.872 259.216 107.524 256.912 107.644 252.94L103.564 252.4C103.3 255.064 102.064 255.712 100.504 255.712C98.1998 255.712 97.2038 253.96 97.2038 251.2C97.2038 248.44 98.1998 246.688 100.504 246.688C102.064 246.688 103.312 247.456 103.564 250L107.644 249.46C107.524 245.488 104.872 243.184 100.636 243.184C95.6558 243.184 92.8838 246.448 92.8838 251.2C92.8838 255.952 95.6558 259.216 100.636 259.216ZM116.744 247.072V252.808C116.744 254.92 115.904 255.832 114.596 255.832C113.492 255.832 113.024 255.208 113.024 253.888V247.072H109.208V254.848C109.208 257.344 110.408 259.216 113.456 259.216C115.412 259.216 116.588 258.316 117.14 256.756L117.428 259H120.56V247.072H116.744ZM126.15 249.616L126.102 247.072H122.838V258.976H126.654V253.888C126.654 251.344 128.382 250.648 130.386 251.032V246.892C128.142 246.544 126.75 247.756 126.15 249.616ZM142.934 255.82C142.37 255.82 142.25 255.556 142.25 255.064V251.872C142.25 248.944 141.206 246.856 136.754 246.856C133.598 246.856 131.366 248.368 131.33 251.248L135.038 251.56C135.074 250.432 135.662 249.928 136.754 249.928C138.134 249.928 138.506 250.732 138.506 251.824V252.208C137.894 252.1 137.27 252.04 136.466 252.04C133.154 252.04 130.91 252.988 130.91 255.46C130.91 257.56 132.29 259.216 134.942 259.216C136.982 259.216 138.362 258.532 138.95 257.2C139.142 258.64 139.862 259.096 141.722 259.096C142.442 259.096 142.994 259.048 143.594 258.904V255.772C143.366 255.808 143.15 255.82 142.934 255.82ZM136.442 256.384C135.446 256.384 135.026 255.952 135.026 255.304C135.026 254.584 135.662 254.224 137.09 254.224C137.63 254.224 138.074 254.284 138.506 254.38V255.532C138.11 256.072 137.39 256.384 136.442 256.384ZM152.092 255.652C151.6 255.76 151.168 255.82 150.652 255.82C149.548 255.82 149.224 255.208 149.224 254.212V250.312H152.344V247.072H149.224V243.4L145.408 243.94V247.072H143.584V250.312H145.408V254.74C145.408 257.452 146.704 259.156 149.896 259.156C150.88 259.156 151.744 259.048 152.584 258.844L152.092 255.652ZM155.801 246.328C157.001 246.328 158.033 245.368 158.033 244.168C158.033 242.968 157.001 242.008 155.801 242.008C154.601 242.008 153.569 242.968 153.569 244.168C153.569 245.368 154.601 246.328 155.801 246.328ZM153.893 259H157.709V247.072H153.893V259ZM165.557 259.216C169.493 259.216 171.725 256.696 171.725 253.024C171.725 249.376 169.493 246.856 165.557 246.856C161.621 246.856 159.389 249.376 159.389 253.024C159.389 256.696 161.621 259.216 165.557 259.216ZM165.557 255.832C164.093 255.832 163.157 254.836 163.157 253.024C163.157 251.236 164.093 250.24 165.557 250.24C167.021 250.24 167.957 251.236 167.957 253.024C167.957 254.836 167.021 255.832 165.557 255.832ZM180.52 246.856C178.456 246.856 177.256 247.864 176.752 249.568L176.704 247.072H173.416V259H177.232V253.444C177.232 251.332 178.072 250.42 179.38 250.42C180.484 250.42 180.952 251.044 180.952 252.364V259H184.768V251.224C184.768 248.728 183.568 246.856 180.52 246.856Z" fill="#555555"/>
<path d="M272.985 201.311C270.274 198.261 266.511 196.581 262.392 196.581C256.595 196.581 252.927 200.01 250.87 202.887C250.336 203.632 249.879 204.38 249.5 205.087C249.118 204.38 248.664 203.632 248.13 202.887C246.073 200.01 242.405 196.584 236.608 196.584C232.488 196.584 228.727 198.261 226.012 201.311C223.43 204.218 222 208.115 222 212.278C222 216.81 223.788 221.026 227.624 225.544C231.05 229.584 235.984 233.747 241.696 238.568C243.824 240.364 246.024 242.22 248.367 244.252L248.439 244.313C248.741 244.577 249.121 244.709 249.5 244.709C249.879 244.709 250.256 244.577 250.561 244.313L250.633 244.252C252.976 242.22 255.176 240.364 257.305 238.568C263.016 233.747 267.947 229.584 271.376 225.544C275.213 221.026 277 216.81 277 212.278C277 208.115 275.576 204.221 272.985 201.311ZM255.217 236.137C253.383 237.685 251.494 239.28 249.503 240.994C247.512 239.28 245.625 237.685 243.788 236.137C232.609 226.705 225.226 220.47 225.226 212.278C225.226 208.89 226.364 205.747 228.432 203.423C230.525 201.069 233.429 199.774 236.611 199.774C241.03 199.774 243.887 202.469 245.504 204.732C246.956 206.762 247.713 208.805 247.971 209.589C248.186 210.249 248.804 210.691 249.503 210.691C250.201 210.691 250.82 210.246 251.034 209.591C251.293 208.805 252.052 206.759 253.501 204.732C255.118 202.472 257.975 199.774 262.392 199.774C265.576 199.774 268.48 201.069 270.573 203.42C272.641 205.747 273.78 208.893 273.78 212.275C273.78 220.47 266.396 226.705 255.217 236.137Z" fill="#5375FF"/>
<path d="M207.248 222.984H200.168V215.64H197.24V222.984H190.16V225.84H197.24V233.184H200.168V225.84H207.248V222.984Z" fill="#5375FF"/>
</svg>
