<svg width="371" height="337" viewBox="0 0 371 337" fill="none" xmlns="http://www.w3.org/2000/svg">
<path d="M36 300H49.5" stroke="black"/>
<path d="M315.234 337C331.633 337 345 322.337 345 304.277V191H57.7657C41.3671 191 28 205.695 28 223.723V304.277C28 322.305 41.3383 337 57.7657 337H315.234Z" fill="#F2F2F2"/>
<path d="M185.882 176.808H184.265V170.823H182.529L178.525 176.885L178.721 177.781L183.103 177.774V180H184.265V177.767H185.882V176.808ZM179.848 176.808L181.787 173.91C182.228 173.238 182.669 172.58 183.145 171.733C183.103 172.503 183.103 173.301 183.103 174.183V176.808H179.848ZM188.14 174.974C188.623 174.974 189.029 174.575 189.029 174.085C189.029 173.595 188.623 173.196 188.14 173.196C187.65 173.196 187.236 173.595 187.236 174.085C187.236 174.575 187.65 174.974 188.14 174.974ZM188.14 180.14C188.623 180.14 189.029 179.741 189.029 179.251C189.029 178.768 188.623 178.369 188.14 178.369C187.65 178.369 187.236 178.768 187.236 179.251C187.236 179.741 187.65 180.14 188.14 180.14ZM194.471 174.176C193.666 174.176 193.022 174.372 192.399 174.876L192.609 171.929H196.921V170.9H191.594L191.286 175.478L192.238 176.052C192.917 175.408 193.47 175.184 194.233 175.184C195.5 175.184 196.137 175.968 196.137 177.144C196.13 178.439 195.318 179.104 194.058 179.104C193.015 179.104 192.091 178.558 191.839 177.424L190.719 177.641C191.069 179.272 192.322 180.14 194.037 180.14C195.983 180.14 197.383 179.006 197.383 177.137C197.383 175.331 196.333 174.176 194.471 174.176ZM202.743 174.176C201.938 174.176 201.294 174.372 200.671 174.876L200.881 171.929H205.193V170.9H199.866L199.558 175.478L200.51 176.052C201.189 175.408 201.742 175.184 202.505 175.184C203.772 175.184 204.409 175.968 204.409 177.144C204.402 178.439 203.59 179.104 202.33 179.104C201.287 179.104 200.363 178.558 200.111 177.424L198.991 177.641C199.341 179.272 200.594 180.14 202.309 180.14C204.255 180.14 205.655 179.006 205.655 177.137C205.655 175.331 204.605 174.176 202.743 174.176ZM211.077 173.112C209.915 173.112 209.096 173.588 208.655 174.491L208.641 173.245H207.556V182.73H208.697V178.782C209.152 179.65 209.943 180.14 211.077 180.14C213.037 180.14 214.143 178.691 214.143 176.612C214.143 174.547 213.037 173.112 211.077 173.112ZM210.881 179.125C209.509 179.125 208.655 178.047 208.655 176.612C208.655 175.184 209.509 174.134 210.881 174.134C212.274 174.134 212.974 175.156 212.974 176.612C212.974 178.075 212.274 179.125 210.881 179.125ZM223.139 173.105C222.019 173.105 221.291 173.623 220.92 174.47C220.64 173.574 219.989 173.105 218.897 173.105C217.819 173.105 217.126 173.581 216.748 174.358L216.755 173.245H215.691V180H216.811V176.486C216.811 174.981 217.483 174.127 218.652 174.127C219.639 174.127 219.982 174.729 219.982 176.017V180H221.095V176.486C221.095 174.981 221.76 174.127 222.929 174.127C223.916 174.127 224.259 174.75 224.259 176.017V180H225.372V175.849C225.372 174.113 224.707 173.105 223.139 173.105Z" fill="#5A5A5A"/>
<rect x="59" y="237" width="29" height="80" rx="5" fill="#5375FF"/>
<rect x="97" y="219" width="29" height="98" rx="5" fill="#5375FF"/>
<rect x="135" y="277" width="29" height="40" rx="5" fill="#5375FF"/>
<rect x="173" y="247" width="29" height="70" rx="5" fill="#5375FF"/>
<rect x="211" y="228" width="29" height="89" rx="5" fill="#5375FF"/>
<rect x="249" y="302" width="29" height="15" rx="5" fill="#5375FF"/>
<rect x="287" y="205" width="29" height="112" rx="5" fill="#5375FF"/>
<path d="M36 313H49.5" stroke="black"/>
<path d="M36 303H49.5" stroke="black"/>
<path d="M36 293H49.5" stroke="black"/>
<path d="M36 283H49.5" stroke="black"/>
<path d="M36 273H49.5" stroke="black"/>
<path d="M36 260H49.5" stroke="black"/>
<path d="M36 250H49.5" stroke="black"/>
<path d="M36 240H49.5" stroke="black"/>
<path d="M36 231H49.5" stroke="black"/>
<path d="M36 222H49.5" stroke="black"/>
<g clip-path="url(#clip0)">
<path d="M108.049 202.999H16.3918C12.5299 202.999 9.44031 199.96 9.44031 196.16V127.94C9.44031 124.141 12.5299 121.102 16.3918 121.102H108.049C111.91 121.102 115 124.141 115 127.94V196.16C115 199.875 111.91 202.999 108.049 202.999Z" fill="#5375FF"/>
<path d="M95.347 118.568C99.0373 118.568 102.127 121.523 102.127 125.238V183.664C102.127 187.295 99.1231 190.334 95.347 190.334H12.7873C9.09701 190.334 6.00746 187.379 6.00746 183.664V125.154C6.00746 121.523 9.01119 118.484 12.7873 118.484H95.347V118.568ZM95.347 112.658H12.7873C5.75 112.658 0 118.231 0 125.154V183.58C0 190.503 5.75 196.16 12.7873 196.16H95.347C102.384 196.16 108.134 190.503 108.134 183.58V125.154C108.134 118.231 102.384 112.658 95.347 112.658Z" fill="black"/>
<path d="M54.668 100.586C61.5337 100.586 67.1121 105.905 67.4554 112.575H74.1494C73.8919 102.274 65.3098 94 54.668 94C44.0263 94 35.53 102.274 35.1867 112.659H41.8807C42.224 105.905 47.8024 100.586 54.668 100.586Z" fill="black"/>
<path d="M106.418 135.456L59.9031 151.92C56.127 153.271 52.0934 153.187 48.4031 151.751L2.57477 133.768" stroke="black" stroke-miterlimit="10"/>
<path d="M53.6382 160.785C51.0636 160.785 48.918 158.675 48.918 156.142V150.232C48.918 147.699 51.0636 145.588 53.6382 145.588C56.2128 145.588 58.3583 147.699 58.3583 150.232V156.142C58.3583 158.675 56.2128 160.785 53.6382 160.785Z" fill="#5375FF"/>
<path d="M53.6382 147.698C55.0971 147.698 56.2128 148.796 56.2128 150.231V156.141C56.2128 157.576 55.0971 158.674 53.6382 158.674C52.1792 158.674 51.0636 157.576 51.0636 156.141V150.231C51.0636 148.796 52.1792 147.698 53.6382 147.698ZM53.6382 143.477C49.8621 143.477 46.7725 146.516 46.7725 150.231V156.141C46.7725 159.856 49.8621 162.896 53.6382 162.896C57.4143 162.896 60.5039 159.856 60.5039 156.141V150.231C60.5039 146.432 57.4143 143.477 53.6382 143.477Z" fill="black"/>
</g>
<path d="M250 74.8406C250 85.2299 258.298 93.6845 268.498 93.6845C278.699 93.6845 287 85.2299 287 74.8406C287 64.4512 278.699 56 268.498 56C258.298 56 250 64.4512 250 74.8406Z" fill="#5375FF"/>
<path d="M266.745 64.7152V66.7273C264.634 67.4332 263.116 69.3397 263.116 71.5761C263.116 74.4096 265.559 76.7152 268.56 76.7152C269.558 76.7152 270.371 77.4838 270.371 78.4305C270.371 79.3738 269.558 80.1457 268.556 80.1457C267.782 80.1457 266.948 79.6839 266.204 78.8461C265.559 78.1204 264.414 78.028 263.647 78.6383C262.879 79.2485 262.781 80.3271 263.427 81.0528C264.397 82.1413 265.538 82.8999 266.742 83.2859V85.2848C266.742 86.2347 267.555 87 268.556 87C269.558 87 270.371 86.2347 270.371 85.2848V83.2793C272.482 82.5701 274 80.6636 274 78.4305C274 75.5937 271.557 73.2848 268.556 73.2848C267.558 73.2848 266.742 72.5195 266.742 71.5728C266.742 70.6295 267.558 69.8576 268.556 69.8576C269.202 69.8576 269.879 70.1677 270.517 70.7548C271.24 71.4145 272.388 71.3947 273.082 70.7152C273.78 70.0357 273.759 68.9505 273.04 68.2908C272.119 67.4497 271.201 66.9714 270.371 66.7141V64.7152C270.371 63.7686 269.558 63 268.556 63C267.555 63 266.742 63.7686 266.742 64.7152H266.745Z" fill="#FBFBFB"/>
<path d="M244.092 75.796H240.84V72.436H237.984V75.796H234.732V78.628H237.984V81.988H240.84V78.628H244.092V75.796Z" fill="#5375FF"/>
<path d="M334 96.8406C334 107.23 342.298 115.684 352.498 115.684C362.699 115.684 371 107.23 371 96.8406C371 86.4512 362.699 78 352.498 78C342.298 78 334 86.4512 334 96.8406Z" fill="#5375FF"/>
<path d="M350.745 86.7152V88.7273C348.634 89.4332 347.116 91.3397 347.116 93.5761C347.116 96.4096 349.559 98.7152 352.56 98.7152C353.558 98.7152 354.371 99.4838 354.371 100.43C354.371 101.374 353.558 102.146 352.556 102.146C351.782 102.146 350.948 101.684 350.204 100.846C349.559 100.12 348.414 100.028 347.647 100.638C346.879 101.248 346.781 102.327 347.427 103.053C348.397 104.141 349.538 104.9 350.742 105.286V107.285C350.742 108.235 351.555 109 352.556 109C353.558 109 354.371 108.235 354.371 107.285V105.279C356.482 104.57 358 102.664 358 100.43C358 97.5937 355.557 95.2848 352.556 95.2848C351.558 95.2848 350.742 94.5195 350.742 93.5728C350.742 92.6295 351.558 91.8576 352.556 91.8576C353.202 91.8576 353.879 92.1677 354.517 92.7548C355.24 93.4145 356.388 93.3947 357.082 92.7152C357.78 92.0357 357.759 90.9505 357.04 90.2908C356.119 89.4497 355.201 88.9714 354.371 88.7141V86.7152C354.371 85.7686 353.558 85 352.556 85C351.555 85 350.742 85.7686 350.742 86.7152H350.745Z" fill="#FBFBFB"/>
<path d="M328.092 97.796H324.84V94.436H321.984V97.796H318.732V100.628H321.984V103.988H324.84V100.628H328.092V97.796Z" fill="#5375FF"/>
<path d="M167 65.8406C167 76.2299 175.298 84.6845 185.498 84.6845C195.699 84.6845 204 76.2299 204 65.8406C204 55.4512 195.699 47 185.498 47C175.298 47 167 55.4512 167 65.8406Z" fill="#5375FF"/>
<path d="M183.745 55.7152V57.7273C181.634 58.4332 180.116 60.3397 180.116 62.5761C180.116 65.4096 182.559 67.7152 185.56 67.7152C186.558 67.7152 187.371 68.4838 187.371 69.4305C187.371 70.3738 186.558 71.1457 185.556 71.1457C184.782 71.1457 183.948 70.6839 183.204 69.8461C182.559 69.1204 181.414 69.028 180.647 69.6383C179.879 70.2485 179.781 71.3271 180.427 72.0528C181.397 73.1413 182.538 73.8999 183.742 74.2859V76.2848C183.742 77.2347 184.555 78 185.556 78C186.558 78 187.371 77.2347 187.371 76.2848V74.2793C189.482 73.5701 191 71.6636 191 69.4305C191 66.5937 188.557 64.2848 185.556 64.2848C184.558 64.2848 183.742 63.5195 183.742 62.5728C183.742 61.6295 184.558 60.8576 185.556 60.8576C186.202 60.8576 186.879 61.1677 187.517 61.7548C188.24 62.4145 189.388 62.3947 190.082 61.7152C190.78 61.0357 190.759 59.9505 190.04 59.2908C189.119 58.4497 188.201 57.9714 187.371 57.7141V55.7152C187.371 54.7686 186.558 54 185.556 54C184.555 54 183.742 54.7686 183.742 55.7152H183.745Z" fill="#FBFBFB"/>
<path d="M161.092 66.796H157.84V63.436H154.984V66.796H151.732V69.628H154.984V72.988H157.84V69.628H161.092V66.796Z" fill="#5375FF"/>
<path d="M96 32.8406C96 43.2299 104.298 51.6845 114.498 51.6845C124.699 51.6845 133 43.2299 133 32.8406C133 22.4512 124.699 14 114.498 14C104.298 14 96 22.4512 96 32.8406Z" fill="#5375FF"/>
<path d="M112.745 22.7152V24.7273C110.634 25.4332 109.116 27.3397 109.116 29.5761C109.116 32.4096 111.559 34.7152 114.56 34.7152C115.558 34.7152 116.371 35.4838 116.371 36.4305C116.371 37.3738 115.558 38.1457 114.556 38.1457C113.782 38.1457 112.948 37.6839 112.204 36.8461C111.559 36.1204 110.414 36.028 109.647 36.6383C108.879 37.2485 108.781 38.3271 109.427 39.0528C110.397 40.1413 111.538 40.8999 112.742 41.2859V43.2848C112.742 44.2347 113.555 45 114.556 45C115.558 45 116.371 44.2347 116.371 43.2848V41.2793C118.482 40.5701 120 38.6636 120 36.4305C120 33.5937 117.557 31.2848 114.556 31.2848C113.558 31.2848 112.742 30.5195 112.742 29.5728C112.742 28.6295 113.558 27.8576 114.556 27.8576C115.202 27.8576 115.879 28.1677 116.517 28.7548C117.24 29.4145 118.388 29.3947 119.082 28.7152C119.78 28.0357 119.759 26.9505 119.04 26.2908C118.119 25.4497 117.201 24.9714 116.371 24.7141V22.7152C116.371 21.7686 115.558 21 114.556 21C113.555 21 112.742 21.7686 112.742 22.7152H112.745Z" fill="#FBFBFB"/>
<path d="M90.092 33.796H86.84V30.436H83.984V33.796H80.732V36.628H83.984V39.988H86.84V36.628H90.092V33.796Z" fill="#5375FF"/>
<path d="M212 18.8406C212 29.2299 220.298 37.6845 230.498 37.6845C240.699 37.6845 249 29.2299 249 18.8406C249 8.45124 240.699 0 230.498 0C220.298 0 212 8.45124 212 18.8406Z" fill="#5375FF"/>
<path d="M228.745 8.71523V10.7273C226.634 11.4332 225.116 13.3397 225.116 15.5761C225.116 18.4096 227.559 20.7152 230.56 20.7152C231.558 20.7152 232.371 21.4838 232.371 22.4305C232.371 23.3738 231.558 24.1457 230.556 24.1457C229.782 24.1457 228.948 23.6839 228.204 22.8461C227.559 22.1204 226.414 22.028 225.647 22.6383C224.879 23.2485 224.781 24.3271 225.427 25.0528C226.397 26.1413 227.538 26.8999 228.742 27.2859V29.2848C228.742 30.2347 229.555 31 230.556 31C231.558 31 232.371 30.2347 232.371 29.2848V27.2793C234.482 26.5701 236 24.6636 236 22.4305C236 19.5937 233.557 17.2848 230.556 17.2848C229.558 17.2848 228.742 16.5195 228.742 15.5728C228.742 14.6295 229.558 13.8576 230.556 13.8576C231.202 13.8576 231.879 14.1677 232.517 14.7548C233.24 15.4145 234.388 15.3947 235.082 14.7152C235.78 14.0357 235.759 12.9505 235.04 12.2908C234.119 11.4497 233.201 10.9714 232.371 10.7141V8.71523C232.371 7.76855 231.558 7 230.556 7C229.555 7 228.742 7.76855 228.742 8.71523H228.745Z" fill="#FBFBFB"/>
<path d="M206.092 19.796H202.84V16.436H199.984V19.796H196.732V22.628H199.984V25.988H202.84V22.628H206.092V19.796Z" fill="#5375FF"/>
<path d="M203 116.841C203 127.23 211.298 135.684 221.498 135.684C231.699 135.684 240 127.23 240 116.841C240 106.451 231.699 98 221.498 98C211.298 98 203 106.451 203 116.841Z" fill="#5375FF"/>
<path d="M219.745 106.715V108.727C217.634 109.433 216.116 111.34 216.116 113.576C216.116 116.41 218.559 118.715 221.56 118.715C222.558 118.715 223.371 119.484 223.371 120.43C223.371 121.374 222.558 122.146 221.556 122.146C220.782 122.146 219.948 121.684 219.204 120.846C218.559 120.12 217.414 120.028 216.647 120.638C215.879 121.248 215.781 122.327 216.427 123.053C217.397 124.141 218.538 124.9 219.742 125.286V127.285C219.742 128.235 220.555 129 221.556 129C222.558 129 223.371 128.235 223.371 127.285V125.279C225.482 124.57 227 122.664 227 120.43C227 117.594 224.557 115.285 221.556 115.285C220.558 115.285 219.742 114.52 219.742 113.573C219.742 112.629 220.558 111.858 221.556 111.858C222.202 111.858 222.879 112.168 223.517 112.755C224.24 113.415 225.388 113.395 226.082 112.715C226.78 112.036 226.759 110.951 226.04 110.291C225.119 109.45 224.201 108.971 223.371 108.714V106.715C223.371 105.769 222.558 105 221.556 105C220.555 105 219.742 105.769 219.742 106.715H219.745Z" fill="#FBFBFB"/>
<path d="M197.092 117.796H193.84V114.436H190.984V117.796H187.732V120.628H190.984V123.988H193.84V120.628H197.092V117.796Z" fill="#5375FF"/>
<defs>
<clipPath id="clip0">
<rect width="115" height="109" fill="white" transform="translate(0 94)"/>
</clipPath>
</defs>
</svg>
