<svg width="249" height="361" viewBox="0 0 249 361" fill="none" xmlns="http://www.w3.org/2000/svg">
<g filter="url(#filter0_d)">
<rect x="4" y="101" width="241" height="252" rx="38" fill="white"/>
<rect x="4.5" y="101.5" width="240" height="251" rx="37.5" stroke="#D1D1D1"/>
</g>
<path d="M114.544 151.124C116.76 151.124 118.145 149.979 118.333 147.86L116.5 147.613C116.286 149.115 115.525 149.537 114.505 149.537C113.042 149.537 112.347 148.452 112.347 146.775C112.347 145.098 113.042 144.012 114.505 144.012C115.525 144.012 116.292 144.48 116.5 145.936L118.333 145.689C118.171 143.57 116.76 142.426 114.544 142.426C111.898 142.426 110.39 144.194 110.39 146.775C110.39 149.355 111.898 151.124 114.544 151.124ZM122.368 151.124C124.435 151.124 125.644 149.745 125.644 147.795C125.644 145.852 124.435 144.474 122.368 144.474C120.294 144.474 119.085 145.852 119.085 147.795C119.085 149.745 120.294 151.124 122.368 151.124ZM122.368 149.576C121.419 149.576 120.808 148.894 120.808 147.795C120.808 146.703 121.419 146.027 122.368 146.027C123.31 146.027 123.915 146.703 123.915 147.795C123.915 148.894 123.31 149.576 122.368 149.576ZM134.043 144.474C133.068 144.474 132.451 144.929 132.132 145.696C131.859 144.935 131.248 144.474 130.189 144.474C129.181 144.474 128.564 144.955 128.265 145.767L128.252 144.597H126.718V151H128.453V147.899C128.453 146.677 128.921 146.086 129.688 146.086C130.325 146.086 130.585 146.495 130.585 147.36V151H132.314V147.886L132.321 147.899C132.321 146.677 132.789 146.086 133.556 146.086C134.193 146.086 134.453 146.502 134.453 147.36V151H136.182V146.898C136.182 145.468 135.577 144.474 134.043 144.474ZM141.251 144.48C140.23 144.48 139.554 144.903 139.19 145.702L139.164 144.597H137.585V153.451H139.327V150.116C139.71 150.766 140.347 151.124 141.251 151.124C142.973 151.124 144.078 149.804 144.078 147.795C144.078 145.793 142.973 144.48 141.251 144.48ZM140.841 149.583C139.899 149.583 139.268 148.861 139.268 147.795C139.268 146.736 139.899 146.04 140.841 146.04C141.79 146.04 142.323 146.716 142.323 147.795C142.323 148.881 141.79 149.583 140.841 149.583ZM151.143 149.57C150.805 149.57 150.721 149.407 150.721 149.089V147.145C150.721 145.923 150.37 144.474 147.874 144.474C146.268 144.474 145.157 145.241 145.053 146.69L146.723 146.885C146.801 146.209 147.172 145.891 147.88 145.891C148.758 145.891 149.018 146.411 149.018 147.126V147.379C148.647 147.321 148.257 147.288 147.835 147.288C146.073 147.288 144.838 147.789 144.838 149.141C144.838 150.285 145.625 151.117 147.022 151.117C148.082 151.117 148.855 150.727 149.206 150.031C149.304 150.779 149.668 151.052 150.623 151.052C150.948 151.052 151.208 151.033 151.494 150.961V149.544C151.371 149.563 151.254 149.57 151.143 149.57ZM147.614 149.791C147.035 149.791 146.717 149.55 146.717 149.076C146.717 148.595 147.146 148.367 148.075 148.367C148.407 148.367 148.706 148.393 149.018 148.452V149.147C148.738 149.55 148.218 149.791 147.614 149.791ZM156.034 144.474C154.961 144.474 154.279 144.994 153.96 145.865L153.947 144.597H152.4V151H154.142V147.919C154.142 146.697 154.708 146.105 155.54 146.105C156.268 146.105 156.586 146.515 156.586 147.392V151H158.328V146.905C158.328 145.455 157.652 144.474 156.034 144.474ZM163.794 144.597L162.793 148.432C162.67 148.907 162.559 149.355 162.455 149.778C162.345 149.336 162.228 148.861 162.111 148.419L161.103 144.597H159.134L161.227 151H161.974L161.922 151.163C161.643 152.001 160.915 152.209 159.491 151.845L159.192 153.34C161.116 153.815 162.904 153.412 163.619 151.163L165.764 144.597H163.794Z" fill="black"/>
<g clip-path="url(#clip0)">
<g filter="url(#filter1_d)">
<path d="M204.628 295.286H191.371C185.88 295.286 181.428 299.738 181.428 305.229V318.486C181.428 323.977 185.88 328.429 191.371 328.429H204.628C210.12 328.429 214.571 323.977 214.571 318.486V305.229C214.571 299.738 210.12 295.286 204.628 295.286Z" fill="black"/>
</g>
<path d="M204.628 295.286H191.371C185.88 295.286 181.428 299.738 181.428 305.229V318.486C181.428 323.977 185.88 328.429 191.371 328.429H204.628C210.12 328.429 214.571 323.977 214.571 318.486V305.229C214.571 299.738 210.12 295.286 204.628 295.286Z" fill="#5375FF"/>
<path d="M205.115 304.741C204.828 304.454 204.421 304.338 204.027 304.43L204.021 304.432L191.007 307.617C189.758 307.923 188.885 309.034 188.885 310.321V312.038C188.885 312.664 189.381 313.176 190.001 313.202L194.896 314.035C194.999 314.053 195.105 314.019 195.179 313.945L200.948 308.176C201.15 307.974 201.478 307.974 201.68 308.176C201.882 308.378 201.882 308.707 201.68 308.909L195.912 314.677C195.837 314.752 195.804 314.857 195.82 314.961L196.654 319.856C196.68 320.476 197.193 320.971 197.818 320.971H199.536C200.822 320.971 201.934 320.099 202.239 318.85L205.424 305.836L205.426 305.83C205.517 305.435 205.401 305.029 205.115 304.741Z" fill="#FBFBFB"/>
</g>
<rect x="49" y="240" width="172" height="7" rx="2" fill="#B0AFAF"/>
<rect x="87" y="255" width="105" height="8" rx="2" fill="#B0AFAF"/>
<ellipse cx="74" cy="159" rx="25" ry="24" fill="#C4C4C4"/>
<rect x="110" y="159" width="73" height="3" rx="1.5" fill="#C4C4C4"/>
<g filter="url(#filter2_d)">
<rect x="50" y="296" width="113" height="31" rx="4" fill="#5375FF"/>
</g>
<path d="M78.0235 315.13C79.811 315.13 80.799 314.194 80.8055 312.79C80.812 311.158 79.486 310.775 78.069 310.365C76.7625 309.982 75.898 309.683 75.898 308.656C75.898 307.772 76.535 307.187 77.77 307.187C79.2325 307.187 79.863 308.025 79.954 309.273L80.734 309.104C80.695 307.291 79.551 306.42 77.8025 306.42C76.171 306.42 74.9945 307.226 74.9945 308.714C74.9945 310.255 76.223 310.749 77.6985 311.145C79.0505 311.522 79.915 311.789 79.915 312.829C79.915 313.901 79.1675 314.356 78.0365 314.356C76.3595 314.356 75.521 313.576 75.547 312.107L74.7215 312.237C74.6825 314.278 76.171 315.13 78.0235 315.13ZM85.6995 308.636C84.666 308.636 83.8925 309.15 83.5025 309.949V305.926H82.651V315H83.5025V311.73C83.5025 310.281 84.3865 309.429 85.5565 309.429C86.6225 309.429 87.136 310.027 87.136 311.353V315H87.9875V311.23C87.9875 309.527 87.2335 308.636 85.6995 308.636ZM92.531 315.13C94.4095 315.13 95.625 313.732 95.625 311.88C95.625 310.027 94.4095 308.636 92.531 308.636C90.6525 308.636 89.4305 310.027 89.4305 311.88C89.4305 313.732 90.6525 315.13 92.531 315.13ZM92.531 314.369C91.1725 314.369 90.295 313.31 90.295 311.88C90.295 310.45 91.1725 309.397 92.531 309.397C93.883 309.397 94.7605 310.45 94.7605 311.88C94.7605 313.31 93.883 314.369 92.531 314.369ZM104.487 308.766L103.499 312.4C103.323 313.05 103.174 313.674 103.011 314.343C102.842 313.648 102.673 313.017 102.491 312.393L101.412 308.773H100.444L99.3581 312.393C99.1761 313.017 99.0071 313.648 98.8381 314.343C98.6756 313.674 98.5261 313.05 98.3571 312.4L97.3691 308.766H96.4851L98.2726 315H99.3516L100.541 311.067C100.684 310.593 100.795 310.125 100.925 309.631C101.055 310.125 101.172 310.593 101.315 311.067L102.498 315H103.577L105.364 308.766H104.487ZM116.371 308.636C115.292 308.636 114.59 309.156 114.252 309.975C114.005 309.098 113.414 308.636 112.387 308.636C111.34 308.636 110.677 309.117 110.339 309.884L110.352 308.766H109.54V315H110.385V311.711C110.385 310.255 111.061 309.41 112.237 309.41C113.232 309.41 113.557 310.014 113.557 311.321V315H114.395V311.711C114.395 310.255 115.065 309.41 116.241 309.41C117.242 309.41 117.567 310.034 117.567 311.321V315H118.406V311.23C118.406 309.566 117.821 308.636 116.371 308.636ZM122.962 315.13C124.84 315.13 126.056 313.732 126.056 311.88C126.056 310.027 124.84 308.636 122.962 308.636C121.083 308.636 119.861 310.027 119.861 311.88C119.861 313.732 121.083 315.13 122.962 315.13ZM122.962 314.369C121.603 314.369 120.726 313.31 120.726 311.88C120.726 310.45 121.603 309.397 122.962 309.397C124.314 309.397 125.191 310.45 125.191 311.88C125.191 313.31 124.314 314.369 122.962 314.369ZM128.417 310.04L128.43 308.766H127.618V315H128.456V311.698C128.456 310.073 129.698 309.267 130.913 309.585L130.972 308.695C129.821 308.441 128.84 308.948 128.417 310.04ZM137.298 311.756C137.298 309.891 136.277 308.636 134.522 308.636C132.761 308.636 131.63 310.06 131.63 311.867C131.63 313.713 132.806 315.13 134.62 315.13C135.881 315.13 136.817 314.545 137.181 313.433L136.511 313.199C136.212 313.94 135.627 314.389 134.62 314.389C133.372 314.389 132.585 313.459 132.488 312.127H137.291C137.298 311.997 137.298 311.873 137.298 311.756ZM134.522 309.364C135.679 309.364 136.355 310.125 136.446 311.425H132.507C132.637 310.209 133.359 309.364 134.522 309.364Z" fill="white"/>
<rect x="44.2" y="209.2" width="51.6" height="13.6" rx="6.8" stroke="#5375FF" stroke-width="0.4"/>
<rect x="107.2" y="209.2" width="41.6" height="13.6" rx="6.8" stroke="#5375FF" stroke-width="0.4"/>
<rect x="169.2" y="209.2" width="22.6" height="13.6" rx="6.8" stroke="#5375FF" stroke-width="0.4"/>
<path d="M127.861 87.4036C128.716 86.5472 128.716 85.1593 127.861 84.3028C127.006 83.4464 125.62 83.4464 124.765 84.3028C123.91 85.1593 123.91 86.5472 124.765 87.4036C125.62 88.26 127.006 88.26 127.861 87.4036ZM117.495 35.3654C117.495 48.6629 128.295 59.4839 141.572 59.4839C154.848 59.4839 165.652 48.6629 165.652 35.3654C165.652 22.0679 154.848 11.251 141.572 11.251C128.295 11.251 117.495 22.0679 117.495 35.3654Z" fill="#5375FF"/>
<path d="M101.557 122.883C102.403 123.739 103.789 123.748 104.644 122.9L115.259 112.429C117.061 110.623 117.609 107.948 116.817 105.624L119.1 103.422C120.326 102.232 121.947 101.578 123.658 101.578H152.755C157.919 101.578 162.797 99.591 166.495 95.9839C166.651 95.8363 165.341 97.3761 186.351 72.2324C189.468 68.541 189 62.9933 185.31 59.8714C181.646 56.7791 176.149 57.2221 173.024 60.8502L160.109 74.1477C158.479 72.1354 155.99 70.8824 153.302 70.8824H128.893C125.422 69.4269 121.733 68.6886 117.933 68.6886C107.39 68.6886 98.1868 73.5655 93.2502 82.7075C91.1694 82.3152 88.9749 82.9438 87.3954 84.5258L76.983 94.9883C76.1322 95.8405 76.128 97.2243 76.9788 98.0807L101.557 122.883ZM117.933 73.0761C121.286 73.0761 124.525 73.7511 127.566 75.0843C127.844 75.2066 128.143 75.2699 128.447 75.2699H153.302C155.678 75.2699 157.683 77.2105 157.683 79.6532C157.683 82.0705 155.716 84.0407 153.302 84.0407H135.443C134.234 84.0407 133.253 85.0194 133.253 86.2302C133.253 87.441 134.234 88.4239 135.443 88.4239H153.302C158.13 88.4239 162.059 84.4879 162.059 79.6489C162.059 79.2693 162.03 78.8854 161.984 78.5099C174.477 65.6427 176.237 63.8329 176.313 63.7443C177.872 61.9007 180.643 61.6686 182.484 63.2211C184.329 64.7821 184.565 67.558 182.998 69.41L163.369 92.9169C160.497 95.676 156.735 97.1905 152.755 97.1905H123.662C120.81 97.1905 118.11 98.2874 116.063 100.266L114.201 102.063L97.0538 84.8929C101.059 77.3582 108.582 73.0761 117.937 73.0761H117.933Z" fill="#5375FF"/>
<path d="M138.947 22.2113V24.7848C136.399 25.6876 134.566 28.126 134.566 30.9863C134.566 34.6102 137.515 37.5591 141.137 37.5591C142.342 37.5591 143.323 38.5421 143.323 39.7529C143.323 40.9594 142.342 41.9466 141.133 41.9466C140.198 41.9466 139.191 41.356 138.294 40.2845C137.515 39.3563 136.133 39.2382 135.207 40.0187C134.28 40.7991 134.162 42.1787 134.941 43.1068C136.112 44.499 137.49 45.4693 138.943 45.9629V48.5194C138.943 49.7344 139.924 50.7132 141.133 50.7132C142.342 50.7132 143.323 49.7344 143.323 48.5194V45.9544C145.872 45.0474 147.704 42.609 147.704 39.7529C147.704 36.1248 144.756 33.1716 141.133 33.1716C139.929 33.1716 138.943 32.1929 138.943 30.9821C138.943 29.7755 139.929 28.7884 141.133 28.7884C141.912 28.7884 142.73 29.1849 143.5 29.9359C144.372 30.7796 145.758 30.7543 146.596 29.8852C147.439 29.0162 147.413 27.6282 146.546 26.7845C145.434 25.7087 144.326 25.097 143.323 24.7679V22.2113C143.323 21.0005 142.342 20.0176 141.133 20.0176C139.924 20.0176 138.943 21.0005 138.943 22.2113H138.947Z" fill="#FBFBFB"/>
<defs>
<filter id="filter0_d" x="0" y="101" width="249" height="260" filterUnits="userSpaceOnUse" color-interpolation-filters="sRGB">
<feFlood flood-opacity="0" result="BackgroundImageFix"/>
<feColorMatrix in="SourceAlpha" type="matrix" values="0 0 0 0 0 0 0 0 0 0 0 0 0 0 0 0 0 0 127 0"/>
<feOffset dy="4"/>
<feGaussianBlur stdDeviation="2"/>
<feColorMatrix type="matrix" values="0 0 0 0 0 0 0 0 0 0 0 0 0 0 0 0 0 0 0.25 0"/>
<feBlend mode="normal" in2="BackgroundImageFix" result="effect1_dropShadow"/>
<feBlend mode="normal" in="SourceGraphic" in2="effect1_dropShadow" result="shape"/>
</filter>
<filter id="filter1_d" x="166.428" y="285.286" width="63.1429" height="63.1429" filterUnits="userSpaceOnUse" color-interpolation-filters="sRGB">
<feFlood flood-opacity="0" result="BackgroundImageFix"/>
<feColorMatrix in="SourceAlpha" type="matrix" values="0 0 0 0 0 0 0 0 0 0 0 0 0 0 0 0 0 0 127 0"/>
<feOffset dy="5"/>
<feGaussianBlur stdDeviation="7.5"/>
<feColorMatrix type="matrix" values="0 0 0 0 0.0470588 0 0 0 0 0.0666667 0 0 0 0 0.109804 0 0 0 0.151825 0"/>
<feBlend mode="normal" in2="BackgroundImageFix" result="effect1_dropShadow"/>
<feBlend mode="normal" in="SourceGraphic" in2="effect1_dropShadow" result="shape"/>
</filter>
<filter id="filter2_d" x="46" y="294" width="121" height="39" filterUnits="userSpaceOnUse" color-interpolation-filters="sRGB">
<feFlood flood-opacity="0" result="BackgroundImageFix"/>
<feColorMatrix in="SourceAlpha" type="matrix" values="0 0 0 0 0 0 0 0 0 0 0 0 0 0 0 0 0 0 127 0"/>
<feOffset dy="2"/>
<feGaussianBlur stdDeviation="2"/>
<feColorMatrix type="matrix" values="0 0 0 0 0 0 0 0 0 0 0 0 0 0 0 0 0 0 0.25 0"/>
<feBlend mode="normal" in2="BackgroundImageFix" result="effect1_dropShadow"/>
<feBlend mode="normal" in="SourceGraphic" in2="effect1_dropShadow" result="shape"/>
</filter>
<clipPath id="clip0">
<rect width="58" height="58" fill="white" transform="translate(169 287)"/>
</clipPath>
</defs>
</svg>
