<svg width="122" height="109" viewBox="0 0 122 109" fill="none" xmlns="http://www.w3.org/2000/svg">
<g clip-path="url(#clip0)">
<path d="M1.13143 0.0216163C10.6834 1.66088 19.9308 4.98312 28.7865 8.82992C37.664 12.6767 46.2368 17.2885 54.2657 22.709C70.4106 33.55 84.5754 47.1886 96.0639 62.9474C99.2841 67.3406 102.265 71.9087 105.007 76.6298C106.377 78.9903 107.683 81.3727 108.923 83.7988C110.207 86.3124 111.556 88.8259 112.405 91.5361C113.21 94.1152 109.489 95.6015 108.14 93.3503C106.921 91.2957 105.986 89.0663 104.92 86.9244C103.853 84.7824 102.722 82.6623 101.547 80.564C99.2188 76.3894 96.6948 72.3021 93.9968 68.3242C88.7095 60.565 82.7259 53.2867 76.1766 46.5767C62.9474 32.9599 47.39 21.5724 30.3966 13.1794C20.8229 8.43649 10.7922 5.02683 0.65274 1.77016C-0.478699 1.42045 -7.62939e-06 -0.175095 1.13143 0.0216163Z" fill="#A59F9F"/>
<path d="M85.0105 81.4383C91.1899 85.001 97.1083 89.0663 103.048 93.0006C108.988 96.9566 114.95 100.913 120.912 104.847C119.802 105.481 118.693 106.115 117.605 106.748C117.605 99.3827 116.103 92.17 115.146 84.8917C114.189 77.7445 113.601 70.0509 115.864 63.0786C116.734 60.3902 120.803 61.483 120.107 64.2588C119.258 67.6248 118.801 70.947 118.801 74.4223C118.801 77.9631 119.171 81.482 119.628 84.9791C120.607 92.2356 122.022 99.4483 122 106.77C122 108.366 120.107 109.634 118.693 108.672C112.753 104.694 106.813 100.716 100.872 96.7599C94.9324 92.782 88.8835 88.8915 83.2046 84.5638C82.443 83.9737 82.0296 83.012 82.5518 82.094C83.0522 81.2416 84.1619 80.9574 85.0105 81.4383Z" fill="#A59F9F"/>
</g>
<defs>
<clipPath id="clip0">
<rect width="122" height="109" fill="white" transform="matrix(-1 0 0 1 122 0)"/>
</clipPath>
</defs>
</svg>
