<svg width="121" height="108" viewBox="0 0 121 108" fill="none" xmlns="http://www.w3.org/2000/svg">
<g clip-path="url(#clip0)">
<path d="M119.878 0.0214628C110.404 1.64569 101.233 4.93744 92.4495 8.74895C83.6448 12.5605 75.1422 17.1299 67.1792 22.5007C51.1667 33.2422 37.118 46.7558 25.7236 62.37C22.5298 66.7229 19.5733 71.2491 16.8542 75.9268C15.4946 78.2657 14.1998 80.6262 12.9698 83.0301C11.6965 85.5206 10.3586 88.011 9.51694 90.6964C8.71847 93.2519 12.4087 94.7245 13.7467 92.4939C14.9551 90.4582 15.8831 88.2493 16.9405 86.1269C17.9979 84.0046 19.1201 81.904 20.2854 79.825C22.5945 75.6886 25.0978 71.6389 27.7738 67.6974C33.0177 60.0094 38.9523 52.7979 45.4479 46.1494C58.5687 32.6575 73.9985 21.3746 90.8526 13.0586C100.348 8.35914 110.296 4.98076 120.353 1.75397C121.475 1.40747 121 -0.173444 119.878 0.0214628Z" fill="#A59F9F"/>
<path d="M36.6863 80.6912C30.5575 84.2212 24.6877 88.2493 18.7963 92.1474C12.9049 96.0672 6.99198 99.987 1.07901 103.885C2.1796 104.513 3.28019 105.141 4.3592 105.769C4.3592 98.4711 5.84823 91.3245 6.79776 84.1129C7.74728 77.0313 8.32995 69.4083 6.08561 62.4999C5.2224 59.8362 1.18691 60.919 1.87748 63.6694C2.7191 67.0044 3.17229 70.2962 3.17229 73.7396C3.17229 77.2479 2.80542 80.7345 2.35224 84.1995C1.38113 91.3894 -0.0215783 98.536 1.90156e-06 105.791C1.90156e-06 107.372 1.87748 108.628 3.28019 107.675C9.17157 103.734 15.063 99.7921 20.9543 95.8723C26.8457 91.9309 32.845 88.076 38.4774 83.7881C39.2328 83.2034 39.6428 82.2505 39.1249 81.3409C38.6285 80.4963 37.5279 80.2148 36.6863 80.6912Z" fill="#A59F9F"/>
</g>
<defs>
<clipPath id="clip0">
<rect width="121" height="108" fill="white"/>
</clipPath>
</defs>
</svg>
