<svg xmlns="http://www.w3.org/2000/svg" xmlns:xlink="http://www.w3.org/1999/xlink" width="330" height="361" viewBox="0 0 330 361">
  <defs>
    <clipPath id="clip-Artboard_3">
      <rect width="330" height="361"/>
    </clipPath>
  </defs>
  <g id="Artboard_3" data-name="Artboard – 3" clip-path="url(#clip-Artboard_3)">
    <rect width="330" height="361" fill="#fff"/>
    <g id="equation" transform="translate(-217.171 -3789.5)">
      <g id="Group_37" data-name="Group 37" transform="translate(374.183 3880.525)">
        <line id="Line_8" data-name="Line 8" x2="16.978" transform="translate(0 0)" fill="none" stroke="#008fff" stroke-miterlimit="10" stroke-width="2"/>
        <line id="Line_9" data-name="Line 9" x2="16.978" transform="translate(0 8.898)" fill="none" stroke="#008fff" stroke-miterlimit="10" stroke-width="2"/>
      </g>
      <g id="Group_64" data-name="Group 64" transform="translate(217.671 3772.5)">
        <rect id="Rectangle_65" data-name="Rectangle 65" width="330" height="68.487" rx="15" transform="translate(0 17)" fill="#bd19be"/>
        <text id="ER" transform="translate(165.527 49.225)" fill="#ebf2f5" font-size="25" font-family="Tenon-X-Bold, Tenon" font-weight="700"><tspan x="-14.9" y="0">ER</tspan></text>
        <text id="Engagement_rate" data-name="Engagement rate" transform="translate(6 56.576)" fill="#ebf2f5" font-size="10" font-family="Tenon-X-Light, Tenon" font-weight="300"><tspan x="123.78" y="10">Engagement rate</tspan></text>
      </g>
      <g id="Group_73" data-name="Group 73" transform="translate(-120.477 -4)">
        <g id="Group_36" data-name="Group 36" transform="translate(495.987 3969.831)">
          <line id="Line_5" data-name="Line 5" x2="12.535" transform="translate(0 5.462)" fill="none" stroke="#008fff" stroke-miterlimit="10" stroke-width="2"/>
          <line id="Line_6" data-name="Line 6" y2="12.535" transform="translate(6.268 0)" fill="none" stroke="#008fff" stroke-miterlimit="10" stroke-width="2"/>
        </g>
        <line id="Line_7" data-name="Line 7" x2="330" transform="translate(337.648 4036.709)" fill="none" stroke="#008fff" stroke-miterlimit="10" stroke-width="2"/>
        <g id="Group_65" data-name="Group 65" transform="translate(337.648 3922.5)">
          <rect id="Rectangle_62" data-name="Rectangle 62" width="149.346" height="106.975" rx="15" fill="#ebf2f5"/>
          <path id="heart-solid" d="M30.624,34a9.062,9.062,0,0,0-12.366.9l-1.305,1.345L15.648,34.9A9.062,9.062,0,0,0,3.282,34a9.515,9.515,0,0,0-.656,13.777l12.823,13.24a2.078,2.078,0,0,0,3,0l12.823-13.24A9.51,9.51,0,0,0,30.624,34Z" transform="translate(57.832 0.196)" fill="#bd19be"/>
          <text id="Likes" transform="translate(69.662 89.077)" fill="#bd19be" font-size="17" font-family="Tenon-X-Bold, Tenon" font-weight="700"><tspan x="-19.461" y="0">Likes</tspan></text>
        </g>
        <g id="Group_66" data-name="Group 66" transform="translate(517.737 3922.5)">
          <rect id="Rectangle_63" data-name="Rectangle 63" width="149.346" height="106.975" rx="15" fill="#ebf2f5"/>
          <path id="comment-alt-solid" d="M3.83,0H26.81a3.834,3.834,0,0,1,3.83,3.83V21.065a3.834,3.834,0,0,1-3.83,3.83H21.065v5.027a.72.72,0,0,1-1.143.58l-7.474-5.607H3.83A3.833,3.833,0,0,1,0,21.065V3.83A3.834,3.834,0,0,1,3.83,0Z" transform="translate(59.296 31.209)" fill="#bd19be"/>
          <text id="Comments" transform="translate(65.78 85.595)" fill="#bd19be" font-size="17" font-family="Tenon-X-Bold, Tenon" font-weight="700"><tspan x="-41.518" y="0">Comments</tspan></text>
        </g>
        <g id="Group_67" data-name="Group 67" transform="translate(428.179 4045.762)">
          <rect id="Rectangle_66" data-name="Rectangle 66" width="149.346" height="106.975" rx="15" transform="translate(0 0)" fill="#ebf2f5"/>
          <text id="Followers" transform="translate(66.074 89.077)" fill="#bd19be" font-size="17" font-family="Tenon-X-Bold, Tenon" font-weight="700"><tspan x="-36.822" y="0">Followers</tspan></text>
          <path id="users-solid" d="M6.362,44.724a4.241,4.241,0,1,0-4.241-4.241A4.245,4.245,0,0,0,6.362,44.724Zm29.688,0a4.241,4.241,0,1,0-4.241-4.241A4.245,4.245,0,0,0,36.05,44.724Zm2.121,2.121H33.929a4.229,4.229,0,0,0-2.989,1.233,9.693,9.693,0,0,1,4.977,7.25h4.374a2.118,2.118,0,0,0,2.121-2.121V51.085A4.245,4.245,0,0,0,38.171,46.844Zm-16.965,0a7.422,7.422,0,1,0-7.422-7.422A7.418,7.418,0,0,0,21.206,46.844ZM26.3,48.965h-.55a10.247,10.247,0,0,1-9.079,0h-.55A7.636,7.636,0,0,0,8.482,56.6v1.909a3.182,3.182,0,0,0,3.181,3.181H30.749a3.182,3.182,0,0,0,3.181-3.181V56.6A7.636,7.636,0,0,0,26.3,48.965Zm-14.824-.888a4.229,4.229,0,0,0-2.989-1.233H4.241A4.245,4.245,0,0,0,0,51.085v2.121a2.118,2.118,0,0,0,2.121,2.121H6.488a9.718,9.718,0,0,1,4.983-7.25Z" transform="translate(53.624 0.162)" fill="#bd19be"/>
        </g>
      </g>
    </g>
  </g>
</svg>
