<svg xmlns="http://www.w3.org/2000/svg" xmlns:xlink="http://www.w3.org/1999/xlink" viewBox="0 0 1697.96 1348.13"><defs><style>.cls-1{fill:#f2ac19;}.cls-2{fill:#ffcb21;}.cls-3{fill:url(#linear-gradient);}</style><linearGradient id="linear-gradient" x1="1.31" y1="1347.53" x2="1.99" y2="1348.36" gradientTransform="matrix(1657.89, 0, 0, -1081.95, -1910.67, 1459000.81)" gradientUnits="userSpaceOnUse"><stop offset="0" stop-color="#efa517"/><stop offset="1" stop-color="#ffcb21"/></linearGradient></defs><g id="Layer_2" data-name="Layer 2"><g id="Layer_1-2" data-name="Layer 1"><path id="Path_28" data-name="Path 28" class="cls-1" d="M77.43,1343.31s290.9,36.4,481.57-90.77,198.47-247.11,329.32-198.87,195.27,296.22,486.17,255.22S1620.58,1183,1620.58,1183L1479.13,830,0,1009.81Z"/><path id="Path_7" data-name="Path 7" class="cls-2" d="M146.8,0S337.47,104.91,675,83.18s401.54,3.5,617.62,36.72,354.73-36.72,354.73-36.72L1698,1037.6s-357.53,73.43-526.79,0-472-64.95-638.83,0-377.54,63.19-467-31.73S146.8,0,146.8,0Z"/><path id="Path_5" data-name="Path 5" class="cls-3" d="M122,12.61S312.71,117.52,650.23,95.79s401.55,3.5,617.62,36.71,354.73-36.71,354.73-36.71l50.62,954.41s-357.53,73.44-526.79,0-472-64.94-638.83,0-377.53,63.2-467-31.72S122,12.61,122,12.61Z"/></g></g></svg>