<svg xmlns="http://www.w3.org/2000/svg" xmlns:xlink="http://www.w3.org/1999/xlink" width="1700" height="1356" viewBox="0 0 1700 1356">
  <defs>
    <linearGradient id="linear-gradient" x1="0.178" y1="0.972" x2="0.861" y2="0.143" gradientUnits="objectBoundingBox">
      <stop offset="0" stop-color="#efa517"/>
      <stop offset="1" stop-color="#ffcb21"/>
    </linearGradient>
    <clipPath id="clip-Artboard_1">
      <rect width="1700" height="1356"/>
    </clipPath>
  </defs>
  <g id="Artboard_1" data-name="Artboard – 1" clip-path="url(#clip-Artboard_1)">
    <rect width="1700" height="1356" fill="#fff"/>
    <g id="bg" transform="translate(185.4 -1257.5)">
      <path id="Path_28" data-name="Path 28" d="M8508,2527.709s290.8,36.385,481.4-90.742,198.4-247.02,329.2-198.8,195.2,296.117,486,255.13,246-125.811,246-125.811L9909.2,2014.6,8430.6,2194.331Z" transform="translate(-8616 72.62)" fill="#f2ac19"/>
      <path id="Path_7" data-name="Path 7" d="M-63.4,1320s190.6,104.871,528,83.148,401.4,3.5,617.4,36.705,354.6-36.705,354.6-36.705l50.6,954.075s-357.4,73.409-526.6,0-471.8-64.92-638.6,0-377.4,63.172-466.8-31.711S-63.4,1320-63.4,1320Z" transform="translate(24.746 -62.5)" fill="#ffcb21"/>
      <path id="Path_5" data-name="Path 5" d="M-63.4,1320s190.6,104.871,528,83.148,401.4,3.5,617.4,36.705,354.6-36.705,354.6-36.705l50.6,954.075s-357.4,73.409-526.6,0-471.8-64.92-638.6,0-377.4,63.172-466.8-31.711S-63.4,1320-63.4,1320Z" transform="translate(0 -49.897)" fill="url(#linear-gradient)"/>
    </g>
  </g>
</svg>
