<svg id="Layer_1" preserveAspectRatio="none" data-name="Layer 1" xmlns="http://www.w3.org/2000/svg" xmlns:xlink="http://www.w3.org/1999/xlink" viewBox="0 0 1493.35 1457.12"><defs><style>.cls-1{fill:#f2ac19;}.cls-2{fill:#ffcb21;}.cls-3{fill:url(#linear-gradient);}</style><linearGradient id="linear-gradient" x1="-247.06" y1="0.33" x2="-246.32" y2="-0.56" gradientTransform="translate(409719.55 765.27) scale(1657.89 1081.95)" gradientUnits="userSpaceOnUse"><stop offset="0" stop-color="#efa517"/><stop offset="1" stop-color="#ffcb21"/></linearGradient></defs><path id="Path_28" data-name="Path 28" class="cls-1" d="M-62.41,1430.69s314.68,39.37,520.93-98.19,214.64-267.31,356.21-215.12,211.23,320.42,525.9,276.07,266.2-136.13,266.2-136.13l-153-381.85-1600,194.5Z"/><path id="Path_7" data-name="Path 7" class="cls-2" d="M-.64-.13S190,104.77,527.55,83s401.55,3.5,617.63,36.72S1499.9,83,1499.9,83l50.62,954.42s-357.53,73.44-526.79,0-472-64.94-638.83,0-377.53,63.2-467-31.72S-.64-.13-.64-.13Z"/><path id="Path_5" data-name="Path 5" class="cls-3" d="M-15.88,11.47s206.25,113.48,571.35,90,434.35,3.78,668.08,39.72,383.72-39.72,383.72-39.72L1662,1133.85s-386.74,79.43-569.83,0-510.57-70.26-691,0S-7.22,1202.2-104,1099.54-15.88,11.47-15.88,11.47Z"/></svg>