<?xml version="1.0" encoding="utf-8"?>
<!-- Generator: Adobe Illustrator 24.1.3, SVG Export Plug-In . SVG Version: 6.00 Build 0)  -->
<svg version="1.1" id="Layer_1" focusable="false" xmlns="http://www.w3.org/2000/svg" xmlns:xlink="http://www.w3.org/1999/xlink"
	 x="0px" y="0px" viewBox="0 0 640 512" style="enable-background:new 0 0 640 512;" xml:space="preserve">
<style type="text/css">
	.st0{fill:#008FFF;}
</style>
<path class="st0" d="M519.2,127.9l-47.6-47.6C461.1,69.9,446.8,64,432,64H205.2c-14.8,0-29.1,5.9-39.6,16.3L118,127.9H0v255.7h64
	c17.6,0,31.8-14.2,31.9-31.7h9.1l84.6,76.4c30.9,25.1,73.8,25.7,105.6,3.8c12.5,10.8,26,15.9,41.1,15.9c18.2,0,35.3-7.4,48.8-24
	c22.1,8.7,48.2,2.6,64-16.8l26.2-32.3c5.6-6.9,9.1-14.8,10.9-23h57.9c0.1,17.5,14.4,31.7,31.9,31.7h64V127.9H519.2z M48,351.6
	c-8.8,0-16-7.2-16-16s7.2-16,16-16s16,7.2,16,16C64,344.5,56.8,351.6,48,351.6z M438,344.7l-26.1,32.2c-2.8,3.4-7.8,4-11.3,1.2
	l-23.9-19.4l-30,36.5c-6,7.3-15,4.8-18,2.4l-36.8-31.5l-15.6,19.2c-13.9,17.1-39.2,19.7-55.3,6.6l-97.3-88H96V175.8h41.9l61.7-61.6
	c2-0.8,3.7-1.5,5.7-2.3H262l-38.7,35.5c-29.4,26.9-31.1,72.3-4.4,101.3c14.8,16.2,61.2,41.2,101.5,4.4l8.2-7.5l108.2,87.8
	C440.2,336.2,440.7,341.3,438,344.7L438,344.7z M544,303.9h-69.2c-2.3-2.8-4.9-5.4-7.7-7.7l-102.7-83.4l12.5-11.4
	c6.5-6,7-16.1,1-22.6L367,167.1c-6-6.5-16.1-6.9-22.6-1l-55.2,50.6c-9.5,8.7-25.7,9.4-34.6,0c-9.3-9.9-8.5-25.1,1.2-33.9l65.6-60.1
	c7.4-6.8,17-10.5,27-10.5l83.7-0.2c2.1,0,4.1,0.8,5.5,2.3l61.7,61.6H544V303.9z M592,351.6c-8.8,0-16-7.2-16-16s7.2-16,16-16
	s16,7.2,16,16C608,344.5,600.8,351.6,592,351.6z"/>
</svg>
