<?xml version="1.0" encoding="utf-8"?>
<!-- Generator: Adobe Illustrator 24.1.3, SVG Export Plug-In . SVG Version: 6.00 Build 0)  -->
<svg version="1.1" id="Layer_1" xmlns="http://www.w3.org/2000/svg" xmlns:xlink="http://www.w3.org/1999/xlink" x="0px" y="0px"
	 viewBox="0 0 512 448" style="enable-background:new 0 0 512 448;" xml:space="preserve">
<style type="text/css">
	.st0{fill:#008FFF;}
</style>
<path class="st0" d="M256,0C114.6,0,0,93.1,0,208c0,49.6,21.4,95,57,130.7C44.5,389,2.7,434,2.2,434.5c-3,3.2-2.9,8.3,0.3,11.3
	C4,447.2,6,448,8,448c66.3,0,116-31.8,140.6-51.4C182.9,409.5,219.3,416,256,416c141.4,0,256-93.1,256-208S397.4,0,256,0z
	 M280,302.4V320c0,8.8-7.2,16-16,16h-16c-8.8,0-16-7.2-16-16v-17.7c-11.3-1.3-22.2-5.2-31.8-11.5c-6.2-4.1-6.8-13.1-1.6-18.4
	l17.5-17.5c3.7-3.7,9.3-4.2,14.1-2c3.2,1.5,6.7,2.2,10.3,2.2h32.8c4.7,0,8.4-3.8,8.4-8.4c0-3.8-2.5-7-6.1-8.1l-50.1-14.3
	c-22.2-6.4-40-24.7-42.9-47.7c-3.9-30.8,17.9-59,48.7-62.9c0.2,0,0.4-0.1,0.6-0.1V96c0-8.8,7.2-16,16-16h16c8.8,0,16,7.2,16,16v17.7
	c11.3,1.3,22.2,5.2,31.8,11.5c6.2,4.1,6.8,13.1,1.5,18.4l-17.5,17.5c-3.7,3.7-9.3,4.2-14.1,2c-3.2-1.5-6.7-2.2-10.3-2.2h-32.8
	c-4.7,0-8.4,3.8-8.4,8.4c0,3.8,2.5,7,6.1,8.1l50.1,14.3c22.2,6.4,40,24.7,42.9,47.7c3.9,30.8-17.9,59-48.7,62.9
	C280.4,302.3,280.2,302.3,280,302.4L280,302.4z"/>
</svg>
