<svg width="46" height="46" viewBox="0 0 46 46" fill="none" xmlns="http://www.w3.org/2000/svg">
<path d="M30.9486 33.1989C39.2613 33.1989 46.0002 26.4456 46.0002 18.1151C46.0002 9.78451 39.2613 3.03125 30.9486 3.03125C22.6358 3.03125 15.897 9.78451 15.897 18.1151C15.897 26.4456 22.6358 33.1989 30.9486 33.1989Z" fill="#5375FF"/>
<path d="M21 10C21 10 23.087 5.77469 30 6.00943" stroke="black" stroke-width="2" stroke-miterlimit="10" stroke-linecap="round"/>
<path d="M29.5309 1C20.9837 1 14.0478 7.85078 14.0478 16.2932C14.0478 19.7532 15.2108 22.9502 17.1725 25.5106L1.29702 42.769C0.876666 43.2257 0.90469 43.9316 1.36708 44.3468L1.75941 44.7066C2.2218 45.1218 2.93641 45.0941 3.35676 44.6374L19.05 27.5727C21.8104 30.0639 25.4815 31.5863 29.5169 31.5863C38.0641 31.5863 45 24.7355 45 16.2932C45 7.85078 38.0781 1 29.5309 1Z" stroke="black" stroke-width="2" stroke-miterlimit="10"/>
</svg>
