<svg width="39" height="40" viewBox="0 0 39 40" fill="none" xmlns="http://www.w3.org/2000/svg">
<g clip-path="url(#clip0)">
<path d="M35.8964 39.9998H4.79082C3.07698 39.9998 1.68701 38.6241 1.68701 36.928V10.4839C1.68701 8.78774 3.07698 7.41211 4.79082 7.41211H35.8964C37.6102 7.41211 39.0002 8.78774 39.0002 10.4839V36.928C39.0002 38.6241 37.6102 39.9998 35.8964 39.9998Z" fill="#5375FF"/>
<g clip-path="url(#clip1)">
<path d="M28.1166 23.3216V20.3143L25.6569 19.8289C25.5235 19.3825 25.344 18.9507 25.1227 18.5398L26.4949 16.4761L24.3753 14.3525L22.3174 15.728C21.9074 15.5061 21.4766 15.3271 21.0313 15.1916L20.547 12.7271H17.5467L17.0624 15.1925C16.617 15.3261 16.1862 15.5061 15.7763 15.728L13.7174 14.3525L11.5987 16.4771L12.971 18.5398C12.7497 18.9507 12.571 19.3825 12.4359 19.8289L9.97705 20.3143V23.3216L12.4368 23.807C12.5701 24.2534 12.7497 24.6852 12.971 25.0961L11.5987 27.1598L13.7183 29.2834L15.7763 27.908C16.1862 28.1298 16.617 28.3098 17.0624 28.4443L17.5467 30.9089H20.547L21.0313 28.4434C21.4766 28.3098 21.9074 28.1298 22.3174 27.908L24.3762 29.2834L26.4949 27.1589L25.1227 25.0961C25.344 24.6852 25.5235 24.2534 25.6578 23.807L28.1166 23.3216ZM25.1272 27.0234L24.2402 27.9125L22.3527 26.6507C21.395 27.2325 21.0775 27.3434 20.1171 27.5816L19.6726 29.8434H18.421L17.9766 27.5816C16.8837 27.3107 16.5817 27.1616 15.7409 26.6507L13.8544 27.9125L12.9664 27.0234L14.2253 25.1316C13.6403 24.1634 13.5324 23.8452 13.2966 22.8907L11.04 22.4452V21.1907L13.2966 20.7452C13.5288 19.8034 13.6349 19.4798 14.2253 18.5043L12.9664 16.6134L13.8535 15.7234L15.7409 16.9852C16.7068 16.398 17.0261 16.2898 17.9766 16.0543L18.421 13.7925H19.6726L20.1171 16.0543C21.2118 16.3252 21.5138 16.4752 22.3527 16.9852L24.2393 15.7234L25.1272 16.6125L23.8683 18.5043C24.4488 19.4625 24.5594 19.7807 24.7971 20.7452L27.0536 21.1907V22.4452L24.7971 22.8907C24.5268 23.988 24.378 24.2898 23.8683 25.1316L25.1272 27.0225V27.0234Z" fill="#0C111C"/>
<path d="M19.0466 18.0889C16.995 18.0889 15.3262 19.7616 15.3262 21.818C15.3262 23.8743 16.995 25.547 19.0466 25.547C21.0982 25.547 22.767 23.8743 22.767 21.818C22.767 19.7616 21.0982 18.0889 19.0466 18.0889ZM19.0466 24.4816C17.5818 24.4816 16.3891 23.2861 16.3891 21.818C16.3891 20.3498 17.5818 19.1543 19.0466 19.1543C20.5114 19.1543 21.704 20.3498 21.704 21.818C21.704 23.2861 20.5114 24.4816 19.0466 24.4816Z" fill="#0C111C"/>
</g>
<path d="M14.2235 0.801336C15.681 0.801336 16.8685 1.97663 16.8685 3.41903V5.54257V6.34391H17.6782H34.2093C35.4711 6.34391 36.5035 7.35893 36.5035 8.61436V35.0584C36.5035 36.3072 35.4779 37.3289 34.2093 37.3289H3.10381C1.84204 37.3289 0.809689 36.3139 0.809689 35.0584V8.61436C0.809689 8.55426 0.809689 8.48748 0.816436 8.4207L0.890657 7.55259H0.809689V3.41903C0.809689 1.97663 1.99723 0.801336 3.45467 0.801336H14.2235ZM14.2235 0H3.45467C1.54516 0 0 1.52922 0 3.41903V8.34725H0.0134948C0.0067474 8.43406 0 8.52087 0 8.61436V35.0584C0 36.7546 1.38997 38.1302 3.10381 38.1302H34.2093C35.9232 38.1302 37.3131 36.7546 37.3131 35.0584V8.61436C37.3131 6.9182 35.9232 5.54257 34.2093 5.54257H17.6782V3.41903C17.6782 1.52922 16.133 0 14.2235 0Z" fill="black"/>
<path d="M32.2123 9.81647C33.1637 9.81647 33.9396 10.5844 33.9396 11.526V32.147C33.9396 33.0886 33.1637 33.8565 32.2123 33.8565H5.52628C4.5749 33.8565 3.79895 33.0886 3.79895 32.147V11.526C3.79895 10.5844 4.5749 9.81647 5.52628 9.81647H32.2123ZM32.2123 9.01514H5.52628C4.12282 9.01514 2.98926 10.137 2.98926 11.526V32.147C2.98926 33.536 4.12282 34.6579 5.52628 34.6579H32.2123C33.6157 34.6579 34.7493 33.536 34.7493 32.147V11.526C34.7493 10.137 33.6157 9.01514 32.2123 9.01514Z" fill="black"/>
</g>
<defs>
<clipPath id="clip0">
<rect width="39" height="40" fill="white"/>
</clipPath>
<clipPath id="clip1">
<rect width="18.1395" height="18.1818" fill="white" transform="translate(9.97705 12.7271)"/>
</clipPath>
</defs>
</svg>
