<svg width="54" height="41" viewBox="0 0 54 41" fill="none" xmlns="http://www.w3.org/2000/svg">
<g clip-path="url(#clip0)">
<path d="M49.5909 40.9997H5.95498C3.52217 40.9997 1.54639 39.0208 1.54639 36.5842V16.542C1.54639 14.1053 3.52217 12.1265 5.95498 12.1265H49.5979C52.0308 12.1265 54.0065 14.1053 54.0065 16.542V36.5913C53.9995 39.0279 52.0237 40.9997 49.5909 40.9997Z" fill="#5375FF"/>
<path d="M48.2555 39.8024H4.61953C2.18672 39.8024 0.210938 37.8306 0.210938 35.394V15.3447C0.210938 12.9081 2.18672 10.9292 4.61953 10.9292H48.2625C50.6953 10.9292 52.6711 12.9081 52.6711 15.3447V35.394C52.6641 37.8306 50.6883 39.8024 48.2555 39.8024Z" stroke="black" stroke-miterlimit="10"/>
<path d="M31.5703 10.93C31.5703 10.9159 31.5703 10.9089 31.5703 10.8948C31.5703 8.03565 29.257 5.71875 26.4023 5.71875C23.5477 5.71875 21.2344 8.03565 21.2344 10.8948C21.2344 10.9089 21.2344 10.9159 21.2344 10.93H31.5703Z" fill="white" stroke="black" stroke-miterlimit="10"/>
<path d="M29.749 6.95086L36.4779 0.211426" stroke="black" stroke-miterlimit="10" stroke-linecap="round"/>
<path d="M23.0556 6.95086L16.3267 0.211426" stroke="black" stroke-miterlimit="10" stroke-linecap="round"/>
<path d="M38.468 35.2322H7.16484C5.42109 35.2322 4.00781 33.8167 4.00781 32.0702V17.7533C4.00781 16.0068 5.42109 14.5913 7.16484 14.5913H38.468C40.2117 14.5913 41.625 16.0068 41.625 17.7533V32.0702C41.625 33.8167 40.2117 35.2322 38.468 35.2322Z" stroke="black" stroke-miterlimit="10"/>
<path d="M47.3906 20.8942C48.5362 20.8942 49.4648 19.9641 49.4648 18.8167C49.4648 17.6694 48.5362 16.7393 47.3906 16.7393C46.2451 16.7393 45.3164 17.6694 45.3164 18.8167C45.3164 19.9641 46.2451 20.8942 47.3906 20.8942Z" stroke="black" stroke-miterlimit="10"/>
</g>
<defs>
<clipPath id="clip0">
<rect width="54" height="41" fill="white"/>
</clipPath>
</defs>
</svg>
