<?xml version="1.0" standalone="no"?>
<!DOCTYPE svg PUBLIC "-//W3C//DTD SVG 20010904//EN"
 "http://www.w3.org/TR/2001/REC-SVG-20010904/DTD/svg10.dtd">
<svg version="1.0" xmlns="http://www.w3.org/2000/svg"
 width="1495.000000pt" height="1495.000000pt" viewBox="0 0 1495.000000 1495.000000"
 preserveAspectRatio="xMidYMid meet">
<metadata>
Created by potrace 1.11, written by Peter Selinger 2001-2013
</metadata>
<g transform="translate(0.000000,1495.000000) scale(0.100000,-0.100000)"
fill="#000000" stroke="none">
<path d="M4475 11624 c-170 -7 -393 -34 -565 -69 -36 -7 -92 -19 -125 -25 -56
-12 -86 -19 -210 -55 -99 -28 -241 -74 -295 -95 -30 -12 -66 -25 -80 -29 -74
-24 -463 -208 -550 -261 -206 -126 -340 -214 -403 -266 -9 -7 -21 -14 -26 -14
-5 0 -11 -3 -13 -8 -1 -4 -23 -23 -48 -42 -181 -138 -506 -451 -625 -600 -33
-41 -62 -77 -66 -80 -3 -3 -25 -32 -50 -65 -24 -32 -52 -67 -61 -77 -10 -10
-18 -22 -18 -26 0 -5 -8 -17 -18 -28 -31 -34 -189 -280 -216 -334 -4 -8 -22
-42 -41 -75 -113 -201 -239 -490 -307 -710 -53 -169 -83 -275 -98 -350 -6 -33
-18 -87 -25 -120 -61 -274 -94 -730 -70 -960 16 -150 24 -191 60 -298 31 -97
108 -259 148 -312 4 -5 27 -38 52 -72 161 -225 429 -417 695 -498 173 -52 307
-70 477 -61 212 10 343 39 508 111 17 7 37 16 45 19 8 3 38 19 65 36 28 16 57
33 65 37 37 17 200 146 250 198 30 31 62 64 71 73 19 20 118 158 138 192 137
234 201 476 201 761 0 114 21 237 65 373 29 90 103 252 143 311 89 132 216
272 312 346 25 18 47 37 48 41 2 5 8 8 14 8 5 0 24 10 41 23 95 67 280 151
387 176 159 37 196 41 359 41 167 0 196 -4 366 -45 130 -32 246 -86 390 -181
89 -59 113 -78 200 -163 106 -103 202 -233 265 -361 18 -36 37 -73 42 -84 14
-27 63 -190 82 -272 11 -48 19 -163 26 -350 11 -306 41 -574 80 -734 5 -19 16
-71 25 -115 9 -44 23 -102 31 -130 8 -27 21 -72 29 -100 38 -130 122 -371 154
-440 10 -22 31 -67 46 -100 35 -79 109 -227 143 -290 36 -66 115 -199 122
-205 3 -3 14 -22 25 -42 11 -21 23 -38 27 -38 5 0 8 -5 8 -10 0 -18 196 -281
295 -396 153 -179 356 -380 505 -502 36 -29 74 -61 85 -70 47 -39 181 -136
262 -189 48 -32 90 -61 93 -64 3 -3 12 -9 20 -13 8 -4 24 -12 35 -19 17 -10
81 -48 160 -94 34 -19 277 -140 330 -163 28 -12 59 -26 70 -31 11 -4 45 -18
75 -29 30 -11 64 -25 75 -30 17 -7 169 -58 301 -100 44 -14 169 -45 239 -59
33 -7 87 -18 120 -26 221 -50 444 -69 800 -69 354 0 535 16 795 69 36 7 92 19
125 25 57 12 94 21 210 55 106 31 242 75 295 95 30 12 66 25 80 29 74 24 463
208 550 261 206 126 340 214 403 266 9 7 21 14 26 14 5 0 11 3 13 8 2 4 23 23
48 42 181 138 506 451 625 600 33 41 62 77 66 80 3 3 25 32 50 65 24 33 46 62
49 65 3 3 17 21 30 40 13 19 27 37 30 40 15 14 183 277 203 320 4 8 28 51 52
95 70 125 140 273 190 400 15 39 33 84 40 100 20 47 40 103 67 190 53 169 83
275 98 350 6 33 18 87 25 120 61 274 94 730 70 960 -16 150 -24 191 -60 298
-31 97 -108 259 -148 312 -4 5 -27 38 -52 72 -161 225 -429 417 -695 498 -334
102 -678 84 -985 -50 -16 -7 -37 -16 -45 -19 -8 -3 -37 -19 -65 -36 -27 -16
-57 -33 -65 -37 -37 -17 -200 -146 -250 -198 -30 -31 -62 -64 -71 -73 -19 -20
-118 -158 -138 -192 -137 -234 -201 -476 -201 -761 0 -114 -21 -237 -65 -374
-36 -112 -140 -324 -176 -355 -3 -3 -20 -26 -38 -53 -40 -59 -170 -193 -236
-242 -27 -21 -51 -42 -53 -47 -2 -4 -8 -8 -14 -8 -5 0 -24 -10 -41 -23 -95
-67 -280 -151 -387 -176 -159 -37 -196 -41 -359 -41 -167 0 -196 4 -366 45
-130 32 -246 86 -390 181 -89 59 -113 78 -200 163 -106 103 -202 233 -265 361
-18 36 -37 73 -42 84 -14 27 -63 190 -82 272 -10 47 -19 164 -26 345 -6 151
-15 310 -21 354 -5 44 -14 114 -19 155 -5 41 -11 82 -14 90 -3 8 -10 42 -15
75 -12 78 -55 271 -81 360 -12 39 -25 84 -29 100 -21 76 -112 330 -140 390
-10 22 -31 67 -46 100 -35 79 -109 227 -143 290 -36 66 -115 199 -122 205 -3
3 -14 22 -25 43 -11 20 -23 37 -27 37 -5 0 -8 5 -8 10 0 18 -196 281 -295 396
-153 179 -356 380 -505 502 -36 29 -74 61 -85 70 -47 39 -181 136 -262 189
-48 32 -90 61 -93 64 -3 3 -12 9 -20 13 -8 4 -24 12 -35 19 -17 10 -81 48
-160 94 -34 19 -277 140 -330 163 -27 12 -59 26 -70 31 -11 4 -45 18 -75 29
-30 11 -64 25 -75 30 -17 7 -169 58 -301 100 -44 14 -169 45 -239 59 -33 7
-87 19 -120 26 -69 16 -230 40 -360 55 -95 10 -535 20 -670 14z"/>
</g>
</svg>
